<?xml version="1.0" encoding="UTF-8" standalone="no"?>
<svg
   xmlns:dc="http://purl.org/dc/elements/1.1/"
   xmlns:cc="http://creativecommons.org/ns#"
   xmlns:rdf="http://www.w3.org/1999/02/22-rdf-syntax-ns#"
   xmlns:svg="http://www.w3.org/2000/svg"
   xmlns="http://www.w3.org/2000/svg"
   xmlns:sodipodi="http://sodipodi.sourceforge.net/DTD/sodipodi-0.dtd"
   xmlns:inkscape="http://www.inkscape.org/namespaces/inkscape"
   xml:space="preserve"
   width="112.10775mm"
   height="93.384361mm"
   version="1.1"
   style="clip-rule:evenodd;fill-rule:evenodd;image-rendering:optimizeQuality;shape-rendering:geometricPrecision;text-rendering:geometricPrecision"
   viewBox="0 0 11210.576 9338.2707"
   id="svg36"
   sodipodi:docname="BgDetailClassHeader.svg"
   inkscape:version="1.0.1 (3bc2e813f5, 2020-09-07)"><metadata
   id="metadata40"><rdf:RDF><cc:Work
       rdf:about=""><dc:format>image/svg+xml</dc:format><dc:type
         rdf:resource="http://purl.org/dc/dcmitype/StillImage" /></cc:Work></rdf:RDF></metadata><sodipodi:namedview
   pagecolor="#ffffff"
   bordercolor="#666666"
   borderopacity="1"
   objecttolerance="10"
   gridtolerance="10"
   guidetolerance="10"
   inkscape:pageopacity="0"
   inkscape:pageshadow="2"
   inkscape:window-width="1920"
   inkscape:window-height="1001"
   id="namedview38"
   showgrid="false"
   inkscape:zoom="0.91703095"
   inkscape:cx="351.06553"
   inkscape:cy="251.46452"
   inkscape:window-x="-9"
   inkscape:window-y="-9"
   inkscape:window-maximized="1"
   inkscape:current-layer="svg36"
   inkscape:document-rotation="0" />
 <defs
   id="defs13">
  <style
   type="text/css"
   id="style2">
   <![CDATA[
    .fil3 {fill:none}
    .fil1 {fill:#AB69C6}
    .fil2 {fill:#B775D1}
    .fil0 {fill:#E6E6E6}
   ]]>
  </style>
   <clipPath
   id="id0">
    <path
   d="m -13648,20352 h 6096 v 11309 h -6096 z"
   id="path4" />
   </clipPath>
    <clipPath
   id="id1">
     <path
   d="m -13648,20352 h 6096 v 11309 h -6096 z"
   id="path7" />
    </clipPath>
    <clipPath
   id="id2">
     <path
   d="m -13648,20352 h 6096 v 11309 h -6096 z"
   id="path10" />
    </clipPath>
 <clipPath
   clipPathUnits="userSpaceOnUse"
   id="clipPath28"><rect
     style="fill:#ab69c6;stroke-width:26.4579"
     id="rect30"
     width="12463.916"
     height="6203.1069"
     x="-16215.798"
     y="19226.785" /></clipPath></defs>
 <g
   id="Layer_x0020_1"
   transform="matrix(1.8390053,0,0,1.8390053,25098.744,-37427.436)"
   clip-path="url(#clipPath28)">
  <metadata
   id="CorelCorpID_0Corel-Layer" />
  <polygon
   class="fil0"
   points="-13648,31661 -13648,20352 -7552,20352 -7552,31661 "
   id="polygon16" />
  <g
   clip-path="url(#id0)"
   id="g31">
   <g
   id="_227466495664">
    <polygon
   id="1"
   class="fil1"
   points="-13648,33844 -13648,20352 -7552,20352 -7552,33844 " />
   </g>
   <g
   clip-path="url(#id1)"
   id="g25">
    <g
   id="g23">
     <path
   id="2"
   class="fil2"
   d="m -13648,18757 c 912,0 1651,739 1651,1651 0,912 -739,1652 -1651,1652 -912,0 -1652,-740 -1652,-1652 0,-912 740,-1651 1652,-1651 z m 0,870 c 431,0 781,350 781,781 0,432 -350,782 -781,782 -432,0 -782,-350 -782,-782 0,-431 350,-781 782,-781 z" />
     <path
   class="fil2"
   d="m -7552,23351 c 912,0 1651,739 1651,1651 0,912 -739,1652 -1651,1652 -912,0 -1652,-740 -1652,-1652 0,-912 740,-1651 1652,-1651 z m 0,870 c 431,0 781,350 781,781 0,432 -350,782 -781,782 -432,0 -782,-350 -782,-782 0,-431 350,-781 782,-781 z"
   id="path21" />
    </g>
   </g>
   <g
   clip-path="url(#id2)"
   id="g29">
    <polygon
   class="fil3"
   points="-13648,33844 -13648,20352 -7552,20352 -7552,33844 "
   id="polygon27" />
   </g>
  </g>
  <polygon
   class="fil3"
   points="-13648,31661 -13648,20352 -7552,20352 -7552,31661 "
   id="polygon33" />
 </g>
</svg>
