<svg xmlns="http://www.w3.org/2000/svg" xml:space="preserve" width="39.006" height="39.006" style="clip-rule:evenodd;fill-rule:evenodd;image-rendering:optimizeQuality;shape-rendering:geometricPrecision;text-rendering:geometricPrecision" viewBox="0 0 2132 2132"><g transform="translate(-7181 -8285)"><path d="M8247 8285c589 0 1066 477 1066 1066s-477 1066-1066 1066-1066-477-1066-1066 477-1066 1066-1066z" style="fill:#999;fill-opacity:.2"/><circle cx="8247" cy="9351" r="1038" style="fill:#fff"/><path d="M8052 9226c-16 17-43 17-59 0-16-16-17-43 0-59l222-222c8-9 19-15 32-15s24 6 32 15l222 222c16 16 17 43 0 59-16 17-43 17-59 0l-153-152v656c0 23-19 42-42 42s-42-19-42-42v-656z" style="fill:#6e248d;fill-rule:nonzero"/></g></svg>