<svg xmlns="http://www.w3.org/2000/svg" xml:space="preserve" width="409.028" height="111.196" style="clip-rule:evenodd;fill-rule:evenodd;image-rendering:optimizeQuality;shape-rendering:geometricPrecision;text-rendering:geometricPrecision" viewBox="0 0 10822 2942"><defs><linearGradient id="b" gradientUnits="userSpaceOnUse" x1="8430.71" y1="8218.4" x2="8430.71" y2="5275.62"><stop offset="0" style="stop-opacity:1;stop-color:#9b59b6"/><stop offset="1" style="stop-opacity:1;stop-color:#6e248d"/></linearGradient><linearGradient id="a" gradientUnits="userSpaceOnUse" x1="8430.74" y1="8179.5" x2="8430.74" y2="5314.52"><stop offset="0" style="stop-opacity:1;stop-color:#8435a6"/><stop offset=".502" style="stop-opacity:1;stop-color:#662980"/><stop offset="1" style="stop-opacity:1;stop-color:#8435a6"/></linearGradient></defs><path d="M3650 5315h9561c326 0 592 266 592 592v1680c0 326-266 593-592 593H3650c-325 0-592-267-592-593V5907c0-326 267-592 592-592z" style="fill:url(#a)" transform="translate(-3020 -5276)"/><path d="M3650 5276h9561c174 0 331 71 446 185 114 114 185 272 185 446v1680c0 174-71 332-185 446-115 114-272 185-446 185H3650c-173 0-331-71-445-185s-185-272-185-446V5907c0-174 71-332 185-446s272-185 445-185zm9561 77H3650c-152 0-290 63-390 163s-163 238-163 391v1680c0 153 63 291 163 391s238 163 390 163h9561c152 0 290-63 391-163 100-100 162-238 162-391V5907c0-153-62-291-162-391-101-100-239-163-391-163z" style="fill:url(#b);fill-rule:nonzero" transform="translate(-3020 -5276)"/></svg>