<?xml version="1.0" encoding="UTF-8" standalone="no"?>
<svg
   xmlns:dc="http://purl.org/dc/elements/1.1/"
   xmlns:cc="http://creativecommons.org/ns#"
   xmlns:rdf="http://www.w3.org/1999/02/22-rdf-syntax-ns#"
   xmlns:svg="http://www.w3.org/2000/svg"
   xmlns="http://www.w3.org/2000/svg"
   xmlns:sodipodi="http://sodipodi.sourceforge.net/DTD/sodipodi-0.dtd"
   xmlns:inkscape="http://www.inkscape.org/namespaces/inkscape"
   xml:space="preserve"
   width="108.22192mm"
   height="29.420521mm"
   version="1.1"
   style="clip-rule:evenodd;fill-rule:evenodd;image-rendering:optimizeQuality;shape-rendering:geometricPrecision;text-rendering:geometricPrecision"
   viewBox="0 0 10822 2942.0001"
   id="svg24"
   sodipodi:docname="button_kelas belajariah.svg"
   inkscape:version="1.0.1 (3bc2e813f5, 2020-09-07)"><metadata
   id="metadata28"><rdf:RDF><cc:Work
       rdf:about=""><dc:format>image/svg+xml</dc:format><dc:type
         rdf:resource="http://purl.org/dc/dcmitype/StillImage" /></cc:Work></rdf:RDF></metadata><sodipodi:namedview
   pagecolor="#ffffff"
   bordercolor="#666666"
   borderopacity="1"
   objecttolerance="10"
   gridtolerance="10"
   guidetolerance="10"
   inkscape:pageopacity="0"
   inkscape:pageshadow="2"
   inkscape:window-width="1920"
   inkscape:window-height="1001"
   id="namedview26"
   showgrid="false"
   inkscape:zoom="1.2968776"
   inkscape:cx="205.85561"
   inkscape:cy="-33.628601"
   inkscape:window-x="-9"
   inkscape:window-y="-9"
   inkscape:window-maximized="1"
   inkscape:current-layer="svg24" />
 <defs
   id="defs16">
  <style
   type="text/css"
   id="style2">
   <![CDATA[
    .fil1 {fill:url(#id0);fill-rule:nonzero}
    .fil0 {fill:url(#id1)}
   ]]>
  </style>
  <linearGradient
   id="id0"
   gradientUnits="userSpaceOnUse"
   x1="8430.71"
   y1="8218.4004"
   x2="8430.71"
   y2="5275.6201">
   <stop
   offset="0"
   style="stop-opacity:1; stop-color:#9B59B6"
   id="stop4" />
   <stop
   offset="1"
   style="stop-opacity:1; stop-color:#6E248D"
   id="stop6" />
  </linearGradient>
  <linearGradient
   id="id1"
   gradientUnits="userSpaceOnUse"
   x1="8430.7402"
   y1="8179.5"
   x2="8430.7402"
   y2="5314.52">
   <stop
   offset="0"
   style="stop-opacity:1; stop-color:#8435A6"
   id="stop9" />
   <stop
   offset="0.501961"
   style="stop-opacity:1; stop-color:#662980"
   id="stop11" />
   <stop
   offset="1"
   style="stop-opacity:1; stop-color:#8435A6"
   id="stop13" />
  </linearGradient>
 </defs>
 <g
   id="Layer_x0020_1"
   transform="translate(-3020,-5276)">
  <metadata
   id="CorelCorpID_0Corel-Layer" />
  <path
   class="fil0"
   d="m 3650,5315 h 9561 c 326,0 592,266 592,592 v 1680 c 0,326 -266,593 -592,593 H 3650 c -325,0 -592,-267 -592,-593 V 5907 c 0,-326 267,-592 592,-592 z"
   id="path19"
   style="fill:url(#id1)" />
  <path
   class="fil1"
   d="m 3650,5276 h 9561 c 174,0 331,71 446,185 114,114 185,272 185,446 v 1680 c 0,174 -71,332 -185,446 -115,114 -272,185 -446,185 H 3650 c -173,0 -331,-71 -445,-185 -114,-114 -185,-272 -185,-446 V 5907 c 0,-174 71,-332 185,-446 114,-114 272,-185 445,-185 z m 9561,77 H 3650 c -152,0 -290,63 -390,163 -100,100 -163,238 -163,391 v 1680 c 0,153 63,291 163,391 100,100 238,163 390,163 h 9561 c 152,0 290,-63 391,-163 100,-100 162,-238 162,-391 V 5907 c 0,-153 -62,-291 -162,-391 -101,-100 -239,-163 -391,-163 z"
   id="path21"
   style="fill:url(#id0)" />
 </g>
</svg>
