<?xml version="1.0" encoding="UTF-8" standalone="no"?>
<svg
   xmlns:dc="http://purl.org/dc/elements/1.1/"
   xmlns:cc="http://creativecommons.org/ns#"
   xmlns:rdf="http://www.w3.org/1999/02/22-rdf-syntax-ns#"
   xmlns:svg="http://www.w3.org/2000/svg"
   xmlns="http://www.w3.org/2000/svg"
   xmlns:sodipodi="http://sodipodi.sourceforge.net/DTD/sodipodi-0.dtd"
   xmlns:inkscape="http://www.inkscape.org/namespaces/inkscape"
   width="74.51562pt"
   height="24.910156pt"
   viewBox="0 0 123.51562 35.910156"
   version="1.1"
   id="svg21"
   sodipodi:docname="BtnReadMore.svg"
   inkscape:version="1.0.1 (3bc2e813f5, 2020-09-07)">
  <metadata
     id="metadata27">
    <rdf:RDF>
      <cc:Work
         rdf:about="">
        <dc:format>image/svg+xml</dc:format>
        <dc:type
           rdf:resource="http://purl.org/dc/dcmitype/StillImage" />
      </cc:Work>
    </rdf:RDF>
  </metadata>
  <defs
     id="defs25" />
  <sodipodi:namedview
     pagecolor="#ffffff"
     bordercolor="#666666"
     borderopacity="1"
     objecttolerance="10"
     gridtolerance="10"
     guidetolerance="10"
     inkscape:pageopacity="0"
     inkscape:pageshadow="2"
     inkscape:window-width="1920"
     inkscape:window-height="1001"
     id="namedview23"
     showgrid="false"
     inkscape:zoom="7.29"
     inkscape:cx="83.333333"
     inkscape:cy="24"
     inkscape:window-x="-9"
     inkscape:window-y="-9"
     inkscape:window-maximized="1"
     inkscape:current-layer="svg21" />
  <g
     id="surface1">
    <path
       style="fill:#e6e6e6;fill-opacity:1;fill-rule:evenodd;stroke:none"
       d="m 23.035156,0 h 77.445314 c 12.71875,0 23.03516,8.035156 23.03516,17.953125 0,9.914063 -10.31641,17.957031 -23.03516,17.957031 H 23.035156 C 10.316406,35.910156 0,27.867188 0,17.953125 0,8.035156 10.316406,0 23.035156,0 Z m 0,0"
       id="path2" />
    <path
       style="fill:#7f7f7f;fill-opacity:1;fill-rule:nonzero;stroke:none"
       d="M 26.738281,23.355469 H 28.125 v -4.582031 h 1.507812 l 2.546876,4.582031 h 1.742187 L 31.027344,18.65625 c 1.613281,-0.234375 2.542968,-1.40625 2.542968,-2.695312 0,-1.414063 -0.695312,-2.9375 -3.246093,-2.9375 H 26.738281 Z M 28.125,14.195312 h 1.742188 c 1.160156,0 2.195312,0.351563 2.195312,1.765626 0,1.40625 -1.035156,1.640624 -2.195312,1.640624 H 28.125 Z m 0,0"
       id="path4" />
    <path
       style="fill:#7f7f7f;fill-opacity:1;fill-rule:nonzero;stroke:none"
       d="m 41.671875,20.414062 v -0.46875 c 0,-1.757812 -0.921875,-3.632812 -3.351563,-3.632812 -2.082031,0 -3.480468,1.523438 -3.480468,3.632812 0,2.003907 1.28125,3.644532 3.480468,3.644532 1.269532,0 2.3125,-0.46875 3.007813,-1.40625 l -0.929687,-0.832032 c -0.574219,0.714844 -1.152344,1.066407 -1.855469,1.066407 -1.269531,0 -2.304688,-0.832031 -2.304688,-2.003907 z m -5.433594,-1.054687 c 0,-0.9375 0.800781,-1.992187 2.082031,-1.992187 1.269532,0 1.960938,0.820312 1.960938,1.992187 z m 0,0"
       id="path6" />
    <path
       style="fill:#7f7f7f;fill-opacity:1;fill-rule:nonzero;stroke:none"
       d="m 44.105469,18.070312 c 0.457031,-0.351562 0.925781,-0.703124 1.855469,-0.703124 1.152343,0 1.730468,0.703124 1.730468,1.40625 V 19.125 h -1.039062 c -2.089844,0 -3.703125,0.585938 -3.703125,2.34375 0,1.417969 1.039062,2.121094 2.308593,2.121094 1.046876,0 1.855469,-0.351563 2.433594,-1.289063 0,0.351563 0,0.703125 0.117188,1.054688 h 1.160156 c -0.117188,-0.351563 -0.117188,-0.703125 -0.117188,-1.171875 v -3.644532 c 0,-1.171874 -0.808593,-2.226562 -2.890624,-2.226562 -0.929688,0 -1.972657,0.234375 -2.667969,0.9375 z m 3.585937,1.992188 v 0.46875 c 0,0.9375 -0.578125,2.003906 -1.964844,2.003906 -0.929687,0 -1.503906,-0.351562 -1.503906,-1.183594 0,-1.054687 1.503906,-1.289062 2.773438,-1.289062 z m 0,0"
       id="path8" />
    <path
       style="fill:#7f7f7f;fill-opacity:1;fill-rule:nonzero;stroke:none"
       d="m 57.648438,12.320312 h -1.269532 v 5.164063 H 56.261719 C 55.792969,16.664062 54.875,16.3125 53.945312,16.3125 c -2.199218,0 -3.46875,1.523438 -3.46875,3.632812 0,2.003907 1.269532,3.644532 3.46875,3.644532 0.929688,0 1.847657,-0.46875 2.316407,-1.171875 h 0.117187 v 0.9375 h 1.269532 z M 54.0625,22.300781 c -1.386719,0 -2.199219,-0.949219 -2.199219,-2.355469 0,-1.40625 0.8125,-2.460937 2.199219,-2.460937 1.386719,0 2.316406,1.054687 2.316406,2.460937 0,1.40625 -0.929687,2.355469 -2.316406,2.355469 z m 0,0"
       id="path10" />
    <path
       style="fill:#7f7f7f;fill-opacity:1;fill-rule:nonzero;stroke:none"
       d="m 65.289062,14.898438 3.472657,8.457031 H 69.6875 l 3.472656,-8.457031 v 8.457031 h 1.386719 V 13.023438 h -2.082031 l -3.246094,7.859374 -3.234375,-7.859374 h -2.082031 v 10.332031 h 1.386718 z m 0,0"
       id="path12" />
    <path
       style="fill:#7f7f7f;fill-opacity:1;fill-rule:nonzero;stroke:none"
       d="m 77.789062,19.945312 c 0,-1.40625 0.929688,-2.460937 2.316407,-2.460937 1.390625,0 2.199219,1.054687 2.199219,2.460937 0,1.40625 -0.808594,2.355469 -2.199219,2.355469 -1.386719,0 -2.316407,-0.949219 -2.316407,-2.355469 z m -1.386718,0 c 0,2.003907 1.621094,3.644532 3.703125,3.644532 1.964843,0 3.589843,-1.640625 3.589843,-3.644532 0,-2.109374 -1.625,-3.632812 -3.589843,-3.632812 -2.082031,0 -3.703125,1.523438 -3.703125,3.632812 z m 0,0"
       id="path14" />
    <path
       style="fill:#7f7f7f;fill-opacity:1;fill-rule:nonzero;stroke:none"
       d="m 85.316406,23.355469 h 1.386719 v -3.410157 c 0,-1.523437 0.695313,-2.226562 1.964844,-2.226562 0.117187,0 0.351562,0 0.585937,0 l 0.117188,-1.40625 c -0.234375,0 -0.46875,0 -0.585938,0 -0.917968,0 -1.730468,0.46875 -2.082031,1.171875 v -1.054687 h -1.386719 z m 0,0"
       id="path16" />
    <path
       style="fill:#7f7f7f;fill-opacity:1;fill-rule:nonzero;stroke:none"
       d="m 96.886719,20.414062 v -0.46875 c 0,-1.757812 -0.917969,-3.632812 -3.351563,-3.632812 -1.964844,0 -3.46875,1.523438 -3.46875,3.632812 0,2.003907 1.386719,3.644532 3.46875,3.644532 1.386719,0 2.316406,-0.46875 3.125,-1.40625 l -1.042968,-0.832032 c -0.460938,0.714844 -1.039063,1.066407 -1.847657,1.066407 -1.28125,0 -2.316406,-0.832031 -2.316406,-2.003907 z m -5.433594,-1.054687 c 0,-0.9375 0.808594,-1.992187 2.082031,-1.992187 1.386719,0 1.964844,0.820312 1.964844,1.992187 z m 0,0"
       id="path18" />
  </g>
</svg>
