<svg xmlns="http://www.w3.org/2000/svg" width="99.354" height="33.214" viewBox="0 0 123.516 35.91"><path style="fill:#e6e6e6;fill-opacity:1;fill-rule:evenodd;stroke:none" d="M23.035 0h77.445c12.72 0 23.036 8.035 23.036 17.953 0 9.914-10.317 17.957-23.036 17.957H23.035C10.316 35.91 0 27.867 0 17.953 0 8.035 10.316 0 23.035 0zm0 0"/><path style="fill:#7f7f7f;fill-opacity:1;fill-rule:nonzero;stroke:none" d="M26.738 23.355h1.387v-4.582h1.508l2.547 4.582h1.742l-2.895-4.699c1.614-.234 2.543-1.406 2.543-2.695 0-1.414-.695-2.938-3.246-2.938h-3.586zm1.387-9.16h1.742c1.16 0 2.195.352 2.195 1.766 0 1.406-1.035 1.64-2.195 1.64h-1.742zM41.672 20.414v-.469c0-1.757-.922-3.632-3.352-3.632-2.082 0-3.48 1.523-3.48 3.632 0 2.004 1.281 3.645 3.48 3.645 1.27 0 2.313-.469 3.008-1.406l-.93-.832c-.574.714-1.152 1.066-1.855 1.066-1.27 0-2.305-.832-2.305-2.004zm-5.434-1.055c0-.937.801-1.992 2.082-1.992 1.27 0 1.961.82 1.961 1.992zM44.105 18.07c.458-.351.926-.703 1.856-.703 1.152 0 1.73.703 1.73 1.406v.352h-1.039c-2.09 0-3.703.586-3.703 2.344 0 1.418 1.04 2.12 2.309 2.12 1.047 0 1.855-.35 2.433-1.288 0 .351 0 .703.118 1.054h1.16c-.117-.351-.117-.703-.117-1.171v-3.645c0-1.172-.809-2.227-2.891-2.227-.93 0-1.973.235-2.668.938zm3.586 1.993v.468c0 .938-.578 2.004-1.964 2.004-.93 0-1.504-.351-1.504-1.183 0-1.055 1.504-1.29 2.773-1.29zM57.648 12.32h-1.27v5.164h-.116c-.469-.82-1.387-1.172-2.317-1.172-2.199 0-3.468 1.524-3.468 3.633 0 2.004 1.27 3.645 3.468 3.645.93 0 1.848-.469 2.317-1.172h.117v.937h1.27zm-3.586 9.98c-1.386 0-2.199-.948-2.199-2.355 0-1.406.813-2.46 2.2-2.46 1.386 0 2.316 1.054 2.316 2.46 0 1.407-.93 2.356-2.316 2.356zM65.29 14.898l3.472 8.457h.925l3.473-8.457v8.457h1.387V13.023h-2.082l-3.246 7.86-3.235-7.86h-2.082v10.332h1.387zM77.79 19.945c0-1.406.929-2.46 2.315-2.46 1.391 0 2.2 1.054 2.2 2.46 0 1.407-.809 2.356-2.2 2.356-1.386 0-2.316-.95-2.316-2.356zm-1.388 0c0 2.004 1.621 3.645 3.703 3.645 1.965 0 3.59-1.64 3.59-3.645 0-2.11-1.625-3.632-3.59-3.632-2.082 0-3.703 1.523-3.703 3.632zM85.316 23.355h1.387v-3.41c0-1.523.695-2.226 1.965-2.226h.586l.117-1.407h-.586c-.918 0-1.73.47-2.082 1.172V16.43h-1.387zM96.887 20.414v-.469c0-1.757-.918-3.632-3.352-3.632-1.965 0-3.469 1.523-3.469 3.632 0 2.004 1.387 3.645 3.47 3.645 1.386 0 2.316-.469 3.124-1.406l-1.043-.832c-.46.714-1.039 1.066-1.847 1.066-1.282 0-2.317-.832-2.317-2.004zm-5.434-1.055c0-.937.809-1.992 2.082-1.992 1.387 0 1.965.82 1.965 1.992zm0 0"/></svg>