<?xml version="1.0" encoding="UTF-8"?>
<!DOCTYPE svg PUBLIC "-//W3C//DTD SVG 1.1//EN" "http://www.w3.org/Graphics/SVG/1.1/DTD/svg11.dtd">
<!-- Creator: CorelDRAW X7 -->
<svg xmlns="http://www.w3.org/2000/svg" xml:space="preserve" width="35.8138mm" height="35.8138mm" version="1.1" style="shape-rendering:geometricPrecision; text-rendering:geometricPrecision; image-rendering:optimizeQuality; fill-rule:evenodd; clip-rule:evenodd"
viewBox="0 0 3581 3581"
 xmlns:xlink="http://www.w3.org/1999/xlink">
 <defs>
  <style type="text/css">
   <![CDATA[
    .fil0 {fill:white;fill-rule:nonzero}
   ]]>
  </style>
 </defs>
 <g id="Layer_x0020_1">
  <metadata id="CorelCorpID_0Corel-Layer"/>
  <path class="fil0" d="M153 0l922 0 0 307 -768 0 0 767 -307 0 0 -921 0 -153 153 0 0 0zm631 2626l1842 -1842 171 171 -1842 1842 -171 -171zm-477 -119l0 767 768 0 0 307 -922 0 -153 0 0 -153 0 -921 307 0 0 0zm2200 -2507l921 0 153 0 0 153 0 921 -307 0 0 -767 -767 0 0 -307 0 0zm1074 2507l0 921 0 153 -153 0 -921 0 0 -307 767 0 0 -767 307 0 0 0z"/>
 </g>
</svg>
