<svg xmlns="http://www.w3.org/2000/svg" xml:space="preserve" width="89.6" height="89.6" style="shape-rendering:geometricPrecision;text-rendering:geometricPrecision;image-rendering:optimizeQuality;fill-rule:evenodd;clip-rule:evenodd" viewBox="0 0 2371 2371"><path d="M1185 0C531 0 0 531 0 1185c0 655 531 1186 1185 1186 655 0 1186-531 1186-1186C2371 531 1840 0 1185 0zm-164 1370h77V994h-75l-122 104 45 52 75-67v287zm436-376h-227l-4 208c25-9 52-14 78-14 41 0 86 13 86 62 0 33-21 56-55 56-28 0-47-18-52-45l-83 19c16 64 62 97 127 97 82 0 143-50 143-135 0-77-54-124-130-124-14 0-24 1-33 4l1-58h149v-70zm-272-552c-206 0-393 83-529 219-135 136-219 323-219 529 0 207 84 394 219 530 135 135 323 219 529 219 207 0 394-84 529-219l1-1c135-135 219-322 219-529h-136c0 170-69 323-179 433l-1 1c-110 110-263 179-433 179-169 0-322-69-433-180s-179-264-179-433 68-322 179-433 264-179 433-179v158l196-113 196-113-196-113-196-113v158z" style="fill:#fff"/></svg>