<svg xmlns="http://www.w3.org/2000/svg" xml:space="preserve" width="89.6" height="89.6" style="shape-rendering:geometricPrecision;text-rendering:geometricPrecision;image-rendering:optimizeQuality;fill-rule:evenodd;clip-rule:evenodd" viewBox="0 0 2371 2371"><path d="M1185-2c656 0 1187 532 1187 1187 0 656-531 1187-1187 1187C530 2372-2 1841-2 1185-2 530 530-2 1185-2zm0 442c207 0 395 84 530 220h1c135 136 219 323 219 530s-84 395-219 530c-136 136-324 220-531 220-206 0-394-84-530-220-135-136-219-323-219-530h136c0 170 68 323 179 434h1c110 111 264 180 433 180 170 0 323-69 434-180s180-264 180-434c0-169-69-323-180-434s-264-179-434-179v158L989 622 793 509l196-114 196-113v158zm-164 931h77V994h-75l-123 104 45 52 76-67v288zm437-377h-228l-4 208c25-9 52-14 78-14 42 0 87 13 87 62 0 33-22 57-56 57-28 0-47-18-52-46l-83 20c16 63 62 96 127 96 82 0 144-50 144-135 0-77-55-124-131-124-14 0-24 1-33 4l1-58h150v-70z" style="fill:#fff"/></svg>