<?xml version="1.0" encoding="UTF-8"?>
<!DOCTYPE svg PUBLIC "-//W3C//DTD SVG 1.1//EN" "http://www.w3.org/Graphics/SVG/1.1/DTD/svg11.dtd">
<!-- Creator: CorelDRAW X7 -->
<svg xmlns="http://www.w3.org/2000/svg" xml:space="preserve" width="23.7066mm" height="23.7066mm" version="1.1" style="shape-rendering:geometricPrecision; text-rendering:geometricPrecision; image-rendering:optimizeQuality; fill-rule:evenodd; clip-rule:evenodd"
viewBox="0 0 2371 2371"
 xmlns:xlink="http://www.w3.org/1999/xlink">
 <defs>
  <style type="text/css">
   <![CDATA[
    .fil0 {fill:white}
   ]]>
  </style>
 </defs>
 <g id="Layer_x0020_1">
  <metadata id="CorelCorpID_0Corel-Layer"/>
  <path class="fil0" d="M1185 -2c656,0 1187,532 1187,1187 0,656 -531,1187 -1187,1187 -655,0 -1187,-531 -1187,-1187 0,-655 532,-1187 1187,-1187zm0 442c207,0 395,84 530,220l1 0c135,136 219,323 219,530 0,207 -84,395 -219,530 -136,136 -324,220 -531,220 -206,0 -394,-84 -530,-220l0 0 0 0c-135,-136 -219,-323 -219,-530l136 0c0,170 68,323 179,434l1 0c110,111 264,180 433,180 170,0 323,-69 434,-180 111,-111 180,-264 180,-434 0,-169 -69,-323 -180,-434 -111,-111 -264,-179 -434,-179l0 158 -196 -113 -196 -113 196 -114 196 -113 0 158 0 0zm-164 931l77 0 0 -377 -75 0 -123 104 45 52 76 -67 0 288zm437 -377l-228 0 -4 208c25,-9 52,-14 78,-14 42,0 87,13 87,62 0,33 -22,57 -56,57 -28,0 -47,-18 -52,-46l-83 20c16,63 62,96 127,96 82,0 144,-50 144,-135 0,-77 -55,-124 -131,-124 -14,0 -24,1 -33,4l1 -58 150 0 0 -70 0 0z"/>
 </g>
</svg>
