<?xml version="1.0" encoding="UTF-8"?>
<!DOCTYPE svg PUBLIC "-//W3C//DTD SVG 1.1//EN" "http://www.w3.org/Graphics/SVG/1.1/DTD/svg11.dtd">
<!-- Creator: CorelDRAW X7 -->
<svg xmlns="http://www.w3.org/2000/svg" xml:space="preserve" width="23.7066mm" height="23.7066mm" version="1.1" style="shape-rendering:geometricPrecision; text-rendering:geometricPrecision; image-rendering:optimizeQuality; fill-rule:evenodd; clip-rule:evenodd"
viewBox="0 0 2371 2371"
 xmlns:xlink="http://www.w3.org/1999/xlink">
 <defs>
  <style type="text/css">
   <![CDATA[
    .fil0 {fill:white}
   ]]>
  </style>
 </defs>
 <g id="Layer_x0020_1">
  <metadata id="CorelCorpID_0Corel-Layer"/>
  <path class="fil0" d="M1185 0c-654,0 -1185,531 -1185,1185 0,655 531,1186 1185,1186 655,0 1186,-531 1186,-1186 0,-654 -531,-1185 -1186,-1185zm-164 1370l77 0 0 -376 -75 0 -122 104 45 52 75 -67 0 287zm436 -376l-227 0 -4 208c25,-9 52,-14 78,-14 41,0 86,13 86,62 0,33 -21,56 -55,56 -28,0 -47,-18 -52,-45l-83 19c16,64 62,97 127,97 82,0 143,-50 143,-135 0,-77 -54,-124 -130,-124 -14,0 -24,1 -33,4l1 -58 149 0 0 -70 0 0zm-272 -552c-206,0 -393,83 -529,219l0 0c-135,136 -219,323 -219,529 0,207 84,394 219,530 135,135 323,219 529,219 207,0 394,-84 529,-219l1 -1 0 0c135,-135 219,-322 219,-529l-136 0c0,170 -69,323 -179,433l-1 1c-110,110 -263,179 -433,179 -169,0 -322,-69 -433,-180 -111,-111 -179,-264 -179,-433 0,-169 68,-322 179,-433 111,-111 264,-179 433,-179l0 158 196 -113 196 -113 -196 -113 -196 -113 0 158 0 0z"/>
 </g>
</svg>
