<svg xmlns="http://www.w3.org/2000/svg" xml:space="preserve" width="50" height="50" style="shape-rendering:geometricPrecision;text-rendering:geometricPrecision;image-rendering:optimizeQuality;fill-rule:evenodd;clip-rule:evenodd" viewBox="0 0 73 75"><g style="fill:#000;fill-opacity:1"><path d="M28.77 28.79c.67-.67 1.76-.67 2.44 0 .67.68.67 1.77 0 2.44l-6.54 6.54 6.54 6.54c.67.67.67 1.76 0 2.43-.68.67-1.77.67-2.44 0l-7.72-7.72-.04-.03c-.67-.68-.67-1.77 0-2.44l7.76-7.76zm3.81 10.7c-.96 0-1.73-.77-1.73-1.72s.77-1.72 1.73-1.72h17.23a1.72 1.72 0 1 1 0 3.44H32.58z" style="fill:#000;fill-opacity:1;fill-rule:nonzero"/></g></svg>