<svg width="262" height="200" viewBox="0 0 262 211" fill="none" xmlns="http://www.w3.org/2000/svg"><path d="m39.248 124.334-2.023-1.904c-.51.714-1.41 1.224-2.55 1.224-2.005 0-3.416-1.496-3.416-3.689 0-2.125 1.444-3.689 3.468-3.689.918 0 1.887.357 2.43 1.105l1.973-1.972c-1.004-1.156-2.823-1.768-4.506-1.768-3.672 0-6.528 2.465-6.528 6.324 0 3.774 2.771 6.358 6.478 6.358 2.023 0 3.62-.765 4.675-1.989zm3.95 1.666v-12.852h-2.823V126h2.822zm5.233-11.169c0-.85-.714-1.53-1.598-1.53-.901 0-1.598.714-1.598 1.53 0 .833.697 1.53 1.598 1.53.884 0 1.598-.663 1.598-1.53zM48.227 126v-8.466h-2.788V126h2.788zm9.654-7.599c-.663-.68-1.938-1.139-3.145-1.139-2.635 0-4.726 1.751-4.726 4.505 0 2.805 2.074 4.505 4.743 4.505 1.241 0 2.431-.408 3.128-1.088l-1.547-1.887c-.34.408-.952.629-1.513.629-1.224 0-1.989-.986-1.989-2.159 0-1.173.782-2.176 1.955-2.176.561 0 1.173.272 1.48.68l1.614-1.87zm6.799 2.958 3.264-3.825h-3.383l-2.703 3.434h-.051v-7.82h-2.805V126h2.805v-4.063h.051L64.629 126h3.451l-3.4-4.641zM81.607 126v-8.466H78.82v4.573c0 .969-.527 1.819-1.496 1.819-1.02 0-1.258-.85-1.258-1.802v-4.59H73.26v5.236c0 1.7.8 3.468 3.077 3.468 1.19 0 2.16-.663 2.55-1.411h.034V126h2.686zm10.545 0v-5.236c0-1.7-.816-3.468-3.094-3.468-1.173 0-2.142.663-2.533 1.411h-.034v-1.173h-2.703V126h2.805v-4.59c0-.969.51-1.819 1.496-1.819 1.003 0 1.258.85 1.258 1.785V126h2.805zm7.126-6.375v-2.091H97.29v-2.227h-2.737v2.227H93.21v2.091h1.36v3.57c0 1.802.748 3.009 3.01 3.009.594 0 1.24-.119 1.614-.255l-.034-2.04c-.204.085-.544.136-.816.136-.799 0-1.054-.408-1.054-1.19v-3.23h1.99zM108.85 126v-8.466h-2.788v4.573c0 .969-.527 1.819-1.496 1.819-1.02 0-1.258-.85-1.258-1.802v-4.59h-2.805v5.236c0 1.7.799 3.468 3.077 3.468 1.19 0 2.159-.663 2.55-1.411h.034V126h2.686zm7.876-4.641 3.264-3.825h-3.383l-2.703 3.434h-.051v-7.82h-2.805V126h2.805v-4.063h.051l2.771 4.063h3.451l-3.4-4.641zM138.991 126v-5.236c0-1.598-.782-3.468-3.077-3.468-1.258 0-2.142.561-2.703 1.445-.476-.918-1.326-1.445-2.55-1.445-1.275 0-2.142.697-2.533 1.411h-.034v-1.173h-2.703V126h2.805v-4.59c0-1.02.51-1.819 1.394-1.819.833 0 1.207.612 1.207 1.581V126h2.788v-4.573c0-.952.459-1.836 1.411-1.836.986 0 1.207.816 1.207 1.785V126h2.788zm4.349-5.202c.068-.867.85-1.615 1.921-1.615 1.105 0 1.666.731 1.666 1.615h-3.587zm6.154 1.071c0-2.89-1.751-4.607-4.25-4.607-2.567 0-4.573 1.768-4.573 4.539 0 2.856 2.108 4.471 4.658 4.471 1.717 0 3.043-.646 3.842-1.802l-1.938-1.224c-.374.51-.986.884-1.87.884-1.003 0-1.938-.663-2.023-1.598h6.137c.017-.204.017-.442.017-.663zM159.587 126v-5.236c0-1.7-.816-3.468-3.094-3.468-1.173 0-2.142.663-2.533 1.411h-.034v-1.173h-2.703V126h2.805v-4.59c0-.969.51-1.819 1.496-1.819 1.003 0 1.258.85 1.258 1.785V126h2.805zm11.088-.799v-7.667h-2.635v1.088h-.034c-.595-.901-1.649-1.326-2.703-1.326-2.55 0-4.029 2.091-4.029 4.437s1.479 4.352 4.046 4.352c1.122 0 2.04-.442 2.567-1.122h.051v.51c0 1.411-.765 2.363-2.397 2.363a4.33 4.33 0 0 1-2.805-1.071l-1.394 1.989c1.139.85 2.873 1.326 4.352 1.326 3.009 0 4.981-1.564 4.981-4.879zm-2.652-3.485c0 1.156-.782 2.159-2.057 2.159-1.258 0-1.989-1.037-1.989-2.159 0-1.173.731-2.142 1.989-2.142s2.057.986 2.057 2.142zm8.707.935v-2.21h-4.318v2.21h4.318zm9.965 3.349v-8.466h-2.788v4.573c0 .969-.527 1.819-1.496 1.819-1.02 0-1.258-.85-1.258-1.802v-4.59h-2.805v5.236c0 1.7.799 3.468 3.077 3.468 1.19 0 2.159-.663 2.55-1.411h.034V126h2.686zm11.599-4.267c0-2.363-1.547-4.437-4.012-4.437-1.241 0-2.193.595-2.703 1.275h-.051v-1.037h-2.652v12.546h2.788v-5.015h.034c.527.731 1.53 1.173 2.567 1.173 2.55 0 4.029-2.142 4.029-4.505zm-2.703 0c0 1.105-.663 2.193-1.989 2.193-1.258 0-2.04-1.071-2.04-2.176 0-1.071.782-2.176 2.04-2.176 1.326 0 1.989 1.071 1.989 2.159zm7.313 4.267v-12.852h-2.822V126h2.822zm11.184-4.267c0-2.771-2.142-4.471-4.709-4.471-2.55 0-4.692 1.7-4.692 4.471s2.142 4.539 4.692 4.539c2.567 0 4.709-1.768 4.709-4.539zm-2.686 0c0 1.088-.697 2.193-2.006 2.193-1.309 0-2.006-1.105-2.006-2.193s.68-2.159 1.989-2.159c1.309 0 2.023 1.071 2.023 2.159zm9.449.867c0 1.054-.629 1.734-1.751 1.734-.561 0-1.207-.221-1.207-.867 0-1.003 1.377-1.156 2.601-1.156h.357v.289zm-3.706-2.397c.51-.476 1.292-.867 2.091-.867.867 0 1.53.391 1.53 1.224v.136c-2.465 0-5.44.408-5.44 2.856 0 1.989 1.734 2.652 3.077 2.652 1.003 0 1.972-.408 2.397-1.105h.051V126h2.55v-4.267c0-3.077-1.054-4.471-3.893-4.471-1.377 0-2.788.493-3.774 1.428l1.411 1.513zM234.458 126v-12.852h-2.788v5.287h-.034c-.476-.561-1.343-1.139-2.584-1.139-2.465 0-3.995 2.074-3.995 4.437 0 2.363 1.479 4.505 4.029 4.505 1.122 0 2.227-.493 2.771-1.343h.034V126h2.567zm-2.669-4.25c0 1.105-.782 2.176-2.04 2.176-1.326 0-2.006-1.088-2.006-2.193 0-1.088.68-2.159 2.006-2.159 1.258 0 2.04 1.105 2.04 2.176zm-141.63 19.983c0-2.363-1.547-4.437-4.012-4.437-1.24 0-2.193.595-2.703 1.275h-.05v-1.037H80.74v12.546h2.788v-5.015h.034c.527.731 1.53 1.173 2.567 1.173 2.55 0 4.03-2.142 4.03-4.505zm-2.703 0c0 1.105-.663 2.193-1.989 2.193-1.258 0-2.04-1.071-2.04-2.176 0-1.071.782-2.176 2.04-2.176 1.326 0 1.99 1.071 1.99 2.159zm6.702-.935c.068-.867.85-1.615 1.921-1.615 1.105 0 1.666.731 1.666 1.615h-3.587zm6.154 1.071c0-2.89-1.75-4.607-4.25-4.607-2.567 0-4.573 1.768-4.573 4.539 0 2.856 2.108 4.471 4.658 4.471 1.717 0 3.043-.646 3.842-1.802l-1.938-1.224c-.374.51-.986.884-1.87.884-1.003 0-1.938-.663-2.023-1.598h6.137c.017-.204.017-.442.017-.663zM115.641 146v-5.236c0-1.598-.782-3.468-3.077-3.468-1.258 0-2.142.561-2.703 1.445-.476-.918-1.326-1.445-2.55-1.445-1.275 0-2.142.697-2.533 1.411h-.034v-1.173h-2.703V146h2.805v-4.59c0-1.02.51-1.819 1.394-1.819.833 0 1.207.612 1.207 1.581V146h2.788v-4.573c0-.952.459-1.836 1.411-1.836.986 0 1.207.816 1.207 1.785V146h2.788zm11.54-4.267c0-2.363-1.53-4.437-3.995-4.437-1.241 0-2.108.578-2.584 1.139h-.034v-5.287h-2.788V146h2.567v-1.105h.034c.544.85 1.649 1.343 2.771 1.343 2.55 0 4.029-2.142 4.029-4.505zm-2.686 0c0 1.105-.68 2.193-2.006 2.193-1.258 0-2.04-1.071-2.04-2.176 0-1.071.782-2.176 2.04-2.176 1.326 0 2.006 1.071 2.006 2.159zm9.455.867c0 1.054-.629 1.734-1.751 1.734-.561 0-1.207-.221-1.207-.867 0-1.003 1.377-1.156 2.601-1.156h.357v.289zm-3.706-2.397c.51-.476 1.292-.867 2.091-.867.867 0 1.53.391 1.53 1.224v.136c-2.465 0-5.44.408-5.44 2.856 0 1.989 1.734 2.652 3.077 2.652 1.003 0 1.972-.408 2.397-1.105h.051V146h2.55v-4.267c0-3.077-1.054-4.471-3.893-4.471-1.377 0-2.788.493-3.774 1.428l1.411 1.513zm16.905-2.669h-2.958l-1.683 5.44h-.051l-1.887-5.44h-3.094l3.536 8.33-.272.697c-.272.731-.561 1.139-1.428 1.139-.272 0-.629-.068-.901-.153l-.306 2.346a6.85 6.85 0 0 0 1.53.187c2.125 0 3.043-1.037 3.723-2.805l3.791-9.741zm6.076 5.066c0 1.054-.629 1.734-1.751 1.734-.561 0-1.207-.221-1.207-.867 0-1.003 1.377-1.156 2.601-1.156h.357v.289zm-3.706-2.397c.51-.476 1.292-.867 2.091-.867.867 0 1.53.391 1.53 1.224v.136c-2.465 0-5.44.408-5.44 2.856 0 1.989 1.734 2.652 3.077 2.652 1.003 0 1.972-.408 2.397-1.105h.051V146h2.55v-4.267c0-3.077-1.054-4.471-3.893-4.471-1.377 0-2.788.493-3.774 1.428l1.411 1.513zm13.947-2.839c-.136-.051-.374-.068-.595-.068-1.037 0-1.87.612-2.295 1.462h-.034v-1.224h-2.686V146h2.788v-4.352c0-.697.493-1.921 1.989-1.921.221 0 .459.017.714.085l.119-2.448zm5.862 5.236c0 1.054-.629 1.734-1.751 1.734-.561 0-1.207-.221-1.207-.867 0-1.003 1.377-1.156 2.601-1.156h.357v.289zm-3.706-2.397c.51-.476 1.292-.867 2.091-.867.867 0 1.53.391 1.53 1.224v.136c-2.465 0-5.44.408-5.44 2.856 0 1.989 1.734 2.652 3.077 2.652 1.003 0 1.972-.408 2.397-1.105h.051V146h2.55v-4.267c0-3.077-1.054-4.471-3.893-4.471-1.377 0-2.788.493-3.774 1.428l1.411 1.513zM182.323 146v-5.236c0-1.7-.816-3.468-3.094-3.468-1.173 0-2.142.663-2.533 1.411h-.034v-1.173h-2.703V146h2.805v-4.59c0-.969.51-1.819 1.496-1.819 1.003 0 1.258.85 1.258 1.785V146h2.805z" fill="#1A1A1A"/><g style="mix-blend-mode:multiply" opacity=".4" filter="url(#a)"><path fill-rule="evenodd" clip-rule="evenodd" d="M37.561.974H18.974c-7.732 0-14 6.268-14 14v15.798h4V14.974c0-5.523 4.477-10 10-10h18.587v-4zM8.974 172.89h-4v15.222c0 7.732 6.268 14 14 14h18.587v-4H18.974c-5.523 0-10-4.477-10-10v-15.222zM255.8 30.807h1.212V14.974c0-7.732-6.268-14-14-14h-18.588v4h18.588c5.522 0 10 4.477 10 10v15.798h2.788v.035zm1.212 142.082h-4v15.222c0 5.523-4.478 10-10 10h-18.588v4h18.588c7.732 0 14-6.268 14-14v-15.222z" fill="#1A1A1A"/></g><path fill-rule="evenodd" clip-rule="evenodd" d="m134.586 64.586-12.728 12.728a2 2 0 0 0 2.828 2.828L134 70.828V100h4V70.828l9.314 9.314a2 2 0 1 0 2.828-2.828l-12.728-12.728a2 2 0 0 0-2.828 0z" fill="#C2C2C2"/><path fill-rule="evenodd" clip-rule="evenodd" d="M172.341 96H144v4h28.694v-.003c8.764-.168 15.816-7.326 15.816-16.13 0-8.743-6.955-15.862-15.634-16.125a16.19 16.19 0 0 0-3.99.371 31.277 31.277 0 0 0-.372-4.007C166.167 49.31 153.353 38 137.898 38c-11.262 0-21.121 6.005-26.55 14.989a30.884 30.884 0 0 0-1.847 3.556 23.302 23.302 0 0 0-12.093-3.361C84.48 53.184 74 63.664 74 76.592S84.48 100 97.408 100H138v-4H97.408C86.69 96 78 87.31 78 76.592c0-10.719 8.69-19.408 19.408-19.408 3.676 0 7.101 1.018 10.024 2.785l3.899 2.357 1.833-4.172C117.345 48.635 126.851 42 137.898 42c14.653 0 26.581 11.673 26.989 26.226l.136 4.836 4.724-1.042a12.198 12.198 0 0 1 2.631-.285c6.7 0 12.132 5.432 12.132 12.132 0 6.621-5.304 12.004-11.893 12.13l-.116.003h-.16z" fill="#C2C2C2"/><defs><filter id="a" x=".974" y=".974" width="260.036" height="209.137" filterUnits="userSpaceOnUse" color-interpolation-filters="sRGB"><feFlood flood-opacity="0" result="BackgroundImageFix"/><feColorMatrix in="SourceAlpha" values="0 0 0 0 0 0 0 0 0 0 0 0 0 0 0 0 0 0 127 0"/><feOffset dy="4"/><feGaussianBlur stdDeviation="2"/><feColorMatrix values="0 0 0 0 0 0 0 0 0 0 0 0 0 0 0 0 0 0 0.25 0"/><feBlend in2="BackgroundImageFix" result="effect1_dropShadow"/><feBlend in="SourceGraphic" in2="effect1_dropShadow" result="shape"/></filter></defs></svg>