<?xml version="1.0" encoding="UTF-8"?>
<!DOCTYPE svg PUBLIC "-//W3C//DTD SVG 1.1//EN" "http://www.w3.org/Graphics/SVG/1.1/DTD/svg11.dtd">
<!-- Creator: CorelDRAW 2018 (64-Bit) -->
<svg xmlns="http://www.w3.org/2000/svg" xml:space="preserve" width="10px" height="10px" version="1.1" style="shape-rendering:geometricPrecision; text-rendering:geometricPrecision; image-rendering:optimizeQuality; fill-rule:evenodd; clip-rule:evenodd"
viewBox="0 0 45 50"
 xmlns:xlink="http://www.w3.org/1999/xlink">
 <defs>
  <style type="text/css">
   <![CDATA[
    .fil0 {fill:white}
   ]]>
  </style>
 </defs>
 <g id="Layer_x0020_1">
  <metadata id="CorelCorpID_0Corel-Layer"/>
  <path class="fil0" d="M26.8 21.13c1.5,0 2.78,0.91 3.34,2.19l2.22 0c0.8,0 1.46,0.66 1.46,1.47 0,0.8 -0.66,1.46 -1.46,1.46l-2.22 0c-0.56,1.29 -1.84,2.19 -3.34,2.19 -1.5,0 -2.79,-0.9 -3.35,-2.19l-11.87 0c-0.8,0 -1.46,-0.66 -1.46,-1.46 0,-0.81 0.66,-1.47 1.46,-1.47l11.87 0c0.56,-1.28 1.85,-2.19 3.35,-2.19zm-1.46 3.66c0,0.8 0.65,1.46 1.46,1.46 0.81,0 1.46,-0.66 1.46,-1.46 0,-0.81 -0.65,-1.47 -1.46,-1.47 -0.81,0 -1.46,0.66 -1.46,1.47z"/>
  <path class="fil0" d="M26.8 39.83c1.5,0 2.78,0.9 3.34,2.19l2.22 0c0.8,0 1.46,0.66 1.46,1.46 0,0.8 -0.66,1.46 -1.46,1.46l-2.22 0c-0.56,1.29 -1.84,2.19 -3.34,2.19 -1.5,0 -2.79,-0.9 -3.35,-2.19l-11.87 0c-0.8,0 -1.46,-0.66 -1.46,-1.46 0,-0.8 0.66,-1.46 1.46,-1.46l11.87 0c0.56,-1.29 1.85,-2.19 3.35,-2.19zm0 2.19c-0.81,0 -1.46,0.65 -1.46,1.46 0,0.81 0.65,1.46 1.46,1.46 0.81,0 1.46,-0.65 1.46,-1.46 0,-0.81 -0.65,-1.46 -1.46,-1.46z"/>
  <path class="fil0" d="M17.14 30.48c-1.5,0 -2.78,0.9 -3.35,2.19l-2.21 0c-0.8,0 -1.46,0.66 -1.46,1.46 0,0.81 0.66,1.46 1.46,1.46l2.21 0c0.57,1.29 1.85,2.2 3.35,2.2 1.5,0 2.79,-0.91 3.35,-2.2l11.87 0c0.8,0 1.46,-0.65 1.46,-1.46 0,-0.8 -0.66,-1.46 -1.46,-1.46l-11.87 0c-0.56,-1.29 -1.85,-2.19 -3.35,-2.19zm0 2.19c-0.81,0 -1.46,0.66 -1.46,1.46 0,0.81 0.65,1.46 1.46,1.46 0.81,0 1.46,-0.65 1.46,-1.46 0,-0.8 -0.65,-1.46 -1.46,-1.46z"/>
 </g>
</svg>
