<svg xmlns="http://www.w3.org/2000/svg" xml:space="preserve" width="10" height="10" style="shape-rendering:geometricPrecision;text-rendering:geometricPrecision;image-rendering:optimizeQuality;fill-rule:evenodd;clip-rule:evenodd" viewBox="0 0 45 50"><defs><style>.fil0{fill:#fff}</style></defs><g id="Layer_x0020_1"><path class="fil0" d="M26.8 21.13c1.5 0 2.78.91 3.34 2.19h2.22c.8 0 1.46.66 1.46 1.47 0 .8-.66 1.46-1.46 1.46h-2.22a3.634 3.634 0 0 1-3.34 2.19c-1.5 0-2.79-.9-3.35-2.19H11.58c-.8 0-1.46-.66-1.46-1.46 0-.81.66-1.47 1.46-1.47h11.87a3.664 3.664 0 0 1 3.35-2.19zm-1.46 3.66c0 .8.65 1.46 1.46 1.46.81 0 1.46-.66 1.46-1.46 0-.81-.65-1.47-1.46-1.47-.81 0-1.46.66-1.46 1.47zM26.8 39.83c1.5 0 2.78.9 3.34 2.19h2.22c.8 0 1.46.66 1.46 1.46 0 .8-.66 1.46-1.46 1.46h-2.22a3.634 3.634 0 0 1-3.34 2.19c-1.5 0-2.79-.9-3.35-2.19H11.58c-.8 0-1.46-.66-1.46-1.46 0-.8.66-1.46 1.46-1.46h11.87a3.648 3.648 0 0 1 3.35-2.19zm0 2.19c-.81 0-1.46.65-1.46 1.46 0 .81.65 1.46 1.46 1.46.81 0 1.46-.65 1.46-1.46 0-.81-.65-1.46-1.46-1.46zM17.14 30.48c-1.5 0-2.78.9-3.35 2.19h-2.21c-.8 0-1.46.66-1.46 1.46 0 .81.66 1.46 1.46 1.46h2.21c.57 1.29 1.85 2.2 3.35 2.2s2.79-.91 3.35-2.2h11.87c.8 0 1.46-.65 1.46-1.46 0-.8-.66-1.46-1.46-1.46H20.49a3.648 3.648 0 0 0-3.35-2.19zm0 2.19c-.81 0-1.46.66-1.46 1.46 0 .81.65 1.46 1.46 1.46.81 0 1.46-.65 1.46-1.46 0-.8-.65-1.46-1.46-1.46z"/></g></svg>