<?xml version="1.0" encoding="UTF-8" standalone="no"?>
<svg
   xmlns:dc="http://purl.org/dc/elements/1.1/"
   xmlns:cc="http://creativecommons.org/ns#"
   xmlns:rdf="http://www.w3.org/1999/02/22-rdf-syntax-ns#"
   xmlns:svg="http://www.w3.org/2000/svg"
   xmlns="http://www.w3.org/2000/svg"
   xmlns:sodipodi="http://sodipodi.sourceforge.net/DTD/sodipodi-0.dtd"
   xmlns:inkscape="http://www.inkscape.org/namespaces/inkscape"
   width="95.851562pt"
   height="28.960939pt"
   viewBox="0 0 95.851562 28.960939"
   version="1.1"
   id="svg29"
   sodipodi:docname="card_judul_tahsin.svg"
   inkscape:version="1.0.1 (3bc2e813f5, 2020-09-07)">
  <metadata
     id="metadata35">
    <rdf:RDF>
      <cc:Work
         rdf:about="">
        <dc:format>image/svg+xml</dc:format>
        <dc:type
           rdf:resource="http://purl.org/dc/dcmitype/StillImage" />
      </cc:Work>
    </rdf:RDF>
  </metadata>
  <defs
     id="defs33" />
  <sodipodi:namedview
     pagecolor="#ffffff"
     bordercolor="#666666"
     borderopacity="1"
     objecttolerance="10"
     gridtolerance="10"
     guidetolerance="10"
     inkscape:pageopacity="0"
     inkscape:pageshadow="2"
     inkscape:window-width="1920"
     inkscape:window-height="1001"
     id="namedview31"
     showgrid="false"
     inkscape:zoom="9.4921875"
     inkscape:cx="64"
     inkscape:cy="19.333333"
     inkscape:window-x="-9"
     inkscape:window-y="-9"
     inkscape:window-maximized="1"
     inkscape:current-layer="svg29" />
  <g
     id="surface1">
    <path
       style="fill:#2e82b8;fill-opacity:1;fill-rule:evenodd;stroke:none"
       d="M 3.960938,28.960938 V 18.355469 L 0,23.726562 Z m 0,0"
       id="path2" />
    <path
       style="fill:#23a6d9;fill-opacity:1;fill-rule:evenodd;stroke:none"
       d="m 0,0 h 84.015625 c 6.523437,0 11.835937,5.324219 11.835937,11.863281 0,6.539063 -5.3125,11.863281 -11.835937,11.863281 H 0 Z m 0,0"
       id="path4" />
    <path
       style="fill:#ffffff;fill-opacity:1;fill-rule:nonzero;stroke:none"
       d="m 19.945312,10.042969 c 0.371094,-0.515625 0.699219,-1.027344 1.023438,-1.449219 0.328125,-0.417969 0.605469,-0.792969 0.886719,-1.121094 0.230469,-0.28125 0.511719,-0.558594 0.746093,-0.792968 0.183594,-0.1875 0.417969,-0.375 0.652344,-0.515626 0.230469,-0.140624 0.417969,-0.230468 0.652344,-0.277343 0.183594,-0.046875 0.417969,-0.09375 0.652344,-0.09375 0.558594,0 0.835937,0.1875 0.835937,0.558593 0,0.046876 0,0.09375 0,0.1875 0,0.046876 -0.04687,0.09375 -0.04687,0.1875 -0.04687,0.046876 -0.04687,0.09375 -0.08984,0.140626 -0.04687,0.046874 -0.09375,0.046874 -0.1875,0.046874 -0.04687,0 -0.09375,0 -0.140624,-0.046874 -0.04688,-0.046876 -0.140626,-0.09375 -0.234376,-0.1875 -0.04687,-0.046876 -0.183593,-0.09375 -0.277343,-0.140626 -0.09375,-0.046874 -0.234375,-0.09375 -0.375,-0.09375 -0.136719,0 -0.277344,0.09375 -0.464844,0.1875 -0.1875,0.140626 -0.417969,0.28125 -0.605469,0.511719 -0.234375,0.1875 -0.464844,0.421875 -0.699218,0.703125 -0.234376,0.28125 -0.464844,0.558594 -0.699219,0.886719 0.652343,1.449219 1.210937,2.710937 1.726562,3.785156 0.464844,1.074219 0.929688,1.960938 1.304688,2.660157 0.417969,0.746093 0.789062,1.261718 1.117187,1.589843 0.371094,0.371094 0.699219,0.511719 1.070313,0.511719 0.04687,0 0.09375,0 0.140625,0 0.09375,-0.04687 0.140625,-0.04687 0.1875,-0.09375 0.04687,0 0.09375,-0.04687 0.183594,-0.04687 l 0.09375,0.234375 c -0.04688,0.04687 -0.140626,0.09375 -0.277344,0.140625 -0.140625,0.09375 -0.28125,0.140625 -0.46875,0.1875 -0.136719,0.04687 -0.324219,0.09375 -0.558594,0.140625 -0.183594,0.04687 -0.417969,0.04687 -0.652344,0.04687 -0.371094,0 -0.652344,-0.04687 -0.929687,-0.140625 -0.28125,-0.09375 -0.558594,-0.28125 -0.839844,-0.515625 C 23.390625,17 23.160156,16.722656 22.878906,16.347656 22.648438,15.972656 22.367188,15.507812 22.085938,14.992188 21.808594,14.433594 21.480469,13.824219 21.203125,13.125 20.875,12.378906 20.550781,11.582031 20.175781,10.648438 l -0.230469,0.375 v 3.96875 c 0,0.328124 -0.09375,0.5625 -0.28125,0.75 -0.1875,0.136718 -0.417968,0.183593 -0.792968,0.183593 -0.371094,0 -0.605469,-0.04687 -0.792969,-0.183593 -0.183594,-0.1875 -0.277344,-0.421876 -0.277344,-0.75 V 7.238281 c 0,-0.09375 0,-0.136719 0,-0.230469 -0.04687,-0.046874 -0.04687,-0.09375 -0.09375,-0.09375 -0.04687,-0.046874 -0.09375,-0.09375 -0.140625,-0.09375 -0.04687,0 -0.140625,0 -0.183594,0 -0.09375,0 -0.234374,0 -0.375,0.046876 -0.09375,0.046874 -0.277343,0.046874 -0.417968,0.140624 -0.140625,0.046876 -0.328125,0.136719 -0.46875,0.230469 -0.136719,0.046875 -0.277344,0.1875 -0.417969,0.28125 -0.140625,0.09375 -0.234375,0.234375 -0.277344,0.375 -0.09375,0.140625 -0.140625,0.28125 -0.140625,0.417969 0,0.140625 0.04687,0.28125 0.04687,0.328125 0.04687,0.09375 0.09375,0.140625 0.136719,0.1875 0.04687,0.046875 0.09375,0.09375 0.140625,0.09375 0.04687,0 0.09375,0 0.09375,0 0.140625,0 0.234375,0 0.28125,-0.046875 0.09375,-0.046875 0.136719,-0.046875 0.183594,-0.09375 0.04687,-0.046875 0.09375,-0.09375 0.140625,-0.140625 0.09375,-0.046875 0.140625,-0.046875 0.1875,-0.046875 0.04687,0 0.09375,0 0.1875,0.046875 0.04687,0 0.08984,0.046875 0.136718,0.09375 0.04688,0.046875 0.09375,0.140625 0.140626,0.234375 0.04687,0.046875 0.04687,0.1875 0.04687,0.28125 0,0.183594 -0.04687,0.324219 -0.09375,0.464844 -0.09375,0.09375 -0.140624,0.234375 -0.277343,0.28125 -0.09375,0.09375 -0.234375,0.140625 -0.328125,0.1875 -0.140625,0.04687 -0.277344,0.09375 -0.417969,0.09375 -0.1875,0 -0.375,-0.04687 -0.558594,-0.140625 -0.1875,-0.04687 -0.328125,-0.140625 -0.421875,-0.28125 C 14.769531,9.714844 14.726562,9.574219 14.632812,9.433594 14.585938,9.25 14.539062,9.0625 14.539062,8.875 c 0,-0.28125 0.09375,-0.5625 0.1875,-0.792969 0.08984,-0.234375 0.230469,-0.46875 0.417969,-0.65625 0.1875,-0.234375 0.417969,-0.371093 0.652344,-0.558593 0.28125,-0.140626 0.558594,-0.234376 0.839844,-0.328126 0.277343,-0.140624 0.605469,-0.1875 0.882812,-0.234374 0.328125,-0.046876 0.652344,-0.09375 0.980469,-0.09375 0.324219,0 0.605469,0.046874 0.792969,0.09375 0.183593,0.09375 0.371093,0.140624 0.464843,0.234374 0.09375,0.140626 0.140626,0.234376 0.140626,0.328126 0,0.09375 0.04687,0.1875 0.04687,0.234374 z m 0,0"
       id="path6" />
    <path
       style="fill:#ffffff;fill-opacity:1;fill-rule:nonzero;stroke:none"
       d="m 27.632812,12.890625 c 0,0.140625 0.04688,0.28125 0.09375,0.46875 0,0.140625 0.09375,0.28125 0.140626,0.464844 0.08984,0.140625 0.183593,0.328125 0.277343,0.46875 0.140625,0.140625 0.28125,0.28125 0.417969,0.375 0.140625,0.136719 0.328125,0.230469 0.46875,0.277343 0.183594,0.09375 0.417969,0.140626 0.605469,0.140626 0.140625,0 0.277343,-0.04688 0.417969,-0.09375 0.140624,0 0.234374,-0.04688 0.375,-0.140626 0.09375,-0.04687 0.183593,-0.09375 0.324218,-0.183593 0.09375,-0.09375 0.1875,-0.1875 0.28125,-0.234375 l 0.183594,0.140625 c -0.08984,0.140625 -0.230469,0.277343 -0.371094,0.417969 -0.1875,0.1875 -0.371094,0.328124 -0.558594,0.46875 -0.234374,0.140624 -0.511718,0.234374 -0.792968,0.328124 -0.28125,0.08984 -0.605469,0.136719 -0.976563,0.136719 -0.375,0 -0.746093,-0.04687 -1.121093,-0.183593 C 27.074219,15.601562 26.746094,15.414062 26.46875,15.132812 26.1875,14.851562 26,14.527344 25.816406,14.105469 c -0.140625,-0.375 -0.234375,-0.886719 -0.234375,-1.402344 0,-0.417969 0.04687,-0.746094 0.140625,-1.074219 0.09375,-0.324218 0.230469,-0.605468 0.417969,-0.886718 0.140625,-0.28125 0.328125,-0.511719 0.558594,-0.699219 0.234375,-0.1875 0.46875,-0.375 0.746093,-0.46875 C 27.679688,9.433594 27.910156,9.339844 28.191406,9.25 28.425781,9.203125 28.703125,9.15625 28.9375,9.15625 c 0.324219,0 0.605469,0.046875 0.839844,0.09375 0.230468,0.089844 0.417968,0.183594 0.558594,0.277344 0.1875,0.140625 0.277343,0.28125 0.371093,0.421875 0.09375,0.140625 0.09375,0.328125 0.09375,0.464843 0,0.234376 -0.04687,0.375 -0.140625,0.5625 -0.136718,0.140626 -0.277344,0.28125 -0.464844,0.421876 z M 28.9375,11.582031 c 0.04687,-0.04687 0.09375,-0.04687 0.140625,-0.09375 0.04687,-0.04297 0.04687,-0.08984 0.09375,-0.136719 0,-0.04687 0.04297,-0.09375 0.04297,-0.140624 0,-0.09375 0,-0.140626 0,-0.28125 0,-0.09375 0,-0.1875 -0.04297,-0.328126 0,-0.140624 -0.04687,-0.277343 -0.09375,-0.371093 C 29.03125,10.089844 28.9375,9.996094 28.84375,9.949219 28.75,9.855469 28.65625,9.808594 28.5625,9.808594 c -0.183594,0 -0.277344,0.046875 -0.417969,0.140625 -0.09375,0.09375 -0.1875,0.234375 -0.277343,0.375 -0.04688,0.136719 -0.09375,0.324219 -0.140626,0.511719 -0.04687,0.1875 -0.09375,0.375 -0.09375,0.5625 -0.04687,0.183593 -0.04687,0.371093 -0.04687,0.511718 0,0.1875 0,0.328125 0,0.46875 z m 0,0"
       id="path8" />
    <path
       style="fill:#ffffff;fill-opacity:1;fill-rule:nonzero;stroke:none"
       d="m 33.921875,15.273438 c 0,0.04687 0,0.140624 0,0.1875 -0.04687,0.09375 -0.09375,0.1875 -0.136719,0.234374 -0.09375,0.09375 -0.1875,0.140626 -0.328125,0.183594 -0.140625,0.04687 -0.324219,0.04687 -0.558593,0.04687 -0.1875,0 -0.375,0 -0.511719,-0.04687 -0.140625,-0.04297 -0.234375,-0.136718 -0.28125,-0.183594 -0.09375,-0.09375 -0.09375,-0.1875 -0.140625,-0.234374 0,-0.09375 0,-0.140626 0,-0.1875 v -8.3125 c 0,-0.140626 -0.04687,-0.234376 -0.09375,-0.328126 -0.04297,-0.09375 -0.136719,-0.140624 -0.277344,-0.140624 -0.09375,0 -0.140625,0 -0.1875,0.046874 -0.09375,0 -0.140625,0.046876 -0.1875,0.09375 L 31.082031,6.492188 c 0.09375,-0.09375 0.230469,-0.1875 0.324219,-0.234376 0.140625,-0.09375 0.28125,-0.1875 0.421875,-0.234374 0.136719,-0.042969 0.277344,-0.089844 0.464844,-0.136719 0.140625,-0.046875 0.324219,-0.046875 0.511719,-0.046875 0.28125,0 0.464843,0.046875 0.652343,0.09375 0.140625,0.089844 0.234375,0.183594 0.328125,0.277344 0.04297,0.09375 0.08984,0.234374 0.136719,0.375 0,0.09375 0,0.234374 0,0.328124 z m 0,0"
       id="path10" />
    <path
       style="fill:#ffffff;fill-opacity:1;fill-rule:nonzero;stroke:none"
       d="m 38.441406,12.519531 c 0,-0.09375 -0.04297,-0.1875 -0.08984,-0.234375 -0.09375,-0.09375 -0.1875,-0.09375 -0.28125,-0.09375 -0.140624,0 -0.28125,0.04687 -0.417968,0.09375 -0.140625,0.04687 -0.28125,0.1875 -0.375,0.324219 -0.09375,0.09375 -0.183594,0.28125 -0.230469,0.46875 -0.04687,0.1875 -0.09375,0.421875 -0.09375,0.699219 0,0.234375 0,0.421875 0.04687,0.609375 0.04687,0.140625 0.09375,0.28125 0.136719,0.371093 0.09375,0.09375 0.140625,0.1875 0.234375,0.234376 0.09375,0 0.1875,0.04687 0.28125,0.04687 0.09375,0 0.183594,-0.04687 0.277344,-0.09375 0.09375,-0.04687 0.1875,-0.140624 0.28125,-0.230468 0.04687,-0.09375 0.140624,-0.1875 0.1875,-0.28125 0,-0.140625 0.04297,-0.234375 0.04297,-0.375 z M 37.417969,9.667969 c -0.140625,0 -0.28125,0.046875 -0.417969,0.09375 -0.09375,0 -0.234375,0.046875 -0.328125,0.09375 -0.04687,0.046875 -0.140625,0.140625 -0.1875,0.1875 -0.04687,0.04687 -0.08984,0.140625 -0.08984,0.1875 0,0.04687 0.04297,0.09375 0.08984,0.140625 0.09375,0 0.140625,0.04297 0.234375,0.08984 0.09375,0.04687 0.140625,0.09375 0.234375,0.140624 0.04687,0.09375 0.09375,0.1875 0.09375,0.328126 0,0.09375 0,0.140624 -0.04687,0.234374 -0.04687,0.09375 -0.09375,0.140626 -0.140625,0.1875 -0.09375,0.04688 -0.140625,0.09375 -0.234375,0.136719 -0.09375,0.04687 -0.1875,0.04687 -0.277344,0.04687 -0.234375,0 -0.421875,-0.08984 -0.5625,-0.230468 -0.136718,-0.1875 -0.230468,-0.375 -0.230468,-0.65625 0,-0.277344 0.09375,-0.464844 0.230468,-0.652344 0.140625,-0.1875 0.28125,-0.375 0.515625,-0.46875 C 36.53125,9.386719 36.765625,9.292969 37.046875,9.25 c 0.277344,-0.046875 0.558594,-0.09375 0.835937,-0.09375 0.328126,0 0.652344,0.046875 0.980469,0.136719 0.277344,0.046875 0.558594,0.1875 0.792969,0.328125 0.230469,0.140625 0.417969,0.375 0.558594,0.609375 0.140625,0.230469 0.183594,0.511719 0.183594,0.886719 v 3.640624 c 0,0.04688 0,0.09375 0.04687,0.140626 0,0.04687 0,0.09375 0,0.09375 0.04688,0.04687 0.04688,0.09375 0.09375,0.09375 0.04688,0.04687 0.09375,0.04687 0.140626,0.04687 0.09375,0 0.140624,0 0.234374,-0.09375 0.04688,-0.04687 0.09375,-0.09375 0.136719,-0.140624 l 0.1875,0.09375 c -0.04687,0.09375 -0.140625,0.1875 -0.230469,0.328124 -0.09375,0.09375 -0.1875,0.1875 -0.328124,0.28125 -0.140626,0.09375 -0.28125,0.1875 -0.464844,0.234376 -0.140625,0.08984 -0.375,0.08984 -0.558594,0.08984 -0.28125,0 -0.515625,-0.04687 -0.746094,-0.230469 -0.1875,-0.140624 -0.328125,-0.375 -0.421875,-0.75 -0.136719,0.1875 -0.277343,0.375 -0.417969,0.46875 -0.140624,0.140626 -0.28125,0.234376 -0.417968,0.328126 -0.1875,0.04687 -0.328125,0.136718 -0.46875,0.136718 -0.183594,0.04687 -0.324219,0.04687 -0.511719,0.04687 -0.1875,0 -0.371094,0 -0.558594,-0.08984 -0.234375,-0.04688 -0.371093,-0.140626 -0.511719,-0.28125 -0.1875,-0.140626 -0.28125,-0.328126 -0.375,-0.5625 -0.09375,-0.234376 -0.136718,-0.464844 -0.136718,-0.792969 0,-0.421875 0.04297,-0.746094 0.230468,-0.980469 0.140626,-0.234375 0.328126,-0.46875 0.605469,-0.609375 0.234375,-0.183594 0.511719,-0.324219 0.839844,-0.464844 0.328125,-0.09375 0.652344,-0.234375 0.980469,-0.375 0.230468,-0.09375 0.417968,-0.234375 0.558594,-0.417969 0.09375,-0.1875 0.136718,-0.421874 0.136718,-0.609374 0,-0.328126 -0.08984,-0.558594 -0.277344,-0.746094 -0.1875,-0.1875 -0.417968,-0.328125 -0.746093,-0.328125 z m 0,0"
       id="path12" />
    <path
       style="fill:#ffffff;fill-opacity:1;fill-rule:nonzero;stroke:none"
       d="m 44.175781,9.667969 c -0.09375,0 -0.1875,0 -0.28125,0.046875 -0.09375,0.046875 -0.1875,0.046875 -0.234375,0.140625 -0.08984,0.046875 -0.136718,0.140625 -0.183594,0.1875 -0.04687,0.09375 -0.04687,0.234375 -0.04687,0.328125 0,0.183594 0.04687,0.324218 0.1875,0.511718 0.136718,0.140626 0.277343,0.328126 0.464843,0.515626 0.1875,0.183593 0.371094,0.371093 0.558594,0.558593 0.234375,0.1875 0.417969,0.375 0.605469,0.609375 0.1875,0.183594 0.328125,0.417969 0.464844,0.652344 0.09375,0.234375 0.1875,0.511719 0.1875,0.792969 0,0.28125 -0.04688,0.5625 -0.1875,0.792969 -0.08984,0.234374 -0.230469,0.46875 -0.417969,0.609374 -0.1875,0.1875 -0.417969,0.328126 -0.699219,0.421876 -0.28125,0.04297 -0.605469,0.08984 -0.933594,0.08984 -0.324218,0 -0.558594,0 -0.789062,-0.08984 -0.28125,-0.09375 -0.46875,-0.1875 -0.652344,-0.328126 -0.1875,-0.140624 -0.375,-0.234374 -0.46875,-0.375 -0.136719,-0.140624 -0.230469,-0.28125 -0.324219,-0.375 l 0.234375,-0.183593 c 0.04297,0.09375 0.136719,0.140625 0.183594,0.230469 0.09375,0.04687 0.1875,0.140624 0.28125,0.1875 0.140625,0.09375 0.230469,0.140624 0.371094,0.1875 0.09375,0.04687 0.234375,0.04687 0.375,0.04687 0.277344,0 0.558594,-0.09375 0.746094,-0.234374 0.183593,-0.140626 0.277343,-0.371094 0.277343,-0.652344 0,-0.140625 -0.04687,-0.328125 -0.140625,-0.515625 C 43.617188,13.683594 43.523438,13.5 43.335938,13.3125 43.195312,13.125 43.007812,12.9375 42.824219,12.75 c -0.1875,-0.230469 -0.375,-0.417969 -0.558594,-0.652344 -0.140625,-0.1875 -0.28125,-0.421875 -0.375,-0.609375 -0.140625,-0.230469 -0.1875,-0.464843 -0.1875,-0.699219 0,-0.28125 0.04687,-0.511718 0.1875,-0.746093 C 41.984375,9.855469 42.125,9.714844 42.3125,9.574219 42.496094,9.433594 42.730469,9.339844 42.964844,9.25 c 0.230468,-0.046875 0.464844,-0.09375 0.695312,-0.09375 0.28125,0 0.5625,0.046875 0.792969,0.09375 0.234375,0.042969 0.421875,0.136719 0.605469,0.230469 0.1875,0.09375 0.28125,0.234375 0.375,0.375 0.09375,0.1875 0.140625,0.375 0.140625,0.558593 0,0.1875 -0.04687,0.328126 -0.140625,0.421876 -0.09375,0.140624 -0.28125,0.1875 -0.464844,0.1875 -0.1875,0 -0.328125,-0.04688 -0.421875,-0.09375 -0.09375,-0.09375 -0.140625,-0.1875 -0.140625,-0.328126 0,-0.09375 0.04687,-0.1875 0.09375,-0.230468 0,-0.04687 0.09375,-0.09375 0.140625,-0.140625 0.04687,0 0.09375,-0.04687 0.140625,-0.04687 0.04687,-0.04687 0.04687,-0.09375 0.04687,-0.09375 0,-0.140625 -0.04687,-0.234375 -0.1875,-0.328125 -0.09375,-0.046875 -0.28125,-0.09375 -0.464844,-0.09375 z m 0,0"
       id="path14" />
    <path
       style="fill:#ffffff;fill-opacity:1;fill-rule:nonzero;stroke:none"
       d="m 54.054688,15.925781 c -0.375,0 -0.652344,-0.04687 -0.792969,-0.183593 -0.1875,-0.1875 -0.28125,-0.421876 -0.28125,-0.75 V 6.820312 c -0.136719,0 -0.277344,0.046876 -0.511719,0.09375 -0.1875,0.046876 -0.417969,0.09375 -0.605469,0.140626 -0.234375,0.089843 -0.464843,0.136718 -0.699219,0.230468 -0.234374,0.140625 -0.417968,0.234375 -0.605468,0.375 -0.140625,0.09375 -0.28125,0.234375 -0.417969,0.421875 C 50.046875,8.21875 50,8.40625 50,8.59375 c 0,0.140625 0,0.234375 0.04687,0.328125 0,0.09375 0.04687,0.140625 0.09375,0.1875 0.04687,0.046875 0.08984,0.046875 0.183594,0.09375 0.04687,0 0.04687,0 0.09375,0 0.09375,0 0.1875,0 0.234375,-0.046875 0.09375,-0.046875 0.140625,-0.09375 0.1875,-0.140625 C 50.929688,8.96875 50.976562,8.96875 51.023438,8.921875 51.070312,8.875 51.117188,8.875 51.164062,8.875 c 0.09375,0 0.140626,0 0.1875,0 0.04688,0.046875 0.09375,0.09375 0.140626,0.140625 0.04297,0.046875 0.08984,0.09375 0.136718,0.1875 0.04687,0.089844 0.04687,0.183594 0.04687,0.324219 0,0.140625 -0.04687,0.328125 -0.09375,0.421875 -0.04687,0.140625 -0.136719,0.234375 -0.230469,0.328125 -0.140624,0.09375 -0.234374,0.136718 -0.375,0.183594 -0.136718,0.04687 -0.277343,0.04687 -0.417968,0.04687 -0.1875,0 -0.371094,0 -0.558594,-0.09375 -0.140625,-0.08984 -0.28125,-0.183593 -0.421875,-0.277343 -0.08984,-0.140625 -0.183594,-0.28125 -0.230469,-0.46875 -0.09375,-0.140625 -0.09375,-0.328125 -0.09375,-0.511719 0,-0.515625 0.140625,-0.9375 0.417969,-1.308594 0.28125,-0.375 0.652344,-0.65625 1.121094,-0.933594 0.464843,-0.234374 1.023437,-0.421874 1.675781,-0.515624 0.652344,-0.140626 1.304688,-0.1875 2.050781,-0.1875 0.324219,0 0.699219,0 1.023438,0 0.328125,0.046874 0.605469,0.046874 0.886719,0.046874 0.28125,0 0.511718,0.046876 0.699218,0.046876 0.1875,0 0.324219,0.046874 0.417969,0.046874 0.09375,0.046876 0.1875,0.046876 0.234375,0.09375 0.04687,0.046876 0.09375,0.09375 0.09375,0.140626 0.04687,0.046874 0.04687,0.09375 0.04687,0.1875 0,0.046874 0.04687,0.09375 0.04687,0.140624 0,0.09375 -0.04687,0.140626 -0.04687,0.1875 0,0.042969 -0.04687,0.136719 -0.04687,0.183594 -0.04687,0.046875 -0.04687,0.09375 -0.09375,0.140625 -0.04687,0.046875 -0.09375,0.046875 -0.140625,0.046875 -0.04687,0 -0.09375,0 -0.09375,-0.046875 C 57.5,7.378906 57.453125,7.378906 57.363281,7.332031 57.316406,7.285156 57.222656,7.238281 57.128906,7.191406 56.988281,7.101562 56.847656,7.054688 56.664062,7.007812 56.523438,6.960938 56.289062,6.914062 56.011719,6.914062 55.777344,6.867188 55.453125,6.820312 55.078125,6.820312 v 8.171876 c 0,0.328124 -0.09375,0.5625 -0.234375,0.75 -0.183594,0.136718 -0.464844,0.183593 -0.789062,0.183593 z m 0,0"
       id="path16" />
    <path
       style="fill:#ffffff;fill-opacity:1;fill-rule:nonzero;stroke:none"
       d="m 60.203125,12.519531 c 0,-0.09375 -0.04687,-0.1875 -0.09375,-0.234375 -0.08984,-0.09375 -0.183594,-0.09375 -0.277344,-0.09375 -0.140625,0 -0.28125,0.04687 -0.417969,0.09375 -0.140624,0.04687 -0.28125,0.1875 -0.375,0.324219 -0.09375,0.09375 -0.1875,0.28125 -0.234374,0.46875 -0.04688,0.1875 -0.08984,0.421875 -0.08984,0.699219 0,0.234375 0,0.421875 0.04297,0.609375 0.04688,0.140625 0.09375,0.28125 0.140626,0.371093 0.09375,0.09375 0.140624,0.1875 0.234374,0.234376 0.09375,0 0.140626,0.04687 0.234376,0.04687 0.136718,0 0.230468,-0.04687 0.324218,-0.09375 0.09375,-0.04687 0.1875,-0.140624 0.28125,-0.230468 0.04687,-0.09375 0.09375,-0.1875 0.136719,-0.28125 0.04687,-0.140625 0.09375,-0.234375 0.09375,-0.375 z M 59.179688,9.667969 c -0.140626,0 -0.28125,0.046875 -0.421876,0.09375 -0.08984,0 -0.230468,0.046875 -0.324218,0.09375 -0.09375,0.046875 -0.140625,0.140625 -0.1875,0.1875 -0.04687,0.04687 -0.09375,0.140625 -0.09375,0.1875 0,0.04687 0.04687,0.09375 0.09375,0.140625 0.09375,0 0.140625,0.04297 0.234375,0.08984 0.09375,0.04687 0.140625,0.09375 0.234375,0.140624 0.04297,0.09375 0.08984,0.1875 0.08984,0.328126 0,0.09375 -0.04688,0.140624 -0.04688,0.234374 -0.04297,0.09375 -0.08984,0.140626 -0.136718,0.1875 -0.09375,0.04688 -0.140625,0.09375 -0.234375,0.136719 -0.09375,0.04687 -0.1875,0.04687 -0.28125,0.04687 -0.230469,0 -0.417969,-0.08984 -0.558594,-0.230468 -0.136719,-0.1875 -0.230469,-0.375 -0.230469,-0.65625 0,-0.277344 0.04687,-0.464844 0.183594,-0.652344 0.140625,-0.1875 0.328125,-0.375 0.5625,-0.46875 0.230469,-0.140625 0.464844,-0.234375 0.742188,-0.277344 0.28125,-0.046875 0.5625,-0.09375 0.839843,-0.09375 0.328125,0 0.652344,0.046875 0.933594,0.136719 0.324219,0.046875 0.605469,0.1875 0.835937,0.328125 0.234376,0.140625 0.421876,0.375 0.5625,0.609375 0.136719,0.230469 0.183594,0.511719 0.183594,0.886719 v 3.640624 c 0,0.04688 0,0.09375 0,0.140626 0,0.04687 0.04687,0.09375 0.04687,0.09375 0,0.04687 0.04687,0.09375 0.09375,0.09375 0,0.04687 0.04687,0.04687 0.140625,0.04687 0.04687,0 0.140625,0 0.1875,-0.09375 0.08984,-0.04687 0.136719,-0.09375 0.183594,-0.140624 L 63,14.992188 c -0.09375,0.09375 -0.140625,0.1875 -0.234375,0.328124 -0.08984,0.09375 -0.230469,0.1875 -0.324219,0.28125 -0.140625,0.09375 -0.28125,0.1875 -0.464844,0.234376 -0.1875,0.08984 -0.375,0.08984 -0.5625,0.08984 -0.277343,0 -0.511718,-0.04687 -0.742187,-0.230469 -0.1875,-0.140624 -0.328125,-0.375 -0.421875,-0.75 -0.140625,0.1875 -0.277344,0.375 -0.417969,0.46875 -0.140625,0.140626 -0.28125,0.234376 -0.464843,0.328126 -0.140626,0.04687 -0.28125,0.136718 -0.46875,0.136718 -0.140626,0.04687 -0.277344,0.04687 -0.464844,0.04687 -0.1875,0 -0.371094,0 -0.605469,-0.08984 -0.1875,-0.04688 -0.328125,-0.140626 -0.511719,-0.28125 -0.140625,-0.140626 -0.28125,-0.328126 -0.375,-0.5625 -0.04687,-0.234376 -0.09375,-0.464844 -0.09375,-0.792969 0,-0.421875 0.04687,-0.746094 0.234375,-0.980469 0.140625,-0.234375 0.328125,-0.46875 0.605469,-0.609375 0.234375,-0.183594 0.511719,-0.324219 0.839844,-0.464844 0.324218,-0.09375 0.652344,-0.234375 0.976562,-0.375 0.234375,-0.09375 0.421875,-0.234375 0.5625,-0.417969 0.08984,-0.1875 0.136719,-0.421874 0.136719,-0.609374 0,-0.328126 -0.09375,-0.558594 -0.277344,-0.746094 -0.1875,-0.1875 -0.421875,-0.328125 -0.746093,-0.328125 z m 0,0"
       id="path18" />
    <path
       style="fill:#ffffff;fill-opacity:1;fill-rule:nonzero;stroke:none"
       d="m 65.84375,10.371094 c 0.136719,-0.234375 0.324219,-0.421875 0.511719,-0.609375 0.09375,-0.046875 0.1875,-0.140625 0.28125,-0.234375 0.08984,-0.046875 0.230469,-0.09375 0.324219,-0.1875 0.140624,-0.046875 0.234374,-0.089844 0.371093,-0.136719 0.140625,0 0.234375,-0.046875 0.375,-0.046875 0.277344,0 0.558594,0.046875 0.792969,0.183594 0.230469,0.09375 0.417969,0.28125 0.558594,0.5625 0.140625,0.234375 0.277344,0.605468 0.371094,1.027344 0.04687,0.421874 0.09375,0.980468 0.09375,1.589843 0,0.652344 -0.04688,1.164063 -0.140626,1.632813 -0.136718,0.46875 -0.277343,0.839844 -0.464843,1.167968 -0.1875,0.328126 -0.371094,0.605469 -0.605469,0.792969 -0.234375,0.1875 -0.464844,0.375 -0.699219,0.46875 -0.234375,0.140625 -0.417969,0.234375 -0.652343,0.28125 -0.1875,0 -0.371094,0.04687 -0.558594,0.04687 l -0.04687,-0.28125 c 0.1875,-0.04687 0.371093,-0.09375 0.511719,-0.234375 0.140624,-0.140625 0.28125,-0.328125 0.375,-0.652343 0.08984,-0.28125 0.183593,-0.703126 0.230468,-1.167969 0.04687,-0.515625 0.09375,-1.167969 0.09375,-1.917969 0,-0.558594 -0.04687,-0.980469 -0.09375,-1.304688 -0.04687,-0.328124 -0.09375,-0.5625 -0.183594,-0.75 -0.09375,-0.1875 -0.1875,-0.277343 -0.28125,-0.324218 -0.09375,-0.04687 -0.1875,-0.09375 -0.28125,-0.09375 -0.136718,0 -0.230468,0.04687 -0.324218,0.09375 -0.09375,0.09375 -0.1875,0.136718 -0.28125,0.230468 -0.04687,0.09375 -0.09375,0.1875 -0.140625,0.28125 -0.04297,0.04688 -0.08984,0.140626 -0.136719,0.1875 v 4.296876 c 0,0.04687 0,0.09375 -0.04687,0.1875 0,0.09375 -0.04687,0.140624 -0.09375,0.234374 -0.09375,0.04688 -0.1875,0.140626 -0.328125,0.183594 -0.136719,0.04687 -0.277344,0.04687 -0.511719,0.04687 -0.230469,0 -0.417969,0 -0.558593,-0.04687 -0.140626,-0.04297 -0.234376,-0.136718 -0.28125,-0.183594 -0.08984,-0.09375 -0.08984,-0.1875 -0.136719,-0.234374 0,-0.09375 0,-0.140626 0,-0.1875 v -8.3125 c 0,-0.140626 -0.04687,-0.234376 -0.09375,-0.328126 -0.09375,-0.09375 -0.1875,-0.140624 -0.328125,-0.140624 -0.04687,0 -0.09375,0 -0.183594,0.046874 -0.04687,0 -0.09375,0.046876 -0.140625,0.09375 L 63,6.492188 c 0.09375,-0.09375 0.1875,-0.1875 0.328125,-0.234376 0.136719,-0.09375 0.230469,-0.1875 0.371094,-0.234374 0.1875,-0.042969 0.324219,-0.089844 0.464843,-0.136719 0.1875,-0.046875 0.328126,-0.046875 0.511719,-0.046875 0.28125,0 0.515625,0.046875 0.652344,0.09375 0.1875,0.089844 0.28125,0.183594 0.375,0.277344 0.04687,0.09375 0.09375,0.234374 0.09375,0.375 0.04687,0.09375 0.04687,0.234374 0.04687,0.328124 z m 0,0"
       id="path20" />
    <path
       style="fill:#ffffff;fill-opacity:1;fill-rule:nonzero;stroke:none"
       d="m 72.925781,9.667969 c -0.09375,0 -0.1875,0 -0.28125,0.046875 -0.09375,0.046875 -0.183593,0.046875 -0.230469,0.140625 -0.04687,0.046875 -0.140624,0.140625 -0.140624,0.1875 -0.04688,0.09375 -0.09375,0.234375 -0.09375,0.328125 0,0.183594 0.09375,0.324218 0.1875,0.511718 0.140624,0.140626 0.277343,0.328126 0.464843,0.515626 0.1875,0.183593 0.371094,0.371093 0.605469,0.558593 0.1875,0.1875 0.375,0.375 0.558594,0.609375 0.1875,0.183594 0.375,0.417969 0.46875,0.652344 0.136718,0.234375 0.183594,0.511719 0.183594,0.792969 0,0.28125 -0.04688,0.5625 -0.136719,0.792969 -0.140625,0.234374 -0.28125,0.46875 -0.46875,0.609374 -0.1875,0.1875 -0.417969,0.328126 -0.699219,0.421876 -0.277344,0.04297 -0.605469,0.08984 -0.929688,0.08984 -0.28125,0 -0.558593,0 -0.792968,-0.08984 -0.234375,-0.09375 -0.464844,-0.1875 -0.652344,-0.328126 -0.1875,-0.140624 -0.328125,-0.234374 -0.464844,-0.375 -0.140625,-0.140624 -0.234375,-0.28125 -0.328125,-0.375 l 0.234375,-0.183593 c 0.04687,0.09375 0.140625,0.140625 0.230469,0.230469 0.09375,0.04687 0.1875,0.140624 0.28125,0.1875 0.09375,0.09375 0.1875,0.140624 0.324219,0.1875 0.140625,0.04687 0.234375,0.04687 0.375,0.04687 0.324218,0 0.558594,-0.09375 0.746094,-0.234374 0.183593,-0.140626 0.324218,-0.371094 0.324218,-0.652344 0,-0.140625 -0.09375,-0.328125 -0.183594,-0.515625 C 72.414062,13.683594 72.273438,13.5 72.085938,13.3125 71.945312,13.125 71.761719,12.9375 71.574219,12.75 c -0.1875,-0.230469 -0.371094,-0.417969 -0.511719,-0.652344 -0.1875,-0.1875 -0.328125,-0.421875 -0.421875,-0.609375 -0.08984,-0.230469 -0.136719,-0.464843 -0.136719,-0.699219 0,-0.28125 0.04687,-0.511718 0.136719,-0.746093 0.140625,-0.1875 0.28125,-0.328125 0.46875,-0.46875 0.136719,-0.140625 0.371094,-0.234375 0.605469,-0.324219 0.230468,-0.046875 0.464844,-0.09375 0.699218,-0.09375 0.324219,0 0.558594,0.046875 0.789063,0.09375 0.234375,0.042969 0.46875,0.136719 0.609375,0.230469 0.183594,0.09375 0.324219,0.234375 0.417969,0.375 0.09375,0.1875 0.140625,0.375 0.140625,0.558593 0,0.1875 -0.09375,0.328126 -0.1875,0.421876 -0.09375,0.140624 -0.234375,0.1875 -0.417969,0.1875 -0.1875,0 -0.328125,-0.04688 -0.46875,-0.09375 -0.09375,-0.09375 -0.136719,-0.1875 -0.136719,-0.328126 0,-0.09375 0.04297,-0.1875 0.08984,-0.230468 0.04687,-0.04687 0.09375,-0.09375 0.140625,-0.140625 0.04687,0 0.09375,-0.04687 0.140625,-0.04687 0.04687,-0.04687 0.09375,-0.09375 0.09375,-0.09375 0,-0.140625 -0.09375,-0.234375 -0.1875,-0.328125 -0.140625,-0.046875 -0.324219,-0.09375 -0.511719,-0.09375 z m 0,0"
       id="path22" />
    <path
       style="fill:#ffffff;fill-opacity:1;fill-rule:nonzero;stroke:none"
       d="m 77.910156,15.273438 c 0,0.04687 -0.04687,0.09375 -0.04687,0.1875 0,0.09375 -0.04687,0.140624 -0.136719,0.234374 -0.04687,0.04688 -0.1875,0.140626 -0.28125,0.183594 -0.140624,0.04687 -0.324218,0.04687 -0.558593,0.04687 -0.234375,0 -0.417969,0 -0.511719,-0.04687 -0.140625,-0.04297 -0.234375,-0.136718 -0.328125,-0.183594 -0.04687,-0.09375 -0.09375,-0.1875 -0.09375,-0.234374 0,-0.09375 -0.04687,-0.140626 -0.04687,-0.1875 v -4.996094 c 0,-0.09375 0,-0.234375 -0.08984,-0.328125 -0.04687,-0.046875 -0.140625,-0.09375 -0.28125,-0.09375 -0.04687,0 -0.140625,0 -0.1875,0 -0.04687,0.046875 -0.09375,0.09375 -0.140625,0.140625 l -0.136719,-0.1875 c 0.09375,-0.046875 0.183594,-0.140625 0.324219,-0.234375 0.09375,-0.09375 0.234375,-0.140625 0.375,-0.1875 0.136705,-0.09375 0.324205,-0.136719 0.46483,-0.183594 0.1875,0 0.324219,-0.046875 0.511719,-0.046875 0.28125,0 0.511718,0.046875 0.652344,0.136719 0.140624,0.046875 0.28125,0.140625 0.328124,0.28125 0.08984,0.09375 0.136719,0.1875 0.136719,0.328125 0,0.140625 0.04687,0.234375 0.04687,0.328125 z m -2.1875,-7.566407 c 0,-0.140625 0.04687,-0.234375 0.09375,-0.375 0.04297,-0.09375 0.136719,-0.1875 0.230469,-0.277343 0.09375,-0.046876 0.1875,-0.140626 0.328125,-0.1875 0.09375,-0.046876 0.230469,-0.046876 0.417969,-0.046876 0.140625,0 0.28125,0 0.371093,0.046876 0.140626,0.046874 0.234376,0.140624 0.375,0.1875 0.09375,0.089843 0.140626,0.183593 0.1875,0.277343 0.04688,0.140625 0.08984,0.234375 0.08984,0.375 0,0.09375 -0.04297,0.234375 -0.08984,0.328125 -0.04687,0.140625 -0.09375,0.183594 -0.1875,0.277344 -0.140624,0.09375 -0.234374,0.140625 -0.375,0.1875 -0.08984,0.046875 -0.230468,0.09375 -0.371093,0.09375 C 76.605469,8.59375 76.46875,8.546875 76.375,8.5 76.234375,8.453125 76.140625,8.40625 76.046875,8.3125 75.953125,8.21875 75.859375,8.175781 75.816406,8.035156 75.769531,7.941406 75.722656,7.800781 75.722656,7.707031 Z m 0,0"
       id="path24" />
    <path
       style="fill:#ffffff;fill-opacity:1;fill-rule:nonzero;stroke:none"
       d="m 83.269531,12.65625 c 0,-0.558594 0,-0.980469 -0.04687,-1.304688 -0.04687,-0.328124 -0.140625,-0.5625 -0.183594,-0.75 -0.09375,-0.1875 -0.1875,-0.277343 -0.28125,-0.324218 -0.09375,-0.04687 -0.1875,-0.09375 -0.328124,-0.09375 -0.08984,0 -0.230469,0.04687 -0.324219,0.09375 -0.09375,0.09375 -0.1875,0.136718 -0.234375,0.230468 -0.09375,0.09375 -0.136719,0.1875 -0.183594,0.28125 -0.04687,0.04688 -0.09375,0.140626 -0.140625,0.1875 v 4.296876 c 0,0.04687 0,0.09375 0,0.1875 -0.04688,0.09375 -0.04688,0.140624 -0.14063,0.234374 -0.04687,0.04688 -0.140625,0.140626 -0.28125,0.183594 -0.136719,0.04687 -0.324219,0.04687 -0.558594,0.04687 -0.230468,0 -0.371094,0 -0.511718,-0.04687 -0.140626,-0.04297 -0.234376,-0.136718 -0.324219,-0.183594 -0.04687,-0.09375 -0.09375,-0.1875 -0.09375,-0.234374 -0.04687,-0.09375 -0.04687,-0.140626 -0.04687,-0.1875 v -4.996094 c 0,-0.09375 -0.04687,-0.234375 -0.09375,-0.328125 -0.04687,-0.046875 -0.140625,-0.09375 -0.28125,-0.09375 -0.09375,0 -0.136719,0 -0.183594,0 -0.04687,0.046875 -0.09375,0.09375 -0.1875,0.140625 l -0.140625,-0.1875 c 0.140625,-0.046875 0.234375,-0.140625 0.375,-0.234375 0.08984,-0.09375 0.230469,-0.140625 0.371094,-0.1875 0.140625,-0.09375 0.28125,-0.136719 0.464843,-0.183594 0.140626,0 0.328126,-0.046875 0.511719,-0.046875 0.28125,0 0.46875,0.046875 0.652344,0.136719 0.140625,0.09375 0.234375,0.1875 0.328125,0.328125 0.09375,0.140625 0.140625,0.28125 0.140625,0.421875 0,0.140625 0,0.234375 0,0.328125 0.1875,-0.234375 0.371094,-0.421875 0.558594,-0.609375 0.09375,-0.046875 0.1875,-0.140625 0.28125,-0.234375 0.08984,-0.046875 0.183593,-0.09375 0.324219,-0.1875 0.09375,-0.046875 0.234374,-0.089844 0.328124,-0.136719 0.136719,0 0.277344,-0.046875 0.417969,-0.046875 0.277344,0 0.558594,0.046875 0.746094,0.183594 0.230469,0.09375 0.417969,0.28125 0.605469,0.5625 0.140625,0.234375 0.230468,0.605468 0.324218,1.027344 0.09375,0.421874 0.140626,0.980468 0.140626,1.589843 0,0.652344 -0.04688,1.164063 -0.1875,1.632813 -0.08984,0.46875 -0.230469,0.839844 -0.417969,1.167968 -0.1875,0.328126 -0.371094,0.605469 -0.605469,0.792969 -0.234375,0.1875 -0.464844,0.375 -0.699219,0.46875 -0.234375,0.140625 -0.464843,0.234375 -0.652343,0.28125 -0.234376,0 -0.417969,0.04687 -0.558594,0.04687 l -0.09375,-0.28125 c 0.140625,0 0.28125,-0.04687 0.371094,-0.140625 0.09375,-0.04687 0.1875,-0.140625 0.28125,-0.28125 0.09375,-0.09375 0.1875,-0.28125 0.234374,-0.464843 0.09375,-0.1875 0.136719,-0.421876 0.183594,-0.703126 0.04687,-0.28125 0.09375,-0.652343 0.140625,-1.027343 0,-0.371094 0,-0.839844 0,-1.355469 z m 0,0"
       id="path26" />
  </g>
</svg>
