<svg xmlns="http://www.w3.org/2000/svg" width="133.094" height="38.594" viewBox="0 0 133.82 38.945"><path style="fill:#057866;fill-opacity:1;fill-rule:evenodd;stroke:none" d="m0 31.91 5.309 7.035V24.75zm0 0"/><path style="fill:#17997d;fill-opacity:1;fill-rule:evenodd;stroke:none" d="M0 0h117.953c8.746 0 15.867 7.16 15.867 15.953 0 8.797-7.12 15.957-15.867 15.957H0zm0 0"/><path style="fill:#fff;fill-opacity:1;fill-rule:nonzero;stroke:none" d="M22.992 13.566c.5-.754 1-1.379 1.438-2.007.37-.567.808-1.07 1.12-1.446.376-.441.688-.816 1-1.066.313-.317.626-.567.938-.692a2.31 2.31 0 0 1 .813-.378c.312-.125.625-.125.937-.125.75 0 1.125.25 1.125.691v.25c-.062.062-.062.191-.062.254l-.188.187c0 .063-.125.125-.187.125-.063 0-.125-.062-.188-.125-.125-.062-.187-.125-.312-.187-.125-.129-.25-.192-.375-.254-.125-.063-.313-.063-.5-.063-.188 0-.438.063-.688.254-.25.125-.5.375-.812.625-.25.254-.563.63-.875.946-.313.375-.625.75-.938 1.191.875 1.95 1.625 3.707 2.25 5.152.688 1.442 1.25 2.637 1.813 3.579.562.941 1.062 1.632 1.5 2.136.437.442.937.692 1.375.692.125 0 .187-.063.25-.063.062 0 .187-.062.25-.062.062-.063.125-.063.187-.125l.188.312c-.125.063-.25.125-.375.25-.188.063-.375.125-.625.188-.25.129-.5.191-.75.191-.313.063-.625.125-.938.125-.437 0-.812-.125-1.25-.25-.375-.129-.687-.316-1.062-.629a5.375 5.375 0 0 1-1.063-1.258c-.375-.5-.75-1.066-1.125-1.82-.375-.691-.75-1.57-1.187-2.512-.371-.945-.871-2.074-1.371-3.27l-.313.505v5.34c0 .437-.125.753-.312.941-.25.187-.625.316-1.063.316-.5 0-.875-.129-1.062-.316-.25-.188-.375-.504-.375-.941V9.8c0-.13 0-.254-.063-.317 0-.062-.062-.125-.125-.187 0-.063-.062-.063-.187-.063-.063-.062-.125-.062-.188-.062-.125 0-.312.062-.5.062l-.562.188c-.25.062-.438.187-.625.312-.25.13-.438.254-.563.38-.187.187-.312.312-.437.503-.063.188-.125.375-.125.625 0 .192 0 .317.062.442a.863.863 0 0 0 .188.25c.062.062.125.062.187.062a.194.194 0 0 0 .125.063c.125 0 .25-.063.375-.063.063-.062.188-.125.25-.187.063-.063.125-.125.188-.125.062-.063.125-.125.25-.125.062 0 .125.062.187.062a.863.863 0 0 1 .25.188c.063.062.125.125.125.25.063.129.125.254.125.441 0 .188-.062.375-.187.566-.063.188-.188.313-.313.438-.125.062-.312.191-.5.254-.187.062-.375.062-.5.062-.312 0-.562-.062-.75-.125-.25-.129-.437-.254-.562-.441a.908.908 0 0 1-.375-.566 2.25 2.25 0 0 1-.125-.692c0-.437.062-.754.187-1.129.188-.312.375-.629.625-.879a4.58 4.58 0 0 1 .875-.691 5.55 5.55 0 0 1 1.063-.504c.437-.125.812-.25 1.25-.313.437-.062.875-.062 1.25-.062.5 0 .875 0 1.125.125.25.062.437.187.562.312.125.13.188.254.25.38v.374zm0 0"/><path style="fill:#fff;fill-opacity:1;fill-rule:nonzero;stroke:none" d="M33.363 17.336c0 .187 0 .441.063.629.062.187.125.441.25.629.125.25.25.437.375.629.187.25.312.375.558.562.188.13.375.254.625.38.25.062.5.124.813.124.187 0 .375 0 .562-.062.125-.063.313-.125.438-.188.187-.062.312-.191.437-.316.188-.063.313-.188.438-.313l.187.188c-.125.187-.25.379-.5.629a4.064 4.064 0 0 1-.75.566c-.25.187-.625.375-1 .5a4.15 4.15 0 0 1-1.312.191c-.496 0-.996-.129-1.496-.316-.438-.188-.875-.438-1.25-.816a3.719 3.719 0 0 1-.875-1.32c-.25-.563-.313-1.192-.313-1.946 0-.504.063-1.004.188-1.445.125-.442.312-.817.5-1.192.25-.316.5-.629.812-.883.313-.312.625-.5.938-.691.375-.188.687-.313 1.062-.375.313-.125.621-.125.996-.125s.75 0 1.063.125c.312.062.625.187.812.375.188.129.375.316.5.504.063.25.125.441.125.691 0 .25-.062.504-.25.692-.125.25-.375.437-.625.566zm1.746-1.758c.063 0 .125-.062.188-.125 0 0 .062-.062.062-.125.063-.062.063-.129.063-.254.062-.062.062-.187.062-.312s0-.313-.062-.504c0-.188-.063-.313-.188-.5a1.271 1.271 0 0 0-.25-.38c-.125-.124-.25-.124-.437-.124a.707.707 0 0 0-.496.187c-.188.125-.25.254-.375.442-.063.187-.188.437-.25.691 0 .25-.063.5-.125.754v1.317zM41.797 20.54c0 .124 0 .19-.063.315 0 .063-.062.188-.187.25-.063.125-.188.188-.375.25a2.32 2.32 0 0 1-.75.13c-.313 0-.563-.067-.688-.13a1.007 1.007 0 0 1-.437-.25c-.063-.125-.125-.187-.125-.312V9.359c0-.125-.063-.312-.125-.441-.125-.063-.25-.125-.438-.125h-.25c-.062.062-.125.125-.187.191l-.188-.254c.125-.125.25-.187.438-.312.187-.125.312-.188.5-.254.25-.125.437-.187.625-.25.25 0 .437-.062.687-.062.375 0 .688.062.875.187.188.063.375.191.438.379.125.125.187.25.187.437.063.192.063.317.063.442zM47.855 16.836a.345.345 0 0 0-.187-.316.477.477 0 0 0-.313-.125c-.25 0-.437.062-.562.125-.188.125-.375.25-.5.44-.125.188-.25.376-.313.63-.125.312-.125.562-.125.941 0 .313 0 .63.063.817.062.25.125.375.187.566.063.125.188.188.313.25.062.063.187.063.312.063.188 0 .313 0 .438-.125a.74.74 0 0 0 .312-.317c.125-.062.188-.25.25-.375.063-.125.125-.316.125-.441zm-1.375-3.77c-.187 0-.375 0-.562.063-.188.062-.313.125-.438.187-.125.063-.187.125-.25.188-.125.125-.125.191-.125.254 0 .125.063.187.125.187.063.063.188.063.313.125.125.063.187.125.312.25.063.063.125.192.125.38 0 .124-.062.25-.062.312-.063.125-.125.187-.25.316-.063.063-.188.125-.25.188-.125 0-.25.062-.375.062a.885.885 0 0 1-.75-.379c-.246-.187-.309-.5-.309-.879 0-.312.063-.625.25-.879.184-.25.434-.437.746-.629.25-.125.625-.25 1-.375.375-.062.75-.062 1.125-.062.438 0 .875 0 1.25.125.438.062.813.25 1.125.441.313.25.563.5.75.817.188.375.25.754.25 1.191v5.09c0 .063 0 .125.063.188 0 .062.062.062.125.125 0 0 .062.062.187.062a.474.474 0 0 0 .25-.125c.125-.062.188-.187.25-.25l.25.188c-.125.125-.187.25-.312.375-.125.128-.313.316-.438.441-.187.125-.375.187-.625.312-.25.063-.5.13-.812.13-.313 0-.688-.13-.938-.317-.312-.25-.5-.566-.562-1.004-.188.25-.375.438-.563.629-.187.125-.375.25-.625.375-.187.125-.375.187-.625.25-.187 0-.437.066-.625.066-.25 0-.562-.066-.812-.129-.25-.125-.496-.25-.684-.437a2.797 2.797 0 0 1-.5-.691c-.125-.313-.187-.692-.187-1.133 0-.5.125-.942.312-1.254.25-.38.5-.63.809-.88.375-.253.75-.44 1.187-.565.438-.188.875-.313 1.313-.504.312-.125.562-.375.687-.625.188-.254.25-.504.25-.817 0-.379-.125-.754-.375-1.008-.25-.25-.562-.375-1-.375zM55.477 13.066h-.375c-.125.063-.188.125-.313.188-.062.062-.125.187-.187.312-.063.13-.063.254-.063.38 0 .25.063.503.25.69.125.25.313.438.563.692.25.25.5.5.812.754.313.25.563.5.813.816.25.313.437.563.562.942.188.312.25.629.25 1.004 0 .441-.062.816-.187 1.133-.125.312-.313.562-.625.816-.25.187-.563.375-.938.5s-.75.191-1.25.191a2.9 2.9 0 0 1-1.059-.191c-.312-.125-.625-.25-.812-.375-.25-.188-.5-.379-.688-.566-.187-.188-.312-.313-.375-.504l.25-.188c.125.063.188.188.313.254.125.125.25.188.375.313.125.062.312.125.437.187.188.063.375.063.5.063.434 0 .747-.063 1.06-.25.25-.25.374-.504.374-.942a.898.898 0 0 0-.25-.629c-.125-.25-.312-.504-.5-.754-.25-.25-.496-.504-.746-.754s-.438-.566-.688-.816c-.187-.312-.375-.566-.562-.879a2.543 2.543 0 0 1-.188-.941c0-.38.063-.692.188-.946.187-.25.375-.5.625-.691.25-.188.5-.313.812-.375.31-.125.622-.125.997-.125s.687 0 1.062.062c.313.063.563.188.813.313.187.191.375.316.5.566.125.188.187.442.187.754 0 .188-.062.38-.187.567-.188.125-.375.25-.625.25s-.438-.063-.563-.188a.57.57 0 0 1-.187-.441c0-.125 0-.188.062-.313.063-.062.125-.125.188-.125.125-.062.187-.125.25-.125.062 0 .062-.066.062-.129 0-.187-.062-.312-.25-.375-.187-.125-.375-.125-.687-.125zM68.723 21.484c-.438 0-.813-.129-1.063-.316-.187-.188-.312-.504-.312-.941V9.234c-.188 0-.438 0-.688.063a4.604 4.604 0 0 0-.875.25c-.312.062-.562.187-.875.316-.312.125-.562.25-.812.438a2.447 2.447 0 0 0-.559.566c-.187.25-.25.438-.25.692 0 .187.063.375.063.437.062.129.125.254.187.254.063.063.125.125.188.125h.125c.183 0 .308 0 .37-.062.126-.063.188-.063.25-.125l.188-.192c.125 0 .188-.062.25-.062.063 0 .125 0 .25.062.063 0 .125.063.188.129.062.063.125.188.187.313 0 .062.063.25.063.375 0 .253-.063.44-.125.628-.125.125-.25.317-.375.38-.125.124-.313.187-.438.25-.187.062-.375.124-.562.124-.309 0-.559-.062-.746-.187a.9.9 0 0 1-.563-.38c-.187-.187-.25-.374-.375-.562-.062-.253-.125-.503-.125-.753 0-.63.188-1.258.563-1.758a4.47 4.47 0 0 1 1.558-1.196c.625-.312 1.375-.566 2.25-.754.813-.125 1.75-.187 2.688-.187h2.625c.312.062.625.062.937.062.25.063.438.063.563.125.125 0 .187.063.25.125.062.063.12.125.183.188 0 .066.063.129.063.191v.438c0 .125-.063.187-.063.254-.062.062-.12.125-.12.187-.063.063-.126.063-.25.063h-.126l-.187-.188c-.063-.062-.188-.129-.375-.191a2.906 2.906 0 0 0-.563-.188c-.25-.062-.5-.125-.875-.187-.312-.063-.75-.063-1.25-.125v11.055c0 .437-.125.753-.375.941-.187.187-.562.316-1.062.316zm0 0"/><path style="fill:#fff;fill-opacity:1;fill-rule:nonzero;stroke:none" d="M76.406 20.54c0 .062 0 .19-.062.315 0 .063-.063.188-.188.25-.062.125-.187.188-.375.25a2.32 2.32 0 0 1-.75.13c-.312 0-.562-.067-.687-.13-.188-.062-.313-.125-.375-.25-.125-.125-.184-.187-.184-.312 0-.063-.062-.191-.062-.254v-6.656c0-.188 0-.317-.063-.442a.567.567 0 0 0-.437-.187c-.063 0-.188 0-.25.062-.063 0-.125.063-.188.125l-.187-.187c.125-.125.25-.25.437-.379.188-.063.313-.188.5-.25.188-.063.434-.125.621-.188.25-.062.438-.062.688-.062.375 0 .687 0 .875.125.187.125.375.25.437.375a.692.692 0 0 1 .188.441c.062.188.062.313.062.442zm-2.933-10.177c0-.125.062-.312.125-.437a.646.646 0 0 1 .308-.38c.125-.124.25-.187.438-.25.187-.062.375-.124.562-.124.188 0 .375.062.563.125.125.062.312.125.437.25.125.062.188.187.25.379.125.125.125.312.125.437 0 .192 0 .317-.125.504-.062.125-.125.25-.25.375-.125.063-.312.192-.437.254-.188.063-.375.063-.563.063-.187 0-.375 0-.562-.063-.188-.062-.313-.191-.438-.254-.12-.125-.246-.25-.308-.375-.063-.187-.125-.312-.125-.504zM81.219 20.54c0 .124 0 .19-.063.315a.474.474 0 0 1-.125.25c-.125.125-.25.188-.437.25a2.32 2.32 0 0 1-.75.13c-.313 0-.5-.067-.688-.13-.187-.062-.312-.125-.375-.25-.125-.125-.125-.187-.187-.312V9.359c0-.125-.063-.312-.125-.441-.063-.063-.188-.125-.375-.125h-.25a.802.802 0 0 0-.25.191l-.188-.254c.125-.125.313-.187.438-.312.187-.125.375-.188.562-.254.188-.125.375-.187.625-.25.188 0 .438-.062.688-.062.375 0 .625.062.812.187.25.063.375.191.5.379.063.125.125.25.188.437v.442zM87.277 16.836a.48.48 0 0 0-.125-.316c-.125-.063-.25-.125-.375-.125-.187 0-.375.062-.562.125-.188.125-.375.25-.5.44-.125.188-.25.376-.313.63-.062.312-.125.562-.125.941 0 .313 0 .63.063.817.062.25.125.375.187.566.125.125.188.188.313.25a.68.68 0 0 0 .312.063c.188 0 .313 0 .438-.125.125-.063.25-.188.375-.317.062-.062.187-.25.187-.375.063-.125.125-.316.125-.441zm-1.375-3.77c-.187 0-.375 0-.562.063-.125.062-.313.125-.438.187-.125.063-.187.125-.25.188-.062.125-.125.191-.125.254 0 .125.063.187.125.187.125.063.188.063.313.125.125.063.187.125.312.25.063.063.125.192.125.38 0 .124 0 .25-.062.312-.063.125-.125.187-.188.316-.125.063-.187.125-.312.188-.125 0-.25.062-.375.062a.885.885 0 0 1-.75-.379c-.184-.187-.309-.5-.309-.879 0-.312.125-.625.309-.879.125-.25.375-.437.687-.629.313-.125.625-.25 1-.375.375-.062.75-.062 1.125-.062.438 0 .875 0 1.313.125.375.062.75.25 1.062.441.313.25.563.5.75.817.188.375.25.754.25 1.191v5.09c.063.063.063.125.063.188 0 .062.062.062.125.125 0 0 .125.062.187.062.125 0 .188-.062.313-.125.062-.062.125-.187.187-.25l.25.188c-.125.125-.187.25-.312.375-.125.128-.25.316-.438.441-.187.125-.375.187-.625.312-.25.063-.5.13-.75.13-.375 0-.687-.13-1-.317-.25-.25-.437-.566-.562-1.004-.188.25-.375.438-.563.629-.187.125-.375.25-.625.375-.187.125-.375.187-.625.25-.187 0-.375.066-.625.066s-.5-.066-.75-.129a2.93 2.93 0 0 1-.746-.437c-.187-.188-.312-.441-.437-.691-.125-.313-.188-.692-.188-1.133 0-.5.063-.942.313-1.254.187-.38.437-.63.808-.88a3.115 3.115 0 0 1 1.125-.565c.438-.188.875-.313 1.313-.504.312-.125.562-.375.75-.625.125-.254.187-.504.187-.817 0-.379-.125-.754-.375-1.008-.25-.25-.562-.375-1-.375zM102.648 15.074c0-.375 0-.691-.062-.941-.063-.25-.125-.438-.188-.63-.062-.124-.125-.25-.125-.374-.062-.125-.125-.188-.125-.317 0-.062.063-.125.125-.187.063-.063.125-.125.25-.188.063 0 .188-.062.313-.062h.25c.125 0 .25 0 .309.062.125 0 .187.125.187.25.063.188.125.38.125.63v.878c0 .504 0 .942-.062 1.508-.063.504-.125 1.067-.25 1.57-.06.567-.247 1.067-.434 1.57-.125.505-.375.942-.625 1.321-.25.438-.5.754-.813.941-.312.25-.687.38-1.125.38-.312 0-.625-.067-.875-.192s-.437-.313-.687-.563c-.188-.19-.375-.503-.5-.753a4.907 4.907 0 0 1-.438-1.008c-.125.379-.25.691-.437 1.008a4.062 4.062 0 0 1-.563.753c-.187.25-.437.438-.687.563a1.93 1.93 0 0 1-.813.191c-.375 0-.687-.066-1-.254-.25-.125-.5-.375-.687-.628a3.212 3.212 0 0 1-.559-1.004c-.187-.313-.312-.692-.437-1.13-.063-.378-.188-.816-.25-1.257-.063-.375-.125-.816-.188-1.191-.062-.442-.125-.82-.125-1.133-.062-.375-.062-.63-.125-.942a.72.72 0 0 0-.187-.504c-.063-.125-.188-.187-.375-.187-.063 0-.188 0-.25.062-.063 0-.125.063-.188.125l-.187-.187c.125-.125.25-.25.437-.379.125-.063.313-.188.5-.25.188-.063.375-.125.625-.188.188-.062.438-.062.688-.062.375 0 .62.062.808.125.25.125.375.312.5.441.125.188.25.375.313.563 0 .254.062.441.062.566.125.88.25 1.633.313 2.325.125.628.25 1.195.312 1.632.125.442.25.817.375 1.004.188.254.313.38.5.38.125 0 .25-.063.375-.188.125-.063.188-.254.313-.442.125-.125.187-.375.312-.629.063-.25.125-.562.25-.879l-.187-.941c0-.312-.063-.629-.125-.879 0-.316-.063-.566-.063-.816 0-.254-.062-.442-.062-.692-.125-.504-.063-.941.125-1.195.187-.25.562-.375 1.125-.375.25 0 .437 0 .625.062.187 0 .312.125.437.188.063.125.188.316.25.504.063.187.125.5.188.816.062.817.187 1.633.312 2.325.063.628.188 1.253.313 1.695.125.441.25.816.375 1.066.125.254.312.38.5.38.187 0 .375-.126.5-.38.187-.25.312-.562.437-.941.125-.438.25-.88.313-1.383.062-.5.062-1.066.062-1.633zM109.207 16.836a.48.48 0 0 0-.125-.316c-.125-.063-.25-.125-.375-.125-.187 0-.375.062-.562.125-.188.125-.313.25-.5.44-.125.188-.25.376-.313.63-.062.312-.125.562-.125.941 0 .313.063.63.063.817.062.25.125.375.187.566.125.125.188.188.313.25.125.063.25.063.375.063s.25 0 .375-.125c.125-.063.25-.188.375-.317.062-.062.187-.25.25-.375.062-.125.062-.316.062-.441zm-1.375-3.77c-.187 0-.375 0-.562.063-.125.062-.313.125-.375.187-.125.063-.25.125-.313.188-.062.125-.125.191-.125.254 0 .125.063.187.125.187.125.063.188.063.313.125.125.063.25.125.312.25.063.063.125.192.125.38 0 .124 0 .25-.062.312-.063.125-.125.187-.188.316-.125.063-.187.125-.312.188-.125 0-.25.062-.375.062a.885.885 0 0 1-.75-.379c-.188-.187-.313-.5-.313-.879 0-.312.125-.625.313-.879.187-.25.375-.437.687-.629.313-.125.625-.25 1-.375.375-.062.75-.062 1.125-.062.438 0 .875 0 1.313.125.375.062.75.25 1.062.441.313.25.563.5.75.817.188.375.25.754.25 1.191v4.899c0 .066 0 .129.063.191v.188l.125.125c.062 0 .125.062.187.062.125 0 .188-.062.313-.125.062-.062.125-.187.187-.25l.25.188c-.062.125-.187.25-.312.375-.125.128-.25.316-.438.441-.187.125-.375.187-.625.312-.187.063-.5.13-.75.13-.375 0-.687-.13-1-.317a1.71 1.71 0 0 1-.5-1.004c-.187.25-.437.438-.625.629l-.562.375c-.25.125-.438.187-.625.25-.25 0-.438.066-.625.066-.313 0-.563-.066-.813-.129-.25-.125-.5-.25-.687-.437-.25-.188-.375-.441-.5-.691-.125-.313-.188-.692-.188-1.133 0-.5.063-.942.313-1.254.187-.38.437-.63.812-.88a3.115 3.115 0 0 1 1.125-.565c.438-.188.875-.313 1.313-.504.312-.125.562-.375.75-.625.125-.254.187-.504.187-.817 0-.379-.125-.754-.375-1.008-.25-.25-.562-.375-1-.375zM116.766 14.008c.25-.313.437-.567.75-.817a.659.659 0 0 1 .375-.316c.125-.125.25-.188.375-.25.187-.125.312-.188.5-.188.187-.062.375-.062.5-.062.437 0 .75.062 1.062.187.313.188.563.442.75.754.25.38.375.817.5 1.383.125.63.125 1.32.125 2.2 0 .816-.062 1.57-.187 2.132-.125.63-.375 1.196-.563 1.633-.25.379-.562.754-.875 1.008-.25.312-.562.5-.875.691-.312.125-.625.25-.937.313-.25.062-.5.062-.75.062l-.063-.312c.25-.063.5-.192.688-.38.187-.187.375-.437.5-.816.125-.437.25-.94.312-1.632.063-.63.125-1.508.125-2.575 0-.753-.062-1.32-.125-1.757-.062-.442-.125-.754-.25-1.008-.062-.188-.187-.375-.312-.438-.188-.062-.313-.125-.438-.125a.567.567 0 0 0-.437.188.753.753 0 0 0-.313.312c-.125.063-.187.188-.25.317-.062.125-.125.187-.187.25v6.093c-.063.063-.125.188-.188.25-.125.125-.25.188-.375.25a2.32 2.32 0 0 1-.75.13 2.32 2.32 0 0 1-.75-.13c-.125-.062-.312-.125-.375-.25-.062-.125-.125-.187-.187-.312V9.359c0-.125-.063-.312-.125-.441-.063-.063-.188-.125-.375-.125h-.25a.737.737 0 0 0-.246.191l-.188-.254c.125-.125.309-.187.434-.312.187-.125.375-.188.562-.254.188-.125.375-.187.625-.25.188 0 .438-.062.688-.062.375 0 .625.062.812.187.25.063.375.191.5.379.063.125.125.25.188.437v.442zm0 0"/></svg>