<svg xmlns="http://www.w3.org/2000/svg" width="380pt" height="188.87" viewBox="0 0 391 142.652"><defs><clipPath id="s"><path d="M272 52h51v65h-51zm0 0"/></clipPath><clipPath id="a"><path d="M0 0h391v142H0zm0 0"/></clipPath><clipPath id="c"><path d="m379.348 125.059-2.532.421c-1.195.282-2.39.493-3.586.704l-1.406.21c-1.617.282-3.164.563-4.785.844l-.351.07c-1.899.282-3.797.633-5.696.915-1.055.21-2.11.351-3.164.562-.984.14-1.969.281-2.953.496l-1.055.14a1081.036 1081.036 0 0 1-29.539 4.224h-.07c-6.117.773-12.168 1.476-18.285 2.18l-1.688.21c-1.476.14-2.883.281-4.36.422l-1.687.14a1001.81 1001.81 0 0 1-28.906 2.536l-.914.07c-5.836.422-11.605.774-17.441 1.125-.844 0-1.688.07-2.532.14-1.195.071-2.39.071-3.585.141-.704.07-1.407.07-2.18.141-1.27 0-2.606.07-3.942.14l-1.476.07-4.64.212h-.212c-9.847.351-19.691.562-29.539.562-1.828.07-3.656.07-5.484.07h-3.726c-3.305-.07-6.614-.07-9.848-.14h-3.164c-.985 0-2.04-.07-3.024-.07h-.14l-9.286-.211c-2.601-.07-5.203-.14-7.875-.281h-.984l-1.617-.07c-3.586-.141-7.106-.282-10.692-.493h-.843c-1.758-.14-3.446-.21-5.203-.281l-1.407-.07c-4.36-.282-8.793-.563-13.222-.844-4.922-.352-9.918-.774-14.84-1.196l-1.125-.07c-.774-.07-1.547-.144-2.39-.215-1.196-.14-2.462-.21-3.727-.351-.774-.07-1.547-.14-2.25-.211-1.266-.07-2.602-.211-3.872-.352-.843-.07-1.687-.14-2.53-.281-1.196-.07-2.391-.211-3.587-.352l-1.617-.14a1198.705 1198.705 0 0 1-35.164-4.293c-5.836-.844-11.746-1.688-17.582-2.602l-.633-.144-.633-.07c-3.234-.493-6.398-1.055-9.636-1.547-1.336-.282-2.743-.493-4.078-.704-2.602-.492-5.204-.914-7.735-1.406-1.617-.281-3.164-.562-4.781-.847-3.309-.633-6.543-1.196-9.848-1.829H0V20.832C0 9.359 9.355 0 20.816 0H370.7c11.461 0 20.817 9.36 20.817 20.832v101.902c-4.078.774-8.09 1.547-12.168 2.325zm-185.735 16.746c-3.304-.07-6.613-.07-9.847-.14"/></clipPath><clipPath id="d"><path d="m379.348 125.059-2.532.421c-1.195.282-2.39.493-3.586.704l-1.406.21c-1.617.282-3.164.563-4.785.844l-.351.07c-1.899.282-3.797.633-5.696.915-1.055.21-2.11.351-3.164.562-.984.14-1.969.281-2.953.496l-1.055.14a1081.036 1081.036 0 0 1-29.539 4.224h-.07c-6.117.773-12.168 1.476-18.285 2.18l-1.688.21c-1.476.14-2.883.281-4.36.422l-1.687.14a1001.81 1001.81 0 0 1-28.906 2.536l-.914.07c-5.836.422-11.605.774-17.441 1.125-.844 0-1.688.07-2.532.14-1.195.071-2.39.071-3.585.141-.704.07-1.407.07-2.18.141-1.27 0-2.606.07-3.942.14l-1.476.07-4.64.212h-.212c-9.847.351-19.691.562-29.539.562-1.828.07-3.656.07-5.484.07h-3.726c-3.305-.07-6.614-.07-9.848-.14h-3.164c-.985 0-2.04-.07-3.024-.07h-.14l-9.286-.211c-2.601-.07-5.203-.14-7.875-.281h-.984l-1.617-.07c-3.586-.141-7.106-.282-10.692-.493h-.843c-1.758-.14-3.446-.21-5.203-.281l-1.407-.07c-4.36-.282-8.793-.563-13.222-.844-4.922-.352-9.918-.774-14.84-1.196l-1.125-.07c-.774-.07-1.547-.144-2.39-.215-1.196-.14-2.462-.21-3.727-.351-.774-.07-1.547-.14-2.25-.211-1.266-.07-2.602-.211-3.872-.352-.843-.07-1.687-.14-2.53-.281-1.196-.07-2.391-.211-3.587-.352l-1.617-.14a1198.705 1198.705 0 0 1-35.164-4.293c-5.836-.844-11.746-1.688-17.582-2.602l-.633-.144-.633-.07c-3.234-.493-6.398-1.055-9.636-1.547-1.336-.282-2.743-.493-4.078-.704-2.602-.492-5.204-.914-7.735-1.406-1.617-.281-3.164-.562-4.781-.847-3.309-.633-6.543-1.196-9.848-1.829H0V20.832C0 9.359 9.355 0 20.816 0H370.7c11.461 0 20.817 9.36 20.817 20.832v101.902c-4.078.774-8.09 1.547-12.168 2.325zm-185.735 16.746c-3.304-.07-6.613-.07-9.847-.14"/></clipPath><clipPath id="e"><path d="M0 0h103v66H0zm0 0"/></clipPath><clipPath id="f"><path d="M20.816 0H370.7c11.461 0 20.817 9.36 20.817 20.832v101.902c-130.387 25.618-260.848 25.196-391.235 0H0V20.832C0 9.359 9.355 0 20.816 0zm0 0"/></clipPath><clipPath id="g"><path d="m379.348 125.059-2.532.421c-1.195.282-2.39.493-3.586.704l-1.406.21c-1.617.282-3.164.563-4.785.844l-.351.07c-1.899.282-3.797.633-5.696.915-1.055.21-2.11.351-3.164.562-.984.14-1.969.281-2.953.496l-1.055.14a1081.036 1081.036 0 0 1-29.539 4.224h-.07c-6.117.773-12.168 1.476-18.285 2.18l-1.688.21c-1.476.14-2.883.281-4.36.422l-1.687.14a1001.81 1001.81 0 0 1-28.906 2.536l-.914.07c-5.836.422-11.605.774-17.441 1.125-.844 0-1.688.07-2.532.14-1.195.071-2.39.071-3.585.141-.704.07-1.407.07-2.18.141-1.27 0-2.606.07-3.942.14l-1.476.07-4.64.212h-.212c-9.847.351-19.691.562-29.539.562-1.828.07-3.656.07-5.484.07h-3.726c-3.305-.07-6.614-.07-9.848-.14h-3.164c-.985 0-2.04-.07-3.024-.07h-.14l-9.286-.211c-2.601-.07-5.203-.14-7.875-.281h-.984l-1.617-.07c-3.586-.141-7.106-.282-10.692-.493h-.843c-1.758-.14-3.446-.21-5.203-.281l-1.407-.07c-4.36-.282-8.793-.563-13.222-.844-4.922-.352-9.918-.774-14.84-1.196l-1.125-.07c-.774-.07-1.547-.144-2.39-.215-1.196-.14-2.462-.21-3.727-.351-.774-.07-1.547-.14-2.25-.211-1.266-.07-2.602-.211-3.872-.352-.843-.07-1.687-.14-2.53-.281-1.196-.07-2.391-.211-3.587-.352l-1.617-.14a1198.705 1198.705 0 0 1-35.164-4.293c-5.836-.844-11.746-1.688-17.582-2.602l-.633-.144-.633-.07c-3.234-.493-6.398-1.055-9.636-1.547-1.336-.282-2.743-.493-4.078-.704-2.602-.492-5.204-.914-7.735-1.406-1.617-.281-3.164-.562-4.781-.847-3.309-.633-6.543-1.196-9.848-1.829H0V20.832C0 9.359 9.355 0 20.816 0H370.7c11.461 0 20.817 9.36 20.817 20.832v101.902c-4.078.774-8.09 1.547-12.168 2.325zm-185.735 16.746c-3.304-.07-6.613-.07-9.847-.14"/></clipPath><clipPath id="h"><path d="m379.348 125.059-2.532.421c-1.195.282-2.39.493-3.586.704l-1.406.21c-1.617.282-3.164.563-4.785.844l-.351.07c-1.899.282-3.797.633-5.696.915-1.055.21-2.11.351-3.164.562-.984.14-1.969.281-2.953.496l-1.055.14a1081.036 1081.036 0 0 1-29.539 4.224h-.07c-6.117.773-12.168 1.476-18.285 2.18l-1.688.21c-1.476.14-2.883.281-4.36.422l-1.687.14a1001.81 1001.81 0 0 1-28.906 2.536l-.914.07c-5.836.422-11.605.774-17.441 1.125-.844 0-1.688.07-2.532.14-1.195.071-2.39.071-3.585.141-.704.07-1.407.07-2.18.141-1.27 0-2.606.07-3.942.14l-1.476.07-4.64.212h-.212c-9.847.351-19.691.562-29.539.562-1.828.07-3.656.07-5.484.07h-3.726c-3.305-.07-6.614-.07-9.848-.14h-3.164c-.985 0-2.04-.07-3.024-.07h-.14l-9.286-.211c-2.601-.07-5.203-.14-7.875-.281h-.984l-1.617-.07c-3.586-.141-7.106-.282-10.692-.493h-.843c-1.758-.14-3.446-.21-5.203-.281l-1.407-.07c-4.36-.282-8.793-.563-13.222-.844-4.922-.352-9.918-.774-14.84-1.196l-1.125-.07c-.774-.07-1.547-.144-2.39-.215-1.196-.14-2.462-.21-3.727-.351-.774-.07-1.547-.14-2.25-.211-1.266-.07-2.602-.211-3.872-.352-.843-.07-1.687-.14-2.53-.281-1.196-.07-2.391-.211-3.587-.352l-1.617-.14a1198.705 1198.705 0 0 1-35.164-4.293c-5.836-.844-11.746-1.688-17.582-2.602l-.633-.144-.633-.07c-3.234-.493-6.398-1.055-9.636-1.547-1.336-.282-2.743-.493-4.078-.704-2.602-.492-5.204-.914-7.735-1.406-1.617-.281-3.164-.562-4.781-.847-3.309-.633-6.543-1.196-9.848-1.829H0V20.832C0 9.359 9.355 0 20.816 0H370.7c11.461 0 20.817 9.36 20.817 20.832v101.902c-4.078.774-8.09 1.547-12.168 2.325zm-185.735 16.746c-3.304-.07-6.613-.07-9.847-.14"/></clipPath><clipPath id="i"><path d="M211 40h17v17h-17zm0 0"/></clipPath><clipPath id="j"><path d="M20.816 0H370.7c11.461 0 20.817 9.36 20.817 20.832v101.902c-130.387 25.618-260.848 25.196-391.235 0H0V20.832C0 9.359 9.355 0 20.816 0zm0 0"/></clipPath><clipPath id="k"><path d="M20.816 0H370.7c11.461 0 20.817 9.36 20.817 20.832v101.902c-130.387 25.618-260.848 25.196-391.235 0H0V20.832C0 9.359 9.355 0 20.816 0zm0 0"/></clipPath><clipPath id="l"><path d="M359 47h6v6h-6zm0 0"/></clipPath><clipPath id="m"><path d="M20.816 0H370.7c11.461 0 20.817 9.36 20.817 20.832v101.902c-130.387 25.618-260.848 25.196-391.235 0H0V20.832C0 9.359 9.355 0 20.816 0zm0 0"/></clipPath><clipPath id="n"><path d="M20.816 0H370.7c11.461 0 20.817 9.36 20.817 20.832v101.902c-130.387 25.618-260.848 25.196-391.235 0H0V20.832C0 9.359 9.355 0 20.816 0zm0 0"/></clipPath><clipPath id="o"><path d="M184 112h9v9h-9zm0 0"/></clipPath><clipPath id="p"><path d="M20.816 0H370.7c11.461 0 20.817 9.36 20.817 20.832v101.902c-130.387 25.618-260.848 25.196-391.235 0H0V20.832C0 9.359 9.355 0 20.816 0zm0 0"/></clipPath><clipPath id="q"><path d="M20.816 0H370.7c11.461 0 20.817 9.36 20.817 20.832v101.902c-130.387 25.618-260.848 25.196-391.235 0H0V20.832C0 9.359 9.355 0 20.816 0zm0 0"/></clipPath><clipPath id="J"><path d="M268 87h26v30h-26zm0 0"/></clipPath><clipPath id="b"><path d="M20.816 0H370.7c11.461 0 20.817 9.36 20.817 20.832v101.902c-130.387 25.618-260.848 25.196-391.235 0H0V20.832C0 9.359 9.355 0 20.816 0zm0 0"/></clipPath><clipPath id="t"><path d="M267.035 72.629c1.758-6.195 4.5-12.527 9.211-15.836 1.617-1.125 4.223-2.184 7.457-3.027.14 0 .211-.07.281-.07.211-.071.422-.071.633-.141l4.29-.844 5.273 5.066 5.066-4.996s5.344 1.055 5.555 1.055c2.18.703 4.289 1.691 6.187 2.957 6.965 4.855 11.957 22.309 11.184 30.473l-9.285 5.77.492 10.066.07 3.586-20.465 10.277-17.933-9.219-.07-3.098c-1.407-1.054-2.602-2.324-3.586-3.59l8.3-7.038-14.066-7.036s.562-12.386 1.406-14.355zm0 0"/></clipPath><clipPath id="u"><path d="M300 75h12v20h-12zm0 0"/></clipPath><clipPath id="v"><path d="M267.035 72.629c1.758-6.195 4.5-12.527 9.211-15.836 1.617-1.125 4.223-2.184 7.457-3.027.14 0 .211-.07.281-.07.211-.071.422-.071.633-.141l4.29-.844 5.273 5.066 5.066-4.996s5.344 1.055 5.555 1.055c2.18.703 4.289 1.691 6.187 2.957 6.965 4.855 11.957 22.309 11.184 30.473l-9.285 5.77.492 10.066.07 3.586-20.465 10.277-17.933-9.219-.07-3.098c-1.407-1.054-2.602-2.324-3.586-3.59l8.3-7.038-14.066-7.036s.562-12.386 1.406-14.355zm0 0"/></clipPath><clipPath id="w"><path d="M273 71h14v23h-14zm0 0"/></clipPath><clipPath id="x"><path d="M267.035 72.629c1.758-6.195 4.5-12.527 9.211-15.836 1.617-1.125 4.223-2.184 7.457-3.027.14 0 .211-.07.281-.07.211-.071.422-.071.633-.141l4.29-.844 5.273 5.066 5.066-4.996s5.344 1.055 5.555 1.055c2.18.703 4.289 1.691 6.187 2.957 6.965 4.855 11.957 22.309 11.184 30.473l-9.285 5.77.492 10.066.07 3.586-20.465 10.277-17.933-9.219-.07-3.098c-1.407-1.054-2.602-2.324-3.586-3.59l8.3-7.038-14.066-7.036s.562-12.386 1.406-14.355zm0 0"/></clipPath><clipPath id="H"><path d="m318.094 90.293-2.602-2.535c-7.387.773-14.699 4.926-22.086 13.02-7.312-8.094-14.695-12.317-22.082-13.02l-3.304 3.168 1.687 13.652 24.05 11.684 23.774-14.29zm0 0"/></clipPath><clipPath id="G"><path d="M268 87h51v30h-51zm0 0"/></clipPath><clipPath id="A"><path d="M267 94h51v30h-51zm0 0"/></clipPath><clipPath id="B"><path d="M255.852 98.598c2.039-4.72 7.035-5.493 11.324-3.309.07.14 26.933 13.863 50.637 19.914a27.666 27.666 0 0 0-1.055 6.828c-.07.492 0 .985 0 1.477-18.215-.914-37.906-7.035-54.856-12.317-5.277-1.687-8.3-7.457-6.05-12.593zm0 0"/></clipPath><clipPath id="C"><path d="M260 94h67v32h-67zm0 0"/></clipPath><clipPath id="D"><path d="m323.93 94.445-30.313 15.27-30.379-15.27-2.742 9.64 1.617 6.403 31.293 15.485s28.906-14.5 29.258-13.653c.352.844 2.953-2.183 2.953-2.183s-.351-12.317.352-12.317c.773 0-2.04-3.375-2.04-3.375zm0 0"/></clipPath><clipPath id="E"><path d="M260 94h34v31h-34zm0 0"/></clipPath><clipPath id="F"><path d="m323.93 94.445-30.313 15.27-30.379-15.27-2.742 9.64 1.617 6.403 31.293 15.485s28.906-14.5 29.258-13.653c.352.844 2.953-2.183 2.953-2.183s-.351-12.317.352-12.317c.773 0-2.04-3.375-2.04-3.375zm0 0"/></clipPath><clipPath id="K"><path d="m318.094 90.293-2.602-2.535c-7.387.773-14.699 4.926-22.086 13.02-7.312-8.094-14.695-12.317-22.082-13.02l-3.304 3.168 1.687 13.652 24.05 11.684 23.774-14.29zm0 0"/></clipPath><linearGradient id="z" gradientUnits="userSpaceOnUse" x1="10778.9" y1="8632.75" x2="10491.1" y2="8632.75" gradientTransform="matrix(.07033 0 0 .07038 -421.896 -487.77)"><stop offset="0" style="stop-color:#f9b776;stop-opacity:1"/><stop offset="1" style="stop-color:#f47960;stop-opacity:1"/></linearGradient><linearGradient id="y" gradientUnits="userSpaceOnUse" x1="9917.62" y1="8637.39" x2="9629.01" y2="8637.39" gradientTransform="matrix(.07033 0 0 .07038 -421.896 -487.77)"><stop offset="0" style="stop-color:#f9b776;stop-opacity:1"/><stop offset="1" style="stop-color:#f47960;stop-opacity:1"/></linearGradient><linearGradient id="I" gradientUnits="userSpaceOnUse" x1="10165.9" y1="8583.1" x2="10165.9" y2="8177.64" gradientTransform="matrix(.07033 0 0 .07038 -421.896 -487.77)"><stop offset="0" style="stop-color:#fff9e0;stop-opacity:1"/><stop offset="1" style="stop-color:#f5e193;stop-opacity:1"/></linearGradient><linearGradient id="r" gradientUnits="userSpaceOnUse" x1="10182.5" y1="7805.03" x2="10180.6" y2="7582.36" gradientTransform="matrix(.07033 0 0 .07038 -421.896 -487.77)"><stop offset="0" style="stop-color:#f9b776;stop-opacity:1"/><stop offset="1" style="stop-color:#f47960;stop-opacity:1"/></linearGradient></defs><g clip-path="url(#a)"><g clip-path="url(#b)" clip-rule="evenodd"><path style="fill:#19ba9c;fill-opacity:1;fill-rule:evenodd;stroke:none" d="M-19.762-66.715h447.215v189.45h-35.797c-130.457 25.617-260.918 25.195-391.375 0h-20.043zm0 0"/><g clip-path="url(#c)"><g clip-path="url(#d)"><path style="fill:#1c003a;fill-opacity:.2;fill-rule:nonzero;stroke:none" d="M252.336 152.855h127.363v-5.347c29.82-2.957 48.809-7.18 48.176-13.301-.563-6.125-14.98-18.512-34.672-19.285 1.195-.984-3.023-3.59-10.973-6.684v-3.73h-1.195c.703-1.336 1.406-3.168 1.899-5.348v-.07l.07-.07v-.07c.633-3.098.703-6.9-.703-11.122 0 0 0-.07-.07-.07V87.547h-.07v-.14s-.071 0-.071-.071v-.14h-.07V86.984h-.07V86.843h-.071V86.633h-.07v-.14c-.07-.071-.07-.141-.141-.212v-.07c-.21-.563-.492-1.129-.773-1.691l-.07-.07v-.071l-.071-.07c0-.07 0-.07-.07-.141v-.07h-.07v-.14h-.07V83.816h-.071v-.07c-.281-.493-.492-.915-.774-1.337-7.03-11.683-16.668-15.554-19.48-19.707-1.336-1.898-2.11-3.515-2.531-4.715h-.07c2.179-.351 3.796-2.109 3.867-4.293V53.485c0-2.461-2.04-4.504-4.5-4.504-2.532 0-4.57 2.043-4.57 4.503V53.695c.07 2.184 1.687 3.942 3.866 4.293a23.7 23.7 0 0 1-2.601 4.715c-.211.422-.563.774-.914 1.13-2.606 2.741-7.88 5.698-13.012 11.257-.422.703-.773 1.336-1.195 1.902 3.445-5.14 10.054-18.652-.282-34.484-13.222-20.34-32.21-26.672-37.625-33.5-3.234-4.152-4.785-7.461-5.488-9.43 3.238.422 6.473-.703 8.582-2.676-2.11 1.13-4.289 1.48-6.61.989-2.323-.567-4.151-1.762-5.558-3.66-2.531-3.45-2.32-8.235.492-11.543 2.883-3.239 7.739-4.223 11.676-1.97-4.008-3.73-10.902-4.01-15.261.634-4.29 4.504-3.938 11.75.984 15.832 1.476 1.199 3.023 1.902 4.64 2.254-.632 1.898-2.18 5.277-5.484 9.57-5.414 6.828-24.402 13.16-37.625 33.5-9.215 14.144-4.992 26.39-1.476 32.582-5.836-6.332-11.817-9.219-13.926-12.387a23.7 23.7 0 0 1-2.602-4.715c2.18-.351 3.867-2.18 3.867-4.504 0-2.46-2.039-4.503-4.57-4.503s-4.57 2.043-4.57 4.503c0 2.325 1.687 4.153 3.867 4.504-.422 1.2-1.195 2.817-2.531 4.715-2.883 4.293-13.082 8.305-20.254 21.043-5.137 9.149-2.465 17.031-.563 20.762h-1.195v4.504h2.531v8.515c-99.093 37.72-139.18-16.187-208.172 4.715-24.472 7.461-38.117 16.188-9.703 23.293 7.242 1.762 39.946 1.903 50.703 2.887 21.454 1.969 92.13 4.223 167.172 4.363v.07zm0 0"/></g></g></g></g><g clip-path="url(#e)"><g clip-path="url(#f)" clip-rule="evenodd"><g clip-path="url(#g)"><g clip-path="url(#h)"><path style="fill:#ca2b66;fill-opacity:.101961;fill-rule:evenodd;stroke:none" d="M102.398-15.836c0 67.211-40.23-6.121-75.46 60.875-13.364 25.336-63.227 36.035-87.7-18.93-37.906-85.011 120.188-146.168 163.16-41.945zm0 0"/></g></g></g></g><g clip-path="url(#i)"><g clip-path="url(#j)" clip-rule="evenodd"><g clip-path="url(#k)"><path style="fill:#149e85;fill-opacity:1;fill-rule:evenodd;stroke:none" d="m227.652 40.324-6.683 7.953 6.683 8.024-8.02-6.617-8.015 6.617 6.68-8.024-6.68-7.953 8.016 6.617zm0 0"/></g></g></g><g clip-path="url(#l)"><g clip-path="url(#m)" clip-rule="evenodd"><g clip-path="url(#n)"><path style="fill:#149e85;fill-opacity:1;fill-rule:evenodd;stroke:none" d="m364.86 47.504-2.18 2.672 2.18 2.676-2.673-2.18-2.671 2.18 2.25-2.676-2.25-2.672 2.671 2.25zm0 0"/></g></g></g><g clip-path="url(#o)"><g clip-path="url(#p)" clip-rule="evenodd"><g clip-path="url(#q)"><path style="fill:#149e85;fill-opacity:1;fill-rule:evenodd;stroke:none" d="m192.137 112.953-3.375 4.012 3.375 3.941-4.012-3.308-4.008 3.308 3.305-3.941-3.305-4.012 4.008 3.309zm0 0"/></g></g></g><path style="fill:url(#r);fill-rule:evenodd;stroke:none" d="M304.309 54.258s-1.758 7.32-10.551 7.18c-9-.211-9.774-7.743-9.774-7.743l5.836-1.265.493-6.477 8.792.637.141 6.191zm0 0"/><path style="fill:#19ba9c;fill-opacity:1;fill-rule:evenodd;stroke:none" d="M267.035 72.629c1.758-6.195 4.5-12.527 9.211-15.836 1.617-1.125 4.223-2.184 7.457-3.027.14 0 .211-.07.281-.07.211-.071.422-.071.633-.141l4.29-.844 5.273 5.066 5.066-4.996s5.344 1.055 5.555 1.055c2.18.703 4.289 1.691 6.187 2.957 6.965 4.855 11.957 22.309 11.184 30.473l-9.285 5.77.492 10.066.07 3.585-20.465 10.278-17.933-9.219-.07-3.098c-1.407-1.054-2.602-2.324-3.586-3.59l8.3-7.038-14.066-7.036s.562-12.386 1.406-14.355zm0 0"/><g clip-path="url(#s)"><g clip-path="url(#t)" clip-rule="evenodd"><path style="fill:#191919;fill-opacity:.101961;fill-rule:evenodd;stroke:none" d="m272.66 57.918 57.598 70.445 23.914-48.136-44.59-29.485-25.598.914zm0 0"/></g></g><g clip-path="url(#u)"><g clip-path="url(#v)" clip-rule="evenodd"><path style="fill:#000;fill-opacity:.2;fill-rule:evenodd;stroke:none" d="m308.95 75.09-.141 12.527-7.946 6.262 10.266.777-.633-6.336zm0 0"/></g></g><g clip-path="url(#w)"><g clip-path="url(#x)" clip-rule="evenodd"><path style="fill:#000;fill-opacity:.2;fill-rule:evenodd;stroke:none" d="m278.781 71.43-.426 15.273 7.668 7.246-12.449-1.687 3.235-5.278zm0 0"/></g></g><path style="fill:#fff;fill-opacity:1;fill-rule:evenodd;stroke:none" d="M287.992 52.43c.07-.14.14-.211.211-.211.07-.07.211-.07.281-.07l4.782 1.828.21.21.352 1.2.14-1.13c0-.14.071-.21.212-.28l6.472-1.97c.07 0 .211 0 .352.071.07.07.14.14.14.281l.07 2.18s-4.57 3.168-7.245 3.309c-2.602.07-6.61-3.239-6.61-3.239zm0 0"/><path style="fill:#ffc7a1;fill-opacity:1;fill-rule:evenodd;stroke:none" d="M293.617 53.414c.703.07 1.477 0 2.25-.21 4.082-1.267 5.91-4.294 6.473-7.813.14-.774.21-1.547.281-2.32-.773-1.337-.844-4.997-1.476-6.407-.493-.984.984-2.953-.704-3.094-5.207-.492-9.004.07-14.066-.351-.844-.07-1.336 1.476-2.04 1.125-.28 1.125.352 3.941.563 5.629.633 5.558 3.586 13.02 8.72 13.441zm0 0"/><path style="fill:#000;fill-opacity:1;fill-rule:evenodd;stroke:none" d="M284.898 39.973c-.562-4.926.774-6.965 3.094-6.403 4.149.914 8.793.352 11.395.422 1.195.07 1.336 1.688 1.758 2.672.632 1.41.703 5.07 1.476 6.406-.07.774-.14 1.547-.281 2.32 3.094-2.46 5.273-6.964 4.71-11.82H283c.14 2.813.563 5.418 1.898 6.403zm0 0"/><path style="fill:#ffc7a1;fill-opacity:1;fill-rule:evenodd;stroke:none" d="M300.3 37.793s2.11-2.324 2.462.422c.351 2.812-.774 6.402-2.04 4.433-1.335-1.972-.421-4.855-.421-4.855zM304.66 94.09c0-.422 10.059-10.274 12.52-10.414 4.43-1.055 5.414 4.996 5.414 4.996.773 2.324-5.344 6.758-9.989 9.926-4.64 3.164-8.226-2.114-7.945-4.508zm0 0"/><path style="fill:url(#y);fill-rule:evenodd;stroke:none" d="M257.117 116.402c4.504-.988 14.91-.496 14.91-.496v.07c.422-.14.844-.28 1.196-.28l1.828-.071.562 6.969-2.46.14v.07s-9.915 1.758-14.77 1.758c-.492 0-.985-.07-1.406-.21l-.422-.422c-2.04-2.25-1.477-5.559.562-7.528zm0 0"/><path style="fill:url(#z);fill-rule:evenodd;stroke:none" d="M334.2 115.836c-4.505-.844-14.91 0-14.91 0v.07c-.353-.14-.774-.281-1.196-.281h-1.758l-.422 6.969 2.461.14s9.914 1.477 14.77 1.336c.492-.07.984-.14 1.406-.28.14-.142.281-.282.422-.423 1.968-2.32 1.336-5.629-.774-7.531zm0 0"/><path style="fill:#191919;fill-opacity:1;fill-rule:evenodd;stroke:none" d="M255.852 98.598c2.039-4.72 7.035-5.493 11.324-3.309.07.14 26.933 13.863 50.637 19.914a27.666 27.666 0 0 0-1.055 6.828c-.07.492 0 .985 0 1.477-18.215-.914-37.906-7.035-54.856-12.317-5.277-1.687-8.3-7.457-6.05-12.593zm0 0"/><g clip-path="url(#A)"><g clip-path="url(#B)" clip-rule="evenodd"><path style="fill:#4c4c4c;fill-opacity:.2;fill-rule:evenodd;stroke:none" d="M270.129 120.977c.14-2.957-.914-3.168-2.18-5.774 0-.07-.07-.21-.14-.351 1.546-.422 2.953 1.054 5.554.14 22.856-13.09 34.25-15.27 48.176-22.87 5.344-2.958 11.535-.985 13.223 5.417 1.547 5.703-1.828 10.629-6.965 12.316-15.402 5.137 10.691.844 5.629 2.465-13.504 4.153-48.317 10.836-63.79 11.89 0-.21.493-3.022.493-3.233zm0 0"/></g></g><path style="fill:#191919;fill-opacity:1;fill-rule:evenodd;stroke:none" d="M274.91 122.383c.07-2.676-.492-5.067-1.547-7.39-.07-.071-.07-.141-.14-.282a146.41 146.41 0 0 0 5.418-1.758c16.875-5.773 29.675-11.613 41.984-18.297 4.71-2.605 10.125-.847 11.676 4.785 1.336 5.067-1.621 9.36-6.192 10.836-13.574 4.504-6.468 3.239-10.898 4.715-11.887 3.66-26.727 7.04-40.371 7.953 0-.21.07-.422.07-.562zm0 0"/><path style="fill:#ffc7a1;fill-opacity:1;fill-rule:evenodd;stroke:none" d="M283.914 92.895c-.14-.422-10.832-9.5-13.293-9.5-4.5-.704-5.062 5.418-5.062 5.418-.563 2.394 5.836 6.335 10.687 9.148 4.856 2.816 8.02-2.672 7.668-5.066zm0 0"/><path style="fill:#fff;fill-opacity:1;fill-rule:nonzero;stroke:none" d="M277.371 35.047c.14-.211.281-.492.422-.703-.211.21-.352.492-.422.703zm0 0"/><path style="fill:#68451e;fill-opacity:1;fill-rule:evenodd;stroke:none" d="m310.566 117.879 15.965 7.672v1.828s-8.437-2.957-7.172 2.957c1.266 5.91 7.524 8.305 7.524 8.305l-.14 2.18s-11.532-4.223-11.813-3.52c-.282.633-19.836-11.258-19.836-11.258zM276.668 117.879l-16.031 7.672v1.828s8.508-2.957 7.172 2.957c-1.266 5.91-7.528 8.305-7.528 8.305l.215 2.18s11.461-4.223 11.742-3.52c.282.633 20.254-11.258 20.254-11.258zm0 0"/><g clip-path="url(#C)"><g clip-path="url(#D)" clip-rule="evenodd"><path style="fill:#68451e;fill-opacity:1;fill-rule:evenodd;stroke:none" d="M326.11 125.973h-65.614V94.445h65.613zm0 0"/></g></g><g clip-path="url(#E)"><g clip-path="url(#F)" clip-rule="evenodd"><path style="fill:#4a2e0f;fill-opacity:1;fill-rule:evenodd;stroke:none" d="M245.375 64.676h48.172v60.027h-48.172zm0 0"/></g></g><g clip-path="url(#G)"><g clip-path="url(#H)" clip-rule="evenodd"><path style="fill:url(#I);fill-rule:evenodd;stroke:none" d="M318.094 116.262H268.02V87.758h50.074zm0 0"/></g></g><g clip-path="url(#J)"><g clip-path="url(#K)" clip-rule="evenodd"><path style="fill:#f0e3b0;fill-opacity:1;fill-rule:evenodd;stroke:none" d="M243.547 86.422h49.86v33.707h-49.86zm0 0"/></g></g><path style="fill:#785730;fill-opacity:1;fill-rule:evenodd;stroke:none" d="m263.027 142.652-2.53-1.832 63.433-30.894v-15.48l2.812 2.39v14.496zm0 0"/><path style="fill:#785730;fill-opacity:1;fill-rule:evenodd;stroke:none" d="m324.14 142.652 2.602-1.832-63.504-30.894v-15.48l-2.742 2.39v14.496zm0 0"/><path style="fill:#ded4ab;fill-opacity:1;fill-rule:evenodd;stroke:none" d="M315.492 101.621c-7.316 1.125-14.558 5.137-21.875 12.598-7.523-6.824-15.047-10.906-22.504-12.387l-4.36 3.52 26.864 13.16 26.516-13.16zm0 0"/><path style="fill:#fff8de;fill-opacity:1;fill-rule:evenodd;stroke:none" d="M315.492 101.621V87.758l4.64 3.379v14.215zM271.324 101.621V87.758l-4.57 2.957v14.637zm0 0"/><path style="fill:#fff;fill-opacity:1;fill-rule:nonzero;stroke:none" d="M306.91 31.879c-2.039.07-9.492.492-19.129.21-1.617 0-3.234-.07-4.851-.14l.14-.844.211-.843.14-.703c.212-.704.563-1.41.915-2.043.351-.563.773-1.125 1.195-1.618.703-.773 1.547-1.476 2.461-2.113 5.695.14 10.48 0 13.715-.07 3.023 1.832 3.656 3.238 4.64 6.476zm-12.308-10.625c-.282 0-.563.281-.563.562-1.547.141-3.094.493-4.43 1.125 4.149.07 7.739 0 10.48-.07-1.476-.633-3.093-.984-4.784-1.055h-.14a.555.555 0 0 0-.563-.562zm4.996 10.062c3.445-.07 5.906-.21 6.96-.21h.141l-.281-.774c-2.25-.07-9.773.422-19.48.14-1.196 0-2.391-.07-3.657-.14l-.21.844c1.265.07 2.46.14 3.656.14 4.992.141 9.421.07 12.87 0zm-11.887 1.692c10.059.281 17.723-.215 19.41-.285v1.058c0 .211 0 .352-.07.563-.07.07-.211.14-.352.14-.07 0-.07.07-.14.07-8.086.633-15.614.563-22.715-.21h-.422c-.211 0-.352-.07-.563-.211v-1.34c1.618.074 3.235.144 4.852.215zm0 0"/><path style="fill:#fff;fill-opacity:1;fill-rule:evenodd;stroke:none" d="M291.86 50.105c.28.708 1.054 1.2 2.038 1.2 1.055 0 1.829-.493 2.11-1.2zm0 0"/><path style="fill:#fff;fill-opacity:1;fill-rule:nonzero;stroke:none" d="M31.93 75.723c0-1.407-.914-2.25-2.11-2.461v-.07c.985-.352 1.688-1.13 1.688-2.254 0-2.11-1.899-2.743-3.586-2.743H23.77V78.75h4.152c2.039 0 4.008-.773 4.008-3.027zm-2.883-4.434c0 .703-.563 1.129-1.477 1.129h-1.41v-2.184h1.27c1.054 0 1.617.352 1.617 1.055zm.351 4.152c0 1.055-.984 1.27-1.757 1.27h-1.48v-2.395h1.48c1.054 0 1.757.282 1.757 1.125zM36.148 68.969c0-.703-.632-1.34-1.406-1.34-.773 0-1.406.637-1.406 1.34 0 .773.633 1.336 1.406 1.336.774 0 1.406-.563 1.406-1.336zm-.14 9.781v-7.39h-2.461v7.39zM43.602 72.133c-.704-.633-1.899-.985-2.954-.985-1.406 0-3.093.704-3.093 2.465 0 1.407 1.125 1.899 2.18 2.18.984.21 1.476.352 1.476.844 0 .425-.492.636-.914.636a2.487 2.487 0 0 1-1.828-.847l-1.336 1.41c.773.773 2.039 1.195 3.234 1.195 1.477 0 3.164-.703 3.164-2.535 0-1.476-1.265-2.039-2.39-2.25-.914-.21-1.336-.351-1.336-.773 0-.422.422-.633.914-.633.633 0 1.195.351 1.547.703zM49.3 75.793c0 .918-.562 1.55-1.546 1.55-.492 0-1.055-.21-1.055-.777 0-.914 1.196-1.054 2.32-1.054h.282zm-3.234-2.11c.422-.421 1.125-.773 1.829-.773.773 0 1.335.352 1.335 1.125v.07c-2.18 0-4.785.352-4.785 2.532 0 1.761 1.551 2.324 2.746 2.324.844 0 1.688-.352 2.11-.984v.773h2.25v-3.73c0-2.672-.914-3.872-3.446-3.872-1.195 0-2.39.422-3.308 1.2zM64.352 68.195l.07 6.895h-.07l-4.223-6.895h-2.883V78.75h2.461l-.07-6.898h.07l4.223 6.898h2.883V68.195zM76.727 78.047v-6.688h-2.32v.918h-.071c-.492-.777-1.406-1.129-2.32-1.129-2.25 0-3.516 1.832-3.516 3.872 0 2.043 1.266 3.8 3.516 3.8.984 0 1.757-.351 2.25-.984h.07v.492c0 1.195-.703 2.04-2.11 2.04-.843 0-1.757-.282-2.46-.915L68.5 81.215c1.055.703 2.531 1.125 3.867 1.125 2.602 0 4.36-1.34 4.36-4.293zm-2.32-3.027c0 .984-.704 1.902-1.829 1.902s-1.758-.918-1.758-1.902c0-1.055.633-1.899 1.758-1.899s1.828.914 1.828 1.899zM82.988 75.793c0 .918-.492 1.55-1.476 1.55-.492 0-1.059-.21-1.059-.777 0-.914 1.2-1.054 2.254-1.054h.281zm-3.238-2.11c.492-.421 1.129-.773 1.832-.773.773 0 1.336.352 1.336 1.125v.07c-2.113 0-4.715.352-4.715 2.532 0 1.761 1.477 2.324 2.676 2.324.844 0 1.687-.352 2.11-.984v.773h2.25v-3.73c0-2.672-.915-3.872-3.376-3.872-1.199 0-2.465.422-3.308 1.2zM89.738 68.969c0-.703-.633-1.34-1.406-1.34-.773 0-1.406.637-1.406 1.34 0 .773.633 1.336 1.406 1.336.773 0 1.406-.563 1.406-1.336zm-.14 9.992v-7.602h-2.461v7.602c0 .773-.211 1.266-.914 1.266-.141 0-.352 0-.493-.07l-.14 2.042c.21.07.703.14 1.055.14 2.39 0 2.953-1.55 2.953-3.378zM94.168 68.969c0-.703-.633-1.34-1.406-1.34-.774 0-1.407.637-1.407 1.34 0 .773.633 1.336 1.407 1.336.773 0 1.406-.563 1.406-1.336zm-.211 9.781v-7.39h-2.39v7.39zM107.531 78.75V67.488h-2.46v4.645H105c-.352-.492-1.125-.985-2.25-.985-2.11 0-3.445 1.832-3.445 3.872 0 2.113 1.265 3.94 3.515 3.94.985 0 1.899-.42 2.39-1.124h.071v.914zm-2.39-3.73c0 .984-.633 1.902-1.758 1.902-1.195 0-1.758-.918-1.758-1.902 0-.915.563-1.899 1.758-1.899 1.125 0 1.758.984 1.758 1.899zM111.398 74.246c.07-.773.774-1.476 1.688-1.476.984 0 1.476.703 1.476 1.476zm5.418.914c0-2.531-1.55-4.012-3.73-4.012-2.25 0-4.008 1.551-4.008 3.942 0 2.535 1.828 3.941 4.078 3.941 1.477 0 2.672-.562 3.375-1.617l-1.758-1.059c-.28.426-.843.778-1.617.778-.844 0-1.687-.567-1.758-1.41h5.344c.074-.141.074-.352.074-.563zM125.605 78.75v-4.574c0-1.477-.703-3.028-2.671-3.028-1.055 0-1.899.563-2.25 1.27v-1.059h-2.391v7.391h2.46v-4.012c0-.843.493-1.547 1.337-1.547s1.055.704 1.055 1.547v4.012zM135.313 78.047v-6.688h-2.254v.918h-.07c-.493-.777-1.407-1.129-2.391-1.129-2.18 0-3.516 1.832-3.516 3.872 0 2.043 1.336 3.8 3.586 3.8.984 0 1.758-.351 2.25-.984v.492c0 1.195-.633 2.04-2.11 2.04a3.652 3.652 0 0 1-2.39-.915l-1.266 1.762c.985.703 2.532 1.125 3.797 1.125 2.672 0 4.364-1.34 4.364-4.293zm-2.325-3.027c0 .984-.633 1.902-1.758 1.902s-1.757-.918-1.757-1.902c0-1.055.632-1.899 1.757-1.899 1.055 0 1.758.914 1.758 1.899zM141.64 75.793c0 .918-.562 1.55-1.546 1.55-.492 0-1.055-.21-1.055-.777 0-.914 1.195-1.054 2.32-1.054h.282zm-3.234-2.11c.422-.421 1.125-.773 1.828-.773.774 0 1.336.352 1.336 1.125v.07c-2.18 0-4.78.352-4.78 2.532 0 1.761 1.546 2.324 2.741 2.324.844 0 1.688-.352 2.04-.984h.07v.773h2.25v-3.73c0-2.672-.914-3.872-3.446-3.872-1.195 0-2.39.422-3.304 1.2zM153.035 78.75v-4.574c0-1.477-.707-3.028-2.746-3.028-.984 0-1.828.563-2.18 1.27h-.07v-1.059h-2.32v7.391h2.46v-4.012c0-.843.423-1.547 1.266-1.547.914 0 1.125.704 1.125 1.547v4.012zM165.902 78.75v-4.574c0-1.477-.703-3.028-2.672-3.028-1.054 0-1.898.563-2.25 1.27v-1.059h-2.39v7.391h2.46v-4.012c0-.843.423-1.547 1.337-1.547.843 0 1.054.704 1.054 1.547v4.012zM172.164 75.793c0 .918-.562 1.55-1.55 1.55-.493 0-1.055-.21-1.055-.777 0-.914 1.199-1.054 2.254-1.054h.351zm-3.309-2.11c.493-.421 1.196-.773 1.833-.773.773 0 1.406.352 1.406 1.125v.07c-2.184 0-4.785.352-4.785 2.532 0 1.761 1.476 2.324 2.671 2.324.918 0 1.762-.352 2.114-.984h.07v.773h2.18v-3.73c0-2.672-.914-3.872-3.375-3.872-1.2 0-2.465.422-3.309 1.2zM184.047 78.75V67.488h-2.461v4.645c-.422-.492-1.195-.985-2.25-.985-2.18 0-3.516 1.832-3.516 3.872 0 2.113 1.266 3.94 3.516 3.94.984 0 1.969-.42 2.46-1.124v.914zm-2.32-3.73c0 .984-.704 1.902-1.829 1.902s-1.757-.918-1.757-1.902c0-.915.632-1.899 1.757-1.899s1.829.984 1.829 1.899zM190.379 75.793c0 .918-.563 1.55-1.547 1.55-.496 0-1.059-.21-1.059-.777 0-.914 1.2-1.054 2.254-1.054h.352zm-3.238-2.11c.421-.421 1.125-.773 1.832-.773.703 0 1.336.352 1.336 1.125v.07c-2.184 0-4.786.352-4.786 2.532 0 1.761 1.477 2.324 2.672 2.324.918 0 1.762-.352 2.114-.984h.07v.773h2.18v-3.73c0-2.672-.914-3.872-3.375-3.872-1.2 0-2.465.422-3.309 1.2zM200.785 68.969c0-.703-.633-1.34-1.406-1.34-.774 0-1.406.637-1.406 1.34 0 .773.632 1.336 1.406 1.336.773 0 1.406-.563 1.406-1.336zm-.21 9.781v-7.39h-2.391v7.39zM209.86 78.75v-4.574c0-1.477-.704-3.028-2.743-3.028-.988 0-1.832.563-2.183 1.27h-.07v-1.059h-2.321v7.391h2.46v-4.012c0-.843.423-1.547 1.267-1.547.918 0 1.128.704 1.128 1.547v4.012zM219.563 78.75V67.488h-2.461v4.645c-.422-.492-1.196-.985-2.25-.985-2.18 0-3.516 1.832-3.516 3.872 0 2.113 1.266 3.94 3.516 3.94.984 0 1.968-.42 2.46-1.124v.914zm-2.32-3.73c0 .984-.704 1.902-1.829 1.902s-1.758-.918-1.758-1.902c0-.915.633-1.899 1.758-1.899s1.828.984 1.828 1.899zM225.895 75.793c0 .918-.563 1.55-1.551 1.55-.492 0-1.055-.21-1.055-.777 0-.914 1.195-1.054 2.254-1.054h.352zm-3.239-2.11c.422-.421 1.125-.773 1.828-.773.707 0 1.34.352 1.34 1.125v.07c-2.183 0-4.785.352-4.785 2.532 0 1.761 1.477 2.324 2.672 2.324.918 0 1.762-.352 2.113-.984h.07v.773h2.18v-3.73c0-2.672-.914-3.872-3.375-3.872-1.199 0-2.465.422-3.308 1.2zM237.285 78.75v-4.574c0-1.477-.703-3.028-2.742-3.028-1.055 0-1.828.563-2.11 1.13h-.07v-4.79h-2.39V78.75h2.39v-4.012c0-.843.492-1.547 1.336-1.547.914 0 1.125.704 1.125 1.547v4.012zM26.938 98.383c-1.27-1.688-1.903-3.727-1.903-5.91 0-2.18.633-4.223 1.903-5.98l-1.692-.774c-1.406 1.898-2.18 4.293-2.18 6.754 0 2.394.774 4.785 2.18 6.757zM27.852 86.21v2.18h2.953v8.376h2.53V88.39h2.954v-2.18zM39.805 86.984c0-.773-.633-1.336-1.407-1.336-.773 0-1.406.633-1.406 1.336 0 .704.633 1.336 1.406 1.336.774 0 1.407-.562 1.407-1.336zm-.14 9.782v-7.461h-2.462v7.46zM41.633 85.508v11.258h2.46V85.508zM50.355 93.738c0 .989-.492 1.551-1.476 1.551-.492 0-1.055-.21-1.055-.773 0-.848 1.196-.989 2.25-.989h.281zM47.121 91.7c.492-.422 1.125-.773 1.828-.773.774 0 1.336.351 1.336 1.054v.141c-2.11 0-4.71.352-4.71 2.465 0 1.758 1.476 2.32 2.671 2.32.844 0 1.688-.351 2.11-.914v.774h2.25v-3.73c0-2.743-.915-3.942-3.376-3.942-1.195 0-2.46.422-3.304 1.27zM62.59 94.02l-1.336-4.715h-2.461l-1.336 4.715h-.07l-1.266-4.715H53.45l2.602 7.46h2.46l1.407-4.644h.07l1.407 4.645h2.464l2.602-7.461H63.93zM71.805 93.738c0 .989-.563 1.551-1.547 1.551-.492 0-1.055-.21-1.055-.773 0-.848 1.195-.989 2.25-.989h.352zM68.5 91.7c.492-.422 1.195-.773 1.828-.773.774 0 1.406.351 1.406 1.054v.141c-2.18 0-4.78.352-4.78 2.465 0 1.758 1.476 2.32 2.671 2.32.914 0 1.758-.351 2.11-.914h.07v.774h2.18v-3.73c0-2.743-.915-3.942-3.376-3.942-1.195 0-2.46.422-3.304 1.27zM83.129 96.766V92.19c0-1.546-.633-3.097-2.676-3.097-1.055 0-1.828.562-2.11 1.199h-.07v-4.785h-2.39v11.258h2.39v-4.012c0-.914.493-1.617 1.336-1.617.914 0 1.125.773 1.125 1.617v4.012zM88.684 92.473c0-2.461-.774-4.856-2.18-6.754l-1.617.773c1.195 1.758 1.898 3.801 1.898 5.98a10.2 10.2 0 0 1-1.898 5.91l1.617.848a11.725 11.725 0 0 0 2.18-6.757zM99.516 90.152c-.704-.707-1.903-1.058-2.957-1.058-1.407 0-3.094.707-3.094 2.465 0 1.406 1.125 1.968 2.18 2.18.984.21 1.476.421 1.476.847 0 .492-.492.633-.914.633a2.498 2.498 0 0 1-1.828-.844l-1.336 1.477c.773.703 2.039 1.125 3.234 1.125 1.477 0 3.168-.633 3.168-2.532 0-1.41-1.27-1.972-2.394-2.254-.914-.21-1.336-.351-1.336-.773 0-.422.422-.563.914-.563.633 0 1.195.282 1.547.704zM102.82 92.191c.07-.773.703-1.406 1.688-1.406.984 0 1.476.633 1.476 1.406zm5.414.914c0-2.53-1.546-4.011-3.726-4.011-2.25 0-4.008 1.55-4.008 4.011 0 2.465 1.828 3.872 4.078 3.872 1.477 0 2.672-.563 3.305-1.547l-1.688-1.055c-.28.422-.843.773-1.617.773-.844 0-1.687-.632-1.758-1.41h5.344c.07-.21.07-.422.07-.633zM117.941 93.035c0-2.11-1.34-3.941-3.52-3.941-1.054 0-1.898.562-2.32 1.129h-.07v-.918h-2.32v11.05h2.46v-4.433c.493.633 1.337 1.055 2.25 1.055 2.25 0 3.52-1.899 3.52-3.942zm-2.324 0c0 .914-.633 1.903-1.758 1.903s-1.757-.918-1.757-1.903c0-.914.632-1.898 1.757-1.898s1.758.914 1.758 1.898zM121.457 92.191c.07-.773.773-1.406 1.688-1.406.984 0 1.476.633 1.476 1.406zm5.414.914c0-2.53-1.547-4.011-3.726-4.011-2.25 0-4.008 1.55-4.008 4.011 0 2.465 1.828 3.872 4.078 3.872 1.476 0 2.672-.563 3.375-1.547l-1.688-1.055a2.146 2.146 0 0 1-1.687.773c-.844 0-1.688-.632-1.758-1.41h5.414v-.633zM133.27 89.164c-.141 0-.282-.07-.493-.07-.914 0-1.687.562-2.039 1.34v-1.13h-2.39v7.462h2.46v-3.801c0-.633.422-1.688 1.758-1.688.211 0 .422 0 .633.07zm0 0"/><path style="fill:#fff;fill-opacity:1;fill-rule:nonzero;stroke:none" d="M138.477 91.137v-1.832h-1.758v-1.899h-2.395v1.899h-1.195v1.832h1.195v3.168c0 1.547.707 2.601 2.676 2.601.492 0 1.055-.07 1.406-.21v-1.758c-.21.07-.492.07-.773.07-.703 0-.914-.352-.914-.988v-2.883zM142.273 86.984c0-.773-.632-1.336-1.406-1.336-.773 0-1.406.633-1.406 1.336 0 .704.633 1.336 1.406 1.336.774 0 1.406-.562 1.406-1.336zm-.21 9.782v-7.461h-2.391v7.46zM159.363 96.766v-2.04l-2.18.07v-.07c.704-.566 1.547-1.831 1.547-3.449 0-3.168-2.39-5.347-5.695-5.347-3.238 0-5.7 2.18-5.7 5.418 0 3.449 2.25 5.418 5.63 5.418zm-3.304-5.418c0 1.898-1.266 3.238-3.024 3.238-1.762 0-2.957-1.34-2.957-3.238 0-1.832 1.266-3.098 2.957-3.098 1.758 0 3.024 1.266 3.024 3.098zM164.918 93.738c0 .989-.563 1.551-1.547 1.551-.492 0-1.055-.21-1.055-.773 0-.848 1.196-.989 2.25-.989h.352zm-3.305-2.039c.492-.422 1.125-.773 1.828-.773.774 0 1.336.351 1.336 1.054v.141c-2.109 0-4.71.352-4.71 2.465 0 1.758 1.476 2.32 2.671 2.32.914 0 1.758-.351 2.11-.914h.07v.774h2.18v-3.73c0-2.743-.914-3.942-3.375-3.942-1.196 0-2.461.422-3.305 1.27zM173.852 89.164c-.141 0-.352-.07-.493-.07-.914 0-1.687.562-2.039 1.34v-1.13h-2.394v7.462h2.465v-3.801c0-.633.422-1.688 1.757-1.688.141 0 .352 0 .563.07zM177.508 86.984c0-.773-.633-1.336-1.406-1.336-.844 0-1.407.633-1.407 1.336 0 .704.563 1.336 1.407 1.336.773 0 1.406-.562 1.406-1.336zm-.211 9.782v-7.461h-2.461v7.46zM178.914 90.223h1.828l1.406-4.012h-2.18zM31.719 107.465c0-2.465-1.828-3.309-4.078-3.309H23.77v10.555h2.53v-3.941h1.27c2.18 0 4.149-.915 4.149-3.305zm-2.532 0c0 .984-.843 1.265-1.828 1.265h-1.058v-2.464h1.129c.914 0 1.758.14 1.758 1.199zM37.414 107.18c-.14-.07-.352-.07-.562-.07-.844 0-1.618.566-1.97 1.269h-.07v-1.055h-2.32v7.387h2.461v-3.8c0-.634.422-1.688 1.688-1.688.21 0 .422 0 .632.07zM45.996 110.98c0-2.39-1.902-3.94-4.152-3.94s-4.078 1.55-4.078 3.94c0 2.465 1.828 4.012 4.078 4.012s4.152-1.547 4.152-4.012zm-2.394 0c0 .989-.563 1.903-1.758 1.903-1.125 0-1.758-.914-1.758-1.903 0-.914.633-1.898 1.758-1.898s1.758.984 1.758 1.898zM52.324 103.313a6.193 6.193 0 0 0-1.195-.141c-2.461 0-3.164 1.617-3.164 3.445v.707h-1.406v1.828h1.406v5.559h2.39v-5.559h1.688v-1.828h-1.688v-.777c0-.633.211-1.406 1.125-1.406.211 0 .493.07.633.14zM54.926 110.207c.07-.773.703-1.477 1.687-1.477.914 0 1.407.704 1.407 1.477zm5.344.914c0-2.531-1.477-4.082-3.727-4.082-2.18 0-3.938 1.55-3.938 4.012 0 2.535 1.829 3.941 4.079 3.941 1.476 0 2.601-.562 3.304-1.617l-1.687-1.055c-.281.422-.844.774-1.617.774-.914 0-1.688-.563-1.758-1.41h5.344v-.563zM67.516 108.098c-.704-.633-1.899-1.059-2.954-1.059-1.406 0-3.097.777-3.097 2.535 0 1.406 1.125 1.899 2.183 2.184.985.21 1.477.351 1.477.844 0 .421-.492.632-.914.632-.703 0-1.41-.351-1.832-.843l-1.336 1.406c.773.773 2.043 1.195 3.238 1.195 1.477 0 3.164-.703 3.164-2.531 0-1.48-1.265-2.043-2.39-2.254-.914-.21-1.336-.352-1.336-.773 0-.422.422-.633.914-.633.562 0 1.125.351 1.547.703zM71.523 104.93c0-.703-.632-1.336-1.406-1.336-.844 0-1.406.633-1.406 1.336 0 .773.562 1.336 1.406 1.336.774 0 1.406-.563 1.406-1.336zm-.21 9.78v-7.386h-2.461v7.387zM81.09 110.98c0-2.39-1.832-3.94-4.082-3.94s-4.149 1.55-4.149 3.94c0 2.465 1.899 4.012 4.149 4.012s4.082-1.547 4.082-4.012zm-2.324 0c0 .989-.633 1.903-1.758 1.903s-1.758-.914-1.758-1.903c0-.914.563-1.898 1.758-1.898 1.125 0 1.758.984 1.758 1.898zM89.95 114.71v-4.573c0-1.477-.704-3.028-2.673-3.028-1.054 0-1.898.567-2.25 1.2v-.985h-2.39v7.387h2.46v-4.012c0-.844.493-1.617 1.337-1.617.843 0 1.125.773 1.125 1.617v4.012zM96.207 111.758c0 .914-.562 1.547-1.547 1.547-.492 0-1.055-.211-1.055-.774 0-.918 1.196-1.058 2.25-1.058h.352zm-3.234-2.113c.422-.422 1.125-.774 1.828-.774.773 0 1.336.352 1.336 1.125v.07c-2.18 0-4.782.352-4.782 2.536 0 1.757 1.547 2.32 2.672 2.32.914 0 1.758-.352 2.11-.985h.07v.774h2.25v-3.73c0-2.672-.914-3.942-3.445-3.942-1.196 0-2.461.496-3.305 1.27zM100.29 103.453v11.258h2.46v-11.258zM107.46 113.445c0-.843-.702-1.476-1.476-1.476-.843 0-1.547.633-1.547 1.476 0 .844.704 1.407 1.547 1.407.774 0 1.477-.633 1.477-1.407zm0 0"/></svg>