<?xml version="1.0" encoding="UTF-8" standalone="no"?>
<svg
   xmlns:dc="http://purl.org/dc/elements/1.1/"
   xmlns:cc="http://creativecommons.org/ns#"
   xmlns:rdf="http://www.w3.org/1999/02/22-rdf-syntax-ns#"
   xmlns:svg="http://www.w3.org/2000/svg"
   xmlns="http://www.w3.org/2000/svg"
   xmlns:sodipodi="http://sodipodi.sourceforge.net/DTD/sodipodi-0.dtd"
   xmlns:inkscape="http://www.inkscape.org/namespaces/inkscape"
   width="380pt"
   height="141.65234pt"
   viewBox="0 0 391 142.65234"
   version="1.1"
   id="svg376"
   sodipodi:docname="CardTilawah.svg"
   inkscape:version="1.0.1 (3bc2e813f5, 2020-09-07)">
  <metadata
     id="metadata380">
    <rdf:RDF>
      <cc:Work
         rdf:about="">
        <dc:format>image/svg+xml</dc:format>
        <dc:type
           rdf:resource="http://purl.org/dc/dcmitype/StillImage" />
      </cc:Work>
    </rdf:RDF>
  </metadata>
  <sodipodi:namedview
     pagecolor="#ffffff"
     bordercolor="#666666"
     borderopacity="1"
     objecttolerance="10"
     gridtolerance="10"
     guidetolerance="10"
     inkscape:pageopacity="0"
     inkscape:pageshadow="2"
     inkscape:window-width="1920"
     inkscape:window-height="1001"
     id="namedview378"
     showgrid="false"
     inkscape:zoom="2.3305627"
     inkscape:cx="260.66667"
     inkscape:cy="95.333333"
     inkscape:window-x="-9"
     inkscape:window-y="-9"
     inkscape:window-maximized="1"
     inkscape:current-layer="svg376" />
  <defs
     id="defs121">
    <clipPath
       id="clip1">
      <path
         d="M 0,0 H 391 V 142 H 0 Z m 0,0"
         id="path2" />
    </clipPath>
    <clipPath
       id="clip2">
      <path
         d="M 20.816406,0 H 370.69922 c 11.46094,0 20.8164,9.359375 20.8164,20.832031 V 122.73438 c -130.38671,25.61718 -260.84765,25.19531 -391.23437,0 H 0 V 20.832031 C 0,9.359375 9.355469,0 20.816406,0 Z m 0,0"
         id="path5" />
    </clipPath>
    <clipPath
       id="clip3">
      <path
         d="m 379.34766,125.05859 c -0.84375,0.14063 -1.6875,0.28125 -2.53125,0.42188 -1.19532,0.28125 -2.39063,0.49219 -3.58594,0.70312 l -1.40625,0.21094 c -1.61719,0.28125 -3.16406,0.5625 -4.78516,0.84375 l -0.35156,0.0703 c -1.89844,0.28125 -3.79688,0.63282 -5.69531,0.91407 -1.05469,0.21093 -2.10938,0.35156 -3.16407,0.5625 -0.98437,0.14062 -1.96875,0.28125 -2.95312,0.49609 l -1.05469,0.14062 c -9.84765,1.54688 -19.6914,2.95313 -29.53906,4.22266 h -0.0703 c -6.11719,0.77344 -12.16797,1.47656 -18.28516,2.17969 l -1.6875,0.21094 c -1.47656,0.14062 -2.88281,0.28125 -4.35937,0.42187 l -1.6875,0.14063 c -9.63672,0.98437 -19.26954,1.83203 -28.90625,2.53515 l -0.91407,0.0703 c -5.83593,0.42188 -11.60547,0.77344 -17.4414,1.125 -0.84375,0 -1.6875,0.0703 -2.53125,0.14063 -1.19532,0.0703 -2.39063,0.0703 -3.58594,0.14062 -0.70313,0.0703 -1.40625,0.0703 -2.17969,0.14063 -1.26953,0 -2.60547,0.0703 -3.9414,0.14062 l -1.47657,0.0703 c -1.54687,0.0703 -3.09375,0.14062 -4.64062,0.21093 h -0.21094 c -9.84766,0.35157 -19.69141,0.5625 -29.53906,0.5625 -1.82813,0.0703 -3.65625,0.0703 -5.48438,0.0703 h -1.40625 c -0.77343,0 -1.54687,0 -2.32031,0 -3.30469,-0.0703 -6.61328,-0.0703 -9.84766,-0.14063 -1.05468,0 -2.10937,0 -3.16406,0 -0.98437,0 -2.03906,-0.0703 -3.02344,-0.0703 h -0.14062 c -3.09375,-0.0703 -6.1875,-0.14063 -9.28516,-0.21094 -2.60156,-0.0703 -5.20312,-0.14062 -7.875,-0.28125 h -0.98437 l -1.61719,-0.0703 c -3.58594,-0.14063 -7.10547,-0.28125 -10.69141,-0.49219 h -0.84375 c -1.75781,-0.14062 -3.44531,-0.21094 -5.20312,-0.28125 l -1.40625,-0.0703 c -4.35938,-0.28125 -8.79297,-0.5625 -13.22266,-0.84375 -4.92187,-0.35156 -9.91796,-0.77344 -14.83984,-1.19531 l -1.125,-0.0703 c -0.77344,-0.0703 -1.54687,-0.14453 -2.39062,-0.21484 -1.19532,-0.14062 -2.46094,-0.21094 -3.72657,-0.35156 -0.77343,-0.0703 -1.54687,-0.14063 -2.25,-0.21094 -1.26562,-0.0703 -2.60156,-0.21094 -3.871091,-0.35156 -0.84375,-0.0703 -1.6875,-0.14063 -2.53125,-0.28125 -1.195313,-0.0703 -2.390625,-0.21094 -3.585938,-0.35156 l -1.617187,-0.14063 C 78.625,134.91016 66.953125,133.5 55.207031,131.88281 49.371094,131.03906 43.460938,130.19531 37.625,129.28125 l -0.632812,-0.14453 -0.632813,-0.0703 c -3.234375,-0.49219 -6.398437,-1.05469 -9.636719,-1.54688 -1.335937,-0.28125 -2.742187,-0.49219 -4.078125,-0.70312 -2.601562,-0.49219 -5.203125,-0.91407 -7.734375,-1.40625 -1.617187,-0.28125 -3.164062,-0.5625 -4.78125,-0.84766 -3.308594,-0.63281 -6.542968,-1.19531 -9.847656,-1.82812 H 0 V 20.832031 C 0,9.359375 9.355469,0 20.816406,0 H 370.69922 c 11.46094,0 20.8164,9.359375 20.8164,20.832031 V 122.73438 c -4.07812,0.77343 -8.08984,1.54687 -12.16796,2.32421 z m -185.73438,16.7461 c -3.30469,-0.0703 -6.61328,-0.0703 -9.84766,-0.14063"
         id="path8" />
    </clipPath>
    <clipPath
       id="clip4">
      <path
         d="m 379.34766,125.05859 c -0.84375,0.14063 -1.6875,0.28125 -2.53125,0.42188 -1.19532,0.28125 -2.39063,0.49219 -3.58594,0.70312 l -1.40625,0.21094 c -1.61719,0.28125 -3.16406,0.5625 -4.78516,0.84375 l -0.35156,0.0703 c -1.89844,0.28125 -3.79688,0.63282 -5.69531,0.91407 -1.05469,0.21093 -2.10938,0.35156 -3.16407,0.5625 -0.98437,0.14062 -1.96875,0.28125 -2.95312,0.49609 l -1.05469,0.14062 c -9.84765,1.54688 -19.6914,2.95313 -29.53906,4.22266 h -0.0703 c -6.11719,0.77344 -12.16797,1.47656 -18.28516,2.17969 l -1.6875,0.21094 c -1.47656,0.14062 -2.88281,0.28125 -4.35937,0.42187 l -1.6875,0.14063 c -9.63672,0.98437 -19.26954,1.83203 -28.90625,2.53515 l -0.91407,0.0703 c -5.83593,0.42188 -11.60547,0.77344 -17.4414,1.125 -0.84375,0 -1.6875,0.0703 -2.53125,0.14063 -1.19532,0.0703 -2.39063,0.0703 -3.58594,0.14062 -0.70313,0.0703 -1.40625,0.0703 -2.17969,0.14063 -1.26953,0 -2.60547,0.0703 -3.9414,0.14062 l -1.47657,0.0703 c -1.54687,0.0703 -3.09375,0.14062 -4.64062,0.21093 h -0.21094 c -9.84766,0.35157 -19.69141,0.5625 -29.53906,0.5625 -1.82813,0.0703 -3.65625,0.0703 -5.48438,0.0703 h -1.40625 c -0.77343,0 -1.54687,0 -2.32031,0 -3.30469,-0.0703 -6.61328,-0.0703 -9.84766,-0.14063 -1.05468,0 -2.10937,0 -3.16406,0 -0.98437,0 -2.03906,-0.0703 -3.02344,-0.0703 h -0.14062 c -3.09375,-0.0703 -6.1875,-0.14063 -9.28516,-0.21094 -2.60156,-0.0703 -5.20312,-0.14062 -7.875,-0.28125 h -0.98437 l -1.61719,-0.0703 c -3.58594,-0.14063 -7.10547,-0.28125 -10.69141,-0.49219 h -0.84375 c -1.75781,-0.14062 -3.44531,-0.21094 -5.20312,-0.28125 l -1.40625,-0.0703 c -4.35938,-0.28125 -8.79297,-0.5625 -13.22266,-0.84375 -4.92187,-0.35156 -9.91796,-0.77344 -14.83984,-1.19531 l -1.125,-0.0703 c -0.77344,-0.0703 -1.54687,-0.14453 -2.39062,-0.21484 -1.19532,-0.14062 -2.46094,-0.21094 -3.72657,-0.35156 -0.77343,-0.0703 -1.54687,-0.14063 -2.25,-0.21094 -1.26562,-0.0703 -2.60156,-0.21094 -3.871091,-0.35156 -0.84375,-0.0703 -1.6875,-0.14063 -2.53125,-0.28125 -1.195313,-0.0703 -2.390625,-0.21094 -3.585938,-0.35156 l -1.617187,-0.14063 C 78.625,134.91016 66.953125,133.5 55.207031,131.88281 49.371094,131.03906 43.460938,130.19531 37.625,129.28125 l -0.632812,-0.14453 -0.632813,-0.0703 c -3.234375,-0.49219 -6.398437,-1.05469 -9.636719,-1.54688 -1.335937,-0.28125 -2.742187,-0.49219 -4.078125,-0.70312 -2.601562,-0.49219 -5.203125,-0.91407 -7.734375,-1.40625 -1.617187,-0.28125 -3.164062,-0.5625 -4.78125,-0.84766 -3.308594,-0.63281 -6.542968,-1.19531 -9.847656,-1.82812 H 0 V 20.832031 C 0,9.359375 9.355469,0 20.816406,0 H 370.69922 c 11.46094,0 20.8164,9.359375 20.8164,20.832031 V 122.73438 c -4.07812,0.77343 -8.08984,1.54687 -12.16796,2.32421 z m -185.73438,16.7461 c -3.30469,-0.0703 -6.61328,-0.0703 -9.84766,-0.14063"
         id="path11" />
    </clipPath>
    <clipPath
       id="clip5">
      <path
         d="M 0,0 H 103 V 66 H 0 Z m 0,0"
         id="path14" />
    </clipPath>
    <clipPath
       id="clip6">
      <path
         d="M 20.816406,0 H 370.69922 c 11.46094,0 20.8164,9.359375 20.8164,20.832031 V 122.73438 c -130.38671,25.61718 -260.84765,25.19531 -391.23437,0 H 0 V 20.832031 C 0,9.359375 9.355469,0 20.816406,0 Z m 0,0"
         id="path17" />
    </clipPath>
    <clipPath
       id="clip7">
      <path
         d="m 379.34766,125.05859 c -0.84375,0.14063 -1.6875,0.28125 -2.53125,0.42188 -1.19532,0.28125 -2.39063,0.49219 -3.58594,0.70312 l -1.40625,0.21094 c -1.61719,0.28125 -3.16406,0.5625 -4.78516,0.84375 l -0.35156,0.0703 c -1.89844,0.28125 -3.79688,0.63282 -5.69531,0.91407 -1.05469,0.21093 -2.10938,0.35156 -3.16407,0.5625 -0.98437,0.14062 -1.96875,0.28125 -2.95312,0.49609 l -1.05469,0.14062 c -9.84765,1.54688 -19.6914,2.95313 -29.53906,4.22266 h -0.0703 c -6.11719,0.77344 -12.16797,1.47656 -18.28516,2.17969 l -1.6875,0.21094 c -1.47656,0.14062 -2.88281,0.28125 -4.35937,0.42187 l -1.6875,0.14063 c -9.63672,0.98437 -19.26954,1.83203 -28.90625,2.53515 l -0.91407,0.0703 c -5.83593,0.42188 -11.60547,0.77344 -17.4414,1.125 -0.84375,0 -1.6875,0.0703 -2.53125,0.14063 -1.19532,0.0703 -2.39063,0.0703 -3.58594,0.14062 -0.70313,0.0703 -1.40625,0.0703 -2.17969,0.14063 -1.26953,0 -2.60547,0.0703 -3.9414,0.14062 l -1.47657,0.0703 c -1.54687,0.0703 -3.09375,0.14062 -4.64062,0.21093 h -0.21094 c -9.84766,0.35157 -19.69141,0.5625 -29.53906,0.5625 -1.82813,0.0703 -3.65625,0.0703 -5.48438,0.0703 h -1.40625 c -0.77343,0 -1.54687,0 -2.32031,0 -3.30469,-0.0703 -6.61328,-0.0703 -9.84766,-0.14063 -1.05468,0 -2.10937,0 -3.16406,0 -0.98437,0 -2.03906,-0.0703 -3.02344,-0.0703 h -0.14062 c -3.09375,-0.0703 -6.1875,-0.14063 -9.28516,-0.21094 -2.60156,-0.0703 -5.20312,-0.14062 -7.875,-0.28125 h -0.98437 l -1.61719,-0.0703 c -3.58594,-0.14063 -7.10547,-0.28125 -10.69141,-0.49219 h -0.84375 c -1.75781,-0.14062 -3.44531,-0.21094 -5.20312,-0.28125 l -1.40625,-0.0703 c -4.35938,-0.28125 -8.79297,-0.5625 -13.22266,-0.84375 -4.92187,-0.35156 -9.91796,-0.77344 -14.83984,-1.19531 l -1.125,-0.0703 c -0.77344,-0.0703 -1.54687,-0.14453 -2.39062,-0.21484 -1.19532,-0.14062 -2.46094,-0.21094 -3.72657,-0.35156 -0.77343,-0.0703 -1.54687,-0.14063 -2.25,-0.21094 -1.26562,-0.0703 -2.60156,-0.21094 -3.871091,-0.35156 -0.84375,-0.0703 -1.6875,-0.14063 -2.53125,-0.28125 -1.195313,-0.0703 -2.390625,-0.21094 -3.585938,-0.35156 l -1.617187,-0.14063 C 78.625,134.91016 66.953125,133.5 55.207031,131.88281 49.371094,131.03906 43.460938,130.19531 37.625,129.28125 l -0.632812,-0.14453 -0.632813,-0.0703 c -3.234375,-0.49219 -6.398437,-1.05469 -9.636719,-1.54688 -1.335937,-0.28125 -2.742187,-0.49219 -4.078125,-0.70312 -2.601562,-0.49219 -5.203125,-0.91407 -7.734375,-1.40625 -1.617187,-0.28125 -3.164062,-0.5625 -4.78125,-0.84766 -3.308594,-0.63281 -6.542968,-1.19531 -9.847656,-1.82812 H 0 V 20.832031 C 0,9.359375 9.355469,0 20.816406,0 H 370.69922 c 11.46094,0 20.8164,9.359375 20.8164,20.832031 V 122.73438 c -4.07812,0.77343 -8.08984,1.54687 -12.16796,2.32421 z m -185.73438,16.7461 c -3.30469,-0.0703 -6.61328,-0.0703 -9.84766,-0.14063"
         id="path20" />
    </clipPath>
    <clipPath
       id="clip8">
      <path
         d="m 379.34766,125.05859 c -0.84375,0.14063 -1.6875,0.28125 -2.53125,0.42188 -1.19532,0.28125 -2.39063,0.49219 -3.58594,0.70312 l -1.40625,0.21094 c -1.61719,0.28125 -3.16406,0.5625 -4.78516,0.84375 l -0.35156,0.0703 c -1.89844,0.28125 -3.79688,0.63282 -5.69531,0.91407 -1.05469,0.21093 -2.10938,0.35156 -3.16407,0.5625 -0.98437,0.14062 -1.96875,0.28125 -2.95312,0.49609 l -1.05469,0.14062 c -9.84765,1.54688 -19.6914,2.95313 -29.53906,4.22266 h -0.0703 c -6.11719,0.77344 -12.16797,1.47656 -18.28516,2.17969 l -1.6875,0.21094 c -1.47656,0.14062 -2.88281,0.28125 -4.35937,0.42187 l -1.6875,0.14063 c -9.63672,0.98437 -19.26954,1.83203 -28.90625,2.53515 l -0.91407,0.0703 c -5.83593,0.42188 -11.60547,0.77344 -17.4414,1.125 -0.84375,0 -1.6875,0.0703 -2.53125,0.14063 -1.19532,0.0703 -2.39063,0.0703 -3.58594,0.14062 -0.70313,0.0703 -1.40625,0.0703 -2.17969,0.14063 -1.26953,0 -2.60547,0.0703 -3.9414,0.14062 l -1.47657,0.0703 c -1.54687,0.0703 -3.09375,0.14062 -4.64062,0.21093 h -0.21094 c -9.84766,0.35157 -19.69141,0.5625 -29.53906,0.5625 -1.82813,0.0703 -3.65625,0.0703 -5.48438,0.0703 h -1.40625 c -0.77343,0 -1.54687,0 -2.32031,0 -3.30469,-0.0703 -6.61328,-0.0703 -9.84766,-0.14063 -1.05468,0 -2.10937,0 -3.16406,0 -0.98437,0 -2.03906,-0.0703 -3.02344,-0.0703 h -0.14062 c -3.09375,-0.0703 -6.1875,-0.14063 -9.28516,-0.21094 -2.60156,-0.0703 -5.20312,-0.14062 -7.875,-0.28125 h -0.98437 l -1.61719,-0.0703 c -3.58594,-0.14063 -7.10547,-0.28125 -10.69141,-0.49219 h -0.84375 c -1.75781,-0.14062 -3.44531,-0.21094 -5.20312,-0.28125 l -1.40625,-0.0703 c -4.35938,-0.28125 -8.79297,-0.5625 -13.22266,-0.84375 -4.92187,-0.35156 -9.91796,-0.77344 -14.83984,-1.19531 l -1.125,-0.0703 c -0.77344,-0.0703 -1.54687,-0.14453 -2.39062,-0.21484 -1.19532,-0.14062 -2.46094,-0.21094 -3.72657,-0.35156 -0.77343,-0.0703 -1.54687,-0.14063 -2.25,-0.21094 -1.26562,-0.0703 -2.60156,-0.21094 -3.871091,-0.35156 -0.84375,-0.0703 -1.6875,-0.14063 -2.53125,-0.28125 -1.195313,-0.0703 -2.390625,-0.21094 -3.585938,-0.35156 l -1.617187,-0.14063 C 78.625,134.91016 66.953125,133.5 55.207031,131.88281 49.371094,131.03906 43.460938,130.19531 37.625,129.28125 l -0.632812,-0.14453 -0.632813,-0.0703 c -3.234375,-0.49219 -6.398437,-1.05469 -9.636719,-1.54688 -1.335937,-0.28125 -2.742187,-0.49219 -4.078125,-0.70312 -2.601562,-0.49219 -5.203125,-0.91407 -7.734375,-1.40625 -1.617187,-0.28125 -3.164062,-0.5625 -4.78125,-0.84766 -3.308594,-0.63281 -6.542968,-1.19531 -9.847656,-1.82812 H 0 V 20.832031 C 0,9.359375 9.355469,0 20.816406,0 H 370.69922 c 11.46094,0 20.8164,9.359375 20.8164,20.832031 V 122.73438 c -4.07812,0.77343 -8.08984,1.54687 -12.16796,2.32421 z m -185.73438,16.7461 c -3.30469,-0.0703 -6.61328,-0.0703 -9.84766,-0.14063"
         id="path23" />
    </clipPath>
    <clipPath
       id="clip9">
      <path
         d="m 211,40 h 17 v 17 h -17 z m 0,0"
         id="path26" />
    </clipPath>
    <clipPath
       id="clip10">
      <path
         d="M 20.816406,0 H 370.69922 c 11.46094,0 20.8164,9.359375 20.8164,20.832031 V 122.73438 c -130.38671,25.61718 -260.84765,25.19531 -391.23437,0 H 0 V 20.832031 C 0,9.359375 9.355469,0 20.816406,0 Z m 0,0"
         id="path29" />
    </clipPath>
    <clipPath
       id="clip11">
      <path
         d="M 20.816406,0 H 370.69922 c 11.46094,0 20.8164,9.359375 20.8164,20.832031 V 122.73438 c -130.38671,25.61718 -260.84765,25.19531 -391.23437,0 H 0 V 20.832031 C 0,9.359375 9.355469,0 20.816406,0 Z m 0,0"
         id="path32" />
    </clipPath>
    <clipPath
       id="clip12">
      <path
         d="m 359,47 h 6 v 6 h -6 z m 0,0"
         id="path35" />
    </clipPath>
    <clipPath
       id="clip13">
      <path
         d="M 20.816406,0 H 370.69922 c 11.46094,0 20.8164,9.359375 20.8164,20.832031 V 122.73438 c -130.38671,25.61718 -260.84765,25.19531 -391.23437,0 H 0 V 20.832031 C 0,9.359375 9.355469,0 20.816406,0 Z m 0,0"
         id="path38" />
    </clipPath>
    <clipPath
       id="clip14">
      <path
         d="M 20.816406,0 H 370.69922 c 11.46094,0 20.8164,9.359375 20.8164,20.832031 V 122.73438 c -130.38671,25.61718 -260.84765,25.19531 -391.23437,0 H 0 V 20.832031 C 0,9.359375 9.355469,0 20.816406,0 Z m 0,0"
         id="path41" />
    </clipPath>
    <clipPath
       id="clip15">
      <path
         d="m 184,112 h 9 v 9 h -9 z m 0,0"
         id="path44" />
    </clipPath>
    <clipPath
       id="clip16">
      <path
         d="M 20.816406,0 H 370.69922 c 11.46094,0 20.8164,9.359375 20.8164,20.832031 V 122.73438 c -130.38671,25.61718 -260.84765,25.19531 -391.23437,0 H 0 V 20.832031 C 0,9.359375 9.355469,0 20.816406,0 Z m 0,0"
         id="path47" />
    </clipPath>
    <clipPath
       id="clip17">
      <path
         d="M 20.816406,0 H 370.69922 c 11.46094,0 20.8164,9.359375 20.8164,20.832031 V 122.73438 c -130.38671,25.61718 -260.84765,25.19531 -391.23437,0 H 0 V 20.832031 C 0,9.359375 9.355469,0 20.816406,0 Z m 0,0"
         id="path50" />
    </clipPath>
    <linearGradient
       id="linear0"
       gradientUnits="userSpaceOnUse"
       x1="10182.5"
       y1="7805.0298"
       x2="10180.6"
       y2="7582.3599"
       gradientTransform="matrix(0.0703278,0,0,0.0703753,-421.89643,-487.77092)">
      <stop
         offset="0"
         style="stop-color:rgb(97.647059%,71.764706%,46.27451%);stop-opacity:1;"
         id="stop53" />
      <stop
         offset="1"
         style="stop-color:rgb(95.686275%,47.45098%,37.647059%);stop-opacity:1;"
         id="stop55" />
    </linearGradient>
    <clipPath
       id="clip18">
      <path
         d="m 272,52 h 51 v 65 h -51 z m 0,0"
         id="path58" />
    </clipPath>
    <clipPath
       id="clip19">
      <path
         d="m 267.03516,72.628906 c 1.75781,-6.195312 4.5,-12.527344 9.21093,-15.835937 1.61719,-1.125 4.22266,-2.183594 7.45703,-3.027344 0.14063,0 0.21094,-0.07031 0.28125,-0.07031 0.21094,-0.07031 0.42188,-0.07031 0.63282,-0.140624 l 4.28906,-0.84375 5.27344,5.066406 5.0664,-4.996094 c 0,0 5.34375,1.054688 5.55469,1.054688 2.17969,0.703124 4.28906,1.691406 6.1875,2.957031 6.96484,4.855469 11.95703,22.308593 11.18359,30.472656 l -9.28515,5.769531 0.49219,10.066404 0.0703,3.58594 -20.46485,10.27734 -17.93359,-9.21875 -0.0703,-3.09765 c -1.40625,-1.05469 -2.60156,-2.32422 -3.58594,-3.58985 l 8.30078,-7.039059 -14.0664,-7.035156 c 0,0 0.5625,-12.386719 1.40625,-14.355469 z m 0,0"
         id="path61" />
    </clipPath>
    <clipPath
       id="clip20">
      <path
         d="m 300,75 h 12 v 20 h -12 z m 0,0"
         id="path64" />
    </clipPath>
    <clipPath
       id="clip21">
      <path
         d="m 267.03516,72.628906 c 1.75781,-6.195312 4.5,-12.527344 9.21093,-15.835937 1.61719,-1.125 4.22266,-2.183594 7.45703,-3.027344 0.14063,0 0.21094,-0.07031 0.28125,-0.07031 0.21094,-0.07031 0.42188,-0.07031 0.63282,-0.140624 l 4.28906,-0.84375 5.27344,5.066406 5.0664,-4.996094 c 0,0 5.34375,1.054688 5.55469,1.054688 2.17969,0.703124 4.28906,1.691406 6.1875,2.957031 6.96484,4.855469 11.95703,22.308593 11.18359,30.472656 l -9.28515,5.769531 0.49219,10.066404 0.0703,3.58594 -20.46485,10.27734 -17.93359,-9.21875 -0.0703,-3.09765 c -1.40625,-1.05469 -2.60156,-2.32422 -3.58594,-3.58985 l 8.30078,-7.039059 -14.0664,-7.035156 c 0,0 0.5625,-12.386719 1.40625,-14.355469 z m 0,0"
         id="path67" />
    </clipPath>
    <clipPath
       id="clip22">
      <path
         d="m 273,71 h 14 v 23 h -14 z m 0,0"
         id="path70" />
    </clipPath>
    <clipPath
       id="clip23">
      <path
         d="m 267.03516,72.628906 c 1.75781,-6.195312 4.5,-12.527344 9.21093,-15.835937 1.61719,-1.125 4.22266,-2.183594 7.45703,-3.027344 0.14063,0 0.21094,-0.07031 0.28125,-0.07031 0.21094,-0.07031 0.42188,-0.07031 0.63282,-0.140624 l 4.28906,-0.84375 5.27344,5.066406 5.0664,-4.996094 c 0,0 5.34375,1.054688 5.55469,1.054688 2.17969,0.703124 4.28906,1.691406 6.1875,2.957031 6.96484,4.855469 11.95703,22.308593 11.18359,30.472656 l -9.28515,5.769531 0.49219,10.066404 0.0703,3.58594 -20.46485,10.27734 -17.93359,-9.21875 -0.0703,-3.09765 c -1.40625,-1.05469 -2.60156,-2.32422 -3.58594,-3.58985 l 8.30078,-7.039059 -14.0664,-7.035156 c 0,0 0.5625,-12.386719 1.40625,-14.355469 z m 0,0"
         id="path73" />
    </clipPath>
    <linearGradient
       id="linear1"
       gradientUnits="userSpaceOnUse"
       x1="9917.6201"
       y1="8637.3896"
       x2="9629.0098"
       y2="8637.3896"
       gradientTransform="matrix(0.0703278,0,0,0.0703753,-421.89643,-487.77092)">
      <stop
         offset="0"
         style="stop-color:rgb(97.647059%,71.764706%,46.27451%);stop-opacity:1;"
         id="stop76" />
      <stop
         offset="1"
         style="stop-color:rgb(95.686275%,47.45098%,37.647059%);stop-opacity:1;"
         id="stop78" />
    </linearGradient>
    <linearGradient
       id="linear2"
       gradientUnits="userSpaceOnUse"
       x1="10778.9"
       y1="8632.75"
       x2="10491.1"
       y2="8632.75"
       gradientTransform="matrix(0.0703278,0,0,0.0703753,-421.89643,-487.77092)">
      <stop
         offset="0"
         style="stop-color:rgb(97.647059%,71.764706%,46.27451%);stop-opacity:1;"
         id="stop81" />
      <stop
         offset="1"
         style="stop-color:rgb(95.686275%,47.45098%,37.647059%);stop-opacity:1;"
         id="stop83" />
    </linearGradient>
    <clipPath
       id="clip24">
      <path
         d="m 267,94 h 51 v 30 h -51 z m 0,0"
         id="path86" />
    </clipPath>
    <clipPath
       id="clip25">
      <path
         d="m 255.85156,98.597656 c 2.03906,-4.71875 7.03516,-5.492187 11.32422,-3.308594 0.0703,0.140626 26.93359,13.863278 50.63672,19.914068 -0.63281,2.18359 -0.98438,4.5039 -1.05469,6.82812 -0.0703,0.49219 0,0.98438 0,1.47656 -18.21484,-0.91406 -37.90625,-7.03515 -54.85547,-12.3164 -5.27734,-1.6875 -8.30078,-7.45703 -6.05078,-12.593754 z m 0,0"
         id="path89" />
    </clipPath>
    <clipPath
       id="clip26">
      <path
         d="m 260,94 h 67 v 32 h -67 z m 0,0"
         id="path92" />
    </clipPath>
    <clipPath
       id="clip27">
      <path
         d="m 323.92969,94.445312 -30.3125,15.269528 -30.37891,-15.269528 -2.74219,9.640628 1.61719,6.40234 31.29297,15.48438 c 0,0 28.90625,-14.5 29.25781,-13.65235 0.35156,0.84375 2.95313,-2.18359 2.95313,-2.18359 0,0 -0.35157,-12.316408 0.35156,-12.316408 0.77344,0 -2.03906,-3.375 -2.03906,-3.375 z m 0,0"
         id="path95" />
    </clipPath>
    <clipPath
       id="clip28">
      <path
         d="m 260,94 h 34 v 31 h -34 z m 0,0"
         id="path98" />
    </clipPath>
    <clipPath
       id="clip29">
      <path
         d="m 323.92969,94.445312 -30.3125,15.269528 -30.37891,-15.269528 -2.74219,9.640628 1.61719,6.40234 31.29297,15.48438 c 0,0 28.90625,-14.5 29.25781,-13.65235 0.35156,0.84375 2.95313,-2.18359 2.95313,-2.18359 0,0 -0.35157,-12.316408 0.35156,-12.316408 0.77344,0 -2.03906,-3.375 -2.03906,-3.375 z m 0,0"
         id="path101" />
    </clipPath>
    <clipPath
       id="clip30">
      <path
         d="m 268,87 h 51 v 30 h -51 z m 0,0"
         id="path104" />
    </clipPath>
    <clipPath
       id="clip31">
      <path
         d="m 318.09375,90.292969 -2.60156,-2.535157 c -7.38672,0.773438 -14.69922,4.925782 -22.08594,13.019528 -7.3125,-8.093746 -14.69531,-12.316402 -22.08203,-13.019528 l -3.30469,3.167969 1.6875,13.652349 24.05078,11.68359 23.77344,-14.28906 z m 0,0"
         id="path107" />
    </clipPath>
    <linearGradient
       id="linear3"
       gradientUnits="userSpaceOnUse"
       x1="10165.9"
       y1="8583.0996"
       x2="10165.9"
       y2="8177.6401"
       gradientTransform="matrix(0.0703278,0,0,0.0703753,-421.89643,-487.77092)">
      <stop
         offset="0"
         style="stop-color:rgb(100%,97.647059%,87.843137%);stop-opacity:1;"
         id="stop110" />
      <stop
         offset="1"
         style="stop-color:rgb(96.078431%,88.235294%,57.647059%);stop-opacity:1;"
         id="stop112" />
    </linearGradient>
    <clipPath
       id="clip32">
      <path
         d="m 268,87 h 26 v 30 h -26 z m 0,0"
         id="path115" />
    </clipPath>
    <clipPath
       id="clip33">
      <path
         d="m 318.09375,90.292969 -2.60156,-2.535157 c -7.38672,0.773438 -14.69922,4.925782 -22.08594,13.019528 -7.3125,-8.093746 -14.69531,-12.316402 -22.08203,-13.019528 l -3.30469,3.167969 1.6875,13.652349 24.05078,11.68359 23.77344,-14.28906 z m 0,0"
         id="path118" />
    </clipPath>
  </defs>
  <g
     id="surface1">
    <g
       clip-path="url(#clip1)"
       clip-rule="nonzero"
       id="g133">
      <g
         clip-path="url(#clip2)"
         clip-rule="evenodd"
         id="g131">
        <path
           style="fill:#19ba9c;fill-opacity:1;fill-rule:evenodd;stroke:none"
           d="M -19.761719,-66.714844 H 427.45312 V 122.73438 h -35.79687 c -130.45703,25.61718 -260.91797,25.19531 -391.375,0 h -20.042969 z m 0,0"
           id="path123" />
        <g
           clip-path="url(#clip3)"
           clip-rule="evenodd"
           id="g129">
          <g
             clip-path="url(#clip4)"
             clip-rule="evenodd"
             id="g127">
            <path
               style="fill:#1c003a;fill-opacity:0.2;fill-rule:nonzero;stroke:none"
               d="m 252.33594,152.85547 h 127.36328 v -5.34766 c 29.82031,-2.95703 48.80859,-7.17969 48.17578,-13.30078 -0.5625,-6.125 -14.98047,-18.51172 -34.67188,-19.28515 1.19532,-0.98438 -3.02343,-3.58985 -10.97265,-6.6836 v -3.73047 h -1.19531 c 0.70312,-1.33593 1.40625,-3.16797 1.89843,-5.347654 0,-0.07031 0,-0.07031 0,-0.07031 0,0 0,0 0.0703,-0.07031 0,0 0,-0.07031 0,-0.07031 0.63281,-3.097657 0.70312,-6.898438 -0.70313,-11.121094 0,0 0,-0.07031 -0.0703,-0.07031 0,0 0,-0.07031 0,-0.07031 0,0 0,0 0,-0.07031 0,0 0,-0.07031 0,-0.07031 0,0 0,0 -0.0703,0 0,-0.07031 0,-0.07031 0,-0.07031 0,0 0,-0.07031 0,-0.07031 0,0 -0.0703,0 -0.0703,-0.07031 0,-0.07031 0,-0.07031 0,-0.07031 0,0 0,0 0,-0.07031 0,0 -0.0703,0 -0.0703,0 0,0 0,-0.07031 0,-0.07031 0,-0.07031 0,-0.07031 0,-0.07031 0,0 0,0 0,-0.07031 0,0 0,0 -0.0703,0 0,0 0,-0.07031 0,-0.07031 0,-0.07031 0,-0.07031 0,-0.07031 0,0 0,0 -0.0703,0 0,-0.07031 0,-0.07031 0,-0.07031 0,0 0,-0.07031 0,-0.07031 0,0 0,-0.07031 0,-0.07031 0,0 0,0 -0.0703,0 0,-0.07031 0,-0.07031 0,-0.07031 0,0 0,0 0,-0.07031 -0.0703,-0.07031 -0.0703,-0.140626 -0.14062,-0.210938 0,0 0,0 0,-0.07031 -0.21094,-0.5625 -0.49219,-1.128907 -0.77344,-1.691407 0,0 -0.0703,-0.07031 -0.0703,-0.07031 0,0 0,0 0,-0.07031 -0.0703,-0.07031 -0.0703,-0.07031 -0.0703,-0.07031 0,-0.07031 0,-0.07031 -0.0703,-0.140625 0,0 0,0 0,-0.07031 0,0 0,0 -0.0703,0 0,-0.07031 0,-0.07031 0,-0.07031 0,0 0,0 0,-0.07031 0,0 -0.0703,0 -0.0703,0 0,0 0,-0.07031 0,-0.07031 0,-0.07031 0,-0.07031 0,-0.07031 0,0 -0.0703,0 -0.0703,0 0,0 0,0 0,-0.07031 -0.28125,-0.492188 -0.49219,-0.914063 -0.77344,-1.335938 -7.03125,-11.683594 -16.66797,-15.554687 -19.48047,-19.707031 -1.33594,-1.898437 -2.10938,-3.515625 -2.53125,-4.714844 0,0 -0.0703,0 -0.0703,0 2.17968,-0.351562 3.79687,-2.109375 3.86718,-4.292969 0,0 0,-0.07031 0,-0.07031 0,0 0,0 0,-0.07031 0,0 0,0 0,-0.07031 0,-2.460937 -2.03906,-4.503906 -4.5,-4.503906 -2.53125,0 -4.57031,2.042969 -4.57031,4.503906 0,0.07031 0,0.07031 0,0.07031 0,0.07031 0,0.07031 0,0.07031 0,0 0,0 0,0.07031 0.0703,2.183594 1.6875,3.941407 3.86719,4.292969 -0.49219,1.199219 -1.26563,2.816407 -2.60156,4.714844 -0.21094,0.421875 -0.5625,0.773437 -0.91407,1.128906 -2.60546,2.742188 -7.8789,5.699219 -13.01171,11.257813 -0.42188,0.703125 -0.77344,1.335937 -1.19532,1.902344 3.44532,-5.140626 10.05469,-18.652344 -0.28125,-34.484376 -13.22265,-20.339843 -32.21093,-26.671874 -37.625,-33.5 -3.23437,-4.152343 -4.78515,-7.460937 -5.48828,-9.429687 3.23828,0.421875 6.47266,-0.703125 8.58203,-2.675781 -2.10937,1.128906 -4.28906,1.480468 -6.60937,0.988281 -2.32422,-0.566406 -4.15235,-1.761719 -5.5586,-3.660156 -2.53125,-3.449219 -2.32031,-8.234375 0.49219,-11.542969 2.88281,-3.238281 7.73828,-4.222656 11.67578,-1.96875 -4.00781,-3.730469 -10.90234,-4.011719 -15.26172,0.632812 -4.28906,4.503907 -3.9375,11.75 0.98438,15.832032 1.47656,1.199218 3.02344,1.902344 4.64062,2.253906 -0.63281,1.898438 -2.17968,5.277344 -5.48437,9.570312 -5.41406,6.828126 -24.40234,13.160157 -37.625,33.5 -9.21484,14.144532 -4.99219,26.390626 -1.47656,32.582032 -5.83594,-6.332032 -11.81641,-9.21875 -13.92578,-12.386719 -1.33594,-1.898437 -2.10938,-3.515625 -2.60157,-4.714844 2.17969,-0.351562 3.86719,-2.179687 3.86719,-4.503906 0,-2.460937 -2.03906,-4.503906 -4.57031,-4.503906 -2.53125,0 -4.57031,2.042969 -4.57031,4.503906 0,2.324219 1.6875,4.152344 3.86718,4.503906 -0.42187,1.199219 -1.19531,2.816407 -2.53125,4.714844 -2.88281,4.292969 -13.08203,8.304687 -20.2539,21.042969 -5.13672,9.148437 -2.46485,17.031248 -0.5625,20.761718 h -1.19532 v 4.50391 h 2.53125 v 8.51562 c -99.09374,37.71875 -139.179682,-16.1875 -208.17187,4.71485 -24.472656,7.46093 -38.117188,16.1875 -9.703125,23.29297 7.242187,1.76171 39.945313,1.90234 50.703125,2.88671 21.453125,1.96875 92.12891,4.22266 167.17187,4.36329 v 0.0703 z m 0,0"
               id="path125" />
          </g>
        </g>
      </g>
    </g>
    <g
       clip-path="url(#clip5)"
       clip-rule="nonzero"
       id="g143">
      <g
         clip-path="url(#clip6)"
         clip-rule="evenodd"
         id="g141">
        <g
           clip-path="url(#clip7)"
           clip-rule="evenodd"
           id="g139">
          <g
             clip-path="url(#clip8)"
             clip-rule="evenodd"
             id="g137">
            <path
               style="fill:#ca2b66;fill-opacity:0.101961;fill-rule:evenodd;stroke:none"
               d="m 102.39844,-15.835938 c 0,67.210938 -40.230471,-6.121093 -75.46094,60.875 C 13.574219,70.375 -36.289062,81.074219 -60.761719,26.109375 -98.667969,-58.902344 59.425781,-120.05859 102.39844,-15.835938 Z m 0,0"
               id="path135" />
          </g>
        </g>
      </g>
    </g>
    <g
       clip-path="url(#clip9)"
       clip-rule="nonzero"
       id="g151">
      <g
         clip-path="url(#clip10)"
         clip-rule="evenodd"
         id="g149">
        <g
           clip-path="url(#clip11)"
           clip-rule="evenodd"
           id="g147">
          <path
             style="fill:#149e85;fill-opacity:1;fill-rule:evenodd;stroke:none"
             d="m 227.65234,40.324219 -6.68359,7.953125 6.68359,8.023437 -8.01953,-6.617187 -8.01562,6.617187 6.67968,-8.023437 -6.67968,-7.953125 8.01562,6.617187 z m 0,0"
             id="path145" />
        </g>
      </g>
    </g>
    <g
       clip-path="url(#clip12)"
       clip-rule="nonzero"
       id="g159">
      <g
         clip-path="url(#clip13)"
         clip-rule="evenodd"
         id="g157">
        <g
           clip-path="url(#clip14)"
           clip-rule="evenodd"
           id="g155">
          <path
             style="fill:#149e85;fill-opacity:1;fill-rule:evenodd;stroke:none"
             d="m 364.85937,47.503906 -2.17968,2.671875 2.17968,2.675781 -2.67187,-2.179687 -2.67188,2.179687 2.25,-2.675781 -2.25,-2.671875 2.67188,2.25 z m 0,0"
             id="path153" />
        </g>
      </g>
    </g>
    <g
       clip-path="url(#clip15)"
       clip-rule="nonzero"
       id="g167">
      <g
         clip-path="url(#clip16)"
         clip-rule="evenodd"
         id="g165">
        <g
           clip-path="url(#clip17)"
           clip-rule="evenodd"
           id="g163">
          <path
             style="fill:#149e85;fill-opacity:1;fill-rule:evenodd;stroke:none"
             d="m 192.13672,112.95313 -3.375,4.01171 3.375,3.94141 -4.01172,-3.30859 -4.00781,3.30859 3.30468,-3.94141 -3.30468,-4.01171 4.00781,3.30859 z m 0,0"
             id="path161" />
        </g>
      </g>
    </g>
    <path
       style="fill:url(#linear0);fill-rule:evenodd;stroke:none"
       d="m 304.30859,54.257812 c 0,0 -1.75781,7.320313 -10.55078,7.179688 -9,-0.210938 -9.77344,-7.742188 -9.77344,-7.742188 l 5.83594,-1.265624 0.49219,-6.476563 8.79297,0.636719 0.14062,6.191406 z m 0,0"
       id="path169" />
    <path
       style="fill:#19ba9c;fill-opacity:1;fill-rule:evenodd;stroke:none"
       d="m 267.03516,72.628906 c 1.75781,-6.195312 4.5,-12.527344 9.21093,-15.835937 1.61719,-1.125 4.22266,-2.183594 7.45703,-3.027344 0.14063,0 0.21094,-0.07031 0.28125,-0.07031 0.21094,-0.07031 0.42188,-0.07031 0.63282,-0.140624 l 4.28906,-0.84375 5.27344,5.066406 5.0664,-4.996094 c 0,0 5.34375,1.054688 5.55469,1.054688 2.17969,0.703124 4.28906,1.691406 6.1875,2.957031 6.96484,4.855469 11.95703,22.308593 11.18359,30.472656 l -9.28515,5.769531 0.49219,10.066401 0.0703,3.58594 -20.46485,10.27734 -17.93359,-9.21875 -0.0703,-3.09765 c -1.40625,-1.05469 -2.60156,-2.32422 -3.58594,-3.58985 l 8.30078,-7.039056 -14.0664,-7.035156 c 0,0 0.5625,-12.386719 1.40625,-14.355469 z m 0,0"
       id="path171" />
    <g
       clip-path="url(#clip18)"
       clip-rule="nonzero"
       id="g177">
      <g
         clip-path="url(#clip19)"
         clip-rule="evenodd"
         id="g175">
        <path
           style="fill:#191919;fill-opacity:0.101961;fill-rule:evenodd;stroke:none"
           d="m 272.66016,57.917969 57.59765,70.445311 23.91406,-48.136718 -44.58984,-29.484374 -25.59766,0.914062 z m 0,0"
           id="path173" />
      </g>
    </g>
    <g
       clip-path="url(#clip20)"
       clip-rule="nonzero"
       id="g183">
      <g
         clip-path="url(#clip21)"
         clip-rule="evenodd"
         id="g181">
        <path
           style="fill:#000000;fill-opacity:0.2;fill-rule:evenodd;stroke:none"
           d="m 308.94922,75.089844 -0.14063,12.527344 -7.94531,6.261718 10.26563,0.777344 -0.63282,-6.335938 z m 0,0"
           id="path179" />
      </g>
    </g>
    <g
       clip-path="url(#clip22)"
       clip-rule="nonzero"
       id="g189">
      <g
         clip-path="url(#clip23)"
         clip-rule="evenodd"
         id="g187">
        <path
           style="fill:#000000;fill-opacity:0.2;fill-rule:evenodd;stroke:none"
           d="m 278.78125,71.429688 -0.42578,15.273437 7.66797,7.246094 -12.44922,-1.6875 3.23437,-5.277344 z m 0,0"
           id="path185" />
      </g>
    </g>
    <path
       style="fill:#ffffff;fill-opacity:1;fill-rule:evenodd;stroke:none"
       d="m 287.99219,52.429688 c 0.0703,-0.140626 0.14062,-0.210938 0.21093,-0.210938 0.0703,-0.07031 0.21094,-0.07031 0.28125,-0.07031 l 4.78125,1.828124 c 0.0703,0.07031 0.14063,0.140626 0.21094,0.210938 l 0.35156,1.199219 0.14063,-1.128907 c 0,-0.140624 0.0703,-0.210937 0.21094,-0.28125 l 6.47265,-1.96875 c 0.0703,0 0.21094,0 0.35157,0.07031 0.0703,0.07031 0.14062,0.140625 0.14062,0.28125 l 0.0703,2.179687 c 0,0 -4.57031,3.167969 -7.24609,3.308594 -2.60156,0.07031 -6.60938,-3.238281 -6.60938,-3.238281 z m 0,0"
       id="path191" />
    <path
       style="fill:#ffc7a1;fill-opacity:1;fill-rule:evenodd;stroke:none"
       d="m 293.61719,53.414062 c 0.70312,0.07031 1.47656,0 2.25,-0.210937 4.08203,-1.265625 5.91015,-4.292969 6.47265,-7.8125 0.14063,-0.773437 0.21094,-1.546875 0.28125,-2.320313 -0.77343,-1.335937 -0.84375,-4.996093 -1.47656,-6.40625 -0.49219,-0.984374 0.98438,-2.953124 -0.70312,-3.09375 -5.20704,-0.492187 -9.00391,0.07031 -14.06641,-0.351562 -0.84375,-0.07031 -1.33594,1.476562 -2.03906,1.125 -0.28125,1.125 0.35156,3.941406 0.5625,5.628906 0.63281,5.558594 3.58593,13.019532 8.71875,13.441406 z m 0,0"
       id="path193" />
    <path
       style="fill:#000000;fill-opacity:1;fill-rule:evenodd;stroke:none"
       d="m 284.89844,39.972656 c -0.5625,-4.925781 0.77343,-6.964844 3.09375,-6.402344 4.14843,0.914063 8.79297,0.351563 11.39453,0.421876 1.19531,0.07031 1.33594,1.6875 1.75781,2.671874 0.63281,1.410157 0.70313,5.070313 1.47656,6.40625 -0.0703,0.773438 -0.14062,1.546876 -0.28125,2.320313 3.09375,-2.460937 5.27344,-6.964844 4.71094,-11.820313 H 283 c 0.14062,2.8125 0.5625,5.417969 1.89844,6.402344 z m 0,0"
       id="path195" />
    <path
       style="fill:#ffc7a1;fill-opacity:1;fill-rule:evenodd;stroke:none"
       d="m 300.30078,37.792969 c 0,0 2.10938,-2.324219 2.46094,0.421875 0.35156,2.8125 -0.77344,6.402344 -2.03906,4.433594 -1.33594,-1.972657 -0.42188,-4.855469 -0.42188,-4.855469 z m 0,0"
       id="path197" />
    <path
       style="fill:#ffc7a1;fill-opacity:1;fill-rule:evenodd;stroke:none"
       d="m 304.66016,94.089844 c 0,-0.421875 10.05859,-10.273438 12.51953,-10.414063 4.42968,-1.054687 5.41406,4.996094 5.41406,4.996094 0.77344,2.324219 -5.34375,6.757813 -9.98828,9.925781 -4.64063,3.164064 -8.22656,-2.113281 -7.94531,-4.507812 z m 0,0"
       id="path199" />
    <path
       style="fill:url(#linear1);fill-rule:evenodd;stroke:none"
       d="m 257.11719,116.40234 c 4.5039,-0.98828 14.91015,-0.49609 14.91015,-0.49609 v 0.0703 c 0.42188,-0.14062 0.84375,-0.28125 1.19532,-0.28125 l 1.82812,-0.0703 0.5625,6.96875 -2.46094,0.14063 v 0.0703 c 0,0 -9.91406,1.75781 -14.76953,1.75781 -0.49219,0 -0.98437,-0.0703 -1.40625,-0.21094 -0.14062,-0.14062 -0.28125,-0.28125 -0.42187,-0.42187 -2.03907,-2.25 -1.47657,-5.5586 0.5625,-7.52735 z m 0,0"
       id="path201" />
    <path
       style="fill:url(#linear2);fill-rule:evenodd;stroke:none"
       d="m 334.19922,115.83594 c -4.50391,-0.84375 -14.91016,0 -14.91016,0 v 0.0703 c -0.35156,-0.14062 -0.77344,-0.28125 -1.19531,-0.28125 h -1.75781 l -0.42188,6.96875 2.46094,0.14063 c 0,0 9.91406,1.47656 14.76953,1.33593 0.49219,-0.0703 0.98438,-0.14062 1.40625,-0.28125 0.14063,-0.14062 0.28125,-0.28125 0.42188,-0.42187 1.96875,-2.32031 1.33593,-5.62891 -0.77344,-7.53125 z m 0,0"
       id="path203" />
    <path
       style="fill:#191919;fill-opacity:1;fill-rule:evenodd;stroke:none"
       d="m 255.85156,98.597656 c 2.03906,-4.71875 7.03516,-5.492187 11.32422,-3.308594 0.0703,0.140626 26.93359,13.863278 50.63672,19.914068 -0.63281,2.18359 -0.98438,4.5039 -1.05469,6.82812 -0.0703,0.49219 0,0.98438 0,1.47656 -18.21484,-0.91406 -37.90625,-7.03515 -54.85547,-12.3164 -5.27734,-1.6875 -8.30078,-7.45703 -6.05078,-12.593754 z m 0,0"
       id="path205" />
    <g
       clip-path="url(#clip24)"
       clip-rule="nonzero"
       id="g211">
      <g
         clip-path="url(#clip25)"
         clip-rule="evenodd"
         id="g209">
        <path
           style="fill:#4c4c4c;fill-opacity:0.2;fill-rule:evenodd;stroke:none"
           d="m 270.12891,120.97656 c 0.14062,-2.95703 -0.91407,-3.16797 -2.17969,-5.77343 0,-0.0703 -0.0703,-0.21094 -0.14063,-0.35157 1.54688,-0.42187 2.95313,1.05469 5.55469,0.14063 22.85547,-13.08985 34.25,-15.269534 48.17578,-22.871096 5.34375,-2.957032 11.53516,-0.984375 13.22266,5.417968 1.54687,5.703128 -1.82813,10.628908 -6.96485,12.316408 -15.40234,5.13672 10.69141,0.84375 5.62891,2.46484 -13.50391,4.15235 -48.31641,10.83594 -63.78906,11.89063 0,-0.21094 0.49219,-3.02344 0.49219,-3.23438 z m 0,0"
           id="path207" />
      </g>
    </g>
    <path
       style="fill:#191919;fill-opacity:1;fill-rule:evenodd;stroke:none"
       d="m 274.91016,122.38281 c 0.0703,-2.67578 -0.49219,-5.0664 -1.54688,-7.39062 -0.0703,-0.0703 -0.0703,-0.14063 -0.14062,-0.28125 1.40625,-0.42188 3.16406,-0.98438 5.41796,-1.75781 16.875,-5.77344 29.67579,-11.61329 41.98438,-18.29688 4.71094,-2.605469 10.125,-0.847656 11.67578,4.785156 1.33594,5.066404 -1.62109,9.359374 -6.19141,10.835934 -13.57421,4.50391 -6.46875,3.23829 -10.89843,4.71485 -11.88672,3.66015 -26.72657,7.03906 -40.3711,7.95312 0,-0.21093 0.0703,-0.42187 0.0703,-0.5625 z m 0,0"
       id="path213" />
    <path
       style="fill:#ffc7a1;fill-opacity:1;fill-rule:evenodd;stroke:none"
       d="m 283.91406,92.894531 c -0.14062,-0.421875 -10.83203,-9.5 -13.29297,-9.5 -4.5,-0.703125 -5.0625,5.417969 -5.0625,5.417969 -0.5625,2.394531 5.83594,6.335938 10.6875,9.148438 4.85547,2.816402 8.01953,-2.671876 7.66797,-5.066407 z m 0,0"
       id="path215" />
    <path
       style="fill:#ffffff;fill-opacity:1;fill-rule:nonzero;stroke:none"
       d="m 277.37109,35.046875 c 0.14063,-0.210937 0.28125,-0.492187 0.42188,-0.703125 -0.21094,0.210938 -0.35156,0.492188 -0.42188,0.703125 z m 0,0"
       id="path217" />
    <path
       style="fill:#68451e;fill-opacity:1;fill-rule:evenodd;stroke:none"
       d="m 310.56641,117.87891 15.96484,7.67187 v 1.82813 c 0,0 -8.4375,-2.95703 -7.17188,2.95703 1.26563,5.91015 7.52344,8.30468 7.52344,8.30468 l -0.14062,2.17969 c 0,0 -11.53125,-4.22265 -11.8125,-3.51953 -0.28125,0.63281 -19.83594,-11.25781 -19.83594,-11.25781 z m 0,0"
       id="path219" />
    <path
       style="fill:#68451e;fill-opacity:1;fill-rule:evenodd;stroke:none"
       d="m 276.66797,117.87891 -16.03125,7.67187 v 1.82813 c 0,0 8.50781,-2.95703 7.17187,2.95703 -1.26562,5.91015 -7.52734,8.30468 -7.52734,8.30468 l 0.21484,2.17969 c 0,0 11.46094,-4.22265 11.74219,-3.51953 0.28125,0.63281 20.25391,-11.25781 20.25391,-11.25781 z m 0,0"
       id="path221" />
    <g
       clip-path="url(#clip26)"
       clip-rule="nonzero"
       id="g227">
      <g
         clip-path="url(#clip27)"
         clip-rule="evenodd"
         id="g225">
        <path
           style="fill:#68451e;fill-opacity:1;fill-rule:evenodd;stroke:none"
           d="M 326.10937,125.97266 H 260.49609 V 94.445312 h 65.61328 z m 0,0"
           id="path223" />
      </g>
    </g>
    <g
       clip-path="url(#clip28)"
       clip-rule="nonzero"
       id="g233">
      <g
         clip-path="url(#clip29)"
         clip-rule="evenodd"
         id="g231">
        <path
           style="fill:#4a2e0f;fill-opacity:1;fill-rule:evenodd;stroke:none"
           d="m 245.375,64.675781 h 48.17187 V 124.70313 H 245.375 Z m 0,0"
           id="path229" />
      </g>
    </g>
    <g
       clip-path="url(#clip30)"
       clip-rule="nonzero"
       id="g239">
      <g
         clip-path="url(#clip31)"
         clip-rule="evenodd"
         id="g237">
        <path
           style="fill:url(#linear3);fill-rule:evenodd;stroke:none"
           d="M 318.09375,116.26172 H 268.01953 V 87.757812 h 50.07422 z m 0,0"
           id="path235" />
      </g>
    </g>
    <g
       clip-path="url(#clip32)"
       clip-rule="nonzero"
       id="g245">
      <g
         clip-path="url(#clip33)"
         clip-rule="evenodd"
         id="g243">
        <path
           style="fill:#f0e3b0;fill-opacity:1;fill-rule:evenodd;stroke:none"
           d="m 243.54687,86.421875 h 49.85938 v 33.707035 h -49.85938 z m 0,0"
           id="path241" />
      </g>
    </g>
    <path
       style="fill:#785730;fill-opacity:1;fill-rule:evenodd;stroke:none"
       d="m 263.02734,142.65234 -2.53125,-1.83203 63.4336,-30.89453 V 94.445312 l 2.8125,2.390626 v 14.496092 z m 0,0"
       id="path247" />
    <path
       style="fill:#785730;fill-opacity:1;fill-rule:evenodd;stroke:none"
       d="m 324.14062,142.65234 2.60157,-1.83203 -63.50391,-30.89453 V 94.445312 l -2.74219,2.390626 v 14.496092 z m 0,0"
       id="path249" />
    <path
       style="fill:#ded4ab;fill-opacity:1;fill-rule:evenodd;stroke:none"
       d="m 315.49219,101.62109 c -7.31641,1.125 -14.5586,5.13672 -21.875,12.59766 -7.52344,-6.82422 -15.04688,-10.90625 -22.50391,-12.38672 l -4.35937,3.51953 26.86328,13.16016 26.51562,-13.16016 z m 0,0"
       id="path251" />
    <path
       style="fill:#fff8de;fill-opacity:1;fill-rule:evenodd;stroke:none"
       d="M 315.49219,101.62109 V 87.757812 l 4.64062,3.378907 v 14.214841 z m 0,0"
       id="path253" />
    <path
       style="fill:#fff8de;fill-opacity:1;fill-rule:evenodd;stroke:none"
       d="M 271.32422,101.62109 V 87.757812 l -4.57031,2.957032 v 14.636716 z m 0,0"
       id="path255" />
    <path
       style="fill:#ffffff;fill-opacity:1;fill-rule:nonzero;stroke:none"
       d="m 306.91016,31.878906 c -2.03907,0.07031 -9.49219,0.492188 -19.12891,0.210938 -1.61719,0 -3.23438,-0.07031 -4.85156,-0.140625 l 0.14062,-0.84375 0.21094,-0.84375 0.14062,-0.703125 c 0.21094,-0.703125 0.5625,-1.410156 0.91407,-2.042969 0.35156,-0.5625 0.77343,-1.125 1.19531,-1.617187 0.70312,-0.773438 1.54687,-1.476563 2.46094,-2.113282 5.69531,0.140625 10.48047,0 13.71484,-0.07031 3.02344,1.832031 3.65625,3.238281 4.64063,6.476562 z m -12.3086,-10.625 c -0.28125,0 -0.5625,0.28125 -0.5625,0.5625 -1.54687,0.140625 -3.09375,0.492188 -4.42969,1.125 4.14844,0.07031 7.73829,0 10.48047,-0.07031 -1.47656,-0.632813 -3.09375,-0.984375 -4.78515,-1.054688 h -0.14063 c 0,-0.28125 -0.21094,-0.5625 -0.5625,-0.5625 z m 4.9961,10.0625 c 3.44531,-0.07031 5.90625,-0.210937 6.96093,-0.210937 h 0.14063 l -0.28125,-0.773438 c -2.25,-0.07031 -9.77344,0.421875 -19.48047,0.140625 -1.19531,0 -2.39063,-0.07031 -3.65625,-0.140625 l -0.21094,0.84375 c 1.26563,0.07031 2.46094,0.140625 3.65625,0.140625 4.99219,0.140625 9.42188,0.07031 12.8711,0 z m -11.88672,1.691406 c 10.05859,0.28125 17.72265,-0.214843 19.41015,-0.285156 0,0.214844 0,0.425782 0,0.636719 0,0.140625 0,0.28125 0,0.421875 0,0.210938 0,0.351562 -0.0703,0.5625 -0.0703,0.07031 -0.21094,0.140625 -0.35156,0.140625 -0.0703,0 -0.0703,0.07031 -0.14063,0.07031 -8.08593,0.632812 -15.61328,0.5625 -22.71484,-0.210938 h -0.35156 c -0.0703,0 -0.0703,0 -0.0703,0 -0.21093,0 -0.35156,-0.07031 -0.5625,-0.210938 0,-0.07031 0,-0.140624 0,-0.210937 0,-0.351563 0,-0.703125 0,-1.128906 1.61719,0.07422 3.23438,0.144531 4.85157,0.214843 z m 0,0"
       id="path257" />
    <path
       style="fill:#ffffff;fill-opacity:1;fill-rule:evenodd;stroke:none"
       d="m 291.85937,50.105469 c 0.28125,0.707031 1.05469,1.199219 2.03907,1.199219 1.05468,0 1.82812,-0.492188 2.10937,-1.199219 z m 0,0"
       id="path259" />
    <path
       style="fill:#ffffff;fill-opacity:1;fill-rule:nonzero;stroke:none"
       d="m 31.929688,75.722656 c 0,-1.40625 -0.914063,-2.25 -2.109376,-2.460937 v -0.07031 c 0.984376,-0.351562 1.6875,-1.128906 1.6875,-2.253906 0,-2.109375 -1.898437,-2.742188 -3.585937,-2.742188 H 23.769531 V 78.75 h 4.152344 c 2.039063,0 4.007813,-0.773438 4.007813,-3.027344 z m -2.882813,-4.433594 c 0,0.703126 -0.5625,1.128907 -1.476563,1.128907 h -1.410156 v -2.183594 h 1.269532 c 1.054687,0 1.617187,0.351563 1.617187,1.054687 z m 0.351563,4.152344 c 0,1.054688 -0.984376,1.269532 -1.757813,1.269532 h -1.480469 v -2.394532 h 1.480469 c 1.054687,0 1.757813,0.28125 1.757813,1.125 z m 0,0"
       id="path261" />
    <path
       style="fill:#ffffff;fill-opacity:1;fill-rule:nonzero;stroke:none"
       d="m 36.148438,68.96875 c 0,-0.703125 -0.632813,-1.339844 -1.40625,-1.339844 -0.773438,0 -1.40625,0.636719 -1.40625,1.339844 0,0.773438 0.632812,1.335938 1.40625,1.335938 0.773437,0 1.40625,-0.5625 1.40625,-1.335938 z M 36.007812,78.75 V 71.359375 H 33.546875 V 78.75 Z m 0,0"
       id="path263" />
    <path
       style="fill:#ffffff;fill-opacity:1;fill-rule:nonzero;stroke:none"
       d="M 43.601562,72.132812 C 42.898438,71.5 41.703125,71.148438 40.648438,71.148438 c -1.40625,0 -3.09375,0.703124 -3.09375,2.464843 0,1.40625 1.125,1.898438 2.179687,2.179688 0.984375,0.210937 1.476563,0.351562 1.476563,0.84375 0,0.425781 -0.492188,0.636719 -0.914063,0.636719 -0.703125,0 -1.40625,-0.351563 -1.828125,-0.847657 l -1.335938,1.410157 c 0.773438,0.773437 2.039063,1.195312 3.234376,1.195312 1.476562,0 3.164062,-0.703125 3.164062,-2.535156 0,-1.476563 -1.265625,-2.039063 -2.390625,-2.25 -0.914063,-0.210938 -1.335937,-0.351563 -1.335937,-0.773438 0,-0.421875 0.421874,-0.632812 0.914062,-0.632812 0.632812,0 1.195312,0.351562 1.546875,0.703125 z m 0,0"
       id="path265" />
    <path
       style="fill:#ffffff;fill-opacity:1;fill-rule:nonzero;stroke:none"
       d="m 49.300781,75.792969 c 0,0.917969 -0.5625,1.550781 -1.546875,1.550781 -0.492187,0 -1.054687,-0.210938 -1.054687,-0.777344 0,-0.914062 1.195312,-1.054687 2.320312,-1.054687 h 0.28125 z m -3.234375,-2.109375 c 0.421875,-0.421875 1.125,-0.773438 1.828125,-0.773438 0.773438,0 1.335938,0.351563 1.335938,1.125 v 0.07031 c -2.179688,0 -4.785157,0.351562 -4.785157,2.53125 0,1.761719 1.550782,2.324219 2.746094,2.324219 0.84375,0 1.6875,-0.351563 2.109375,-0.984376 V 78.75 h 2.25 v -3.730469 c 0,-2.671875 -0.914062,-3.871093 -3.445312,-3.871093 -1.195313,0 -2.390625,0.421874 -3.308594,1.199218 z m 0,0"
       id="path267" />
    <path
       style="fill:#ffffff;fill-opacity:1;fill-rule:nonzero;stroke:none"
       d="m 64.351562,68.195312 0.07031,6.894532 h -0.07031 L 60.128906,68.195312 H 57.246094 V 78.75 h 2.460937 l -0.07031,-6.898438 h 0.07031 L 63.929688,78.75 H 66.8125 V 68.195312 Z m 0,0"
       id="path269" />
    <path
       style="fill:#ffffff;fill-opacity:1;fill-rule:nonzero;stroke:none"
       d="m 76.726562,78.046875 v -6.6875 H 74.40625 v 0.917969 H 74.33594 C 73.84375,71.5 72.929688,71.148438 72.015625,71.148438 c -2.25,0 -3.515625,1.832031 -3.515625,3.871093 0,2.042969 1.265625,3.800781 3.515625,3.800781 0.984375,0 1.757813,-0.351562 2.25,-0.984374 h 0.07031 v 0.492187 c 0,1.195313 -0.703126,2.039063 -2.109376,2.039063 -0.84375,0 -1.757812,-0.28125 -2.460937,-0.914063 L 68.5,81.214844 c 1.054688,0.703125 2.53125,1.125 3.867188,1.125 2.601562,0 4.359374,-1.339844 4.359374,-4.292969 z M 74.40625,75.019531 c 0,0.984375 -0.703125,1.902344 -1.828125,1.902344 -1.125,0 -1.757813,-0.917969 -1.757813,-1.902344 0,-1.054687 0.632813,-1.898437 1.757813,-1.898437 1.125,0 1.828125,0.914062 1.828125,1.898437 z m 0,0"
       id="path271" />
    <path
       style="fill:#ffffff;fill-opacity:1;fill-rule:nonzero;stroke:none"
       d="m 82.988281,75.792969 c 0,0.917969 -0.492187,1.550781 -1.476562,1.550781 -0.492188,0 -1.058594,-0.210938 -1.058594,-0.777344 0,-0.914062 1.199219,-1.054687 2.253906,-1.054687 h 0.28125 z M 79.75,73.683594 c 0.492188,-0.421875 1.128906,-0.773438 1.832031,-0.773438 0.773438,0 1.335938,0.351563 1.335938,1.125 v 0.07031 c -2.113281,0 -4.714844,0.351562 -4.714844,2.53125 0,1.761719 1.476563,2.324219 2.675781,2.324219 0.84375,0 1.6875,-0.351563 2.109375,-0.984376 V 78.75 h 2.25 v -3.730469 c 0,-2.671875 -0.914062,-3.871093 -3.375,-3.871093 -1.199219,0 -2.464843,0.421874 -3.308593,1.199218 z m 0,0"
       id="path273" />
    <path
       style="fill:#ffffff;fill-opacity:1;fill-rule:nonzero;stroke:none"
       d="m 89.738281,68.96875 c 0,-0.703125 -0.632812,-1.339844 -1.40625,-1.339844 -0.773437,0 -1.40625,0.636719 -1.40625,1.339844 0,0.773438 0.632813,1.335938 1.40625,1.335938 0.773438,0 1.40625,-0.5625 1.40625,-1.335938 z m -0.140625,9.992188 v -7.601563 h -2.460937 v 7.601563 c 0,0.773437 -0.210938,1.265624 -0.914063,1.265624 -0.140625,0 -0.351562,0 -0.492187,-0.07031 l -0.140625,2.042969 c 0.210937,0.07031 0.703125,0.140625 1.054687,0.140625 2.390625,0 2.953125,-1.550782 2.953125,-3.378906 z m 0,0"
       id="path275" />
    <path
       style="fill:#ffffff;fill-opacity:1;fill-rule:nonzero;stroke:none"
       d="m 94.167969,68.96875 c 0,-0.703125 -0.632813,-1.339844 -1.40625,-1.339844 -0.773438,0 -1.40625,0.636719 -1.40625,1.339844 0,0.773438 0.632812,1.335938 1.40625,1.335938 0.773437,0 1.40625,-0.5625 1.40625,-1.335938 z M 93.957031,78.75 V 71.359375 H 91.566406 V 78.75 Z m 0,0"
       id="path277" />
    <path
       style="fill:#ffffff;fill-opacity:1;fill-rule:nonzero;stroke:none"
       d="M 107.53125,78.75 V 67.488281 h -2.46094 v 4.644531 H 105 c -0.35156,-0.492187 -1.125,-0.984374 -2.25,-0.984374 -2.10937,0 -3.445312,1.832031 -3.445312,3.871093 0,2.113281 1.265622,3.941407 3.515622,3.941407 0.98438,0 1.89844,-0.421876 2.39063,-1.125 h 0.0703 V 78.75 Z m -2.39062,-3.730469 c 0,0.984375 -0.63282,1.902344 -1.75782,1.902344 -1.19531,0 -1.75781,-0.917969 -1.75781,-1.902344 0,-0.914062 0.5625,-1.898437 1.75781,-1.898437 1.125,0 1.75782,0.984375 1.75782,1.898437 z m 0,0"
       id="path279" />
    <path
       style="fill:#ffffff;fill-opacity:1;fill-rule:nonzero;stroke:none"
       d="m 111.39844,74.246094 c 0.0703,-0.773438 0.77344,-1.476563 1.6875,-1.476563 0.98437,0 1.47656,0.703125 1.47656,1.476563 z m 5.41797,0.914062 c 0,-2.53125 -1.55078,-4.011718 -3.73047,-4.011718 -2.25,0 -4.00781,1.550781 -4.00781,3.941406 0,2.535156 1.82812,3.941406 4.07812,3.941406 1.47656,0 2.67188,-0.5625 3.375,-1.617188 l -1.75781,-1.058593 c -0.28125,0.425781 -0.84375,0.777343 -1.61719,0.777343 -0.84375,0 -1.6875,-0.566406 -1.75781,-1.410156 h 5.34375 c 0.0742,-0.140625 0.0742,-0.351562 0.0742,-0.5625 z m 0,0"
       id="path281" />
    <path
       style="fill:#ffffff;fill-opacity:1;fill-rule:nonzero;stroke:none"
       d="m 125.60547,78.75 v -4.574219 c 0,-1.476562 -0.70313,-3.027343 -2.67188,-3.027343 -1.05468,0 -1.89843,0.5625 -2.25,1.269531 v -1.058594 h -2.39062 V 78.75 h 2.46094 v -4.011719 c 0,-0.84375 0.49218,-1.546875 1.33593,-1.546875 0.84375,0 1.05469,0.703125 1.05469,1.546875 V 78.75 Z m 0,0"
       id="path283" />
    <path
       style="fill:#ffffff;fill-opacity:1;fill-rule:nonzero;stroke:none"
       d="m 135.3125,78.046875 v -6.6875 h -2.25391 v 0.917969 h -0.0703 C 132.4961,71.5 131.58204,71.148438 130.59767,71.148438 c -2.17969,0 -3.51563,1.832031 -3.51563,3.871093 0,2.042969 1.33594,3.800781 3.58594,3.800781 0.98437,0 1.75781,-0.351562 2.25,-0.984374 v 0.492187 c 0,1.195313 -0.63281,2.039063 -2.10938,2.039063 -0.77343,0 -1.6875,-0.28125 -2.39062,-0.914063 l -1.26563,1.761719 c 0.98438,0.703125 2.53125,1.125 3.79688,1.125 2.67187,0 4.36328,-1.339844 4.36328,-4.292969 z m -2.32422,-3.027344 c 0,0.984375 -0.63281,1.902344 -1.75781,1.902344 -1.125,0 -1.75781,-0.917969 -1.75781,-1.902344 0,-1.054687 0.63281,-1.898437 1.75781,-1.898437 1.05469,0 1.75781,0.914062 1.75781,1.898437 z m 0,0"
       id="path285" />
    <path
       style="fill:#ffffff;fill-opacity:1;fill-rule:nonzero;stroke:none"
       d="m 141.64062,75.792969 c 0,0.917969 -0.5625,1.550781 -1.54687,1.550781 -0.49219,0 -1.05469,-0.210938 -1.05469,-0.777344 0,-0.914062 1.19531,-1.054687 2.32031,-1.054687 h 0.28125 z m -3.23437,-2.109375 c 0.42187,-0.421875 1.125,-0.773438 1.82812,-0.773438 0.77344,0 1.33594,0.351563 1.33594,1.125 v 0.07031 c -2.17969,0 -4.78125,0.351562 -4.78125,2.53125 0,1.761719 1.54688,2.324219 2.74219,2.324219 0.84375,0 1.6875,-0.351563 2.03906,-0.984376 h 0.0703 V 78.75 h 2.25 v -3.730469 c 0,-2.671875 -0.91406,-3.871093 -3.44531,-3.871093 -1.19531,0 -2.39062,0.421874 -3.30469,1.199218 z m 0,0"
       id="path287" />
    <path
       style="fill:#ffffff;fill-opacity:1;fill-rule:nonzero;stroke:none"
       d="m 153.03516,78.75 v -4.574219 c 0,-1.476562 -0.70704,-3.027343 -2.7461,-3.027343 -0.98437,0 -1.82812,0.5625 -2.17969,1.269531 h -0.0703 v -1.058594 h -2.32031 V 78.75 h 2.46094 v -4.011719 c 0,-0.84375 0.42187,-1.546875 1.26562,-1.546875 0.91406,0 1.125,0.703125 1.125,1.546875 V 78.75 Z m 0,0"
       id="path289" />
    <path
       style="fill:#ffffff;fill-opacity:1;fill-rule:nonzero;stroke:none"
       d="m 165.90234,78.75 v -4.574219 c 0,-1.476562 -0.70312,-3.027343 -2.67187,-3.027343 -1.05469,0 -1.89844,0.5625 -2.25,1.269531 v -1.058594 h -2.39063 V 78.75 h 2.46094 v -4.011719 c 0,-0.84375 0.42188,-1.546875 1.33594,-1.546875 0.84375,0 1.05469,0.703125 1.05469,1.546875 V 78.75 Z m 0,0"
       id="path291" />
    <path
       style="fill:#ffffff;fill-opacity:1;fill-rule:nonzero;stroke:none"
       d="m 172.16406,75.792969 c 0,0.917969 -0.5625,1.550781 -1.55078,1.550781 -0.49219,0 -1.05469,-0.210938 -1.05469,-0.777344 0,-0.914062 1.19922,-1.054687 2.25391,-1.054687 h 0.35156 z m -3.30859,-2.109375 c 0.49219,-0.421875 1.19531,-0.773438 1.83203,-0.773438 0.77344,0 1.40625,0.351563 1.40625,1.125 v 0.07031 c -2.18359,0 -4.78516,0.351562 -4.78516,2.53125 0,1.761719 1.47657,2.324219 2.67188,2.324219 0.91797,0 1.76172,-0.351563 2.11328,-0.984376 h 0.0703 V 78.75 h 2.17969 v -3.730469 c 0,-2.671875 -0.91406,-3.871093 -3.375,-3.871093 -1.19922,0 -2.46484,0.421874 -3.30859,1.199218 z m 0,0"
       id="path293" />
    <path
       style="fill:#ffffff;fill-opacity:1;fill-rule:nonzero;stroke:none"
       d="M 184.04687,78.75 V 67.488281 h -2.46093 v 4.644531 c -0.42188,-0.492187 -1.19532,-0.984374 -2.25,-0.984374 -2.17969,0 -3.51563,1.832031 -3.51563,3.871093 0,2.113281 1.26563,3.941407 3.51563,3.941407 0.98437,0 1.96875,-0.421876 2.46093,-1.125 V 78.75 Z m -2.32031,-3.730469 c 0,0.984375 -0.70312,1.902344 -1.82812,1.902344 -1.125,0 -1.75782,-0.917969 -1.75782,-1.902344 0,-0.914062 0.63282,-1.898437 1.75782,-1.898437 1.125,0 1.82812,0.984375 1.82812,1.898437 z m 0,0"
       id="path295" />
    <path
       style="fill:#ffffff;fill-opacity:1;fill-rule:nonzero;stroke:none"
       d="m 190.37891,75.792969 c 0,0.917969 -0.5625,1.550781 -1.54688,1.550781 -0.49609,0 -1.05859,-0.210938 -1.05859,-0.777344 0,-0.914062 1.19922,-1.054687 2.2539,-1.054687 h 0.35157 z m -3.23829,-2.109375 c 0.42188,-0.421875 1.125,-0.773438 1.83204,-0.773438 0.70312,0 1.33593,0.351563 1.33593,1.125 v 0.07031 c -2.18359,0 -4.78515,0.351562 -4.78515,2.53125 0,1.761719 1.47656,2.324219 2.67187,2.324219 0.91797,0 1.76172,-0.351563 2.11328,-0.984376 h 0.0703 V 78.75 h 2.17968 v -3.730469 c 0,-2.671875 -0.91406,-3.871093 -3.375,-3.871093 -1.19922,0 -2.46484,0.421874 -3.30859,1.199218 z m 0,0"
       id="path297" />
    <path
       style="fill:#ffffff;fill-opacity:1;fill-rule:nonzero;stroke:none"
       d="m 200.78516,68.96875 c 0,-0.703125 -0.63282,-1.339844 -1.40625,-1.339844 -0.77344,0 -1.40625,0.636719 -1.40625,1.339844 0,0.773438 0.63281,1.335938 1.40625,1.335938 0.77343,0 1.40625,-0.5625 1.40625,-1.335938 z M 200.57422,78.75 v -7.390625 h -2.39063 V 78.75 Z m 0,0"
       id="path299" />
    <path
       style="fill:#ffffff;fill-opacity:1;fill-rule:nonzero;stroke:none"
       d="m 209.85937,78.75 v -4.574219 c 0,-1.476562 -0.70312,-3.027343 -2.74218,-3.027343 -0.98828,0 -1.83203,0.5625 -2.1836,1.269531 h -0.0703 v -1.058594 h -2.32031 V 78.75 h 2.46094 v -4.011719 c 0,-0.84375 0.42187,-1.546875 1.26562,-1.546875 0.91797,0 1.12891,0.703125 1.12891,1.546875 V 78.75 Z m 0,0"
       id="path301" />
    <path
       style="fill:#ffffff;fill-opacity:1;fill-rule:nonzero;stroke:none"
       d="M 219.5625,78.75 V 67.488281 h -2.46094 v 4.644531 c -0.42187,-0.492187 -1.19531,-0.984374 -2.25,-0.984374 -2.17969,0 -3.51562,1.832031 -3.51562,3.871093 0,2.113281 1.26562,3.941407 3.51562,3.941407 0.98438,0 1.96875,-0.421876 2.46094,-1.125 V 78.75 Z m -2.32031,-3.730469 c 0,0.984375 -0.70313,1.902344 -1.82813,1.902344 -1.125,0 -1.75781,-0.917969 -1.75781,-1.902344 0,-0.914062 0.63281,-1.898437 1.75781,-1.898437 1.125,0 1.82813,0.984375 1.82813,1.898437 z m 0,0"
       id="path303" />
    <path
       style="fill:#ffffff;fill-opacity:1;fill-rule:nonzero;stroke:none"
       d="m 225.89453,75.792969 c 0,0.917969 -0.5625,1.550781 -1.55078,1.550781 -0.49219,0 -1.05469,-0.210938 -1.05469,-0.777344 0,-0.914062 1.19531,-1.054687 2.25391,-1.054687 h 0.35156 z m -3.23828,-2.109375 c 0.42187,-0.421875 1.125,-0.773438 1.82812,-0.773438 0.70704,0 1.33985,0.351563 1.33985,1.125 v 0.07031 c -2.1836,0 -4.78516,0.351562 -4.78516,2.53125 0,1.761719 1.47656,2.324219 2.67188,2.324219 0.91797,0 1.76172,-0.351563 2.11328,-0.984376 h 0.0703 V 78.75 h 2.17969 v -3.730469 c 0,-2.671875 -0.91406,-3.871093 -3.375,-3.871093 -1.19922,0 -2.46485,0.421874 -3.3086,1.199218 z m 0,0"
       id="path305" />
    <path
       style="fill:#ffffff;fill-opacity:1;fill-rule:nonzero;stroke:none"
       d="m 237.28516,78.75 v -4.574219 c 0,-1.476562 -0.70313,-3.027343 -2.74219,-3.027343 -1.05469,0 -1.82813,0.5625 -2.10938,1.128906 h -0.0703 v -4.789063 h -2.39062 V 78.75 h 2.39062 v -4.011719 c 0,-0.84375 0.49219,-1.546875 1.33594,-1.546875 0.91406,0 1.125,0.703125 1.125,1.546875 V 78.75 Z m 0,0"
       id="path307" />
    <path
       style="fill:#ffffff;fill-opacity:1;fill-rule:nonzero;stroke:none"
       d="m 26.9375,98.382812 c -1.269531,-1.6875 -1.902344,-3.726562 -1.902344,-5.910156 0,-2.179687 0.632813,-4.222656 1.902344,-5.980468 L 25.246094,85.71875 c -1.40625,1.898438 -2.179688,4.292969 -2.179688,6.753906 0,2.394532 0.773438,4.785156 2.179688,6.757813 z m 0,0"
       id="path309" />
    <path
       style="fill:#ffffff;fill-opacity:1;fill-rule:nonzero;stroke:none"
       d="m 27.851562,86.210938 v 2.179687 h 2.953126 v 8.375 h 2.53125 v -8.375 h 2.953124 v -2.179687 z m 0,0"
       id="path311" />
    <path
       style="fill:#ffffff;fill-opacity:1;fill-rule:nonzero;stroke:none"
       d="m 39.804688,86.984375 c 0,-0.773437 -0.632813,-1.335937 -1.40625,-1.335937 -0.773438,0 -1.40625,0.632812 -1.40625,1.335937 0,0.703125 0.632812,1.335937 1.40625,1.335937 0.773437,0 1.40625,-0.5625 1.40625,-1.335937 z m -0.140626,9.78125 v -7.460937 h -2.460937 v 7.460937 z m 0,0"
       id="path313" />
    <path
       style="fill:#ffffff;fill-opacity:1;fill-rule:nonzero;stroke:none"
       d="M 41.632812,85.507812 V 96.765625 H 44.09375 V 85.507812 Z m 0,0"
       id="path315" />
    <path
       style="fill:#ffffff;fill-opacity:1;fill-rule:nonzero;stroke:none"
       d="m 50.355469,93.738281 c 0,0.988281 -0.492188,1.550781 -1.476563,1.550781 -0.492187,0 -1.054687,-0.210937 -1.054687,-0.773437 0,-0.847656 1.195312,-0.988281 2.25,-0.988281 h 0.28125 z m -3.234375,-2.039062 c 0.492187,-0.421875 1.125,-0.773438 1.828125,-0.773438 0.773437,0 1.335937,0.351563 1.335937,1.054688 v 0.140625 c -2.109375,0 -4.710937,0.351562 -4.710937,2.464844 0,1.757812 1.476562,2.320312 2.671875,2.320312 0.84375,0 1.6875,-0.351562 2.109375,-0.914062 v 0.773437 h 2.25 v -3.730469 c 0,-2.742187 -0.914063,-3.941406 -3.375,-3.941406 -1.195313,0 -2.460938,0.421875 -3.304688,1.269531 z m 0,0"
       id="path317" />
    <path
       style="fill:#ffffff;fill-opacity:1;fill-rule:nonzero;stroke:none"
       d="m 62.589844,94.019531 -1.335938,-4.714843 h -2.460937 l -1.335938,4.714843 h -0.07031 l -1.265625,-4.714843 h -2.671875 l 2.601562,7.460937 h 2.460938 l 1.40625,-4.644531 h 0.07031 l 1.40625,4.644531 h 2.464844 l 2.601563,-7.460937 h -2.53125 z m 0,0"
       id="path319" />
    <path
       style="fill:#ffffff;fill-opacity:1;fill-rule:nonzero;stroke:none"
       d="m 71.804688,93.738281 c 0,0.988281 -0.5625,1.550781 -1.546876,1.550781 -0.492187,0 -1.054687,-0.210937 -1.054687,-0.773437 0,-0.847656 1.195313,-0.988281 2.25,-0.988281 h 0.351563 z M 68.5,91.699219 c 0.492188,-0.421875 1.195312,-0.773438 1.828125,-0.773438 0.773437,0 1.40625,0.351563 1.40625,1.054688 v 0.140625 c -2.179687,0 -4.78125,0.351562 -4.78125,2.464844 0,1.757812 1.476563,2.320312 2.671875,2.320312 0.914062,0 1.757812,-0.351562 2.109375,-0.914062 h 0.07031 v 0.773437 h 2.179687 v -3.730469 c 0,-2.742187 -0.914063,-3.941406 -3.375,-3.941406 -1.195313,0 -2.460937,0.421875 -3.304687,1.269531 z m 0,0"
       id="path321" />
    <path
       style="fill:#ffffff;fill-opacity:1;fill-rule:nonzero;stroke:none"
       d="m 83.128906,96.765625 v -4.574219 c 0,-1.546875 -0.632812,-3.097656 -2.675781,-3.097656 -1.054687,0 -1.828125,0.5625 -2.109375,1.199219 h -0.07031 v -4.785157 h -2.390626 v 11.257813 h 2.390626 v -4.011719 c 0,-0.914062 0.492187,-1.617187 1.335937,-1.617187 0.914063,0 1.125,0.773437 1.125,1.617187 v 4.011719 z m 0,0"
       id="path323" />
    <path
       style="fill:#ffffff;fill-opacity:1;fill-rule:nonzero;stroke:none"
       d="m 88.683594,92.472656 c 0,-2.460937 -0.773438,-4.855468 -2.179688,-6.753906 l -1.617187,0.773438 c 1.195312,1.757812 1.898437,3.800781 1.898437,5.980468 0,2.183594 -0.703125,4.222656 -1.898437,5.910156 l 1.617187,0.847657 c 1.40625,-1.972657 2.179688,-4.363281 2.179688,-6.757813 z m 0,0"
       id="path325" />
    <path
       style="fill:#ffffff;fill-opacity:1;fill-rule:nonzero;stroke:none"
       d="M 99.515625,90.152344 C 98.8125,89.445312 97.613281,89.09375 96.558594,89.09375 c -1.40625,0 -3.09375,0.707031 -3.09375,2.464844 0,1.40625 1.125,1.96875 2.179687,2.179687 0.984375,0.210938 1.476563,0.421875 1.476563,0.847657 0,0.492187 -0.492188,0.632812 -0.914063,0.632812 -0.703125,0 -1.40625,-0.351562 -1.828125,-0.84375 l -1.335937,1.476562 c 0.773437,0.703126 2.039062,1.125 3.234375,1.125 1.476562,0 3.167968,-0.632812 3.167968,-2.53125 0,-1.410156 -1.269531,-1.972656 -2.394531,-2.253906 -0.914062,-0.210937 -1.335937,-0.351562 -1.335937,-0.773437 0,-0.421875 0.421875,-0.5625 0.914062,-0.5625 0.632813,0 1.195313,0.28125 1.546875,0.703125 z m 0,0"
       id="path327" />
    <path
       style="fill:#ffffff;fill-opacity:1;fill-rule:nonzero;stroke:none"
       d="m 102.82031,92.191406 c 0.0703,-0.773437 0.70313,-1.40625 1.6875,-1.40625 0.98438,0 1.47657,0.632813 1.47657,1.40625 z m 5.41407,0.914063 c 0,-2.53125 -1.54688,-4.011719 -3.72657,-4.011719 -2.25,0 -4.00781,1.550781 -4.00781,4.011719 0,2.464843 1.82813,3.871093 4.07813,3.871093 1.47656,0 2.67187,-0.5625 3.30468,-1.546874 L 106.19531,94.375 c -0.28125,0.421875 -0.84375,0.773438 -1.61718,0.773438 -0.84375,0 -1.6875,-0.632813 -1.75782,-1.410157 h 5.34375 c 0.0703,-0.210937 0.0703,-0.421875 0.0703,-0.632812 z m 0,0"
       id="path329" />
    <path
       style="fill:#ffffff;fill-opacity:1;fill-rule:nonzero;stroke:none"
       d="m 117.94141,93.035156 c 0,-2.109375 -1.33985,-3.941406 -3.51953,-3.941406 -1.05469,0 -1.89844,0.5625 -2.32032,1.128906 h -0.0703 v -0.917968 h -2.32031 v 11.050782 h 2.46094 v -4.433595 c 0.49218,0.632813 1.33593,1.054687 2.25,1.054687 2.25,0 3.51953,-1.898437 3.51953,-3.941406 z m -2.32422,0 c 0,0.914063 -0.63281,1.902344 -1.75781,1.902344 -1.125,0 -1.75782,-0.917969 -1.75782,-1.902344 0,-0.914062 0.63282,-1.898437 1.75782,-1.898437 1.125,0 1.75781,0.914062 1.75781,1.898437 z m 0,0"
       id="path331" />
    <path
       style="fill:#ffffff;fill-opacity:1;fill-rule:nonzero;stroke:none"
       d="m 121.45703,92.191406 c 0.0703,-0.773437 0.77344,-1.40625 1.6875,-1.40625 0.98438,0 1.47656,0.632813 1.47656,1.40625 z m 5.41406,0.914063 c 0,-2.53125 -1.54687,-4.011719 -3.72656,-4.011719 -2.25,0 -4.00781,1.550781 -4.00781,4.011719 0,2.464843 1.82812,3.871093 4.07812,3.871093 1.47657,0 2.67188,-0.5625 3.375,-1.546874 L 124.90234,94.375 c -0.35156,0.421875 -0.91406,0.773438 -1.6875,0.773438 -0.84375,0 -1.6875,-0.632813 -1.75781,-1.410157 h 5.41406 c 0,-0.210937 0,-0.421875 0,-0.632812 z m 0,0"
       id="path333" />
    <path
       style="fill:#ffffff;fill-opacity:1;fill-rule:nonzero;stroke:none"
       d="m 133.26953,89.164062 c -0.14062,0 -0.28125,-0.07031 -0.49219,-0.07031 -0.91406,0 -1.6875,0.5625 -2.03906,1.339844 V 89.30469 h -2.39062 v 7.460937 h 2.46093 v -3.800781 c 0,-0.632813 0.42188,-1.6875 1.75782,-1.6875 0.21093,0 0.42187,0 0.63281,0.07031 z m 0,0"
       id="path335" />
    <path
       style="fill:#ffffff;fill-opacity:1;fill-rule:nonzero;stroke:none"
       d="m 138.47656,91.136719 v -1.832031 h -1.75781 V 87.40625 h -2.39453 v 1.898438 h -1.19531 v 1.832031 h 1.19531 v 3.167969 c 0,1.546874 0.70703,2.601562 2.67578,2.601562 0.49219,0 1.05469,-0.07031 1.40625,-0.210938 V 94.9375 c -0.21094,0.07031 -0.49219,0.07031 -0.77344,0.07031 -0.70312,0 -0.91406,-0.351562 -0.91406,-0.988281 v -2.882812 z m 0,0"
       id="path337" />
    <path
       style="fill:#ffffff;fill-opacity:1;fill-rule:nonzero;stroke:none"
       d="m 142.27344,86.984375 c 0,-0.773437 -0.63282,-1.335937 -1.40625,-1.335937 -0.77344,0 -1.40625,0.632812 -1.40625,1.335937 0,0.703125 0.63281,1.335937 1.40625,1.335937 0.77343,0 1.40625,-0.5625 1.40625,-1.335937 z m -0.21094,9.78125 v -7.460937 h -2.39063 v 7.460937 z m 0,0"
       id="path339" />
    <path
       style="fill:#ffffff;fill-opacity:1;fill-rule:nonzero;stroke:none"
       d="m 159.36328,96.765625 v -2.039063 l -2.17969,0.07031 v -0.07031 c 0.70313,-0.566406 1.54688,-1.832031 1.54688,-3.449218 0,-3.167969 -2.39063,-5.347656 -5.69531,-5.347656 -3.23829,0 -5.69922,2.179687 -5.69922,5.417968 0,3.449219 2.25,5.417969 5.6289,5.417969 z m -3.30469,-5.417969 c 0,1.898438 -1.26562,3.238282 -3.02343,3.238282 -1.76172,0 -2.95704,-1.339844 -2.95704,-3.238282 0,-1.832031 1.26563,-3.097656 2.95704,-3.097656 1.75781,0 3.02343,1.265625 3.02343,3.097656 z m 0,0"
       id="path341" />
    <path
       style="fill:#ffffff;fill-opacity:1;fill-rule:nonzero;stroke:none"
       d="m 164.91797,93.738281 c 0,0.988281 -0.5625,1.550781 -1.54688,1.550781 -0.49218,0 -1.05468,-0.210937 -1.05468,-0.773437 0,-0.847656 1.19531,-0.988281 2.25,-0.988281 h 0.35156 z m -3.30469,-2.039062 c 0.49219,-0.421875 1.125,-0.773438 1.82813,-0.773438 0.77343,0 1.33593,0.351563 1.33593,1.054688 v 0.140625 c -2.10937,0 -4.71093,0.351562 -4.71093,2.464844 0,1.757812 1.47656,2.320312 2.67187,2.320312 0.91406,0 1.75781,-0.351562 2.10938,-0.914062 h 0.0703 v 0.773437 h 2.17969 v -3.730469 c 0,-2.742187 -0.91407,-3.941406 -3.375,-3.941406 -1.19532,0 -2.46094,0.421875 -3.30469,1.269531 z m 0,0"
       id="path343" />
    <path
       style="fill:#ffffff;fill-opacity:1;fill-rule:nonzero;stroke:none"
       d="m 173.85156,89.164062 c -0.14062,0 -0.35156,-0.07031 -0.49219,-0.07031 -0.91406,0 -1.6875,0.5625 -2.03906,1.339844 V 89.30469 h -2.39453 v 7.460937 h 2.46484 v -3.800781 c 0,-0.632813 0.42188,-1.6875 1.75782,-1.6875 0.14062,0 0.35156,0 0.5625,0.07031 z m 0,0"
       id="path345" />
    <path
       style="fill:#ffffff;fill-opacity:1;fill-rule:nonzero;stroke:none"
       d="m 177.50781,86.984375 c 0,-0.773437 -0.63281,-1.335937 -1.40625,-1.335937 -0.84375,0 -1.40625,0.632812 -1.40625,1.335937 0,0.703125 0.5625,1.335937 1.40625,1.335937 0.77344,0 1.40625,-0.5625 1.40625,-1.335937 z m -0.21094,9.78125 v -7.460937 h -2.46093 v 7.460937 z m 0,0"
       id="path347" />
    <path
       style="fill:#ffffff;fill-opacity:1;fill-rule:nonzero;stroke:none"
       d="m 178.91406,90.222656 h 1.82813 l 1.40625,-4.011718 h -2.17969 z m 0,0"
       id="path349" />
    <path
       style="fill:#ffffff;fill-opacity:1;fill-rule:nonzero;stroke:none"
       d="m 31.71875,107.46484 c 0,-2.46484 -1.828125,-3.30859 -4.078125,-3.30859 h -3.871094 v 10.55469 h 2.53125 v -3.94141 h 1.269531 c 2.179688,0 4.148438,-0.91406 4.148438,-3.30469 z m -2.53125,0 c 0,0.98438 -0.84375,1.26563 -1.828125,1.26563 h -1.058594 v -2.46484 h 1.128907 c 0.914062,0 1.757812,0.14062 1.757812,1.19921 z m 0,0"
       id="path351" />
    <path
       style="fill:#ffffff;fill-opacity:1;fill-rule:nonzero;stroke:none"
       d="m 37.414062,107.17969 c -0.140624,-0.0703 -0.351562,-0.0703 -0.5625,-0.0703 -0.84375,0 -1.617187,0.5664 -1.96875,1.26953 H 34.8125 v -1.05469 h -2.320312 v 7.38672 h 2.460937 v -3.80078 c 0,-0.63282 0.421875,-1.6875 1.6875,-1.6875 0.210937,0 0.421875,0 0.632813,0.0703 z m 0,0"
       id="path353" />
    <path
       style="fill:#ffffff;fill-opacity:1;fill-rule:nonzero;stroke:none"
       d="m 45.996094,110.98047 c 0,-2.39063 -1.902344,-3.94141 -4.152344,-3.94141 -2.25,0 -4.078125,1.55078 -4.078125,3.94141 0,2.46484 1.828125,4.01172 4.078125,4.01172 2.25,0 4.152344,-1.54688 4.152344,-4.01172 z m -2.394532,0 c 0,0.98828 -0.5625,1.90234 -1.757812,1.90234 -1.125,0 -1.757812,-0.91406 -1.757812,-1.90234 0,-0.91406 0.632812,-1.89844 1.757812,-1.89844 1.125,0 1.757812,0.98438 1.757812,1.89844 z m 0,0"
       id="path355" />
    <path
       style="fill:#ffffff;fill-opacity:1;fill-rule:nonzero;stroke:none"
       d="m 52.324219,103.3125 c -0.351563,-0.0703 -0.773438,-0.14062 -1.195313,-0.14062 -2.460937,0 -3.164062,1.61718 -3.164062,3.44531 v 0.70703 h -1.40625 v 1.82812 h 1.40625 v 5.5586 h 2.390625 v -5.5586 h 1.6875 v -1.82812 h -1.6875 v -0.77734 c 0,-0.63282 0.210937,-1.40625 1.125,-1.40625 0.210937,0 0.492187,0.0703 0.632812,0.14062 z m 0,0"
       id="path357" />
    <path
       style="fill:#ffffff;fill-opacity:1;fill-rule:nonzero;stroke:none"
       d="m 54.925781,110.20703 c 0.07031,-0.77344 0.703125,-1.47656 1.6875,-1.47656 0.914063,0 1.40625,0.70312 1.40625,1.47656 z m 5.34375,0.91406 c 0,-2.53125 -1.476562,-4.08203 -3.726562,-4.08203 -2.179688,0 -3.9375,1.55078 -3.9375,4.01172 0,2.53516 1.828125,3.94141 4.078125,3.94141 1.476562,0 2.601562,-0.5625 3.304687,-1.61719 l -1.6875,-1.05469 c -0.28125,0.42188 -0.84375,0.77344 -1.617187,0.77344 -0.914063,0 -1.6875,-0.5625 -1.757813,-1.41016 h 5.34375 c 0,-0.14062 0,-0.35156 0,-0.5625 z m 0,0"
       id="path359" />
    <path
       style="fill:#ffffff;fill-opacity:1;fill-rule:nonzero;stroke:none"
       d="m 67.515625,108.09766 c -0.703125,-0.63282 -1.898437,-1.0586 -2.953125,-1.0586 -1.40625,0 -3.097656,0.77735 -3.097656,2.53516 0,1.40625 1.125,1.89844 2.183594,2.18359 0.984374,0.21094 1.476562,0.35157 1.476562,0.84375 0,0.42188 -0.492188,0.63282 -0.914062,0.63282 -0.703126,0 -1.410157,-0.35157 -1.832032,-0.84375 l -1.335937,1.40625 c 0.773437,0.77343 2.042969,1.19531 3.238281,1.19531 1.476562,0 3.164062,-0.70313 3.164062,-2.53125 0,-1.48047 -1.265624,-2.04297 -2.390624,-2.25391 -0.914063,-0.21094 -1.335938,-0.35156 -1.335938,-0.77344 0,-0.42187 0.421875,-0.63281 0.914062,-0.63281 0.5625,0 1.125,0.35156 1.546876,0.70313 z m 0,0"
       id="path361" />
    <path
       style="fill:#ffffff;fill-opacity:1;fill-rule:nonzero;stroke:none"
       d="m 71.523438,104.92969 c 0,-0.70313 -0.632813,-1.33594 -1.40625,-1.33594 -0.84375,0 -1.40625,0.63281 -1.40625,1.33594 0,0.77344 0.5625,1.33594 1.40625,1.33594 0.773437,0 1.40625,-0.5625 1.40625,-1.33594 z m -0.210938,9.78125 v -7.38672 h -2.460938 v 7.38672 z m 0,0"
       id="path363" />
    <path
       style="fill:#ffffff;fill-opacity:1;fill-rule:nonzero;stroke:none"
       d="m 81.089844,110.98047 c 0,-2.39063 -1.832032,-3.94141 -4.082032,-3.94141 -2.25,0 -4.148437,1.55078 -4.148437,3.94141 0,2.46484 1.898437,4.01172 4.148437,4.01172 2.25,0 4.082032,-1.54688 4.082032,-4.01172 z m -2.324219,0 c 0,0.98828 -0.632813,1.90234 -1.757813,1.90234 -1.125,0 -1.757812,-0.91406 -1.757812,-1.90234 0,-0.91406 0.5625,-1.89844 1.757812,-1.89844 1.125,0 1.757813,0.98438 1.757813,1.89844 z m 0,0"
       id="path365" />
    <path
       style="fill:#ffffff;fill-opacity:1;fill-rule:nonzero;stroke:none"
       d="m 89.949219,114.71094 v -4.57422 c 0,-1.47656 -0.703125,-3.02734 -2.671875,-3.02734 -1.054688,0 -1.898438,0.5664 -2.25,1.19921 v -0.98437 h -2.390625 v 7.38672 h 2.460937 v -4.01172 c 0,-0.84375 0.492188,-1.61719 1.335938,-1.61719 0.84375,0 1.125,0.77344 1.125,1.61719 v 4.01172 z m 0,0"
       id="path367" />
    <path
       style="fill:#ffffff;fill-opacity:1;fill-rule:nonzero;stroke:none"
       d="m 96.207031,111.75781 c 0,0.91407 -0.5625,1.54688 -1.546875,1.54688 -0.492187,0 -1.054687,-0.21094 -1.054687,-0.77344 0,-0.91797 1.195312,-1.05859 2.25,-1.05859 h 0.351562 z m -3.234375,-2.11328 c 0.421875,-0.42187 1.125,-0.77344 1.828125,-0.77344 0.773438,0 1.335938,0.35157 1.335938,1.125 v 0.0703 c -2.179688,0 -4.78125,0.35156 -4.78125,2.53515 0,1.75782 1.546875,2.32032 2.671875,2.32032 0.914062,0 1.757812,-0.35157 2.109375,-0.98438 h 0.07031 v 0.77344 h 2.25 v -3.73047 c 0,-2.67188 -0.914062,-3.94141 -3.445312,-3.94141 -1.195313,0 -2.460938,0.4961 -3.304688,1.26953 z m 0,0"
       id="path369" />
    <path
       style="fill:#ffffff;fill-opacity:1;fill-rule:nonzero;stroke:none"
       d="m 100.28906,103.45313 v 11.25781 H 102.75 v -11.25781 z m 0,0"
       id="path371" />
    <path
       style="fill:#ffffff;fill-opacity:1;fill-rule:nonzero;stroke:none"
       d="m 107.46094,113.44531 c 0,-0.84375 -0.70313,-1.47656 -1.47656,-1.47656 -0.84375,0 -1.54688,0.63281 -1.54688,1.47656 0,0.84375 0.70313,1.40625 1.54688,1.40625 0.77343,0 1.47656,-0.63281 1.47656,-1.40625 z m 0,0"
       id="path373" />
  </g>
</svg>
