<?xml version="1.0" encoding="UTF-8" standalone="no"?>
<svg
   xmlns:dc="http://purl.org/dc/elements/1.1/"
   xmlns:cc="http://creativecommons.org/ns#"
   xmlns:rdf="http://www.w3.org/1999/02/22-rdf-syntax-ns#"
   xmlns:svg="http://www.w3.org/2000/svg"
   xmlns="http://www.w3.org/2000/svg"
   xmlns:sodipodi="http://sodipodi.sourceforge.net/DTD/sodipodi-0.dtd"
   xmlns:inkscape="http://www.inkscape.org/namespaces/inkscape"
   width="99.82031pt"
   height="28.945312pt"
   viewBox="0 0 133.82031 38.945312"
   version="1.1"
   id="svg31"
   sodipodi:docname="CardJudulTilawah.svg"
   inkscape:version="1.0.1 (3bc2e813f5, 2020-09-07)">
  <metadata
     id="metadata37">
    <rdf:RDF>
      <cc:Work
         rdf:about="">
        <dc:format>image/svg+xml</dc:format>
        <dc:type
           rdf:resource="http://purl.org/dc/dcmitype/StillImage" />
      </cc:Work>
    </rdf:RDF>
  </metadata>
  <defs
     id="defs35" />
  <sodipodi:namedview
     pagecolor="#ffffff"
     bordercolor="#666666"
     borderopacity="1"
     objecttolerance="10"
     gridtolerance="10"
     guidetolerance="10"
     inkscape:pageopacity="0"
     inkscape:pageshadow="2"
     inkscape:window-width="725"
     inkscape:window-height="480"
     id="namedview33"
     showgrid="false"
     inkscape:zoom="6.8003731"
     inkscape:cx="89.333333"
     inkscape:cy="26"
     inkscape:window-x="0"
     inkscape:window-y="0"
     inkscape:window-maximized="0"
     inkscape:current-layer="svg31" />
  <g
     id="surface1">
    <path
       style="fill:#057866;fill-opacity:1;fill-rule:evenodd;stroke:none"
       d="m 0,31.910156 5.308594,7.035156 V 24.75 Z m 0,0"
       id="path2" />
    <path
       style="fill:#17997d;fill-opacity:1;fill-rule:evenodd;stroke:none"
       d="m 0,0 h 117.95313 c 8.74609,0 15.86718,7.160156 15.86718,15.953125 0,8.796875 -7.12109,15.957031 -15.86718,15.957031 H 0 Z m 0,0"
       id="path4" />
    <path
       style="fill:#ffffff;fill-opacity:1;fill-rule:nonzero;stroke:none"
       d="m 22.992188,13.566406 c 0.5,-0.753906 1,-1.378906 1.4375,-2.007812 0.371093,-0.566406 0.808593,-1.070313 1.121093,-1.445313 0.375,-0.441406 0.6875,-0.816406 1,-1.066406 0.3125,-0.316406 0.625,-0.566406 0.9375,-0.691406 0.25,-0.191407 0.5625,-0.316407 0.8125,-0.378907 0.3125,-0.125 0.625,-0.125 0.9375,-0.125 0.75,0 1.125,0.25 1.125,0.691407 0,0.0625 0,0.1875 0,0.25 -0.0625,0.0625 -0.0625,0.191406 -0.0625,0.253906 -0.0625,0.0625 -0.125,0.125 -0.1875,0.1875 0,0.0625 -0.125,0.125 -0.1875,0.125 -0.0625,0 -0.125,-0.0625 -0.1875,-0.125 -0.125,-0.0625 -0.1875,-0.125 -0.3125,-0.1875 -0.125,-0.128906 -0.25,-0.191406 -0.375,-0.253906 -0.125,-0.0625 -0.3125,-0.0625 -0.5,-0.0625 -0.1875,0 -0.4375,0.0625 -0.6875,0.253906 -0.25,0.125 -0.5,0.375 -0.8125,0.625 -0.25,0.253906 -0.5625,0.628906 -0.875,0.945313 -0.3125,0.375 -0.625,0.75 -0.9375,1.191406 0.875,1.949218 1.625,3.707031 2.25,5.152344 0.6875,1.441406 1.25,2.636718 1.8125,3.578124 0.5625,0.941407 1.0625,1.632813 1.5,2.136719 0.4375,0.441407 0.9375,0.691407 1.375,0.691407 0.125,0 0.1875,-0.0625 0.25,-0.0625 0.0625,0 0.1875,-0.0625 0.25,-0.0625 0.0625,-0.0625 0.125,-0.0625 0.1875,-0.125 l 0.1875,0.3125 c -0.125,0.0625 -0.25,0.125 -0.375,0.25 -0.1875,0.0625 -0.375,0.125 -0.625,0.1875 -0.25,0.128906 -0.5,0.191406 -0.75,0.191406 -0.3125,0.0625 -0.625,0.125 -0.9375,0.125 -0.4375,0 -0.8125,-0.125 -1.25,-0.25 -0.375,-0.128906 -0.6875,-0.316406 -1.0625,-0.628906 -0.375,-0.316407 -0.75,-0.753907 -1.0625,-1.257813 -0.375,-0.5 -0.75,-1.066406 -1.125,-1.820313 -0.375,-0.691406 -0.75,-1.570312 -1.1875,-2.511718 -0.371093,-0.945313 -0.871093,-2.074219 -1.371093,-3.269532 l -0.3125,0.503907 v 5.339843 c 0,0.4375 -0.125,0.753907 -0.3125,0.941407 -0.25,0.1875 -0.625,0.316406 -1.0625,0.316406 -0.5,0 -0.875,-0.128906 -1.0625,-0.316406 -0.25,-0.1875 -0.375,-0.503907 -0.375,-0.941407 V 9.800781 c 0,-0.128906 0,-0.253906 -0.0625,-0.316406 0,-0.0625 -0.0625,-0.125 -0.125,-0.1875 0,-0.0625 -0.0625,-0.0625 -0.1875,-0.0625 -0.0625,-0.0625 -0.125,-0.0625 -0.1875,-0.0625 -0.125,0 -0.3125,0.0625 -0.5,0.0625 -0.1875,0.0625 -0.375,0.125 -0.5625,0.1875 -0.25,0.0625 -0.4375,0.1875 -0.625,0.3125 -0.25,0.128906 -0.4375,0.253906 -0.5625,0.378906 -0.1875,0.1875 -0.3125,0.3125 -0.4375,0.503907 -0.0625,0.1875 -0.125,0.375 -0.125,0.625 0,0.191406 0,0.316406 0.0625,0.441406 0.0625,0.125 0.125,0.1875 0.1875,0.25 0.0625,0.0625 0.125,0.0625 0.1875,0.0625 0.0625,0.0625 0.125,0.0625 0.125,0.0625 0.125,0 0.25,-0.0625 0.375,-0.0625 0.0625,-0.0625 0.1875,-0.125 0.25,-0.1875 0.0625,-0.0625 0.125,-0.125 0.1875,-0.125 0.0625,-0.0625 0.125,-0.125 0.25,-0.125 0.0625,0 0.125,0.0625 0.1875,0.0625 0.125,0.0625 0.1875,0.125 0.25,0.1875 0.0625,0.0625 0.125,0.125 0.125,0.25 0.0625,0.128906 0.125,0.253906 0.125,0.441406 0,0.1875 -0.0625,0.375 -0.1875,0.566406 -0.0625,0.1875 -0.1875,0.3125 -0.3125,0.4375 -0.125,0.0625 -0.3125,0.191406 -0.5,0.253906 -0.1875,0.0625 -0.375,0.0625 -0.5,0.0625 -0.3125,0 -0.5625,-0.0625 -0.75,-0.125 -0.25,-0.128906 -0.4375,-0.253906 -0.5625,-0.441406 -0.1875,-0.125 -0.3125,-0.3125 -0.375,-0.566406 -0.0625,-0.1875 -0.125,-0.4375 -0.125,-0.691406 0,-0.4375 0.0625,-0.753906 0.1875,-1.128906 0.1875,-0.3125 0.375,-0.628907 0.625,-0.878907 0.25,-0.253906 0.5625,-0.503906 0.875,-0.691406 0.3125,-0.1875 0.6875,-0.378906 1.0625,-0.503906 0.4375,-0.125 0.8125,-0.25 1.25,-0.3125 0.4375,-0.0625 0.875,-0.0625 1.25,-0.0625 0.5,0 0.875,0 1.125,0.125 0.25,0.0625 0.4375,0.1875 0.5625,0.3125 0.125,0.128906 0.1875,0.253906 0.25,0.378906 0,0.125 0,0.25 0,0.375 z m 0,0"
       id="path6" />
    <path
       style="fill:#ffffff;fill-opacity:1;fill-rule:nonzero;stroke:none"
       d="m 33.363281,17.335938 c 0,0.1875 0,0.441406 0.0625,0.628906 0.0625,0.1875 0.125,0.441406 0.25,0.628906 0.125,0.25 0.25,0.4375 0.375,0.628906 0.1875,0.25 0.3125,0.375 0.558594,0.5625 0.1875,0.128906 0.375,0.253906 0.625,0.378906 0.25,0.0625 0.5,0.125 0.8125,0.125 0.1875,0 0.375,0 0.5625,-0.0625 0.125,-0.0625 0.3125,-0.125 0.4375,-0.1875 0.1875,-0.0625 0.3125,-0.191406 0.4375,-0.316406 0.1875,-0.0625 0.3125,-0.1875 0.4375,-0.3125 l 0.1875,0.1875 c -0.125,0.1875 -0.25,0.378906 -0.5,0.628906 -0.1875,0.1875 -0.4375,0.375 -0.75,0.566407 -0.25,0.1875 -0.625,0.375 -1,0.5 -0.375,0.125 -0.8125,0.191406 -1.3125,0.191406 -0.496094,0 -0.996094,-0.128906 -1.496094,-0.316406 -0.4375,-0.1875 -0.875,-0.4375 -1.25,-0.816407 -0.375,-0.375 -0.6875,-0.816406 -0.875,-1.320312 -0.25,-0.5625 -0.3125,-1.191406 -0.3125,-1.945312 0,-0.503907 0.0625,-1.003907 0.1875,-1.445313 0.125,-0.441406 0.3125,-0.816406 0.5,-1.191406 0.25,-0.316407 0.5,-0.628907 0.8125,-0.882813 0.3125,-0.3125 0.625,-0.5 0.9375,-0.691406 0.375,-0.1875 0.6875,-0.3125 1.0625,-0.375 0.3125,-0.125 0.621094,-0.125 0.996094,-0.125 0.375,0 0.75,0 1.0625,0.125 0.3125,0.0625 0.625,0.1875 0.8125,0.375 0.1875,0.128906 0.375,0.316406 0.5,0.503906 0.0625,0.25 0.125,0.441406 0.125,0.691406 0,0.25 -0.0625,0.503907 -0.25,0.691407 -0.125,0.25 -0.375,0.4375 -0.625,0.566406 z m 1.746094,-1.757813 c 0.0625,0 0.125,-0.0625 0.1875,-0.125 0,0 0.0625,-0.0625 0.0625,-0.125 0.0625,-0.0625 0.0625,-0.128906 0.0625,-0.253906 0.0625,-0.0625 0.0625,-0.1875 0.0625,-0.3125 0,-0.125 0,-0.3125 -0.0625,-0.503907 0,-0.1875 -0.0625,-0.3125 -0.1875,-0.5 -0.0625,-0.128906 -0.125,-0.253906 -0.25,-0.378906 -0.125,-0.125 -0.25,-0.125 -0.4375,-0.125 -0.183594,0 -0.371094,0.0625 -0.496094,0.1875 -0.1875,0.125 -0.25,0.253906 -0.375,0.441406 -0.0625,0.1875 -0.1875,0.4375 -0.25,0.691407 0,0.25 -0.0625,0.5 -0.125,0.753906 0,0.25 0,0.5 0,0.753906 0,0.1875 0,0.375 0,0.5625 z m 0,0"
       id="path8" />
    <path
       style="fill:#ffffff;fill-opacity:1;fill-rule:nonzero;stroke:none"
       d="m 41.796875,20.539062 c 0,0.125 0,0.191407 -0.0625,0.316407 0,0.0625 -0.0625,0.1875 -0.1875,0.25 -0.0625,0.125 -0.1875,0.1875 -0.375,0.25 -0.1875,0.0625 -0.4375,0.128906 -0.75,0.128906 -0.3125,0 -0.5625,-0.06641 -0.6875,-0.128906 -0.1875,-0.0625 -0.3125,-0.125 -0.4375,-0.25 -0.0625,-0.125 -0.125,-0.1875 -0.125,-0.3125 0,-0.0625 0,-0.191407 0,-0.253907 V 9.359375 c 0,-0.125 -0.0625,-0.3125 -0.125,-0.441406 -0.125,-0.0625 -0.25,-0.125 -0.4375,-0.125 -0.0625,0 -0.1875,0 -0.25,0 -0.0625,0.0625 -0.125,0.125 -0.1875,0.191406 l -0.1875,-0.253906 c 0.125,-0.125 0.25,-0.1875 0.4375,-0.3125 0.1875,-0.125 0.3125,-0.1875 0.5,-0.253907 0.25,-0.125 0.4375,-0.1875 0.625,-0.25 0.25,0 0.4375,-0.0625 0.6875,-0.0625 0.375,0 0.6875,0.0625 0.875,0.1875 0.1875,0.0625 0.375,0.191407 0.4375,0.378907 0.125,0.125 0.1875,0.25 0.1875,0.4375 0.0625,0.191406 0.0625,0.316406 0.0625,0.441406 z m 0,0"
       id="path10" />
    <path
       style="fill:#ffffff;fill-opacity:1;fill-rule:nonzero;stroke:none"
       d="m 47.855469,16.835938 c 0,-0.128907 -0.0625,-0.253907 -0.1875,-0.316407 -0.0625,-0.0625 -0.1875,-0.125 -0.3125,-0.125 -0.25,0 -0.4375,0.0625 -0.5625,0.125 -0.1875,0.125 -0.375,0.25 -0.5,0.441407 -0.125,0.1875 -0.25,0.375 -0.3125,0.628906 -0.125,0.3125 -0.125,0.5625 -0.125,0.941406 0,0.3125 0,0.628906 0.0625,0.816406 0.0625,0.25 0.125,0.375 0.1875,0.566406 0.0625,0.125 0.1875,0.1875 0.3125,0.25 0.0625,0.0625 0.1875,0.0625 0.3125,0.0625 0.1875,0 0.3125,0 0.4375,-0.125 0.125,-0.0625 0.25,-0.1875 0.3125,-0.316406 0.125,-0.0625 0.1875,-0.25 0.25,-0.375 0.0625,-0.125 0.125,-0.316406 0.125,-0.441406 z m -1.375,-3.769532 c -0.1875,0 -0.375,0 -0.5625,0.0625 -0.1875,0.0625 -0.3125,0.125 -0.4375,0.1875 -0.125,0.0625 -0.1875,0.125 -0.25,0.1875 -0.125,0.125 -0.125,0.191406 -0.125,0.253906 0,0.125 0.0625,0.1875 0.125,0.1875 0.0625,0.0625 0.1875,0.0625 0.3125,0.125 0.125,0.0625 0.1875,0.125 0.3125,0.25 0.0625,0.0625 0.125,0.191407 0.125,0.378907 0,0.125 -0.0625,0.25 -0.0625,0.3125 -0.0625,0.125 -0.125,0.1875 -0.25,0.316406 -0.0625,0.0625 -0.1875,0.125 -0.25,0.1875 -0.125,0 -0.25,0.0625 -0.375,0.0625 -0.3125,0 -0.5625,-0.125 -0.75,-0.378906 -0.246094,-0.1875 -0.308594,-0.5 -0.308594,-0.878907 0,-0.3125 0.0625,-0.625 0.25,-0.878906 0.183594,-0.25 0.433594,-0.4375 0.746094,-0.628906 0.25,-0.125 0.625,-0.25 1,-0.375 0.375,-0.0625 0.75,-0.0625 1.125,-0.0625 0.4375,0 0.875,0 1.25,0.125 0.4375,0.0625 0.8125,0.25 1.125,0.441406 0.3125,0.25 0.5625,0.5 0.75,0.816406 0.1875,0.375 0.25,0.753907 0.25,1.191407 v 4.898437 c 0,0.06641 0,0.128906 0,0.191406 0,0.0625 0,0.125 0.0625,0.1875 0,0.0625 0.0625,0.0625 0.125,0.125 0,0 0.0625,0.0625 0.1875,0.0625 0.0625,0 0.1875,-0.0625 0.25,-0.125 0.125,-0.0625 0.1875,-0.1875 0.25,-0.25 l 0.25,0.1875 c -0.125,0.125 -0.1875,0.25 -0.3125,0.375 -0.125,0.128907 -0.3125,0.316407 -0.4375,0.441407 -0.1875,0.125 -0.375,0.1875 -0.625,0.3125 -0.25,0.0625 -0.5,0.128906 -0.8125,0.128906 -0.3125,0 -0.6875,-0.128906 -0.9375,-0.316406 -0.3125,-0.25 -0.5,-0.566407 -0.5625,-1.003907 -0.1875,0.25 -0.375,0.4375 -0.5625,0.628907 -0.1875,0.125 -0.375,0.25 -0.625,0.375 -0.1875,0.125 -0.375,0.1875 -0.625,0.25 -0.1875,0 -0.4375,0.06641 -0.625,0.06641 -0.25,0 -0.5625,-0.06641 -0.8125,-0.128906 -0.25,-0.125 -0.496094,-0.25 -0.683594,-0.4375 -0.1875,-0.1875 -0.375,-0.441407 -0.5,-0.691407 -0.125,-0.3125 -0.1875,-0.691406 -0.1875,-1.132812 0,-0.5 0.125,-0.941406 0.3125,-1.253906 0.25,-0.378906 0.5,-0.628906 0.808594,-0.878906 0.375,-0.253907 0.75,-0.441407 1.1875,-0.566407 0.4375,-0.1875 0.875,-0.3125 1.3125,-0.503906 0.3125,-0.125 0.5625,-0.375 0.6875,-0.625 0.1875,-0.253906 0.25,-0.503906 0.25,-0.816406 0,-0.378907 -0.125,-0.753907 -0.375,-1.007813 -0.25,-0.25 -0.5625,-0.375 -1,-0.375 z m 0,0"
       id="path12" />
    <path
       style="fill:#ffffff;fill-opacity:1;fill-rule:nonzero;stroke:none"
       d="m 55.476562,13.066406 c -0.125,0 -0.25,0 -0.375,0 -0.125,0.0625 -0.1875,0.125 -0.3125,0.1875 -0.0625,0.0625 -0.125,0.1875 -0.1875,0.3125 -0.0625,0.128906 -0.0625,0.253906 -0.0625,0.378906 0,0.25 0.0625,0.503907 0.25,0.691407 0.125,0.25 0.3125,0.4375 0.5625,0.691406 0.25,0.25 0.5,0.5 0.8125,0.753906 0.3125,0.25 0.5625,0.5 0.8125,0.816407 0.25,0.3125 0.4375,0.5625 0.5625,0.941406 0.1875,0.3125 0.25,0.628906 0.25,1.003906 0,0.441406 -0.0625,0.816406 -0.1875,1.132812 -0.125,0.3125 -0.3125,0.5625 -0.625,0.816407 -0.25,0.1875 -0.5625,0.375 -0.9375,0.5 -0.375,0.125 -0.75,0.191406 -1.25,0.191406 -0.375,0 -0.746093,-0.06641 -1.058593,-0.191406 -0.3125,-0.125 -0.625,-0.25 -0.8125,-0.375 -0.25,-0.1875 -0.5,-0.378907 -0.6875,-0.566407 -0.1875,-0.1875 -0.3125,-0.3125 -0.375,-0.503906 l 0.25,-0.1875 c 0.125,0.0625 0.1875,0.1875 0.3125,0.253906 0.125,0.125 0.25,0.1875 0.375,0.3125 0.125,0.0625 0.3125,0.125 0.4375,0.1875 0.1875,0.0625 0.375,0.0625 0.5,0.0625 0.433593,0 0.746093,-0.0625 1.058593,-0.25 0.25,-0.25 0.375,-0.503906 0.375,-0.941406 0,-0.191406 -0.0625,-0.441406 -0.25,-0.628906 -0.125,-0.25 -0.3125,-0.503906 -0.5,-0.753906 -0.25,-0.25 -0.496093,-0.503906 -0.746093,-0.753906 -0.25,-0.25 -0.4375,-0.566407 -0.6875,-0.816407 -0.1875,-0.3125 -0.375,-0.566406 -0.5625,-0.878906 -0.125,-0.316406 -0.1875,-0.628906 -0.1875,-0.941406 0,-0.378907 0.0625,-0.691407 0.1875,-0.945313 0.1875,-0.25 0.375,-0.5 0.625,-0.691406 0.25,-0.1875 0.5,-0.3125 0.8125,-0.375 0.308593,-0.125 0.621093,-0.125 0.996093,-0.125 0.375,0 0.6875,0 1.0625,0.0625 0.3125,0.0625 0.5625,0.1875 0.8125,0.3125 0.1875,0.191406 0.375,0.316406 0.5,0.566406 0.125,0.1875 0.1875,0.441406 0.1875,0.753906 0,0.1875 -0.0625,0.378907 -0.1875,0.566407 -0.1875,0.125 -0.375,0.25 -0.625,0.25 -0.25,0 -0.4375,-0.0625 -0.5625,-0.1875 -0.125,-0.125 -0.1875,-0.25 -0.1875,-0.441407 0,-0.125 0,-0.1875 0.0625,-0.3125 0.0625,-0.0625 0.125,-0.125 0.1875,-0.125 0.125,-0.0625 0.1875,-0.125 0.25,-0.125 0.0625,0 0.0625,-0.06641 0.0625,-0.128906 0,-0.1875 -0.0625,-0.3125 -0.25,-0.375 -0.1875,-0.125 -0.375,-0.125 -0.6875,-0.125 z m 0,0"
       id="path14" />
    <path
       style="fill:#ffffff;fill-opacity:1;fill-rule:nonzero;stroke:none"
       d="m 68.722656,21.484375 c -0.4375,0 -0.8125,-0.128906 -1.0625,-0.316406 -0.1875,-0.1875 -0.3125,-0.503907 -0.3125,-0.941407 V 9.234375 c -0.1875,0 -0.4375,0 -0.6875,0.0625 -0.3125,0.0625 -0.5625,0.125 -0.875,0.25 -0.3125,0.0625 -0.5625,0.1875 -0.875,0.316406 -0.3125,0.125 -0.5625,0.25 -0.8125,0.4375 -0.246094,0.1875 -0.433594,0.378907 -0.558594,0.566407 -0.1875,0.25 -0.25,0.4375 -0.25,0.691406 0,0.1875 0.0625,0.375 0.0625,0.4375 0.0625,0.128906 0.125,0.253906 0.1875,0.253906 0.0625,0.0625 0.125,0.125 0.1875,0.125 0.0625,0 0.125,0 0.125,0 0.183594,0 0.308594,0 0.371094,-0.0625 0.125,-0.0625 0.1875,-0.0625 0.25,-0.125 0.0625,-0.0625 0.125,-0.128906 0.1875,-0.191406 0.125,0 0.1875,-0.0625 0.25,-0.0625 0.0625,0 0.125,0 0.25,0.0625 0.0625,0 0.125,0.0625 0.1875,0.128906 0.0625,0.0625 0.125,0.1875 0.1875,0.3125 0,0.0625 0.0625,0.25 0.0625,0.375 0,0.253906 -0.0625,0.441406 -0.125,0.628906 -0.125,0.125 -0.25,0.316406 -0.375,0.378906 -0.125,0.125 -0.3125,0.1875 -0.4375,0.25 -0.1875,0.0625 -0.375,0.125 -0.5625,0.125 -0.308594,0 -0.558594,-0.0625 -0.746094,-0.1875 -0.25,-0.0625 -0.4375,-0.1875 -0.5625,-0.378906 -0.1875,-0.1875 -0.25,-0.375 -0.375,-0.5625 -0.0625,-0.253906 -0.125,-0.503906 -0.125,-0.753906 0,-0.628906 0.1875,-1.257812 0.5625,-1.757812 0.375,-0.441407 0.875,-0.882813 1.558594,-1.195313 0.625,-0.3125 1.375,-0.566406 2.25,-0.753906 0.8125,-0.125 1.75,-0.1875 2.6875,-0.1875 0.5,0 0.9375,0 1.375,0 0.4375,0 0.875,0 1.25,0 0.3125,0.0625 0.625,0.0625 0.9375,0.0625 0.25,0.0625 0.4375,0.0625 0.5625,0.125 0.125,0 0.1875,0.0625 0.25,0.125 0.0625,0.0625 0.121094,0.125 0.183594,0.1875 0,0.066406 0.0625,0.128906 0.0625,0.191406 0,0.0625 0,0.1875 0,0.25 0,0.0625 0,0.125 0,0.1875 0,0.125 -0.0625,0.1875 -0.0625,0.253906 -0.0625,0.0625 -0.121094,0.125 -0.121094,0.1875 -0.0625,0.0625 -0.125,0.0625 -0.25,0.0625 0,0 -0.0625,0 -0.125,0 -0.0625,-0.0625 -0.125,-0.125 -0.1875,-0.1875 -0.0625,-0.0625 -0.1875,-0.128906 -0.375,-0.191406 -0.125,-0.0625 -0.3125,-0.125 -0.5625,-0.1875 -0.25,-0.0625 -0.5,-0.125 -0.875,-0.1875 -0.3125,-0.0625 -0.75,-0.0625 -1.25,-0.125 v 11.054687 c 0,0.4375 -0.125,0.753907 -0.375,0.941407 -0.1875,0.1875 -0.5625,0.316406 -1.0625,0.316406 z m 0,0"
       id="path16" />
    <path
       style="fill:#ffffff;fill-opacity:1;fill-rule:nonzero;stroke:none"
       d="m 76.40625,20.539062 c 0,0.0625 0,0.191407 -0.0625,0.316407 0,0.0625 -0.0625,0.1875 -0.1875,0.25 -0.0625,0.125 -0.1875,0.1875 -0.375,0.25 -0.1875,0.0625 -0.4375,0.128906 -0.75,0.128906 -0.3125,0 -0.5625,-0.06641 -0.6875,-0.128906 -0.1875,-0.0625 -0.3125,-0.125 -0.375,-0.25 -0.125,-0.125 -0.183594,-0.1875 -0.183594,-0.3125 0,-0.0625 -0.0625,-0.191407 -0.0625,-0.253907 v -6.65625 c 0,-0.1875 0,-0.316406 -0.0625,-0.441406 -0.125,-0.125 -0.25,-0.1875 -0.4375,-0.1875 -0.0625,0 -0.1875,0 -0.25,0.0625 -0.0625,0 -0.125,0.0625 -0.1875,0.125 l -0.1875,-0.1875 c 0.125,-0.125 0.25,-0.25 0.4375,-0.378906 0.1875,-0.0625 0.3125,-0.1875 0.5,-0.25 0.1875,-0.0625 0.433594,-0.125 0.621094,-0.1875 0.25,-0.0625 0.4375,-0.0625 0.6875,-0.0625 0.375,0 0.6875,0 0.875,0.125 0.1875,0.125 0.375,0.25 0.4375,0.375 0.125,0.128906 0.1875,0.316406 0.1875,0.441406 0.0625,0.1875 0.0625,0.3125 0.0625,0.441406 z M 73.472656,10.363281 c 0,-0.125 0.0625,-0.3125 0.125,-0.4375 0.0625,-0.191406 0.1875,-0.316406 0.308594,-0.378906 0.125,-0.125 0.25,-0.1875 0.4375,-0.25 0.1875,-0.0625 0.375,-0.125 0.5625,-0.125 0.1875,0 0.375,0.0625 0.5625,0.125 0.125,0.0625 0.3125,0.125 0.4375,0.25 0.125,0.0625 0.1875,0.1875 0.25,0.378906 0.125,0.125 0.125,0.3125 0.125,0.4375 0,0.191407 0,0.316407 -0.125,0.503907 -0.0625,0.125 -0.125,0.25 -0.25,0.375 -0.125,0.0625 -0.3125,0.191406 -0.4375,0.253906 -0.1875,0.0625 -0.375,0.0625 -0.5625,0.0625 -0.1875,0 -0.375,0 -0.5625,-0.0625 -0.1875,-0.0625 -0.3125,-0.191406 -0.4375,-0.253906 -0.121094,-0.125 -0.246094,-0.25 -0.308594,-0.375 -0.0625,-0.1875 -0.125,-0.3125 -0.125,-0.503907 z m 0,0"
       id="path18" />
    <path
       style="fill:#ffffff;fill-opacity:1;fill-rule:nonzero;stroke:none"
       d="m 81.21875,20.539062 c 0,0.125 0,0.191407 -0.0625,0.316407 0,0.0625 -0.0625,0.1875 -0.125,0.25 -0.125,0.125 -0.25,0.1875 -0.4375,0.25 -0.1875,0.0625 -0.4375,0.128906 -0.75,0.128906 -0.3125,0 -0.5,-0.06641 -0.6875,-0.128906 -0.1875,-0.0625 -0.3125,-0.125 -0.375,-0.25 -0.125,-0.125 -0.125,-0.1875 -0.1875,-0.3125 0,-0.0625 0,-0.191407 0,-0.253907 V 9.359375 c 0,-0.125 -0.0625,-0.3125 -0.125,-0.441406 -0.0625,-0.0625 -0.1875,-0.125 -0.375,-0.125 -0.125,0 -0.1875,0 -0.25,0 -0.125,0.0625 -0.1875,0.125 -0.25,0.191406 l -0.1875,-0.253906 c 0.125,-0.125 0.3125,-0.1875 0.4375,-0.3125 0.1875,-0.125 0.375,-0.1875 0.5625,-0.253907 0.1875,-0.125 0.375,-0.1875 0.625,-0.25 0.1875,0 0.4375,-0.0625 0.6875,-0.0625 0.375,0 0.625,0.0625 0.8125,0.1875 0.25,0.0625 0.375,0.191407 0.5,0.378907 0.0625,0.125 0.125,0.25 0.1875,0.4375 0,0.191406 0,0.316406 0,0.441406 z m 0,0"
       id="path20" />
    <path
       style="fill:#ffffff;fill-opacity:1;fill-rule:nonzero;stroke:none"
       d="m 87.277344,16.835938 c 0,-0.128907 -0.0625,-0.253907 -0.125,-0.316407 -0.125,-0.0625 -0.25,-0.125 -0.375,-0.125 -0.1875,0 -0.375,0.0625 -0.5625,0.125 -0.1875,0.125 -0.375,0.25 -0.5,0.441407 -0.125,0.1875 -0.25,0.375 -0.3125,0.628906 -0.0625,0.3125 -0.125,0.5625 -0.125,0.941406 0,0.3125 0,0.628906 0.0625,0.816406 0.0625,0.25 0.125,0.375 0.1875,0.566406 0.125,0.125 0.1875,0.1875 0.3125,0.25 0.125,0.0625 0.25,0.0625 0.3125,0.0625 0.1875,0 0.3125,0 0.4375,-0.125 0.125,-0.0625 0.25,-0.1875 0.375,-0.316406 0.0625,-0.0625 0.1875,-0.25 0.1875,-0.375 0.0625,-0.125 0.125,-0.316406 0.125,-0.441406 z m -1.375,-3.769532 c -0.1875,0 -0.375,0 -0.5625,0.0625 -0.125,0.0625 -0.3125,0.125 -0.4375,0.1875 -0.125,0.0625 -0.1875,0.125 -0.25,0.1875 -0.0625,0.125 -0.125,0.191406 -0.125,0.253906 0,0.125 0.0625,0.1875 0.125,0.1875 0.125,0.0625 0.1875,0.0625 0.3125,0.125 0.125,0.0625 0.1875,0.125 0.3125,0.25 0.0625,0.0625 0.125,0.191407 0.125,0.378907 0,0.125 0,0.25 -0.0625,0.3125 -0.0625,0.125 -0.125,0.1875 -0.1875,0.316406 -0.125,0.0625 -0.1875,0.125 -0.3125,0.1875 -0.125,0 -0.25,0.0625 -0.375,0.0625 -0.3125,0 -0.5625,-0.125 -0.75,-0.378906 -0.183594,-0.1875 -0.308594,-0.5 -0.308594,-0.878907 0,-0.3125 0.125,-0.625 0.308594,-0.878906 0.125,-0.25 0.375,-0.4375 0.6875,-0.628906 0.3125,-0.125 0.625,-0.25 1,-0.375 0.375,-0.0625 0.75,-0.0625 1.125,-0.0625 0.4375,0 0.875,0 1.3125,0.125 0.375,0.0625 0.75,0.25 1.0625,0.441406 0.3125,0.25 0.5625,0.5 0.75,0.816406 0.1875,0.375 0.25,0.753907 0.25,1.191407 v 4.898437 c 0,0.06641 0,0.128906 0,0.191406 0.0625,0.0625 0.0625,0.125 0.0625,0.1875 0,0.0625 0.0625,0.0625 0.125,0.125 0,0 0.125,0.0625 0.1875,0.0625 0.125,0 0.1875,-0.0625 0.3125,-0.125 0.0625,-0.0625 0.125,-0.1875 0.1875,-0.25 l 0.25,0.1875 c -0.125,0.125 -0.1875,0.25 -0.3125,0.375 -0.125,0.128907 -0.25,0.316407 -0.4375,0.441407 -0.1875,0.125 -0.375,0.1875 -0.625,0.3125 -0.25,0.0625 -0.5,0.128906 -0.75,0.128906 -0.375,0 -0.6875,-0.128906 -1,-0.316406 -0.25,-0.25 -0.4375,-0.566407 -0.5625,-1.003907 -0.1875,0.25 -0.375,0.4375 -0.5625,0.628907 -0.1875,0.125 -0.375,0.25 -0.625,0.375 -0.1875,0.125 -0.375,0.1875 -0.625,0.25 -0.1875,0 -0.375,0.06641 -0.625,0.06641 -0.25,0 -0.5,-0.06641 -0.75,-0.128906 -0.3125,-0.125 -0.496094,-0.25 -0.746094,-0.4375 -0.1875,-0.1875 -0.3125,-0.441407 -0.4375,-0.691407 -0.125,-0.3125 -0.1875,-0.691406 -0.1875,-1.132812 0,-0.5 0.0625,-0.941406 0.3125,-1.253906 0.1875,-0.378906 0.4375,-0.628906 0.808594,-0.878906 0.3125,-0.253907 0.6875,-0.441407 1.125,-0.566407 0.4375,-0.1875 0.875,-0.3125 1.3125,-0.503906 0.3125,-0.125 0.5625,-0.375 0.75,-0.625 0.125,-0.253906 0.1875,-0.503906 0.1875,-0.816406 0,-0.378907 -0.125,-0.753907 -0.375,-1.007813 -0.25,-0.25 -0.5625,-0.375 -1,-0.375 z m 0,0"
       id="path22" />
    <path
       style="fill:#ffffff;fill-opacity:1;fill-rule:nonzero;stroke:none"
       d="m 102.64844,15.074219 c 0,-0.375 0,-0.691407 -0.0625,-0.941407 -0.0625,-0.25 -0.125,-0.4375 -0.1875,-0.628906 -0.0625,-0.125 -0.125,-0.25 -0.125,-0.375 -0.0625,-0.125 -0.125,-0.1875 -0.125,-0.316406 0,-0.0625 0.0625,-0.125 0.125,-0.1875 0.0625,-0.0625 0.125,-0.125 0.25,-0.1875 0.0625,0 0.1875,-0.0625 0.3125,-0.0625 0.0625,0 0.1875,0 0.25,0 0.125,0 0.25,0 0.30859,0.0625 0.125,0 0.1875,0.125 0.1875,0.25 0.0625,0.1875 0.125,0.378906 0.125,0.628906 0,0.3125 0,0.628906 0,0.878906 0,0.503907 0,0.941407 -0.0625,1.507813 -0.0625,0.503906 -0.125,1.066406 -0.25,1.570313 -0.0586,0.566406 -0.24609,1.066406 -0.43359,1.570312 -0.125,0.503906 -0.375,0.941406 -0.625,1.320312 -0.25,0.4375 -0.5,0.753907 -0.8125,0.941407 -0.3125,0.25 -0.6875,0.378906 -1.125,0.378906 -0.3125,0 -0.625002,-0.06641 -0.875002,-0.191406 -0.25,-0.125 -0.4375,-0.3125 -0.6875,-0.5625 -0.1875,-0.191407 -0.375,-0.503907 -0.5,-0.753907 -0.1875,-0.316406 -0.3125,-0.628906 -0.4375,-1.007812 -0.125,0.378906 -0.25,0.691406 -0.4375,1.007812 -0.1875,0.3125 -0.375,0.5625 -0.5625,0.753907 -0.1875,0.25 -0.4375,0.4375 -0.6875,0.5625 -0.25,0.125 -0.5625,0.191406 -0.8125,0.191406 -0.375,0 -0.6875,-0.06641 -1,-0.253906 -0.25,-0.125 -0.5,-0.375 -0.6875,-0.628907 -0.246094,-0.3125 -0.433594,-0.625 -0.558594,-1.003906 -0.1875,-0.3125 -0.3125,-0.691406 -0.4375,-1.128906 -0.0625,-0.378906 -0.1875,-0.816406 -0.25,-1.257812 -0.0625,-0.375 -0.125,-0.816407 -0.1875,-1.191407 -0.0625,-0.441406 -0.125,-0.820312 -0.125,-1.132812 -0.0625,-0.375 -0.0625,-0.628907 -0.125,-0.941407 0,-0.1875 -0.0625,-0.378906 -0.1875,-0.503906 -0.0625,-0.125 -0.1875,-0.1875 -0.375,-0.1875 -0.0625,0 -0.1875,0 -0.25,0.0625 -0.0625,0 -0.125,0.0625 -0.1875,0.125 l -0.1875,-0.1875 c 0.125,-0.125 0.25,-0.25 0.4375,-0.378906 0.125,-0.0625 0.3125,-0.1875 0.5,-0.25 0.1875,-0.0625 0.375,-0.125 0.625,-0.1875 0.1875,-0.0625 0.4375,-0.0625 0.6875,-0.0625 0.375,0 0.621094,0.0625 0.808594,0.125 0.25,0.125 0.375,0.3125 0.5,0.441406 0.125,0.1875 0.25,0.375 0.3125,0.5625 0,0.253906 0.0625,0.441406 0.0625,0.566406 0.125,0.878907 0.25,1.632813 0.3125,2.324219 0.125,0.628907 0.25,1.195313 0.3125,1.632813 0.125,0.441406 0.25,0.816406 0.375,1.003906 0.1875,0.253906 0.3125,0.378906 0.5,0.378906 0.125,0 0.25,-0.0625 0.375,-0.1875 0.125,-0.0625 0.1875,-0.253906 0.3125,-0.441406 0.125,-0.125 0.1875,-0.375 0.3125,-0.628906 0.0625,-0.25 0.125,-0.5625 0.25,-0.878906 -0.0625,-0.3125 -0.125,-0.628907 -0.1875,-0.941407 0,-0.3125 -0.0625,-0.628906 -0.125,-0.878906 0,-0.316406 -0.0625,-0.566406 -0.0625,-0.816406 0,-0.253907 -0.0625,-0.441407 -0.0625,-0.691407 -0.125,-0.503906 -0.0625,-0.941406 0.125,-1.195312 0.1875,-0.25 0.5625,-0.375 1.125,-0.375 0.25,0 0.4375,0 0.625,0.0625 0.1875,0 0.3125,0.125 0.4375,0.1875 0.0625,0.125 0.1875,0.316406 0.25,0.503906 0.0625,0.1875 0.125,0.5 0.1875,0.816406 0.0625,0.816407 0.187502,1.632813 0.312502,2.324219 0.0625,0.628907 0.1875,1.253907 0.3125,1.695313 0.125,0.441406 0.25,0.816406 0.375,1.066406 0.125,0.253906 0.3125,0.378906 0.5,0.378906 0.1875,0 0.375,-0.125 0.5,-0.378906 0.1875,-0.25 0.3125,-0.5625 0.4375,-0.941406 0.125,-0.4375 0.25,-0.878906 0.3125,-1.382813 0.0625,-0.5 0.0625,-1.066406 0.0625,-1.632812 z m 0,0"
       id="path24" />
    <path
       style="fill:#ffffff;fill-opacity:1;fill-rule:nonzero;stroke:none"
       d="m 109.20703,16.835938 c 0,-0.128907 -0.0625,-0.253907 -0.125,-0.316407 -0.125,-0.0625 -0.25,-0.125 -0.375,-0.125 -0.1875,0 -0.375,0.0625 -0.5625,0.125 -0.1875,0.125 -0.3125,0.25 -0.5,0.441407 -0.125,0.1875 -0.25,0.375 -0.3125,0.628906 -0.0625,0.3125 -0.125,0.5625 -0.125,0.941406 0,0.3125 0.0625,0.628906 0.0625,0.816406 0.0625,0.25 0.125,0.375 0.1875,0.566406 0.125,0.125 0.1875,0.1875 0.3125,0.25 0.125,0.0625 0.25,0.0625 0.375,0.0625 0.125,0 0.25,0 0.375,-0.125 0.125,-0.0625 0.25,-0.1875 0.375,-0.316406 0.0625,-0.0625 0.1875,-0.25 0.25,-0.375 0.0625,-0.125 0.0625,-0.316406 0.0625,-0.441406 z m -1.375,-3.769532 c -0.1875,0 -0.375,0 -0.5625,0.0625 -0.125,0.0625 -0.3125,0.125 -0.375,0.1875 -0.125,0.0625 -0.25,0.125 -0.3125,0.1875 -0.0625,0.125 -0.125,0.191406 -0.125,0.253906 0,0.125 0.0625,0.1875 0.125,0.1875 0.125,0.0625 0.1875,0.0625 0.3125,0.125 0.125,0.0625 0.25,0.125 0.3125,0.25 0.0625,0.0625 0.125,0.191407 0.125,0.378907 0,0.125 0,0.25 -0.0625,0.3125 -0.0625,0.125 -0.125,0.1875 -0.1875,0.316406 -0.125,0.0625 -0.1875,0.125 -0.3125,0.1875 -0.125,0 -0.25,0.0625 -0.375,0.0625 -0.3125,0 -0.5625,-0.125 -0.75,-0.378906 -0.1875,-0.1875 -0.3125,-0.5 -0.3125,-0.878907 0,-0.3125 0.125,-0.625 0.3125,-0.878906 0.1875,-0.25 0.375,-0.4375 0.6875,-0.628906 0.3125,-0.125 0.625,-0.25 1,-0.375 0.375,-0.0625 0.75,-0.0625 1.125,-0.0625 0.4375,0 0.875,0 1.3125,0.125 0.375,0.0625 0.75,0.25 1.0625,0.441406 0.3125,0.25 0.5625,0.5 0.75,0.816406 0.1875,0.375 0.25,0.753907 0.25,1.191407 v 4.898437 c 0,0.06641 0,0.128906 0.0625,0.191406 0,0.0625 0,0.125 0,0.1875 0.0625,0.0625 0.0625,0.0625 0.125,0.125 0.0625,0 0.125,0.0625 0.1875,0.0625 0.125,0 0.1875,-0.0625 0.3125,-0.125 0.0625,-0.0625 0.125,-0.1875 0.1875,-0.25 l 0.25,0.1875 c -0.0625,0.125 -0.1875,0.25 -0.3125,0.375 -0.125,0.128907 -0.25,0.316407 -0.4375,0.441407 -0.1875,0.125 -0.375,0.1875 -0.625,0.3125 -0.1875,0.0625 -0.5,0.128906 -0.75,0.128906 -0.375,0 -0.6875,-0.128906 -1,-0.316406 -0.25,-0.25 -0.4375,-0.566407 -0.5,-1.003907 -0.1875,0.25 -0.4375,0.4375 -0.625,0.628907 -0.1875,0.125 -0.375,0.25 -0.5625,0.375 -0.25,0.125 -0.4375,0.1875 -0.625,0.25 -0.25,0 -0.4375,0.06641 -0.625,0.06641 -0.3125,0 -0.5625,-0.06641 -0.8125,-0.128906 -0.25,-0.125 -0.5,-0.25 -0.6875,-0.4375 -0.25,-0.1875 -0.375,-0.441407 -0.5,-0.691407 -0.125,-0.3125 -0.1875,-0.691406 -0.1875,-1.132812 0,-0.5 0.0625,-0.941406 0.3125,-1.253906 0.1875,-0.378906 0.4375,-0.628906 0.8125,-0.878906 0.3125,-0.253907 0.6875,-0.441407 1.125,-0.566407 0.4375,-0.1875 0.875,-0.3125 1.3125,-0.503906 0.3125,-0.125 0.5625,-0.375 0.75,-0.625 0.125,-0.253906 0.1875,-0.503906 0.1875,-0.816406 0,-0.378907 -0.125,-0.753907 -0.375,-1.007813 -0.25,-0.25 -0.5625,-0.375 -1,-0.375 z m 0,0"
       id="path26" />
    <path
       style="fill:#ffffff;fill-opacity:1;fill-rule:nonzero;stroke:none"
       d="m 116.76563,14.007812 c 0.25,-0.3125 0.4375,-0.566406 0.75,-0.816406 0.0625,-0.125 0.1875,-0.25 0.375,-0.316406 0.125,-0.125 0.25,-0.1875 0.375,-0.25 0.1875,-0.125 0.3125,-0.1875 0.5,-0.1875 0.1875,-0.0625 0.375,-0.0625 0.5,-0.0625 0.4375,0 0.75,0.0625 1.0625,0.1875 0.3125,0.1875 0.5625,0.441406 0.75,0.753906 0.25,0.378906 0.375,0.816406 0.5,1.382813 0.125,0.628906 0.125,1.320312 0.125,2.199219 0,0.816406 -0.0625,1.570312 -0.1875,2.132812 -0.125,0.628906 -0.375,1.195312 -0.5625,1.632812 -0.25,0.378907 -0.5625,0.753907 -0.875,1.007813 -0.25,0.3125 -0.5625,0.5 -0.875,0.691406 -0.3125,0.125 -0.625,0.25 -0.9375,0.3125 -0.25,0.0625 -0.5,0.0625 -0.75,0.0625 l -0.0625,-0.3125 c 0.25,-0.0625 0.5,-0.191406 0.6875,-0.378906 0.1875,-0.1875 0.375,-0.4375 0.5,-0.816406 0.125,-0.4375 0.25,-0.941407 0.3125,-1.632813 0.0625,-0.628906 0.125,-1.507812 0.125,-2.574218 0,-0.753907 -0.0625,-1.320313 -0.125,-1.757813 -0.0625,-0.441406 -0.125,-0.753906 -0.25,-1.007813 -0.0625,-0.1875 -0.1875,-0.375 -0.3125,-0.4375 -0.1875,-0.0625 -0.3125,-0.125 -0.4375,-0.125 -0.1875,0 -0.3125,0.0625 -0.4375,0.1875 -0.125,0.0625 -0.25,0.1875 -0.3125,0.3125 -0.125,0.0625 -0.1875,0.1875 -0.25,0.316407 -0.0625,0.125 -0.125,0.1875 -0.1875,0.25 v 5.777343 c 0,0.0625 0,0.191407 0,0.316407 -0.0625,0.0625 -0.125,0.1875 -0.1875,0.25 -0.125,0.125 -0.25,0.1875 -0.375,0.25 -0.1875,0.0625 -0.4375,0.128906 -0.75,0.128906 -0.3125,0 -0.5625,-0.06641 -0.75,-0.128906 -0.125,-0.0625 -0.3125,-0.125 -0.375,-0.25 -0.0625,-0.125 -0.125,-0.1875 -0.1875,-0.3125 0,-0.0625 0,-0.191407 0,-0.253907 V 9.359375 c 0,-0.125 -0.0625,-0.3125 -0.125,-0.441406 -0.0625,-0.0625 -0.1875,-0.125 -0.375,-0.125 -0.125,0 -0.1875,0 -0.25,0 -0.125,0.0625 -0.1875,0.125 -0.2461,0.191406 l -0.1875,-0.253906 c 0.125,-0.125 0.3086,-0.1875 0.4336,-0.3125 0.1875,-0.125 0.375,-0.1875 0.5625,-0.253907 0.1875,-0.125 0.375,-0.1875 0.625,-0.25 0.1875,0 0.4375,-0.0625 0.6875,-0.0625 0.375,0 0.625,0.0625 0.8125,0.1875 0.25,0.0625 0.375,0.191407 0.5,0.378907 0.0625,0.125 0.125,0.25 0.1875,0.4375 0,0.191406 0,0.316406 0,0.441406 z m 0,0"
       id="path28" />
  </g>
</svg>
