<svg xmlns="http://www.w3.org/2000/svg" width="127.802" height="38.615" viewBox="0 0 95.852 28.961"><path style="fill:#2e82b8;fill-opacity:1;fill-rule:evenodd;stroke:none" d="M3.96 28.96V18.356L0 23.727zm0 0"/><path style="fill:#23a6d9;fill-opacity:1;fill-rule:evenodd;stroke:none" d="M0 0h84.016c6.523 0 11.836 5.324 11.836 11.863 0 6.54-5.313 11.864-11.836 11.864H0zm0 0"/><path style="fill:#fff;fill-opacity:1;fill-rule:nonzero;stroke:none" d="M19.945 10.043c.371-.516.7-1.027 1.024-1.45.328-.417.605-.792.886-1.12.23-.282.512-.559.747-.793.183-.188.418-.375.652-.516.23-.14.418-.23.652-.277.184-.047.418-.094.653-.094.558 0 .836.187.836.559v.187c0 .047-.047.094-.047.188-.047.046-.047.093-.09.14-.047.047-.094.047-.188.047-.047 0-.093 0-.14-.047-.047-.047-.14-.094-.235-.187-.047-.047-.183-.094-.277-.14a.883.883 0 0 0-.375-.095c-.137 0-.277.094-.465.188-.187.14-.418.281-.605.512a4.958 4.958 0 0 0-.7.703c-.234.28-.464.558-.699.886.653 1.45 1.211 2.711 1.727 3.786.465 1.074.93 1.96 1.304 2.66.418.746.79 1.261 1.118 1.59.37.37.699.511 1.07.511h.14c.094-.047.141-.047.188-.093.047 0 .094-.047.184-.047l.093.234a.772.772 0 0 1-.277.14c-.14.094-.281.141-.469.188a4.574 4.574 0 0 1-.558.14c-.184.048-.418.048-.653.048a2.77 2.77 0 0 1-.93-.141c-.28-.094-.558-.281-.84-.516-.28-.234-.51-.511-.792-.886-.23-.375-.512-.84-.793-1.356-.277-.558-.606-1.168-.883-1.867a83.71 83.71 0 0 1-1.027-2.477l-.23.375v3.97c0 .327-.094.562-.282.75-.187.136-.418.183-.793.183-.371 0-.605-.047-.793-.184-.183-.187-.277-.422-.277-.75V7.008c-.047-.047-.047-.094-.094-.094-.047-.047-.094-.094-.14-.094h-.184c-.094 0-.235 0-.375.047-.094.047-.278.047-.418.14-.14.048-.328.138-.469.231-.137.047-.277.188-.418.282a.7.7 0 0 0-.277.375.754.754 0 0 0-.14.418c0 .14.046.28.046.328.047.093.094.14.137.187.047.047.093.094.14.094h.094c.14 0 .234 0 .281-.047.094-.047.137-.047.184-.094l.14-.14c.094-.047.141-.047.188-.047.047 0 .094 0 .188.047.046 0 .09.046.136.093.047.047.094.141.14.235.048.047.048.187.048.281 0 .184-.047.324-.094.465-.094.094-.14.234-.277.281-.094.094-.235.14-.328.188-.141.046-.278.093-.418.093a1.22 1.22 0 0 1-.559-.14.683.683 0 0 1-.422-.282c-.14-.14-.183-.28-.277-.421a2.29 2.29 0 0 1-.094-.559c0-.281.094-.563.188-.793.09-.234.23-.469.418-.656.187-.235.417-.371.652-.559.281-.14.558-.234.84-.328.277-.14.605-.187.883-.234.328-.047.652-.094.98-.094.324 0 .605.047.793.094.184.093.371.14.465.234.094.14.14.234.14.328s.047.188.047.235zm0 0"/><path style="fill:#fff;fill-opacity:1;fill-rule:nonzero;stroke:none" d="M27.633 12.89c0 .141.047.282.094.47 0 .14.093.28.14.464.09.14.184.328.278.469.14.14.28.281.418.375.14.137.328.23.468.277.184.094.418.14.606.14.14 0 .277-.046.418-.093.14 0 .234-.047.375-.14a3.19 3.19 0 0 0 .324-.184c.094-.094.187-.188.281-.234l.184.14c-.09.14-.23.278-.371.418a4.938 4.938 0 0 1-.559.469c-.234.14-.512.234-.793.328-.281.09-.605.137-.976.137-.375 0-.747-.047-1.122-.184a2.9 2.9 0 0 1-.93-.61c-.28-.28-.468-.605-.652-1.027a4.178 4.178 0 0 1-.234-1.402c0-.418.047-.746.14-1.074.094-.324.231-.606.419-.887.14-.281.328-.512.558-.699.235-.188.469-.375.746-.469.235-.14.465-.234.746-.324.235-.047.512-.094.747-.094.324 0 .605.047.84.094.23.09.417.184.558.277.187.141.277.282.371.422.094.14.094.328.094.465 0 .234-.047.375-.14.563-.138.14-.278.28-.466.421zm1.305-1.308c.046-.047.093-.047.14-.094.047-.043.047-.09.094-.136 0-.047.043-.094.043-.141v-.281c0-.094 0-.188-.043-.328a.865.865 0 0 0-.094-.372.48.48 0 0 0-.234-.28c-.094-.095-.188-.141-.282-.141-.183 0-.277.046-.417.14a2.336 2.336 0 0 0-.278.375c-.047.137-.094.324-.14.512-.047.187-.094.375-.094.562-.047.184-.047.372-.047.512v.469zM33.922 15.273v.188a1.2 1.2 0 0 1-.137.234.713.713 0 0 1-.328.184c-.14.047-.324.047-.559.047-.187 0-.375 0-.511-.047a.68.68 0 0 1-.282-.184c-.093-.093-.093-.187-.14-.234v-8.5a.677.677 0 0 0-.094-.328c-.043-.094-.137-.14-.277-.14-.094 0-.14 0-.188.046-.093 0-.14.047-.187.094l-.137-.14c.094-.095.23-.188.324-.235.14-.094.282-.188.422-.235.137-.043.277-.09.465-.136.14-.047.324-.047.512-.047.28 0 .465.047.652.094.14.09.234.183.328.277.043.094.09.234.137.375v.328zM38.441 12.52a.356.356 0 0 0-.09-.235c-.093-.094-.187-.094-.28-.094-.141 0-.282.047-.419.094-.14.047-.28.188-.375.324-.093.094-.183.282-.23.47a2.83 2.83 0 0 0-.094.698c0 .235 0 .422.047.61.047.14.094.281.137.37.093.095.14.188.234.235.094 0 .188.047.281.047.094 0 .184-.047.278-.094.093-.047.187-.14.28-.23.048-.094.142-.188.188-.281 0-.141.043-.235.043-.375zm-1.023-2.852c-.14 0-.281.047-.418.094a.869.869 0 0 0-.328.093l-.188.188a.347.347 0 0 0-.09.187c0 .047.044.094.09.141.094 0 .141.043.235.09.093.047.14.094.234.14.047.094.094.188.094.329 0 .093 0 .14-.047.234s-.094.14-.14.188c-.094.046-.141.093-.235.136-.094.047-.187.047-.277.047a.773.773 0 0 1-.563-.23c-.137-.188-.23-.375-.23-.657 0-.277.093-.464.23-.652.14-.187.281-.375.516-.469.23-.14.465-.234.746-.277.277-.047.558-.094.836-.094.328 0 .652.047.98.137.278.047.559.187.793.328.23.14.418.375.559.61.14.23.183.511.183.886v3.64c0 .048 0 .095.047.141v.094c.047.047.047.094.094.094.047.047.094.047.14.047.094 0 .141 0 .235-.094.047-.047.094-.094.137-.14l.187.093c-.047.094-.14.188-.23.328-.094.094-.188.188-.328.282-.14.093-.282.187-.465.234-.14.09-.375.09-.559.09-.281 0-.515-.047-.746-.23-.187-.141-.328-.376-.422-.75-.136.187-.277.374-.418.468-.14.14-.28.234-.418.328-.187.047-.328.137-.468.137-.184.047-.325.047-.512.047-.188 0-.371 0-.559-.09a.915.915 0 0 1-.511-.281c-.188-.14-.282-.328-.375-.563a2.003 2.003 0 0 1-.137-.793c0-.422.043-.746.23-.98.14-.235.328-.469.606-.61.234-.183.511-.324.84-.464.328-.094.652-.235.98-.375.23-.094.418-.235.559-.418.093-.188.136-.422.136-.61 0-.328-.09-.558-.277-.746-.187-.187-.418-.328-.746-.328zM44.176 9.668c-.094 0-.188 0-.281.047-.094.047-.188.047-.235.14-.09.047-.137.141-.183.188-.047.094-.047.234-.047.328 0 .184.047.324.187.512.137.14.278.328.465.515.188.184.371.372.559.559.234.188.418.375.605.61.188.183.328.417.465.652.094.234.187.511.187.793 0 .281-.046.562-.187.793-.09.234-.23.468-.418.61a1.75 1.75 0 0 1-.7.42c-.28.044-.605.09-.933.09-.324 0-.558 0-.789-.09a2.08 2.08 0 0 1-.652-.327c-.188-.14-.375-.235-.469-.375-.137-.14-.23-.281-.324-.375l.234-.184c.043.094.137.14.184.23.094.048.187.141.281.188.14.094.23.14.371.188.094.047.234.047.375.047.277 0 .559-.094.746-.235.184-.14.278-.37.278-.652 0-.14-.047-.328-.141-.516-.137-.14-.23-.324-.418-.511-.14-.188-.328-.376-.512-.563-.187-.23-.375-.418-.558-.652a4.28 4.28 0 0 1-.375-.61 1.3 1.3 0 0 1-.188-.699c0-.281.047-.512.188-.746.093-.188.234-.328.422-.469.183-.14.417-.234.652-.324a3.54 3.54 0 0 1 .695-.094c.281 0 .563.047.793.094.234.043.422.137.606.23.187.094.28.235.375.375.093.188.14.375.14.56 0 .187-.047.327-.14.42-.094.142-.282.188-.465.188a.936.936 0 0 1-.422-.093.426.426 0 0 1-.14-.328.34.34 0 0 1 .093-.23c0-.048.094-.095.14-.142.047 0 .094-.046.141-.046.047-.047.047-.094.047-.094 0-.14-.047-.235-.187-.328a1.17 1.17 0 0 0-.465-.094zM54.055 15.926c-.375 0-.653-.047-.793-.184-.188-.187-.282-.422-.282-.75V6.82c-.136 0-.277.047-.511.094-.188.047-.418.094-.606.14-.234.09-.465.137-.699.231-.234.14-.418.235-.605.375-.141.094-.282.235-.418.422a.922.922 0 0 0-.141.512c0 .14 0 .234.047.328 0 .094.047.14.094.187.046.047.09.047.183.094h.094c.094 0 .187 0 .234-.047.094-.047.141-.094.188-.14.09-.047.137-.047.183-.094.047-.047.094-.047.141-.047h.188l.14.14c.043.047.09.094.137.188.047.09.047.184.047.324 0 .141-.047.328-.094.422-.047.14-.137.235-.23.328-.141.094-.235.137-.375.184-.137.047-.278.047-.418.047-.188 0-.372 0-.559-.094-.14-.09-.281-.184-.422-.277-.09-.14-.183-.282-.23-.469-.094-.14-.094-.328-.094-.512 0-.515.14-.937.418-1.308.281-.375.652-.657 1.121-.934a5.423 5.423 0 0 1 1.676-.516c.652-.14 1.304-.187 2.05-.187h1.024c.328.047.605.047.887.047.28 0 .511.047.699.047.187 0 .324.047.418.047.094.046.187.046.234.093.047.047.094.094.094.14.047.048.047.095.047.188 0 .047.047.094.047.141 0 .094-.047.14-.047.188 0 .043-.047.136-.047.183-.047.047-.047.094-.094.14-.047.048-.094.048-.14.048-.047 0-.094 0-.094-.047-.047-.047-.094-.047-.184-.094-.047-.047-.14-.094-.234-.14a1.502 1.502 0 0 0-.465-.184 2.165 2.165 0 0 0-.652-.094 4.79 4.79 0 0 0-.934-.094v8.172c0 .328-.094.563-.234.75-.184.137-.465.184-.79.184zM60.203 12.52a.358.358 0 0 0-.094-.235c-.09-.094-.183-.094-.277-.094-.14 0-.281.047-.418.094-.14.047-.281.188-.375.324-.094.094-.187.282-.234.47-.047.187-.09.421-.09.698 0 .235 0 .422.043.61.047.14.094.281.14.37.094.095.141.188.235.235.094 0 .14.047.234.047.137 0 .23-.047.324-.094s.188-.14.282-.23c.047-.094.093-.188.136-.281.047-.141.094-.235.094-.375zM59.18 9.668c-.14 0-.282.047-.422.094-.09 0-.23.047-.324.093-.094.047-.141.141-.188.188a.355.355 0 0 0-.094.187c0 .047.047.094.094.141.094 0 .14.043.234.09s.141.094.235.14c.043.094.09.188.09.329 0 .093-.047.14-.047.234a.581.581 0 0 1-.137.188c-.094.046-.14.093-.234.136-.094.047-.188.047-.282.047a.77.77 0 0 1-.558-.23c-.137-.188-.23-.375-.23-.657 0-.277.046-.464.183-.652.14-.187.328-.375.562-.469.231-.14.465-.234.743-.277.28-.047.562-.094.84-.094.328 0 .652.047.933.137.324.047.606.187.836.328.234.14.422.375.563.61.136.23.183.511.183.886v3.781c0 .047.047.094.047.094a.1.1 0 0 0 .094.094c0 .047.047.047.14.047.047 0 .141 0 .188-.094.09-.047.137-.094.183-.14l.188.093c-.094.094-.14.188-.234.328-.09.094-.23.188-.325.282-.14.093-.28.187-.464.234-.188.09-.375.09-.563.09-.277 0-.512-.047-.742-.23-.188-.141-.328-.376-.422-.75-.14.187-.277.374-.418.468-.14.14-.281.234-.465.328-.14.047-.281.137-.469.137-.14.047-.277.047-.464.047-.188 0-.371 0-.606-.09-.187-.047-.328-.14-.512-.281a1.686 1.686 0 0 1-.375-.563c-.046-.234-.093-.465-.093-.793 0-.422.047-.746.234-.98.14-.235.328-.469.605-.61.235-.183.512-.324.84-.464.325-.094.653-.235.977-.375.234-.094.422-.235.562-.418.09-.188.137-.422.137-.61 0-.328-.094-.558-.277-.746-.188-.187-.422-.328-.746-.328zM65.844 10.371c.136-.234.324-.422.511-.61.094-.046.188-.14.282-.234.09-.047.23-.093.324-.187.14-.047.234-.09.371-.137.14 0 .234-.047.375-.047.277 0 .559.047.793.184.23.094.418.281.559.562.14.235.277.606.37 1.028.048.422.094.98.094 1.59a8.17 8.17 0 0 1-.14 1.632c-.137.47-.278.84-.465 1.168-.188.328-.371.606-.606.793-.234.188-.464.375-.699.469-.234.14-.418.234-.652.281-.188 0-.371.047-.559.047l-.047-.281c.188-.047.372-.094.512-.234.14-.141.281-.329.375-.653.09-.281.184-.703.23-1.168.048-.515.094-1.168.094-1.918 0-.558-.046-.98-.093-1.304-.047-.329-.094-.563-.184-.75-.094-.188-.187-.278-.281-.325-.094-.047-.188-.093-.281-.093a.675.675 0 0 0-.325.093c-.093.094-.187.137-.28.23l-.142.282c-.042.047-.09.14-.136.188v4.296c0 .047 0 .094-.047.188 0 .094-.047.14-.094.234-.094.047-.187.14-.328.184-.137.047-.277.047-.512.047-.23 0-.418 0-.558-.047a.68.68 0 0 1-.282-.184c-.09-.093-.09-.187-.136-.234v-8.5a.677.677 0 0 0-.094-.328.426.426 0 0 0-.328-.14c-.047 0-.094 0-.184.046-.047 0-.093.047-.14.094L63 6.493c.094-.095.188-.188.328-.235.137-.094.23-.188.371-.235.188-.043.324-.09.465-.136.188-.047.328-.047.512-.047.281 0 .515.047.652.094.188.09.281.183.375.277a.883.883 0 0 1 .094.375c.047.094.047.234.047.328zM72.926 9.668c-.094 0-.188 0-.281.047-.094.047-.184.047-.23.14-.048.047-.142.141-.142.188a.869.869 0 0 0-.093.328c0 .184.093.324.187.512.14.14.278.328.465.515.188.184.371.372.606.559.187.188.374.375.558.61.188.183.375.417.469.652.137.234.183.511.183.793 0 .281-.046.562-.136.793-.14.234-.282.468-.469.61a1.75 1.75 0 0 1-.7.42c-.277.044-.605.09-.929.09-.281 0-.559 0-.793-.09-.234-.093-.465-.187-.652-.327-.188-.14-.328-.235-.465-.375-.14-.14-.234-.281-.328-.375l.234-.184c.047.094.14.14.23.23.094.048.188.141.282.188.094.094.187.14.324.188.14.047.234.047.375.047.324 0 .559-.094.746-.235a.82.82 0 0 0 .324-.652c0-.14-.093-.328-.183-.516a3.416 3.416 0 0 0-.422-.511 5.56 5.56 0 0 0-.512-.563c-.187-.23-.37-.418-.511-.652a2.383 2.383 0 0 1-.422-.61 1.92 1.92 0 0 1-.137-.699c0-.281.047-.512.137-.746.14-.188.28-.328.468-.469.137-.14.371-.234.606-.324a3.54 3.54 0 0 1 .7-.094c.323 0 .558.047.788.094.234.043.469.137.61.23.183.094.324.235.417.375.094.188.141.375.141.56a.594.594 0 0 1-.187.42c-.094.142-.235.188-.418.188-.188 0-.329-.046-.47-.093a.422.422 0 0 1-.136-.328c0-.094.043-.188.09-.23l.14-.142c.047 0 .094-.046.141-.046l.094-.094c0-.14-.094-.235-.188-.328a1.66 1.66 0 0 0-.511-.094zM77.91 15.273c0 .047-.047.094-.047.188s-.047.14-.136.234c-.047.047-.188.14-.282.184-.14.047-.324.047-.558.047-.235 0-.418 0-.512-.047-.14-.043-.234-.137-.328-.184-.047-.093-.094-.187-.094-.234 0-.094-.047-.14-.047-.188v-4.996c0-.093 0-.234-.09-.328-.046-.047-.14-.094-.28-.094h-.188l-.141.141-.137-.187c.094-.047.184-.141.325-.235.093-.094.234-.14.375-.187.136-.094.324-.137.464-.184.188 0 .325-.047.512-.047.281 0 .512.047.652.137.141.047.282.14.329.281.09.094.136.188.136.328 0 .141.047.235.047.328zm-2.187-7.566c0-.14.047-.234.093-.375.043-.094.137-.187.23-.277.095-.047.188-.14.329-.188.094-.047.23-.047.418-.047.14 0 .281 0 .371.047.14.047.234.14.375.188.094.09.14.183.188.277.046.14.09.234.09.375a.861.861 0 0 1-.09.328c-.047.14-.094.184-.188.278-.14.093-.234.14-.375.187a.85.85 0 0 1-.371.094.917.917 0 0 1-.418-.094.756.756 0 0 1-.328-.188c-.094-.093-.188-.136-.23-.277a.869.869 0 0 1-.094-.328zM83.27 12.656c0-.558 0-.98-.047-1.304-.047-.329-.141-.563-.184-.75-.094-.188-.187-.278-.281-.325-.094-.047-.188-.093-.328-.093-.09 0-.23.046-.325.093-.093.094-.187.137-.234.23-.094.095-.137.188-.183.282-.047.047-.094.14-.141.188v4.484c-.047.094-.047.14-.14.234a.68.68 0 0 1-.282.184c-.137.047-.324.047-.559.047-.23 0-.37 0-.511-.047-.14-.043-.235-.137-.325-.184-.046-.093-.093-.187-.093-.234-.047-.094-.047-.14-.047-.188v-4.996a.869.869 0 0 0-.094-.328c-.047-.047-.14-.094-.281-.094h-.184a.647.647 0 0 1-.187.141l-.14-.187c.14-.047.234-.141.374-.235.09-.094.23-.14.371-.187.14-.094.281-.137.465-.184.14 0 .328-.047.512-.047.281 0 .469.047.652.137.14.094.235.187.328.328.094.14.14.281.14.422v.328a7.19 7.19 0 0 1 .56-.61c.093-.046.187-.14.28-.234.09-.047.184-.093.325-.187.094-.047.234-.09.328-.137.137 0 .277-.047.418-.047.277 0 .559.047.746.184.23.094.418.281.606.562.14.235.23.606.324 1.028.094.422.14.98.14 1.59 0 .652-.046 1.164-.187 1.632-.09.47-.23.84-.418 1.168-.188.328-.371.606-.605.793-.235.188-.465.375-.7.469-.234.14-.465.234-.652.281-.234 0-.418.047-.559.047l-.093-.281c.14 0 .28-.047.37-.14a.796.796 0 0 0 .282-.282c.094-.094.187-.281.234-.465.094-.187.137-.422.184-.703.047-.281.094-.652.14-1.027v-1.356zm0 0"/></svg>