<?xml version="1.0" encoding="UTF-8" standalone="no"?>
<svg
   xmlns:dc="http://purl.org/dc/elements/1.1/"
   xmlns:cc="http://creativecommons.org/ns#"
   xmlns:rdf="http://www.w3.org/1999/02/22-rdf-syntax-ns#"
   xmlns:svg="http://www.w3.org/2000/svg"
   xmlns="http://www.w3.org/2000/svg"
   xmlns:sodipodi="http://sodipodi.sourceforge.net/DTD/sodipodi-0.dtd"
   xmlns:inkscape="http://www.inkscape.org/namespaces/inkscape"
   width="286.30078pt"
   height="89.253906pt"
   viewBox="0 0 300.30078 94.253906"
   version="1.1"
   id="svg263"
   sodipodi:docname="CardAlquran.svg"
   inkscape:version="1.0.1 (3bc2e813f5, 2020-09-07)">
  <metadata
     id="metadata267">
    <rdf:RDF>
      <cc:Work
         rdf:about="">
        <dc:format>image/svg+xml</dc:format>
        <dc:type
           rdf:resource="http://purl.org/dc/dcmitype/StillImage" />
      </cc:Work>
    </rdf:RDF>
  </metadata>
  <sodipodi:namedview
     pagecolor="#ffffff"
     bordercolor="#666666"
     borderopacity="1"
     objecttolerance="10"
     gridtolerance="10"
     guidetolerance="10"
     inkscape:pageopacity="0"
     inkscape:pageshadow="2"
     inkscape:window-width="1920"
     inkscape:window-height="1001"
     id="namedview265"
     showgrid="false"
     inkscape:zoom="3.0375"
     inkscape:cx="200"
     inkscape:cy="63.333333"
     inkscape:window-x="-9"
     inkscape:window-y="-9"
     inkscape:window-maximized="1"
     inkscape:current-layer="svg263" />
  <defs
     id="defs114">
    <clipPath
       id="clip1">
      <path
         d="M 0,0 H 196 V 95 H 0 Z m 0,0"
         id="path2" />
    </clipPath>
    <clipPath
       id="clip2">
      <path
         d="M 16.054688,0 H 284.24609 c 8.83985,0 16.05469,7.273438 16.05469,16.125 v 62.003906 c 0,8.847656 -7.21484,16.125 -16.05469,16.125 H 16.054688 C 7.214844,94.253906 0,86.976562 0,78.128906 V 16.125 C 0,7.273438 7.214844,0 16.054688,0 Z m 0,0"
         id="path5" />
    </clipPath>
    <clipPath
       id="clip3">
      <path
         d="M 0,0 H 185 V 95 H 0 Z m 0,0"
         id="path8" />
    </clipPath>
    <clipPath
       id="clip4">
      <path
         d="M 16.054688,0 H 284.24609 c 8.83985,0 16.05469,7.273438 16.05469,16.125 v 62.003906 c 0,8.847656 -7.21484,16.125 -16.05469,16.125 H 16.054688 C 7.214844,94.253906 0,86.976562 0,78.128906 V 16.125 C 0,7.273438 7.214844,0 16.054688,0 Z m 0,0"
         id="path11" />
    </clipPath>
    <clipPath
       id="clip5">
      <path
         d="M 34,78 H 57 V 95 H 34 Z m 0,0"
         id="path14" />
    </clipPath>
    <clipPath
       id="clip6">
      <path
         d="M 16.054688,0 H 284.24609 c 8.83985,0 16.05469,7.273438 16.05469,16.125 v 62.003906 c 0,8.847656 -7.21484,16.125 -16.05469,16.125 H 16.054688 C 7.214844,94.253906 0,86.976562 0,78.128906 V 16.125 C 0,7.273438 7.214844,0 16.054688,0 Z m 0,0"
         id="path17" />
    </clipPath>
    <clipPath
       id="clip7">
      <path
         d="M 58,78 H 82 V 95 H 58 Z m 0,0"
         id="path20" />
    </clipPath>
    <clipPath
       id="clip8">
      <path
         d="M 16.054688,0 H 284.24609 c 8.83985,0 16.05469,7.273438 16.05469,16.125 v 62.003906 c 0,8.847656 -7.21484,16.125 -16.05469,16.125 H 16.054688 C 7.214844,94.253906 0,86.976562 0,78.128906 V 16.125 C 0,7.273438 7.214844,0 16.054688,0 Z m 0,0"
         id="path23" />
    </clipPath>
    <clipPath
       id="clip9">
      <path
         d="M 34,61 H 82 V 84 H 34 Z m 0,0"
         id="path26" />
    </clipPath>
    <clipPath
       id="clip10">
      <path
         d="M 16.054688,0 H 284.24609 c 8.83985,0 16.05469,7.273438 16.05469,16.125 v 62.003906 c 0,8.847656 -7.21484,16.125 -16.05469,16.125 H 16.054688 C 7.214844,94.253906 0,86.976562 0,78.128906 V 16.125 C 0,7.273438 7.214844,0 16.054688,0 Z m 0,0"
         id="path29" />
    </clipPath>
    <clipPath
       id="clip11">
      <path
         d="m 36.230469,61.515625 21.53125,10.804687 21.53125,-10.804687 1.953125,6.785156 -1.195313,4.617188 -22.183593,10.910156 c 0,0 -20.5,-10.261719 -20.714844,-9.664063 -0.273438,0.597657 -2.117188,-1.574218 -2.117188,-1.574218 0,0 0.273438,-8.6875 -0.269531,-8.6875 -0.488281,0 1.464844,-2.386719 1.464844,-2.386719 z m 0,0"
         id="path32" />
    </clipPath>
    <clipPath
       id="clip12">
      <path
         d="M 57,61 H 82 V 83 H 57 Z m 0,0"
         id="path35" />
    </clipPath>
    <clipPath
       id="clip13">
      <path
         d="M 16.054688,0 H 284.24609 c 8.83985,0 16.05469,7.273438 16.05469,16.125 v 62.003906 c 0,8.847656 -7.21484,16.125 -16.05469,16.125 H 16.054688 C 7.214844,94.253906 0,86.976562 0,78.128906 V 16.125 C 0,7.273438 7.214844,0 16.054688,0 Z m 0,0"
         id="path38" />
    </clipPath>
    <clipPath
       id="clip14">
      <path
         d="m 36.230469,61.515625 21.53125,10.804687 21.53125,-10.804687 1.953125,6.785156 -1.195313,4.617188 -22.183593,10.910156 c 0,0 -20.5,-10.261719 -20.714844,-9.664063 -0.273438,0.597657 -2.117188,-1.574218 -2.117188,-1.574218 0,0 0.273438,-8.6875 -0.269531,-8.6875 -0.488281,0 1.464844,-2.386719 1.464844,-2.386719 z m 0,0"
         id="path41" />
    </clipPath>
    <clipPath
       id="clip15">
      <path
         d="M 40,56 H 76 V 77 H 40 Z m 0,0"
         id="path44" />
    </clipPath>
    <clipPath
       id="clip16">
      <path
         d="M 16.054688,0 H 284.24609 c 8.83985,0 16.05469,7.273438 16.05469,16.125 v 62.003906 c 0,8.847656 -7.21484,16.125 -16.05469,16.125 H 16.054688 C 7.214844,94.253906 0,86.976562 0,78.128906 V 16.125 C 0,7.273438 7.214844,0 16.054688,0 Z m 0,0"
         id="path47" />
    </clipPath>
    <clipPath
       id="clip17">
      <path
         d="m 40.40625,58.527344 1.789062,-1.789063 c 5.261719,0.542969 10.46875,3.472657 15.671876,9.28125 5.207031,-5.808593 10.46875,-8.738281 15.675781,-9.28125 l 2.332031,2.222657 -1.191406,9.71875 -17.085938,8.308593 -16.8125,-10.152343 z m 0,0"
         id="path50" />
    </clipPath>
    <clipPath
       id="clip18">
      <path
         d="M 57,56 H 76 V 77 H 57 Z m 0,0"
         id="path53" />
    </clipPath>
    <clipPath
       id="clip19">
      <path
         d="M 16.054688,0 H 284.24609 c 8.83985,0 16.05469,7.273438 16.05469,16.125 v 62.003906 c 0,8.847656 -7.21484,16.125 -16.05469,16.125 H 16.054688 C 7.214844,94.253906 0,86.976562 0,78.128906 V 16.125 C 0,7.273438 7.214844,0 16.054688,0 Z m 0,0"
         id="path56" />
    </clipPath>
    <clipPath
       id="clip20">
      <path
         d="m 40.40625,58.527344 1.789062,-1.789063 c 5.261719,0.542969 10.46875,3.472657 15.671876,9.28125 5.207031,-5.808593 10.46875,-8.738281 15.675781,-9.28125 l 2.332031,2.222657 -1.191406,9.71875 -17.085938,8.308593 -16.8125,-10.152343 z m 0,0"
         id="path59" />
    </clipPath>
    <clipPath
       id="clip21">
      <path
         d="M 34,61 H 82 V 95 H 34 Z m 0,0"
         id="path62" />
    </clipPath>
    <clipPath
       id="clip22">
      <path
         d="M 16.054688,0 H 284.24609 c 8.83985,0 16.05469,7.273438 16.05469,16.125 v 62.003906 c 0,8.847656 -7.21484,16.125 -16.05469,16.125 H 16.054688 C 7.214844,94.253906 0,86.976562 0,78.128906 V 16.125 C 0,7.273438 7.214844,0 16.054688,0 Z m 0,0"
         id="path65" />
    </clipPath>
    <clipPath
       id="clip23">
      <path
         d="M 16.054688,0 H 284.24609 c 8.83985,0 16.05469,7.273438 16.05469,16.125 v 62.003906 c 0,8.847656 -7.21484,16.125 -16.05469,16.125 H 16.054688 C 7.214844,94.253906 0,86.976562 0,78.128906 V 16.125 C 0,7.273438 7.214844,0 16.054688,0 Z m 0,0"
         id="path68" />
    </clipPath>
    <clipPath
       id="clip24">
      <path
         d="M 38,66 H 77 V 79 H 38 Z m 0,0"
         id="path71" />
    </clipPath>
    <clipPath
       id="clip25">
      <path
         d="M 16.054688,0 H 284.24609 c 8.83985,0 16.05469,7.273438 16.05469,16.125 v 62.003906 c 0,8.847656 -7.21484,16.125 -16.05469,16.125 H 16.054688 C 7.214844,94.253906 0,86.976562 0,78.128906 V 16.125 C 0,7.273438 7.214844,0 16.054688,0 Z m 0,0"
         id="path74" />
    </clipPath>
    <clipPath
       id="clip26">
      <path
         d="M 16.054688,0 H 284.24609 c 8.83985,0 16.05469,7.273438 16.05469,16.125 v 62.003906 c 0,8.847656 -7.21484,16.125 -16.05469,16.125 H 16.054688 C 7.214844,94.253906 0,86.976562 0,78.128906 V 16.125 C 0,7.273438 7.214844,0 16.054688,0 Z m 0,0"
         id="path77" />
    </clipPath>
    <clipPath
       id="clip27">
      <path
         d="m 38,56 h 5 v 14 h -5 z m 0,0"
         id="path80" />
    </clipPath>
    <clipPath
       id="clip28">
      <path
         d="M 16.054688,0 H 284.24609 c 8.83985,0 16.05469,7.273438 16.05469,16.125 v 62.003906 c 0,8.847656 -7.21484,16.125 -16.05469,16.125 H 16.054688 C 7.214844,94.253906 0,86.976562 0,78.128906 V 16.125 C 0,7.273438 7.214844,0 16.054688,0 Z m 0,0"
         id="path83" />
    </clipPath>
    <clipPath
       id="clip29">
      <path
         d="M 16.054688,0 H 284.24609 c 8.83985,0 16.05469,7.273438 16.05469,16.125 v 62.003906 c 0,8.847656 -7.21484,16.125 -16.05469,16.125 H 16.054688 C 7.214844,94.253906 0,86.976562 0,78.128906 V 16.125 C 0,7.273438 7.214844,0 16.054688,0 Z m 0,0"
         id="path86" />
    </clipPath>
    <clipPath
       id="clip30">
      <path
         d="m 73,56 h 4 v 14 h -4 z m 0,0"
         id="path89" />
    </clipPath>
    <clipPath
       id="clip31">
      <path
         d="M 16.054688,0 H 284.24609 c 8.83985,0 16.05469,7.273438 16.05469,16.125 v 62.003906 c 0,8.847656 -7.21484,16.125 -16.05469,16.125 H 16.054688 C 7.214844,94.253906 0,86.976562 0,78.128906 V 16.125 C 0,7.273438 7.214844,0 16.054688,0 Z m 0,0"
         id="path92" />
    </clipPath>
    <clipPath
       id="clip32">
      <path
         d="M 16.054688,0 H 284.24609 c 8.83985,0 16.05469,7.273438 16.05469,16.125 v 62.003906 c 0,8.847656 -7.21484,16.125 -16.05469,16.125 H 16.054688 C 7.214844,94.253906 0,86.976562 0,78.128906 V 16.125 C 0,7.273438 7.214844,0 16.054688,0 Z m 0,0"
         id="path95" />
    </clipPath>
    <clipPath
       id="clip33">
      <path
         d="M 0,4 H 117 V 95 H 0 Z m 0,0"
         id="path98" />
    </clipPath>
    <clipPath
       id="clip34">
      <path
         d="M 16.054688,0 H 284.24609 c 8.83985,0 16.05469,7.273438 16.05469,16.125 v 62.003906 c 0,8.847656 -7.21484,16.125 -16.05469,16.125 H 16.054688 C 7.214844,94.253906 0,86.976562 0,78.128906 V 16.125 C 0,7.273438 7.214844,0 16.054688,0 Z m 0,0"
         id="path101" />
    </clipPath>
    <clipPath
       id="clip35">
      <path
         d="M 16.054688,0 H 284.24609 c 8.83985,0 16.05469,7.273438 16.05469,16.125 v 62.003906 c 0,8.847656 -7.21484,16.125 -16.05469,16.125 H 16.054688 C 7.214844,94.253906 0,86.976562 0,78.128906 V 16.125 C 0,7.273438 7.214844,0 16.054688,0 Z m 0,0"
         id="path104" />
    </clipPath>
    <linearGradient
       id="linear0"
       gradientUnits="userSpaceOnUse"
       x1="9830.5596"
       y1="8483.5801"
       x2="9830.5596"
       y2="7800.6699"
       gradientTransform="matrix(0.0542353,0,0,0.0542936,-308.76128,-383.09541)">
      <stop
         offset="0"
         style="stop-color:rgb(51.764706%,20.784314%,65.098039%);stop-opacity:1;"
         id="stop107" />
      <stop
         offset="0.501961"
         style="stop-color:rgb(40%,16.078431%,50.196078%);stop-opacity:1;"
         id="stop109" />
      <stop
         offset="1"
         style="stop-color:rgb(56.862745%,30.980392%,67.843137%);stop-opacity:1;"
         id="stop111" />
    </linearGradient>
  </defs>
  <g
     id="surface1">
    <path
       style="fill:#6e238c;fill-opacity:1;fill-rule:evenodd;stroke:none"
       d="M 16.054688,0 H 284.24609 c 8.83985,0 16.05469,7.273438 16.05469,16.125 v 62.003906 c 0,8.847656 -7.21484,16.125 -16.05469,16.125 H 16.054688 C 7.214844,94.253906 0,86.976562 0,78.128906 V 16.125 C 0,7.273438 7.214844,0 16.054688,0 Z m 0,0"
       id="path116" />
    <g
       clip-path="url(#clip1)"
       clip-rule="nonzero"
       id="g122">
      <g
         clip-path="url(#clip2)"
         clip-rule="evenodd"
         id="g120">
        <path
           style="fill:#cc9ee3;fill-opacity:1;fill-rule:evenodd;stroke:none"
           d="m 195.625,-4.070312 c 3.09375,41.042968 -40.89063,31.597656 -62.15234,51.957031 -22.61719,21.609375 -1.95313,38.601562 -39.808598,60.156251 -50.816406,28.99219 -165.90625,38.22265 -162.867187,-65.097658 1.84375,-63.304687 164.496094,-66.996093 210.757815,-56.519531 1.51953,0.382813 32.16015,-4.398437 47.18359,-1.410156 6.88672,1.410156 5.91016,8.144531 6.88672,10.914063 z m 0,0"
           id="path118" />
      </g>
    </g>
    <g
       clip-path="url(#clip3)"
       clip-rule="nonzero"
       id="g128">
      <g
         clip-path="url(#clip4)"
         clip-rule="evenodd"
         id="g126">
        <path
           style="fill:#ab68c5;fill-opacity:1;fill-rule:evenodd;stroke:none"
           d="m 184.78125,0 c 3.03516,41.046875 -40.89453,31.597656 -62.21094,51.957031 -22.55859,21.609375 4.99219,36.921875 -32.863279,58.476559 -50.820312,28.99219 -172.796875,39.90625 -169.757812,-63.414059 1.84375,-63.308593 164.496093,-67 210.757811,-56.519531 1.51953,0.378906 32.16016,-4.398438 47.18359,-1.414062 6.89063,1.359374 5.91407,8.144531 6.89063,10.914062 z m 0,0"
           id="path124" />
      </g>
    </g>
    <g
       clip-path="url(#clip5)"
       clip-rule="nonzero"
       id="g134">
      <g
         clip-path="url(#clip6)"
         clip-rule="evenodd"
         id="g132">
        <path
           style="fill:#6e238c;fill-opacity:1;fill-rule:evenodd;stroke:none"
           d="m 45.71875,78.074219 -11.332031,5.484375 v 1.300781 c 0,0 6.019531,-2.117187 5.097656,2.066406 -0.921875,4.234375 -5.371094,5.917969 -5.371094,5.917969 l 0.164063,1.574219 c 0,0 8.132812,-3.042969 8.351562,-2.554688 0.164063,0.488281 14.046875,-7.925781 14.046875,-7.925781 z m 0,0"
           id="path130" />
      </g>
    </g>
    <g
       clip-path="url(#clip7)"
       clip-rule="nonzero"
       id="g140">
      <g
         clip-path="url(#clip8)"
         clip-rule="evenodd"
         id="g138">
        <path
           style="fill:#6e238c;fill-opacity:1;fill-rule:evenodd;stroke:none"
           d="m 69.746094,78.074219 11.390625,5.484375 v 1.300781 c 0,0 -6.019531,-2.117187 -5.097657,2.066406 0.867188,4.234375 5.3125,5.917969 5.3125,5.917969 l -0.105468,1.574219 c 0,0 -8.136719,-3.042969 -8.355469,-2.554688 C 72.675781,92.351562 58.519531,83.9375 58.519531,83.9375 Z m 0,0"
           id="path136" />
      </g>
    </g>
    <g
       clip-path="url(#clip9)"
       clip-rule="nonzero"
       id="g148">
      <g
         clip-path="url(#clip10)"
         clip-rule="evenodd"
         id="g146">
        <g
           clip-path="url(#clip11)"
           clip-rule="evenodd"
           id="g144">
          <path
             style="fill:#6e238c;fill-opacity:1;fill-rule:evenodd;stroke:none"
             d="M 81.246094,83.828125 H 34.710938 v -22.3125 h 46.535156 z m 0,0"
             id="path142" />
        </g>
      </g>
    </g>
    <g
       clip-path="url(#clip12)"
       clip-rule="nonzero"
       id="g156">
      <g
         clip-path="url(#clip13)"
         clip-rule="evenodd"
         id="g154">
        <g
           clip-path="url(#clip14)"
           clip-rule="evenodd"
           id="g152">
          <path
             style="fill:#5c117d;fill-opacity:1;fill-rule:evenodd;stroke:none"
             d="M 57.761719,40.339844 H 91.929688 V 82.960938 H 57.761719 Z m 0,0"
             id="path150" />
        </g>
      </g>
    </g>
    <g
       clip-path="url(#clip15)"
       clip-rule="nonzero"
       id="g164">
      <g
         clip-path="url(#clip16)"
         clip-rule="evenodd"
         id="g162">
        <g
           clip-path="url(#clip17)"
           clip-rule="evenodd"
           id="g160">
          <path
             style="fill:#cc9ee3;fill-opacity:1;fill-rule:evenodd;stroke:none"
             d="M 75.875,76.988281 H 40.40625 v -20.25 H 75.875 Z m 0,0"
             id="path158" />
        </g>
      </g>
    </g>
    <g
       clip-path="url(#clip18)"
       clip-rule="nonzero"
       id="g172">
      <g
         clip-path="url(#clip19)"
         clip-rule="evenodd"
         id="g170">
        <g
           clip-path="url(#clip20)"
           clip-rule="evenodd"
           id="g168">
          <path
             style="fill:#dcc5de;fill-opacity:1;fill-rule:evenodd;stroke:none"
             d="M 57.867188,55.8125 H 93.230469 V 79.703125 H 57.867188 Z m 0,0"
             id="path166" />
        </g>
      </g>
    </g>
    <g
       clip-path="url(#clip21)"
       clip-rule="nonzero"
       id="g182">
      <g
         clip-path="url(#clip22)"
         clip-rule="evenodd"
         id="g180">
        <g
           clip-path="url(#clip23)"
           clip-rule="evenodd"
           id="g178">
          <path
             style="fill:#dcc5de;fill-opacity:1;fill-rule:evenodd;stroke:none"
             d="m 79.402344,95.664062 1.84375,-1.246093 -45.015625,-21.9375 V 61.515625 l -1.953125,1.683594 v 10.261719 z m 0,0"
             id="path174" />
          <path
             style="fill:#dcc5de;fill-opacity:1;fill-rule:evenodd;stroke:none"
             d="m 36.066406,95.664062 -1.789062,-1.246093 45.015625,-21.9375 V 61.515625 l 1.953125,1.683594 v 10.261719 z m 0,0"
             id="path176" />
        </g>
      </g>
    </g>
    <g
       clip-path="url(#clip24)"
       clip-rule="nonzero"
       id="g190">
      <g
         clip-path="url(#clip25)"
         clip-rule="evenodd"
         id="g188">
        <g
           clip-path="url(#clip26)"
           clip-rule="evenodd"
           id="g186">
          <path
             style="fill:#ab68c5;fill-opacity:1;fill-rule:evenodd;stroke:none"
             d="m 42.195312,66.5625 c 5.207032,0.761719 10.359376,3.640625 15.566407,8.90625 5.3125,-4.777344 10.628906,-7.710938 15.945312,-8.742188 L 76.796875,69.222656 57.761719,78.5625 38.941406,69.222656 Z m 0,0"
             id="path184" />
        </g>
      </g>
    </g>
    <g
       clip-path="url(#clip27)"
       clip-rule="nonzero"
       id="g198">
      <g
         clip-path="url(#clip28)"
         clip-rule="evenodd"
         id="g196">
        <g
           clip-path="url(#clip29)"
           clip-rule="evenodd"
           id="g194">
          <path
             style="fill:#dcc5de;fill-opacity:1;fill-rule:evenodd;stroke:none"
             d="M 42.195312,66.5625 V 56.738281 L 38.941406,59.125 v 10.097656 z m 0,0"
             id="path192" />
        </g>
      </g>
    </g>
    <g
       clip-path="url(#clip30)"
       clip-rule="nonzero"
       id="g206">
      <g
         clip-path="url(#clip31)"
         clip-rule="evenodd"
         id="g204">
        <g
           clip-path="url(#clip32)"
           clip-rule="evenodd"
           id="g202">
          <path
             style="fill:#ab68c5;fill-opacity:1;fill-rule:evenodd;stroke:none"
             d="m 73.542969,66.5625 v -9.824219 l 3.253906,2.117188 v 10.367187 z m 0,0"
             id="path200" />
        </g>
      </g>
    </g>
    <g
       clip-path="url(#clip33)"
       clip-rule="nonzero"
       id="g214">
      <g
         clip-path="url(#clip34)"
         clip-rule="evenodd"
         id="g212">
        <g
           clip-path="url(#clip35)"
           clip-rule="evenodd"
           id="g210">
          <path
             style="fill:#000000;fill-opacity:0.101961;fill-rule:evenodd;stroke:none"
             d="m 52.230469,9.664062 c -0.21875,1.304688 0,0.433594 -0.4375,0.761719 1.195312,4.34375 -1.027344,5.15625 5.316406,9.28125 -0.214844,0.925781 -0.433594,1.574219 -1.136719,1.792969 -0.871094,1.464844 -2.550781,2.988281 -4.179687,3.855469 0,0.05469 -0.105469,0.109375 -0.105469,0.164062 0,0 -0.109375,0.105469 -0.109375,0.105469 l -5.042969,3.746094 c -1.898437,1.414062 -3.417968,2.714844 -5.152344,4.183594 -1.683593,1.410156 -2.984374,2.984374 -4.394531,4.992187 -1.625,2.28125 -1.84375,3.640625 -3.089843,6.082031 -0.433594,2.496094 -0.816407,3.964844 -0.816407,6.785156 l 0.488281,5.269532 c 0.542969,0.652344 0.164063,0.05469 0.542969,1.03125 3.742188,8.847656 6.507813,6.351562 5.261719,13.191406 l -2.332031,0.05469 0.164062,3.3125 v 1.140624 l 0.703125,0.378907 V 71.99219 l 3.308594,-2.386719 c 5.207031,0.542969 10.414062,3.472656 15.621094,9.28125 5.257812,-5.753907 10.464844,-8.738281 15.671875,-9.28125 l 3.253906,2.117187 v 3.910156 L 78.207031,74.4375 78.097656,70.90625 75.875,70.851562 v -2.441406 c 0,-2.171875 -0.378906,-2.117187 0.867188,-3.257812 0.867187,-0.867188 1.355468,-1.410156 2.007812,-2.390625 1.464844,-2.0625 1.898438,-3.527344 2.820312,-5.808594 0.488282,-2.332031 0.757813,-3.582031 0.757813,-6.132813 L 82.167969,46.636719 C 81.460938,45.769531 81.246094,43.921875 80.703125,42.730469 75.875,31.761719 64.59375,27.636719 63.074219,24.8125 62.261719,24.648438 62.75,24.867188 61.992188,24.269531 l -1.519532,-1.410156 c -0.652344,-0.707031 -0.324218,-0.21875 -0.542968,-0.871094 -1.085938,-0.542969 -0.921876,-0.757812 -1.519532,-1.84375 2.765625,0.05078 2.765625,0.05078 5.371094,-0.492187 0.542969,-0.433594 1.679688,-1.082032 2.222656,-1.574219 0.652344,-0.59375 1.140625,-1.574219 1.683594,-1.898437 l 0.324219,-1.195313 c -1.410157,0.488281 -4.230469,1.957031 -5.804688,0.816406 -2.492187,0.105469 -4.554687,-1.957031 -5.585937,-3.476562 -1.519532,-2.335938 -1.410156,-4.34375 -0.921875,-7.328125 -1.789063,0.976562 -2.65625,2.386718 -3.46875,4.667968 z M 33.246094,77.585938 H 16.867188 v -2.878907 c 0,-3.3125 3.742187,-2.660156 -0.05469,-5.210937 l 0.05469,-8.414063 c 1.03125,-0.707031 1.84375,-0.652343 1.355468,-2.390625 -0.269531,-1.03125 -0.109375,0.21875 -0.433594,-1.25 0.542969,-0.378906 0.8125,-0.648437 1.410157,-1.03125 0.164062,-0.703125 0.109375,-0.378906 0.488281,-1.140625 0.21875,-0.488281 0.378906,-0.703125 0.542969,-1.191406 0.378906,-0.980469 0.488281,-1.683594 0.597656,-2.664063 C 20.71875,47.617188 19.957031,47.667969 19.089844,45.007812 18.386719,44.683594 18.386719,44.464844 17.789062,43.816406 17.570312,43.542969 17.464844,43.488281 17.246094,43.21875 16.8125,42.730469 16.976562,43 16.8125,42.621094 c -0.976562,-0.378906 -1.410156,-0.921875 -2.332031,-1.574219 -0.8125,-0.597656 -1.574219,-0.871094 -2.0625,-1.847656 -0.59375,-0.164063 -0.160157,0.21875 -0.972657,-0.433594 C 10.46875,37.84375 11.171875,38.601562 10.957031,37.898438 10.628906,37.625 10.738281,37.734375 10.414062,37.410156 L 9.980469,36.917969 c -3.417969,3.855469 -3.09375,2.824219 -6.78125,5.917969 -2.277344,1.847656 -3.902344,4.289062 -4.066407,8.578124 0.269532,2.554688 1.246094,5.160157 3.035157,6.027344 -0.378907,1.683594 -1.082031,1.957032 0.164062,3.367188 1.140625,0.324218 0.8125,0.488281 0.757813,2.007812 0,0.871094 0,1.738282 0,2.660156 0,3.476563 0.542968,4.074219 -0.757813,4.34375 -1.085937,0.976563 -1.03125,2.0625 0,3.042969 1.246094,0.324219 0.757813,0.488281 0.757813,4.070313 0,7.765625 0.382812,25.898436 -0.050782,31.218746 l 13.558594,-0.10937 0.05078,-4.39844 v -5.374999 c -0.05078,-2.0625 -0.05078,-3.691406 1.085937,-5.375 L 18.875,91.808594 c 0.324219,-1.03125 2.222656,-2.332032 3.144531,-2.441406 1.085938,-1.519532 1.789063,-1.085938 3.253907,-0.21875 1.03125,0.707031 1.789062,1.25 2.65625,2.066406 1.898437,1.734375 2.605468,3.417968 2.605468,7.054687 v 9.718749 h 3.742188 l -1.03125,-0.70312 -0.164063,-1.51953 c 0,0 4.449219,-1.6836 5.371094,-5.917974 0.921875,-4.238281 -5.097656,-2.121094 -5.097656,-2.121094 v -1.246093 l 10.304687,-4.996094 -10.414062,-5.15625 z m 2.875,30.457032 11.824218,0.10937 c -0.109374,-1.79296 -0.164062,-3.80078 -0.164062,-5.86328 z m 44.09375,-0.75781 -0.976563,0.70312 5.855469,-0.0508 -0.214844,-3.75 v -6.460938 c 0,-3.308593 0.8125,-4.722656 2.492188,-6.40625 0.816406,-0.8125 4.179687,-3.90625 5.425781,-2.441406 1.191406,0.433594 1.464844,0.707032 2.441406,1.519532 0.378907,0.273437 0.648438,0.433593 0.976563,0.761718 0.703125,0.703125 0.378906,0.324219 0.757812,1.140625 0.378906,0.214844 -0.109375,-0.273437 0.597656,0.433594 0.378907,0.433594 0.105469,0.05469 0.378907,0.542969 0.433593,0.867187 0.324219,0.542968 0.378906,1.355468 1.085937,1.085938 0.488281,4.617188 0.488281,6.351568 0,2.17187 0.378906,4.88671 -0.164062,6.95312 l 13.667966,0.10547 0.0547,-34.85547 c 2.92969,-1.898438 1.14063,-2.878906 -0.0547,-3.691406 l 0.0547,-8.363282 c 1.14063,-0.867187 1.84375,-0.703124 1.35547,-2.441406 -0.32422,-1.085937 -0.16016,0.378906 -0.43359,-1.25 1.84375,-1.191406 2.82031,-3.691406 3.03906,-6.621094 -0.48828,-5.703124 -3.74219,-7.875 -7.70313,-10.804687 -3.14453,-2.226563 -1.625,-1.414063 -3.2539,-3.097656 l -0.48828,0.492187 c -0.48829,1.191406 -1.13672,1.574219 -2.27735,2.386719 -0.54297,0.488281 -2.820311,2.171875 -3.472655,2.445313 l -3.144531,3.308593 c -0.109375,0.816407 -0.867188,2.171875 -1.191406,3.585938 -0.433594,4.613281 0.433593,5.210937 2.167968,8.144531 0.433594,0 0.324219,-0.05469 0.703125,0.160156 -0.324219,1.628906 -1.136719,2.011719 0.164063,3.367188 1.140625,0.324218 0.8125,0.488281 0.8125,2.007812 v 5.320313 c 0,1.359375 0.273437,1.414062 -0.8125,1.683593 -1.679688,1.628907 -0.433594,2.117188 0.433594,3.367188 0.652343,0.761719 0.328124,3.257812 0.328124,4.34375 l -5.96875,0.05469 H 80.214844 v 8.742187 l -10.46875,5.15625 10.359375,4.996094 v 1.246093 c 0,0 -6.019531,-2.117187 -5.097657,2.121094 0.921876,4.234372 5.367188,5.917972 5.367188,5.917972 z m -12.582032,-4.01953 c -0.05469,2.17187 -0.109374,4.01953 -0.05469,4.77734 l 9.652344,-0.0547 z m 0,0"
             id="path208" />
        </g>
      </g>
    </g>
    <path
       style="fill:#ffffff;fill-opacity:1;fill-rule:nonzero;stroke:none"
       d="m 45.9375,21.230469 c 0,0.105469 0,0.269531 0.05469,0.378906 0,0.164063 0.05469,0.269531 0.160156,0.324219 0.05469,0.109375 0.21875,0.164062 0.328125,0.21875 0.160156,0.109375 0.324219,0.109375 0.597656,0.109375 0.324219,0 0.648437,-0.109375 0.921875,-0.273438 0.269531,-0.214843 0.539062,-0.488281 0.757812,-0.757812 0.214844,-0.328125 0.378907,-0.652344 0.488282,-1.035157 0.109375,-0.433593 0.164062,-0.8125 0.164062,-1.191406 0,-0.542968 -0.109375,-1.03125 -0.273437,-1.46875 C 49.027344,17.101562 48.8125,16.722656 48.539062,16.449219 48.269531,16.125 47.945312,15.90625 47.5625,15.746094 47.183594,15.582031 46.75,15.472656 46.316406,15.417969 l 0.21875,-0.433594 c 0.269532,0 0.542969,-0.05469 0.757813,-0.109375 0.269531,-0.105469 0.488281,-0.269531 0.652343,-0.488281 0.214844,-0.214844 0.378907,-0.488281 0.488282,-0.867188 0.105468,-0.378906 0.160156,-0.816406 0.160156,-1.410156 0,-0.382813 -0.05469,-0.707031 -0.160156,-1.035156 -0.05469,-0.269531 -0.21875,-0.542969 -0.382813,-0.757813 C 47.945312,10.097656 47.726562,9.9375 47.5625,9.828125 47.347656,9.71875 47.128906,9.664062 46.914062,9.664062 c -0.109374,0 -0.21875,0 -0.378906,0.054688 -0.109375,0 -0.21875,0.054688 -0.328125,0.164062 -0.05469,0.054688 -0.160156,0.160157 -0.214843,0.269532 -0.05469,0.109375 -0.05469,0.273437 -0.05469,0.488281 z M 46.101562,8.902344 c 1.84375,0 3.144532,0.273437 4.011719,0.816406 0.867188,0.597656 1.246094,1.410156 1.246094,2.496094 0,0.273437 0,0.488281 -0.05469,0.707031 -0.05078,0.269531 -0.160157,0.433594 -0.214844,0.652344 -0.109375,0.160156 -0.21875,0.324219 -0.324219,0.488281 -0.109375,0.109375 -0.273437,0.269531 -0.382813,0.378906 -0.269531,0.21875 -0.648437,0.433594 -0.972656,0.597656 v 0.109376 c 0.539063,0.109374 1.082032,0.269531 1.515625,0.542968 0.21875,0.109375 0.433594,0.269532 0.597657,0.433594 0.164062,0.164062 0.378906,0.378906 0.488281,0.652344 0.164062,0.269531 0.269531,0.542968 0.378906,0.867187 0.05469,0.328125 0.109375,0.707031 0.109375,1.140625 0,0.652344 -0.109375,1.25 -0.324219,1.792969 -0.273437,0.488281 -0.597656,0.976563 -1.085937,1.300781 -0.433594,0.382813 -1.03125,0.652344 -1.734375,0.871094 -0.707031,0.160156 -1.519531,0.269531 -2.441407,0.269531 -0.8125,0 -1.519531,-0.05469 -2.0625,-0.160156 C 44.308594,22.75 43.875,22.585938 43.605469,22.421875 43.28125,22.207031 43.0625,21.933594 42.953125,21.664062 42.847656,21.390625 42.792969,21.066406 42.792969,20.6875 V 10.480469 c 0,-0.328125 -0.21875,-0.542969 -0.707031,-0.542969 -0.324219,0 -0.648438,0.050781 -1.03125,0.160156 -0.324219,0.109375 -0.648438,0.273438 -0.921876,0.433594 -0.324218,0.164062 -0.542968,0.382812 -0.703124,0.652344 -0.21875,0.21875 -0.273438,0.488281 -0.273438,0.761718 0,0.214844 0,0.378907 0.05469,0.488282 0.05469,0.109375 0.109374,0.21875 0.21875,0.269531 0.05469,0.05469 0.109374,0.109375 0.160156,0.109375 0.109375,0 0.164062,0.05469 0.164062,0.05469 0.164063,0 0.324219,-0.05469 0.378906,-0.109376 0.109376,-0.05469 0.21875,-0.105468 0.273438,-0.160156 0.109375,-0.05469 0.160156,-0.109375 0.269531,-0.164062 0.05469,-0.05469 0.109375,-0.109375 0.21875,-0.109375 0.05469,0 0.160157,0.05469 0.214844,0.05469 0.109375,0.05469 0.164063,0.109375 0.273437,0.164063 0.05469,0.109375 0.105469,0.214843 0.160157,0.324219 0.05469,0.109374 0.109375,0.273437 0.109375,0.433593 0,0.273438 -0.05469,0.488281 -0.164063,0.652344 -0.105469,0.164063 -0.214843,0.324219 -0.378906,0.433594 -0.160156,0.109375 -0.324219,0.21875 -0.542969,0.273437 -0.160156,0.05469 -0.378906,0.109375 -0.539062,0.109375 -0.328125,0 -0.597656,-0.05469 -0.816406,-0.164062 -0.269532,-0.109375 -0.433594,-0.21875 -0.648438,-0.433594 -0.164062,-0.164063 -0.273438,-0.382813 -0.382812,-0.652344 -0.05078,-0.21875 -0.105469,-0.488281 -0.105469,-0.761719 0,-0.488281 0.105469,-0.976562 0.269531,-1.355468 0.21875,-0.378906 0.488281,-0.761719 0.8125,-1.03125 0.382812,-0.273438 0.816406,-0.542969 1.304688,-0.707032 0.488281,-0.21875 1.027343,-0.324218 1.625,-0.433593 0.597656,-0.109375 1.246093,-0.21875 1.898437,-0.273438 0.707031,-0.054687 1.410156,-0.054687 2.117187,-0.054687 z m 0,0"
       id="path216" />
    <path
       style="fill:#ffffff;fill-opacity:1;fill-rule:nonzero;stroke:none"
       d="m 58.464844,18.027344 c 0,-0.164063 -0.05469,-0.273438 -0.160156,-0.328125 -0.109376,-0.109375 -0.21875,-0.164063 -0.382813,-0.164063 -0.214844,0 -0.433594,0.05469 -0.59375,0.164063 -0.21875,0.109375 -0.382813,0.273437 -0.542969,0.433593 -0.164062,0.21875 -0.273437,0.4375 -0.328125,0.707032 -0.105469,0.324218 -0.160156,0.652344 -0.160156,1.03125 0,0.324218 0.05469,0.652344 0.109375,0.867187 0.05078,0.21875 0.105469,0.4375 0.214844,0.597657 0.05469,0.109374 0.164062,0.21875 0.273437,0.273437 0.160157,0.05469 0.269531,0.109375 0.378907,0.109375 0.160156,0 0.324218,-0.05469 0.488281,-0.164062 0.105469,-0.05469 0.269531,-0.164063 0.378906,-0.324219 0.109375,-0.109375 0.164063,-0.273438 0.214844,-0.4375 0.05469,-0.160157 0.109375,-0.324219 0.109375,-0.488281 z M 57,13.953125 c -0.214844,0 -0.433594,0 -0.59375,0.05469 -0.21875,0.05469 -0.328125,0.109376 -0.488281,0.21875 -0.109375,0.05078 -0.21875,0.105469 -0.328125,0.214844 -0.05469,0.109375 -0.105469,0.164063 -0.105469,0.273438 0,0.105468 0.05078,0.160156 0.160156,0.214844 0.109375,0 0.21875,0.05469 0.328125,0.109374 0.105469,0.05469 0.214844,0.109376 0.324219,0.21875 0.109375,0.105469 0.160156,0.269532 0.160156,0.433594 0,0.164063 -0.05078,0.269532 -0.105469,0.378906 -0.05469,0.109376 -0.109374,0.21875 -0.21875,0.273438 -0.109374,0.105469 -0.160156,0.160156 -0.324218,0.214844 -0.109375,0.05469 -0.21875,0.05469 -0.378906,0.05469 -0.328126,0 -0.597657,-0.109375 -0.816407,-0.324219 -0.214843,-0.273437 -0.324219,-0.542968 -0.324219,-0.976562 0,-0.382812 0.109376,-0.707031 0.273438,-0.980469 0.214844,-0.269531 0.484375,-0.488281 0.8125,-0.648437 0.324219,-0.164063 0.648438,-0.328125 1.082031,-0.382813 0.382813,-0.109375 0.816407,-0.109375 1.195313,-0.109375 0.488281,0 0.976562,0.05469 1.410156,0.164063 0.433594,0.05469 0.8125,0.273437 1.136719,0.488281 0.382812,0.21875 0.652343,0.488281 0.816406,0.871094 0.214844,0.378906 0.324219,0.757812 0.324219,1.300781 v 5.265625 c 0,0.05469 0,0.109375 0,0.21875 0,0.05469 0.05469,0.109375 0.05469,0.164062 0,0.05469 0.05469,0.109376 0.109375,0.160157 0.05469,0 0.105469,0.05469 0.214844,0.05469 0.109375,0 0.21875,-0.05469 0.328125,-0.160156 0.105469,-0.05469 0.160156,-0.164062 0.269531,-0.21875 l 0.21875,0.164062 c -0.109375,0.160157 -0.21875,0.269532 -0.328125,0.433594 -0.160156,0.164063 -0.324219,0.324219 -0.488281,0.433594 -0.214844,0.164062 -0.433594,0.273438 -0.648438,0.378906 -0.273437,0.05469 -0.542968,0.109375 -0.871093,0.109375 -0.378907,0 -0.703125,-0.109375 -1.027344,-0.324219 -0.328125,-0.273437 -0.488281,-0.597656 -0.597656,-1.085937 -0.21875,0.269531 -0.433594,0.488281 -0.652344,0.652344 -0.214844,0.214843 -0.433594,0.324219 -0.648437,0.433593 -0.21875,0.109376 -0.433594,0.214844 -0.652344,0.269532 -0.214844,0.05469 -0.488282,0.05469 -0.703125,0.05469 -0.273438,0 -0.597657,-0.05469 -0.871094,-0.109375 -0.269531,-0.105468 -0.539063,-0.269531 -0.757813,-0.488281 -0.214843,-0.160156 -0.378906,-0.433594 -0.542968,-0.757813 -0.109375,-0.328124 -0.160156,-0.707031 -0.160156,-1.195312 0,-0.597656 0.105468,-1.03125 0.324218,-1.410156 0.214844,-0.328125 0.488282,-0.652344 0.867188,-0.871094 0.378906,-0.269531 0.8125,-0.488281 1.246094,-0.652344 0.488281,-0.160156 0.921874,-0.378906 1.410156,-0.542968 0.382812,-0.160157 0.652344,-0.378907 0.816406,-0.648438 0.160156,-0.273438 0.214844,-0.597656 0.214844,-0.871094 0,-0.488281 -0.109375,-0.867187 -0.378906,-1.140625 C 57.816406,14.0625 57.433594,13.953125 57,13.953125 Z m 0,0"
       id="path218" />
    <path
       style="fill:#ffffff;fill-opacity:1;fill-rule:nonzero;stroke:none"
       d="m 69.746094,16.398438 c -0.214844,0 -0.378906,0 -0.488282,-0.05469 -0.160156,-0.109375 -0.269531,-0.164062 -0.324218,-0.273438 -0.109375,-0.109374 -0.164063,-0.214843 -0.21875,-0.324218 0,-0.109375 -0.05469,-0.273438 -0.05469,-0.382813 0,-0.160156 0.05469,-0.324219 0.05469,-0.488281 0,-0.160156 0,-0.269531 0,-0.433594 0,-0.109375 -0.05469,-0.214844 -0.160156,-0.269531 C 68.5,14.0625 68.335938,14.0625 68.171875,14.0625 c -0.214844,0 -0.484375,0.05469 -0.703125,0.164062 -0.269531,0.160157 -0.488281,0.324219 -0.652344,0.59375 -0.214844,0.273438 -0.378906,0.597657 -0.539062,1.035157 -0.109375,0.433593 -0.164063,0.921875 -0.164063,1.519531 0,0.652344 0.05469,1.246094 0.164063,1.789062 0.105468,0.542969 0.324218,0.980469 0.539062,1.359376 0.273438,0.433593 0.542969,0.707031 0.921875,0.921874 0.382813,0.21875 0.761719,0.328126 1.25,0.328126 0.214844,0 0.433594,-0.05469 0.648438,-0.109376 0.164062,-0.05469 0.382812,-0.109374 0.542969,-0.21875 0.164062,-0.05469 0.324218,-0.164062 0.488281,-0.269531 0.164062,-0.109375 0.324219,-0.273437 0.488281,-0.382812 l 0.21875,0.21875 c -0.109375,0.21875 -0.328125,0.433593 -0.542969,0.652343 -0.21875,0.214844 -0.488281,0.433594 -0.8125,0.652344 -0.328125,0.214844 -0.707031,0.378906 -1.085937,0.488282 -0.433594,0.160156 -0.921875,0.214843 -1.464844,0.214843 -0.542969,0 -1.085938,-0.109375 -1.574219,-0.324219 -0.542969,-0.21875 -0.976562,-0.488281 -1.410156,-0.921874 -0.378906,-0.382813 -0.703125,-0.871094 -0.921875,-1.46875 -0.269531,-0.542969 -0.378906,-1.191407 -0.378906,-1.898438 0,-0.597656 0.05469,-1.085938 0.21875,-1.574219 0.160156,-0.488281 0.324218,-0.925781 0.59375,-1.304687 0.21875,-0.378906 0.542968,-0.757813 0.871094,-1.03125 0.324218,-0.269532 0.648437,-0.542969 1.027343,-0.707032 0.328125,-0.214843 0.707031,-0.378906 1.085938,-0.488281 0.378906,-0.05469 0.757812,-0.109375 1.085937,-0.109375 0.488282,0 0.867188,0.05469 1.191406,0.164063 0.378907,0.05469 0.652344,0.21875 0.867188,0.378906 0.21875,0.164063 0.378906,0.382813 0.542969,0.597656 0.109375,0.273438 0.164062,0.488281 0.164062,0.707031 0,0.21875 -0.05469,0.378907 -0.109375,0.542969 0,0.164063 -0.109375,0.324219 -0.164062,0.433594 -0.105469,0.109375 -0.214844,0.21875 -0.378906,0.273437 -0.109376,0.109376 -0.269532,0.109376 -0.433594,0.109376 z m 0,0"
       id="path220" />
    <path
       style="fill:#ffffff;fill-opacity:1;fill-rule:nonzero;stroke:none"
       d="m 76.851562,18.027344 c 0,-0.164063 -0.05469,-0.273438 -0.164062,-0.328125 -0.105469,-0.109375 -0.214844,-0.164063 -0.378906,-0.164063 -0.214844,0 -0.433594,0.05469 -0.597656,0.164063 -0.214844,0.109375 -0.378907,0.273437 -0.539063,0.433593 -0.164063,0.21875 -0.273437,0.4375 -0.328125,0.707032 -0.109375,0.324218 -0.160156,0.652344 -0.160156,1.03125 0,0.324218 0.05078,0.652344 0.105468,0.867187 0.05469,0.21875 0.109376,0.4375 0.21875,0.597657 0.05469,0.109374 0.164063,0.21875 0.269532,0.273437 0.109375,0.05469 0.273437,0.109375 0.378906,0.109375 0.164062,0 0.328125,-0.05469 0.488281,-0.164062 0.109375,-0.05469 0.273438,-0.164063 0.382813,-0.324219 0.05469,-0.109375 0.160156,-0.273438 0.214844,-0.4375 0.05469,-0.160157 0.109374,-0.324219 0.109374,-0.488281 z m -1.464843,-4.074219 c -0.214844,0 -0.433594,0 -0.597657,0.05469 -0.214843,0.05469 -0.378906,0.109376 -0.488281,0.21875 -0.105469,0.05078 -0.214843,0.105469 -0.324219,0.214844 -0.05469,0.109375 -0.109374,0.164063 -0.109374,0.273438 0,0.105468 0.05469,0.160156 0.164062,0.214844 0.109375,0 0.21875,0.05469 0.324219,0.109374 0.109375,0.05469 0.21875,0.109376 0.328125,0.21875 0.105468,0.105469 0.160156,0.269532 0.160156,0.433594 0,0.164063 -0.05469,0.269532 -0.109375,0.378906 -0.05078,0.109376 -0.105469,0.21875 -0.214844,0.273438 -0.109375,0.105469 -0.21875,0.160156 -0.324219,0.214844 -0.109374,0.05469 -0.21875,0.05469 -0.382812,0.05469 -0.324219,0 -0.59375,-0.109375 -0.8125,-0.324219 -0.214844,-0.273437 -0.324219,-0.542968 -0.324219,-0.976562 0,-0.382812 0.109375,-0.707031 0.269531,-0.980469 0.21875,-0.269531 0.488282,-0.488281 0.816407,-0.648437 0.324219,-0.164063 0.648437,-0.328125 1.082031,-0.382813 0.378906,-0.109375 0.8125,-0.109375 1.195312,-0.109375 0.488282,0 0.976563,0.05469 1.410157,0.164063 0.433593,0.05469 0.8125,0.273437 1.136719,0.488281 0.378906,0.21875 0.652343,0.488281 0.816406,0.871094 0.214844,0.378906 0.324218,0.757812 0.324218,1.300781 v 5.265625 c 0,0.05469 0,0.109375 0,0.21875 0,0.05469 0.05469,0.109375 0.05469,0.164062 0,0.05469 0.05469,0.109376 0.105469,0.160157 0.05469,0 0.109375,0.05469 0.21875,0.05469 0.109375,0 0.21875,-0.05469 0.324219,-0.160156 0.109374,-0.05469 0.164062,-0.164062 0.273437,-0.21875 l 0.214844,0.164062 c -0.109375,0.160157 -0.214844,0.269532 -0.324219,0.433594 -0.164062,0.164063 -0.324219,0.324219 -0.488281,0.433594 -0.21875,0.164062 -0.433594,0.273438 -0.652344,0.378906 -0.269531,0.05469 -0.539063,0.109375 -0.867187,0.109375 -0.378907,0 -0.757813,-0.109375 -1.03125,-0.324219 -0.324219,-0.273437 -0.488282,-0.597656 -0.59375,-1.085937 -0.21875,0.269531 -0.433594,0.488281 -0.652344,0.652344 -0.214844,0.214843 -0.433594,0.324219 -0.652344,0.433593 -0.214844,0.109376 -0.433594,0.214844 -0.648438,0.269532 -0.21875,0.05469 -0.488281,0.05469 -0.707031,0.05469 -0.269531,0 -0.59375,-0.05469 -0.867187,-0.109375 -0.269532,-0.105468 -0.542969,-0.269531 -0.757813,-0.488281 -0.21875,-0.160156 -0.378906,-0.433594 -0.542969,-0.757813 -0.109374,-0.328124 -0.164062,-0.707031 -0.164062,-1.195312 0,-0.597656 0.109375,-1.03125 0.328125,-1.410156 0.214844,-0.328125 0.488281,-0.652344 0.867187,-0.871094 0.378907,-0.269531 0.757813,-0.488281 1.246094,-0.652344 0.488282,-0.160156 0.921875,-0.378906 1.410156,-0.542968 0.378907,-0.160157 0.652344,-0.378907 0.8125,-0.648438 0.164063,-0.273438 0.21875,-0.597656 0.21875,-0.871094 0,-0.488281 -0.109374,-0.867187 -0.378906,-1.140625 -0.273437,-0.269531 -0.652344,-0.378906 -1.085937,-0.378906 z m 0,0"
       id="path222" />
    <path
       style="fill:#ffffff;fill-opacity:1;fill-rule:nonzero;stroke:none"
       d="m 27.335938,42.730469 h -3.527344 c -0.269532,0.8125 -0.542969,1.519531 -0.8125,2.117187 -0.324219,0.597656 -0.652344,1.140625 -1.03125,1.519532 -0.378906,0.378906 -0.757813,0.707031 -1.191406,0.867187 -0.433594,0.21875 -0.921876,0.328125 -1.464844,0.328125 -0.328125,0 -0.597656,-0.05469 -0.867188,-0.109375 -0.273437,-0.05469 -0.542968,-0.109375 -0.761718,-0.21875 -0.214844,-0.05469 -0.378907,-0.160156 -0.488282,-0.324219 -0.160156,-0.109375 -0.214844,-0.273437 -0.214844,-0.433594 0,-0.109374 0.05469,-0.21875 0.05469,-0.328124 0.05469,-0.109376 0.105469,-0.214844 0.160156,-0.324219 0.05469,-0.05469 0.109375,-0.164063 0.21875,-0.21875 0.109375,-0.05469 0.214844,-0.109375 0.324219,-0.109375 0.109375,0 0.164063,0.109375 0.273437,0.21875 0.05078,0.164062 0.160157,0.273437 0.269532,0.488281 0.109375,0.164063 0.269531,0.273437 0.433594,0.433594 0.164062,0.109375 0.433593,0.21875 0.757812,0.21875 0.328125,0 0.597656,-0.109375 0.921875,-0.273438 0.273437,-0.105469 0.542969,-0.378906 0.816406,-0.703125 0.269531,-0.328125 0.542969,-0.761718 0.8125,-1.304687 0.21875,-0.488281 0.488281,-1.140625 0.703125,-1.84375 H 20.55469 v -0.816407 h 2.441406 c 0.164062,-0.707031 0.378906,-1.410156 0.597656,-2.117187 0.160156,-0.707031 0.378906,-1.410156 0.539062,-2.0625 0.164063,-0.652344 0.328126,-1.25 0.488282,-1.847656 0.109375,-0.542969 0.21875,-1.03125 0.328125,-1.464844 -0.109375,-0.378906 -0.273438,-0.597656 -0.488281,-0.707031 -0.21875,-0.105469 -0.542969,-0.160156 -0.867188,-0.160156 -0.328125,0 -0.707031,0.05469 -1.085938,0.105468 -0.324218,0.109375 -0.652343,0.273438 -0.921874,0.492188 -0.324219,0.160156 -0.542969,0.378906 -0.757813,0.648437 -0.164063,0.328125 -0.273437,0.597657 -0.273437,0.980469 0,0.160156 0,0.324219 0.05469,0.433594 0.05469,0.160156 0.164063,0.214844 0.21875,0.269531 0.05078,0.05469 0.105469,0.109375 0.214844,0.109375 0.05469,0.05469 0.109375,0.05469 0.164062,0.05469 0.109375,0 0.269531,-0.05469 0.378907,-0.109376 0.109374,-0.05469 0.164062,-0.109374 0.269531,-0.164062 0.05469,-0.05078 0.109375,-0.105469 0.21875,-0.160156 0.05469,-0.05469 0.164062,-0.05469 0.214843,-0.05469 0.109376,0 0.164063,0 0.273438,0.05469 0.05469,0 0.160156,0.05469 0.214844,0.160156 0.05469,0.05469 0.109375,0.164062 0.164062,0.273438 0.05469,0.109374 0.109375,0.269531 0.109375,0.433593 0,0.273438 -0.05469,0.488281 -0.164062,0.652344 -0.109375,0.164063 -0.214844,0.324219 -0.378907,0.433594 -0.164062,0.164062 -0.324218,0.21875 -0.488281,0.273437 -0.21875,0.105469 -0.433593,0.105469 -0.597656,0.105469 -0.324219,0 -0.59375,-0.05469 -0.8125,-0.160156 -0.269531,-0.109375 -0.433594,-0.273438 -0.597656,-0.433594 -0.214844,-0.21875 -0.324219,-0.4375 -0.378907,-0.652344 -0.109374,-0.273437 -0.164062,-0.542969 -0.164062,-0.816406 0,-0.378906 0.05469,-0.757813 0.21875,-1.140625 0.109375,-0.324219 0.324219,-0.648438 0.542969,-0.921875 0.269531,-0.269531 0.542969,-0.542969 0.867187,-0.761719 0.324219,-0.214844 0.703125,-0.378906 1.085938,-0.542968 0.378906,-0.105469 0.757812,-0.214844 1.191406,-0.324219 0.433594,-0.05469 0.867188,-0.109375 1.246094,-0.109375 0.597656,0 1.140625,0.05469 1.519531,0.164062 0.433594,0.109375 0.761719,0.21875 1.085937,0.433594 0.269532,0.164062 0.488282,0.433594 0.648438,0.707031 0.164062,0.269531 0.328125,0.597657 0.4375,0.976563 l 2.003906,6.949218 h 2.007813 v 0.816407 h -1.789063 l 0.703125,2.441406 c 0.05469,0.109375 0.05469,0.164063 0.109375,0.273437 0,0.05078 0.05469,0.160157 0.05469,0.214844 0.05469,0.05469 0.109375,0.109375 0.164062,0.109375 0.05469,0.05469 0.105469,0.05469 0.214844,0.05469 0.164062,0 0.324219,0 0.488281,-0.05469 0.109375,-0.05469 0.273438,-0.109375 0.378907,-0.21875 l 0.164062,0.382813 c -0.109375,0.05469 -0.269531,0.160156 -0.433594,0.269531 C 32.214844,46.3125 32,46.421875 31.78125,46.476562 c -0.214844,0.105469 -0.488281,0.160157 -0.703125,0.269532 -0.273437,0.05469 -0.597656,0.05469 -0.867187,0.05469 -0.4375,0 -0.761719,-0.05469 -1.03125,-0.164062 C 28.90625,46.53125 28.691406,46.421875 28.582031,46.257812 28.417969,46.09375 28.3125,45.933594 28.257812,45.769531 28.203125,45.605469 28.148438,45.445312 28.09375,45.335938 Z M 25.542969,36.375 c -0.269531,1.085938 -0.539063,2.066406 -0.757813,2.988281 -0.214844,0.867188 -0.488281,1.738281 -0.703125,2.550781 h 3.035157 z m 0,0"
       id="path224" />
    <path
       style="fill:#ffffff;fill-opacity:1;fill-rule:nonzero;stroke:none"
       d="m 36.878906,45.824219 c 0,0.109375 -0.05469,0.214843 -0.05469,0.324219 -0.05078,0.109374 -0.105469,0.21875 -0.214844,0.328124 -0.109375,0.05469 -0.273437,0.160157 -0.433594,0.214844 -0.21875,0.109375 -0.488281,0.109375 -0.8125,0.109375 -0.328125,0 -0.597656,0 -0.761719,-0.109375 -0.164062,-0.05469 -0.324218,-0.160156 -0.433593,-0.269531 -0.05469,-0.109375 -0.109375,-0.21875 -0.164063,-0.328125 0,-0.105469 0,-0.214844 0,-0.269531 V 33.769531 c 0,-0.160156 -0.05078,-0.324219 -0.160156,-0.488281 -0.05469,-0.109375 -0.21875,-0.214844 -0.433594,-0.214844 -0.05469,0 -0.164062,0.05078 -0.273437,0.05078 -0.05469,0.05469 -0.160157,0.109374 -0.214844,0.164062 l -0.21875,-0.214844 c 0.164063,-0.109375 0.324219,-0.21875 0.488281,-0.328125 0.164063,-0.109375 0.378906,-0.214843 0.597656,-0.324219 0.214844,-0.109374 0.433594,-0.164062 0.648438,-0.21875 0.21875,-0.05469 0.488281,-0.05469 0.761719,-0.05469 0.378906,0 0.703125,0.05469 0.921875,0.164063 0.214844,0.109374 0.378906,0.21875 0.488281,0.378906 0.109375,0.164062 0.164063,0.328125 0.214844,0.488281 0,0.21875 0.05469,0.328125 0.05469,0.488281 z m 0,0"
       id="path226" />
    <path
       style="fill:#ffffff;fill-opacity:1;fill-rule:nonzero;stroke:none"
       d="m 43.769531,42.945312 h -4.773437 v -2.28125 h 4.773437 z m 0,0"
       id="path228" />
    <path
       style="fill:#ffffff;fill-opacity:1;fill-rule:nonzero;stroke:none"
       d="m 51.578125,46.800781 c -0.109375,0 -0.164063,0 -0.273437,0 -0.105469,0 -0.160157,0 -0.269532,0 0.324219,0.05469 0.757813,0.21875 1.140625,0.378907 0.433594,0.164062 0.867188,0.382812 1.300781,0.542968 0.488282,0.21875 0.921876,0.4375 1.355469,0.652344 0.488281,0.21875 0.921875,0.378906 1.355469,0.597656 0.378906,0.164063 0.8125,0.273438 1.140625,0.378906 0.378906,0.109376 0.703125,0.164063 0.976563,0.164063 0.214843,0 0.433593,0 0.59375,-0.05469 0.164062,-0.05469 0.273437,-0.109376 0.378906,-0.214844 0.109375,-0.05469 0.21875,-0.164063 0.273437,-0.21875 0.05469,-0.109375 0.05469,-0.21875 0.05469,-0.324219 l 0.324219,0.05078 c -0.05469,0.382813 -0.109376,0.707032 -0.214844,1.035156 -0.109375,0.324219 -0.273438,0.59375 -0.488282,0.867188 -0.164062,0.21875 -0.4375,0.433594 -0.707031,0.597656 -0.324219,0.109375 -0.652343,0.214844 -1.03125,0.214844 -0.378906,0 -0.757812,-0.105469 -1.191406,-0.269531 -0.488281,-0.164063 -0.976563,-0.324219 -1.464844,-0.597657 -0.542969,-0.21875 -1.03125,-0.488281 -1.574219,-0.761718 -0.542968,-0.269532 -1.082031,-0.542969 -1.570312,-0.8125 -0.542969,-0.21875 -0.976562,-0.433594 -1.410156,-0.597656 -0.488282,-0.164063 -0.867188,-0.21875 -1.195313,-0.21875 -0.378906,0 -0.597656,0.164062 -0.757812,0.492187 l -0.27344,-0.109371 c 0,-0.05469 0,-0.164062 0.05469,-0.328125 0,-0.105469 0.05469,-0.214844 0.164062,-0.378906 0.05469,-0.109375 0.164063,-0.269531 0.269531,-0.433594 0.109376,-0.109375 0.21875,-0.273437 0.382813,-0.378906 0.160156,-0.109375 0.324219,-0.21875 0.539063,-0.273438 0.21875,-0.109375 0.433593,-0.109375 0.707031,-0.109375 -0.652344,-0.160156 -1.246094,-0.433594 -1.84375,-0.757812 -0.542969,-0.328125 -1.03125,-0.816406 -1.464844,-1.359375 -0.433594,-0.597657 -0.757813,-1.300781 -0.976563,-2.0625 -0.269531,-0.8125 -0.378906,-1.738281 -0.378906,-2.769531 0,-1.195313 0.164063,-2.28125 0.488282,-3.148438 0.324218,-0.867188 0.757812,-1.628906 1.300781,-2.171875 0.597656,-0.597656 1.246093,-1.03125 1.953125,-1.304687 0.757812,-0.269532 1.519531,-0.433594 2.332031,-0.433594 0.8125,0 1.625,0.164062 2.332031,0.433594 0.757813,0.273437 1.410156,0.707031 1.953125,1.304687 0.542969,0.542969 0.976563,1.304687 1.300781,2.171875 0.324219,0.867188 0.488282,1.953125 0.488282,3.148438 0,1.25 -0.164063,2.28125 -0.488282,3.148437 -0.324218,0.925781 -0.757812,1.628906 -1.300781,2.226563 -0.542969,0.597656 -1.195312,0.976562 -1.953125,1.304687 -0.707031,0.269531 -1.519531,0.378906 -2.332031,0.378906 z m 0,-13.355469 c -0.164063,0 -0.324219,0 -0.488281,0.05469 -0.21875,0.05469 -0.433594,0.160156 -0.652344,0.324219 -0.160156,0.109375 -0.378906,0.328125 -0.59375,0.652343 -0.21875,0.269532 -0.382812,0.652344 -0.542969,1.085938 -0.164062,0.488281 -0.273437,1.085938 -0.378906,1.738281 -0.109375,0.703125 -0.164063,1.519531 -0.164063,2.441407 0,0.976562 0.05469,1.792968 0.164063,2.445312 0.105469,0.703125 0.214844,1.246094 0.378906,1.683594 0.160157,0.488281 0.324219,0.867187 0.542969,1.136718 0.214844,0.273438 0.433594,0.4375 0.59375,0.597657 0.21875,0.164062 0.433594,0.21875 0.652344,0.273437 0.164062,0.05469 0.324218,0.05469 0.488281,0.05469 0.164063,0 0.324219,0 0.542969,-0.05469 0.160156,-0.05469 0.378906,-0.109375 0.59375,-0.273437 0.21875,-0.160157 0.4375,-0.324219 0.597656,-0.597657 0.21875,-0.269531 0.433594,-0.648437 0.542969,-1.136718 0.164062,-0.4375 0.324219,-0.980469 0.433593,-1.683594 0.05469,-0.652344 0.109376,-1.46875 0.109376,-2.445312 0,-0.921876 -0.05469,-1.738282 -0.109376,-2.441407 -0.109374,-0.652343 -0.269531,-1.25 -0.433593,-1.738281 C 53.746094,35.128906 53.53125,34.746094 53.3125,34.476562 53.152344,34.152344 52.933594,33.933594 52.714844,33.824219 52.5,33.660156 52.28125,33.554688 52.121094,33.5 51.902344,33.44531 51.742188,33.44531 51.578125,33.44531 Z m 0,0"
       id="path230" />
    <path
       style="fill:#ffffff;fill-opacity:1;fill-rule:nonzero;stroke:none"
       d="m 67.792969,45.0625 c 0,0.05469 0,0.109375 0,0.164062 0,0.05469 0,0.109376 0.05469,0.164063 0,0.105469 0.05469,0.105469 0.109375,0.160156 0.05469,0.05469 0.109375,0.05469 0.214844,0.05469 0.109375,0 0.21875,-0.05469 0.273437,-0.109375 0.109376,-0.105469 0.214844,-0.160156 0.269532,-0.269532 l 0.21875,0.21875 c -0.05469,0.105469 -0.164063,0.269532 -0.324219,0.433594 -0.164063,0.160156 -0.328125,0.269532 -0.488281,0.433594 -0.21875,0.164062 -0.433594,0.269531 -0.707032,0.378906 -0.269531,0.05469 -0.542968,0.109375 -0.867187,0.109375 -0.269531,0 -0.488281,0 -0.707031,-0.109375 C 65.625,46.636719 65.460938,46.53125 65.300781,46.421875 65.191406,46.3125 65.082031,46.148438 65.027344,45.988281 64.917969,45.824219 64.917969,45.660156 64.917969,45.445312 V 45.0625 c -0.324219,0.328125 -0.648438,0.597656 -0.972657,0.871094 -0.164062,0.105468 -0.328124,0.214844 -0.488281,0.324218 -0.164062,0.109376 -0.382812,0.21875 -0.542969,0.273438 -0.164062,0.105469 -0.378906,0.160156 -0.542968,0.214844 -0.21875,0.05469 -0.378906,0.05469 -0.597656,0.05469 -0.378907,0 -0.703126,-0.05469 -0.976563,-0.164062 C 60.582031,46.476562 60.363281,46.3125 60.199219,46.09375 60.039062,45.878906 59.875,45.605469 59.820312,45.335938 59.765625,45.0625 59.714844,44.792969 59.714844,44.519531 v -5.753906 c 0,-0.109375 0,-0.164063 0,-0.21875 0,-0.05469 0,-0.105469 -0.05469,-0.160156 0,-0.05469 -0.05469,-0.109375 -0.109375,-0.164063 -0.05469,-0.05469 -0.109375,-0.05469 -0.21875,-0.05469 -0.105469,0 -0.214843,0.05469 -0.324219,0.109375 -0.109374,0.109375 -0.164062,0.164062 -0.21875,0.269531 l -0.269531,-0.214844 c 0.109375,-0.109375 0.21875,-0.273437 0.378907,-0.433593 0.109374,-0.164063 0.273437,-0.273438 0.488281,-0.4375 0.21875,-0.160157 0.433593,-0.269532 0.707031,-0.378907 0.214844,-0.05469 0.542969,-0.109375 0.867188,-0.109375 0.269531,0 0.488281,0 0.703124,0.109375 0.21875,0.05469 0.382813,0.164063 0.488282,0.273438 0.164062,0.105469 0.273437,0.269531 0.328125,0.433593 0.05469,0.164063 0.105469,0.324219 0.105469,0.542969 v 6.242188 c 0,0.05469 0,0.164062 0.05469,0.273437 0,0.05469 0.05469,0.160156 0.109375,0.214844 0.05469,0.109375 0.109375,0.164062 0.21875,0.21875 0.05078,0.05469 0.160156,0.05469 0.269531,0.05469 0.164063,0 0.378907,-0.05469 0.542969,-0.164063 0.164062,-0.05469 0.324219,-0.164063 0.488281,-0.324219 0.160157,-0.109375 0.269531,-0.21875 0.378907,-0.382812 0.109374,-0.105469 0.21875,-0.214844 0.269531,-0.269532 v -5.429687 c 0,-0.109375 0,-0.164063 -0.05078,-0.21875 0,-0.05469 0,-0.105469 0,-0.160156 -0.05469,-0.05469 -0.109376,-0.109375 -0.109376,-0.164063 -0.05469,-0.05469 -0.164062,-0.05469 -0.21875,-0.05469 -0.109374,0 -0.214843,0.05469 -0.324218,0.109375 -0.109375,0.109375 -0.21875,0.164062 -0.269532,0.269531 l -0.21875,-0.214844 c 0.109376,-0.109375 0.21875,-0.273437 0.324219,-0.433593 0.164063,-0.164063 0.328125,-0.273438 0.542969,-0.4375 0.164062,-0.160157 0.433594,-0.269532 0.652344,-0.378907 0.269531,-0.05469 0.542968,-0.109375 0.867187,-0.109375 0.269531,0 0.542969,0 0.703125,0.109375 0.21875,0.05469 0.382813,0.164063 0.542969,0.273438 0.109375,0.105469 0.21875,0.269531 0.328125,0.433593 0.05078,0.164063 0.105469,0.324219 0.105469,0.542969 z m 0,0"
       id="path232" />
    <path
       style="fill:#ffffff;fill-opacity:1;fill-rule:nonzero;stroke:none"
       d="m 73.21875,38.929688 c 0.214844,-0.382813 0.488281,-0.707032 0.757812,-0.976563 0.109376,-0.109375 0.21875,-0.273437 0.324219,-0.382813 0.164063,-0.109374 0.273438,-0.214843 0.433594,-0.324218 0.164063,-0.05469 0.273437,-0.164063 0.4375,-0.21875 0.160156,-0.05469 0.269531,-0.05469 0.433594,-0.05469 0.324219,0 0.59375,0.109375 0.757812,0.273438 0.164063,0.214844 0.269531,0.433594 0.269531,0.8125 0,0.21875 0,0.382812 -0.05078,0.597656 -0.05469,0.21875 -0.109375,0.433594 -0.21875,0.707031 h -0.21875 C 76.09375,39.199219 75.984375,39.035156 75.875,38.875 c -0.164062,-0.109375 -0.378906,-0.164062 -0.597656,-0.164062 -0.214844,0 -0.378906,0 -0.59375,0.109374 -0.164063,0.05469 -0.382813,0.164063 -0.542969,0.269532 -0.164063,0.109375 -0.328125,0.21875 -0.488281,0.328125 -0.164063,0.109375 -0.328125,0.269531 -0.433594,0.378906 v 6.027344 c 0,0.109375 0,0.214843 -0.05469,0.324219 0,0.109374 -0.109374,0.21875 -0.164062,0.328124 -0.109375,0.05469 -0.269531,0.160157 -0.433594,0.214844 -0.214844,0.109375 -0.433594,0.109375 -0.8125,0.109375 -0.324218,0 -0.542968,0 -0.761718,-0.109375 -0.160157,-0.05469 -0.324219,-0.160156 -0.433594,-0.269531 -0.105469,-0.109375 -0.160156,-0.21875 -0.160156,-0.328125 -0.05469,-0.105469 -0.05469,-0.214844 -0.05469,-0.269531 v -7.222657 c 0,-0.160156 -0.05469,-0.324218 -0.109375,-0.488281 -0.109375,-0.109375 -0.269531,-0.160156 -0.433594,-0.160156 -0.109375,0 -0.21875,0 -0.269531,0.05078 -0.109375,0 -0.164062,0.05469 -0.273438,0.164063 l -0.160156,-0.269531 c 0.105469,-0.109376 0.269532,-0.21875 0.484375,-0.328126 0.164063,-0.109374 0.328125,-0.214843 0.542969,-0.324218 0.21875,-0.05469 0.433594,-0.164063 0.652344,-0.21875 0.269531,-0.05469 0.488281,-0.05469 0.757812,-0.05469 0.273438,0 0.488282,0 0.707032,0.109375 0.160156,0.05469 0.324218,0.164063 0.433593,0.273438 0.164063,0.105469 0.214844,0.214843 0.324219,0.378906 0.05469,0.164063 0.109375,0.269531 0.109375,0.433594 0.05469,0.164062 0.05469,0.273437 0.109375,0.433593 0,0.109376 0,0.21875 0,0.328126 z m 0,0"
       id="path234" />
    <path
       style="fill:#ffffff;fill-opacity:1;fill-rule:nonzero;stroke:none"
       d="m 77.394531,37.191406 c 0.433594,-0.273437 0.703125,-0.542968 0.8125,-0.816406 0.164063,-0.324219 0.21875,-0.59375 0.21875,-0.867188 0,-0.269531 -0.05469,-0.542968 -0.21875,-0.761718 -0.164062,-0.214844 -0.324219,-0.378906 -0.542969,-0.542969 -0.109374,-0.105469 -0.109374,-0.214844 -0.109374,-0.324219 0,-0.109375 0,-0.269531 0.109374,-0.378906 0.109376,-0.164062 0.21875,-0.273438 0.328126,-0.433594 0.160156,-0.109375 0.324218,-0.164062 0.484374,-0.273437 0.21875,-0.05469 0.4375,-0.109375 0.597657,-0.109375 0.21875,0 0.378906,0.05469 0.542969,0.164062 0.109374,0.109375 0.21875,0.21875 0.324218,0.378906 0.05469,0.109376 0.109375,0.273438 0.164063,0.433594 0.05469,0.164063 0.05469,0.273438 0.05469,0.4375 0,0.378906 -0.05469,0.703125 -0.21875,1.03125 -0.105468,0.324219 -0.269531,0.652344 -0.539062,0.921875 -0.21875,0.324219 -0.4375,0.597657 -0.761719,0.816407 -0.269531,0.269531 -0.597656,0.488281 -0.921875,0.648437 z m 0,0"
       id="path236" />
    <path
       style="fill:#ffffff;fill-opacity:1;fill-rule:nonzero;stroke:none"
       d="m 86.070312,41.804688 c 0,-0.105469 0,-0.269532 -0.109374,-0.324219 -0.105469,-0.109375 -0.269532,-0.109375 -0.378907,-0.109375 -0.214843,0 -0.433593,0.05469 -0.648437,0.109375 -0.164063,0.109375 -0.378906,0.269531 -0.488282,0.433593 -0.164062,0.21875 -0.273437,0.433594 -0.378906,0.761719 -0.109375,0.269531 -0.109375,0.597657 -0.109375,0.976563 0,0.324218 0,0.652344 0.05469,0.867187 0.05469,0.273438 0.105469,0.433594 0.214843,0.597657 0.109376,0.109374 0.21875,0.21875 0.328126,0.273437 0.105468,0.05469 0.214843,0.105469 0.378906,0.105469 0.160156,0 0.324218,-0.05078 0.433594,-0.160156 0.160156,-0.05469 0.269531,-0.164063 0.378906,-0.328126 0.109375,-0.105468 0.214844,-0.269531 0.269531,-0.433593 0.05469,-0.160157 0.05469,-0.324219 0.05469,-0.488281 z m -1.464843,-4.070313 c -0.214844,0 -0.378907,0 -0.59375,0.05469 -0.164063,0.05469 -0.328125,0.109376 -0.433594,0.214844 -0.164063,0.05469 -0.273437,0.164063 -0.328125,0.21875 -0.05469,0.109375 -0.105469,0.21875 -0.105469,0.269532 0,0.109374 0.05078,0.164062 0.160157,0.21875 0.05469,0 0.164062,0.05469 0.273437,0.109374 0.160156,0.05469 0.269531,0.164063 0.324219,0.214844 0.109375,0.109375 0.164062,0.273438 0.164062,0.492188 0,0.105468 0,0.214844 -0.05469,0.324218 -0.05469,0.109376 -0.164063,0.21875 -0.21875,0.324219 -0.109375,0.05469 -0.214844,0.109375 -0.324219,0.164063 -0.109375,0.05469 -0.273438,0.109375 -0.378906,0.109375 -0.382813,0 -0.652344,-0.164063 -0.871094,-0.378907 -0.214844,-0.21875 -0.324219,-0.542968 -0.324219,-0.925781 0,-0.378906 0.109375,-0.703125 0.324219,-0.976562 0.164062,-0.269531 0.4375,-0.542969 0.761719,-0.707031 0.324219,-0.160157 0.703125,-0.269532 1.085937,-0.378907 0.433594,-0.05469 0.8125,-0.109375 1.246094,-0.109375 0.488281,0 0.921875,0.05469 1.355469,0.164063 0.433593,0.109375 0.867187,0.273437 1.191406,0.488281 0.328125,0.21875 0.597656,0.542969 0.816406,0.867188 C 88.890625,38.875 89,39.308594 89,39.796875 V 45.0625 c 0,0.05469 0,0.109375 0,0.21875 0,0.05469 0,0.109375 0.05469,0.164062 0,0.05078 0.05469,0.105469 0.109374,0.160157 0.05469,0 0.105469,0.05469 0.214844,0.05469 0.109375,0 0.21875,-0.05469 0.273438,-0.164062 0.105468,-0.05078 0.214844,-0.160156 0.269531,-0.214844 l 0.21875,0.164062 c -0.05469,0.160157 -0.164063,0.269532 -0.328125,0.433594 -0.105469,0.160156 -0.269531,0.324219 -0.488281,0.433594 -0.160157,0.164062 -0.378907,0.269531 -0.648438,0.378906 -0.21875,0.05469 -0.488281,0.109375 -0.816406,0.109375 -0.433594,0 -0.757813,-0.109375 -1.082031,-0.324219 -0.273438,-0.21875 -0.488282,-0.597656 -0.597656,-1.085937 -0.164063,0.269531 -0.378907,0.488281 -0.597657,0.648437 -0.214843,0.21875 -0.433593,0.328126 -0.648437,0.4375 -0.21875,0.160157 -0.488282,0.214844 -0.707032,0.269532 -0.214843,0.05469 -0.433593,0.05469 -0.648437,0.05469 -0.328125,0 -0.597656,-0.05469 -0.871094,-0.109375 -0.324219,-0.109375 -0.539062,-0.269531 -0.757812,-0.433594 -0.214844,-0.21875 -0.433594,-0.488281 -0.542969,-0.8125 -0.160156,-0.328124 -0.214844,-0.707031 -0.214844,-1.195312 0,-0.542969 0.105469,-1.03125 0.324219,-1.359375 0.269531,-0.378906 0.542969,-0.703125 0.921875,-0.921875 0.324219,-0.269531 0.757812,-0.488281 1.246094,-0.652344 0.433594,-0.160156 0.921875,-0.378906 1.410156,-0.542968 0.328125,-0.160157 0.597656,-0.378907 0.761719,-0.652344 0.160156,-0.269532 0.269531,-0.542969 0.269531,-0.867188 0,-0.488281 -0.164062,-0.8125 -0.433594,-1.085937 -0.269531,-0.324219 -0.597656,-0.433594 -1.085937,-0.433594 z m 0,0"
       id="path238" />
    <path
       style="fill:#ffffff;fill-opacity:1;fill-rule:nonzero;stroke:none"
       d="m 96.917969,42.023438 c 0,-0.816407 -0.05469,-1.410157 -0.109375,-1.902344 -0.05469,-0.488282 -0.160156,-0.8125 -0.269532,-1.085938 -0.164062,-0.214844 -0.273437,-0.378906 -0.433593,-0.488281 -0.109375,-0.05469 -0.273438,-0.105469 -0.433594,-0.105469 -0.164063,0 -0.328125,0.05078 -0.488281,0.160156 -0.109375,0.109376 -0.21875,0.21875 -0.324219,0.328126 -0.109375,0.105468 -0.21875,0.269531 -0.273437,0.378906 -0.05469,0.109375 -0.164063,0.21875 -0.164063,0.269531 v 6.246094 c 0,0.109375 -0.05078,0.164062 -0.05078,0.324219 -0.05469,0.109374 -0.109375,0.21875 -0.164063,0.328124 -0.109375,0.05469 -0.273437,0.160157 -0.433593,0.214844 -0.21875,0.109375 -0.488282,0.109375 -0.8125,0.109375 -0.328126,0 -0.597657,0 -0.761719,-0.109375 C 91.984375,46.636719 91.875,46.53125 91.765625,46.421875 91.65625,46.3125 91.601562,46.203125 91.550781,46.09375 c 0,-0.105469 0,-0.214844 0,-0.269531 v -7.222657 c 0,-0.160156 -0.05469,-0.324218 -0.164062,-0.488281 -0.05469,-0.109375 -0.21875,-0.160156 -0.378907,-0.160156 -0.109374,0 -0.21875,0 -0.273437,0.05078 -0.105469,0 -0.160156,0.05469 -0.269531,0.164063 l -0.21875,-0.269531 c 0.164062,-0.109376 0.328125,-0.21875 0.488281,-0.328126 0.21875,-0.109374 0.378906,-0.214843 0.597656,-0.324218 0.21875,-0.05469 0.433594,-0.164063 0.652344,-0.21875 0.214844,-0.05469 0.488281,-0.05469 0.757813,-0.05469 0.378906,0 0.707031,0.05469 0.921874,0.164063 0.21875,0.164062 0.378907,0.324219 0.488282,0.488281 0.109375,0.21875 0.21875,0.378906 0.21875,0.597656 0,0.21875 0.05078,0.378906 0.05078,0.542969 0.21875,-0.378906 0.488281,-0.652344 0.761719,-0.921875 0.109375,-0.109375 0.269531,-0.21875 0.378906,-0.328125 0.164062,-0.105469 0.324219,-0.214844 0.488281,-0.269531 0.164063,-0.109375 0.324219,-0.164063 0.542969,-0.21875 0.160156,-0.05469 0.324219,-0.05469 0.542969,-0.05469 0.433593,0 0.8125,0.05469 1.136719,0.21875 0.328124,0.164063 0.597656,0.433594 0.8125,0.8125 0.21875,0.382813 0.382812,0.925782 0.542968,1.523438 0.109375,0.648437 0.164063,1.410156 0.164063,2.332031 0,0.925781 -0.109375,1.683594 -0.269531,2.335937 -0.164063,0.707032 -0.382813,1.25 -0.597657,1.738282 -0.273437,0.433594 -0.597656,0.8125 -0.921875,1.140625 -0.328125,0.269531 -0.652344,0.542969 -0.976562,0.703125 -0.324219,0.164062 -0.652344,0.273437 -0.976563,0.328125 -0.324219,0.05469 -0.597656,0.105469 -0.8125,0.105469 l -0.109375,-0.378907 c 0.214844,-0.05469 0.378906,-0.109375 0.542969,-0.214843 0.160156,-0.05469 0.324219,-0.21875 0.433594,-0.382813 0.109375,-0.214844 0.214843,-0.433594 0.324219,-0.703125 0.109374,-0.273438 0.21875,-0.597656 0.273437,-1.035156 0.05078,-0.433594 0.105469,-0.921875 0.160156,-1.464844 0.05469,-0.597656 0.05469,-1.246094 0.05469,-2.007812 z m 0,0"
       id="path240" />
    <path
       style="fill:url(#linear0);fill-rule:evenodd;stroke:none"
       d="m 175.55859,40.449219 h 97.67969 c 4.49219,0 8.13281,4.738281 8.13281,10.585937 v 15.910156 c 0,5.847657 -3.64062,10.585938 -8.13281,10.585938 h -97.67969 c -4.49218,0 -8.13281,-4.738281 -8.13281,-10.585938 V 51.035156 c 0,-5.847656 3.64063,-10.585937 8.13281,-10.585937 z m 0,0"
       id="path242" />
    <path
       style="fill:#ffffff;fill-opacity:1;fill-rule:nonzero;stroke:none"
       d="m 190.74609,55.867188 h 0.0547 l 3.52344,8.578124 h 0.92187 l 3.58203,-8.578124 v 8.578124 h 1.41016 V 54.023438 h -2.11719 l -3.2539,7.925781 h -0.10938 l -3.30859,-7.925781 h -2.11328 v 10.421874 h 1.41015 z m 0,0"
       id="path244" />
    <path
       style="fill:#ffffff;fill-opacity:1;fill-rule:nonzero;stroke:none"
       d="m 208.69531,57.441406 h -1.35547 v 3.640625 c 0,1.628907 -0.8125,2.332031 -1.89843,2.332031 -0.86719,0 -1.625,-0.488281 -1.625,-1.789062 v -4.183594 h -1.30079 v 4.507813 c 0,1.898437 1.13672,2.714843 2.49219,2.714843 1.08594,0 2.00781,-0.542968 2.33203,-1.25 v 1.03125 h 1.35547 z m 0,0"
       id="path246" />
    <path
       style="fill:#ffffff;fill-opacity:1;fill-rule:nonzero;stroke:none"
       d="m 212.11328,53.316406 h -1.30078 v 11.128906 h 1.30078 z m 0,0"
       id="path248" />
    <path
       style="fill:#ffffff;fill-opacity:1;fill-rule:nonzero;stroke:none"
       d="m 215.09766,59.125 c 0.48828,-0.324219 0.97656,-0.757812 1.95312,-0.757812 1.13672,0 1.67969,0.757812 1.67969,1.464843 v 0.269531 h -0.97656 c -2.11329,0 -3.85157,0.652344 -3.85157,2.445313 0,1.355469 1.14063,2.117187 2.44141,2.117187 1.03125,0 1.84375,-0.378906 2.44141,-1.25 h 0.0547 c 0,0.328126 0,0.707032 0,1.03125 h 1.19141 c -0.0547,-0.324218 -0.0547,-0.757812 -0.0547,-1.246093 v -3.585938 c 0,-1.195312 -0.86719,-2.332031 -2.92578,-2.332031 -0.97656,0 -2.00781,0.324219 -2.76562,1.03125 z m 3.63281,1.957031 v 0.488281 c 0,0.921876 -0.48828,2.007813 -2.00781,2.007813 -0.86719,0 -1.46485,-0.324219 -1.46485,-1.140625 0,-1.140625 1.51953,-1.355469 2.76953,-1.355469 z m 0,0"
       id="path250" />
    <path
       style="fill:#ffffff;fill-opacity:1;fill-rule:nonzero;stroke:none"
       d="m 222.03906,64.445312 h 1.30078 v -7.003906 h -1.30078 z m -0.32422,-9.5 c 0,0.542969 0.4336,0.976563 0.97657,0.976563 0.53906,0 0.97656,-0.433594 0.97656,-0.976563 0,-0.542968 -0.4375,-0.976562 -0.97656,-0.976562 -0.54297,0 -0.97657,0.433594 -0.97657,0.976562 z m 0,0"
       id="path252" />
    <path
       style="fill:#ffffff;fill-opacity:1;fill-rule:nonzero;stroke:none"
       d="m 229.90234,64.445312 h 3.58203 c 2.0586,0 3.6875,-1.03125 3.6875,-2.875 0,-1.414062 -0.97656,-2.5 -2.27734,-2.609374 v -0.05078 c 1.08203,-0.328125 1.84375,-1.085937 1.84375,-2.28125 0,-1.792968 -1.35547,-2.605468 -3.20312,-2.605468 h -3.63282 z m 1.41016,-9.175781 h 2.22266 c 1.14062,0 1.68359,0.707031 1.68359,1.523438 0,1.136719 -0.86719,1.574219 -1.95313,1.574219 h -1.95312 z m 0,4.34375 h 2.11719 c 1.35547,0 2.22265,0.597657 2.22265,1.847657 0,1.464843 -1.41015,1.792968 -2.22265,1.792968 h -2.11719 z m 0,0"
       id="path254" />
    <path
       style="fill:#ffffff;fill-opacity:1;fill-rule:nonzero;stroke:none"
       d="m 239.71875,59.125 c 0.48828,-0.324219 0.97656,-0.757812 1.95312,-0.757812 1.14063,0 1.6836,0.757812 1.6836,1.464843 v 0.269531 h -0.97656 c -2.11719,0 -3.85157,0.652344 -3.85157,2.445313 0,1.355469 1.13672,2.117187 2.44141,2.117187 1.02734,0 1.84375,-0.378906 2.4375,-1.25 h 0.0547 c 0,0.328126 0,0.707032 0,1.03125 h 1.19531 c -0.0547,-0.324218 -0.0547,-0.757812 -0.0547,-1.246093 v -3.585938 c 0,-1.195312 -0.86719,-2.332031 -2.92969,-2.332031 -0.97656,0 -2.00781,0.324219 -2.76562,1.03125 z m 3.63672,1.957031 v 0.488281 c 0,0.921876 -0.48828,2.007813 -2.00781,2.007813 -0.86719,0 -1.46485,-0.324219 -1.46485,-1.140625 0,-1.140625 1.51953,-1.355469 2.76563,-1.355469 z m 0,0"
       id="path256" />
    <path
       style="fill:#ffffff;fill-opacity:1;fill-rule:nonzero;stroke:none"
       d="m 252.57422,58.417969 c -0.70703,-0.757813 -1.6836,-1.136719 -2.71094,-1.136719 -2.17187,0 -3.69141,1.574219 -3.69141,3.691406 0,2.171875 1.51954,3.691406 3.69141,3.691406 1.02734,0 1.94922,-0.328124 2.65625,-1.085937 l -0.92187,-0.976563 c -0.48829,0.542969 -0.97657,0.8125 -1.73438,0.8125 -1.35547,0 -2.22656,-1.085937 -2.22656,-2.386718 0,-1.304688 0.70703,-2.5 2.17187,-2.5 0.75782,0 1.2461,0.273437 1.73438,0.816406 z m 0,0"
       id="path258" />
    <path
       style="fill:#ffffff;fill-opacity:1;fill-rule:nonzero;stroke:none"
       d="m 254.47266,59.125 c 0.48828,-0.324219 0.97656,-0.757812 2.0039,-0.757812 1.14063,0 1.6836,0.757812 1.6836,1.464843 v 0.269531 h -0.97657 c -2.11328,0 -3.85156,0.652344 -3.85156,2.445313 0,1.355469 1.08594,2.117187 2.38672,2.117187 1.08594,0 1.89844,-0.378906 2.49609,-1.25 0,0.328126 0,0.707032 0.0547,1.03125 h 1.19141 c -0.0547,-0.324218 -0.0547,-0.757812 -0.0547,-1.246093 v -3.585938 c 0,-1.195312 -0.86719,-2.332031 -2.92969,-2.332031 -0.97265,0 -2.05859,0.324219 -2.76562,1.03125 z m 3.6875,1.957031 v 0.488281 c 0,0.921876 -0.54297,2.007813 -2.00782,2.007813 -0.92187,0 -1.51953,-0.324219 -1.51953,-1.140625 0,-1.140625 1.57422,-1.355469 2.82031,-1.355469 z m 0,0"
       id="path260" />
  </g>
</svg>
