<?xml version="1.0" encoding="UTF-8"?>
<!DOCTYPE svg PUBLIC "-//W3C//DTD SVG 1.1//EN" "http://www.w3.org/Graphics/SVG/1.1/DTD/svg11.dtd">
<!-- Creator: CorelDRAW X7 -->
<svg xmlns="http://www.w3.org/2000/svg" xml:space="preserve" width="23" height="23" version="1.1" style="shape-rendering:geometricPrecision; text-rendering:geometricPrecision; image-rendering:optimizeQuality; fill-rule:evenodd; clip-rule:evenodd"
viewBox="0 0 16933 16933"
 xmlns:xlink="http://www.w3.org/1999/xlink">
 <defs>
  <style type="text/css">
   <![CDATA[
    .fil0 {fill:#CCCCCC;fill-rule:nonzero}
   ]]>
  </style>
 </defs>
 <g id="Layer_x0020_1">
  <metadata id="CorelCorpID_0Corel-Layer"/>
  <path class="fil0" d="M5187 2479c-157,0 -284,-127 -284,-284 0,-156 127,-284 284,-284l7293 0c309,0 590,116 796,301 213,192 346,460 346,756l0 121c232,37 441,139 603,285 213,192 346,460 346,756l0 9986c0,198 -55,382 -159,543 -100,155 -246,286 -429,380 -178,91 -371,136 -562,135 -193,-1 -386,-50 -563,-144l-3397 -1807c-95,-51 -199,-76 -304,-76 -105,0 -210,26 -306,77l0 0 -3396 1806c-176,94 -369,143 -562,144 -191,1 -384,-44 -562,-135 -183,-94 -328,-225 -428,-379l-1 -1c-39,-61 -72,-125 -97,-192 -90,22 -182,33 -274,34l-1 0c-191,1 -384,-43 -561,-135l-2 0c-181,-93 -327,-223 -428,-379l-1 -1c-103,-160 -159,-345 -159,-542l0 -10476c0,-296 133,-564 347,-756 206,-185 488,-301 796,-301 156,0 284,128 284,284 0,157 -128,284 -284,284 -165,0 -313,59 -418,153 -97,88 -157,207 -157,336l0 10476c0,87 23,168 68,237 46,72 119,135 211,182l0 1c97,49 200,73 301,73l1 0c72,-1 145,-15 215,-40l0 -9767c0,-296 133,-564 346,-756 204,-184 484,-298 788,-301l8 0 7 0 8163 0 0 -105c0,-129 -61,-248 -157,-336 -105,-94 -253,-153 -418,-153l-7293 0zm8159 1162l-7 0 -7 0 -8440 0 -7 0 -8 0c-161,2 -306,60 -409,153 -97,88 -158,207 -158,336l0 9986c0,88 24,169 68,237 47,73 119,136 210,183 97,49 201,74 303,74 100,-1 204,-28 298,-78l3397 -1807 1 -2c181,-95 376,-144 570,-144 194,0 389,49 570,146l3397 1807c95,50 198,76 299,77 102,1 205,-24 303,-73 92,-47 163,-110 210,-183l1 -1c43,-67 67,-148 67,-236l0 -9986c0,-129 -61,-248 -158,-336 -105,-94 -253,-153 -418,-153l-82 0z"/>
  <polygon class="fil0" points="11230,3073 13339,3073 13622,3073 13622,3357 13622,5949 13622,6480 13181,6184 12285,5583 11387,6184 10946,6479 10946,5949 10946,3357 10946,3073 "/>
 </g>
</svg>
