<svg xmlns="http://www.w3.org/2000/svg" xml:space="preserve" width="25" height="25" version="1.0" style="shape-rendering:geometricPrecision;text-rendering:geometricPrecision;image-rendering:optimizeQuality;fill-rule:evenodd;clip-rule:evenodd" viewBox="0 0 279 330"><path d="M71 51h181c10 0 18 8 18 18v236c0 6-3 12-9 15-6 4-13 4-18 0l-72-42c-6-4-13-4-19 0l-72 42c-5 4-12 4-18 0-6-3-9-9-9-15V69c0-10 8-18 18-18" style="fill:none"/><path d="M243 60v52l-23-16-22 16V60h45zM63 16c-5 0-9-4-9-9 0-4 4-8 9-8h154c7 0 14 3 19 8s8 11 8 19v9c0 4-3 7-6 8h14c7 0 14 3 19 8s8 11 8 18v236c0 4-2 9-4 13s-6 7-10 10c-4 2-9 3-13 3-5 0-10-1-14-4l-72-42c-1-1-3-1-5-1-1 0-3 0-4 1l-72 42c-5 3-9 4-14 4-4 0-9-1-13-3-4-3-8-6-10-10s-4-9-4-13v-14c0 2-1 3-3 4-4 3-9 4-13 4-5 0-9-1-14-4-4-2-7-5-10-9-2-4-3-9-3-14V26c0-8 3-14 8-19s11-8 18-8c5 0 9 4 9 8 0 5-4 9-9 9-2 0-5 1-6 3-2 1-3 4-3 7v246c0 2 0 4 1 5 1 2 2 3 4 4 1 1 3 1 5 1 1 0 3 0 4-1 4-3 10-1 12 3V69c0-7 3-13 8-18s12-8 19-8h162c-4-1-6-4-6-8v-9c0-3-1-6-3-7-2-2-4-3-7-3H63z" style="fill:#6e248d"/></svg>