<?xml version="1.0" encoding="UTF-8"?>
<!DOCTYPE svg PUBLIC "-//W3C//DTD SVG 1.1//EN" "http://www.w3.org/Graphics/SVG/1.1/DTD/svg11.dtd">
<!-- Creator: CorelDRAW X7 -->
<svg xmlns="http://www.w3.org/2000/svg" xml:space="preserve" width="26" height="26" version="1.1" style="shape-rendering:geometricPrecision; text-rendering:geometricPrecision; image-rendering:optimizeQuality; fill-rule:evenodd; clip-rule:evenodd"
viewBox="0 0 16933 16933"
 xmlns:xlink="http://www.w3.org/1999/xlink">
 <defs>
  <style type="text/css">
   <![CDATA[
    .fil0 {fill:#6E248D;fill-rule:nonzero}
   ]]>
  </style>
 </defs>
 <g id="Layer_x0020_1">
  <metadata id="CorelCorpID_0Corel-Layer"/>
  <path class="fil0" d="M5522 2325c-148,0 -268,-120 -268,-268 0,-148 120,-268 268,-268l6888 0c292,0 557,109 752,283 201,182 327,435 327,715l0 114c219,35 416,132 569,269 202,181 327,435 327,714l0 9432c0,186 -52,360 -150,512 -95,147 -233,270 -406,359 -168,86 -350,128 -531,127 -182,-1 -364,-47 -531,-135l-3208 -1707c-90,-48 -189,-72 -287,-72 -99,0 -199,24 -290,72l0 0 -3206 1707c-167,88 -350,135 -531,136 -181,1 -363,-42 -531,-128 -173,-89 -310,-212 -405,-358l-1 -1c-37,-58 -68,-118 -91,-181 -85,21 -172,31 -259,32l-1 0c-181,1 -362,-41 -530,-127l-1 0c-172,-88 -309,-211 -404,-358l-2 -2c-97,-151 -150,-325 -150,-512l0 -9893c0,-280 126,-533 328,-715 194,-174 461,-283 752,-283 147,0 268,120 268,268 0,148 -121,268 -268,268 -156,0 -296,55 -395,145 -92,82 -149,195 -149,317l0 9893c0,83 22,159 64,224 45,68 113,128 200,173l0 0c91,46 189,69 284,69l1 0c68,-1 137,-14 203,-38l0 -9224c0,-280 126,-533 327,-714 193,-173 457,-282 745,-284l7 0 7 0 7709 0 0 -99c0,-122 -57,-235 -149,-317 -99,-90 -238,-145 -394,-145l-6888 0zm7706 1097l-7 0 -7 0 -7970 0 -7 0 -7 0c-153,2 -290,57 -387,145 -92,83 -149,195 -149,317l0 9432c0,83 22,159 64,224 45,68 113,128 198,172 92,47 190,70 287,69 94,0 192,-25 281,-73l3208 -1707 1 -1c171,-90 356,-136 539,-136 183,0 367,46 538,137l3208 1707c90,48 187,72 282,73 97,1 195,-22 286,-69 87,-44 155,-104 199,-173l1 -1c41,-63 63,-139 63,-222l0 -9432c0,-122 -57,-234 -149,-317 -99,-89 -239,-145 -394,-145l-78 0z"/>
  <polygon class="fil0" points="11229,2886 13221,2886 13489,2886 13489,3154 13489,5602 13489,6103 13072,5824 12226,5256 11378,5824 10961,6103 10961,5602 10961,3154 10961,2886 "/>
 </g>
</svg>
