<svg xmlns="http://www.w3.org/2000/svg" xml:space="preserve" width="23" height="23" version="1.0" style="shape-rendering:geometricPrecision;text-rendering:geometricPrecision;image-rendering:optimizeQuality;fill-rule:evenodd;clip-rule:evenodd" viewBox="0 0 279 330"><defs><style>.fil0{fill:#b3b3b3;fill-rule:nonzero}</style></defs><g id="Layer_x0020_1"><g id="_1065027801232"><path class="fil0" d="M71 60c-3 0-5 1-7 3-2 1-3 4-3 6v236c0 1 1 3 2 4 0 2 2 3 3 4 2 1 4 1 5 1 2 0 3 0 5-1l72-43c4-2 9-3 13-3 5 0 10 1 14 3l72 43c2 1 3 1 5 1 1 0 3 0 5-1 1-1 3-2 3-3v-1c1-1 2-3 2-4V69c0-2-1-5-3-6-2-2-4-3-7-3H71zm0-17h181c7 0 14 3 19 8s8 11 8 18v236c0 4-2 9-4 13s-6 7-10 10c-4 2-9 3-13 3-5 0-10-1-14-4l-72-42c-1-1-3-1-5-1-1 0-3 0-4 1l-72 42c-5 3-9 4-14 4-4 0-9-1-13-3-4-3-8-6-10-10s-4-9-4-13V69c0-7 3-14 8-18 5-5 12-8 19-8z"/><path class="fil0" d="M63 16c-5 0-9-4-9-9 0-4 4-8 9-8h154c7 0 14 3 19 8s8 11 8 19v9c0 4-4 8-9 8-4 0-8-4-8-8v-9c0-3-1-6-3-7-2-2-4-3-7-3H63zM32 281c4-3 10-1 12 3s1 9-3 11c-4 3-9 4-13 4-5 0-9-1-14-4-4-2-7-5-10-9-2-4-3-9-3-14V26c0-8 3-14 8-19 4-5 11-8 18-8 5 0 9 4 9 8 0 5-4 9-9 9-2 0-5 1-6 3-2 1-3 4-3 7v246c0 2 0 4 1 5 1 2 2 3 4 4 1 1 3 1 5 1 1 0 3 0 4-1z"/><path style="fill:#b3b3b3" d="M243 51h-45v61l22-16 23 16z"/></g></g></svg>