<svg data-name="Layer 1" width="23" height="23" xmlns="http://www.w3.org/2000/svg" viewBox="0 0 174.98 182.99"><defs><linearGradient id="a" x1="667.68" y1="-785.73" x2="884.68" y2="-565.73" gradientTransform="matrix(1 0 0 -1 -712.45 -565.19)" gradientUnits="userSpaceOnUse"><stop offset="0" stop-color="#6e248d"/><stop offset=".59" stop-color="#92359b"/><stop offset=".66" stop-color="#95399e"/><stop offset=".74" stop-color="#9e45a6"/><stop offset=".82" stop-color="#ae59b3"/><stop offset=".9" stop-color="#c375c6"/><stop offset=".98" stop-color="#df99dd"/><stop offset="1" stop-color="#e9a6e6"/></linearGradient><linearGradient id="b" x1="58.14" y1="75.92" x2="116.84" y2="129.74" gradientTransform="matrix(1 0 0 -1 0 184)" gradientUnits="userSpaceOnUse"><stop offset="0" stop-color="#fff"/><stop offset=".59" stop-color="#fff"/><stop offset=".67" stop-color="#fefbfe"/><stop offset=".76" stop-color="#fbeffb"/><stop offset=".85" stop-color="#f6dbf5"/><stop offset=".94" stop-color="#efbfed"/><stop offset="1" stop-color="#e9a6e6"/></linearGradient></defs><path d="M152.27.59v32.22a3.5 3.5 0 0 1-5 3.15l-10.93-5.33a5.36 5.36 0 0 0-4.69 0l-11 5.37a3.5 3.5 0 0 1-4.65-1.64 3.54 3.54 0 0 1-.34-1.5V6.15A6.15 6.15 0 0 0 109.5 0H0v166.3a16.68 16.68 0 0 0 24 15l52.44-25.65a25.53 25.53 0 0 1 22.4 0l52.16 25.4a16.68 16.68 0 0 0 24-15V28.53A28.55 28.55 0 0 0 152.27.59z" style="fill:url(#a)"/><rect x="35.61" y="75.17" width="103.76" height="12" rx="6" ry="6" style="opacity:.5;isolation:isolate;fill:url(#b)"/></svg>