<svg data-name="Layer 1" width="23" height="23" xmlns="http://www.w3.org/2000/svg" viewBox="0 0 174.97 183"><path d="M874.72 746.78V779a3.5 3.5 0 0 1-5 3.15l-10.93-5.33a5.33 5.33 0 0 0-4.69 0l-11 5.37a3.49 3.49 0 0 1-5-3.14v-26.71a6.15 6.15 0 0 0-6.15-6.15h-109.5v166.3a16.68 16.68 0 0 0 24 15l52.44-25.65a25.53 25.53 0 0 1 22.4 0l52.14 25.4a16.68 16.68 0 0 0 24-15V774.72a28.55 28.55 0 0 0-22.71-27.94z" transform="translate(-722.45 -746.19)" style="fill:#ccc"/><path style="fill:#fff" d="M35.61 75.17h103.76v12H35.61z"/></svg>