<svg width="33" height="33" fill="none" xmlns="http://www.w3.org/2000/svg"><path d="M16.5 33C25.613 33 33 25.613 33 16.5S25.613 0 16.5 0 0 7.387 0 16.5 7.387 33 16.5 33z" fill="url(#a)"/><path d="M16.5 33C25.613 33 33 25.613 33 16.5S25.613 0 16.5 0 0 7.387 0 16.5 7.387 33 16.5 33z" fill="url(#b)" fill-opacity=".4"/><path d="M16.5 33C25.613 33 33 25.613 33 16.5S25.613 0 16.5 0 0 7.387 0 16.5 7.387 33 16.5 33z" fill="url(#c)" fill-opacity=".4"/><g filter="url(#d)"><path d="M9.911 16.043a2.762 2.762 0 1 0 0-5.524 2.762 2.762 0 0 0 0 5.524z" fill="#5A3A13"/><path d="M9.911 16.043a2.762 2.762 0 1 0 0-5.524 2.762 2.762 0 0 0 0 5.524z" fill="url(#e)" style="mix-blend-mode:soft-light"/></g><g filter="url(#f)"><path d="M22.617 16.043a2.762 2.762 0 1 0 0-5.524 2.762 2.762 0 0 0 0 5.524z" fill="#5A3A13"/><path d="M22.617 16.043a2.762 2.762 0 1 0 0-5.524 2.762 2.762 0 0 0 0 5.524z" fill="url(#g)" style="mix-blend-mode:soft-light"/></g><g filter="url(#h)"><path d="M16.5 25.667c-5.79 0-6.82-3.85-6.861-4.015a.459.459 0 0 1 .767-.436c.016.017 1.791 1.7 6.094 1.7 4.303 0 6.077-1.683 6.094-1.7a.463.463 0 0 1 .55-.071.457.457 0 0 1 .217.508c-.041.164-1.07 4.014-6.861 4.014z" fill="#9F5600"/><path d="M16.5 25.667c-5.79 0-6.82-3.85-6.861-4.015a.459.459 0 0 1 .767-.436c.016.017 1.791 1.7 6.094 1.7 4.303 0 6.077-1.683 6.094-1.7a.463.463 0 0 1 .55-.071.457.457 0 0 1 .217.508c-.041.164-1.07 4.014-6.861 4.014z" fill="url(#i)" fill-opacity=".5"/></g><defs><radialGradient id="a" cx="0" cy="0" r="1" gradientUnits="userSpaceOnUse" gradientTransform="rotate(90 4.31 11.944) scale(9.60448)"><stop stop-color="#FDF3DF"/><stop offset="1" stop-color="#FFC533"/></radialGradient><radialGradient id="b" cx="0" cy="0" r="1" gradientUnits="userSpaceOnUse" gradientTransform="rotate(172.648 12.304 10.558) scale(7.69762)"><stop stop-color="#FF5C28"/><stop offset="1" stop-color="#FF5C28" stop-opacity="0"/></radialGradient><radialGradient id="c" cx="0" cy="0" r="1" gradientUnits="userSpaceOnUse" gradientTransform="rotate(33.69 -28.709 23.758) scale(6.62991)"><stop stop-color="#FF5C28"/><stop offset="1" stop-color="#FF5C28" stop-opacity="0"/></radialGradient><radialGradient id="e" cx="0" cy="0" r="1" gradientUnits="userSpaceOnUse" gradientTransform="rotate(67.886 -4.054 12.668) scale(3.80067 3.6512)"><stop stop-color="#fff"/><stop offset="1" stop-opacity="0"/></radialGradient><radialGradient id="g" cx="0" cy="0" r="1" gradientUnits="userSpaceOnUse" gradientTransform="rotate(67.886 2.3 22.107) scale(3.80067 3.6512)"><stop stop-color="#fff"/><stop offset="1" stop-opacity="0"/></radialGradient><radialGradient id="i" cx="0" cy="0" r="1" gradientUnits="userSpaceOnUse" gradientTransform="matrix(0 3.54445 -16.8487 0 16.317 22.137)"><stop/><stop offset="1" stop-opacity="0"/></radialGradient><filter id="d" x="5.29" y="9.069" width="9.242" height="9.53" filterUnits="userSpaceOnUse" color-interpolation-filters="sRGB"><feFlood flood-opacity="0" result="BackgroundImageFix"/><feColorMatrix in="SourceAlpha" values="0 0 0 0 0 0 0 0 0 0 0 0 0 0 0 0 0 0 127 0" result="hardAlpha"/><feOffset dy=".697"/><feGaussianBlur stdDeviation=".929"/><feColorMatrix values="0 0 0 0 0.520833 0 0 0 0 0.0740885 0 0 0 0 0.0455729 0 0 0 0.45 0"/><feBlend in2="BackgroundImageFix" result="effect1_dropShadow"/><feColorMatrix in="SourceAlpha" values="0 0 0 0 0 0 0 0 0 0 0 0 0 0 0 0 0 0 127 0" result="hardAlpha"/><feOffset dy=".232"/><feGaussianBlur stdDeviation=".697"/><feColorMatrix values="0 0 0 0 0.225 0 0 0 0 0.0874875 0 0 0 0 0.0440625 0 0 0 0.25 0"/><feBlend in2="effect1_dropShadow" result="effect2_dropShadow"/><feBlend in="SourceGraphic" in2="effect2_dropShadow" result="shape"/><feColorMatrix in="SourceAlpha" values="0 0 0 0 0 0 0 0 0 0 0 0 0 0 0 0 0 0 127 0" result="hardAlpha"/><feOffset dy="-1.394"/><feGaussianBlur stdDeviation="1.394"/><feComposite in2="hardAlpha" operator="arithmetic" k2="-1" k3="1"/><feColorMatrix values="0 0 0 0 0.629167 0 0 0 0 0.206786 0 0 0 0 0.0734028 0 0 0 0.11 0"/><feBlend in2="shape" result="effect3_innerShadow"/><feColorMatrix in="SourceAlpha" values="0 0 0 0 0 0 0 0 0 0 0 0 0 0 0 0 0 0 127 0" result="hardAlpha"/><feOffset dy="-1.45"/><feGaussianBlur stdDeviation="1.45"/><feComposite in2="hardAlpha" operator="arithmetic" k2="-1" k3="1"/><feColorMatrix values="0 0 0 0 0.956863 0 0 0 0 0.72549 0 0 0 0 0.639216 0 0 0 0.14 0"/><feBlend in2="effect3_innerShadow" result="effect4_innerShadow"/></filter><filter id="f" x="17.997" y="9.069" width="9.242" height="9.53" filterUnits="userSpaceOnUse" color-interpolation-filters="sRGB"><feFlood flood-opacity="0" result="BackgroundImageFix"/><feColorMatrix in="SourceAlpha" values="0 0 0 0 0 0 0 0 0 0 0 0 0 0 0 0 0 0 127 0" result="hardAlpha"/><feOffset dy=".697"/><feGaussianBlur stdDeviation=".929"/><feColorMatrix values="0 0 0 0 0.520833 0 0 0 0 0.0740885 0 0 0 0 0.0455729 0 0 0 0.45 0"/><feBlend in2="BackgroundImageFix" result="effect1_dropShadow"/><feColorMatrix in="SourceAlpha" values="0 0 0 0 0 0 0 0 0 0 0 0 0 0 0 0 0 0 127 0" result="hardAlpha"/><feOffset dy=".232"/><feGaussianBlur stdDeviation=".697"/><feColorMatrix values="0 0 0 0 0.225 0 0 0 0 0.0874875 0 0 0 0 0.0440625 0 0 0 0.25 0"/><feBlend in2="effect1_dropShadow" result="effect2_dropShadow"/><feBlend in="SourceGraphic" in2="effect2_dropShadow" result="shape"/><feColorMatrix in="SourceAlpha" values="0 0 0 0 0 0 0 0 0 0 0 0 0 0 0 0 0 0 127 0" result="hardAlpha"/><feOffset dy="-1.394"/><feGaussianBlur stdDeviation="1.394"/><feComposite in2="hardAlpha" operator="arithmetic" k2="-1" k3="1"/><feColorMatrix values="0 0 0 0 0.629167 0 0 0 0 0.206786 0 0 0 0 0.0734028 0 0 0 0.11 0"/><feBlend in2="shape" result="effect3_innerShadow"/><feColorMatrix in="SourceAlpha" values="0 0 0 0 0 0 0 0 0 0 0 0 0 0 0 0 0 0 127 0" result="hardAlpha"/><feOffset dy="-1.45"/><feGaussianBlur stdDeviation="1.45"/><feComposite in2="hardAlpha" operator="arithmetic" k2="-1" k3="1"/><feColorMatrix values="0 0 0 0 0.956863 0 0 0 0 0.72549 0 0 0 0 0.639216 0 0 0 0.14 0"/><feBlend in2="effect3_innerShadow" result="effect4_innerShadow"/></filter><filter id="h" x="9.625" y="21.083" width="13.75" height="8.583" filterUnits="userSpaceOnUse" color-interpolation-filters="sRGB"><feFlood flood-opacity="0" result="BackgroundImageFix"/><feBlend in="SourceGraphic" in2="BackgroundImageFix" result="shape"/><feColorMatrix in="SourceAlpha" values="0 0 0 0 0 0 0 0 0 0 0 0 0 0 0 0 0 0 127 0" result="hardAlpha"/><feOffset dy="1"/><feGaussianBlur stdDeviation="1"/><feComposite in2="hardAlpha" operator="arithmetic" k2="-1" k3="1"/><feColorMatrix values="0 0 0 0 0 0 0 0 0 0 0 0 0 0 0 0 0 0 0.25 0"/><feBlend in2="shape" result="effect1_innerShadow"/><feColorMatrix in="SourceAlpha" values="0 0 0 0 0 0 0 0 0 0 0 0 0 0 0 0 0 0 127 0" result="hardAlpha"/><feOffset dy="4"/><feGaussianBlur stdDeviation="2"/><feComposite in2="hardAlpha" operator="arithmetic" k2="-1" k3="1"/><feColorMatrix values="0 0 0 0 0 0 0 0 0 0 0 0 0 0 0 0 0 0 0.15 0"/><feBlend in2="effect1_innerShadow" result="effect2_innerShadow"/></filter></defs></svg>