<svg width="33" height="33" fill="none" xmlns="http://www.w3.org/2000/svg"><path d="M33 16.5C33 25.613 25.613 33 16.5 33S0 25.613 0 16.5 7.387 0 16.5 0 33 7.387 33 16.5z" fill="url(#a)"/><path d="M33 16.5C33 25.613 25.613 33 16.5 33S0 25.613 0 16.5 7.387 0 16.5 0 33 7.387 33 16.5z" fill="url(#b)"/><path d="M33 16.5C33 25.613 25.613 33 16.5 33S0 25.613 0 16.5 7.387 0 16.5 0 33 7.387 33 16.5z" fill="url(#c)"/><g filter="url(#d)"><path d="M25.057 19.827a.46.46 0 0 0-.582-.027c-.036.027-3.595 2.658-7.975 2.658-4.369 0-7.94-2.631-7.975-2.658a.459.459 0 0 0-.668.602c.118.197 2.949 4.806 8.643 4.806 5.694 0 8.526-4.609 8.643-4.806a.457.457 0 0 0-.086-.575z" fill="#9F5600"/><path d="M25.057 19.827a.46.46 0 0 0-.582-.027c-.036.027-3.595 2.658-7.975 2.658-4.369 0-7.94-2.631-7.975-2.658a.459.459 0 0 0-.668.602c.118.197 2.949 4.806 8.643 4.806 5.694 0 8.526-4.609 8.643-4.806a.457.457 0 0 0-.086-.575z" fill="url(#e)" fill-opacity=".5"/></g><g filter="url(#f)"><path d="M6.924 13.653a.915.915 0 0 0 1.23-.41c.005-.013.722-1.326 2.846-1.326 2.09 0 2.812 1.264 2.852 1.337a.917.917 0 0 0 1.634-.83c-.048-.096-1.207-2.34-4.486-2.34-3.278 0-4.439 2.243-4.486 2.339a.917.917 0 0 0 .41 1.23z" fill="#5A3A13"/><path d="M6.924 13.653a.915.915 0 0 0 1.23-.41c.005-.013.722-1.326 2.846-1.326 2.09 0 2.812 1.264 2.852 1.337a.917.917 0 0 0 1.634-.83c-.048-.096-1.207-2.34-4.486-2.34-3.278 0-4.439 2.243-4.486 2.339a.917.917 0 0 0 .41 1.23z" fill="url(#g)" style="mix-blend-mode:soft-light"/></g><g filter="url(#h)"><path d="M24.846 13.243a.917.917 0 0 0 1.641-.82c-.048-.095-1.208-2.34-4.487-2.34s-4.44 2.245-4.487 2.34a.911.911 0 0 0 .401 1.217.924.924 0 0 0 1.233-.385c.03-.054.746-1.338 2.853-1.338 2.108 0 2.823 1.284 2.846 1.326z" fill="#5A3A13"/><path d="M24.846 13.243a.917.917 0 0 0 1.641-.82c-.048-.095-1.208-2.34-4.487-2.34s-4.44 2.245-4.487 2.34a.911.911 0 0 0 .401 1.217.924.924 0 0 0 1.233-.385c.03-.054.746-1.338 2.853-1.338 2.108 0 2.823 1.284 2.846 1.326z" fill="url(#i)" style="mix-blend-mode:soft-light"/></g><defs><radialGradient id="a" cx="0" cy="0" r="1" gradientUnits="userSpaceOnUse" gradientTransform="rotate(90 4.31 11.944) scale(9.60448)"><stop stop-color="#FDF3DF"/><stop offset="1" stop-color="#FFC533"/></radialGradient><radialGradient id="b" cx="0" cy="0" r="1" gradientUnits="userSpaceOnUse" gradientTransform="rotate(162.301 11.415 11.74) scale(9.57682)"><stop stop-color="#FF5C28"/><stop offset="1" stop-color="#FF5C28" stop-opacity="0"/></radialGradient><radialGradient id="c" cx="0" cy="0" r="1" gradientUnits="userSpaceOnUse" gradientTransform="rotate(43.751 -20.622 20.364) scale(9.54752)"><stop stop-color="#FF5C28"/><stop offset="1" stop-color="#FF5C28" stop-opacity="0"/></radialGradient><radialGradient id="e" cx="0" cy="0" r="1" gradientUnits="userSpaceOnUse" gradientTransform="matrix(0 4.25305 -21.3417 0 16.268 20.974)"><stop/><stop offset="1" stop-opacity="0"/></radialGradient><radialGradient id="g" cx="0" cy="0" r="1" gradientUnits="userSpaceOnUse" gradientTransform="rotate(44.554 -8.31 17.42) scale(3.33146 4.58777)"><stop stop-color="#fff"/><stop offset="1" stop-opacity="0"/></radialGradient><radialGradient id="i" cx="0" cy="0" r="1" gradientUnits="userSpaceOnUse" gradientTransform="matrix(2.37417 2.33695 -3.21821 3.26946 20.834 10.837)"><stop stop-color="#fff"/><stop offset="1" stop-opacity="0"/></radialGradient><filter id="d" x="7.792" y="19.709" width="17.417" height="9.5" filterUnits="userSpaceOnUse" color-interpolation-filters="sRGB"><feFlood flood-opacity="0" result="BackgroundImageFix"/><feBlend in="SourceGraphic" in2="BackgroundImageFix" result="shape"/><feColorMatrix in="SourceAlpha" values="0 0 0 0 0 0 0 0 0 0 0 0 0 0 0 0 0 0 127 0" result="hardAlpha"/><feOffset dy="1"/><feGaussianBlur stdDeviation="1"/><feComposite in2="hardAlpha" operator="arithmetic" k2="-1" k3="1"/><feColorMatrix values="0 0 0 0 0 0 0 0 0 0 0 0 0 0 0 0 0 0 0.25 0"/><feBlend in2="shape" result="effect1_innerShadow"/><feColorMatrix in="SourceAlpha" values="0 0 0 0 0 0 0 0 0 0 0 0 0 0 0 0 0 0 127 0" result="hardAlpha"/><feOffset dy="4"/><feGaussianBlur stdDeviation="2"/><feComposite in2="hardAlpha" operator="arithmetic" k2="-1" k3="1"/><feColorMatrix values="0 0 0 0 0 0 0 0 0 0 0 0 0 0 0 0 0 0 0.15 0"/><feBlend in2="effect1_innerShadow" result="effect2_innerShadow"/></filter><filter id="f" x="4.558" y="8.634" width="12.884" height="7.673" filterUnits="userSpaceOnUse" color-interpolation-filters="sRGB"><feFlood flood-opacity="0" result="BackgroundImageFix"/><feColorMatrix in="SourceAlpha" values="0 0 0 0 0 0 0 0 0 0 0 0 0 0 0 0 0 0 127 0" result="hardAlpha"/><feOffset dy=".697"/><feGaussianBlur stdDeviation=".929"/><feColorMatrix values="0 0 0 0 0.520833 0 0 0 0 0.0740885 0 0 0 0 0.0455729 0 0 0 0.45 0"/><feBlend in2="BackgroundImageFix" result="effect1_dropShadow"/><feColorMatrix in="SourceAlpha" values="0 0 0 0 0 0 0 0 0 0 0 0 0 0 0 0 0 0 127 0" result="hardAlpha"/><feOffset dy=".232"/><feGaussianBlur stdDeviation=".697"/><feColorMatrix values="0 0 0 0 0.225 0 0 0 0 0.0874875 0 0 0 0 0.0440625 0 0 0 0.25 0"/><feBlend in2="effect1_dropShadow" result="effect2_dropShadow"/><feBlend in="SourceGraphic" in2="effect2_dropShadow" result="shape"/><feColorMatrix in="SourceAlpha" values="0 0 0 0 0 0 0 0 0 0 0 0 0 0 0 0 0 0 127 0" result="hardAlpha"/><feOffset dy="-1.394"/><feGaussianBlur stdDeviation="1.394"/><feComposite in2="hardAlpha" operator="arithmetic" k2="-1" k3="1"/><feColorMatrix values="0 0 0 0 0.629167 0 0 0 0 0.206786 0 0 0 0 0.0734028 0 0 0 0.11 0"/><feBlend in2="shape" result="effect3_innerShadow"/><feColorMatrix in="SourceAlpha" values="0 0 0 0 0 0 0 0 0 0 0 0 0 0 0 0 0 0 127 0" result="hardAlpha"/><feOffset dy="-1.45"/><feGaussianBlur stdDeviation="1.45"/><feComposite in2="hardAlpha" operator="arithmetic" k2="-1" k3="1"/><feColorMatrix values="0 0 0 0 0.956863 0 0 0 0 0.72549 0 0 0 0 0.639216 0 0 0 0.14 0"/><feBlend in2="effect3_innerShadow" result="effect4_innerShadow"/></filter><filter id="h" x="15.558" y="8.634" width="12.884" height="7.672" filterUnits="userSpaceOnUse" color-interpolation-filters="sRGB"><feFlood flood-opacity="0" result="BackgroundImageFix"/><feColorMatrix in="SourceAlpha" values="0 0 0 0 0 0 0 0 0 0 0 0 0 0 0 0 0 0 127 0" result="hardAlpha"/><feOffset dy=".697"/><feGaussianBlur stdDeviation=".929"/><feColorMatrix values="0 0 0 0 0.520833 0 0 0 0 0.0740885 0 0 0 0 0.0455729 0 0 0 0.45 0"/><feBlend in2="BackgroundImageFix" result="effect1_dropShadow"/><feColorMatrix in="SourceAlpha" values="0 0 0 0 0 0 0 0 0 0 0 0 0 0 0 0 0 0 127 0" result="hardAlpha"/><feOffset dy=".232"/><feGaussianBlur stdDeviation=".697"/><feColorMatrix values="0 0 0 0 0.225 0 0 0 0 0.0874875 0 0 0 0 0.0440625 0 0 0 0.25 0"/><feBlend in2="effect1_dropShadow" result="effect2_dropShadow"/><feBlend in="SourceGraphic" in2="effect2_dropShadow" result="shape"/><feColorMatrix in="SourceAlpha" values="0 0 0 0 0 0 0 0 0 0 0 0 0 0 0 0 0 0 127 0" result="hardAlpha"/><feOffset dy="-1.394"/><feGaussianBlur stdDeviation="1.394"/><feComposite in2="hardAlpha" operator="arithmetic" k2="-1" k3="1"/><feColorMatrix values="0 0 0 0 0.629167 0 0 0 0 0.206786 0 0 0 0 0.0734028 0 0 0 0.11 0"/><feBlend in2="shape" result="effect3_innerShadow"/><feColorMatrix in="SourceAlpha" values="0 0 0 0 0 0 0 0 0 0 0 0 0 0 0 0 0 0 127 0" result="hardAlpha"/><feOffset dy="-1.45"/><feGaussianBlur stdDeviation="1.45"/><feComposite in2="hardAlpha" operator="arithmetic" k2="-1" k3="1"/><feColorMatrix values="0 0 0 0 0.956863 0 0 0 0 0.72549 0 0 0 0 0.639216 0 0 0 0.14 0"/><feBlend in2="effect3_innerShadow" result="effect4_innerShadow"/></filter></defs></svg>