<svg width="33" height="33" fill="none" xmlns="http://www.w3.org/2000/svg"><path d="M33 16.5C33 25.613 25.613 33 16.5 33S0 25.613 0 16.5 7.387 0 16.5 0 33 7.387 33 16.5z" fill="url(#a)"/><path d="M33 16.5C33 25.613 25.613 33 16.5 33S0 25.613 0 16.5 7.387 0 16.5 0 33 7.387 33 16.5z" fill="url(#b)" fill-opacity=".4"/><path d="M33 16.5C33 25.613 25.613 33 16.5 33S0 25.613 0 16.5 7.387 0 16.5 0 33 7.387 33 16.5z" fill="url(#c)" fill-opacity=".4"/><g filter="url(#d)"><path d="M16.5 19.25c-3.321 0-5.525-.387-8.25-.917-.622-.12-1.833 0-1.833 1.834 0 3.666 4.212 8.25 10.083 8.25 5.87 0 10.083-4.584 10.083-8.25 0-1.834-1.21-1.955-1.833-1.834-2.725.53-4.929.917-8.25.917z" fill="#9F5600"/><path d="M16.5 19.25c-3.321 0-5.525-.387-8.25-.917-.622-.12-1.833 0-1.833 1.834 0 3.666 4.212 8.25 10.083 8.25 5.87 0 10.083-4.584 10.083-8.25 0-1.834-1.21-1.955-1.833-1.834-2.725.53-4.929.917-8.25.917z" fill="url(#e)" fill-opacity=".5"/></g><path d="M9.873 21.93c-.712-.536-.145-1.394.735-1.257 1.368.212 3.332.41 5.892.41 2.56 0 4.524-.198 5.892-.41.88-.137 1.447.721.735 1.256-1.25.94-3.336 1.904-6.627 1.904-3.29 0-5.376-.964-6.627-1.904z" fill="#EBEBEB"/><path d="m14.375 4.045-4.163.735L8.067.88a1.148 1.148 0 0 0-2.137.377l-.683 4.397-4.163.734a1.146 1.146 0 0 0-.292 2.164l3.73 1.771-.685 4.412a1.148 1.148 0 0 0 1.132 1.321c.3 0 .596-.117.817-.34l3.22-3.265 4.14 1.966a1.146 1.146 0 0 0 1.496-1.586L12.49 8.919l2.9-2.94a1.147 1.147 0 0 0-1.015-1.934z" fill="url(#f)"/><path d="m14.375 4.045-4.163.735L8.067.88a1.148 1.148 0 0 0-2.137.377l-.683 4.397-4.163.734a1.146 1.146 0 0 0-.292 2.164l3.73 1.771-.685 4.412a1.148 1.148 0 0 0 1.132 1.321c.3 0 .596-.117.817-.34l3.22-3.265 4.14 1.966a1.146 1.146 0 0 0 1.496-1.586L12.49 8.919l2.9-2.94a1.147 1.147 0 0 0-1.015-1.934z" fill="url(#g)"/><path d="m18.625 4.045 4.163.735L24.933.88a1.147 1.147 0 0 1 2.136.377l.683 4.397 4.164.734a1.147 1.147 0 0 1 .291 2.163l-3.73 1.772.685 4.41a1.148 1.148 0 0 1-1.132 1.322c-.3 0-.596-.117-.817-.34l-3.22-3.265-4.14 1.966a1.146 1.146 0 0 1-1.496-1.586l2.152-3.912-2.9-2.94a1.147 1.147 0 0 1-.2-1.338 1.154 1.154 0 0 1 1.216-.596z" fill="url(#h)"/><path d="m18.625 4.045 4.163.735L24.933.88a1.147 1.147 0 0 1 2.136.377l.683 4.397 4.164.734a1.147 1.147 0 0 1 .291 2.163l-3.73 1.772.685 4.41a1.148 1.148 0 0 1-1.132 1.322c-.3 0-.596-.117-.817-.34l-3.22-3.265-4.14 1.966a1.146 1.146 0 0 1-1.496-1.586l2.152-3.912-2.9-2.94a1.147 1.147 0 0 1-.2-1.338 1.154 1.154 0 0 1 1.216-.596z" fill="url(#i)"/><defs><radialGradient id="a" cx="0" cy="0" r="1" gradientUnits="userSpaceOnUse" gradientTransform="rotate(90 4.31 11.944) scale(9.60448)"><stop stop-color="#FDF3DF"/><stop offset="1" stop-color="#FFC533"/></radialGradient><radialGradient id="b" cx="0" cy="0" r="1" gradientUnits="userSpaceOnUse" gradientTransform="rotate(172.648 12.304 10.558) scale(7.69762)"><stop stop-color="#FF5C28"/><stop offset="1" stop-color="#FF5C28" stop-opacity="0"/></radialGradient><radialGradient id="c" cx="0" cy="0" r="1" gradientUnits="userSpaceOnUse" gradientTransform="rotate(33.69 -28.709 23.758) scale(6.62991)"><stop stop-color="#FF5C28"/><stop offset="1" stop-color="#FF5C28" stop-opacity="0"/></radialGradient><radialGradient id="e" cx="0" cy="0" r="1" gradientUnits="userSpaceOnUse" gradientTransform="matrix(0 7.82371 -24.7109 0 16.231 20.627)"><stop/><stop offset="1" stop-opacity="0"/></radialGradient><radialGradient id="g" cx="0" cy="0" r="1" gradientUnits="userSpaceOnUse" gradientTransform="rotate(17.3 -14.586 29.168) scale(15.0599 15.1234)"><stop stop-color="#ED7E00"/><stop offset=".718" stop-color="#E65F29"/><stop offset="1" stop-color="#FFC533"/></radialGradient><radialGradient id="i" cx="0" cy="0" r="1" gradientUnits="userSpaceOnUse" gradientTransform="rotate(17.3 -6.015 85.508) scale(15.0596 15.1226)"><stop stop-color="#ED7E00"/><stop offset=".718" stop-color="#E65F29"/><stop offset="1" stop-color="#FFC533"/></radialGradient><linearGradient id="f" x1="7.929" y1=".288" x2="7.929" y2="16.057" gradientUnits="userSpaceOnUse"><stop stop-color="#A33E16"/><stop offset="1" stop-color="#E95F28"/></linearGradient><linearGradient id="h" x1="25.07" y1=".288" x2="25.07" y2="16.056" gradientUnits="userSpaceOnUse"><stop stop-color="#A33E16"/><stop offset="1" stop-color="#E95F28"/></linearGradient><filter id="d" x="6.417" y="18.3" width="20.167" height="14.117" filterUnits="userSpaceOnUse" color-interpolation-filters="sRGB"><feFlood flood-opacity="0" result="BackgroundImageFix"/><feBlend in="SourceGraphic" in2="BackgroundImageFix" result="shape"/><feColorMatrix in="SourceAlpha" values="0 0 0 0 0 0 0 0 0 0 0 0 0 0 0 0 0 0 127 0" result="hardAlpha"/><feOffset dy="1"/><feGaussianBlur stdDeviation="1"/><feComposite in2="hardAlpha" operator="arithmetic" k2="-1" k3="1"/><feColorMatrix values="0 0 0 0 0 0 0 0 0 0 0 0 0 0 0 0 0 0 0.25 0"/><feBlend in2="shape" result="effect1_innerShadow"/><feColorMatrix in="SourceAlpha" values="0 0 0 0 0 0 0 0 0 0 0 0 0 0 0 0 0 0 127 0" result="hardAlpha"/><feOffset dy="4"/><feGaussianBlur stdDeviation="2"/><feComposite in2="hardAlpha" operator="arithmetic" k2="-1" k3="1"/><feColorMatrix values="0 0 0 0 0 0 0 0 0 0 0 0 0 0 0 0 0 0 0.15 0"/><feBlend in2="effect1_innerShadow" result="effect2_innerShadow"/></filter></defs></svg>