<svg width="33" height="33" fill="none" xmlns="http://www.w3.org/2000/svg"><path d="M33 16.5C33 25.613 25.613 33 16.5 33 7.388 33 0 25.613 0 16.5 0 7.388 7.388 0 16.5 0 25.613 0 33 7.388 33 16.5z" fill="url(#a)"/><path d="M33 16.5C33 25.613 25.613 33 16.5 33 7.388 33 0 25.613 0 16.5 0 7.388 7.388 0 16.5 0 25.613 0 33 7.388 33 16.5z" fill="url(#b)" fill-opacity=".4"/><path d="M33 16.5C33 25.613 25.613 33 16.5 33 7.388 33 0 25.613 0 16.5 0 7.388 7.388 0 16.5 0 25.613 0 33 7.388 33 16.5z" fill="url(#c)" fill-opacity=".4"/><g filter="url(#d)"><path d="M14.398 15.852c-2.984-2.984-7.779-3.019-7.981-3.019a.918.918 0 0 0 0 1.833c.025 0 1.763.02 3.65.676-.544.587-.9 1.498-.9 2.533 0 1.773 1.025 3.208 2.291 3.208s2.292-1.435 2.292-3.208c0-.16-.017-.312-.034-.465.012 0 .023.007.034.007a.916.916 0 0 0 .648-1.565zm12.185-3.019c-.202 0-4.996.035-7.981 3.019a.916.916 0 0 0 .648 1.565c.012 0 .022-.007.033-.007-.015.153-.033.305-.033.465 0 1.773 1.026 3.208 2.292 3.208 1.266 0 2.291-1.435 2.291-3.208 0-1.035-.356-1.946-.9-2.533a12.768 12.768 0 0 1 3.652-.675.917.917 0 0 0-.002-1.834z" fill="#5F1340"/><path d="M14.398 15.852c-2.984-2.984-7.779-3.019-7.981-3.019a.918.918 0 0 0 0 1.833c.025 0 1.763.02 3.65.676-.544.587-.9 1.498-.9 2.533 0 1.773 1.025 3.208 2.291 3.208s2.292-1.435 2.292-3.208c0-.16-.017-.312-.034-.465.012 0 .023.007.034.007a.916.916 0 0 0 .648-1.565zm12.185-3.019c-.202 0-4.996.035-7.981 3.019a.916.916 0 0 0 .648 1.565c.012 0 .022-.007.033-.007-.015.153-.033.305-.033.465 0 1.773 1.026 3.208 2.292 3.208 1.266 0 2.291-1.435 2.291-3.208 0-1.035-.356-1.946-.9-2.533a12.768 12.768 0 0 1 3.652-.675.917.917 0 0 0-.002-1.834z" fill="url(#e)" style="mix-blend-mode:soft-light"/></g><path d="M16.5 23.375c5.79 0 6.82 3.85 6.861 4.014a.459.459 0 0 1-.767.436c-.017-.016-1.791-1.7-6.094-1.7-4.303 0-6.077 1.684-6.094 1.701a.464.464 0 0 1-.55.07.457.457 0 0 1-.217-.507c.041-.164 1.07-4.014 6.861-4.014z" fill="#5F1340"/><defs><radialGradient id="a" cx="0" cy="0" r="1" gradientUnits="userSpaceOnUse" gradientTransform="rotate(90 4.31 11.944) scale(9.60448)"><stop stop-color="#EF929D"/><stop offset="1" stop-color="#DA3048"/></radialGradient><radialGradient id="b" cx="0" cy="0" r="1" gradientUnits="userSpaceOnUse" gradientTransform="rotate(172.648 12.304 10.558) scale(7.69762)"><stop stop-color="#D93047"/><stop offset="1" stop-color="#FF4B4B" stop-opacity="0"/></radialGradient><radialGradient id="c" cx="0" cy="0" r="1" gradientUnits="userSpaceOnUse" gradientTransform="rotate(33.69 -28.709 23.758) scale(6.62991)"><stop stop-color="#FF4B4B"/><stop offset="1" stop-color="#FF4B4B" stop-opacity="0"/></radialGradient><radialGradient id="e" cx="0" cy="0" r="1" gradientUnits="userSpaceOnUse" gradientTransform="rotate(42.705 -11.731 24.788) scale(7.7528 10.6435)"><stop stop-color="#fff"/><stop offset="1" stop-opacity="0"/></radialGradient><filter id="d" x="3.642" y="11.383" width="25.715" height="12.255" filterUnits="userSpaceOnUse" color-interpolation-filters="sRGB"><feFlood flood-opacity="0" result="BackgroundImageFix"/><feColorMatrix in="SourceAlpha" values="0 0 0 0 0 0 0 0 0 0 0 0 0 0 0 0 0 0 127 0" result="hardAlpha"/><feOffset dy=".697"/><feGaussianBlur stdDeviation=".929"/><feColorMatrix values="0 0 0 0 0.520833 0 0 0 0 0.0740885 0 0 0 0 0.0455729 0 0 0 0.45 0"/><feBlend in2="BackgroundImageFix" result="effect1_dropShadow"/><feColorMatrix in="SourceAlpha" values="0 0 0 0 0 0 0 0 0 0 0 0 0 0 0 0 0 0 127 0" result="hardAlpha"/><feOffset dy=".232"/><feGaussianBlur stdDeviation=".697"/><feColorMatrix values="0 0 0 0 0.225 0 0 0 0 0.0874875 0 0 0 0 0.0440625 0 0 0 0.25 0"/><feBlend in2="effect1_dropShadow" result="effect2_dropShadow"/><feBlend in="SourceGraphic" in2="effect2_dropShadow" result="shape"/><feColorMatrix in="SourceAlpha" values="0 0 0 0 0 0 0 0 0 0 0 0 0 0 0 0 0 0 127 0" result="hardAlpha"/><feOffset dy="-1.394"/><feGaussianBlur stdDeviation="1.394"/><feComposite in2="hardAlpha" operator="arithmetic" k2="-1" k3="1"/><feColorMatrix values="0 0 0 0 0.629167 0 0 0 0 0.206786 0 0 0 0 0.0734028 0 0 0 0.11 0"/><feBlend in2="shape" result="effect3_innerShadow"/><feColorMatrix in="SourceAlpha" values="0 0 0 0 0 0 0 0 0 0 0 0 0 0 0 0 0 0 127 0" result="hardAlpha"/><feOffset dy="-1.45"/><feGaussianBlur stdDeviation="1.45"/><feComposite in2="hardAlpha" operator="arithmetic" k2="-1" k3="1"/><feColorMatrix values="0 0 0 0 0.956863 0 0 0 0 0.72549 0 0 0 0 0.639216 0 0 0 0.14 0"/><feBlend in2="effect3_innerShadow" result="effect4_innerShadow"/></filter></defs></svg>