<svg width="33" height="33" fill="none" xmlns="http://www.w3.org/2000/svg"><path d="M33 16.5C33 25.613 25.613 33 16.5 33 7.388 33 0 25.613 0 16.5 0 7.388 7.388 0 16.5 0 25.613 0 33 7.388 33 16.5z" fill="url(#a)"/><path d="M33 16.5C33 25.613 25.613 33 16.5 33 7.388 33 0 25.613 0 16.5 0 7.388 7.388 0 16.5 0 25.613 0 33 7.388 33 16.5z" fill="url(#b)" fill-opacity=".4"/><path d="M33 16.5C33 25.613 25.613 33 16.5 33 7.388 33 0 25.613 0 16.5 0 7.388 7.388 0 16.5 0 25.613 0 33 7.388 33 16.5z" fill="url(#c)" fill-opacity=".4"/><g filter="url(#d)"><path d="M5.5 12.833A.917.917 0 0 1 5.496 11c.143-.002 3.272-.079 5.688-3.3a.917.917 0 0 1 1.467 1.1C9.66 12.787 5.669 12.833 5.5 12.833zm22 0c-.169 0-4.159-.046-7.15-4.033a.916.916 0 1 1 1.466-1.1c2.42 3.228 5.556 3.299 5.689 3.3a.919.919 0 0 1 .908.921.913.913 0 0 1-.913.912z" fill="#5A3A13"/><path d="M5.5 12.833A.917.917 0 0 1 5.496 11c.143-.002 3.272-.079 5.688-3.3a.917.917 0 0 1 1.467 1.1C9.66 12.787 5.669 12.833 5.5 12.833zm22 0c-.169 0-4.159-.046-7.15-4.033a.916.916 0 1 1 1.466-1.1c2.42 3.228 5.556 3.299 5.689 3.3a.919.919 0 0 1 .908.921.913.913 0 0 1-.913.912z" fill="url(#e)" style="mix-blend-mode:soft-light"/></g><g filter="url(#f)"><path d="M15.87 16.144a.46.46 0 0 0-.56-.012c-.01.008-1.155.826-3.393.826-2.238 0-3.383-.818-3.392-.825a.46.46 0 0 0-.694.553c.055.124 1.375 3.022 4.086 3.022 2.711 0 4.03-2.898 4.085-3.022a.456.456 0 0 0-.133-.542zm9.166 0a.458.458 0 0 0-.56-.012c-.01.008-1.155.826-3.393.826-2.236 0-3.382-.818-3.391-.825a.459.459 0 0 0-.694.553c.055.124 1.375 3.022 4.085 3.022 2.712 0 4.03-2.898 4.086-3.022a.456.456 0 0 0-.133-.542z" fill="#5A3A13"/><path d="M15.87 16.144a.46.46 0 0 0-.56-.012c-.01.008-1.155.826-3.393.826-2.238 0-3.383-.818-3.392-.825a.46.46 0 0 0-.694.553c.055.124 1.375 3.022 4.086 3.022 2.711 0 4.03-2.898 4.085-3.022a.456.456 0 0 0-.133-.542zm9.166 0a.458.458 0 0 0-.56-.012c-.01.008-1.155.826-3.393.826-2.236 0-3.382-.818-3.391-.825a.459.459 0 0 0-.694.553c.055.124 1.375 3.022 4.085 3.022 2.712 0 4.03-2.898 4.086-3.022a.456.456 0 0 0-.133-.542z" fill="url(#g)" style="mix-blend-mode:soft-light"/></g><g filter="url(#h)"><path d="M20.167 25.667h-7.334a.916.916 0 1 1 0-1.834h7.334a.916.916 0 1 1 0 1.834z" fill="#9F5600"/><path d="M20.167 25.667h-7.334a.916.916 0 1 1 0-1.834h7.334a.916.916 0 1 1 0 1.834z" fill="url(#i)" fill-opacity=".5"/></g><path d="M12.833 26.167h7.334a1.416 1.416 0 1 0 0-2.834h-7.334a1.416 1.416 0 1 0 0 2.834z" stroke="#FEC535"/><defs><radialGradient id="a" cx="0" cy="0" r="1" gradientUnits="userSpaceOnUse" gradientTransform="rotate(90 4.31 11.944) scale(9.60448)"><stop stop-color="#FDF3DF"/><stop offset="1" stop-color="#FFC533"/></radialGradient><radialGradient id="b" cx="0" cy="0" r="1" gradientUnits="userSpaceOnUse" gradientTransform="rotate(172.648 12.304 10.558) scale(7.69762)"><stop stop-color="#FF5C28"/><stop offset="1" stop-color="#FF5C28" stop-opacity="0"/></radialGradient><radialGradient id="c" cx="0" cy="0" r="1" gradientUnits="userSpaceOnUse" gradientTransform="rotate(33.69 -28.709 23.758) scale(6.62991)"><stop stop-color="#FF5C28"/><stop offset="1" stop-color="#FF5C28" stop-opacity="0"/></radialGradient><radialGradient id="e" cx="0" cy="0" r="1" gradientUnits="userSpaceOnUse" gradientTransform="matrix(6.17152 3.5059 -4.14754 7.30103 13.467 8.463)"><stop stop-color="#fff"/><stop offset="1" stop-opacity="0"/></radialGradient><radialGradient id="g" cx="0" cy="0" r="1" gradientUnits="userSpaceOnUse" gradientTransform="matrix(4.51054 2.33705 -2.62955 5.07507 14.284 16.795)"><stop stop-color="#fff"/><stop offset="1" stop-opacity="0"/></radialGradient><radialGradient id="i" cx="0" cy="0" r="1" gradientUnits="userSpaceOnUse" gradientTransform="matrix(0 1.41778 -11.2322 0 16.378 24.255)"><stop/><stop offset="1" stop-opacity="0"/></radialGradient><filter id="d" x="2.725" y="5.883" width="27.547" height="9.506" filterUnits="userSpaceOnUse" color-interpolation-filters="sRGB"><feFlood flood-opacity="0" result="BackgroundImageFix"/><feColorMatrix in="SourceAlpha" values="0 0 0 0 0 0 0 0 0 0 0 0 0 0 0 0 0 0 127 0" result="hardAlpha"/><feOffset dy=".697"/><feGaussianBlur stdDeviation=".929"/><feColorMatrix values="0 0 0 0 0.520833 0 0 0 0 0.0740885 0 0 0 0 0.0455729 0 0 0 0.25 0"/><feBlend in2="BackgroundImageFix" result="effect1_dropShadow"/><feColorMatrix in="SourceAlpha" values="0 0 0 0 0 0 0 0 0 0 0 0 0 0 0 0 0 0 127 0" result="hardAlpha"/><feOffset dy=".232"/><feGaussianBlur stdDeviation=".697"/><feColorMatrix values="0 0 0 0 0.225 0 0 0 0 0.0874875 0 0 0 0 0.0440625 0 0 0 0.25 0"/><feBlend in2="effect1_dropShadow" result="effect2_dropShadow"/><feBlend in="SourceGraphic" in2="effect2_dropShadow" result="shape"/><feColorMatrix in="SourceAlpha" values="0 0 0 0 0 0 0 0 0 0 0 0 0 0 0 0 0 0 127 0" result="hardAlpha"/><feOffset dy="-1.394"/><feGaussianBlur stdDeviation="1.394"/><feComposite in2="hardAlpha" operator="arithmetic" k2="-1" k3="1"/><feColorMatrix values="0 0 0 0 0.629167 0 0 0 0 0.206786 0 0 0 0 0.0734028 0 0 0 0.11 0"/><feBlend in2="shape" result="effect3_innerShadow"/><feColorMatrix in="SourceAlpha" values="0 0 0 0 0 0 0 0 0 0 0 0 0 0 0 0 0 0 127 0" result="hardAlpha"/><feOffset dy="-1.45"/><feGaussianBlur stdDeviation="1.45"/><feComposite in2="hardAlpha" operator="arithmetic" k2="-1" k3="1"/><feColorMatrix values="0 0 0 0 0.956863 0 0 0 0 0.72549 0 0 0 0 0.639216 0 0 0 0.14 0"/><feBlend in2="effect3_innerShadow" result="effect4_innerShadow"/></filter><filter id="f" x="5.933" y="14.592" width="21.134" height="7.672" filterUnits="userSpaceOnUse" color-interpolation-filters="sRGB"><feFlood flood-opacity="0" result="BackgroundImageFix"/><feColorMatrix in="SourceAlpha" values="0 0 0 0 0 0 0 0 0 0 0 0 0 0 0 0 0 0 127 0" result="hardAlpha"/><feOffset dy=".697"/><feGaussianBlur stdDeviation=".929"/><feColorMatrix values="0 0 0 0 0.520833 0 0 0 0 0.0740885 0 0 0 0 0.0455729 0 0 0 0.25 0"/><feBlend in2="BackgroundImageFix" result="effect1_dropShadow"/><feColorMatrix in="SourceAlpha" values="0 0 0 0 0 0 0 0 0 0 0 0 0 0 0 0 0 0 127 0" result="hardAlpha"/><feOffset dy=".232"/><feGaussianBlur stdDeviation=".697"/><feColorMatrix values="0 0 0 0 0.225 0 0 0 0 0.0874875 0 0 0 0 0.0440625 0 0 0 0.25 0"/><feBlend in2="effect1_dropShadow" result="effect2_dropShadow"/><feBlend in="SourceGraphic" in2="effect2_dropShadow" result="shape"/><feColorMatrix in="SourceAlpha" values="0 0 0 0 0 0 0 0 0 0 0 0 0 0 0 0 0 0 127 0" result="hardAlpha"/><feOffset dy="-1.394"/><feGaussianBlur stdDeviation="1.394"/><feComposite in2="hardAlpha" operator="arithmetic" k2="-1" k3="1"/><feColorMatrix values="0 0 0 0 0.629167 0 0 0 0 0.206786 0 0 0 0 0.0734028 0 0 0 0.11 0"/><feBlend in2="shape" result="effect3_innerShadow"/><feColorMatrix in="SourceAlpha" values="0 0 0 0 0 0 0 0 0 0 0 0 0 0 0 0 0 0 127 0" result="hardAlpha"/><feOffset dy="-1.45"/><feGaussianBlur stdDeviation="1.45"/><feComposite in2="hardAlpha" operator="arithmetic" k2="-1" k3="1"/><feColorMatrix values="0 0 0 0 0.956863 0 0 0 0 0.72549 0 0 0 0 0.639216 0 0 0 0.14 0"/><feBlend in2="effect3_innerShadow" result="effect4_innerShadow"/></filter><filter id="h" x="10.917" y="22.833" width="11.167" height="7.833" filterUnits="userSpaceOnUse" color-interpolation-filters="sRGB"><feFlood flood-opacity="0" result="BackgroundImageFix"/><feBlend in="SourceGraphic" in2="BackgroundImageFix" result="shape"/><feColorMatrix in="SourceAlpha" values="0 0 0 0 0 0 0 0 0 0 0 0 0 0 0 0 0 0 127 0" result="hardAlpha"/><feOffset dy="1"/><feGaussianBlur stdDeviation="1"/><feComposite in2="hardAlpha" operator="arithmetic" k2="-1" k3="1"/><feColorMatrix values="0 0 0 0 0 0 0 0 0 0 0 0 0 0 0 0 0 0 0.25 0"/><feBlend in2="shape" result="effect1_innerShadow"/><feColorMatrix in="SourceAlpha" values="0 0 0 0 0 0 0 0 0 0 0 0 0 0 0 0 0 0 127 0" result="hardAlpha"/><feOffset dy="4"/><feGaussianBlur stdDeviation="2"/><feComposite in2="hardAlpha" operator="arithmetic" k2="-1" k3="1"/><feColorMatrix values="0 0 0 0 0 0 0 0 0 0 0 0 0 0 0 0 0 0 0.15 0"/><feBlend in2="effect1_innerShadow" result="effect2_innerShadow"/></filter></defs></svg>