<?xml version="1.0" encoding="UTF-8"?>
<!DOCTYPE svg PUBLIC "-//W3C//DTD SVG 1.1//EN" "http://www.w3.org/Graphics/SVG/1.1/DTD/svg11.dtd">
<!-- Creator: CorelDRAW X7 -->
<svg xmlns="http://www.w3.org/2000/svg" xml:space="preserve" width="10.4986mm" height="10.4986mm" version="1.1" style="shape-rendering:geometricPrecision; text-rendering:geometricPrecision; image-rendering:optimizeQuality; fill-rule:evenodd; clip-rule:evenodd"
viewBox="0 0 1050 1050"
 xmlns:xlink="http://www.w3.org/1999/xlink">
 <defs>
  <style type="text/css">
   <![CDATA[
    .fil1 {fill:#7D369A}
    .fil2 {fill:white;fill-rule:nonzero}
    .fil0 {fill:#7D369A;fill-opacity:0.200000}
   ]]>
  </style>
 </defs>
 <g id="Layer_x0020_1">
  <metadata id="CorelCorpID_0Corel-Layer"/>
  <g id="_919272273264">
   <path class="fil0" d="M525 0c290,0 525,235 525,525 0,290 -235,525 -525,525 -290,0 -525,-235 -525,-525 0,-290 235,-525 525,-525z"/>
   <circle class="fil1" cx="525" cy="525" r="470"/>
   <g>
    <path class="fil2" d="M602 294c96,0 174,77 174,173l0 138 -15 -7c-32,-15 -44,-5 -59,8 -19,15 -43,35 -100,35 -14,0 -27,-2 -40,-5 -6,30 -20,57 -41,78 -26,26 -62,42 -102,42 -47,0 -67,-16 -83,-29 -13,-11 -23,-19 -50,-7l-12 6 0 -13 0 -102c0,-40 16,-76 43,-102 26,-26 62,-42 102,-42 3,0 6,0 9,0 1,-96 78,-173 174,-173zm-39 335c1,-4 3,-8 4,-13 11,3 23,4 35,4 50,0 70,-17 87,-30 18,-16 33,-27 66,-16l0 -107c0,-84 -68,-153 -153,-153 -84,0 -153,68 -153,153 -4,0 -9,0 -13,1 33,3 63,19 85,41 27,26 43,62 43,102 0,6 0,12 -1,18zm-84 -31c-7,0 -13,6 -13,13 0,8 6,14 13,14 3,0 6,-1 8,-3 -5,-2 -8,-7 -8,-13 0,-4 2,-7 4,-10 -1,-1 -2,-1 -4,-1zm-123 26c1,0 2,1 3,1 7,0 13,-6 13,-14 0,-6 -4,-11 -10,-12 3,2 4,6 4,10 0,7 -4,13 -10,15zm52 -20c-1,2 -2,5 -2,7 0,8 6,13 13,14 -7,-2 -12,-8 -12,-16 0,-1 0,-3 1,-5zm-79 -83c23,-23 55,-37 90,-37 35,0 67,14 90,37 23,23 38,55 38,90 0,36 -15,67 -38,91 -23,23 -55,37 -90,37 -41,0 -59,-14 -72,-26 -16,-12 -28,-22 -56,-13l0 -89c0,-35 15,-67 38,-90zm201 -69c8,0 15,7 15,15 0,9 -7,16 -15,16 -9,0 -16,-7 -16,-16 0,-8 7,-15 16,-15zm144 0c9,0 16,7 16,15 0,9 -7,16 -16,16 -8,0 -15,-7 -15,-16 0,-8 7,-15 15,-15zm-72 0c9,0 16,7 16,15 0,9 -7,16 -16,16 -9,0 -16,-7 -16,-16 0,-8 7,-15 16,-15z"/>
    <path class="fil1" d="M350 625c9,0 16,-7 16,-16 0,-9 -7,-16 -16,-16 -8,0 -15,7 -15,16 0,9 7,16 15,16zm129 -16c0,9 8,16 16,16 9,0 16,-7 16,-16 0,-9 -7,-16 -16,-16 -8,0 -16,7 -16,16zm-72 0c0,9 7,16 16,16 9,0 16,-7 16,-16 0,-9 -7,-16 -16,-16 -9,0 -16,7 -16,16z"/>
   </g>
  </g>
 </g>
</svg>
