<svg xmlns="http://www.w3.org/2000/svg" xml:space="preserve" width="60" height="60" style="shape-rendering:geometricPrecision;text-rendering:geometricPrecision;image-rendering:optimizeQuality;fill-rule:evenodd;clip-rule:evenodd" viewBox="0 0 1050 1050"><defs><style>.fil1{fill:#1DB597}</style></defs><g id="Layer_x0020_1"><g id="_919272273264"><path d="M525 0c290 0 525 235 525 525s-235 525-525 525S0 815 0 525 235 0 525 0z" style="fill:#167563b0;fill-opacity:.2"/><circle class="fil1" cx="525" cy="525" r="470"/><path d="M602 294c96 0 174 77 174 173v138l-15-7c-32-15-44-5-59 8-19 15-43 35-100 35-14 0-27-2-40-5-6 30-20 57-41 78-26 26-62 42-102 42-47 0-67-16-83-29-13-11-23-19-50-7l-12 6V611c0-40 16-76 43-102 26-26 62-42 102-42h9c1-96 78-173 174-173zm-39 335c1-4 3-8 4-13 11 3 23 4 35 4 50 0 70-17 87-30 18-16 33-27 66-16V467c0-84-68-153-153-153-84 0-153 68-153 153-4 0-9 0-13 1 33 3 63 19 85 41 27 26 43 62 43 102 0 6 0 12-1 18zm-84-31c-7 0-13 6-13 13 0 8 6 14 13 14 3 0 6-1 8-3-5-2-8-7-8-13 0-4 2-7 4-10-1-1-2-1-4-1zm-123 26c1 0 2 1 3 1 7 0 13-6 13-14 0-6-4-11-10-12 3 2 4 6 4 10 0 7-4 13-10 15zm52-20c-1 2-2 5-2 7 0 8 6 13 13 14-7-2-12-8-12-16 0-1 0-3 1-5zm-79-83c23-23 55-37 90-37s67 14 90 37 38 55 38 90c0 36-15 67-38 91-23 23-55 37-90 37-41 0-59-14-72-26-16-12-28-22-56-13v-89c0-35 15-67 38-90zm201-69c8 0 15 7 15 15 0 9-7 16-15 16-9 0-16-7-16-16 0-8 7-15 16-15zm144 0c9 0 16 7 16 15 0 9-7 16-16 16-8 0-15-7-15-16 0-8 7-15 15-15zm-72 0c9 0 16 7 16 15 0 9-7 16-16 16s-16-7-16-16c0-8 7-15 16-15z" style="fill:#fff;fill-rule:nonzero"/><path class="fil1" d="M350 625c9 0 16-7 16-16s-7-16-16-16c-8 0-15 7-15 16s7 16 15 16zm129-16c0 9 8 16 16 16 9 0 16-7 16-16s-7-16-16-16c-8 0-16 7-16 16zm-72 0c0 9 7 16 16 16s16-7 16-16-7-16-16-16-16 7-16 16z"/></g></g></svg>