<?xml version="1.0" encoding="UTF-8"?>
<!DOCTYPE svg PUBLIC "-//W3C//DTD SVG 1.1//EN" "http://www.w3.org/Graphics/SVG/1.1/DTD/svg11.dtd">
<!-- Creator: CorelDRAW 2018 (64-Bit) -->
<svg xmlns="http://www.w3.org/2000/svg" xml:space="preserve" width="100px" height="20px" version="1.1" style="shape-rendering:geometricPrecision; text-rendering:geometricPrecision; image-rendering:optimizeQuality; fill-rule:evenodd; clip-rule:evenodd"
viewBox="0 0 100 20"
 xmlns:xlink="http://www.w3.org/1999/xlink">
 <defs>
  <style type="text/css">
   <![CDATA[
    .fil0 {fill:#1A1A1A}
   ]]>
  </style>
 </defs>
 <g id="Layer_x0020_1">
  <metadata id="CorelCorpID_0Corel-Layer"/>
  <g id="_407678790176">
   <path class="fil0" d="M99.42 7.35l0 0c0.32,0 0.58,0.2 0.58,0.45l0 4.75c0,0.25 -0.26,0.45 -0.58,0.45l0 0c-0.32,0 -0.58,-0.2 -0.58,-0.45l0 -4.75c0,-0.25 0.26,-0.45 0.58,-0.45z"/>
   <path class="fil0" d="M97.5 2.5l0 0c0.32,0 0.58,0.58 0.58,1.29l0 12.74c0,0.71 -0.26,1.29 -0.58,1.29l0 0c-0.32,0 -0.58,-0.58 -0.58,-1.29l0 -12.74c0,-0.71 0.26,-1.29 0.58,-1.29z"/>
   <path class="fil0" d="M95.52 0.04l0 0c0.32,0 0.58,0.75 0.58,1.68l0 16.9c0,0.93 -0.26,1.68 -0.58,1.68l0 0.01c-0.32,-0.01 -0.58,-0.76 -0.58,-1.69l0 -16.9c0,-0.93 0.26,-1.68 0.58,-1.68z"/>
   <path class="fil0" d="M93.6 4.5l0 0c0.32,0 0.58,0.43 0.58,0.97l0 9.43c0,0.53 -0.26,0.97 -0.58,0.97l0 0c-0.32,0 -0.58,-0.44 -0.58,-0.97l0 -9.43c0,-0.54 0.26,-0.97 0.58,-0.97z"/>
   <path class="fil0" d="M91.68 3.01l0 0c0.32,0 0.58,0.53 0.58,1.17l0 12c0,0.65 -0.26,1.17 -0.58,1.17l0 0c-0.32,0 -0.58,-0.52 -0.58,-1.17l0 -12c0,-0.64 0.26,-1.17 0.58,-1.17z"/>
   <path class="fil0" d="M89.75 7.35l0 0c0.32,0 0.58,0.2 0.58,0.45l0 4.75c0,0.25 -0.26,0.45 -0.58,0.45l0 0c-0.32,0 -0.58,-0.2 -0.58,-0.45l0 -4.75c0,-0.25 0.26,-0.45 0.58,-0.45z"/>
   <path class="fil0" d="M87.78 5.21l0 0c0.32,0 0.58,0.38 0.58,0.84l0 8.21c0,0.46 -0.26,0.84 -0.58,0.84l0 0c-0.32,0 -0.58,-0.38 -0.58,-0.84l0 -8.21c0,-0.46 0.26,-0.84 0.58,-0.84z"/>
   <path class="fil0" d="M85.86 2.76l0 0c0.32,0 0.58,0.55 0.58,1.22l0 12.38c0,0.67 -0.26,1.22 -0.58,1.22l0 0c-0.32,0 -0.58,-0.55 -0.58,-1.23l0 -12.37c0,-0.67 0.26,-1.22 0.58,-1.22z"/>
   <path class="fil0" d="M83.93 3.27l0 0c0.32,0 0.58,0.52 0.58,1.17l0 11.51c0,0.64 -0.26,1.16 -0.58,1.16l0 0c-0.32,0 -0.58,-0.52 -0.58,-1.16l0 -11.51c0,-0.65 0.26,-1.17 0.58,-1.17z"/>
   <path class="fil0" d="M82.01 1.01l0 0c0.32,0 0.58,0.67 0.58,1.49l0 15.31c0,0.82 -0.26,1.49 -0.58,1.49l0 0c-0.32,0 -0.58,-0.67 -0.58,-1.49l0 -15.31c0,-0.82 0.26,-1.49 0.58,-1.49z"/>
   <path class="fil0" d="M80.09 7.73l0 0c0.32,0 0.58,0.18 0.58,0.39l0 4.17c0,0.21 -0.26,0.39 -0.58,0.39l0 0c-0.32,0 -0.58,-0.18 -0.58,-0.39l0 -4.17c0,-0.21 0.26,-0.39 0.58,-0.39z"/>
   <path class="fil0" d="M78.11 7.15l0 0c0.32,0 0.58,0.23 0.58,0.52l0 4.99c0,0.28 -0.26,0.51 -0.58,0.51l0 0.01c-0.32,-0.01 -0.58,-0.24 -0.58,-0.52l0 -4.99c0,-0.29 0.26,-0.52 0.58,-0.52z"/>
   <path class="fil0" d="M76.19 5.21l0 0c0.32,0 0.58,0.38 0.58,0.84l0 8.21c0,0.46 -0.26,0.84 -0.58,0.84l0 0c-0.32,0 -0.58,-0.38 -0.58,-0.84l0 -8.21c0,-0.46 0.26,-0.84 0.58,-0.84z"/>
   <path class="fil0" d="M74.27 6.63l0 0c0.32,0 0.58,0.26 0.58,0.59l0 5.97c0,0.32 -0.26,0.58 -0.58,0.58l0 0c-0.32,0 -0.58,-0.26 -0.58,-0.58l0 -5.97c0,-0.33 0.26,-0.59 0.58,-0.59z"/>
   <path class="fil0" d="M72.34 3.79l0 0c0.32,0 0.59,0.46 0.59,1.03l-0.01 10.75c0.01,0.58 -0.26,1.04 -0.58,1.04l0 0c-0.32,0 -0.58,-0.46 -0.58,-1.04l0 -10.74c0,-0.58 0.26,-1.04 0.58,-1.04z"/>
   <path class="fil0" d="M70.37 2.3l0 0c0.32,0 0.58,0.58 0.58,1.3l0 13.23c0,0.71 -0.26,1.29 -0.58,1.29l0 0c-0.32,0 -0.58,-0.58 -0.58,-1.29l0 -13.23c0,-0.72 0.26,-1.3 0.58,-1.3z"/>
   <path class="fil0" d="M68.45 5.21l0 0c0.32,0 0.58,0.38 0.58,0.84l0 8.21c0,0.46 -0.26,0.84 -0.58,0.84l0 0c-0.32,0 -0.58,-0.38 -0.58,-0.84l0 -8.21c0,-0.46 0.26,-0.84 0.58,-0.84z"/>
   <path class="fil0" d="M66.52 6.18l0 0c0.32,0 0.58,0.29 0.58,0.65l0 6.71c0,0.35 -0.26,0.64 -0.58,0.64l0 0c-0.32,0 -0.58,-0.29 -0.58,-0.65l0 -6.7c0,-0.36 0.26,-0.65 0.58,-0.65z"/>
   <path class="fil0" d="M64.6 6.83l0 0c0.32,0 0.58,0.26 0.58,0.58l0 5.48c0,0.32 -0.26,0.58 -0.58,0.58l0 0c-0.32,0 -0.58,-0.26 -0.58,-0.58l0 -5.48c0,-0.32 0.26,-0.58 0.58,-0.58z"/>
   <path class="fil0" d="M62.68 8.19l0 0c0.32,0 0.58,0.14 0.58,0.32l0 3.4c0,0.18 -0.26,0.32 -0.58,0.32l0 0c-0.32,0 -0.58,-0.14 -0.58,-0.32l0 -3.4c0,-0.18 0.26,-0.32 0.58,-0.32z"/>
   <path class="fil0" d="M60.7 2.3l0 0c0.33,0 0.58,0.58 0.58,1.3l0 13.23c0,0.71 -0.25,1.29 -0.58,1.29l0 0c-0.32,0 -0.58,-0.58 -0.58,-1.29l0 -13.23c0,-0.72 0.26,-1.3 0.58,-1.3z"/>
   <path class="fil0" d="M58.78 3.27l0 0c0.32,0 0.58,0.52 0.58,1.17l0 11.51c0,0.64 -0.26,1.16 -0.58,1.16l0 0c-0.32,0 -0.58,-0.52 -0.58,-1.16l0 -11.51c0,-0.65 0.26,-1.17 0.58,-1.17z"/>
   <path class="fil0" d="M56.86 2.76l0 0c0.32,0 0.58,0.55 0.58,1.22l0 12.38c0,0.67 -0.26,1.22 -0.58,1.22l0 0c-0.32,0 -0.58,-0.55 -0.58,-1.23l0 -12.37c0,-0.67 0.26,-1.22 0.58,-1.22z"/>
   <path class="fil0" d="M54.93 4.5l0 0c0.33,0 0.59,0.43 0.59,0.97l0 9.43c0,0.53 -0.26,0.97 -0.59,0.97l0 0c-0.32,0 -0.58,-0.44 -0.58,-0.97l0 -9.43c0,-0.54 0.26,-0.97 0.58,-0.97z"/>
   <path class="fil0" d="M52.96 6.83l0 0c0.32,0 0.58,0.26 0.58,0.58l0 5.48c0,0.32 -0.26,0.58 -0.58,0.58l0 0c-0.32,0 -0.58,-0.26 -0.58,-0.58l0 -5.48c0,-0.32 0.26,-0.58 0.58,-0.58z"/>
   <path class="fil0" d="M51.04 5.21l0 0c0.32,0 0.58,0.38 0.58,0.84l0 8.21c0,0.46 -0.26,0.84 -0.58,0.84l0 0c-0.32,0 -0.58,-0.38 -0.58,-0.84l0 -8.21c0,-0.46 0.26,-0.84 0.58,-0.84z"/>
   <path class="fil0" d="M49.12 8.19l0 0c0.32,0 0.58,0.14 0.58,0.32l0 3.4c0,0.18 -0.26,0.32 -0.58,0.32l0 0c-0.32,0 -0.58,-0.14 -0.58,-0.32l0 -3.4c0,-0.18 0.26,-0.32 0.58,-0.32z"/>
   <path class="fil0" d="M47.19 4.5l0 0c0.32,0 0.58,0.43 0.58,0.97l0 9.43c0,0.53 -0.26,0.97 -0.58,0.97l0 0c-0.32,0 -0.58,-0.44 -0.58,-0.97l0 -9.43c0,-0.54 0.26,-0.97 0.58,-0.97z"/>
   <path class="fil0" d="M45.27 3.27l0 0c0.32,0 0.58,0.52 0.58,1.17l0 11.51c0,0.64 -0.26,1.16 -0.58,1.16l0 0c-0.32,0 -0.58,-0.52 -0.58,-1.16l0 -11.51c0,-0.65 0.26,-1.17 0.58,-1.17z"/>
   <path class="fil0" d="M43.3 2.63l0 0c0.32,0 0.58,0.55 0.58,1.22l0 12.62c0,0.68 -0.26,1.23 -0.58,1.23l0 0c-0.32,0 -0.58,-0.55 -0.58,-1.23l-0.01 -12.61c0.01,-0.68 0.27,-1.23 0.59,-1.23z"/>
   <path class="fil0" d="M41.37 0.43l0 0c0.32,0 0.58,0.72 0.58,1.61l0 16.29c0,0.9 -0.26,1.62 -0.58,1.62l0 0c-0.32,0 -0.58,-0.72 -0.58,-1.62l0 -16.29c0,-0.89 0.26,-1.61 0.58,-1.61z"/>
   <path class="fil0" d="M39.45 5.21l0 0c0.32,0 0.58,0.38 0.58,0.84l0 8.21c0,0.46 -0.26,0.84 -0.58,0.84l0 0c-0.32,0 -0.58,-0.38 -0.58,-0.84l0 -8.21c0,-0.46 0.26,-0.84 0.58,-0.84z"/>
   <path class="fil0" d="M37.53 4.5l0 0c0.32,0 0.58,0.43 0.58,0.97l0 9.43c0,0.53 -0.26,0.97 -0.58,0.97l0 0c-0.32,0 -0.58,-0.44 -0.58,-0.97l0 -9.43c0,-0.54 0.26,-0.97 0.58,-0.97z"/>
   <path class="fil0" d="M35.55 5.6l0 0c0.32,0 0.58,0.35 0.58,0.78l0 7.59c0,0.43 -0.26,0.77 -0.58,0.77l0 0c-0.32,0 -0.58,-0.34 -0.58,-0.77l0 -7.59c0,-0.43 0.26,-0.78 0.58,-0.78z"/>
   <path class="fil0" d="M33.63 6.83l0 0c0.32,0 0.58,0.26 0.58,0.58l0 5.48c0,0.32 -0.26,0.58 -0.58,0.58l0 0c-0.32,0 -0.58,-0.26 -0.58,-0.58l0 -5.48c0,-0.32 0.26,-0.58 0.58,-0.58z"/>
   <path class="fil0" d="M31.71 8.32l0 0c0.32,0 0.58,0.14 0.58,0.32l0 3.09c0,0.18 -0.26,0.32 -0.58,0.32l0 0c-0.32,0 -0.58,-0.14 -0.58,-0.32l-0.01 -3.09c0.01,-0.18 0.27,-0.32 0.59,-0.32z"/>
   <path class="fil0" d="M29.78 3.27l0 0c0.32,0 0.58,0.52 0.58,1.17l0 11.51c0,0.64 -0.26,1.16 -0.58,1.16l0 0c-0.32,0 -0.58,-0.52 -0.58,-1.16l0 -11.51c0,-0.65 0.26,-1.17 0.58,-1.17z"/>
   <path class="fil0" d="M27.81 0.04l0 0c0.32,0 0.58,0.75 0.58,1.68l0 16.9c0,0.93 -0.26,1.68 -0.58,1.68l0 0.01c-0.32,-0.01 -0.58,-0.76 -0.58,-1.69l0 -16.9c0,-0.93 0.26,-1.68 0.58,-1.68z"/>
   <path class="fil0" d="M25.89 3.01l0 0c0.32,0 0.58,0.53 0.58,1.17l0 12c0,0.65 -0.26,1.17 -0.58,1.17l0 0c-0.32,0 -0.58,-0.52 -0.58,-1.17l0 -12c0,-0.64 0.26,-1.17 0.58,-1.17z"/>
   <path class="fil0" d="M23.96 4.5l0 0c0.32,0 0.58,0.43 0.58,0.97l0 9.43c0,0.53 -0.26,0.97 -0.58,0.97l0 0c-0.32,0 -0.58,-0.44 -0.58,-0.97l0 -9.43c0,-0.54 0.26,-0.97 0.58,-0.97z"/>
   <path class="fil0" d="M22.04 5.21l0 0c0.32,0 0.58,0.38 0.58,0.84l0 8.21c0,0.46 -0.26,0.84 -0.58,0.84l0 0c-0.32,0 -0.58,-0.38 -0.58,-0.84l0 -8.21c0,-0.46 0.26,-0.84 0.58,-0.84z"/>
   <path class="fil0" d="M20.12 6.31l0 0c0.32,0 0.58,0.29 0.58,0.65l0 6.4c0,0.35 -0.26,0.64 -0.58,0.64l0 0c-0.32,0 -0.58,-0.29 -0.58,-0.64l0 -6.4c0,-0.36 0.26,-0.65 0.58,-0.65z"/>
   <path class="fil0" d="M18.14 0.43l0 0c0.32,0 0.58,0.72 0.58,1.61l0 16.29c0,0.9 -0.26,1.62 -0.58,1.62l0 0c-0.32,0 -0.58,-0.72 -0.58,-1.62l0 -16.29c0,-0.89 0.26,-1.61 0.58,-1.61z"/>
   <path class="fil0" d="M16.22 4.5l0 0c0.32,0 0.58,0.43 0.58,0.97l0 9.43c0,0.53 -0.26,0.97 -0.58,0.97l0 0c-0.32,0 -0.58,-0.44 -0.58,-0.97l0 -9.43c0,-0.54 0.26,-0.97 0.58,-0.97z"/>
   <path class="fil0" d="M14.3 3.27l0 0c0.32,0 0.58,0.52 0.58,1.17l0 11.51c0,0.64 -0.26,1.16 -0.58,1.16l0 0c-0.32,0 -0.58,-0.52 -0.58,-1.16l0 -11.51c0,-0.65 0.26,-1.17 0.58,-1.17z"/>
   <path class="fil0" d="M12.37 6.83l0 0c0.33,0 0.59,0.26 0.59,0.58l-0.01 5.48c0.01,0.32 -0.25,0.58 -0.57,0.58l-0.01 0c-0.32,0 -0.58,-0.26 -0.58,-0.58l0 -5.48c0,-0.32 0.26,-0.58 0.59,-0.58z"/>
   <path class="fil0" d="M10.4 5.21l0 0c0.32,0 0.58,0.38 0.58,0.84l0 8.21c0,0.46 -0.26,0.84 -0.58,0.84l0 0c-0.32,0 -0.58,-0.38 -0.58,-0.84l0 -8.21c0,-0.46 0.26,-0.84 0.58,-0.84z"/>
   <path class="fil0" d="M8.48 8.32l0 0c0.32,0 0.58,0.14 0.58,0.32l0 3.09c0,0.18 -0.26,0.32 -0.58,0.32l0 0c-0.32,0 -0.58,-0.14 -0.58,-0.32l0 -3.09c0,-0.18 0.26,-0.32 0.58,-0.32z"/>
   <path class="fil0" d="M6.55 3.01l0 0c0.32,0 0.58,0.53 0.58,1.17l0 12c0,0.65 -0.26,1.17 -0.58,1.17l0 0c-0.32,0 -0.58,-0.52 -0.58,-1.17l0 -12c0,-0.64 0.26,-1.17 0.58,-1.17z"/>
   <path class="fil0" d="M4.63 6.83l0 0c0.32,0 0.58,0.26 0.58,0.58l0 5.48c0,0.32 -0.26,0.58 -0.58,0.58l0 0c-0.32,0 -0.58,-0.26 -0.58,-0.58l0 -5.48c0,-0.32 0.26,-0.58 0.58,-0.58z"/>
   <path class="fil0" d="M2.71 5.21l0 0c0.32,0 0.58,0.38 0.58,0.84l0 8.21c0,0.46 -0.26,0.84 -0.58,0.84l0 0c-0.32,0 -0.58,-0.38 -0.58,-0.84l0 -8.21c0,-0.46 0.26,-0.84 0.58,-0.84z"/>
   <path class="fil0" d="M0.73 6.83l0 0c0.32,0 0.58,0.26 0.58,0.58l0 5.48c0,0.32 -0.26,0.58 -0.58,0.58l0 0c-0.32,0 -0.58,-0.26 -0.58,-0.58l0 -5.48c0,-0.32 0.26,-0.58 0.58,-0.58z"/>
  </g>
 </g>
</svg>
