<svg xmlns="http://www.w3.org/2000/svg" xml:space="preserve" width="100" height="20" style="shape-rendering:geometricPrecision;text-rendering:geometricPrecision;image-rendering:optimizeQuality;fill-rule:evenodd;clip-rule:evenodd"><defs><style>.fil0{fill:#fff}</style></defs><g id="Layer_x0020_1"><g id="_407678790176"><path class="fil0" d="M99.42 7.35c.32 0 .58.2.58.45v4.75c0 .25-.26.45-.58.45-.32 0-.58-.2-.58-.45V7.8c0-.25.26-.45.58-.45zM97.5 2.5c.32 0 .58.58.58 1.29v12.74c0 .71-.26 1.29-.58 1.29-.32 0-.58-.58-.58-1.29V3.79c0-.71.26-1.29.58-1.29zM95.52.04c.32 0 .58.75.58 1.68v16.9c0 .93-.26 1.68-.58 1.68v.01c-.32-.01-.58-.76-.58-1.69V1.72c0-.93.26-1.68.58-1.68zM93.6 4.5c.32 0 .58.43.58.97v9.43c0 .53-.26.97-.58.97-.32 0-.58-.44-.58-.97V5.47c0-.54.26-.97.58-.97zM91.68 3.01c.32 0 .58.53.58 1.17v12c0 .65-.26 1.17-.58 1.17-.32 0-.58-.52-.58-1.17v-12c0-.64.26-1.17.58-1.17zM89.75 7.35c.32 0 .58.2.58.45v4.75c0 .25-.26.45-.58.45-.32 0-.58-.2-.58-.45V7.8c0-.25.26-.45.58-.45zM87.78 5.21c.32 0 .58.38.58.84v8.21c0 .46-.26.84-.58.84-.32 0-.58-.38-.58-.84V6.05c0-.46.26-.84.58-.84zM85.86 2.76c.32 0 .58.55.58 1.22v12.38c0 .67-.26 1.22-.58 1.22-.32 0-.58-.55-.58-1.23V3.98c0-.67.26-1.22.58-1.22zM83.93 3.27c.32 0 .58.52.58 1.17v11.51c0 .64-.26 1.16-.58 1.16-.32 0-.58-.52-.58-1.16V4.44c0-.65.26-1.17.58-1.17zM82.01 1.01c.32 0 .58.67.58 1.49v15.31c0 .82-.26 1.49-.58 1.49-.32 0-.58-.67-.58-1.49V2.5c0-.82.26-1.49.58-1.49zM80.09 7.73c.32 0 .58.18.58.39v4.17c0 .21-.26.39-.58.39-.32 0-.58-.18-.58-.39V8.12c0-.21.26-.39.58-.39zM78.11 7.15c.32 0 .58.23.58.52v4.99c0 .28-.26.51-.58.51v.01c-.32-.01-.58-.24-.58-.52V7.67c0-.29.26-.52.58-.52zM76.19 5.21c.32 0 .58.38.58.84v8.21c0 .46-.26.84-.58.84-.32 0-.58-.38-.58-.84V6.05c0-.46.26-.84.58-.84zM74.27 6.63c.32 0 .58.26.58.59v5.97a.58.58 0 0 1-1.16 0V7.22c0-.33.26-.59.58-.59zM72.34 3.79c.32 0 .59.46.59 1.03l-.01 10.75c.01.58-.26 1.04-.58 1.04-.32 0-.58-.46-.58-1.04V4.83c0-.58.26-1.04.58-1.04zM70.37 2.3c.32 0 .58.58.58 1.3v13.23c0 .71-.26 1.29-.58 1.29-.32 0-.58-.58-.58-1.29V3.6c0-.72.26-1.3.58-1.3zM68.45 5.21c.32 0 .58.38.58.84v8.21c0 .46-.26.84-.58.84-.32 0-.58-.38-.58-.84V6.05c0-.46.26-.84.58-.84zM66.52 6.18c.32 0 .58.29.58.65v6.71c0 .35-.26.64-.58.64-.32 0-.58-.29-.58-.65v-6.7c0-.36.26-.65.58-.65zM64.6 6.83c.32 0 .58.26.58.58v5.48a.58.58 0 0 1-1.16 0V7.41c0-.32.26-.58.58-.58zM62.68 8.19c.32 0 .58.14.58.32v3.4c0 .18-.26.32-.58.32-.32 0-.58-.14-.58-.32v-3.4c0-.18.26-.32.58-.32zM60.7 2.3c.33 0 .58.58.58 1.3v13.23c0 .71-.25 1.29-.58 1.29-.32 0-.58-.58-.58-1.29V3.6c0-.72.26-1.3.58-1.3zM58.78 3.27c.32 0 .58.52.58 1.17v11.51c0 .64-.26 1.16-.58 1.16-.32 0-.58-.52-.58-1.16V4.44c0-.65.26-1.17.58-1.17zM56.86 2.76c.32 0 .58.55.58 1.22v12.38c0 .67-.26 1.22-.58 1.22-.32 0-.58-.55-.58-1.23V3.98c0-.67.26-1.22.58-1.22zM54.93 4.5c.33 0 .59.43.59.97v9.43c0 .53-.26.97-.59.97-.32 0-.58-.44-.58-.97V5.47c0-.54.26-.97.58-.97zM52.96 6.83c.32 0 .58.26.58.58v5.48a.58.58 0 0 1-1.16 0V7.41c0-.32.26-.58.58-.58zM51.04 5.21c.32 0 .58.38.58.84v8.21c0 .46-.26.84-.58.84-.32 0-.58-.38-.58-.84V6.05c0-.46.26-.84.58-.84zM49.12 8.19c.32 0 .58.14.58.32v3.4c0 .18-.26.32-.58.32-.32 0-.58-.14-.58-.32v-3.4c0-.18.26-.32.58-.32zM47.19 4.5c.32 0 .58.43.58.97v9.43c0 .53-.26.97-.58.97-.32 0-.58-.44-.58-.97V5.47c0-.54.26-.97.58-.97zM45.27 3.27c.32 0 .58.52.58 1.17v11.51c0 .64-.26 1.16-.58 1.16-.32 0-.58-.52-.58-1.16V4.44c0-.65.26-1.17.58-1.17zM43.3 2.63c.32 0 .58.55.58 1.22v12.62c0 .68-.26 1.23-.58 1.23-.32 0-.58-.55-.58-1.23l-.01-12.61c.01-.68.27-1.23.59-1.23zM41.37.43c.32 0 .58.72.58 1.61v16.29c0 .9-.26 1.62-.58 1.62-.32 0-.58-.72-.58-1.62V2.04c0-.89.26-1.61.58-1.61zM39.45 5.21c.32 0 .58.38.58.84v8.21c0 .46-.26.84-.58.84-.32 0-.58-.38-.58-.84V6.05c0-.46.26-.84.58-.84zM37.53 4.5c.32 0 .58.43.58.97v9.43c0 .53-.26.97-.58.97-.32 0-.58-.44-.58-.97V5.47c0-.54.26-.97.58-.97zM35.55 5.6c.32 0 .58.35.58.78v7.59c0 .43-.26.77-.58.77-.32 0-.58-.34-.58-.77V6.38c0-.43.26-.78.58-.78zM33.63 6.83c.32 0 .58.26.58.58v5.48a.58.58 0 0 1-1.16 0V7.41c0-.32.26-.58.58-.58zM31.71 8.32c.32 0 .58.14.58.32v3.09c0 .18-.26.32-.58.32-.32 0-.58-.14-.58-.32l-.01-3.09c.01-.18.27-.32.59-.32zM29.78 3.27c.32 0 .58.52.58 1.17v11.51c0 .64-.26 1.16-.58 1.16-.32 0-.58-.52-.58-1.16V4.44c0-.65.26-1.17.58-1.17zM27.81.04c.32 0 .58.75.58 1.68v16.9c0 .93-.26 1.68-.58 1.68v.01c-.32-.01-.58-.76-.58-1.69V1.72c0-.93.26-1.68.58-1.68zM25.89 3.01c.32 0 .58.53.58 1.17v12c0 .65-.26 1.17-.58 1.17-.32 0-.58-.52-.58-1.17v-12c0-.64.26-1.17.58-1.17zM23.96 4.5c.32 0 .58.43.58.97v9.43c0 .53-.26.97-.58.97-.32 0-.58-.44-.58-.97V5.47c0-.54.26-.97.58-.97zM22.04 5.21c.32 0 .58.38.58.84v8.21c0 .46-.26.84-.58.84-.32 0-.58-.38-.58-.84V6.05c0-.46.26-.84.58-.84zM20.12 6.31c.32 0 .58.29.58.65v6.4c0 .35-.26.64-.58.64-.32 0-.58-.29-.58-.64v-6.4c0-.36.26-.65.58-.65zM18.14.43c.32 0 .58.72.58 1.61v16.29c0 .9-.26 1.62-.58 1.62-.32 0-.58-.72-.58-1.62V2.04c0-.89.26-1.61.58-1.61zM16.22 4.5c.32 0 .58.43.58.97v9.43c0 .53-.26.97-.58.97-.32 0-.58-.44-.58-.97V5.47c0-.54.26-.97.58-.97zM14.3 3.27c.32 0 .58.52.58 1.17v11.51c0 .64-.26 1.16-.58 1.16-.32 0-.58-.52-.58-1.16V4.44c0-.65.26-1.17.58-1.17zM12.37 6.83c.33 0 .59.26.59.58l-.01 5.48c.01.32-.25.58-.57.58h-.01a.58.58 0 0 1-.58-.58V7.41c0-.32.26-.58.59-.58zM10.4 5.21c.32 0 .58.38.58.84v8.21c0 .46-.26.84-.58.84-.32 0-.58-.38-.58-.84V6.05c0-.46.26-.84.58-.84zM8.48 8.32c.32 0 .58.14.58.32v3.09c0 .18-.26.32-.58.32-.32 0-.58-.14-.58-.32V8.64c0-.18.26-.32.58-.32zM6.55 3.01c.32 0 .58.53.58 1.17v12c0 .65-.26 1.17-.58 1.17-.32 0-.58-.52-.58-1.17v-12c0-.64.26-1.17.58-1.17zM4.63 6.83c.32 0 .58.26.58.58v5.48a.58.58 0 0 1-1.16 0V7.41c0-.32.26-.58.58-.58zM2.71 5.21c.32 0 .58.38.58.84v8.21c0 .46-.26.84-.58.84-.32 0-.58-.38-.58-.84V6.05c0-.46.26-.84.58-.84zM.73 6.83c.32 0 .58.26.58.58v5.48a.58.58 0 0 1-1.16 0V7.41c0-.32.26-.58.58-.58z"/></g></g></svg>