<?xml version="1.0" encoding="UTF-8"?>
<!DOCTYPE svg PUBLIC "-//W3C//DTD SVG 1.1//EN" "http://www.w3.org/Graphics/SVG/1.1/DTD/svg11.dtd">
<!-- Creator: CorelDRAW X7 -->
<svg xmlns="http://www.w3.org/2000/svg" xml:space="preserve" width="26" height="26" version="1.1" style="shape-rendering:geometricPrecision; text-rendering:geometricPrecision; image-rendering:optimizeQuality; fill-rule:evenodd; clip-rule:evenodd"
viewBox="0 0 16933 16933"
 xmlns:xlink="http://www.w3.org/1999/xlink">
 <defs>
  <style type="text/css">
   <![CDATA[
    .fil0 {fill:#6E248D;fill-rule:nonzero}
   ]]>
  </style>
 </defs>
 <g id="Layer_x0020_1">
  <metadata id="CorelCorpID_0Corel-Layer"/>
  <path class="fil0" d="M9732 4232c-106,-93 -117,-254 -25,-360 93,-106 254,-117 360,-24l3683 3203 13 13c101,91 180,198 233,318 56,125 85,261 85,404l0 5522c0,262 -103,501 -268,674 -169,177 -403,286 -660,286l-1208 0c-225,0 -434,-82 -596,-223 -159,-137 -274,-331 -315,-557 -118,-639 -447,-1199 -907,-1596 -448,-387 -1024,-621 -1652,-621 -627,0 -1204,234 -1652,621 -460,397 -789,957 -907,1596 -41,226 -156,420 -315,557 -162,141 -370,223 -595,223l-1209 0c-257,0 -491,-109 -660,-286 -165,-173 -268,-412 -268,-674l0 -5522c0,-143 29,-279 85,-404 56,-125 139,-236 246,-330l3 -2 2430 -2114 -1 0 2246 -1953 21 -17c170,-140 373,-210 576,-210 211,0 422,75 596,227 106,91 118,252 26,358 -91,106 -252,117 -358,26 -77,-67 -171,-102 -264,-102 -88,0 -176,31 -251,91l-12 11 -2245 1953 -1 -1 0 1 -2430 2112 -2 3c-52,45 -91,97 -117,154 -25,57 -38,123 -38,197l0 5522c0,127 49,242 126,323 75,79 179,128 292,128l1209 0c100,0 192,-37 263,-98 74,-64 128,-156 148,-265 139,-755 528,-1417 1074,-1888 539,-466 1231,-747 1984,-747 753,0 1445,281 1984,747 546,470 936,1133 1075,1888 20,109 73,202 147,265 71,61 163,98 264,98l1208 0c113,0 217,-49 292,-128 78,-81 126,-196 126,-323l0 -5522c0,-74 -13,-140 -38,-197 -24,-52 -60,-101 -106,-145l-11 -9 -3684 -3203z"/>
 </g>
</svg>
