<?xml version="1.0" encoding="UTF-8" standalone="no"?>
<svg
   xmlns:dc="http://purl.org/dc/elements/1.1/"
   xmlns:cc="http://creativecommons.org/ns#"
   xmlns:rdf="http://www.w3.org/1999/02/22-rdf-syntax-ns#"
   xmlns:svg="http://www.w3.org/2000/svg"
   xmlns="http://www.w3.org/2000/svg"
   xmlns:xlink="http://www.w3.org/1999/xlink"
   xmlns:sodipodi="http://sodipodi.sourceforge.net/DTD/sodipodi-0.dtd"
   xmlns:inkscape="http://www.inkscape.org/namespaces/inkscape"
   xml:space="preserve"
   width="87.141541mm"
   height="164.1129mm"
   version="1.1"
   style="clip-rule:evenodd;fill-rule:evenodd;image-rendering:optimizeQuality;shape-rendering:geometricPrecision;text-rendering:geometricPrecision"
   viewBox="0 0 8714.0001 16411"
   id="svg256"
   sodipodi:docname="home_Background + illustrations.svg"
   inkscape:version="1.0.1 (3bc2e813f5, 2020-09-07)"><metadata
   id="metadata260"><rdf:RDF><cc:Work
       rdf:about=""><dc:format>image/svg+xml</dc:format><dc:type
         rdf:resource="http://purl.org/dc/dcmitype/StillImage" /></cc:Work></rdf:RDF></metadata><sodipodi:namedview
   pagecolor="#ffffff"
   bordercolor="#666666"
   borderopacity="1"
   objecttolerance="10"
   gridtolerance="10"
   guidetolerance="10"
   inkscape:pageopacity="0"
   inkscape:pageshadow="2"
   inkscape:window-width="1920"
   inkscape:window-height="1001"
   id="namedview258"
   showgrid="false"
   inkscape:zoom="1.2968776"
   inkscape:cx="168.55101"
   inkscape:cy="309.52988"
   inkscape:window-x="-9"
   inkscape:window-y="-9"
   inkscape:window-maximized="1"
   inkscape:current-layer="svg256" />
 <defs
   id="defs61">
  <style
   type="text/css"
   id="style2">
   <![CDATA[
    .str0 {stroke:black;stroke-width:20;stroke-opacity:0.200000}
    .fil13 {fill:none}
    .fil16 {fill:black}
    .fil19 {fill:#1A1A1A}
    .fil22 {fill:#4A2E10}
    .fil10 {fill:#763DB0}
    .fil0 {fill:#AB69C6}
    .fil3 {fill:#DCC6E0}
    .fil24 {fill:#F0E4B2}
    .fil15 {fill:#FFC8A3}
    .fil14 {fill:white}
    .fil28 {fill:white;fill-rule:nonzero}
    .fil11 {fill:#1A1A1A;fill-opacity:0.101961}
    .fil12 {fill:black;fill-opacity:0.200000}
    .fil20 {fill:#4D4D4D;fill-opacity:0.200000}
    .fil6 {fill:#DCC6E0;fill-opacity:0.200000}
    .fil8 {fill:white;fill-opacity:0.200000}
    .fil1 {fill:#1E003D;fill-rule:nonzero;fill-opacity:0.200000}
    .fil7 {fill:#333333;fill-opacity:0.400000}
    .fil4 {fill:white;fill-opacity:0.400000}
    .fil5 {fill:#9852B3;fill-rule:nonzero;fill-opacity:0.400000}
    .fil2 {fill:white;fill-rule:nonzero;fill-opacity:0.400000}
    .fil21 {fill:#694621}
    .fil25 {fill:#7A5731}
    .fil26 {fill:#DED4AD}
    .fil27 {fill:#FFF9E0}
    .fil9 {fill:url(#id15)}
    .fil17 {fill:url(#id16)}
    .fil18 {fill:url(#id17)}
    .fil23 {fill:url(#id18)}
   ]]>
  </style>
   <clipPath
   id="id0">
    <path
   d="m 4007,277 h 8714 V 16688 H 4007 Z"
   id="path4" />
   </clipPath>
     <clipPath
   id="id1"
   style="clip-rule:nonzero">
      <path
   d="m 7216,7409 c 2,-14 4,-27 6,-38 2,-2 4,-4 6,-6 -4,14 -8,29 -12,44 z"
   id="path7" />
     </clipPath>
     <clipPath
   id="id2"
   style="clip-rule:nonzero">
      <path
   d="m 4007,277 h 8714 V 16688 H 4007 Z"
   id="path10" />
     </clipPath>
     <clipPath
   id="id3">
      <path
   d="m 9544,7324 v 0 c -76,-278 -200,-557 -411,-708 -69,-49 -187,-96 -332,-133 -4,-1 -7,-2 -11,-3 -9,-2 -18,-4 -27,-5 l -194,-39 -232,226 -229,-223 c 0,0 -238,46 -245,48 h -1 c -98,29 -191,74 -276,132 -311,214 -524,739 -491,1104 l 77,2 330,507 -21,449 -4,159 911,457 799,-408 4,-139 c 62,-48 115,-103 160,-161 l -372,-312 480,-534 146,-60 c 0,0 -22,-274 -61,-359 z"
   id="path13" />
     </clipPath>
     <clipPath
   id="id4">
      <path
   d="m 4007,277 h 8714 V 16688 H 4007 Z"
   id="path16" />
     </clipPath>
     <clipPath
   id="id5">
      <path
   d="m 10042,8478 c -91,-209 -313,-243 -502,-145 -4,4 -1202,619 -2259,888 30,97 46,200 49,301 1,23 0,45 -1,67 810,-41 1690,-312 2446,-549 234,-76 368,-330 267,-562 z"
   id="path19" />
     </clipPath>
     <clipPath
   id="id6">
      <path
   d="m 4007,277 h 8714 V 16688 H 4007 Z"
   id="path22" />
     </clipPath>
      <clipPath
   id="id7">
       <path
   d="m 7202,7773 1138,572 1138,-572 104,360 -62,241 -1173,579 c 0,0 -1084,-543 -1097,-512 -13,31 -110,-82 -110,-82 0,0 13,-460 -14,-460 -28,0 76,-126 76,-126 z"
   id="path25" />
      </clipPath>
      <clipPath
   id="id8">
       <path
   d="m 4007,277 h 8714 V 16688 H 4007 Z"
   id="path28" />
      </clipPath>
      <clipPath
   id="id9">
       <path
   d="m 7202,7773 1138,572 1138,-572 104,360 -62,241 -1173,579 c 0,0 -1084,-543 -1097,-512 -13,31 -110,-82 -110,-82 0,0 13,-460 -14,-460 -28,0 76,-126 76,-126 z"
   id="path31" />
      </clipPath>
      <clipPath
   id="id10">
       <path
   d="m 4007,277 h 8714 V 16688 H 4007 Z"
   id="path34" />
      </clipPath>
      <clipPath
   id="id11">
       <path
   d="m 7423,7617 96,-96 c 276,28 552,184 828,490 276,-306 552,-462 828,-490 l 124,118 -62,513 -904,438 -890,-535 z"
   id="path37" />
      </clipPath>
      <clipPath
   id="id12">
       <path
   d="m 4007,277 h 8714 V 16688 H 4007 Z"
   id="path40" />
      </clipPath>
      <clipPath
   id="id13">
       <path
   d="m 7423,7617 96,-96 c 276,28 552,184 828,490 276,-306 552,-462 828,-490 l 124,118 -62,513 -904,438 -890,-535 z"
   id="path43" />
      </clipPath>
      <clipPath
   id="id14">
       <path
   d="m 4007,277 h 8714 V 16688 H 4007 Z"
   id="path46" />
      </clipPath>
  <linearGradient
   id="id15"
   gradientUnits="userSpaceOnUse"
   x1="8339.46"
   y1="6824.6699"
   x2="8333.29"
   y2="6126.5698">
   <stop
   offset="0"
   style="stop-opacity:1; stop-color:#F9B776"
   id="stop49" />
   <stop
   offset="1"
   style="stop-opacity:1; stop-color:#F47960"
   id="stop51" />
  </linearGradient>
  <linearGradient
   id="id16"
   gradientUnits="userSpaceOnUse"
   xlink:href="#id15"
   x1="10068.7"
   y1="9437.2402"
   x2="9163.8604"
   y2="9437.2402">
  </linearGradient>
  <linearGradient
   id="id17"
   gradientUnits="userSpaceOnUse"
   xlink:href="#id15"
   x1="7366.02"
   y1="9422.7002"
   x2="6463.7598"
   y2="9422.7002">
  </linearGradient>
  <linearGradient
   id="id18"
   gradientUnits="userSpaceOnUse"
   x1="8360.6602"
   y1="8589.5898"
   x2="8360.6602"
   y2="7520.5698">
   <stop
   offset="0"
   style="stop-opacity:1; stop-color:#FFF9E0"
   id="stop56" />
   <stop
   offset="1"
   style="stop-opacity:1; stop-color:#F5E193"
   id="stop58" />
  </linearGradient>
 <linearGradient
   inkscape:collect="always"
   xlink:href="#id15"
   id="linearGradient286"
   gradientUnits="userSpaceOnUse"
   x1="8339.46"
   y1="6824.6699"
   x2="8333.29"
   y2="6126.5698" /></defs>
 <g
   id="Layer_x0020_1"
   transform="translate(-4007,-277)">
  <metadata
   id="CorelCorpID_0Corel-Layer" />
  <polygon
   class="fil0"
   points="12721,16688 4007,16688 4007,277 12721,277 "
   id="polygon64" />
  <g
   clip-path="url(#id0)"
   id="g192">
   <g
   id="_482017373760">
    <g
   id="g87">
     <path
   id="1"
   class="fil1"
   d="m 6538,10110 h 3559 117 1861 V 8195 h 111 v -197 h -52 c 29,-57 61,-136 82,-233 v 0 c 0,0 0,0 0,0 0,0 0,0 0,-1 0,0 0,0 0,0 0,0 0,0 0,0 1,-1 1,-1 1,-2 0,0 0,0 0,0 0,0 0,0 0,0 0,-1 0,-1 0,-1 0,0 0,0 0,0 0,-1 0,-1 0,-1 0,0 0,0 0,0 0,0 0,0 0,0 0,-1 0,-1 0,-1 0,0 0,0 0,0 0,-1 1,-1 1,-1 0,0 0,0 0,0 v 0 c 0,-1 0,-1 0,-2 0,0 0,0 0,0 28,-135 32,-302 -31,-486 0,0 0,0 0,0 0,-1 0,-2 -1,-3 v 0 c 0,0 0,0 0,-1 0,0 0,0 0,0 0,0 0,-1 -1,-2 0,0 0,0 0,0 0,-1 0,-1 0,-2 0,0 0,0 0,0 -1,-1 -1,-2 -1,-2 0,0 0,-1 0,-1 0,0 0,0 0,0 -1,0 -1,0 -1,0 0,-1 0,-1 0,-2 0,0 0,0 0,0 0,0 0,0 0,-1 0,0 0,0 0,0 -1,0 -1,-1 -1,-1 0,0 0,0 0,0 0,0 0,-1 0,-1 0,0 0,0 0,0 0,0 0,-1 0,-1 0,0 -1,0 -1,0 0,-1 0,-1 0,-1 0,0 0,0 0,-1 0,0 0,0 0,0 0,0 0,0 0,-1 -1,0 -1,0 -1,0 0,0 0,-1 0,-1 0,0 0,0 0,0 0,0 0,-1 0,-1 0,0 0,0 -1,-1 0,0 0,0 0,0 0,0 0,0 0,-1 0,0 0,0 0,0 0,0 0,0 0,-1 0,0 0,0 -1,0 0,-1 0,-1 0,-1 0,0 0,0 0,0 0,-1 0,-1 0,-1 0,0 0,0 0,-1 0,0 0,0 -1,0 0,0 0,-1 0,-1 0,0 0,0 0,0 0,0 0,-1 0,-1 0,0 0,0 0,0 0,-1 -1,-1 -1,-1 0,0 0,0 0,0 0,-1 0,-1 0,-1 0,0 0,0 0,0 0,-1 0,-1 0,-1 -1,0 -1,-1 -1,-1 0,0 0,0 0,0 0,0 0,-1 0,-1 0,0 0,0 0,-1 0,0 0,0 0,0 -1,0 -1,0 -1,-1 0,0 0,0 0,0 0,0 0,-1 0,-1 0,0 0,0 0,0 0,0 -1,-1 -1,-1 0,0 0,0 0,0 0,-1 0,-1 0,-1 0,0 0,0 0,0 0,-1 0,-1 0,-1 -1,0 -1,0 -1,0 0,-1 0,-1 0,-1 0,0 0,0 0,-1 0,0 0,0 0,-1 0,0 0,0 0,0 -1,0 -1,0 -1,-1 0,0 0,0 0,0 0,0 0,0 0,-1 0,0 0,0 0,0 0,0 -1,-1 -1,-1 0,0 0,0 0,0 0,-1 0,-1 -1,-2 0,0 0,0 0,0 0,-1 0,-1 0,-1 v 0 c 0,-1 0,-1 -1,-1 0,-1 0,-1 0,-1 0,0 0,0 0,-1 0,0 0,0 0,0 0,0 0,0 0,-1 0,0 0,0 0,0 -1,0 -1,-1 -1,-1 0,0 0,0 0,0 0,-1 -1,-1 -1,-2 0,0 0,0 0,0 0,-1 0,-2 -1,-2 0,0 0,0 0,-1 -1,-2 -2,-5 -3,-7 v 0 c 0,-1 -1,-2 -1,-3 v 0 c -10,-24 -22,-49 -34,-73 v 0 c -1,-2 -2,-4 -3,-6 0,0 0,0 0,0 -1,-1 -1,-2 -1,-2 0,-1 0,-1 0,-1 -1,0 -1,-1 -2,-2 v 0 c -1,-2 -2,-4 -3,-6 0,0 0,0 0,0 0,0 -1,-1 -1,-2 0,0 0,0 0,0 0,-1 -1,-2 -1,-2 0,0 0,0 0,0 0,-1 -1,-1 -1,-1 0,0 0,-1 0,-1 0,0 0,0 0,-1 0,0 0,0 0,0 -1,0 -1,0 -1,-1 0,0 0,0 0,0 -1,-1 -1,-1 -1,-2 0,0 0,0 0,0 -1,-1 -1,-1 -1,-1 v 0 c 0,-1 0,-1 -1,-1 0,-1 0,-1 0,-1 0,0 0,0 0,-1 0,0 0,0 0,0 -1,0 -1,0 -1,-1 0,0 0,0 0,0 0,0 0,-1 -1,-1 0,0 0,0 0,0 0,0 0,-1 0,-1 0,0 0,0 0,0 0,-1 -1,-1 -1,-1 0,0 0,0 0,-1 0,0 0,0 -1,-1 -10,-19 -21,-37 -32,-55 -307,-513 -726,-681 -848,-862 -56,-83 -90,-154 -111,-207 0,0 0,0 0,0 0,0 0,0 0,0 92,-14 164,-91 168,-187 0,0 0,0 0,0 0,0 0,0 0,0 0,0 0,0 0,0 0,0 0,0 0,-1 0,0 0,0 0,0 0,-1 0,-2 0,-2 0,-1 0,-1 0,-1 0,0 0,0 0,0 0,0 0,0 0,0 0,0 0,0 0,-1 0,0 0,0 0,0 0,0 0,0 0,0 0,0 0,0 0,0 0,-1 0,-1 0,-1 0,0 0,0 0,0 0,0 0,0 0,0 0,0 0,-1 0,-1 0,0 0,0 0,0 0,0 0,0 0,0 0,0 0,0 0,-1 0,0 0,0 0,0 0,0 0,0 0,0 0,0 0,-1 0,-1 0,-110 -89,-198 -198,-198 -110,0 -199,88 -199,198 0,0 0,1 0,1 0,0 0,0 0,0 0,0 0,0 0,0 0,1 0,1 0,1 0,0 0,0 0,0 0,0 0,0 0,0 0,0 0,1 0,1 0,0 0,0 0,0 0,0 0,0 0,0 0,0 0,0 0,1 0,0 0,0 0,0 0,0 0,0 0,0 0,0 0,0 0,0 0,1 0,1 0,1 0,0 0,0 0,0 0,0 0,0 0,0 0,0 0,1 0,1 0,0 0,1 0,2 v 0 c 0,0 0,0 0,0 0,0 0,0 0,0 0,0 0,1 0,1 v 0 c 4,95 76,173 168,187 0,0 0,0 0,0 v 0 c -20,53 -54,124 -110,207 -11,16 -25,32 -40,49 0,0 0,0 0,0 0,0 0,0 0,0 -114,120 -343,249 -566,490 -18,33 -36,61 -52,85 v 0 c 149,-226 436,-815 -12,-1507 -576,-889 -1402,-1165 -1637,-1465 -141,-180 -207,-323 -237,-409 140,16 278,-32 370,-117 -91,49 -186,63 -287,41 -100,-22 -181,-76 -241,-160 -109,-150 -102,-359 22,-502 124,-144 335,-185 508,-88 -176,-162 -473,-173 -663,28 -187,197 -172,514 43,692 62,51 131,83 201,98 -29,85 -95,231 -240,417 -235,300 -1061,576 -1637,1465 -400,618 -214,1153 -64,1422 -254,-274 -514,-403 -605,-539 -56,-83 -90,-154 -111,-207 95,-14 168,-96 168,-196 0,-109 -89,-198 -199,-198 -109,0 -198,89 -198,198 0,100 73,182 168,196 -21,53 -55,124 -111,207 -126,188 -571,361 -880,917 -223,401 -108,746 -27,908 h -52 v 197 h 111 v 1915 z" />
     <path
   class="fil2"
   d="m 10737,7765 c 0,0 -547,-331 -273,-746 0,0 216,-253 442,-313 0,0 -140,628 -21,647 118,19 104,-711 104,-711 0,0 597,-264 827,-234 0,0 -385,605 -265,594 119,-11 548,-622 548,-622 0,0 606,-92 691,268 85,360 -77,533 -167,553 -90,19 -662,-7 -649,68 12,75 395,206 613,146 0,0 -257,580 -569,540 -311,-40 -401,-236 -594,-257 -193,-21 -336,26 -241,81 95,55 424,31 575,169 152,138 276,223 -16,273 -292,51 -811,-3 -908,-230 0,0 -6,-10 -12,-28 l 12,28 c -238,129 -415,608 -372,1092 -28,-7 -56,-14 -83,-21 -85,-564 172,-1053 358,-1297 z"
   id="path67" />
     <path
   class="fil3"
   d="m 5441,8837 1,-3 c 8,-16 26,-22 42,-15 l 43,20 c 15,7 34,1 41,-15 l 20,-43 c 8,-15 26,-22 42,-15 l 2,1 c 16,8 23,26 15,42 l -20,43 c -7,15 0,34 15,41 l 43,20 c 16,8 23,26 15,42 l -1,2 c -7,16 -26,23 -41,16 l -43,-21 c -16,-7 -34,0 -42,15 l -20,43 c -7,16 -26,23 -41,15 l -3,-1 c -16,-7 -22,-26 -15,-41 l 20,-43 c 7,-16 1,-34 -15,-42 l -43,-20 c -15,-7 -22,-26 -15,-41 z"
   id="path69" />
     <path
   class="fil4"
   d="m 11983,3915 c 122,0 221,99 221,221 0,123 -99,222 -221,222 -122,0 -221,-99 -221,-222 0,-122 99,-221 221,-221 z"
   id="path71" />
     <path
   class="fil4"
   d="m 5411,2209 c 61,0 110,49 110,110 0,61 -49,111 -110,111 -61,0 -111,-50 -111,-111 0,-61 50,-110 111,-110 z"
   id="path73" />
     <path
   class="fil2"
   d="m 5801,6651 c 0,0 1120,-676 559,-1526 0,0 -443,-518 -904,-640 0,0 285,1284 43,1323 -242,38 -214,-1455 -214,-1455 0,0 -1221,-539 -1691,-478 0,0 786,1238 542,1216 -244,-23 -1122,-1274 -1122,-1274 0,0 -1240,-188 -1414,549 -174,736 158,1091 341,1131 184,40 1355,-14 1329,139 -25,154 -808,423 -1254,300 0,0 526,1186 1163,1104 637,-81 822,-483 1216,-526 395,-44 687,54 493,167 -194,112 -866,63 -1176,345 -311,281 -564,457 33,559 597,103 1660,-8 1858,-471 0,0 13,-20 24,-58 l -24,58 c 439,238 776,1056 775,1940 61,-15 123,-30 186,-43 54,-1027 -415,-1903 -763,-2360 z"
   id="path75" />
     <path
   class="fil5"
   d="m 8946,7283 c 0,0 -216,-131 -108,-294 0,0 85,-100 174,-124 0,0 -55,248 -8,255 47,8 41,-280 41,-280 0,0 235,-104 326,-92 0,0 -152,238 -105,234 48,-4 217,-245 217,-245 0,0 239,-37 272,105 34,142 -30,211 -66,218 -35,8 -261,-2 -256,27 5,30 156,82 242,58 0,0 -101,228 -224,213 -123,-16 -159,-93 -234,-102 -76,-8 -133,11 -95,32 37,22 166,12 226,67 60,54 109,88 -6,108 -115,19 -320,-2 -358,-91 0,0 -3,-4 -5,-11 l 5,11 c -106,57 -181,291 -136,504 l -29,-14 c -69,-250 46,-473 127,-579 z"
   id="path77" />
     <path
   class="fil6"
   d="m 4325,1437 c -203,371 -1426,649 -2289,109 -169,-106 -286,-222 -286,-349 0,-380 664,-689 1494,-704 74,-336 480,-593 970,-593 540,0 978,312 982,698 600,124 1000,346 1000,599 0,656 -1667,463 -1871,240 z"
   id="path79" />
     <path
   class="fil6"
   d="m 10581,1740 c -226,54 -536,43 -784,-112 -79,-50 -134,-104 -134,-164 0,-178 311,-323 701,-330 34,-157 224,-278 454,-278 253,0 458,147 460,328 149,30 272,74 354,126 -535,13 -971,195 -1051,430 z"
   id="path81" />
     <path
   class="fil7"
   d="m 8364,8827 c -1878,0 -3438,554 -3745,1283 h 7490 C 11802,9381 10242,8827 8364,8827 Z"
   id="path83" />
     <path
   class="fil8"
   d="m 12429,1992 c -147,268 -1031,469 -1655,78 -122,-76 -206,-160 -206,-252 0,-274 479,-498 1080,-509 53,-243 347,-428 701,-428 390,0 706,225 709,504 434,90 723,250 723,433 0,474 -1205,335 -1352,174 z"
   id="path85" />
    </g>
    <g
   clip-path="url(#id1)"
   id="g91">
     <image
   xlink:href="home_Background%20+%20illustrations_Images%5Chome_Background%20+%20illustrations_ImgID1.png"
   id="image89"
   height="494"
   width="979"
   y="7166"
   x="6736" />
    </g>
    <g
   clip-path="url(#id2)"
   id="g97">
     <path
   class="fil9"
   d="m 7883,6503 c 0,0 80,325 472,318 399,-8 435,-344 435,-344 l -261,-56 -21,-290 -393,29 -7,276 z"
   id="path93"
   style="fill:url(#linearGradient286)" />
     <path
   class="fil10"
   d="m 9544,7324 v 0 c -76,-278 -200,-557 -411,-708 -69,-49 -187,-96 -332,-133 -4,-1 -7,-2 -11,-3 -9,-2 -18,-4 -27,-5 l -194,-39 -232,226 -229,-223 c 0,0 -238,46 -245,48 h -1 c -98,29 -191,74 -276,132 -311,214 -524,739 -491,1104 l 77,2 330,507 -21,449 -4,159 911,457 799,-408 4,-139 c 62,-48 115,-103 160,-161 l -372,-312 480,-534 146,-60 c 0,0 -22,-274 -61,-359 z"
   id="path95" />
    </g>
    <g
   clip-path="url(#id3)"
   id="g107">
     <g
   id="g105">
      <polygon
   id="polygon99"
   class="fil11"
   points="9294,6666 6727,9807 5661,7662 7650,6347 8791,6389 " />
      <polygon
   class="fil12 str0"
   points="9193,7427 9133,7113 9145,7403 8776,7731 9060,7682 9134,7509 "
   id="polygon101" />
      <polygon
   class="fil12 str0"
   points="7541,7404 7601,7090 7589,7380 7958,7708 7674,7659 7600,7486 "
   id="polygon103" />
     </g>
    </g>
    <g
   clip-path="url(#id4)"
   id="g127">
     <path
   class="fil13"
   d="m 9544,7324 v 0 c -76,-278 -200,-557 -411,-708 -69,-49 -187,-96 -332,-133 -4,-1 -7,-2 -11,-3 -9,-2 -18,-4 -27,-5 l -194,-39 -232,226 -229,-223 c 0,0 -238,46 -245,48 h -1 c -98,29 -191,74 -276,132 -311,214 -524,739 -491,1104 l 77,2 330,507 -21,449 -4,159 911,457 799,-408 4,-139 c 62,-48 115,-103 160,-161 l -372,-312 480,-534 146,-60 c 0,0 -22,-274 -61,-359 z"
   id="path109" />
     <path
   class="fil14"
   d="m 8609,6419 c -1,-4 -4,-7 -8,-9 -4,-2 -9,-3 -13,-1 l -212,81 c -4,1 -7,4 -8,8 l -18,55 -6,-53 c 0,-5 -4,-9 -9,-11 l -288,-88 c -5,-1 -10,0 -15,3 -4,3 -6,7 -6,12 l -6,99 c 0,0 205,141 323,145 118,5 297,-143 297,-143 z"
   id="path111" />
     <path
   class="fil15"
   d="m 8361,6465 c -32,3 -65,-1 -101,-11 -182,-55 -263,-191 -290,-348 -6,-33 -9,-67 -10,-102 34,-62 36,-223 65,-285 21,-46 62,-73 136,-80 81,-7 194,-97 373,-53 36,9 117,-20 149,-22 36,-4 31,124 61,109 12,49 13,117 5,192 -28,248 -161,580 -388,600 z"
   id="path113" />
     <path
   class="fil16"
   d="m 8749,5865 c 25,-221 -31,-227 -137,-202 -270,63 -525,-80 -587,56 -29,62 -31,223 -65,285 1,35 4,69 10,102 -137,-110 -235,-314 -207,-534 230,-578 847,-158 1081,-401 -28,179 32,598 -95,694 z"
   id="path115" />
     <path
   class="fil15"
   d="m 8063,5767 c 0,0 -95,-104 -111,21 -15,124 34,284 92,196 58,-87 19,-217 19,-217 z"
   id="path117" />
     <path
   class="fil15"
   d="m 7263,7434 c -199,35 -133,299 -133,299 11,110 339,182 585,230 740,143 -29,-684 -452,-529 z"
   id="path119" />
     <path
   class="fil17"
   d="m 9986,9274 c -200,-46 -664,-22 -664,-22 l -1,2 c -16,-7 -35,-12 -53,-13 l -79,-3 -25,311 108,7 v 1 c 0,0 442,80 659,79 22,0 42,-3 61,-9 7,-6 13,-12 19,-19 92,-100 66,-248 -25,-334 z"
   id="path121"
   style="fill:url(#id16)" />
     <path
   class="fil18"
   d="m 6551,9249 c 202,-40 664,-1 664,-1 l 1,2 c 17,-7 35,-11 54,-11 l 79,-1 17,311 -108,5 v 0 c 0,0 -444,66 -661,60 -22,-1 -42,-5 -61,-11 -6,-7 -12,-13 -18,-20 -90,-103 -60,-251 33,-334 z"
   id="path123"
   style="fill:url(#id17)" />
     <path
   class="fil19"
   d="m 10042,8478 c -91,-209 -313,-243 -502,-145 -4,4 -1202,619 -2259,888 30,97 46,200 49,301 1,23 0,45 -1,67 810,-41 1690,-312 2446,-549 234,-76 368,-330 267,-562 z"
   id="path125" />
    </g>
    <g
   clip-path="url(#id5)"
   id="g133">
     <g
   id="g131">
      <path
   id="path129"
   class="fil20"
   d="m 9406,9478 c -4,-133 43,-143 98,-257 2,-6 4,-11 5,-16 -68,-21 -130,46 -246,7 -1018,-585 -1527,-681 -2146,-1020 -241,-131 -515,-43 -592,242 -69,254 82,471 312,547 685,228 -476,37 -252,109 602,186 2154,483 2843,530 0,-10 -22,-132 -22,-142 z" />
     </g>
    </g>
    <g
   clip-path="url(#id6)"
   id="g189">
     <path
   class="fil13"
   d="m 10042,8478 c -91,-209 -313,-243 -502,-145 -4,4 -1202,619 -2259,888 30,97 46,200 49,301 1,23 0,45 -1,67 810,-41 1690,-312 2446,-549 234,-76 368,-330 267,-562 z"
   id="path135" />
     <path
   class="fil19"
   d="m 9195,9538 c -3,-116 20,-225 68,-326 2,-5 3,-9 5,-14 -61,-19 -139,-44 -241,-78 -751,-257 -1323,-517 -1870,-815 -212,-116 -453,-39 -521,213 -61,224 72,415 274,483 605,201 290,145 488,209 530,164 1191,313 1798,354 0,-9 -1,-17 -1,-26 z"
   id="path137" />
     <path
   class="fil15"
   d="m 9431,7434 c 199,35 133,299 133,299 -10,110 -339,182 -585,230 -740,143 29,-684 452,-529 z"
   id="path139" />
     <g
   id="g145">
      <path
   class="fil21"
   d="m 7705,8649 -600,290 v 66 c 0,0 318,-111 269,112 -48,222 -283,311 -283,311 l 7,82 c 0,0 431,-159 442,-133 11,25 745,-420 745,-420 z"
   id="path141" />
      <path
   class="fil21"
   d="m 8975,8649 600,290 v 66 c 0,0 -317,-111 -269,112 48,222 283,311 283,311 l -7,82 c 0,0 -431,-159 -442,-133 -10,25 -759,-420 -759,-420 z"
   id="path143" />
     </g>
     <g
   clip-path="url(#id7)"
   id="g149">
      <polygon
   class="fil21"
   points="9582,8953 7121,8953 7121,7773 9582,7773 "
   id="polygon147" />
     </g>
     <g
   clip-path="url(#id8)"
   id="g151">
     </g>
     <g
   clip-path="url(#id9)"
   id="g157">
      <g
   id="g155">
       <rect
   class="fil22"
   x="8340"
   y="6656"
   width="1807"
   height="2250"
   id="rect153" />
      </g>
     </g>
     <g
   clip-path="url(#id10)"
   id="g161">
      <path
   class="fil13"
   d="m 7202,7773 1138,572 1138,-572 104,360 -62,241 -1173,579 c 0,0 -1084,-543 -1097,-512 -13,31 -110,-82 -110,-82 0,0 13,-460 -14,-460 -28,0 76,-126 76,-126 z"
   id="path159" />
     </g>
     <g
   clip-path="url(#id11)"
   id="g165">
      <polygon
   class="fil23"
   points="9299,8590 7423,8590 7423,7521 9299,7521 "
   id="polygon163"
   style="fill:url(#id18)" />
     </g>
     <g
   clip-path="url(#id12)"
   id="g167">
     </g>
     <g
   clip-path="url(#id13)"
   id="g173">
      <g
   id="g171">
       <rect
   class="fil24"
   x="8347"
   y="7472"
   width="1869"
   height="1262"
   id="rect169" />
      </g>
     </g>
     <g
   clip-path="url(#id14)"
   id="g187">
      <path
   class="fil13"
   d="m 7423,7617 96,-96 c 276,28 552,184 828,490 276,-306 552,-462 828,-490 l 124,118 -62,513 -904,438 -890,-535 z"
   id="path175" />
      <polygon
   class="fil25"
   points="9485,9577 9582,9510 7202,8352 7202,7773 7098,7862 7098,8404 "
   id="polygon177" />
      <polygon
   class="fil25"
   points="7195,9577 7098,9510 9478,8352 9478,7773 9582,7862 9582,8404 "
   id="polygon179" />
      <path
   class="fil26"
   d="m 7519,8040 c 274,42 547,193 821,472 281,-255 562,-408 844,-464 l 163,133 -1007,494 -993,-494 z"
   id="path181" />
      <polygon
   class="fil27"
   points="7519,8040 7519,7521 7347,7647 7347,8181 "
   id="polygon183" />
      <polygon
   class="fil27"
   points="9175,8040 9175,7521 9347,7632 9347,8181 "
   id="polygon185" />
     </g>
    </g>
   </g>
  </g>
  <polygon
   class="fil13"
   points="12721,16688 4007,16688 4007,277 12721,277 "
   id="polygon194" />
  <path
   class="fil28"
   d="m 6113,2541 h 64 l 40,-99 h 192 l 40,99 h 64 l -173,-402 h -49 z m 123,-147 77,-185 h 1 l 75,185 z"
   id="path196" />
  <path
   id="path198"
   class="fil28"
   d="m 6735,2309 c -19,-32 -56,-44 -92,-44 -51,0 -102,27 -102,83 0,52 38,66 82,77 22,5 65,10 65,41 0,24 -28,34 -55,34 -29,0 -49,-15 -65,-32 l -39,32 c 27,37 60,48 104,48 54,0 110,-24 110,-85 0,-50 -35,-67 -79,-78 -23,-5 -69,-10 -69,-42 0,-20 21,-30 45,-30 26,0 43,12 55,26 z" />
  <path
   id="2"
   class="fil28"
   d="m 6988,2309 c -20,-32 -57,-44 -92,-44 -51,0 -103,27 -103,83 0,52 39,66 83,77 22,5 64,10 64,41 0,24 -28,34 -54,34 -30,0 -49,-15 -66,-32 l -38,32 c 27,37 60,48 104,48 53,0 109,-24 109,-85 0,-50 -34,-67 -78,-78 -23,-5 -69,-10 -69,-42 0,-20 21,-30 45,-30 25,0 43,12 55,26 z" />
  <path
   id="3"
   class="fil28"
   d="m 7089,2337 c 19,-15 37,-31 77,-31 44,0 64,29 64,57 v 11 h -38 c -81,0 -148,24 -148,93 0,53 43,81 93,81 41,0 72,-13 95,-48 h 1 c 0,14 0,28 2,41 h 45 c -2,-14 -2,-30 -2,-49 v -137 c 0,-47 -33,-90 -113,-90 -37,0 -78,13 -107,40 z m 141,75 v 17 c 0,36 -20,78 -77,78 -35,0 -58,-13 -58,-44 0,-43 59,-51 108,-51 z" />
  <polygon
   id="4"
   class="fil28"
   points="7407,2111 7356,2111 7356,2541 7407,2541 " />
  <path
   id="5"
   class="fil28"
   d="m 7521,2337 c 18,-15 37,-31 76,-31 44,0 65,29 65,57 v 11 h -38 c -82,0 -148,24 -148,93 0,53 43,81 93,81 41,0 72,-13 94,-48 h 2 c 0,14 0,28 1,41 h 46 c -2,-14 -3,-30 -3,-49 v -137 c 0,-47 -33,-90 -112,-90 -38,0 -79,13 -107,40 z m 141,75 v 17 c 0,36 -20,78 -77,78 -35,0 -58,-13 -58,-44 0,-43 59,-51 107,-51 z" />
  <path
   id="6"
   class="fil28"
   d="m 7784,2541 h 51 v -140 c 0,-61 33,-88 70,-88 50,0 57,36 57,87 v 141 h 51 v -147 c 0,-48 20,-81 69,-81 49,0 58,37 58,78 v 150 h 51 v -157 c 0,-60 -19,-119 -102,-119 -33,0 -68,17 -86,50 -17,-33 -44,-50 -84,-50 -48,0 -81,33 -86,49 h -1 v -42 h -48 z" />
  <path
   id="7"
   class="fil28"
   d="m 8507,2272 h -51 v 138 c 0,63 -32,90 -75,90 -32,0 -61,-18 -61,-69 v -159 h -51 v 173 c 0,72 45,103 97,103 42,0 76,-20 89,-48 h 1 v 41 h 51 z" />
  <polygon
   id="8"
   class="fil28"
   points="8578,2279 8625,2279 8672,2139 8617,2139 " />
  <path
   id="9"
   class="fil28"
   d="m 8775,2337 c 19,-15 37,-31 77,-31 43,0 64,29 64,57 v 11 h -38 c -82,0 -148,24 -148,93 0,53 43,81 93,81 41,0 72,-13 95,-48 h 1 c 0,14 0,28 1,41 h 46 c -2,-14 -2,-30 -2,-49 v -137 c 0,-47 -33,-90 -113,-90 -38,0 -79,13 -107,40 z m 141,75 v 17 c 0,36 -20,78 -77,78 -35,0 -58,-13 -58,-44 0,-43 59,-51 108,-51 z" />
  <polygon
   id="10"
   class="fil28"
   points="9093,2111 9042,2111 9042,2541 9093,2541 " />
  <path
   id="11"
   class="fil28"
   d="m 9206,2337 c 19,-15 38,-31 77,-31 44,0 64,29 64,57 v 11 h -37 c -82,0 -148,24 -148,93 0,53 43,81 93,81 41,0 71,-13 94,-48 h 1 c 0,14 1,28 2,41 h 46 c -2,-14 -3,-30 -3,-49 v -137 c 0,-47 -33,-90 -112,-90 -38,0 -79,13 -107,40 z m 141,75 v 17 c 0,36 -19,78 -76,78 -36,0 -58,-13 -58,-44 0,-43 59,-51 107,-51 z" />
  <path
   id="12"
   class="fil28"
   d="m 9474,2541 h 51 v -269 h -51 z m -12,-366 c 0,20 17,38 37,38 21,0 38,-18 38,-38 0,-20 -17,-38 -38,-38 -20,0 -37,18 -37,38 z" />
  <polygon
   id="13"
   class="fil28"
   points="9657,2401 9783,2541 9855,2541 9719,2394 9845,2272 9773,2272 9657,2389 9657,2111 9606,2111 9606,2541 9657,2541 " />
  <path
   id="14"
   class="fil28"
   d="m 10140,2272 h -51 v 138 c 0,63 -32,90 -75,90 -32,0 -61,-18 -61,-69 v -159 h -52 v 173 c 0,72 46,103 98,103 42,0 76,-20 89,-48 h 1 v 41 h 51 z" />
  <path
   id="15"
   class="fil28"
   d="m 10218,2541 h 51 v -140 c 0,-61 33,-88 70,-88 49,0 57,36 57,87 v 141 h 51 v -147 c 0,-48 19,-81 69,-81 49,0 58,37 58,78 v 150 h 51 v -157 c 0,-60 -19,-119 -102,-119 -33,0 -68,17 -86,50 -17,-33 -44,-50 -84,-50 -48,0 -81,33 -86,49 h -2 v -42 h -47 z" />
  <path
   id="16"
   class="fil28"
   d="m 5324,3204 c 27,38 77,56 129,56 77,0 139,-47 139,-125 0,-145 -198,-84 -198,-186 0,-25 18,-61 78,-61 32,0 58,14 72,35 l 45,-40 c -31,-37 -73,-47 -117,-47 -96,0 -136,66 -136,113 0,157 198,100 198,192 0,45 -44,67 -80,67 -32,0 -66,-13 -85,-43 z" />
  <path
   id="17"
   class="fil28"
   d="m 5702,3115 c 0,-55 34,-94 88,-94 55,0 89,39 89,94 0,54 -34,93 -89,93 -54,0 -88,-39 -88,-93 z m -55,0 c 0,78 63,141 143,141 81,0 144,-63 144,-141 0,-79 -63,-142 -144,-142 -80,0 -143,63 -143,142 z" />
  <path
   id="18"
   class="fil28"
   d="m 5998,3249 h 51 v -38 h 1 c 20,29 58,45 94,45 84,0 137,-62 137,-141 0,-81 -54,-142 -137,-142 -38,0 -75,18 -94,45 h -1 v -199 h -51 z m 140,-41 c -55,0 -89,-39 -89,-93 0,-55 34,-94 89,-94 55,0 89,39 89,94 0,54 -34,93 -89,93 z" />
  <path
   id="19"
   class="fil28"
   d="m 6377,3045 c 19,-15 38,-31 77,-31 44,0 64,29 64,57 v 11 h -37 c -82,0 -149,24 -149,93 0,53 44,81 94,81 41,0 71,-13 94,-48 h 1 c 0,14 1,28 2,41 h 45 c -1,-14 -2,-30 -2,-49 v -137 c 0,-47 -33,-90 -112,-90 -38,0 -79,13 -107,40 z m 141,75 v 17 c 0,36 -19,78 -76,78 -36,0 -58,-13 -58,-44 0,-43 59,-51 107,-51 z" />
  <path
   id="20"
   class="fil28"
   d="m 6785,2980 h -73 v -76 h -51 v 76 h -60 v 44 h 60 v 141 c 0,43 1,91 80,91 10,0 34,-2 46,-9 v -47 c -10,7 -25,8 -36,8 -39,0 -39,-31 -39,-62 v -122 h 73 z" />
  <path
   id="21"
   class="fil28"
   d="m 9899,3204 c 27,38 76,56 128,56 78,0 140,-47 140,-125 0,-145 -198,-84 -198,-186 0,-25 18,-61 78,-61 31,0 58,14 72,35 l 44,-40 c -30,-37 -72,-47 -116,-47 -97,0 -136,66 -136,113 0,157 198,100 198,192 0,45 -44,67 -80,67 -33,0 -66,-13 -85,-43 z" />
  <path
   id="22"
   class="fil28"
   d="m 10474,2980 h -52 v 139 c 0,62 -32,89 -75,89 -32,0 -61,-18 -61,-69 v -159 h -51 v 173 c 0,72 45,103 98,103 41,0 75,-20 88,-48 h 1 v 41 h 52 z" />
  <path
   id="23"
   class="fil28"
   d="m 10821,2819 h -51 v 199 h -1 c -18,-27 -55,-45 -94,-45 -83,0 -137,61 -137,142 0,79 53,141 137,141 36,0 74,-16 94,-45 h 1 v 38 h 51 z m -140,389 c -54,0 -88,-39 -88,-93 0,-55 34,-94 88,-94 55,0 89,39 89,94 0,54 -34,93 -89,93 z" />
  <path
   id="24"
   class="fil28"
   d="m 10930,3045 c 19,-15 38,-31 77,-31 44,0 64,29 64,57 v 11 h -37 c -82,0 -149,24 -149,93 0,53 44,81 94,81 41,0 71,-13 94,-48 h 1 c 0,14 1,28 2,41 h 45 c -1,-14 -2,-30 -2,-49 v -137 c 0,-47 -33,-90 -112,-90 -38,0 -79,13 -107,40 z m 141,75 v 17 c 0,36 -19,78 -76,78 -36,0 -58,-13 -58,-44 0,-43 59,-51 107,-51 z" />
  <path
   id="25"
   class="fil28"
   d="m 11194,3249 h 51 v -138 c 0,-63 32,-90 75,-90 32,0 61,19 61,69 v 159 h 52 v -173 c 0,-72 -46,-103 -98,-103 -42,0 -76,20 -89,48 h -1 v -202 h -51 z" />
  <path
   id="26"
   class="fil28"
   d="m 7326,3132 c 0,-53 -36,-86 -82,-94 v -1 c 39,-13 66,-42 66,-87 0,-81 -75,-103 -137,-103 h -161 v 402 h 161 c 76,0 153,-29 153,-117 z m -110,-169 c 0,29 -21,44 -58,44 h -52 v -83 h 48 c 41,0 62,12 62,39 z m 13,160 c 0,39 -38,48 -68,48 h -55 v -92 h 54 c 42,0 69,11 69,44 z" />
  <path
   id="27"
   class="fil28"
   d="m 7460,3075 c 3,-29 29,-54 65,-54 37,0 55,25 55,54 z m 206,36 c 0,-97 -58,-154 -142,-154 -86,0 -153,59 -153,152 0,95 71,149 156,149 57,0 102,-21 128,-60 l -64,-41 c -13,17 -33,30 -63,30 -34,0 -65,-22 -68,-54 h 206 c 0,-6 0,-14 0,-22 z" />
  <polygon
   id="28"
   class="fil28"
   points="7725,2819 7725,3249 7820,3249 7820,2819 " />
  <path
   id="29"
   class="fil28"
   d="m 8061,3136 c 0,35 -21,58 -59,58 -18,0 -40,-8 -40,-29 0,-34 46,-39 87,-39 h 12 z m -124,-81 c 17,-15 43,-29 70,-29 29,0 51,14 51,41 v 5 c -82,0 -182,14 -182,95 0,67 58,89 103,89 34,0 66,-13 80,-37 h 2 v 30 h 85 v -142 c 0,-103 -35,-150 -130,-150 -46,0 -93,17 -126,48 z" />
  <path
   id="30"
   class="fil28"
   d="m 8319,2876 c 0,-29 -24,-51 -54,-51 -30,0 -53,23 -53,51 0,28 23,51 53,51 30,0 54,-22 54,-51 z m -7,381 v -291 h -94 v 291 c 0,29 -6,49 -34,49 -5,0 -13,0 -20,-3 l -6,78 c 10,3 28,5 41,5 91,0 113,-59 113,-129 z" />
  <path
   id="31"
   class="fil28"
   d="m 8553,3136 c 0,35 -21,58 -59,58 -18,0 -40,-8 -40,-29 0,-34 46,-39 87,-39 h 12 z m -124,-81 c 17,-15 43,-29 70,-29 29,0 51,14 51,41 v 5 c -82,0 -182,14 -182,95 0,67 58,89 103,89 34,0 66,-13 80,-37 h 2 v 30 h 85 v -142 c 0,-103 -35,-150 -130,-150 -46,0 -93,17 -126,48 z" />
  <path
   id="32"
   class="fil28"
   d="m 8895,2960 c -4,-1 -12,-2 -20,-2 -34,0 -62,21 -76,49 h -2 v -41 h -89 v 283 h 93 v -145 c 0,-24 16,-64 66,-64 8,0 16,0 24,2 z" />
  <path
   id="33"
   class="fil28"
   d="m 9034,2876 c 0,-29 -24,-51 -53,-51 -31,0 -54,23 -54,51 0,28 23,51 54,51 29,0 53,-22 53,-51 z m -7,373 v -283 h -93 v 283 z" />
  <path
   id="34"
   class="fil28"
   d="m 9268,3136 c 0,35 -21,58 -58,58 -19,0 -41,-8 -41,-29 0,-34 47,-39 87,-39 h 12 z m -124,-81 c 18,-15 44,-29 70,-29 29,0 52,14 52,41 v 5 c -83,0 -182,14 -182,95 0,67 58,89 103,89 33,0 66,-13 80,-37 h 1 v 30 h 86 v -142 c 0,-103 -36,-150 -130,-150 -47,0 -94,17 -127,48 z" />
  <path
   id="35"
   class="fil28"
   d="m 9704,3249 v -175 c 0,-57 -27,-116 -104,-116 -39,0 -69,21 -81,44 h -1 v -183 h -94 v 430 h 94 v -153 c 0,-33 18,-60 50,-60 34,0 42,28 42,60 v 153 z" />
  <path
   id="36"
   class="fil28"
   d="m 5598,3725 c -19,-31 -56,-44 -92,-44 -51,0 -102,27 -102,83 0,52 38,66 82,77 22,5 65,11 65,41 0,24 -28,35 -55,35 -29,0 -49,-16 -65,-32 l -39,32 c 27,36 60,47 104,47 54,0 110,-24 110,-84 0,-51 -35,-68 -79,-79 -23,-5 -69,-10 -69,-42 0,-19 21,-30 45,-30 26,0 43,12 55,27 z" />
  <path
   id="37"
   class="fil28"
   d="m 5672,3958 h 51 v -270 h -51 z m -12,-367 c 0,21 17,38 37,38 21,0 38,-17 38,-38 0,-20 -17,-37 -38,-37 -20,0 -37,17 -37,37 z" />
  <path
   id="38"
   class="fil28"
   d="m 5836,3753 c 19,-14 37,-31 77,-31 44,0 64,29 64,57 v 11 h -38 c -81,0 -148,24 -148,94 0,52 43,80 93,80 41,0 72,-13 95,-47 h 1 c 0,13 0,27 2,41 h 45 c -2,-15 -2,-31 -2,-49 v -138 c 0,-47 -33,-90 -113,-90 -37,0 -78,13 -107,40 z m 141,75 v 17 c 0,36 -20,78 -77,78 -35,0 -58,-13 -58,-43 0,-44 59,-52 108,-52 z" />
  <path
   id="39"
   class="fil28"
   d="m 6099,4118 h 51 v -199 h 2 c 18,28 55,45 93,45 83,0 138,-61 138,-141 0,-80 -54,-142 -138,-142 -36,0 -73,17 -93,46 h -2 v -39 h -51 z m 140,-389 c 55,0 89,39 89,94 0,54 -34,94 -89,94 -54,0 -89,-40 -89,-94 0,-55 35,-94 89,-94 z" />
  <path
   id="40"
   class="fil28"
   d="m 6605,3958 h 51 v -39 h 1 c 20,29 58,45 94,45 84,0 137,-62 137,-141 0,-81 -54,-142 -137,-142 -39,0 -76,18 -94,46 h -1 v -199 h -51 z m 140,-41 c -55,0 -89,-40 -89,-94 0,-55 34,-94 89,-94 54,0 89,39 89,94 0,54 -35,94 -89,94 z" />
  <path
   id="41"
   class="fil28"
   d="m 7207,3841 v -18 c 0,-69 -36,-142 -131,-142 -81,0 -139,61 -139,142 0,80 53,141 138,141 52,0 91,-18 120,-55 l -39,-29 c -20,24 -43,40 -74,40 -47,0 -91,-31 -91,-79 z m -216,-40 c 0,-36 33,-79 84,-79 51,0 77,34 78,79 z" />
  <polygon
   id="42"
   class="fil28"
   points="7324,3528 7273,3528 7273,3958 7324,3958 " />
  <path
   id="43"
   class="fil28"
   d="m 7437,3753 c 19,-14 38,-31 77,-31 44,0 64,29 64,57 v 11 h -37 c -82,0 -149,24 -149,94 0,52 43,80 93,80 41,0 72,-13 95,-47 h 1 c 0,13 0,27 2,41 h 45 c -2,-15 -2,-31 -2,-49 v -138 c 0,-47 -33,-90 -113,-90 -37,0 -78,13 -107,40 z m 141,75 v 17 c 0,36 -20,78 -77,78 -35,0 -58,-13 -58,-43 0,-44 59,-52 108,-52 z" />
  <path
   id="44"
   class="fil28"
   d="m 7704,3688 v 306 c 0,34 -9,52 -37,52 -7,0 -15,-2 -21,-4 l -6,47 c 11,4 22,5 33,5 82,0 83,-70 83,-98 v -308 z m -12,-97 c 0,21 17,38 38,38 20,0 37,-17 37,-38 0,-20 -17,-37 -37,-37 -21,0 -38,17 -38,37 z" />
  <path
   id="45"
   class="fil28"
   d="m 7869,3753 c 18,-14 37,-31 76,-31 44,0 65,29 65,57 v 11 h -38 c -82,0 -148,24 -148,94 0,52 43,80 93,80 41,0 72,-13 94,-47 h 2 c 0,13 0,27 1,41 h 46 c -2,-15 -2,-31 -2,-49 v -138 c 0,-47 -33,-90 -113,-90 -38,0 -79,13 -107,40 z m 141,75 v 17 c 0,36 -20,78 -77,78 -35,0 -58,-13 -58,-43 0,-44 59,-52 107,-52 z" />
  <path
   id="46"
   class="fil28"
   d="m 8132,3958 h 51 v -136 c 0,-59 28,-86 78,-86 8,0 16,1 25,4 l 2,-55 c -7,-3 -15,-4 -23,-4 -33,0 -68,20 -81,48 h -1 v -41 h -51 z" />
  <path
   id="47"
   class="fil28"
   d="m 11290,3845 v -25 c 0,-32 6,-38 28,-62 l 40,-40 c 15,-15 24,-39 24,-68 0,-67 -50,-105 -114,-105 -66,0 -115,39 -125,105 l 58,6 c 5,-37 29,-64 66,-64 34,0 60,26 60,61 0,34 -27,55 -51,79 -30,28 -41,37 -41,78 v 35 z m -66,78 c 0,21 17,38 38,38 20,0 38,-17 38,-38 0,-20 -18,-37 -38,-37 -21,0 -38,17 -38,37 z" />
  <path
   id="48"
   class="fil28"
   d="m 8885,3958 -168,-403 h -94 l -169,403 h 106 l 29,-80 h 156 l 31,80 z m -167,-157 h -101 l 51,-139 z" />
  <polygon
   id="49"
   class="fil28"
   points="8914,3528 8914,3958 9009,3958 9009,3528 " />
  <polygon
   id="50"
   class="fil28"
   points="9067,3772 9067,3845 9211,3845 9211,3772 " />
  <path
   id="51"
   class="fil28"
   d="m 9712,3958 v -78 l -85,2 v -2 c 29,-22 60,-69 60,-131 0,-121 -92,-205 -217,-205 -124,0 -218,85 -218,207 0,132 87,207 215,207 z m -128,-206 c 0,72 -48,122 -114,122 -67,0 -113,-50 -113,-122 0,-70 49,-120 113,-120 67,0 114,50 114,120 z" />
  <path
   id="52"
   class="fil28"
   d="m 10032,3958 v -284 h -94 v 153 c 0,33 -17,61 -50,61 -34,0 -42,-28 -42,-60 v -154 h -94 v 175 c 0,57 27,116 103,116 40,0 73,-22 86,-47 h 1 v 40 z" />
  <path
   id="53"
   class="fil28"
   d="m 10292,3669 c -4,-2 -12,-3 -20,-3 -34,0 -62,21 -76,49 h -2 v -41 h -89 v 284 h 93 v -146 c 0,-23 16,-64 66,-64 8,0 16,0 24,2 z" />
  <polygon
   id="54"
   class="fil28"
   points="10330,3709 10402,3709 10454,3555 10371,3555 " />
  <path
   id="55"
   class="fil28"
   d="m 10647,3844 c 0,35 -21,58 -58,58 -19,0 -41,-8 -41,-29 0,-34 46,-39 87,-39 h 12 z m -124,-80 c 17,-16 43,-29 70,-29 29,0 51,13 51,41 v 4 c -82,0 -182,14 -182,96 0,66 58,88 103,88 34,0 66,-13 80,-37 h 2 v 31 h 85 v -143 c 0,-103 -35,-150 -130,-150 -46,0 -93,17 -126,48 z" />
  <path
   id="56"
   class="fil28"
   d="m 11082,3958 v -176 c 0,-57 -28,-116 -104,-116 -39,0 -72,22 -85,48 h -1 v -40 h -90 v 284 h 94 v -154 c 0,-32 17,-61 50,-61 33,0 42,29 42,60 v 155 z" />
 </g>
</svg>
