<?xml version="1.0" encoding="UTF-8"?>
<!DOCTYPE svg PUBLIC "-//W3C//DTD SVG 1.1//EN" "http://www.w3.org/Graphics/SVG/1.1/DTD/svg11.dtd">
<!-- Creator: CorelDRAW X7 -->
<svg xmlns="http://www.w3.org/2000/svg" xml:space="preserve" width="23" height="23" version="1.1" style="shape-rendering:geometricPrecision; text-rendering:geometricPrecision; image-rendering:optimizeQuality; fill-rule:evenodd; clip-rule:evenodd"
viewBox="0 0 16933 16933"
 xmlns:xlink="http://www.w3.org/1999/xlink">
 <defs>
  <style type="text/css">
   <![CDATA[
    .fil0 {fill:#CCCCCC;fill-rule:nonzero}
   ]]>
  </style>
 </defs>
 <g id="Layer_x0020_1">
  <metadata id="CorelCorpID_0Corel-Layer"/>
  <path class="fil0" d="M9944 3644c-102,-90 -113,-245 -24,-348 90,-102 245,-113 348,-24l3560 3097 13 12c97,88 173,191 225,307 54,121 82,253 82,391l0 5338c0,252 -100,483 -259,651 -163,171 -390,277 -638,277l-1168 0c-218,0 -419,-80 -576,-216 -153,-132 -264,-320 -304,-539 -114,-617 -432,-1159 -877,-1543 -434,-374 -990,-599 -1597,-599 -606,0 -1163,225 -1597,599 -444,384 -762,926 -876,1543 -40,219 -151,406 -305,539 -157,136 -358,216 -575,216l-1169 0c-248,0 -474,-106 -637,-277 -160,-168 -260,-399 -260,-651l0 -5338c0,-138 29,-270 83,-391 54,-121 134,-228 237,-318l3 -3 2349 -2042 -1 -1 2171 -1888 20 -16c164,-135 361,-203 557,-203 204,0 408,73 576,219 103,89 114,244 25,346 -88,103 -243,114 -346,25 -75,-64 -165,-97 -255,-97 -85,0 -170,29 -242,87l-12 10 -2170 1888 -1 0 0 0 -2348 2042 -2 2c-51,44 -89,95 -114,150 -24,54 -37,119 -37,190l0 5338c0,122 47,233 123,312 72,76 172,123 281,123l1169 0c97,0 186,-35 254,-94 72,-62 124,-152 143,-256 134,-730 511,-1370 1038,-1826 522,-450 1190,-721 1918,-721 728,0 1397,271 1918,721 527,455 904,1096 1039,1826 19,105 71,194 142,256 68,59 158,94 255,94l1168 0c109,0 209,-47 282,-123 75,-79 122,-190 122,-312l0 -5338c0,-71 -13,-136 -37,-190 -23,-51 -58,-98 -103,-140l-10 -9 -3561 -3096z"/>
 </g>
</svg>
