<svg data-name="Layer 1" width="23" height="23" xmlns="http://www.w3.org/2000/svg" viewBox="0 0 175 182.89"><defs><linearGradient id="a" x1="878.69" y1="932.22" x2="1056.23" y2="769.43" gradientUnits="userSpaceOnUse"><stop offset="0" stop-color="#6e248d"/><stop offset=".59" stop-color="#92359b"/><stop offset=".66" stop-color="#95399e"/><stop offset=".74" stop-color="#9e45a6"/><stop offset=".82" stop-color="#ae59b3"/><stop offset=".9" stop-color="#c375c6"/><stop offset=".98" stop-color="#df99dd"/><stop offset="1" stop-color="#e9a6e6"/></linearGradient></defs><path d="m1049 789.59-58.67-53.21a28 28 0 0 0-37.66 0L894 789.59a31 31 0 0 0-10 23V912h49.2a7.8 7.8 0 0 0 7.8-7.8v-9c0-16.65 13-30.75 29.69-31.18A30.5 30.5 0 0 1 1002 894.5v8.5a9 9 0 0 0 9 9h19.21c15.9 0 28.79-13.57 28.79-30.32v-69.12a31 31 0 0 0-10-22.97z" transform="translate(-884 -729.11)" style="fill:url(#a)"/></svg>