<svg xmlns="http://www.w3.org/2000/svg" xml:space="preserve" width="23" height="23" version="1.0" style="shape-rendering:geometricPrecision;text-rendering:geometricPrecision;image-rendering:optimizeQuality;fill-rule:evenodd;clip-rule:evenodd" viewBox="0 0 339 330"><path d="M222 56c-4-3-4-8-1-12 3-3 8-4 12-1l95 79c3 3 6 6 8 10s3 8 3 12v159c0 7-4 15-9 20s-12 8-20 8h-36c-7 0-14-2-19-6v-1c-5-4-8-9-10-16-3-18-13-34-26-45-14-11-31-18-50-18-18 0-36 7-49 18-14 11-23 27-27 45-1 7-5 13-10 17s-11 6-18 6H29c-8 0-15-3-20-8-6-5-9-13-9-20V144c0-4 1-8 3-12s4-7 8-10l73-60 67-56c5-5 12-7 18-7 7 0 13 2 19 7 3 3 4 8 1 11-3 4-9 5-12 2-2-2-5-3-8-3-2 0-5 1-7 3L94 75l-73 60c-1 1-2 3-3 4-1 2-1 3-1 5v159c0 3 1 6 4 8 2 2 5 3 8 3h36c3 0 5-1 7-2h1c2-2 3-4 4-7 4-22 16-41 32-55 17-13 38-22 60-22 23 0 44 9 60 22 17 14 29 33 33 55 0 2 2 5 4 6v1c2 1 5 2 8 2h36c3 0 6-1 8-3s4-5 4-8V144c0-2-1-3-1-5-1-1-2-3-4-4l-95-79z" style="fill:#b3b3b3;fill-rule:nonzero"/></svg>