<svg xmlns="http://www.w3.org/2000/svg" xml:space="preserve" width="100" height="100" style="shape-rendering:geometricPrecision;text-rendering:geometricPrecision;image-rendering:optimizeQuality;fill-rule:evenodd;clip-rule:evenodd" viewBox="0 0 128 143"><path d="m33.8 116.56 25.14-14.11c2.05-1.15 4.43-1.15 6.48 0l25.13 14.11c2.02 1.13 4.34 1.16 6.38.06 2.04-1.11 3.21-3.01 3.21-5.24V33.43c0-3.33-2.86-6.03-6.35-6.03h-.67v20.23l-7.79-5.52-7.81 5.52V28.85h7.81V27.4H44.46c.09.77.14 1.56.14 2.35 0 11.26-9.13 20.4-20.39 20.4v61.23c0 2.23 1.17 4.13 3.2 5.24 2.04 1.1 4.38 1.07 6.39-.06z" style="fill:#fff"/><path d="M24.21 11.91c9.86 0 17.85 7.99 17.85 17.84 0 9.87-7.99 17.87-17.85 17.87-9.86 0-17.86-8-17.86-17.87 0-9.85 8-17.84 17.86-17.84zm2.64 21.4V18.38h-5.32v14.93h5.32zm.45 4.82c0-1.65-1.4-2.98-3.11-2.98s-3.07 1.37-3.07 3.01c0 1.68 1.42 2.98 3.07 2.98 1.71 0 3.11-1.33 3.11-3.01z" style="fill:#ff6c5c"/></svg>