<?xml version="1.0" encoding="UTF-8" standalone="no"?>
<svg
   xmlns:dc="http://purl.org/dc/elements/1.1/"
   xmlns:cc="http://creativecommons.org/ns#"
   xmlns:rdf="http://www.w3.org/1999/02/22-rdf-syntax-ns#"
   xmlns:svg="http://www.w3.org/2000/svg"
   xmlns="http://www.w3.org/2000/svg"
   xmlns:sodipodi="http://sodipodi.sourceforge.net/DTD/sodipodi-0.dtd"
   xmlns:inkscape="http://www.inkscape.org/namespaces/inkscape"
   xml:space="preserve"
   width="12.798129mm"
   height="14.034923mm"
   version="1.1"
   style="clip-rule:evenodd;fill-rule:evenodd;image-rendering:optimizeQuality;shape-rendering:geometricPrecision;text-rendering:geometricPrecision"
   viewBox="0 0 1279.7903 1403.4675"
   id="svg10"
   sodipodi:docname="IconFilterBlack.svg"
   inkscape:version="1.0.1 (3bc2e813f5, 2020-09-07)"><metadata
   id="metadata14"><rdf:RDF><cc:Work
       rdf:about=""><dc:format>image/svg+xml</dc:format><dc:type
         rdf:resource="http://purl.org/dc/dcmitype/StillImage" /></cc:Work></rdf:RDF></metadata><sodipodi:namedview
   pagecolor="#ffffff"
   bordercolor="#666666"
   borderopacity="1"
   objecttolerance="10"
   gridtolerance="10"
   guidetolerance="10"
   inkscape:pageopacity="0"
   inkscape:pageshadow="2"
   inkscape:window-width="1920"
   inkscape:window-height="1001"
   id="namedview12"
   showgrid="false"
   inkscape:zoom="1.2968776"
   inkscape:cx="86.307019"
   inkscape:cy="59.396298"
   inkscape:window-x="-9"
   inkscape:window-y="-9"
   inkscape:window-maximized="1"
   inkscape:current-layer="svg10" />
 <defs
   id="defs4">
  <style
   type="text/css"
   id="style2">
   <![CDATA[
    .fil0 {fill:#1A1A1A}
   ]]>
  </style>
 </defs>
 <g
   id="Layer_x0020_1"
   transform="matrix(5.37727,0,0,5.37727,-33247.66,-37076.277)">
  <metadata
   id="CorelCorpID_0Corel-Layer" />
  <path
   class="fil0"
   d="m 6350,6895 c 15,0 28,9 34,22 h 22 c 8,0 15,7 15,15 0,8 -7,15 -15,15 h -22 c -6,12 -19,22 -34,22 -15,0 -28,-10 -33,-22 h -119 c -8,0 -15,-7 -15,-15 0,-8 7,-15 15,-15 h 119 c 5,-13 18,-22 33,-22 z m -97,94 c -15,0 -28,9 -33,22 h -22 c -8,0 -15,7 -15,15 0,8 7,14 15,14 h 22 c 5,13 18,22 33,22 15,0 28,-9 34,-22 h 119 c 8,0 15,-6 15,-14 0,-8 -7,-15 -15,-15 h -119 c -6,-13 -19,-22 -34,-22 z m 0,22 c -8,0 -14,7 -14,15 0,8 6,14 14,14 8,0 15,-6 15,-14 0,-8 -7,-15 -15,-15 z m 97,72 c 15,0 28,9 34,22 h 22 c 8,0 15,6 15,14 0,8 -7,15 -15,15 h -22 c -6,13 -19,22 -34,22 -15,0 -28,-9 -33,-22 h -119 c -8,0 -15,-7 -15,-15 0,-8 7,-14 15,-14 h 119 c 5,-13 18,-22 33,-22 z m 0,22 c -8,0 -14,6 -14,14 0,8 6,15 14,15 8,0 15,-7 15,-15 0,-8 -7,-14 -15,-14 z m -14,-173 c 0,8 6,15 14,15 8,0 15,-7 15,-15 0,-8 -7,-15 -15,-15 -8,0 -14,7 -14,15 z"
   id="path7" />
 </g>
</svg>
