<svg width="17" height="13" fill="none" xmlns="http://www.w3.org/2000/svg"><path d="M8.46 8.144c2.652 0 4.916.42 4.916 2.103 0 1.681-2.25 2.117-4.915 2.117-2.652 0-4.916-.42-4.916-2.102s2.25-2.118 4.916-2.118zm4.24-1.013c1.014-.018 2.103.12 2.506.22.853.167 1.414.51 1.647 1.007.196.409.196.883 0 1.29-.356.772-1.503 1.02-1.948 1.084-.092.014-.166-.066-.156-.159.227-2.138-1.584-3.152-2.052-3.385-.02-.01-.024-.027-.022-.036.001-.007.01-.019.025-.02zM4.11 7.13l.19.002a.028.028 0 0 1 .025.02c.002.01-.002.025-.022.036-.469.233-2.28 1.247-2.052 3.385.01.093-.063.173-.155.16C1.65 10.667.504 10.42.148 9.648a1.481 1.481 0 0 1 0-1.29C.38 7.86.94 7.519 1.794 7.35c.403-.098 1.492-.237 2.507-.218L4.11 7.13zM8.46 0a3.25 3.25 0 0 1 3.253 3.27 3.25 3.25 0 0 1-3.252 3.272 3.25 3.25 0 0 1-3.253-3.271A3.25 3.25 0 0 1 8.461 0zm4.416.545c1.744 0 3.113 1.65 2.647 3.488-.315 1.238-1.455 2.06-2.724 2.026a2.626 2.626 0 0 1-.374-.036.122.122 0 0 1-.082-.189c.484-.716.76-1.579.76-2.504 0-.966-.301-1.867-.825-2.605-.017-.023-.03-.058-.013-.085.014-.021.04-.033.064-.038.176-.036.358-.057.547-.057zm-8.753 0c.19 0 .371.02.548.057.024.005.05.017.064.038.016.026.004.062-.013.085a4.487 4.487 0 0 0-.825 2.605c0 .925.276 1.788.76 2.504a.122.122 0 0 1-.082.189 2.537 2.537 0 0 1-.374.036c-1.27.034-2.409-.788-2.724-2.026C1.01 2.195 2.38.545 4.123.545z" fill="#AB69C6"/></svg>