<svg xmlns="http://www.w3.org/2000/svg" xml:space="preserve" width="10.239" height="9.92" style="shape-rendering:geometricPrecision;text-rendering:geometricPrecision;image-rendering:optimizeQuality;fill-rule:evenodd;clip-rule:evenodd" viewBox="0 0 271 262"><path d="M203 177c-2 0-3-2-4-3 0-2 0-4 1-5 0-2 2-3 3-4h5l15 9c5 3 10 6 14 10 5 4 9 8 14 13 4 4 8 9 12 14 1 2 3 4 4 7 1 2 2 5 2 7 0 3 1 6 1 8-1 3-1 6-2 8 0 3-1 6-2 8s-3 4-4 6c-2 2-4 3-7 5-2 1-4 1-7 1H71c-2 0-5 0-7-1s-4-3-6-5c-1-2-3-4-4-6s-2-5-3-8c0-2-1-5-1-8 0-2 0-5 1-8 0-1 0-2 1-4H23c-3 0-5 0-8-1-2-1-4-3-6-5-1-1-3-3-4-6-1-2-2-5-3-7 0-3-1-6-1-8 0-3 0-6 1-8 0-3 1-6 2-8s2-5 4-7c4-5 8-10 12-14 5-4 9-9 14-12 4-4 9-8 14-11 4-3 9-6 14-8 2-1 4-1 5-1v1c2 0 3 1 4 3s1 3 1 5c-1 2-2 3-4 4-4 2-9 4-13 7s-9 6-13 10c-4 3-8 7-12 11s-8 9-12 13c0 2-1 3-2 4 0 2-1 3-1 5v11c1 1 1 3 2 4s1 2 2 3l2 2h38c3-4 7-8 11-12l12-12c5-4 10-7 14-10 5-3 10-6 15-8v-1h5c2 1 3 2 4 4s1 3 0 5c0 1-1 3-3 3l-1 1c-4 2-8 4-12 7-5 3-9 6-13 9l-12 12c-4 4-8 9-12 13-1 1-1 3-2 4s-1 3-1 5c-1 1-1 3-1 5s1 4 1 5c0 2 1 4 2 5 0 1 1 2 2 3 0 1 1 1 2 1 0 1 1 1 1 1h177c1 0 1 0 2-1 1 0 1 0 2-1s1-2 2-3 1-3 2-5v-10c0-2-1-4-1-5-1-1-2-3-2-4-4-5-8-9-12-13l-12-12c-4-3-9-6-13-9s-9-5-13-8zM111 1c7 0 14 1 20 3 7 3 13 6 19 10 5 3 10 8 14 13s7 10 9 15c7 2 13 4 18 7 6 3 12 7 17 12 6 6 11 14 15 22 3 8 5 17 5 26s-2 18-5 26c-4 8-9 16-15 22-12 12-29 20-48 20-9 0-18-2-26-5-8-4-16-9-22-15-3-3-6-7-9-11-2-3-4-7-6-10-7-2-13-4-19-8-7-4-13-9-18-14-5-6-10-13-13-21-2-8-4-15-4-24s2-18 5-26c4-8 9-16 15-22S77 10 85 6c8-3 17-5 26-5zM92 117v-8c0-9 2-18 5-26 7-17 20-30 37-37l-42 71zm0-1zm106-46c-4-4-9-8-15-10-5-3-11-5-18-5l-2-1h-3c-8 0-15 2-21 4-7 3-13 7-18 12s-9 11-12 18c-2 6-4 14-4 21v6c1 6 3 12 5 17 3 6 7 11 11 16 10 9 24 16 39 16 7 0 14-2 21-5 6-2 12-6 17-11s10-11 12-18c3-7 4-14 4-21s-1-15-4-21c-2-7-6-13-12-18zm-54-48c-3-2-6-4-9-5-7-4-15-5-24-5-10 0-20 2-28 7-4 2-7 5-10 7-1 1-2 2-3 2-1 2-2 3-3 4-9 10-14 23-14 37 0 2 1 4 1 6 0 6 2 11 3 15l3 6c2 4 5 8 7 11l2 2c2 2 4 4 6 5 3 3 7 5 11 7 3 2 7 3 11 4-1-3-1-5-2-8v-8c0-18 7-34 19-46 1-1 3-3 5-4 11-9 25-15 41-15h3c-4-9-11-16-19-22z" style="fill:#ea4c88;fill-rule:nonzero"/></svg>