<?xml version="1.0" encoding="UTF-8" standalone="no"?>
<svg
   xmlns:dc="http://purl.org/dc/elements/1.1/"
   xmlns:cc="http://creativecommons.org/ns#"
   xmlns:rdf="http://www.w3.org/1999/02/22-rdf-syntax-ns#"
   xmlns:svg="http://www.w3.org/2000/svg"
   xmlns="http://www.w3.org/2000/svg"
   xmlns:sodipodi="http://sodipodi.sourceforge.net/DTD/sodipodi-0.dtd"
   xmlns:inkscape="http://www.inkscape.org/namespaces/inkscape"
   width="36pt"
   height="24pt"
   viewBox="0 0 40 32.75"
   version="1.1"
   id="svg7"
   sodipodi:docname="IconSearch.svg"
   inkscape:version="1.0.1 (3bc2e813f5, 2020-09-07)">
  <metadata
     id="metadata13">
    <rdf:RDF>
      <cc:Work
         rdf:about="">
        <dc:format>image/svg+xml</dc:format>
        <dc:type
           rdf:resource="http://purl.org/dc/dcmitype/StillImage" />
      </cc:Work>
    </rdf:RDF>
  </metadata>
  <defs
     id="defs11" />
  <sodipodi:namedview
     pagecolor="#ffffff"
     bordercolor="#666666"
     borderopacity="1"
     objecttolerance="10"
     gridtolerance="10"
     guidetolerance="10"
     inkscape:pageopacity="0"
     inkscape:pageshadow="2"
     inkscape:window-width="1920"
     inkscape:window-height="1001"
     id="namedview9"
     showgrid="false"
     inkscape:zoom="15.5625"
     inkscape:cx="26.666667"
     inkscape:cy="21.833333"
     inkscape:window-x="-9"
     inkscape:window-y="-9"
     inkscape:window-maximized="1"
     inkscape:current-layer="svg7" />
  <g
     id="surface1"
     transform="translate(0,-3.625)">
    <path
       style="fill:#cccccc;fill-opacity:0.2;fill-rule:evenodd;stroke:none"
       d="m 16.371094,3.625 h 7.257812 C 32.632812,3.625 40,11 40,20.003906 40,29.007812 32.632812,36.375 23.628906,36.375 H 16.371094 C 7.367188,36.375 0,29.007812 0,20.003906 0,11 7.367188,3.625 16.371094,3.625 Z m 0,0"
       id="path2" />
    <path
       style="fill:#666666;fill-opacity:1;fill-rule:nonzero;stroke:none"
       d="m 18.433594,13.574219 c -0.230469,0.03516 -0.441406,-0.117188 -0.472656,-0.34375 -0.03516,-0.222657 0.125,-0.433594 0.34375,-0.464844 l 0.05078,-0.0078 c 1.058593,-0.152343 2.078125,0.140626 2.875,0.757813 0.792969,0.609375 1.375,1.53125 1.542969,2.621094 h 0.01172 l 0.0078,0.05859 c 0.160156,1.113282 -0.128907,2.1875 -0.71875,3.03125 -0.589844,0.855469 -1.496094,1.460938 -2.570313,1.632813 -0.226562,0.03906 -0.429687,-0.113281 -0.472656,-0.339844 -0.03125,-0.21875 0.121094,-0.429687 0.347656,-0.464843 0.84375,-0.136719 1.554688,-0.625 2.027344,-1.292969 0.472656,-0.683594 0.703125,-1.546875 0.574219,-2.449219 h -0.0078 l -0.0078,-0.05078 h 0.0078 c -0.144531,-0.878907 -0.609375,-1.613281 -1.242187,-2.09375 -0.625,-0.484375 -1.425781,-0.71875 -2.253907,-0.601563 z m 5.988281,2.382812 c 0.238281,1.621094 -0.167969,3.195313 -1.03125,4.425781 -0.859375,1.234376 -2.179687,2.121094 -3.742187,2.375 l -0.07422,0.0078 C 18.035156,22.996094 16.558594,22.554688 15.390625,21.667969 14.242188,20.78125 13.398438,19.4375 13.144531,17.851562 l -0.01563,-0.08594 c -0.238281,-1.621094 0.175782,-3.191406 1.039063,-4.425781 0.859375,-1.234375 2.179687,-2.121094 3.742187,-2.375 l 0.06641,-0.0078 h 0.0078 c 1.53125,-0.226562 3.015625,0.210938 4.175781,1.097657 1.15625,0.886718 1.992188,2.230468 2.253906,3.820312 z m -1.707031,3.953125 c 0.746094,-1.0625 1.109375,-2.421875 0.898437,-3.835937 l -0.01172,-0.08203 c -0.21875,-1.371094 -0.945312,-2.527344 -1.941406,-3.285157 -0.988281,-0.761719 -2.246094,-1.132812 -3.558594,-0.9375 l -0.06641,0.0078 c -1.335937,0.210937 -2.457031,0.980468 -3.199218,2.035156 -0.746094,1.0625 -1.101563,2.425781 -0.898438,3.835938 l 0.01953,0.08203 c 0.21875,1.371093 0.945313,2.527343 1.933594,3.289062 0.996094,0.757813 2.253906,1.128907 3.566406,0.9375 l 0.06641,-0.01172 c 1.324218,-0.210937 2.457031,-0.976562 3.191406,-2.035156 z m 0.371094,1.488282 h 0.01172 l 0.03125,-0.04297 0.0078,-0.0078 c 0.304687,-0.289062 0.695312,-0.429687 1.082031,-0.429687 0.390625,0 0.777344,0.140625 1.082031,0.429687 l 0.05859,0.05859 4.851563,5.085938 c 0.300781,0.320312 0.460937,0.742187 0.460937,1.15625 0,0.398437 -0.140625,0.804687 -0.421875,1.117187 v 0.01563 l -0.03906,0.04297 -0.04297,0.03516 -0.0078,0.0078 c -0.304687,0.285156 -0.695312,0.4375 -1.082031,0.4375 -0.390625,0 -0.777344,-0.152344 -1.082031,-0.4375 l -0.05078,-0.05078 v -0.0078 l -4.859374,-5.085938 c -0.300782,-0.324218 -0.464844,-0.738281 -0.464844,-1.160156 0,-0.414062 0.164062,-0.835938 0.464844,-1.15625 z m 0.585937,0.574218 v 0.0078 -0.0078 c -0.144531,0.160156 -0.222656,0.378906 -0.222656,0.589844 0,0.222656 0.07813,0.433594 0.230469,0.59375 l 4.847656,5.085938 0.04297,0.03125 c 0.144532,0.136718 0.320313,0.203124 0.507813,0.203124 0.175781,0 0.363281,-0.06641 0.503906,-0.195312 v -0.0078 l 0.04297,-0.03125 c 0.152344,-0.160157 0.222656,-0.375 0.222656,-0.59375 0,-0.21875 -0.07813,-0.429688 -0.230468,-0.589844 l -4.847657,-5.085938 v 0.0078 l -0.04297,-0.04297 c -0.144531,-0.132812 -0.320312,-0.203125 -0.507812,-0.203125 -0.175781,0 -0.363281,0.07031 -0.507812,0.203125 z m 0,0"
       id="path4" />
  </g>
</svg>
