<?xml version="1.0" encoding="UTF-8" standalone="no"?>
<svg
   xmlns:dc="http://purl.org/dc/elements/1.1/"
   xmlns:cc="http://creativecommons.org/ns#"
   xmlns:rdf="http://www.w3.org/1999/02/22-rdf-syntax-ns#"
   xmlns:svg="http://www.w3.org/2000/svg"
   xmlns="http://www.w3.org/2000/svg"
   xmlns:sodipodi="http://sodipodi.sourceforge.net/DTD/sodipodi-0.dtd"
   xmlns:inkscape="http://www.inkscape.org/namespaces/inkscape"
   xml:space="preserve"
   width="4.4518723mm"
   height="7.5623507mm"
   version="1.1"
   style="clip-rule:evenodd;fill-rule:evenodd;image-rendering:optimizeQuality;shape-rendering:geometricPrecision;text-rendering:geometricPrecision"
   viewBox="0 0 445.17937 756.22171"
   id="svg10"
   sodipodi:docname="icon_voice -record.svg"
   inkscape:version="1.0.1 (3bc2e813f5, 2020-09-07)"><metadata
   id="metadata14"><rdf:RDF><cc:Work
       rdf:about=""><dc:format>image/svg+xml</dc:format><dc:type
         rdf:resource="http://purl.org/dc/dcmitype/StillImage" /></cc:Work></rdf:RDF></metadata><sodipodi:namedview
   pagecolor="#ffffff"
   bordercolor="#666666"
   borderopacity="1"
   objecttolerance="10"
   gridtolerance="10"
   guidetolerance="10"
   inkscape:pageopacity="0"
   inkscape:pageshadow="2"
   inkscape:window-width="1920"
   inkscape:window-height="1001"
   id="namedview12"
   showgrid="false"
   inkscape:zoom="1.2968776"
   inkscape:cx="45.903172"
   inkscape:cy="-44.618113"
   inkscape:window-x="-9"
   inkscape:window-y="-9"
   inkscape:window-maximized="1"
   inkscape:current-layer="svg10" />
 <defs
   id="defs4">
  <style
   type="text/css"
   id="style2">
   <![CDATA[
    .fil0 {fill:white;fill-rule:nonzero}
   ]]>
  </style>
 </defs>
 <g
   id="Layer_x0020_1"
   transform="matrix(1.9440146,0,0,1.9440146,-14097.994,-18753.909)">
  <metadata
   id="CorelCorpID_0Corel-Layer" />
  <path
   class="fil0"
   d="m 7366,9647 v 0 c 9,0 18,2 25,5 8,3 16,8 22,14 6,6 11,14 14,22 3,8 5,16 5,25 v 140 c 0,9 -2,18 -5,26 -3,8 -8,15 -14,21 -6,6 -14,11 -22,14 -7,4 -16,5 -25,5 v 0 c -9,0 -17,-1 -25,-5 -7,-2 -13,-6 -19,-11 v 0 l -2,-3 c -12,-12 -20,-28 -20,-47 v -140 c 0,-9 2,-17 5,-25 4,-8 8,-16 15,-22 v 0 c 6,-6 13,-11 21,-14 8,-3 16,-5 25,-5 z m -72,369 h 62 v -41 c -13,-1 -25,-4 -36,-9 -13,-6 -25,-14 -35,-24 l -1,-1 v 0 c -10,-11 -18,-23 -24,-36 -5,-14 -8,-28 -8,-44 v -4 h 3 13 3 v 4 c 0,13 3,25 8,36 4,11 11,21 19,30 l 1,1 c 9,9 19,16 31,21 11,4 23,7 36,7 v 0 c 13,0 25,-3 36,-7 12,-5 22,-12 31,-21 v 0 c 9,-9 16,-19 21,-31 4,-11 7,-23 7,-36 v -4 h 4 12 4 v 4 c 0,16 -3,30 -9,44 -6,14 -14,26 -25,37 -10,10 -21,18 -34,24 -12,5 -24,8 -37,9 v 41 h 63 4 v 4 12 4 h -4 -145 -4 v -4 -12 -4 z m 72,-349 v 0 c -6,0 -12,1 -17,3 -6,3 -11,6 -16,10 -4,5 -7,10 -10,15 -2,6 -3,12 -3,18 v 140 c 0,7 1,13 3,18 3,6 6,11 10,15 l 1,1 c 9,8 20,13 32,13 v 0 c 6,0 12,-1 18,-4 5,-2 11,-6 15,-10 4,-4 8,-9 10,-15 2,-5 3,-11 3,-18 v -140 c 0,-6 -1,-12 -3,-18 -2,-5 -6,-10 -10,-15 -4,-4 -10,-7 -15,-10 -6,-2 -12,-3 -18,-3 z"
   id="path7" />
 </g>
</svg>
