<svg xmlns="http://www.w3.org/2000/svg" xml:space="preserve" width="179.614" height="173.975" style="clip-rule:evenodd;fill-rule:evenodd;image-rendering:optimizeQuality;shape-rendering:geometricPrecision;text-rendering:geometricPrecision" viewBox="0 0 4752.2 4603"><path d="M10279 7256c-29-14-50-39-60-67v-1c-10-27-9-59 5-88v-1c14-29 39-50 67-60v1c27-10 60-9 89 4v1c90 43 177 92 262 147 86 56 169 118 250 185 80 67 158 141 234 221h1c75 79 149 164 219 254 27 35 50 75 68 117s32 88 40 135v1c8 45 11 93 9 142-1 47-8 95-19 142-11 48-28 93-48 134-21 41-46 78-75 109-32 34-68 61-108 79s-82 28-126 28H7952c-44 0-87-10-126-28-40-18-76-45-109-79-28-30-53-67-74-109-21-40-37-86-49-134h1c-12-47-18-95-20-142-1-48 2-97 10-142v-1c4-23 9-47 16-69h-513c-44 0-86-10-126-28-39-18-76-45-108-79-28-30-54-67-75-108-20-40-37-85-48-134-11-47-18-95-19-143-2-49 1-97 9-142 8-47 22-93 40-135v-1c18-42 41-81 68-116 70-91 144-176 219-255 76-79 155-153 235-220s164-129 250-186c84-55 171-104 261-147 29-14 61-15 89-5s53 31 67 60 15 61 5 90c-10 28-31 53-60 66-80 38-158 83-234 132-77 51-154 107-228 170-74 62-147 130-216 203-71 73-139 152-204 236-14 19-27 41-37 65-10 25-19 54-24 83-5 31-7 63-6 95s5 64 12 95l1 1c7 29 16 56 28 79 11 23 24 42 37 56 11 12 23 21 34 26 10 5 20 8 30 8h646c60-75 124-147 189-215 73-75 148-145 224-209 80-66 163-129 249-185 85-55 172-104 261-147 29-14 61-15 90-5 28 10 53 31 66 60l6 11v2c8 25 8 52-1 76-10 29-31 53-60 67l-11 5c-76 37-150 80-223 128-77 49-153 106-227 168-75 63-147 131-217 204s-138 152-203 235c-15 19-28 42-38 66-10 25-18 53-23 83-5 31-8 63-7 95s6 64 13 95c7 30 17 57 28 79 11 23 24 42 38 57 11 12 22 20 34 26 9 5 20 7 30 7h3135c10 0 20-2 30-7 12-6 23-14 34-26 13-15 26-34 38-56 11-23 20-50 27-80h1c7-31 11-63 12-95s-1-65-6-95-14-58-24-83c-10-24-23-47-38-66-65-83-133-162-203-236-70-72-142-140-217-203-74-62-150-119-227-169s-155-94-235-133zM8656 4136c125 0 247 20 361 56 118 37 228 92 328 162 96 67 181 148 253 238 66 83 120 174 163 272 111 23 217 61 315 113 109 57 208 130 294 216 110 110 200 243 261 390 59 142 91 297 91 460 0 162-32 318-91 460-61 147-151 280-261 390-218 218-519 353-851 353-162 0-318-33-460-92-147-61-279-150-390-261-57-57-109-120-154-188-39-59-73-122-101-188-126-26-245-71-353-133-119-68-226-156-315-259-93-107-167-231-218-367-48-130-75-272-75-419 0-162 33-318 91-460 61-147 151-280 261-390 111-111 244-200 391-261 142-59 297-92 460-92zm-331 2051-2-15v-6l-1-5v-7l-2-22v-6l-1-2v-12l-1-2v-24l-1-1v-42c0-163 32-318 91-460 122-295 357-529 651-651zm-2-18zm1881-811c-78-77-169-142-269-189-98-47-204-78-316-89l-37-3-34-2h-29c-131 0-256 26-370 73-118 49-225 121-314 210-89 90-162 196-210 315-47 113-73 239-73 370v41l1 7v14l1 1v12l1 2v10l1 12c12 112 42 219 89 316 48 101 112 192 190 269 175 175 417 284 684 284 132 0 257-26 371-73 118-49 225-121 314-211 89-89 161-196 210-314 47-114 73-239 73-370s-26-257-73-370c-49-118-121-225-210-315zm-962-857c-50-34-103-65-159-91-130-59-275-93-427-93-184 0-357 49-506 134-63 36-122 79-176 127-14 13-28 26-41 39-22 21-42 44-62 68-148 177-237 405-237 654 0 36 2 72 5 107 10 94 32 184 66 268 14 36 30 70 47 103 36 68 80 132 130 190l32 35c33 35 69 68 106 98 56 44 117 83 182 115s134 58 205 76c-12-48-22-97-28-147v-3l-2-12v-7l-1-3v-6l-1-3c0-7-1-15-1-22v-3l-1-3v-13l-1-3v-19l-1-3v-41c0-317 128-604 336-812 27-27 54-52 83-76 199-163 453-261 729-261h25l1 1c11 0 21 0 32 1-77-159-193-295-335-395z" style="fill:#6e248d;fill-rule:nonzero" transform="translate(-6711.4 -4136)"/></svg>