<svg xmlns="http://www.w3.org/2000/svg" xml:space="preserve" width="64.041" height="64.041" style="clip-rule:evenodd;fill-rule:evenodd;image-rendering:optimizeQuality;shape-rendering:geometricPrecision;text-rendering:geometricPrecision" viewBox="0 0 1694.075 1694.075"><defs><linearGradient id="a" gradientUnits="userSpaceOnUse" x1=".18" y1="664.63" x2="1329.08" y2="664.63"><stop offset="0" style="stop-opacity:1;stop-color:#7d369a"/><stop offset="1" style="stop-opacity:1;stop-color:#c158d1"/></linearGradient></defs><path d="M665 0c367 0 664 298 664 665s-297 664-664 664S0 1032 0 665 298 0 665 0z" style="fill:url(#a);fill-opacity:.8" transform="scale(1.2747)"/><path d="M665 315c48 0 92 20 123 52 32 31 52 75 52 123v165c0 49-20 92-52 124s-75 51-123 51-92-19-124-51-51-75-51-124V490c0-48 19-92 51-123 32-32 76-52 124-52zm-30 669v-51c-63-7-119-36-162-78-49-49-79-117-79-191h50c0 60 25 115 65 155s95 65 156 65c60 0 115-25 155-65s65-95 65-155h51c0 74-31 142-80 191-42 42-99 71-161 78v51c0 16-14 30-30 30-17 0-30-14-30-30zm30-619c-35 0-66 14-89 37-22 23-36 54-36 88v165c0 35 14 66 37 89h-1c23 22 54 36 89 36 34 0 65-14 88-36 22-23 36-54 36-89V490c0-34-14-65-36-88-23-23-54-37-88-37z" style="fill:#fff;fill-rule:nonzero" transform="scale(1.2747)"/></svg>