<svg xmlns="http://www.w3.org/2000/svg" xml:space="preserve" width="48.267" height="48.133" style="clip-rule:evenodd;fill-rule:evenodd;image-rendering:optimizeQuality;shape-rendering:geometricPrecision;text-rendering:geometricPrecision" viewBox="0 0 1277.054 1273.497"><path d="M7707 9295c14 17 26 35 34 56 7 20 12 41 12 64 0 49-20 94-53 127-32 32-77 52-127 52-49 0-94-20-126-52v-1c-33-32-53-77-53-126 0-50 20-94 53-127 33-32 77-52 126-52 6 0 10 4 10 10 0 5-4 10-10 10-43 0-83 17-112 46s-47 69-47 113 18 84 47 113c29 28 68 46 112 46s84-18 113-46c29-29 47-69 47-113 0-20-4-39-11-57-6-15-14-29-24-42l-138 148c-3 4-10 4-14 1v-1l-71-66c-4-4-5-10-1-14s10-5 14-1l65 60 138-149c4-4 11-4 15 0 0 0 0 1 1 1z" style="fill:#6e248d;fill-rule:nonzero" transform="matrix(3.55725 0 0 3.55725 -26302.337 -32854.799)"/></svg>