<svg xmlns="http://www.w3.org/2000/svg" xml:space="preserve" width="48.043" height="48.043" style="clip-rule:evenodd;fill-rule:evenodd;image-rendering:optimizeQuality;shape-rendering:geometricPrecision;text-rendering:geometricPrecision" viewBox="0 0 1270.707 1270.707"><defs><linearGradient id="a" gradientUnits="userSpaceOnUse" x1=".55" y1="465.66" x2="930.77" y2="465.66"><stop offset="0" style="stop-opacity:1;stop-color:#7d369a"/><stop offset="1" style="stop-opacity:1;stop-color:#c158d1"/></linearGradient></defs><path d="M466 1c257 0 465 208 465 465S723 931 466 931 1 723 1 466 209 1 466 1z" style="fill:url(#a);fill-opacity:.8" transform="translate(-1.366 -1.366) scale(1.36635)"/><path d="m597 488-89 51-89 51c-8 5-17 5-25 0-8-4-13-12-13-22V363c0-9 5-17 13-22s17-5 25 0l89 51 89 52c8 4 13 12 13 22 0 9-5 17-13 22z" style="fill:#fff" transform="translate(-1.366 -1.366) scale(1.36635)"/></svg>