<?xml version="1.0" encoding="UTF-8"?>
<!DOCTYPE svg PUBLIC "-//W3C//DTD SVG 1.1//EN" "http://www.w3.org/Graphics/SVG/1.1/DTD/svg11.dtd">
<!-- Creator: CorelDRAW X7 -->
<svg xmlns="http://www.w3.org/2000/svg" xml:space="preserve" width="169.333mm" height="169.333mm" version="1.1" style="shape-rendering:geometricPrecision; text-rendering:geometricPrecision; image-rendering:optimizeQuality; fill-rule:evenodd; clip-rule:evenodd"
viewBox="0 0 16933 16933"
 xmlns:xlink="http://www.w3.org/1999/xlink">
 <defs>
  <style type="text/css">
   <![CDATA[
    .fil0 {fill:white}
   ]]>
  </style>
 </defs>
 <g id="Layer_x0020_1">
  <metadata id="CorelCorpID_0Corel-Layer"/>
  <path class="fil0" d="M9831 4500c434,0 806,261 969,634l641 0c232,0 423,190 423,423 0,232 -191,423 -423,423l-641 0c-163,374 -535,634 -969,634 -433,0 -806,-260 -969,-634l-3437 0c-233,0 -423,-191 -423,-423 0,-233 190,-423 423,-423l3437 0c163,-373 536,-634 969,-634zm-423 1057c0,233 190,423 423,423 234,0 423,-190 423,-423 0,-233 -189,-423 -423,-423 -233,0 -423,190 -423,423z"/>
  <path class="fil0" d="M9831 9912c434,0 806,261 969,635l641 0c232,0 423,190 423,422 0,233 -191,424 -423,424l-641 0c-163,373 -535,634 -969,634 -433,0 -806,-261 -969,-634l-3437 0c-233,0 -423,-191 -423,-424 0,-232 190,-422 423,-422l3437 0c163,-374 536,-635 969,-635zm0 635c-233,0 -423,189 -423,422 0,234 190,424 423,424 234,0 423,-190 423,-424 0,-233 -189,-422 -423,-422z"/>
  <path class="fil0" d="M7035 7206c-434,0 -806,261 -969,635l-641 0c-233,0 -423,190 -423,422 0,233 190,423 423,423l641 0c163,374 535,635 969,635 433,0 806,-261 969,-635l3437 0c232,0 423,-190 423,-423 0,-232 -191,-422 -423,-422l-3437 0c-163,-374 -536,-635 -969,-635zm0 635c-234,0 -423,189 -423,422 0,234 189,423 423,423 233,0 422,-189 422,-423 0,-233 -189,-422 -422,-422z"/>
 </g>
</svg>
