<svg xmlns="http://www.w3.org/2000/svg" width="27" height="21" fill="#1db597" fill-rule="evenodd" xmlns:v="https://vecta.io/nano"><path d="M27 2.66c0-.399-.324-.723-.723-.723h-5.784a4.58 4.58 0 0 0-4.579 4.579v13.495c0 .399.324.723.723.723s.723-.324.723-.723a2.17 2.17 0 0 1 2.169-2.169h6.748c.399 0 .723-.324.723-.723V2.66zm-9.64 14.459V6.516a3.13 3.13 0 0 1 .918-2.215c.588-.587 1.384-.918 2.215-.918h5.061v13.013h-6.025a3.61 3.61 0 0 0-2.169.723zM2.623 1.696a.92.92 0 0 1 .355.071.93.93 0 0 1 .301.201l7.74 7.74.492 1.803-1.803-.492-7.74-7.74a.93.93 0 0 1-.201-.301.92.92 0 0 1 0-.71.93.93 0 0 1 .502-.502.92.92 0 0 1 .355-.071zM3.531.431A2.36 2.36 0 0 0 2.623.25a2.36 2.36 0 0 0-.908.181c-.288.12-.55.294-.77.514a2.37 2.37 0 0 0-.514.77c-.119.288-.181.596-.181.908a2.36 2.36 0 0 0 .181.908c.12.288.294.55.514.77l7.876 7.876c.089.089.2.153.321.186l3.209.875c.25.068.518-.003.702-.186a.72.72 0 0 0 .186-.701l-.875-3.209c-.033-.121-.097-.232-.186-.321L4.301.945a2.37 2.37 0 0 0-.77-.514z"/><path d="M7.721 9.215v7.182h6.025c.787 0 1.547.256 2.169.723V6.516c0-.831-.33-1.628-.918-2.215s-1.384-.918-2.215-.918H8.685L7.239 1.937h5.543a4.58 4.58 0 0 1 4.579 4.579v13.495c0 .399-.324.723-.723.723s-.723-.324-.723-.723a2.17 2.17 0 0 0-2.169-2.169H6.998c-.399 0-.723-.324-.723-.723V7.913l1.446 1.301z"/></svg>