<svg xmlns="http://www.w3.org/2000/svg" xml:space="preserve" width="48.907" height="49.039" style="clip-rule:evenodd;fill-rule:evenodd;image-rendering:optimizeQuality;shape-rendering:geometricPrecision;text-rendering:geometricPrecision" viewBox="0 0 1293.971 1297.456"><path d="M8966 7907c0-6 5-10 10-10 6 0 10 4 10 10 0 49-20 94-52 127-32 32-77 53-127 53-49 0-94-20-127-52-32-33-52-78-52-127-1-50 19-95 52-127 32-33 77-53 126-53 6 0 10 5 10 10v1l1 139c12 2 21 13 21 25 0 4-1 8-3 12l69 47c5 4 6 10 3 14-3 5-9 6-14 3l-74-51c-2 0-4 1-6 1-15 0-26-12-26-26 0-8 4-15 10-20l-1-135c-40 3-76 20-102 47-29 29-47 69-47 113h1-1c1 44 19 84 48 112 28 29 68 47 112 47s84-18 113-47 46-69 46-113z" style="fill:#f39c12;fill-rule:nonzero" transform="translate(-31182.169 -27929.625) scale(3.61408)"/></svg>