<svg xmlns="http://www.w3.org/2000/svg" xml:space="preserve" width="448.641" height="353.6" style="shape-rendering:geometricPrecision;text-rendering:geometricPrecision;image-rendering:optimizeQuality;fill-rule:evenodd;clip-rule:evenodd" viewBox="0 0 11870 9356"><path d="M8004 8817c484-267 925-632 1291-1090h2c194-243 362-508 500-787 138-280 246-574 321-874 45-181 78-365 101-551l-234-269-184 160c-17 165-43 329-80 489l-6 20-8 32h-1c-66 271-163 536-287 789-125 257-277 499-454 720h-2c-332 416-731 747-1166 987-453 251-950 406-1457 463-504 56-1022 14-1521-130v-1c-482-139-943-372-1353-700l-17-13c-31-19-68-27-103-23h-2c-41 4-80 25-107 59l-5 6-60 75c-27 34-39 77-35 118 5 42 25 83 60 110l-1 1c458 366 970 625 1502 779 551 159 1127 205 1690 142 562-62 1113-235 1616-512zM1 3665c-3 42 10 86 38 119l1601 1846 21 24c28 33 68 51 109 55 41 2 82-10 114-35l5-4 1851-1606h1l23-21c32-28 51-68 54-109 3-40-8-81-33-114l-5-5c-29-33-69-52-111-55-41-2-85 10-118 39L2122 5038l-323 280-281-324L285 3571c-28-33-70-52-111-54-42-3-85 9-118 38-33 28-52 69-55 110zM3866 539c-484 267-925 631-1291 1090h-1c-195 243-362 507-501 786-138 281-246 574-321 874-45 182-78 366-100 552l233 269 184-160c17-166 44-329 81-489l5-20 9-33c67-270 163-535 287-788 125-257 277-499 454-720h2c333-417 732-747 1166-988 454-250 950-406 1457-462 505-57 1023-14 1521 130 482 139 943 373 1353 701l17 13c31 19 68 26 104 23h1c41-5 80-25 108-59l4-6 61-75c27-34 38-78 34-119s-25-82-59-109v-1c-458-366-970-625-1501-779C6621 10 6046-37 5482 26c-561 63-1113 235-1616 513zm8004 5152c2-42-11-86-39-119l-1601-1847v1-1l-20-23c-29-33-69-52-110-55-40-3-82 9-114 35l-5 4-1851 1605v1l-24 20c-32 28-51 68-54 110-3 40 8 81 34 113l4 6c29 32 69 51 111 54s86-9 118-38l1429-1239 323-281 281 324 1234 1424c27 32 69 52 110 54 42 3 85-9 119-38 33-29 52-69 55-110z" style="fill:#fff;fill-rule:nonzero"/></svg>