<svg xmlns="http://www.w3.org/2000/svg" xml:space="preserve" width="16.055" height="16.055" style="clip-rule:evenodd;fill-rule:evenodd;image-rendering:optimizeQuality;shape-rendering:geometricPrecision;text-rendering:geometricPrecision" viewBox="0 0 424.918 424.918"><path d="M135 2c74 0 134 60 134 133 0 74-60 134-134 134C62 269 2 209 2 135 2 62 62 2 135 2zm0 55c21 0 38 17 38 37v53c0 21-17 38-38 38-20 0-37-17-37-38V94c0-20 17-37 37-37zm65 92c0 18-7 34-19 46-11 11-28 19-46 19-17 0-34-8-45-19-12-12-19-28-19-46h13c0 14 6 27 15 36 9 10 22 15 36 15 15 0 28-5 37-15 9-9 15-22 15-36z" style="fill:#c5a8d2" transform="matrix(1.59145 0 0 1.59145 -3.183 -3.183)"/></svg>