<svg xmlns="http://www.w3.org/2000/svg" xml:space="preserve" width="25" height="25" version="1.0" style="shape-rendering:geometricPrecision;text-rendering:geometricPrecision;image-rendering:optimizeQuality;fill-rule:evenodd;clip-rule:evenodd" viewBox="0 0 3412 3412"><defs><clipPath id="a"><path d="M1024 1194c0 659 535 1194 1194 1194 579 0 1062-413 1171-961 15 91 22 184 22 279 0 942-763 1705-1705 1705S1 2648 1 1706 764 1 1706 1c95 0 188 8 279 22-548 109-961 592-961 1171z"/></clipPath></defs><path d="M1024 1194c0 659 535 1194 1194 1194 579 0 1062-413 1171-961 15 91 22 184 22 279 0 942-763 1705-1705 1705S1 2648 1 1706 764 1 1706 1c95 0 188 8 279 22-548 109-961 592-961 1171z" style="fill:#934db0"/><g style="clip-path:url(#a)"><path d="M2473 1360c0 619-818 429-198 429 619 0 1062-413 1171-961 14 91 22 184 22 279 0 942-763 1705-1705 1705S58 2049 58 1107 821-598 1763-598c95 0 188 7 279 22-548 108 431 1317 431 1936z" style="fill:#8330a6"/></g><path d="M1024 1194c0 659 535 1194 1194 1194 579 0 1062-413 1171-961 15 91 22 184 22 279 0 942-763 1705-1705 1705S1 2648 1 1706 764 1 1706 1c95 0 188 8 279 22-548 109-961 592-961 1171z" style="fill:none"/><path style="fill:#8a43a8" d="m2242 650 109 336 353-1-286 207 110 336-286-208-285 208 110-336-286-207 353 1z"/></svg>