<svg xmlns="http://www.w3.org/2000/svg" xml:space="preserve" width="25" height="25" version="1.0" style="shape-rendering:geometricPrecision;text-rendering:geometricPrecision;image-rendering:optimizeQuality;fill-rule:evenodd;clip-rule:evenodd" viewBox="0 0 2532 3421"><defs><clipPath id="id0"><path d="M198 1h2135c110 0 199 89 199 199v2528c0 110-89 199-199 199H198C89 2927-1 3249-1 3140V200C-1 90 89 1 198 1z"/></clipPath><clipPath id="id1"><path d="M803 1172h269l191-191 191 191h270v270l191 191-191 190v270h-270l-191 191-191-191H803v-270l-191-190 191-191v-270z"/></clipPath><style>.fil3{fill:none}.fil6{fill:#fff;fill-rule:nonzero}</style></defs><g id="Layer_x0020_1"><g id="_963685588464"><path d="M296 3420c-164 0-297-126-297-280 0-155 133-280 297-280h1931v280c0 154-133 280-297 280H296zm0 0z" style="fill:#9b59b6"/><path d="M198 1h2135c110 0 199 89 199 199v2528c0 110-89 199-199 199H198C89 2927-1 3249-1 3140V200C-1 90 89 1 198 1z" style="fill:#9c58b8"/><g style="clip-path:url(#id0)"><rect x="-280" y="1" width="2533" height="3463" rx="38" ry="39" style="fill:#8a43a8" id="_963685591152"/></g><path class="fil3" d="M198 1h2135c110 0 199 89 199 199v2528c0 110-89 199-199 199H198C89 2927-1 3249-1 3140V200C-1 90 89 1 198 1z"/><path style="fill:#ab69c6" d="M803 1172h269l191-191 191 191h270v270l191 191-191 190v270h-270l-191 191-191-191H803v-270l-191-190 191-191z"/><g style="clip-path:url(#id1)"><g id="_963685591216"><path id="1" style="fill:#fff" d="M664 1172h270l191-191 190 191h270v270l191 191-191 190v270h-270l-190 191-191-191H664v-270l-191-190 191-191z"/></g></g><path class="fil3" d="M803 1172h269l191-191 191 191h270v270l191 191-191 190v270h-270l-191 191-191-191H803v-270l-191-190 191-191z"/><path class="fil6" d="M1318 2491v257h-109v-257zM1318 240v557h-109V240z"/></g></g></svg>