<?xml version="1.0" encoding="UTF-8" standalone="no"?>
<svg
   xmlns:dc="http://purl.org/dc/elements/1.1/"
   xmlns:cc="http://creativecommons.org/ns#"
   xmlns:rdf="http://www.w3.org/1999/02/22-rdf-syntax-ns#"
   xmlns:svg="http://www.w3.org/2000/svg"
   xmlns="http://www.w3.org/2000/svg"
   xmlns:sodipodi="http://sodipodi.sourceforge.net/DTD/sodipodi-0.dtd"
   xmlns:inkscape="http://www.inkscape.org/namespaces/inkscape"
   xml:space="preserve"
   width="4.2479277mm"
   height="4.2479277mm"
   version="1.1"
   style="clip-rule:evenodd;fill-rule:evenodd;image-rendering:optimizeQuality;shape-rendering:geometricPrecision;text-rendering:geometricPrecision"
   viewBox="0 0 424.91822 424.91822"
   id="svg10"
   sodipodi:docname="IconRecordVoice.svg"
   inkscape:version="1.0.1 (3bc2e813f5, 2020-09-07)"><metadata
   id="metadata14"><rdf:RDF><cc:Work
       rdf:about=""><dc:format>image/svg+xml</dc:format><dc:type
         rdf:resource="http://purl.org/dc/dcmitype/StillImage" /></cc:Work></rdf:RDF></metadata><sodipodi:namedview
   pagecolor="#ffffff"
   bordercolor="#666666"
   borderopacity="1"
   objecttolerance="10"
   gridtolerance="10"
   guidetolerance="10"
   inkscape:pageopacity="0"
   inkscape:pageshadow="2"
   inkscape:window-width="1920"
   inkscape:window-height="1001"
   id="namedview12"
   showgrid="false"
   inkscape:zoom="28.658571"
   inkscape:cx="3.786861"
   inkscape:cy="13.141971"
   inkscape:window-x="-9"
   inkscape:window-y="-9"
   inkscape:window-maximized="1"
   inkscape:current-layer="svg10" />
 <defs
   id="defs4">
  <style
   type="text/css"
   id="style2">
   <![CDATA[
    .fil0 {fill:#C5A8D2}
   ]]>
  </style>
 </defs>
 <g
   id="Layer_x0020_1"
   transform="matrix(1.5914541,0,0,1.5914541,-3.1829082,-3.1829082)">
  <metadata
   id="CorelCorpID_0Corel-Layer" />
  <path
   class="fil0"
   d="m 135,2 c 74,0 134,60 134,133 0,74 -60,134 -134,134 C 62,269 2,209 2,135 2,62 62,2 135,2 Z m 0,55 v 0 c 21,0 38,17 38,37 v 53 c 0,21 -17,38 -38,38 v 0 C 115,185 98,168 98,147 V 94 c 0,-20 17,-37 37,-37 z m 65,92 c 0,18 -7,34 -19,46 -11,11 -28,19 -46,19 -17,0 -34,-8 -45,-19 C 78,183 71,167 71,149 h 13 c 0,14 6,27 15,36 9,10 22,15 36,15 15,0 28,-5 37,-15 9,-9 15,-22 15,-36 z"
   id="path7" />
 </g>
</svg>
