<svg width="24.795" height="24.795" viewBox="0 0 12 12" fill="none" xmlns="http://www.w3.org/2000/svg"><path d="M3.451 1.035A.491.491 0 0 0 2.814.93c-.876.531-1.566 1.275-2.07 2.177A5.864 5.864 0 0 0 0 6c0 1.646.664 3.16 1.752 4.248A5.955 5.955 0 0 0 6 12c1.646 0 3.16-.664 4.248-1.752A6.001 6.001 0 0 0 12 6c0-1.646-.664-3.16-1.752-4.248A6.001 6.001 0 0 0 6 0a.476.476 0 0 0-.478.478c0 .265.213.478.478.478 1.38 0 2.655.557 3.558 1.486A4.907 4.907 0 0 1 11.044 6c0 1.38-.557 2.655-1.486 3.558A4.952 4.952 0 0 1 6 11.044a5.013 5.013 0 0 1-3.584-1.486A5.038 5.038 0 0 1 .956 6c0-.876.212-1.726.61-2.442a5.301 5.301 0 0 1 1.38-1.593l2.576 3.584.478.663h3.638a.437.437 0 0 0 .424-.424.437.437 0 0 0-.425-.425h-3.08l-.424-.584L3.45 1.035z" fill="#F1C40F"/></svg>