<svg xmlns="http://www.w3.org/2000/svg" xmlns:xlink="http://www.w3.org/1999/xlink" xml:space="preserve" width="58.051" height="58.051" version="1.1" style="clip-rule:evenodd;fill-rule:evenodd;image-rendering:optimizeQuality;shape-rendering:geometricPrecision;text-rendering:geometricPrecision" viewBox="0 0 1535.318 1535.318" id="svg134"><defs id="defs45"><clipPath id="id7"><path d="M259 499c21-33 51-47 91-40 2 5 2 11 0 21l-5 34-5 35c0 3-2 6-5 7-4 2-7 1-10-1l-27-22c-17-13-30-19-39-34z" id="path25"/></clipPath><clipPath id="id1"><path d="M276 203h252c40 0 73 33 73 73v252c0 40-33 73-73 73H276c-40 0-73-33-73-73V276c0-40 33-73 73-73z" id="path7"/></clipPath><clipPath id="id2"><path d="M270 183h264c48 0 88 39 88 87v264c0 48-40 88-88 88H270c-48 0-87-40-87-88V270c0-48 39-87 87-87z" id="path10"/></clipPath><clipPath id="id3"><path d="m139 206 90-50-33-80c-42-9-74 5-95 40z" id="path13"/></clipPath><clipPath id="id4"><path d="m215 164-30-71c-35-8-63 1-83 24l37 89z" id="path16"/></clipPath><clipPath id="id5"><path d="m139 206 90-50-33-80c-42-9-74 5-95 40z" id="path19"/></clipPath><clipPath id="id6"><path d="m222 139 123 307c5 12 8 15 5 34l-5 34-5 35c0 3-2 6-5 7-4 2-7 1-10-1l-27-22c-22-17-37-22-47-48L128 180z" id="path22"/></clipPath><clipPath id="id0"><path d="M270 183h264c48 0 88 39 88 87v264c0 48-40 88-88 88H270c-48 0-87-40-87-88V270c0-48 39-87 87-87z" id="path4"/></clipPath><clipPath id="id8"><path d="m222 139 123 307c5 12 8 15 5 34l-5 34-5 35c0 3-2 6-5 7-4 2-7 1-10-1l-27-22c-22-17-37-22-47-48L128 180z" id="path28"/></clipPath><linearGradient xlink:href="#id11" id="linearGradient965" gradientUnits="userSpaceOnUse" x1="442.06" y1="474.53" x2="576.6" y2="474.53"/><linearGradient id="id9" gradientUnits="userSpaceOnUse" x1="96.34" y1="194.19" x2="237.7" y2="194.19"><stop offset="0" style="stop-opacity:1;stop-color:#e6e6e6" id="stop31"/><stop offset=".522" style="stop-opacity:1;stop-color:#f3f3f3" id="stop33"/><stop offset="1" style="stop-opacity:1;stop-color:#c4c4c4" id="stop35"/></linearGradient><linearGradient id="id10" gradientUnits="userSpaceOnUse" xlink:href="#id9" x1="106.9" y1="177.33" x2="248.26" y2="177.33"/><linearGradient id="id11" gradientUnits="userSpaceOnUse" x1="442.06" y1="474.53" x2="576.6" y2="474.53"><stop offset="0" style="stop-opacity:1;stop-color:#934daf" id="stop39"/><stop offset="1" style="stop-opacity:1;stop-color:#cea0e4" id="stop41"/></linearGradient><linearGradient id="id12" gradientUnits="userSpaceOnUse" xlink:href="#id11" x1="442.06" y1="300.55" x2="576.6" y2="300.55"/><linearGradient xlink:href="#id9" id="linearGradient963" gradientUnits="userSpaceOnUse" x1="96.34" y1="194.19" x2="237.7" y2="194.19"/><style type="text/css" id="style2">.fil5{fill:none}.fil15{fill:#fff}.fil16,.fil3{fill:#1a1a1a;fill-opacity:.2}.fil16{fill:#fff}</style></defs><g id="Layer_x0020_1" transform="matrix(1.91198 0 0 1.91198 -1.912 -1.912)"><g id="_582093767296"><path d="M402 1c222 0 402 179 402 401S624 804 402 804 1 624 1 402 180 1 402 1z" id="path48" style="fill:#c483de;fill-opacity:.4"/><path d="M402 85c176 0 318 142 318 317 0 176-142 318-318 318-175 0-317-142-317-318C85 227 227 85 402 85z" id="path50" style="fill:#c483de;fill-opacity:.2"/><path d="M270 183h264c48 0 88 39 88 87v264c0 48-40 88-88 88H270c-48 0-87-40-87-88V270c0-48 39-87 87-87z" id="path52" style="fill:#c483de"/><g clip-path="url(#id0)" id="g71"><g id="g57"><path id="1" class="fil3" d="M243 85 81 260l174 234 95-36z"/><path d="M276 203h252c40 0 73 33 73 73v252c0 40-33 73-73 73H276c-40 0-73-33-73-73V276c0-40 33-73 73-73z" id="path55" style="fill:#b36ecf"/></g><g clip-path="url(#id1)" id="g65"><g id="g63"><path id="polygon59" class="fil3" d="m112 489-1-2 1-2 1 1z"/><path class="fil3" id="polygon61" d="M243 85 81 260l174 234 95-36z"/></g></g><g clip-path="url(#id2)" id="g69"><path class="fil5" d="M276 203h252c40 0 73 33 73 73v252c0 40-33 73-73 73H276c-40 0-73-33-73-73V276c0-40 33-73 73-73z" id="path67"/></g></g><path class="fil5" d="M270 183h264c48 0 88 39 88 87v264c0 48-40 88-88 88H270c-48 0-87-40-87-88V270c0-48 39-87 87-87z" id="path73"/><path d="m139 206 90-50-33-80c-42-9-74 5-95 40z" id="path75" style="fill:#edcf9a"/><g clip-path="url(#id3)" id="g92"><g id="g79"><path id="path77" d="m128 223 91-50-34-80c-42-9-74 5-94 40z" style="fill:#f2d7a7"/></g><g clip-path="url(#id4)" id="g84"><g id="g82"><path id="2" style="fill:url(#linearGradient963)" d="M236 124 96 186l51 78 91-49z"/></g></g><g clip-path="url(#id5)" id="g90"><path class="fil5" d="m128 223 91-50-34-80c-42-9-74 5-94 40z" id="path86"/><path id="polygon88" style="fill:url(#id10)" d="m247 107-140 62 51 79 90-50z"/></g></g><path class="fil5" d="m139 206 90-50-33-80c-42-9-74 5-95 40z" id="path94"/><path d="m222 139 123 307c5 12 8 15 5 34l-5 34-5 35c0 3-2 6-5 7-4 2-7 1-10-1l-27-22c-22-17-37-22-47-48L128 180z" id="path96" style="fill:#c190d4"/><g clip-path="url(#id6)" id="g116"><g id="g102"><path id="polygon98" style="fill:#cea0e4" d="m169 140 183 460-186 14-197-378L44 60z"/><path d="m267 600-8-101c21-33 52-47 92-40l39 78-63 84z" id="path100" style="fill:#e8d6a0"/></g><g clip-path="url(#id7)" id="g108"><g id="g106"><path id="polygon104" style="fill:#dec98a" d="m169 140 183 460-186 14-197-378L44 60z"/></g></g><g clip-path="url(#id8)" id="g114"><path class="fil5" d="m267 600-8-101c21-33 52-47 92-40l39 78-63 84z" id="path110"/><circle cx="335" cy="556" r="28" id="circle112" style="fill:#633"/></g></g><path class="fil5" d="m222 139 123 307c5 12 8 15 5 34l-5 34-5 35c0 3-2 6-5 7-4 2-7 1-10-1l-27-22c-22-17-37-22-47-48L128 180z" id="path118"/><path class="fil15" d="M449 260h68c11 0 20 9 20 21v67c0 11-9 20-20 20h-68c-11 0-20-9-20-20v-67c0-12 9-21 20-21z" id="path120"/><path class="fil16" d="M439 250h88c11 0 20 9 20 20v88c0 11-9 21-20 21h-88c-11 0-20-10-20-21v-88c0-11 9-20 20-20z" id="path122"/><path class="fil15" d="M449 436h68c11 0 20 9 20 20v68c0 11-9 20-20 20h-68c-11 0-20-9-20-20v-68c0-11 9-20 20-20z" id="path124"/><path id="polygon126" style="fill:url(#id12);fill-rule:nonzero" d="m472 341-30-41 22-16 21 29 74-65 18 21-85 74-11 10z"/><path class="fil16" d="M439 426h88c11 0 20 9 20 20v88c0 11-9 20-20 20h-88c-11 0-20-9-20-20v-88c0-11 9-20 20-20z" id="path128"/><path id="polygon130" style="fill:url(#linearGradient965);fill-rule:nonzero" d="m472 515-30-41 22-16 21 29 74-65 18 21-85 74-11 10z"/></g></g></svg>