<?xml version="1.0" encoding="UTF-8" standalone="no"?>
<svg
   xmlns:dc="http://purl.org/dc/elements/1.1/"
   xmlns:cc="http://creativecommons.org/ns#"
   xmlns:rdf="http://www.w3.org/1999/02/22-rdf-syntax-ns#"
   xmlns:svg="http://www.w3.org/2000/svg"
   xmlns="http://www.w3.org/2000/svg"
   xmlns:sodipodi="http://sodipodi.sourceforge.net/DTD/sodipodi-0.dtd"
   xmlns:inkscape="http://www.inkscape.org/namespaces/inkscape"
   xml:space="preserve"
   width="12.710319mm"
   height="12.710319mm"
   version="1.1"
   style="clip-rule:evenodd;fill-rule:evenodd;image-rendering:optimizeQuality;shape-rendering:geometricPrecision;text-rendering:geometricPrecision"
   viewBox="0 0 1270.5951 1270.5951"
   id="svg18"
   sodipodi:docname="icon_reload voice.svg"
   inkscape:version="1.0.1 (3bc2e813f5, 2020-09-07)"><metadata
   id="metadata22"><rdf:RDF><cc:Work
       rdf:about=""><dc:format>image/svg+xml</dc:format><dc:type
         rdf:resource="http://purl.org/dc/dcmitype/StillImage" /></cc:Work></rdf:RDF></metadata><sodipodi:namedview
   pagecolor="#ffffff"
   bordercolor="#666666"
   borderopacity="1"
   objecttolerance="10"
   gridtolerance="10"
   guidetolerance="10"
   inkscape:pageopacity="0"
   inkscape:pageshadow="2"
   inkscape:window-width="1920"
   inkscape:window-height="1001"
   id="namedview20"
   showgrid="false"
   inkscape:zoom="11.789942"
   inkscape:cx="13.0269"
   inkscape:cy="15.287579"
   inkscape:window-x="-9"
   inkscape:window-y="-9"
   inkscape:window-maximized="1"
   inkscape:current-layer="svg18" />
 <defs
   id="defs9">
  <style
   type="text/css"
   id="style2">
   <![CDATA[
    .fil1 {fill:white;fill-rule:nonzero}
    .fil0 {fill:url(#id0);fill-opacity:0.800000}
   ]]>
  </style>
  <linearGradient
   id="id0"
   gradientUnits="userSpaceOnUse"
   x1="0.55000001"
   y1="465.66"
   x2="930.77002"
   y2="465.66">
   <stop
   offset="0"
   style="stop-opacity:1; stop-color:#7D369A"
   id="stop4" />
   <stop
   offset="1"
   style="stop-opacity:1; stop-color:#C158D1"
   id="stop6" />
  </linearGradient>
 </defs>
 <g
   id="Layer_x0020_1"
   transform="matrix(1.3662313,0,0,1.3662313,-1.3662313,-1.3662313)">
  <metadata
   id="CorelCorpID_0Corel-Layer" />
  <g
   id="_582102363984">
   <path
   class="fil0"
   d="M 466,1 C 723,1 931,209 931,466 931,723 723,931 466,931 209,931 1,723 1,466 1,209 209,1 466,1 Z"
   id="path12"
   style="fill:url(#id0)" />
   <path
   class="fil1"
   d="m 471,347 c 37,0 70,15 94,39 v 0 c 24,24 39,58 39,94 0,37 -15,70 -39,94 -24,24 -57,39 -94,39 -36,0 -70,-15 -94,-39 v 0 c -18,-18 -31,-41 -36,-67 -8,-6 -14,-16 -14,-27 0,-18 15,-32 33,-32 18,0 33,14 33,32 0,9 -4,16 -9,22 4,16 13,30 24,41 v 1 c 16,16 38,26 63,26 25,0 47,-10 63,-27 16,-16 26,-38 26,-63 0,-25 -9,-47 -26,-63 v 0 c -16,-16 -38,-26 -63,-26 v 19 c 0,3 -2,7 -5,9 -3,1 -7,1 -10,0 l -35,-21 -35,-20 c -4,-2 -6,-5 -6,-9 0,-4 2,-7 6,-9 l 35,-20 35,-20 c 3,-2 7,-2 10,0 3,2 5,5 5,9 z"
   id="path14" />
  </g>
 </g>
</svg>
