<svg xmlns="http://www.w3.org/2000/svg" xml:space="preserve" width="24.515" height="24.515" style="clip-rule:evenodd;fill-rule:evenodd;image-rendering:optimizeQuality;shape-rendering:geometricPrecision;text-rendering:geometricPrecision" viewBox="0 0 648.611 648.611"><path d="M8447 8189c10 0 18 8 18 18 0 11-8 19-18 19-54 0-103 22-138 57-36 36-58 84-58 138 0 55 22 103 58 139 35 35 84 57 138 57s103-22 138-57c36-36 57-84 57-139 0-34-8-66-24-94-13-24-31-44-52-61l-148 238c-5 8-17 11-26 6l-3-3-95-86c-7-7-8-18-1-26 7-7 19-8 26-1l79 71 147-235c6-8 17-11 26-5 33 21 60 50 80 84 18 34 28 72 28 112 0 65-26 123-68 165s-100 68-164 68-122-26-165-68c-42-42-68-100-68-165 0-64 26-122 68-164 43-42 101-68 165-68z" style="fill:#1abc9c;fill-rule:nonzero" transform="translate(-11457.396 -11422.525) scale(1.39486)"/></svg>