<?xml version="1.0" encoding="UTF-8" standalone="no"?>
<svg
   xmlns:dc="http://purl.org/dc/elements/1.1/"
   xmlns:cc="http://creativecommons.org/ns#"
   xmlns:rdf="http://www.w3.org/1999/02/22-rdf-syntax-ns#"
   xmlns:svg="http://www.w3.org/2000/svg"
   xmlns="http://www.w3.org/2000/svg"
   xmlns:sodipodi="http://sodipodi.sourceforge.net/DTD/sodipodi-0.dtd"
   xmlns:inkscape="http://www.inkscape.org/namespaces/inkscape"
   xml:space="preserve"
   width="20"
   height="20"
   version="1.1"
   style="clip-rule:evenodd;fill-rule:evenodd;image-rendering:optimizeQuality;shape-rendering:geometricPrecision;text-rendering:geometricPrecision"
   viewBox="0 0 756.06736 764.21351"
   id="svg10"
   sodipodi:docname="icon_send - voice.svg"
   inkscape:version="1.0.1 (3bc2e813f5, 2020-09-07)"><metadata
   id="metadata14"><rdf:RDF><cc:Work
       rdf:about=""><dc:format>image/svg+xml</dc:format><dc:type
         rdf:resource="http://purl.org/dc/dcmitype/StillImage" /></cc:Work></rdf:RDF></metadata><sodipodi:namedview
   pagecolor="#ffffff"
   bordercolor="#666666"
   borderopacity="1"
   objecttolerance="10"
   gridtolerance="10"
   guidetolerance="10"
   inkscape:pageopacity="0"
   inkscape:pageshadow="2"
   inkscape:window-width="1920"
   inkscape:window-height="1001"
   id="namedview12"
   showgrid="false"
   inkscape:zoom="1.2968776"
   inkscape:cx="34.828955"
   inkscape:cy="8.7119472"
   inkscape:window-x="-9"
   inkscape:window-y="-9"
   inkscape:window-maximized="1"
   inkscape:current-layer="svg10"
   inkscape:document-rotation="0" />
 <defs
   id="defs4">
  <style
   type="text/css"
   id="style2">
   <![CDATA[
    .fil0 {fill:white;fill-rule:nonzero}
   ]]>
  </style>
 </defs>
 <g
   id="Layer_x0020_1"
   transform="matrix(2.0520525,0,0,2.0520525,-15482.736,-16900.704)">
  <metadata
   id="CorelCorpID_0Corel-Layer" />
  <path
   class="fil0"
   d="m 7776,8527 c -1,4 -1,7 1,10 1,3 4,5 7,6 v 0 c 4,1 8,1 11,0 3,-2 6,-4 7,-7 v 0 l 109,-264 v 0 c 1,-2 2,-5 2,-7 v 0 c 1,-3 0,-5 0,-7 -1,-3 -1,-5 -3,-7 v 0 c -1,-2 -2,-4 -4,-6 -2,-2 -4,-4 -6,-5 v 0 c -3,-1 -5,-2 -8,-3 v 0 c -2,-1 -5,-1 -8,-1 v 0 c -2,0 -5,0 -8,1 l -308,69 v 0 h -1 v 0 c -3,1 -5,2 -8,3 -3,2 -5,3 -7,5 -2,2 -3,5 -5,7 -1,3 -2,5 -2,8 0,3 0,6 0,9 v 0 c 1,2 2,5 3,7 h 1 v 1 c 1,2 3,4 5,6 3,2 5,3 8,4 v 0 l 120,52 6,2 v 1 h 1 v 1 0 0 l 50,187 v 0 c 0,3 3,6 6,8 3,1 6,2 10,1 v 0 c 4,-1 7,-3 9,-6 1,-2 2,-6 1,-9 l -49,-187 -1,-3 v 0 c -1,-1 -1,-2 -2,-3 v 0 c -1,-1 -2,-3 -3,-4 v -1 0 0 c -2,-1 -3,-2 -5,-4 v 0 c -1,-1 -3,-2 -5,-3 l -3,-1 v 0 l -123,-53 c -1,0 -1,0 -1,0 v -1 h -1 v 0 c 0,0 0,0 0,0 v 0 c 0,-1 0,-1 0,-1 0,-1 0,-1 0,-1 v 0 c 0,0 1,-1 1,-1 0,0 0,0 0,0 v 0 c 1,0 1,0 1,0 v 0 0 l 309,-70 c 0,0 0,0 1,0 v 0 0 c 0,1 1,1 1,1 0,0 0,0 0,0 1,0 1,1 1,1 v 0 1 c 0,0 0,0 0,1 v 0 z"
   id="path7" />
 </g>
</svg>
