<svg xmlns="http://www.w3.org/2000/svg" xml:space="preserve" width="65" height="65" style="shape-rendering:geometricPrecision;text-rendering:geometricPrecision;image-rendering:optimizeQuality;fill-rule:evenodd;clip-rule:evenodd" viewBox="0 0 1321 1321"><circle cx="660" cy="660" r="652" style="fill:#fff"/><path d="M523 485h245c28 0 55 5 79 15 26 11 49 26 68 45 19 20 34 42 45 68 10 24 16 51 16 79s-6 55-16 79c-9 23-23 44-39 61v1l-6 6c-19 19-42 34-68 45-24 10-51 15-79 15H493v-59h275c20 0 39-4 57-11 18-8 34-19 48-32l2-3c13-13 23-28 30-45 7-18 11-37 11-57s-4-39-11-56c-7-19-18-35-32-49-14-13-30-24-48-32-18-7-37-11-57-11H506v63l-81-46-80-47 80-46 81-47v64h17z" style="fill:#000;fill-rule:nonzero"/></svg>