<svg width="14" height="13" fill="none" xmlns="http://www.w3.org/2000/svg"><path d="M11.251 7.65a.712.712 0 0 0-.206.629l.575 3.184a.7.7 0 0 1-.291.7.713.713 0 0 1-.757.051L7.705 10.72a.731.731 0 0 0-.324-.085h-.175a.526.526 0 0 0-.175.058l-2.867 1.503c-.142.071-.303.096-.46.071a.72.72 0 0 1-.576-.823l.576-3.184a.724.724 0 0 0-.207-.634L1.16 5.359a.699.699 0 0 1-.174-.73.727.727 0 0 1 .575-.486l3.217-.467a.72.72 0 0 0 .57-.394L6.766.375a.674.674 0 0 1 .13-.174l.057-.046a.435.435 0 0 1 .105-.084l.07-.026.11-.045h.273c.243.025.457.17.57.388l1.436 2.894a.72.72 0 0 0 .537.394l3.217.467a.734.734 0 0 1 .589.485.703.703 0 0 1-.188.731l-2.42 2.292z" fill="#AB69C6"/></svg>