<svg xmlns="http://www.w3.org/2000/svg" width="90.56" height="121.919" version="1.0" viewBox="0 0 2396 3226" shape-rendering="geometricPrecision" text-rendering="geometricPrecision" image-rendering="optimizeQuality" fill-rule="evenodd" clip-rule="evenodd"><path d="M65 3155c0-626 507-1133 1133-1133s1133 507 1133 1133v6H65v-6z" fill="#1abc9c"/><path d="M1 3155c0-330 134-630 351-846 216-217 516-351 846-351s630 134 846 351h1c216 217 350 516 350 846v71H1v-71zm438-752c-178 180-293 424-308 694h904l56 64h644l-52-64h582c-15-272-131-517-311-697v-1c-194-193-461-312-756-312-100 0-197 14-289 39l-43-54c-180 52-335 148-469 282l42 49zM1198 0c222 0 424 90 569 236 146 146 236 347 236 570 0 222-90 423-236 569-145 146-347 236-569 236s-423-90-569-236-236-347-236-569c0-223 90-424 236-570S976 0 1198 0zM609 458l1177-1c-29-50-64-95-104-135-124-124-295-200-484-200s-360 76-483 200c-41 41-76 86-106 136zm1234 120l-1290 1c-25 71-39 147-39 227 0 188 77 359 201 483 123 124 294 200 483 200s360-76 484-200c123-124 200-295 200-483 0-80-14-157-39-228z" fill="#1abc9c" fill-rule="nonzero"/><path d="M397 2354l694 807h644L866 2072c-180 52-335 148-469 282z" fill="#fff"/></svg>