<svg xmlns="http://www.w3.org/2000/svg" xml:space="preserve" width="24.795" height="24.795" style="clip-rule:evenodd;fill-rule:evenodd;image-rendering:optimizeQuality;shape-rendering:geometricPrecision;text-rendering:geometricPrecision" viewBox="0 0 656.012 656.012"><path d="M8453 8283c5-8 16-10 24-5 32 20 59 49 77 82s29 70 29 109c0 63-26 119-67 160s-97 66-159 66c-63 0-119-25-160-66s-66-97-66-160c0-62 25-119 66-159 41-41 97-67 160-67 10 0 18 8 18 18s-8 18-18 18c-53 0-100 22-135 56-34 34-55 82-55 134 0 53 21 100 55 135 35 34 82 55 135 55 52 0 100-21 134-55 34-35 56-82 56-135 0-33-9-64-24-92-13-23-30-43-51-59l-97 134 73 92c7 7 5 19-2 25-8 6-19 5-25-3l-68-84-60 83-29-21 66-91-65-81c-6-7-5-19 2-25 8-6 19-5 26 3l59 73z" style="fill:#f75c4c;fill-rule:nonzero" transform="matrix(1.45135 0 0 1.45135 -11800.96 -11963.512)"/></svg>