<?xml version="1.0" encoding="UTF-8" standalone="no"?>
<svg
   xmlns:dc="http://purl.org/dc/elements/1.1/"
   xmlns:cc="http://creativecommons.org/ns#"
   xmlns:rdf="http://www.w3.org/1999/02/22-rdf-syntax-ns#"
   xmlns:svg="http://www.w3.org/2000/svg"
   xmlns="http://www.w3.org/2000/svg"
   xmlns:sodipodi="http://sodipodi.sourceforge.net/DTD/sodipodi-0.dtd"
   xmlns:inkscape="http://www.inkscape.org/namespaces/inkscape"
   xml:space="preserve"
   width="61.281082mm"
   height="75.622177mm"
   version="1.1"
   style="clip-rule:evenodd;fill-rule:evenodd;image-rendering:optimizeQuality;shape-rendering:geometricPrecision;text-rendering:geometricPrecision"
   viewBox="0 0 6127.9999 7562.0841"
   id="svg10"
   sodipodi:docname="icon-sertifikat dan evaluasi.svg"
   inkscape:version="1.0.1 (3bc2e813f5, 2020-09-07)"><metadata
   id="metadata14"><rdf:RDF><cc:Work
       rdf:about=""><dc:format>image/svg+xml</dc:format><dc:type
         rdf:resource="http://purl.org/dc/dcmitype/StillImage" /></cc:Work></rdf:RDF></metadata><sodipodi:namedview
   pagecolor="#ffffff"
   bordercolor="#666666"
   borderopacity="1"
   objecttolerance="10"
   gridtolerance="10"
   guidetolerance="10"
   inkscape:pageopacity="0"
   inkscape:pageshadow="2"
   inkscape:window-width="810"
   inkscape:window-height="480"
   id="namedview12"
   showgrid="false"
   inkscape:zoom="1.2968776"
   inkscape:cx="169.5337"
   inkscape:cy="204.53275"
   inkscape:window-x="0"
   inkscape:window-y="0"
   inkscape:window-maximized="0"
   inkscape:current-layer="svg10" />
 <defs
   id="defs4">
  <style
   type="text/css"
   id="style2">
   <![CDATA[
    .fil0 {fill:#6E248D;fill-rule:nonzero}
   ]]>
  </style>
 </defs>
 <g
   id="Layer_x0020_1"
   transform="translate(-3981,-3055)">
  <metadata
   id="CorelCorpID_0Corel-Layer" />
  <path
   class="fil0"
   d="m 5711,3448 c -54,0 -104,-22 -139,-57 -36,-36 -58,-85 -58,-139 0,-54 23,-103 58,-139 v 0 c 36,-36 85,-58 139,-58 h 3721 c 91,0 179,19 259,52 v 0 c 82,34 157,85 219,147 v 0 c 62,62 113,137 147,220 34,80 52,167 52,258 v 6208 c 0,61 -8,120 -23,177 v 0 c -15,57 -38,112 -67,163 v 0 c -30,51 -66,98 -108,139 v 0 c -42,42 -91,78 -144,108 v 0 c -53,31 -109,54 -165,68 -57,15 -116,23 -174,22 h -1 c -59,0 -118,-9 -175,-25 v 0 c -56,-15 -111,-39 -164,-70 L 7190,9398 c -23,-13 -47,-24 -72,-31 -24,-7 -49,-10 -73,-10 -24,0 -49,3 -73,10 -25,7 -49,17 -72,31 l -1898,1124 c -53,31 -108,55 -164,70 v 0 c -57,16 -116,25 -175,25 v 0 c -59,1 -118,-7 -175,-22 -56,-14 -111,-37 -165,-68 v 0 c -53,-30 -101,-67 -143,-108 -42,-41 -79,-88 -108,-139 -30,-51 -53,-106 -68,-163 -15,-57 -23,-116 -23,-177 V 3732 c 0,-91 19,-178 52,-258 34,-83 85,-158 147,-220 v 0 c 62,-62 137,-113 220,-147 v 0 c 79,-33 167,-52 258,-52 54,0 103,22 139,58 35,35 57,85 57,139 0,54 -22,103 -58,139 -35,35 -84,57 -138,57 -39,0 -76,8 -108,21 v 0 c -35,15 -67,36 -93,62 v 0 c -26,26 -47,58 -61,92 -14,33 -22,70 -22,109 v 6208 c 0,27 4,53 10,77 v 0 c 6,24 15,46 27,66 12,21 27,41 44,57 l 1,1 c 17,17 38,33 61,46 v 0 c 23,13 48,23 72,29 23,7 47,10 71,10 h 1 c 22,0 46,-4 70,-11 24,-7 49,-18 71,-31 L 6701,9060 c 54,-31 110,-56 167,-71 58,-17 118,-25 177,-25 59,0 119,8 177,25 v 0 c 57,16 114,40 167,71 h 1 l 1898,1124 v 0 c 23,14 47,24 71,31 24,7 48,11 71,11 h 1 c 23,0 47,-3 71,-10 24,-6 48,-16 72,-29 v 0 c 22,-13 43,-29 61,-46 v -1 c 18,-17 33,-36 45,-56 l -1,-1 c 12,-20 22,-43 28,-66 v -1 c 6,-23 9,-49 9,-76 V 3732 c 0,-39 -8,-76 -21,-108 v -1 c -14,-34 -36,-66 -62,-92 v 0 c -26,-26 -58,-47 -92,-62 -25,-10 -54,-17 -83,-20 v 1413 151 l -120,-90 -545,-406 -544,406 -121,90 V 4862 3448 Z m 1504,1533 c 55,95 106,171 157,226 v 0 c 46,51 92,86 139,104 h 1 c 47,17 104,22 174,13 76,-9 166,-34 272,-73 l 197,-71 122,-45 -22,128 -37,206 c -19,108 -28,199 -25,275 2,69 15,125 40,169 v 0 c 26,45 66,85 124,122 h 1 c 63,41 148,80 255,120 v 0 l 190,69 119,43 -94,84 -152,134 c -84,74 -150,140 -197,201 h -1 c -42,56 -69,107 -79,155 v 0 c -9,50 -4,105 16,170 22,72 62,156 119,256 h 1 l 104,181 66,113 h -131 -209 c -110,0 -201,7 -275,23 v 0 c -67,14 -120,37 -159,69 v 0 c -39,32 -71,80 -98,143 -30,70 -53,160 -73,273 l -37,206 -22,129 -100,-84 -160,-134 -1,-1 c -83,-70 -157,-123 -223,-158 -61,-32 -116,-49 -167,-49 v 0 c -51,0 -108,15 -170,46 -67,35 -143,88 -230,162 l -160,134 -100,84 -23,-129 -36,-206 c -20,-109 -42,-198 -70,-266 v 0 c -26,-64 -57,-112 -96,-145 -38,-33 -90,-57 -158,-72 h -1 c -74,-17 -167,-25 -281,-25 h -209 -131 l 66,-113 105,-181 c 55,-95 94,-177 117,-249 21,-65 28,-122 20,-172 -8,-51 -33,-103 -75,-158 h -1 c -45,-61 -112,-126 -199,-199 l -160,-134 -100,-84 123,-45 196,-71 c 104,-38 187,-75 250,-115 58,-37 101,-76 126,-120 26,-44 41,-99 44,-169 4,-76 -5,-169 -25,-282 l -36,-206 -23,-128 123,45 196,71 c 103,38 190,63 266,73 68,9 126,6 174,-11 48,-17 95,-50 142,-101 52,-56 105,-132 162,-230 l 104,-181 65,-113 66,112 z m 158,697 c -76,-29 -145,-71 -210,-127 -41,-35 -80,-76 -118,-123 -41,50 -83,93 -127,130 -67,56 -139,98 -216,125 -77,27 -158,39 -243,38 -54,0 -110,-6 -169,-18 1,65 -4,125 -14,180 -15,87 -43,165 -85,236 v 0 c -41,70 -95,132 -162,186 -41,34 -88,65 -141,95 42,49 77,97 105,146 44,76 73,154 87,236 13,80 11,161 -5,245 -10,53 -26,107 -47,164 64,10 122,25 175,44 83,31 155,72 217,125 62,53 113,117 155,192 26,47 49,99 69,156 55,-33 109,-59 163,-78 v 0 c 83,-30 164,-44 246,-43 v 0 c 81,0 161,16 241,46 h 1 c 50,19 101,44 152,74 22,-60 47,-115 75,-164 44,-77 97,-140 160,-193 64,-52 135,-91 216,-119 50,-18 105,-31 164,-41 -23,-61 -40,-119 -49,-175 -16,-86 -15,-168 1,-248 v 0 c 15,-79 46,-154 91,-228 v 0 c 28,-46 62,-92 101,-138 -57,-32 -108,-66 -152,-103 v 0 c -68,-57 -122,-121 -163,-193 h 1 c -41,-72 -67,-149 -80,-233 -9,-53 -13,-109 -12,-169 -64,12 -123,18 -180,18 v 0 c -88,0 -169,-14 -246,-43 z"
   id="path7" />
 </g>
</svg>
