<svg xmlns="http://www.w3.org/2000/svg" xml:space="preserve" width="24.341" height="24.341" style="clip-rule:evenodd;fill-rule:evenodd;image-rendering:optimizeQuality;shape-rendering:geometricPrecision;text-rendering:geometricPrecision" viewBox="0 0 644.018 644.018"><path d="M9301 7406h84c70 0 127 57 127 127v84c0 70-57 127-127 127h-84c-70 0-127-57-127-127v-84c0-70 57-127 127-127z" style="fill:#dcc6e0;fill-opacity:.2" transform="matrix(1.90538 0 0 1.90538 -17479.946 -14111.236)"/><path style="fill:#f75c4c" d="m9432 7628-29 30-54-54-54 54-29-30 54-53-54-54 29-29 54 54 54-54 29 29-54 54z" transform="matrix(1.90538 0 0 1.90538 -17479.946 -14111.236)"/></svg>