<svg xmlns="http://www.w3.org/2000/svg" xml:space="preserve" width="20.081" height="21.238" style="clip-rule:evenodd;fill-rule:evenodd;image-rendering:optimizeQuality;shape-rendering:geometricPrecision;text-rendering:geometricPrecision" viewBox="0 0 531.3 561.905"><g style="fill:#6e248b;fill-opacity:1"><path d="M7683 6561c-4-1-5-6-3-10 1-3 6-5 10-3 15 7 51 29 75 57 15 19 25 40 22 63-3 17-25 29-58 37-27 7-62 11-99 12-36 1-74-1-105-6-48-7-84-20-89-42s4-44 19-62c24-29 63-52 78-59 3-2 8 0 10 3 1 4 0 9-4 10-14 7-50 28-72 55-13 16-21 33-17 49 4 15 35 25 77 31 31 5 67 7 103 6 35-1 69-5 96-11 26-7 44-15 46-25 2-18-6-36-19-51-22-27-56-47-70-54zm-72-217c30 0 57 12 77 31 19 20 31 47 31 77s-12 57-31 76c-20 20-47 32-77 32s-57-12-76-32c-20-19-32-46-32-76s12-57 32-77c19-19 46-31 76-31zm66 42c-17-17-40-27-66-27s-49 10-66 27-27 40-27 66 10 49 27 66 40 27 66 27 49-10 66-27 27-40 27-66-10-49-27-66z" style="fill:#6e248b;fill-opacity:1;fill-rule:nonzero" transform="matrix(1.50544 0 0 1.50544 -11192.342 -9550.495)"/></g></svg>