<svg xmlns="http://www.w3.org/2000/svg" xmlns:xlink="http://www.w3.org/1999/xlink" xml:space="preserve" width="24.064" height="20.324" version="1.1" style="clip-rule:evenodd;fill-rule:evenodd;image-rendering:optimizeQuality;shape-rendering:geometricPrecision;text-rendering:geometricPrecision" viewBox="0 0 636.595 537.981" id="svg71"><defs id="defs21"><linearGradient id="id2" gradientUnits="userSpaceOnUse" x1="128.08" y1="398.98" x2="228.02" y2="503.46"><stop offset="0" style="stop-opacity:1;stop-color:#ffe3a6" id="stop10"/><stop offset="1" style="stop-opacity:1;stop-color:#e8ac88" id="stop12"/></linearGradient><linearGradient id="id3" gradientUnits="userSpaceOnUse" x1="46.35" y1="523.77" x2="175.01" y2="528.55"><stop offset="0" style="stop-opacity:1;stop-color:#27ae60" id="stop15"/><stop offset="1" style="stop-opacity:1;stop-color:#156e3a" id="stop17"/></linearGradient><linearGradient id="id4" gradientUnits="userSpaceOnUse" xlink:href="#id2" x1="139.85" y1="389.97" x2="234.33" y2="489.29"/><linearGradient xlink:href="#id2" id="linearGradient900" gradientUnits="userSpaceOnUse" x1="128.08" y1="398.98" x2="228.02" y2="503.46"/><clipPath id="id0"><path d="m105 432-20-35 186 10-89 98z" id="path4"/></clipPath><clipPath id="id1"><path d="M176 495c-36-42-40-86-73-109 65-8 102 20 168 21z" id="path7"/></clipPath><style type="text/css" id="style2">.fil4{fill:none}.fil1{fill:#ca2c68}.fil0{fill:#ea4c88}</style></defs><g id="Layer_x0020_1" transform="matrix(.7483 0 0 .7483 -1.759 -.265)"><g id="_216330893200"><path class="fil0" d="M269 105 626 9c38-10 78 13 88 51l95 357c11 38-12 77-50 88l-96 25c1-22 2-42 7-46 11-51 56-12 52-44-1-1-1-3-1-4H546l39-28-3-3c39-1 70-1 83-2 24-137-86-127-135-161-13-10-13-16-23-23-20 8-8 17-49 35-55 23-135 37-112 145h-9l-7 6-8-13c-9 4-18 10-27 17l-17-1-2-1-58-214c-10-38 13-78 51-88zm293 452-38 11-70-67 17-13h91zm-96 26-16 5v-10c5 1 10 3 16 5zm73-398c-56 7-63-55-7-61-34-12-67 3-63 41 3 35 46 49 70 20z" id="path24"/><rect class="fil0" transform="matrix(.29747 -.0797 .0797 .29747 621.331 623.587)" width="364" height="364" rx="247" ry="247" id="rect26" x="0" y="0"/><rect class="fil0" transform="scale(.13244) rotate(-15 4714.718 -1762.879)" width="364" height="364" rx="575" ry="575" id="rect28" x="0" y="0"/><rect class="fil0" transform="matrix(.21508 -.05763 .05763 .21508 763.071 12.245)" width="364" height="364" rx="342" ry="342" id="rect30" x="0" y="0"/><path class="fil0" id="polygon32" d="m2 664 7 7 41-33 128-97-73-84-66-41-1 23 84 102z"/><path class="fil1" d="m8 671 151-138 158 67-118 35c-1-106-150 23-150 23z" id="path34"/><path class="fil0" d="M566 629 430 499l-222 11-49 23 140 170 28-8c-5-131 78-169 199-55z" id="path36"/><path class="fil1" id="polygon38" d="m400 421-361-5 120 117 271-34z"/><path id="polygon40" style="fill:url(#linearGradient900)" d="m182 505-77-73-20-35 186 10z"/><g clip-path="url(#id0)" id="g45"><g id="g43"><path id="1" d="M176 495c-36-42-47-84-81-107 66-8 110 18 176 19z" style="fill:#1a1a1a;fill-opacity:.101961"/></g></g><path class="fil4" id="polygon47" d="m182 505-77-73-20-35 186 10z"/><path d="m182 525 126-119-11-15c-39 18-80 69-121 104-30-33-48-81-91-98l-19 19z" id="path49" style="fill:#fffbc4"/><path class="fil1" id="polygon51" d="m560 407-247-10-143 135 260-33z"/><path class="fil0" id="polygon53" d="m313 699-14 4-140-169 154-137 10 16-120 115z"/><path class="fil0" id="polygon55" d="m313 397 238-3 9 13-237 6z"/><path d="M176 495c-36-42-40-86-73-109 65-8 102 20 168 21z" id="path57" style="fill:url(#id4)"/><g clip-path="url(#id1)" id="g63"><g id="g61"><path id="path59" d="M190 357s-1-1 0-1c0 0 1 1 2 1s0-1 0-1c-1-1 0-1 0-1 4 1 5 1 5 1s-2 1-3 1h-2c-1 0-2 1-2 0z" style="fill:#4d4d4d;fill-opacity:.101961"/></g></g><path class="fil4" d="M176 495c-36-42-40-86-73-109 65-8 102 20 168 21z" id="path65"/><path d="M176 495c-1-2 0 14-28 30-25 14-48 14-73 28-14 8-26 16-16 3 5-7-42 0 12-15 3 0 51-9 80-23 17-8 21-28 21-28z" id="path67" style="fill:url(#id3)"/></g></g></svg>