<?xml version="1.0" encoding="UTF-8" standalone="no"?>
<svg
   xmlns:dc="http://purl.org/dc/elements/1.1/"
   xmlns:cc="http://creativecommons.org/ns#"
   xmlns:rdf="http://www.w3.org/1999/02/22-rdf-syntax-ns#"
   xmlns:svg="http://www.w3.org/2000/svg"
   xmlns="http://www.w3.org/2000/svg"
   xmlns:sodipodi="http://sodipodi.sourceforge.net/DTD/sodipodi-0.dtd"
   xmlns:inkscape="http://www.inkscape.org/namespaces/inkscape"
   xml:space="preserve"
   width="16.58515mm"
   height="12.820776mm"
   version="1.1"
   style="clip-rule:evenodd;fill-rule:evenodd;image-rendering:optimizeQuality;shape-rendering:geometricPrecision;text-rendering:geometricPrecision"
   viewBox="0 0 1658.4857 1282.0549"
   id="svg10"
   sodipodi:docname="IconShare.svg"
   inkscape:version="1.0.1 (3bc2e813f5, 2020-09-07)"><metadata
   id="metadata14"><rdf:RDF><cc:Work
       rdf:about=""><dc:format>image/svg+xml</dc:format><dc:type
         rdf:resource="http://purl.org/dc/dcmitype/StillImage" /></cc:Work></rdf:RDF></metadata><sodipodi:namedview
   pagecolor="#ffffff"
   bordercolor="#666666"
   borderopacity="1"
   objecttolerance="10"
   gridtolerance="10"
   guidetolerance="10"
   inkscape:pageopacity="0"
   inkscape:pageshadow="2"
   inkscape:window-width="1920"
   inkscape:window-height="1001"
   id="namedview12"
   showgrid="false"
   inkscape:zoom="1.2968776"
   inkscape:cx="153.77279"
   inkscape:cy="78.521068"
   inkscape:window-x="-9"
   inkscape:window-y="-9"
   inkscape:window-maximized="1"
   inkscape:current-layer="svg10"
   inkscape:document-rotation="0"><sodipodi:guide
     position="-6.8440001e-05,1282.055"
     orientation="0,67.671449"
     id="guide10" /><sodipodi:guide
     position="1790.4421,1282.055"
     orientation="52.311892,0"
     id="guide12" /><sodipodi:guide
     position="1790.4421,-102.00602"
     orientation="0,-67.671449"
     id="guide14" /><sodipodi:guide
     position="-6.8440001e-05,-102.00602"
     orientation="-52.311892,0"
     id="guide16" /><sodipodi:guide
     position="-6.8440001e-05,1282.055"
     orientation="0,67.671449"
     id="guide18" /><sodipodi:guide
     position="1790.4421,1282.055"
     orientation="52.311892,0"
     id="guide20" /><sodipodi:guide
     position="1790.4421,-102.00602"
     orientation="0,-67.671449"
     id="guide22" /><sodipodi:guide
     position="-6.8440001e-05,-102.00602"
     orientation="-52.311892,0"
     id="guide24" /></sodipodi:namedview>
 <defs
   id="defs4">
  <style
   type="text/css"
   id="style2">
   <![CDATA[
    .fil0 {fill:white;fill-rule:nonzero}
   ]]>
  </style>
 </defs>
 <g
   id="Layer_x0020_1"
   transform="matrix(0.28823178,0,0,0.28823178,-1267.6434,-1841.5128)">
  <metadata
   id="CorelCorpID_0Corel-Layer" />
  <path
   class="fil0"
   d="m 5288,8346 c 195,0 376,63 522,169 l 963,-770 c -40,-109 -61,-226 -61,-348 0,-278 113,-531 295,-713 182,-182 435,-295 713,-295 278,0 530,113 713,295 182,182 295,435 295,713 0,278 -113,531 -295,713 -183,182 -435,295 -713,295 -263,0 -504,-101 -683,-267 l -932,746 c 42,96 67,202 72,312 l 2426,555 c 40,-106 103,-202 182,-281 145,-145 345,-234 566,-234 221,0 421,89 566,234 145,145 235,345 235,566 0,221 -90,422 -235,566 -145,145 -345,235 -566,235 -221,0 -421,-90 -566,-235 -101,-101 -175,-229 -211,-372 L 6071,9658 c -41,76 -93,146 -154,207 h -1 c -161,160 -383,260 -628,260 -244,0 -467,-99 -628,-260 l -1,-1 c -161,-161 -261,-384 -261,-628 0,-245 100,-467 261,-628 v -1 c 161,-161 384,-261 629,-261 z M 8097,7020 c -96,-97 -230,-157 -377,-157 -147,0 -281,60 -378,157 -96,96 -156,230 -156,377 0,147 60,281 156,377 97,97 231,157 378,157 147,0 281,-60 377,-157 97,-96 157,-230 157,-377 0,-147 -60,-281 -157,-377 z m 1485,2786 c -59,-59 -141,-96 -231,-96 -90,0 -172,37 -231,96 -59,59 -95,140 -95,230 0,90 36,172 95,231 59,59 141,96 231,96 90,0 172,-37 231,-96 59,-59 95,-141 95,-231 0,-90 -36,-171 -95,-230 z M 5582,8942 c -75,-75 -179,-122 -294,-122 -114,0 -219,47 -294,122 v -1 c -74,75 -121,180 -121,295 0,114 46,218 120,293 l 1,1 c 76,75 180,121 294,121 115,0 219,-47 294,-121 v -1 c 75,-75 121,-179 121,-293 0,-115 -46,-219 -121,-294 z"
   id="path7" />
 </g>
</svg>
