<svg xmlns="http://www.w3.org/2000/svg" xml:space="preserve" width="31.04" height="31.04" style="shape-rendering:geometricPrecision;text-rendering:geometricPrecision;image-rendering:optimizeQuality;fill-rule:evenodd;clip-rule:evenodd" viewBox="0 0 821 821"><defs><linearGradient id="a" gradientUnits="userSpaceOnUse" x1="122.89" y1="122.89" x2="698.37" y2="698.37"><stop offset="0" style="stop-opacity:1;stop-color:#ab69c6"/><stop offset=".502" style="stop-opacity:1;stop-color:#c94ae6"/><stop offset="1" style="stop-opacity:1;stop-color:#c73fcc"/></linearGradient><clipPath id="b"><path d="M411 0c226 0 411 185 411 411S637 822 411 822 0 637 0 411 185 0 411 0z"/></clipPath></defs><path d="M411 0c226 0 411 185 411 411S637 822 411 822 0 637 0 411 185 0 411 0z" style="fill:url(#a)"/><g style="clip-path:url(#b)"><path d="M0 0c226 0 411 185 411 411S226 822 0 822c-227 0-411-185-411-411S-227 0 0 0z" style="fill:#9b59b6;fill-opacity:.4"/><path d="M280 45c226 0 411 185 411 411S506 867 280 867s-411-185-411-411S54 45 280 45z" style="fill:#666;fill-opacity:.2"/></g><path d="M411 0c226 0 411 185 411 411S637 822 411 822 0 637 0 411 185 0 411 0z" style="fill:none"/><path d="M237 212h402c12 0 23 5 30 13h1c7 8 12 19 12 31v260c0 12-5 23-12 31h-1c-7 8-18 13-30 13H237c-12 0-23-5-31-13s-13-19-13-31V256c0-12 5-23 13-31s19-13 31-13zm334 75c11 0 21 9 21 20 0 12-10 21-21 21-12 0-21-9-21-21 0-11 9-20 21-20zm53 298c-2 4-5 8-8 11-8 8-19 13-31 13H183c-12 0-23-5-31-13s-13-19-13-31V306c0-12 5-23 13-31 2-2 3-4 6-5v295c0 7 2 14 7 18 4 5 11 8 18 8h411c11 0 20-2 30-6zm-367-88h361l-81-111-56 80-102-142-122 173zm382-266H237c-7 0-14 3-18 7-5 5-8 11-8 18v260c0 7 3 13 8 17v1c4 4 11 7 18 7h402c6 0 13-3 17-7v-1c5-4 8-10 8-17V256c0-7-3-13-8-18-4-4-11-7-17-7z" style="fill:#fff;fill-rule:nonzero"/></svg>