<svg xmlns="http://www.w3.org/2000/svg" xml:space="preserve" width="17.279" height="22.4" style="shape-rendering:geometricPrecision;text-rendering:geometricPrecision;image-rendering:optimizeQuality;fill-rule:evenodd;clip-rule:evenodd" viewBox="0 0 457 593"><path d="M2 1v539c0 19 9 35 25 44 16 10 35 10 51 0 173-100 124-103 301 0 16 10 35 10 51 0 16-9 26-25 26-44V1H2z" style="fill:#1abc9c"/><path d="M229 113c43 0 83 18 111 46 29 29 46 68 46 112 0 43-17 83-46 111-28 29-68 47-111 47-44 0-83-18-112-47-28-28-46-68-46-111 0-44 18-83 46-112 29-28 68-46 112-46zm-70 183c-3-3-3-8 0-11 3-4 7-4 11-1l19 19c5 5 3 10 5 9 0-1 1-3 3-6 2-4 5-11 11-18 9-14 21-27 34-39 14-12 29-23 47-32 4-2 9-1 11 3s0 9-3 11c-17 8-32 18-44 29-13 11-24 24-33 37-4 6-7 12-9 16s-4 7-6 9c-8 8-13 5-27-8l-19-18zm170-126c-26-25-61-41-100-41-40 0-75 16-101 41-26 26-42 62-42 101s16 75 42 100c26 26 61 42 101 42 39 0 74-16 100-42 26-25 42-61 42-100s-16-75-42-101z" style="fill:#fafbff;fill-rule:nonzero"/></svg>