<?xml version="1.0" encoding="UTF-8" standalone="no"?>
<svg
   xmlns:dc="http://purl.org/dc/elements/1.1/"
   xmlns:cc="http://creativecommons.org/ns#"
   xmlns:rdf="http://www.w3.org/1999/02/22-rdf-syntax-ns#"
   xmlns:svg="http://www.w3.org/2000/svg"
   xmlns="http://www.w3.org/2000/svg"
   xmlns:sodipodi="http://sodipodi.sourceforge.net/DTD/sodipodi-0.dtd"
   xmlns:inkscape="http://www.inkscape.org/namespaces/inkscape"
   xml:space="preserve"
   width="52.050919mm"
   height="52.050919mm"
   version="1.1"
   style="clip-rule:evenodd;fill-rule:evenodd;image-rendering:optimizeQuality;shape-rendering:geometricPrecision;text-rendering:geometricPrecision"
   viewBox="0 0 5204.9999 5204.9999"
   id="svg10"
   sodipodi:docname="akses-grub chat khusus.svg"
   inkscape:version="1.0.1 (3bc2e813f5, 2020-09-07)"><metadata
   id="metadata14"><rdf:RDF><cc:Work
       rdf:about=""><dc:format>image/svg+xml</dc:format><dc:type
         rdf:resource="http://purl.org/dc/dcmitype/StillImage" /></cc:Work></rdf:RDF></metadata><sodipodi:namedview
   pagecolor="#ffffff"
   bordercolor="#666666"
   borderopacity="1"
   objecttolerance="10"
   gridtolerance="10"
   guidetolerance="10"
   inkscape:pageopacity="0"
   inkscape:pageshadow="2"
   inkscape:window-width="1920"
   inkscape:window-height="1001"
   id="namedview12"
   showgrid="false"
   inkscape:zoom="1.2968776"
   inkscape:cx="83.434543"
   inkscape:cy="175.92122"
   inkscape:window-x="-9"
   inkscape:window-y="-9"
   inkscape:window-maximized="1"
   inkscape:current-layer="svg10" />
 <defs
   id="defs4">
  <style
   type="text/css"
   id="style2">
   <![CDATA[
    .fil0 {fill:#6E248D;fill-rule:nonzero}
   ]]>
  </style>
 </defs>
 <g
   id="Layer_x0020_1"
   transform="translate(-6259,-3812)">
  <metadata
   id="CorelCorpID_0Corel-Layer" />
  <path
   class="fil0"
   d="m 8861,3812 c 719,0 1370,291 1841,762 471,471 762,1122 762,1840 v 1821 239 l -217,-99 c -487,-221 -658,-80 -891,113 -285,234 -642,529 -1495,529 -718,0 -1369,-292 -1840,-762 -471,-471 -762,-1122 -762,-1841 0,-718 291,-1369 762,-1840 471,-471 1122,-762 1840,-762 z M 7776,6177 c 131,0 237,106 237,237 0,131 -106,238 -237,238 -131,0 -237,-107 -237,-238 0,-131 106,-237 237,-237 z m 2170,0 c 131,0 238,106 238,237 0,131 -107,238 -238,238 -131,0 -237,-107 -237,-238 0,-131 106,-237 237,-237 z m -1085,0 c 131,0 238,106 238,237 0,131 -107,238 -238,238 -131,0 -237,-107 -237,-238 0,-131 106,-237 237,-237 z m 1623,-1385 c -415,-415 -989,-672 -1623,-672 -633,0 -1207,257 -1622,672 -415,415 -672,989 -672,1622 0,634 257,1208 672,1623 415,415 989,672 1622,672 744,0 1053,-255 1300,-459 280,-231 496,-408 995,-242 V 6414 c 0,-633 -257,-1207 -672,-1622 z"
   id="path7" />
 </g>
</svg>
