<?xml version="1.0" encoding="UTF-8" standalone="no"?>
<svg
   xmlns:dc="http://purl.org/dc/elements/1.1/"
   xmlns:cc="http://creativecommons.org/ns#"
   xmlns:rdf="http://www.w3.org/1999/02/22-rdf-syntax-ns#"
   xmlns:svg="http://www.w3.org/2000/svg"
   xmlns="http://www.w3.org/2000/svg"
   xmlns:sodipodi="http://sodipodi.sourceforge.net/DTD/sodipodi-0.dtd"
   xmlns:inkscape="http://www.inkscape.org/namespaces/inkscape"
   xml:space="preserve"
   width="5.3072772mm"
   height="5.2931247mm"
   version="1.1"
   style="clip-rule:evenodd;fill-rule:evenodd;image-rendering:optimizeQuality;shape-rendering:geometricPrecision;text-rendering:geometricPrecision"
   viewBox="0 0 530.71834 529.30312"
   id="svg12"
   sodipodi:docname="IconInstructorMyTaskPurple.svg"
   inkscape:version="1.0.1 (3bc2e813f5, 2020-09-07)"><metadata
   id="metadata16"><rdf:RDF><cc:Work
       rdf:about=""><dc:format>image/svg+xml</dc:format><dc:type
         rdf:resource="http://purl.org/dc/dcmitype/StillImage" /></cc:Work></rdf:RDF></metadata><sodipodi:namedview
   pagecolor="#ffffff"
   bordercolor="#666666"
   borderopacity="1"
   objecttolerance="10"
   gridtolerance="10"
   guidetolerance="10"
   inkscape:pageopacity="0"
   inkscape:pageshadow="2"
   inkscape:window-width="1920"
   inkscape:window-height="1001"
   id="namedview14"
   showgrid="false"
   inkscape:zoom="1.2968776"
   inkscape:cx="14.759298"
   inkscape:cy="44.542505"
   inkscape:window-x="-9"
   inkscape:window-y="-9"
   inkscape:window-maximized="1"
   inkscape:current-layer="svg12"
   inkscape:document-rotation="0" />
 <defs
   id="defs4">
  <style
   type="text/css"
   id="style2">
   <![CDATA[
    .fil1 {fill:#B3B3B3}
    .fil0 {fill:#B3B3B3;fill-rule:nonzero}
   ]]>
  </style>
 </defs>
 <g
   id="Layer_x0020_1"
   style="fill:#6e248b;fill-opacity:1"
   transform="matrix(1.4152489,0,0,1.4152489,-11429.55,-10314.334)">
  <metadata
   id="CorelCorpID_0Corel-Layer" />
  <path
   class="fil0"
   d="m 8196,7560 c -4,4 -10,5 -14,1 -4,-4 -5,-10 -1,-14 l 69,-77 7,-7 7,6 27,24 55,-60 c 3,-4 10,-5 14,-1 4,4 4,10 0,14 l -61,68 -7,7 -7,-6 -27,-24 z m 67,-272 c 52,0 99,21 133,55 34,34 55,80 55,132 0,52 -21,99 -55,133 v 0 c -34,33 -81,54 -133,54 -51,0 -98,-21 -132,-54 v -1 c -34,-33 -55,-80 -55,-132 0,-52 21,-98 55,-132 v 0 c 34,-34 81,-55 132,-55 z m 119,69 c -31,-30 -72,-49 -119,-49 -46,0 -88,19 -118,49 v 0 c -30,30 -49,72 -49,118 0,46 19,88 49,118 30,31 72,49 118,49 47,0 88,-18 119,-49 v 0 c 30,-30 49,-72 49,-118 0,-46 -19,-88 -49,-118 z"
   id="path7"
   style="fill:#6e248b;fill-opacity:1" />
  <circle
   class="fil1"
   cx="8258"
   cy="7430"
   r="14"
   id="circle9"
   style="fill:#6e248b;fill-opacity:1" />
 </g>
</svg>
