<svg xmlns="http://www.w3.org/2000/svg" xml:space="preserve" width="30" height="35" style="shape-rendering:geometricPrecision;text-rendering:geometricPrecision;image-rendering:optimizeQuality;fill-rule:evenodd;clip-rule:evenodd" viewBox="0 0 5258 4851"><path d="M3437 2c1006 0 1820 815 1820 1821v1440l-151-69c-341-155-461-56-624 79-199 164-449 370-1045 370-146 0-287-17-423-50-54 315-206 596-422 812-275 274-654 444-1073 444-498 0-706-171-872-308-136-112-236-195-520-66L0 4533V3332c0-419 170-799 445-1073 275-275 654-445 1074-445 32 0 65 1 98 3C1620 815 2432 2 3437 2zm-411 3512c16-42 29-85 40-130 119 28 243 43 371 43 520 0 736-178 909-320 196-162 347-286 696-170V1823c0-887-719-1605-1605-1605-884 0-1601 714-1605 1598-46 0-91 3-136 8 349 41 661 199 896 435 275 274 445 654 445 1073 0 61-3 122-11 182zm-875-321c-76 0-138 62-138 139 0 76 62 138 138 138 28 0 54-8 76-22-45-30-75-81-75-139 0-42 16-80 41-109-13-4-27-7-42-7zM854 3467c10 2 21 3 32 3 76 0 138-62 138-138 0-63-42-117-100-133 26 29 42 68 42 110 0 73-47 135-112 158zm547-208c-13 21-21 46-21 73 0 76 62 138 138 138-72-18-125-83-125-161 0-17 3-34 8-50zm-829-873c242-242 577-392 947-392 369 0 704 150 946 392s392 576 392 946c0 369-150 704-392 946s-577 392-946 392c-434 0-615-149-758-268-164-134-290-238-581-141v-929c0-370 150-704 392-946zm2106-730c92 0 166 75 166 167 0 91-74 166-166 166s-166-75-166-166c0-92 74-167 166-167zm1518 0c92 0 166 75 166 167 0 91-74 166-166 166s-166-75-166-166c0-92 74-167 166-167zm-759 0c92 0 166 75 166 167 0 91-74 166-166 166s-166-75-166-166c0-92 74-167 166-167z" style="fill:#fff;fill-rule:nonzero"/><path d="M800 3475c92 0 166-74 166-166 0-91-74-166-166-166s-166 75-166 166c0 92 74 166 166 166zm1352-166c0 92 74 166 166 166s166-74 166-166c0-91-74-166-166-166s-166 75-166 166zm-759 0c0 92 74 166 166 166s166-74 166-166c0-91-74-166-166-166s-166 75-166 166z" style="fill:#7d369a"/></svg>