<svg xmlns="http://www.w3.org/2000/svg" xml:space="preserve" width="30" height="30" version="1.0" style="shape-rendering:geometricPrecision;text-rendering:geometricPrecision;image-rendering:optimizeQuality;fill-rule:evenodd;clip-rule:evenodd" viewBox="0 0 4352 2904"><defs><clipPath id="id0"><path d="m3805 1590-155-330L490 2741l77 165 1580-539 1658-777z"/></clipPath><clipPath id="id1"><path d="M4352 158c-1010 155-1793-454-2176 33v1840c480-773 1273-242 2176-210V158z"/></clipPath><style>.fil3{fill:none}.fil0{fill:#590f78}.fil1{fill:#934daf}.fil6{fill:#f4ecd4}</style></defs><g id="Layer_x0020_1"><g id="_963680293344"><path class="fil0" d="M2031 2223 490 2741l152-201c514-248 645-429 414-547l159-210 816 440zM2264 2223l1541 518-152-201c-514-248-645-429-414-547l-159-210-816 440z"/><path class="fil1" d="m3805 1590-155-330L490 2741l77 165 1580-539z"/><g style="clip-path:url(#id0)"><path id="1" style="fill:#1a1a1a;fill-opacity:.101961" d="m532 1740 154-330 3161 1480-77 165-1588-542z"/></g><path class="fil3" d="m3805 1590-155-330L490 2741l77 165 1580-539z"/><path class="fil1" d="m490 1590 155-330 3160 1481-77 165-1588-543z"/><circle cx="2165" cy="2165" r="77" style="fill:#522424"/><path d="M0 158c1010 155 1793-454 2176 33v1840c-708-477-1105-67-2007-35L0 158z" style="fill:#dfd4c6"/><path class="fil6" d="M4352 158c-1010 155-1793-454-2176 33v1840c743-601 1105-67 2007-35l169-1838zM0 158c1010 155 1793-454 2176 33v1840C1695 1258 903 1789 0 1821V158z"/><path d="M4352 158c-1010 155-1793-454-2176 33v1840c480-773 1273-242 2176-210V158z" style="fill:#e8dcc3"/><g style="clip-path:url(#id1)"><path id="1" d="M2139 200c-23-22-28-82-13-128 9-30 25-53 44-58 24-5 46 10 62 60 19 60 118 1495 117 1497-48 41-92 41-133 5 9-11 34-315 36-527 3-218-10-796-63-960-28-87-68 72-40 96l-10 15z" style="fill:#1a1a1a;fill-rule:nonzero;fill-opacity:.2"/></g><path class="fil3" d="M4352 158c-1010 155-1793-454-2176 33v1840c480-773 1273-242 2176-210V158z"/><path d="M2174 200c-23-22-28-82-14-128 10-30 25-53 45-58 23-5 45 10 62 60 19 60 117 1495 116 1497-48 41-92 41-132 5 9-11 33-315 36-527 2-218-10-796-64-960-28-88-68 72-39 96l-10 15z" style="fill:#fab515;fill-rule:nonzero"/></g></g></svg>