<svg width="185" height="170" viewBox="0 0 199 184" fill="none" xmlns="http://www.w3.org/2000/svg"><path fill-rule="evenodd" clip-rule="evenodd" d="M0 92.5C0 41.964 40.966.998 91.5.998v6c-47.22 0-85.5 38.28-85.5 85.5C6 139.72 44.28 178 91.5 178c47.221 0 85.501-38.28 85.501-85.5 0-15.38-4.06-29.812-11.168-42.281l-79.22 71.844a3 3 0 0 1-4.254-.224L42.43 77.131a3 3 0 0 1 4.476-3.997l37.916 42.453 108.673-98.554a3 3 0 0 1 4.031 4.445l-27.146 24.618c8.021 13.605 12.622 29.467 12.622 46.403 0 50.535-40.966 91.501-91.5 91.501C40.966 184 0 143.034 0 92.5z" fill="#9956B3"/></svg>