<?xml version="1.0" encoding="UTF-8"?>
<!DOCTYPE svg PUBLIC "-//W3C//DTD SVG 1.1//EN" "http://www.w3.org/Graphics/SVG/1.1/DTD/svg11.dtd">
<!-- Creator: CorelDRAW X7 -->
<svg xmlns="http://www.w3.org/2000/svg" xml:space="preserve" width="18.2878mm" height="18.2878mm" version="1.1" style="shape-rendering:geometricPrecision; text-rendering:geometricPrecision; image-rendering:optimizeQuality; fill-rule:evenodd; clip-rule:evenodd"
viewBox="0 0 1829 1829"
 xmlns:xlink="http://www.w3.org/1999/xlink">
 <defs>
  <style type="text/css">
   <![CDATA[
    .fil0 {fill:#AB69C6}
   ]]>
  </style>
 </defs>
 <g id="Layer_x0020_1">
  <metadata id="CorelCorpID_0Corel-Layer"/>
  <path class="fil0" d="M318 -1l1193 0c175,0 318,144 318,319l0 1193c0,175 -143,318 -318,318l-1193 0c-175,0 -319,-143 -319,-318l0 -1193c0,-175 144,-319 319,-319zm596 358c99,0 179,81 179,179 0,99 -80,179 -179,179 -98,0 -179,-80 -179,-179 0,-98 81,-179 179,-179zm-319 819l-300 348c-10,13 -13,29 -6,43 7,15 21,24 37,24l1195 0c15,0 28,-8 35,-20 7,-13 7,-28 0,-41l-326 -568c-7,-12 -18,-19 -32,-20 -13,-1 -25,3 -34,14l-334 394c-8,10 -20,15 -33,14 -13,0 -24,-7 -31,-18l-107 -166c-7,-11 -18,-17 -31,-18 -13,-1 -25,4 -33,14z"/>
 </g>
</svg>
