<svg xmlns="http://www.w3.org/2000/svg" xml:space="preserve" width="125.747" height="92.789" style="clip-rule:evenodd;fill-rule:evenodd;image-rendering:optimizeQuality;shape-rendering:geometricPrecision;text-rendering:geometricPrecision" viewBox="0 0 3127 2255"><path d="M9051 5823c115-5 231-8 347-9s232-1 347 1c259 5 517 19 772 41 36 3 70 13 102 29 32 15 60 37 84 63s43 56 56 89c12 33 19 68 19 104v1103c0 36-7 71-19 103-13 34-32 64-56 90s-53 47-85 63c-31 15-65 25-101 28-165 15-332 26-499 33s-334 11-500 11c-167 0-334-4-500-11-168-7-334-18-499-32-36-4-70-13-101-29-25-12-48-27-67-46l-1 1-17-18c-24-26-43-56-56-90-12-32-19-67-19-103v-595l25 2c11 1 22 2 31 2 9 1 19 1 30 1h23v590c0 23 5 44 12 64 8 21 20 39 34 55l52 39c19 10 41 16 63 18 167 14 332 25 495 32 166 7 331 11 495 11 165 0 329-4 493-11s330-18 496-33h1c22-1 43-8 62-17 20-9 38-23 53-39 14-16 26-35 34-55 7-20 12-42 12-64V6141c0-23-5-45-12-64-8-21-20-40-34-56-15-15-33-29-52-38-19-10-41-16-63-18-129-11-257-20-383-27-128-7-255-11-381-14-114-2-228-2-342-1-113 1-227 4-342 9l-23 1-1-23c-1-10-2-21-3-30-1-10-3-21-4-30l-4-26zm1 23c231-9 462-12 693-7 258 5 514 18 770 41 68 6 128 37 171 84s68 109 68 177v1103c0 68-25 130-68 177s-103 78-171 84c-332 29-664 43-997 43s-666-14-997-43c-68-6-128-37-170-84h-1c-43-47-68-109-68-177v-569c20 1 41 2 62 2v567c0 52 19 100 52 135 33 36 78 60 130 64 332 29 662 43 992 43s660-14 992-43c51-4 97-28 130-64s52-83 52-135V6141c0-52-19-100-52-135-33-36-78-60-130-64-257-23-512-36-766-41-228-5-456-2-685 7-1-21-4-41-7-62zm-742-529c89 0 175 18 252 50 81 34 154 83 215 143l23 23-1 1c106 117 171 272 171 443 0 89-18 174-50 252-34 80-83 153-143 214-61 61-134 110-215 143-77 32-163 50-252 50s-174-18-252-50c-70-29-135-70-191-121v1l-23-23c-61-61-110-133-143-214-32-78-50-163-50-252s18-175 50-252v-1c33-80 82-153 143-214l7-7c59-57 130-104 207-136 78-32 163-50 252-50zm-57 258c0-16 7-30 17-40 10-11 25-17 40-17 16 0 30 6 41 17 10 10 16 24 16 40v373l245 184c13 9 20 23 22 37 2 15-1 30-10 42l-1 2h-1c-9 12-22 19-36 21s-29-2-42-11l-1-1h-1l-266-200-13-10-10-7v-28zm443 16c-50-50-110-91-177-119-64-26-135-41-209-41s-144 15-209 41c-66 28-126 69-176 119h-1c-50 50-90 110-118 177-26 64-41 134-41 209 0 74 15 144 41 208 28 67 68 127 118 177l5 5c50 48 108 87 172 114 65 26 135 41 209 41s145-15 209-41c67-28 127-68 177-119 50-50 91-110 118-177 27-64 42-134 42-208 0-75-15-145-42-209-26-64-64-121-111-170zm970 874 6 3c13 8 21 20 25 33 3 12 2 24-2 35v1l-3 6c-8 13-20 22-33 25-12 3-24 3-35-2h-1l-5-3h-1l-301-174-5-3c-2-1-5-2-7-3-1 0-3-1-6-1-4 0-8 2-12 4l-2 1-4 3c-1 1-2 3-3 4v1c-1 1-2 3-3 5v585c1 2 2 4 3 5v1l3 4c2 1 4 3 6 4l6 3h13l6-3 493-285c3-1 5-3 6-4l3-4 1-1c1-2 2-4 2-5 0-2 1-5 1-8 0-2-1-5-1-7s-1-4-2-5l-1-1-3-4c-1-1-3-3-6-4-13-8-21-20-25-33-3-12-2-24 2-35v-1l4-6c7-13 19-22 33-25 13-4 28-2 41 5 11 6 20 14 28 22 5 5 9 10 14 15l7 12c6 10 11 21 14 33 3 11 4 22 4 34s-1 24-4 35c-3 12-8 23-14 33l-15 26-3-2c-9 9-19 18-31 24l-494 285-1 1-2 1-1 1-1 1h-1c-8 4-17 8-26 10-12 3-23 5-35 5-22 0-45-6-67-19-10-5-19-13-28-21l-3-3-3 2-15-26c-6-10-10-21-13-33-3-11-5-23-5-35v-570c0-12 2-23 5-35 3-11 7-22 13-32l22-38 3 7c4-3 8-7 13-10v-1l9-5 2-2c11-6 22-10 33-13s23-5 34-5c23 0 46 6 67 18l9 6zm150 235z" style="fill:#6e248d;fill-rule:nonzero" transform="translate(-7651 -5317)"/></svg>