<?xml version="1.0" encoding="UTF-8"?>
<!DOCTYPE svg PUBLIC "-//W3C//DTD SVG 1.1//EN" "http://www.w3.org/Graphics/SVG/1.1/DTD/svg11.dtd">
<!-- Creator: CorelDRAW X7 -->
<svg xmlns="http://www.w3.org/2000/svg" xml:space="preserve" width="120.735mm" height="120.735mm" version="1.1" style="shape-rendering:geometricPrecision; text-rendering:geometricPrecision; image-rendering:optimizeQuality; fill-rule:evenodd; clip-rule:evenodd"
viewBox="0 0 12073 12073"
 xmlns:xlink="http://www.w3.org/1999/xlink">
 <defs>
  <style type="text/css">
   <![CDATA[
    .fil1 {fill:#B3B3B3}
    .fil0 {fill:#E6E6E6}
   ]]>
  </style>
 </defs>
 <g id="Layer_x0020_1">
  <metadata id="CorelCorpID_0Corel-Layer"/>
  <g id="_85523948800">
   <circle class="fil0" cx="6037" cy="4960" r="2515"/>
   <circle class="fil1" cx="6037" cy="6037" r="6037"/>
   <path class="fil0" d="M10038 10055c0,-1281 -946,-2351 -2173,-2548 -514,371 -1146,589 -1828,589 -683,0 -1314,-218 -1829,-589 -1227,197 -2172,1267 -2172,2548l0 502c1065,944 2466,1516 4001,1516 1535,0 2936,-572 4001,-1516l0 -502z"/>
   <path class="fil0" d="M6037 7475c1388,0 2514,-1126 2514,-2515 0,-1388 -1126,-2514 -2514,-2514 -1389,0 -2515,1126 -2515,2514 0,1389 1126,2515 2515,2515z"/>
  </g>
 </g>
</svg>
