<?xml version="1.0" encoding="UTF-8"?>
<!DOCTYPE svg PUBLIC "-//W3C//DTD SVG 1.1//EN" "http://www.w3.org/Graphics/SVG/1.1/DTD/svg11.dtd">
<!-- Creator: CorelDRAW 2018 (64-Bit) -->
<svg xmlns="http://www.w3.org/2000/svg" xml:space="preserve" width="35px" height="32px" version="1.1" style="shape-rendering:geometricPrecision; text-rendering:geometricPrecision; image-rendering:optimizeQuality; fill-rule:evenodd; clip-rule:evenodd"
viewBox="0 0 35 32"
 xmlns:xlink="http://www.w3.org/1999/xlink">
 <defs>
  <style type="text/css">
   <![CDATA[
    .fil1 {fill:#FEFEFE}
    .fil0 {fill:#FEFEFE;fill-rule:nonzero}
   ]]>
  </style>
 </defs>
 <g id="Layer_x0020_1">
  <metadata id="CorelCorpID_0Corel-Layer"/>
  <path class="fil0" d="M22.94 0.07c6.61,0 11.95,5.35 11.95,11.95l0 9.43 -1.04 -0.45c-2.23,-0.96 -2.97,-0.37 -4.08,0.52 -1.26,1.12 -2.97,2.45 -6.83,2.45 -0.97,0 -1.93,-0.07 -2.82,-0.29 -0.37,2.08 -1.34,3.86 -2.75,5.34 -1.86,1.78 -4.31,2.9 -7.05,2.9 -3.27,0 -4.68,-1.12 -5.72,-2.01 -0.96,-0.74 -1.56,-1.33 -3.49,-0.44l-0.81 0.37 0 -0.89 0 -6.98c0,-2.82 1.11,-5.27 2.97,-7.13 1.78,-1.78 4.3,-2.89 7.05,-2.89 0.22,0 0.44,0 0.59,0 0.08,-6.53 5.42,-11.88 12.03,-11.88zm-2.75 23.09c0.15,-0.3 0.22,-0.6 0.3,-0.89 0.74,0.22 1.56,0.29 2.45,0.29 3.41,0 4.82,-1.18 5.94,-2.08 1.33,-1.11 2.3,-1.93 4.6,-1.11l0 -7.35c0,-5.86 -4.75,-10.54 -10.54,-10.54 -5.87,0 -10.54,4.68 -10.54,10.47 -0.37,0 -0.67,0.07 -0.97,0.07 2.3,0.3 4.38,1.34 5.94,2.82 1.78,1.86 2.9,4.31 2.9,7.13 0,0.37 0,0.74 -0.08,1.19zm-5.71 -2.16c-0.52,0 -0.9,0.45 -0.9,0.97 0,0.44 0.38,0.89 0.9,0.89 0.14,0 0.37,-0.07 0.44,-0.15 -0.3,-0.22 -0.44,-0.52 -0.44,-0.89 0,-0.3 0.07,-0.59 0.22,-0.74 -0.08,-0.08 -0.15,-0.08 -0.22,-0.08zm-8.54 1.79c0.07,0.07 0.15,0.07 0.22,0.07 0.45,0 0.89,-0.45 0.89,-0.89 0,-0.45 -0.29,-0.82 -0.67,-0.89 0.15,0.15 0.3,0.44 0.3,0.74 0,0.45 -0.3,0.82 -0.74,0.97zm3.56 -1.34c-0.07,0.15 -0.15,0.3 -0.15,0.52 0,0.44 0.45,0.89 0.97,0.89 -0.52,-0.15 -0.82,-0.59 -0.82,-1.04 0,-0.15 0,-0.22 0,-0.37zm-5.42 -5.72c1.56,-1.63 3.79,-2.59 6.24,-2.59 2.37,0 4.6,0.96 6.23,2.59 1.56,1.56 2.53,3.79 2.53,6.24 0,2.37 -0.97,4.6 -2.53,6.16 -1.63,1.63 -3.86,2.6 -6.23,2.6 -2.9,0 -4.08,-0.97 -4.98,-1.78 -1.11,-0.89 -1.93,-1.56 -3.86,-0.89l0 -6.09c0,-2.45 0.97,-4.68 2.6,-6.24zm13.81 -4.82c0.67,0 1.11,0.52 1.11,1.11 0,0.6 -0.44,1.12 -1.11,1.12 -0.59,0 -1.04,-0.52 -1.04,-1.12 0,-0.59 0.45,-1.11 1.04,-1.11zm10.02 0c0.6,0 1.12,0.52 1.12,1.11 0,0.6 -0.52,1.12 -1.12,1.12 -0.59,0 -1.11,-0.52 -1.11,-1.12 0,-0.59 0.52,-1.11 1.11,-1.11zm-4.97 0c0.59,0 1.04,0.52 1.04,1.11 0,0.6 -0.45,1.12 -1.04,1.12 -0.6,0 -1.12,-0.52 -1.12,-1.12 0,-0.59 0.52,-1.11 1.12,-1.11z"/>
  <path class="fil1" d="M5.57 22.86c0.59,0 1.11,-0.45 1.11,-1.04 0,-0.67 -0.52,-1.11 -1.11,-1.11 -0.6,0 -1.12,0.44 -1.12,1.11 0,0.59 0.52,1.04 1.12,1.04zm8.91 -1.04c0,0.59 0.44,1.04 1.11,1.04 0.59,0 1.04,-0.45 1.04,-1.04 0,-0.67 -0.45,-1.11 -1.04,-1.11 -0.67,0 -1.11,0.44 -1.11,1.11zm-4.98 0c0,0.59 0.45,1.04 1.04,1.04 0.59,0 1.11,-0.45 1.11,-1.04 0,-0.67 -0.52,-1.11 -1.11,-1.11 -0.59,0 -1.04,0.44 -1.04,1.11z"/>
 </g>
</svg>
