<svg xmlns="http://www.w3.org/2000/svg" xml:space="preserve" width="22" height="22" style="shape-rendering:geometricPrecision;text-rendering:geometricPrecision;image-rendering:optimizeQuality;fill-rule:evenodd;clip-rule:evenodd" viewBox="0 0 41 41"><defs><clipPath id="id0"><path d="M20.44.01c11.34 0 20.55 9.09 20.55 20.43s-9.21 20.55-20.55 20.55C9.22 40.99.01 31.78.01 20.44S9.22.01 20.44.01z"/></clipPath><style>.fil2{fill:none}</style></defs><g id="Layer_x0020_1"><path d="M20.44.01c11.34 0 20.55 9.09 20.55 20.43s-9.21 20.55-20.55 20.55C9.22 40.99.01 31.78.01 20.44S9.22.01 20.44.01z" style="fill:#ab69c6"/><g style="clip-path:url(#id0)"><path id="_1" d="M8.63 20.56c-.94-1.06-.83-2.6.24-3.54 1.06-.83 2.6-.71 3.54.23l4.84 5.67 11.58-10.27c1.06-.95 2.6-.83 3.54.23.95 1.06.83 2.6-.23 3.55L18.67 28.35h-.12c-.94.83-2.6.71-3.42-.35l-6.5-7.44z" style="fill:#fff;fill-rule:nonzero"/></g><path class="fil2" d="M20.44.01c11.34 0 20.55 9.09 20.55 20.43s-9.21 20.55-20.55 20.55C9.22 40.99.01 31.78.01 20.44S9.22.01 20.44.01z"/><path class="fil2" d="M20.44.01c11.34 0 20.55 9.09 20.55 20.43s-9.21 20.55-20.55 20.55C9.22 40.99.01 31.78.01 20.44S9.22.01 20.44.01z"/></g></svg>