<svg xmlns="http://www.w3.org/2000/svg" xml:space="preserve" width="48.039" height="48.039" style="clip-rule:evenodd;fill-rule:evenodd;image-rendering:optimizeQuality;shape-rendering:geometricPrecision;text-rendering:geometricPrecision" viewBox="0 0 1270.595 1270.595"><defs><linearGradient id="a" gradientUnits="userSpaceOnUse" x1=".55" y1="465.66" x2="930.77" y2="465.66"><stop offset="0" style="stop-opacity:1;stop-color:#7d369a"/><stop offset="1" style="stop-opacity:1;stop-color:#c158d1"/></linearGradient></defs><path d="M466 1c257 0 465 208 465 465S723 931 466 931 1 723 1 466 209 1 466 1z" style="fill:url(#a);fill-opacity:.8" transform="translate(-1.366 -1.366) scale(1.36623)"/><path d="M471 347c37 0 70 15 94 39s39 58 39 94c0 37-15 70-39 94s-57 39-94 39c-36 0-70-15-94-39-18-18-31-41-36-67-8-6-14-16-14-27 0-18 15-32 33-32s33 14 33 32c0 9-4 16-9 22 4 16 13 30 24 41v1c16 16 38 26 63 26s47-10 63-27c16-16 26-38 26-63s-9-47-26-63c-16-16-38-26-63-26v19c0 3-2 7-5 9-3 1-7 1-10 0l-35-21-35-20c-4-2-6-5-6-9s2-7 6-9l35-20 35-20c3-2 7-2 10 0s5 5 5 9z" style="fill:#fff;fill-rule:nonzero" transform="translate(-1.366 -1.366) scale(1.36623)"/></svg>