<svg width="106" height="98" fill="none" xmlns="http://www.w3.org/2000/svg"><path d="M105 47.5c3.6 13.2-15.5 18.167-25.5 19l-24 3.5C42 70.833 12.6 68.2 3 51-6.6 33.8 13.333 13.5 24.5 5.5c9.167-5.5 31.2-11.6 46 8C89 38 100.5 31 105 47.5z" fill="url(#a)" fill-opacity=".2"/><path d="M56.92 83.446c1.578-.742 11.695-3.12 13.437-3.16 1.497-.006 3.212.4 3.605 2.072.292 1.611-.31 3.242-1.39 4.442a12.4 12.4 0 0 1-5.12 3.767c-1.1.414-2.215.68-3.347.787a12.343 12.343 0 0 1-6.262-1.094c-1.504-.589-2.77-1.78-3.227-3.353-.393-1.673.962-2.8 2.304-3.461zm-6.54-58.843c6.909-1.625 14.737-.006 20.208 4.447 3.543 2.863 5.614 6.068 6.892 11.507l.333 1.415c.981 4.171 2.662 6.37 5.754 8.633 2.33 1.655 3.547 4.196 4.23 7.103.683 2.903.377 5.884-1.008 8.571-1.87 3.271-4.997 5.814-8.528 6.958-5.114 1.672-10.248 3.275-15.539 4.519-5.294 1.245-10.565 2.248-15.924 2.88-3.675.55-7.606-.334-10.735-2.429-2.438-1.788-4.043-4.32-4.726-7.223-.683-2.906-.722-5.725.622-8.243 1.836-3.422 2.287-6.123 1.307-10.294l-.333-1.415c-1.314-5.586-.78-9.566 1.248-13.816 3.038-6.218 9.139-10.953 15.902-12.543l.297-.07z" fill="url(#b)"/><path fill-rule="evenodd" clip-rule="evenodd" d="M59.159 35.434c-3.006-.337-6.179.477-8.143 1.35a2.5 2.5 0 0 1-2.031-4.568c2.535-1.127 6.612-2.213 10.732-1.75 4.262.478 8.628 2.65 11.06 8a2.5 2.5 0 0 1-4.553 2.069c-1.568-3.451-4.203-4.78-7.065-5.1z" fill="#fff"/><defs><linearGradient id="a" x1="-3.5" y1="4" x2="116" y2="96" gradientUnits="userSpaceOnUse"><stop stop-color="#A262BC"/><stop offset="1" stop-color="#AB69C6" stop-opacity="0"/></linearGradient><linearGradient id="b" x1="50.23" y1="24.638" x2="65.849" y2="91.062" gradientUnits="userSpaceOnUse"><stop stop-color="#AB69C6"/><stop offset="1" stop-color="#66068D"/></linearGradient></defs></svg>