<svg xmlns="http://www.w3.org/2000/svg" width="48" height="32" viewBox="0 0 40 32.75"><path style="fill:#ccc;fill-opacity:.2;fill-rule:evenodd;stroke:none" d="M16.371 3.625h7.258C32.633 3.625 40 11 40 20.004c0 9.004-7.367 16.371-16.371 16.371H16.37C7.367 36.375 0 29.008 0 20.004 0 11 7.367 3.625 16.371 3.625zm0 0" transform="translate(0 -3.625)"/><path style="fill:#666;fill-opacity:1;fill-rule:nonzero;stroke:none" d="M18.434 13.574a.41.41 0 1 1-.129-.809l.05-.007a3.785 3.785 0 0 1 2.875.758 4.086 4.086 0 0 1 1.543 2.62h.012l.008.06a4.232 4.232 0 0 1-.719 3.03 3.85 3.85 0 0 1-2.57 1.633.41.41 0 0 1-.473-.34.414.414 0 0 1 .348-.464c.844-.137 1.555-.625 2.027-1.293a3.436 3.436 0 0 0 .574-2.45h-.007l-.008-.05h.008a3.284 3.284 0 0 0-1.243-2.094 2.981 2.981 0 0 0-2.253-.602zm5.988 2.383a6.142 6.142 0 0 1-1.031 4.426 5.661 5.661 0 0 1-3.743 2.375l-.074.008c-1.539.23-3.015-.211-4.183-1.098a6.015 6.015 0 0 1-2.246-3.816l-.016-.086a6.15 6.15 0 0 1 1.039-4.426 5.661 5.661 0 0 1 3.742-2.375l.067-.008h.007a5.525 5.525 0 0 1 4.176 1.098c1.156.886 1.992 2.23 2.254 3.82zm-1.707 3.953a5.3 5.3 0 0 0 .898-3.836l-.011-.082a5.127 5.127 0 0 0-1.942-3.285 4.666 4.666 0 0 0-3.558-.937l-.067.007c-1.336.211-2.457.98-3.2 2.035a5.341 5.341 0 0 0-.898 3.836l.02.082a5.17 5.17 0 0 0 1.934 3.29 4.726 4.726 0 0 0 3.566.937l.066-.012c1.325-.21 2.457-.976 3.192-2.035zm.37 1.488h.013l.03-.043.009-.007c.304-.29.695-.43 1.082-.43.39 0 .777.14 1.082.43l.058.058 4.852 5.086c.3.32.46.742.46 1.156 0 .399-.14.805-.421 1.118v.015l-.04.043-.042.035-.008.008a1.593 1.593 0 0 1-1.082.438c-.39 0-.777-.153-1.082-.438l-.05-.05v-.008l-4.86-5.086a1.71 1.71 0 0 1-.465-1.16c0-.415.164-.836.465-1.157zm.587.575v.007-.007a.894.894 0 0 0-.223.59c0 .222.078.433.23.593l4.848 5.086.043.031c.145.137.32.204.508.204a.757.757 0 0 0 .504-.196v-.008l.043-.03a.852.852 0 0 0 .223-.595.85.85 0 0 0-.23-.59l-4.848-5.085v.007l-.043-.043a.742.742 0 0 0-.508-.203.764.764 0 0 0-.508.203zm0 0" transform="translate(0 -3.625)"/></svg>