<svg xmlns="http://www.w3.org/2000/svg" xml:space="preserve" width="22" height="20" style="clip-rule:evenodd;fill-rule:evenodd;image-rendering:optimizeQuality;shape-rendering:geometricPrecision;text-rendering:geometricPrecision" viewBox="0 0 1658.486 1282.055"><path d="M5288 8346c195 0 376 63 522 169l963-770c-40-109-61-226-61-348 0-278 113-531 295-713s435-295 713-295 530 113 713 295c182 182 295 435 295 713s-113 531-295 713c-183 182-435 295-713 295-263 0-504-101-683-267l-932 746c42 96 67 202 72 312l2426 555c40-106 103-202 182-281 145-145 345-234 566-234s421 89 566 234 235 345 235 566-90 422-235 566c-145 145-345 235-566 235s-421-90-566-235c-101-101-175-229-211-372l-2503-572c-41 76-93 146-154 207h-1c-161 160-383 260-628 260-244 0-467-99-628-260l-1-1c-161-161-261-384-261-628 0-245 100-467 261-628v-1c161-161 384-261 629-261zm2809-1326c-96-97-230-157-377-157s-281 60-378 157c-96 96-156 230-156 377s60 281 156 377c97 97 231 157 378 157s281-60 377-157c97-96 157-230 157-377s-60-281-157-377zm1485 2786c-59-59-141-96-231-96s-172 37-231 96-95 140-95 230 36 172 95 231 141 96 231 96 172-37 231-96 95-141 95-231-36-171-95-230zm-4000-864c-75-75-179-122-294-122-114 0-219 47-294 122v-1c-74 75-121 180-121 295 0 114 46 218 120 293l1 1c76 75 180 121 294 121 115 0 219-47 294-121v-1c75-75 121-179 121-293 0-115-46-219-121-294z" style="fill:#fff;fill-rule:nonzero" transform="translate(-1267.643 -1841.513) scale(.28823)"/></svg>