<?xml version="1.0" encoding="UTF-8"?>
<!DOCTYPE svg PUBLIC "-//W3C//DTD SVG 1.1//EN" "http://www.w3.org/Graphics/SVG/1.1/DTD/svg11.dtd">
<!-- Creator: CorelDRAW 2018 (64-Bit) -->
<svg xmlns="http://www.w3.org/2000/svg" xml:space="preserve" width="213px" height="52px" version="1.1" style="shape-rendering:geometricPrecision; text-rendering:geometricPrecision; image-rendering:optimizeQuality; fill-rule:evenodd; clip-rule:evenodd"
viewBox="0 0 213 52"
 xmlns:xlink="http://www.w3.org/1999/xlink">
 <defs>
  <style type="text/css">
   <![CDATA[
    .fil4 {fill:none}
    .fil2 {fill:#5E147D}
    .fil1 {fill:white;fill-rule:nonzero}
    .fil0 {fill:#1A1A1A;fill-opacity:0.200000}
    .fil3 {fill:url(#id1)}
   ]]>
  </style>
   <clipPath id="id0">
    <path d="M16.54 32.19l151.78 0c2.93,0 5.27,2.37 5.27,5.33l0 0c0,2.89 -2.34,5.32 -5.27,5.32l-151.78 0c-2.87,0 -5.28,-2.43 -5.28,-5.32l0 0c0,-2.96 2.41,-5.33 5.28,-5.33z"/>
   </clipPath>
  <linearGradient id="id1" gradientUnits="userSpaceOnUse" x1="-4.42" y1="37.45" x2="-1.56" y2="37.45">
   <stop offset="0" style="stop-opacity:1; stop-color:white"/>
   <stop offset="0.619608" style="stop-opacity:1; stop-color:#80FAE6"/>
   <stop offset="1" style="stop-opacity:1; stop-color:#00F5CC"/>
  </linearGradient>
 </defs>
 <g id="Layer_x0020_1">
  <metadata id="CorelCorpID_0Corel-Layer"/>
  <path class="fil0" d="M12.7 0.02l187.38 0c6.96,0 12.69,7.32 12.69,16.23l0 19.48c0,8.91 -5.73,16.23 -12.69,16.23l-187.38 0c-6.97,0 -12.63,-7.32 -12.63,-16.23l0 -19.48c0,-8.91 5.66,-16.23 12.63,-16.23z"/>
  <path class="fil1" d="M16.53 25.65l1.63 0 0 -5.2 2.43 0c3.02,0 3.71,-1.89 3.71,-3.31 0,-1.53 -0.69,-3.3 -3.71,-3.3l-4.06 0 0 11.81zm1.63 -10.51l2.08 0c1.16,0 2.44,0.35 2.44,2 0,1.54 -1.28,1.89 -2.44,1.89l-2.08 0 0 -3.89z"/>
  <path id="_1" class="fil1" d="M25.93 25.65l1.39 0 0 -4.02c0,-1.77 0.81,-2.48 2.32,-2.48 0.23,0 0.46,0 0.7,0l0 -1.53c-0.12,-0.12 -0.35,-0.12 -0.58,-0.12 -1.05,0 -1.98,0.59 -2.32,1.42l-0.12 0 0 -1.19 -1.39 0 0 7.92z"/>
  <path id="_2" class="fil1" d="M32.89 21.63c0,-1.53 0.93,-2.71 2.55,-2.71 1.51,0 2.55,1.18 2.55,2.71 0,1.66 -1.04,2.72 -2.55,2.72 -1.62,0 -2.55,-1.06 -2.55,-2.72zm-1.63 0c0,2.36 1.86,4.14 4.18,4.14 2.32,0 4.06,-1.78 4.06,-4.14 0,-2.24 -1.74,-4.13 -4.06,-4.13 -2.32,0 -4.18,1.89 -4.18,4.13z"/>
  <path id="_3" class="fil1" d="M49.13 17.73l-1.51 0 0 1.07 0 0c-0.58,-0.83 -1.62,-1.3 -2.67,-1.3 -2.43,0 -3.94,1.77 -3.94,4.13 0,2.36 1.62,4.02 3.94,4.02 1.05,0 2.09,-0.36 2.67,-1.3l0 0 0 1.06c0,1.42 -0.58,2.84 -2.78,2.84 -1.05,0 -1.97,-0.48 -2.79,-1.3l-0.92 1.18c1.04,1.06 2.31,1.42 3.82,1.42 2.44,0 4.18,-1.66 4.18,-4.02l0 -7.8zm-4.06 1.19c1.62,0 2.55,1.18 2.55,2.71 0,1.66 -0.93,2.72 -2.55,2.72 -1.51,0 -2.55,-1.06 -2.55,-2.72 0,-1.53 1.04,-2.71 2.55,-2.71z"/>
  <path id="_4" class="fil1" d="M51.33 25.65l1.51 0 0 -4.02c0,-1.77 0.81,-2.48 2.2,-2.48 0.24,0 0.47,0 0.7,0l0.12 -1.53c-0.24,-0.12 -0.47,-0.12 -0.7,-0.12 -0.93,0 -1.86,0.59 -2.32,1.42l0 0 0 -1.19 -1.51 0 0 7.92z"/>
  <path id="_5" class="fil1" d="M64.44 22.22l0 -0.59c0,-2.01 -1.04,-4.13 -3.71,-4.13 -2.32,0 -4.06,1.77 -4.06,4.13 0,2.36 1.51,4.14 3.94,4.14 1.51,0 2.67,-0.48 3.48,-1.54l-1.04 -0.94c-0.58,0.7 -1.28,1.18 -2.2,1.18 -1.4,0 -2.56,-0.95 -2.56,-2.25l6.15 0zm-6.15 -1.18c0,-1.06 0.93,-2.36 2.32,-2.36 1.51,0 2.21,0.94 2.32,2.36l-4.64 0z"/>
  <path id="_6" class="fil1" d="M71.52 18.8c-0.58,-0.95 -1.63,-1.3 -2.67,-1.3 -1.51,0 -2.9,0.83 -2.9,2.48 0,1.42 1.04,1.89 2.32,2.24 0.69,0.12 1.85,0.24 1.85,1.18 0,0.71 -0.81,0.95 -1.5,0.95 -0.93,0 -1.4,-0.36 -1.98,-0.95l-1.04 0.95c0.7,1.06 1.74,1.42 3.02,1.42 1.5,0 3.13,-0.71 3.13,-2.48 0,-1.42 -1.05,-2.01 -2.32,-2.25 -0.58,-0.23 -1.97,-0.35 -1.97,-1.3 0,-0.59 0.58,-0.82 1.27,-0.82 0.81,0 1.28,0.35 1.63,0.7l1.16 -0.82z"/>
  <path id="_7" class="fil1" d="M78.82 18.8c-0.58,-0.95 -1.62,-1.3 -2.66,-1.3 -1.51,0 -3.02,0.83 -3.02,2.48 0,1.42 1.16,1.89 2.44,2.24 0.58,0.12 1.85,0.24 1.85,1.18 0,0.71 -0.81,0.95 -1.62,0.95 -0.81,0 -1.39,-0.36 -1.86,-0.95l-1.16 0.95c0.81,1.06 1.74,1.42 3.02,1.42 1.62,0 3.13,-0.71 3.13,-2.48 0,-1.42 -0.93,-2.01 -2.2,-2.25 -0.7,-0.23 -1.98,-0.35 -1.98,-1.3 0,-0.59 0.58,-0.82 1.28,-0.82 0.7,0 1.28,0.35 1.62,0.7l1.16 -0.82z"/>
  <polygon id="_8" class="fil1" points="85.32,25.65 86.83,25.65 86.83,21.51 90.42,25.65 92.51,25.65 88.57,21.28 92.16,17.73 90.08,17.73 86.83,21.16 86.83,13.01 85.32,13.01 "/>
  <path id="_9" class="fil1" d="M101.1 22.22l0 -0.59c0,-2.01 -1.05,-4.13 -3.71,-4.13 -2.32,0 -4.06,1.77 -4.06,4.13 0,2.36 1.62,4.14 4.06,4.14 1.5,0 2.55,-0.48 3.36,-1.54l-1.04 -0.94c-0.58,0.7 -1.28,1.18 -2.21,1.18 -1.27,0 -2.55,-0.95 -2.55,-2.25l6.15 0zm-6.15 -1.18c0,-1.06 0.93,-2.36 2.43,-2.36 1.4,0 2.21,0.94 2.21,2.36l-4.64 0z"/>
  <polygon id="_10" class="fil1" points="103.07,25.65 104.46,25.65 104.46,13.01 103.07,13.01 "/>
  <path id="_11" class="fil1" d="M107.71 19.62c0.58,-0.47 1.16,-0.94 2.2,-0.94 1.28,0 1.86,0.83 1.86,1.65l0 0.36 -1.05 0c-2.31,0 -4.29,0.71 -4.29,2.71 0,1.54 1.28,2.37 2.67,2.37 1.28,0 2.09,-0.36 2.78,-1.42l0 0c0,0.47 0,0.83 0.12,1.3l1.28 0c-0.12,-0.47 -0.12,-0.95 -0.12,-1.54l0 -4.01c0,-1.3 -0.93,-2.6 -3.25,-2.6 -1.04,0 -2.2,0.35 -3.01,1.18l0.81 0.94zm4.06 2.13l0 0.59c0,1.06 -0.58,2.24 -2.21,2.24 -0.92,0 -1.62,-0.35 -1.62,-1.29 0,-1.3 1.74,-1.54 3.13,-1.54l0.7 0z"/>
  <path id="_12" class="fil1" d="M120.58 18.8c-0.58,-0.95 -1.62,-1.3 -2.66,-1.3 -1.39,0 -2.9,0.83 -2.9,2.48 0,1.42 1.16,1.89 2.32,2.24 0.69,0.12 1.85,0.24 1.85,1.18 0,0.71 -0.81,0.95 -1.5,0.95 -0.82,0 -1.4,-0.36 -1.86,-0.95l-1.16 0.95c0.81,1.06 1.74,1.42 3.02,1.42 1.5,0 3.13,-0.71 3.13,-2.48 0,-1.42 -0.93,-2.01 -2.21,-2.25 -0.69,-0.23 -2.08,-0.35 -2.08,-1.3 0,-0.59 0.69,-0.82 1.39,-0.82 0.69,0 1.16,0.35 1.5,0.7l1.16 -0.82z"/>
  <path class="fil2" d="M16.54 32.19l151.78 0c2.93,0 5.27,2.37 5.27,5.33l0 0c0,2.89 -2.34,5.32 -5.27,5.32l-151.78 0c-2.87,0 -5.28,-2.43 -5.28,-5.32l0 0c0,-2.96 2.41,-5.33 5.28,-5.33z"/>
  <g>
  </g>
  <g style="clip-path:url(#id0)">
   <g>
    <path class="fil3" d="M-2.93 32.19l0 0c0.79,0 1.43,2.39 1.43,5.33l0 0c0,2.94 -0.64,5.32 -1.43,5.32l0 0c-0.79,0 -1.43,-2.38 -1.43,-5.32l0 0c0,-2.94 0.64,-5.33 1.43,-5.33z"/>
   </g>
  </g>
  <path class="fil4" d="M16.54 32.19l151.78 0c2.93,0 5.27,2.37 5.27,5.33l0 0c0,2.89 -2.34,5.32 -5.27,5.32l-151.78 0c-2.87,0 -5.28,-2.43 -5.28,-5.32l0 0c0,-2.96 2.41,-5.33 5.28,-5.33z"/>
  <path class="fil4" d="M16.54 32.19l151.78 0c2.93,0 5.27,2.37 5.27,5.33l0 0c0,2.89 -2.34,5.32 -5.27,5.32l-151.78 0c-2.87,0 -5.28,-2.43 -5.28,-5.32l0 0c0,-2.96 2.41,-5.33 5.28,-5.33z"/>
  <path class="fil1" d="M188.6 37.57c0,-3.3 -1.12,-6.14 -3.99,-6.14 -2.87,0 -4,2.84 -4,6.14 0,3.31 1.13,6.26 4,6.26 2.87,0 3.99,-2.95 3.99,-6.26zm-2.46 0c0,1.54 -0.2,3.78 -1.53,3.78 -1.23,0 -1.54,-2.24 -1.54,-3.78 0,-1.53 0.31,-3.78 1.54,-3.78 1.33,0 1.53,2.25 1.53,3.78z"/>
  <path id="_1_0" class="fil1" d="M202.13 40.53c0,-1.78 -1.23,-3.19 -2.77,-3.19 -1.53,0 -2.76,1.41 -2.76,3.19 0,1.77 1.23,3.19 2.76,3.19 1.54,0 2.77,-1.42 2.77,-3.19zm-1.64 0c0,0.71 -0.51,1.3 -1.13,1.3 -0.61,0 -1.13,-0.59 -1.13,-1.3 0,-0.71 0.52,-1.3 1.13,-1.3 0.62,0 1.13,0.59 1.13,1.3zm-5.33 -5.91c0,-1.77 -1.23,-3.19 -2.66,-3.19 -1.54,0 -2.77,1.42 -2.77,3.19 0,1.77 1.23,3.19 2.77,3.19 1.43,0 2.66,-1.42 2.66,-3.19zm-1.54 0c0,0.71 -0.51,1.3 -1.12,1.3 -0.72,0 -1.13,-0.59 -1.13,-1.3 0,-0.71 0.41,-1.3 1.13,-1.3 0.61,0 1.12,0.59 1.12,1.3zm5.95 -2.72l-1.34 -0.7 -5.94 12.16 1.23 0.71 6.05 -12.17z"/>
 </g>
</svg>
