<svg width="17" height="17" fill="none" xmlns="http://www.w3.org/2000/svg"><path d="M8.517 0C13.345 0 17 3.958 17 8.487 17 13.74 12.716 17 8.5 17c-1.394 0-2.941-.375-4.182-1.107-.433-.264-.799-.46-1.266-.306l-1.718.51c-.433.137-.824-.204-.697-.663l.57-1.907a.891.891 0 0 0-.06-.766C.417 11.416 0 9.943 0 8.513 0 4.035 3.579 0 8.517 0zm3.885 7.432a1.09 1.09 0 0 0 0 2.18 1.09 1.09 0 0 0 1.087-1.09c0-.605-.484-1.09-1.088-1.09zm-3.919 0a1.084 1.084 0 0 0-1.088 1.08c0 .605.485 1.09 1.088 1.099a1.09 1.09 0 0 0 1.088-1.09c0-.604-.485-1.09-1.088-1.09zm-3.919 0c-.603 0-1.087.485-1.087 1.09 0 .595.493 1.089 1.087 1.089a1.096 1.096 0 0 0 1.088-1.09c0-.604-.484-1.09-1.088-1.09z" fill="#4D4D4D" fill-opacity=".2"/></svg>