<svg xmlns="http://www.w3.org/2000/svg" xml:space="preserve" width="9.599" height="12.8" style="shape-rendering:geometricPrecision;text-rendering:geometricPrecision;image-rendering:optimizeQuality;fill-rule:evenodd;clip-rule:evenodd" viewBox="0 0 254 339"><path d="M106 72c1-1 3 0 5 0 1 1 3 2 3 4v4c0 1-1 2-1 3h-1v1h-2L98 96l-29 29-27 28-10 10c2 6 4 11 6 16s3 9 4 13c5 3 11 7 17 11s13 9 20 15c13 10 19 23 20 36 2 14 0 28-2 40-1 6-2 12-3 17 0 4 0 8 1 11 2 4 7 5 19 3 13-2 33-9 63-22-3-4-6-8-10-13v-1c-20-25-48-63-58-88v-2c-3-7-3-12-2-17s4-9 10-11c18-6 29-12 35-17 5-5 5-10 4-15-2-6-7-13-12-21-2-3-4-5-6-9-2-3-4-6-5-9-3-5-6-11-9-17-2-6-5-13-6-20v-4l1-1c0-1 1-1 2-2 1 0 2-1 3-1h5c4 1 11 2 17 5 4 1 7 3 10 6l-1-4 2 4c1 1 2 2 3 2 2 0 5-1 7-1l9 3c1 1 2 2 4 3 1 1 2 3 2 4h1c0 1 1 3 1 4 1 2 1 3 1 5 1 2 1 5 0 8l-3 6c1 2 1 4 2 7s2 6 2 9c1 3 1 6 1 9 1 3 1 7 1 10 0 2-1 4-2 5-2 1-3 2-5 2s-4-1-5-2c-1-2-2-3-2-5v-10c0-3 0-5-1-7 0-3-1-5-2-8v-1h-1l-1-6-1-1c-1-1-1-2-1-2v-2l-5-16h-1c-3 1-5 1-6 0-2-1-3-2-4-3-3-3-6-5-10-7-3-1-5-2-8-3 3 8 6 14 9 21 4 7 9 14 13 20v1c3 4 5 8 8 12 2 4 4 8 5 12 4 9 3 18-5 26-7 8-20 15-42 23-1 0-1 1-1 2-1 2 0 5 1 9l1 1c4 11 13 26 23 41s23 31 32 44l9 12c3 3 5 6 7 9v1c1 1 1 3 0 5 0 1-2 3-3 4-36 16-61 24-77 26-17 2-26-2-30-11-2-5-2-10-2-16s1-12 2-19c4-22 8-48-12-64-6-5-12-9-17-12-3-3-6-5-8-6 0 3 0 5-1 7-1 5-3 8-6 9-4 2-9 1-14-2-4-3-10-8-14-13-5-5-8-11-10-16s-2-10 0-13 6-5 13-3c3 0 7 2 12 4l-2-4c-1-3-3-8-5-13l-1-3 1-1c2-3 5-8 11-14 7-9 18-20 29-32l29-29c8-7 14-13 16-14l1-1h1zm7 11zm56 20c-1 0-1-1-1-1l1 1zm1-10 2-2v-6l-1-1c0-1 0-1-1-2h-1c-1-1-2-1-3-1h-2l6 12zM35 217l-1-3v-3h3l-2 6zM151 2c10-2 19-2 28-1 10 1 19 4 27 8 10 5 19 12 27 21 7 8 13 18 17 29s5 23 5 34c-1 12-4 23-9 33l-2 3-2-2-9-4-2-1 1-3c4-8 6-17 7-27 1-9 0-19-4-28-3-9-8-17-14-24s-13-13-22-17c-7-3-14-6-22-7-7-1-15-1-23 1h-3v-3l-2-9-1-3h3zm9 44c4-1 9-1 13 0 5 0 9 2 13 4 5 2 9 5 13 10 4 4 6 8 8 14 2 5 3 11 2 16 0 6-1 11-4 16l-1 3-3-2-8-4-3-1 1-3c2-3 3-6 3-10 0-3 0-7-1-10-2-4-3-7-6-9-2-3-5-5-8-6-2-2-5-3-8-3h-8l-3 1-1-3-2-9v-3l3-1zm-5-22c7-1 14-2 21-1s14 3 20 6c8 4 14 9 20 16 5 6 10 13 13 22 2 8 4 16 3 25-1 8-3 16-7 24v1l-2 1-2-1-8-4-4-2 3-2c2-6 4-12 5-18 0-7-1-13-3-19-2-7-5-12-10-17-4-5-9-9-15-12-5-2-10-4-15-4-5-1-10-1-16 0l-3 1v-3l-2-10-1-3h3zM34 211c0-2-1-6-3-11-7-4-12-7-15-9-3-1-4-1-4-1-1 0 0 1 1 2 2 3 5 7 8 11l9 9 4 2v-3z" style="fill:#6e248d"/></svg>