<svg xmlns="http://www.w3.org/2000/svg" xml:space="preserve" width="22" height="22" style="shape-rendering:geometricPrecision;text-rendering:geometricPrecision;image-rendering:optimizeQuality;fill-rule:evenodd;clip-rule:evenodd" viewBox="0 0 41 41"><defs><clipPath id="id0"><path d="M20.56-.03c11.34 0 20.43 9.09 20.43 20.43S31.9 40.95 20.56 40.95.01 31.74.01 20.4 9.22-.03 20.56-.03z"/></clipPath><style>.fil2{fill:none}.fil1{fill:#fff;fill-rule:nonzero}</style></defs><g id="Layer_x0020_1"><path d="M20.56-.03c11.34 0 20.43 9.09 20.43 20.43S31.9 40.95 20.56 40.95.01 31.74.01 20.4 9.22-.03 20.56-.03z" style="fill:#d73c2c"/><g style="clip-path:url(#id0)"><path id="_1" class="fil1" d="M15.36 28.31c-.94.83-2.6.71-3.42-.23-.95-1.06-.83-2.6.11-3.55l13.59-11.92c1.06-.95 2.6-.83 3.54.23.95 1.06.83 2.6-.24 3.54L15.36 28.31z"/><path class="fil1" d="M28.94 24.53c1.07.95 1.19 2.49.24 3.55-.94.94-2.48 1.06-3.54.23L12.05 16.38c-.94-.94-1.06-2.48-.11-3.54.82-1.06 2.48-1.18 3.42-.23l13.58 11.92z"/></g><path class="fil2" d="M20.56-.03c11.34 0 20.43 9.09 20.43 20.43S31.9 40.95 20.56 40.95.01 31.74.01 20.4 9.22-.03 20.56-.03z"/><path class="fil2" d="M20.56-.03c11.34 0 20.43 9.09 20.43 20.43S31.9 40.95 20.56 40.95.01 31.74.01 20.4 9.22-.03 20.56-.03z"/></g></svg>