<svg xmlns="http://www.w3.org/2000/svg" xml:space="preserve" width="25" height="19" style="shape-rendering:geometricPrecision;text-rendering:geometricPrecision;image-rendering:optimizeQuality;fill-rule:evenodd;clip-rule:evenodd"><path d="M4.4 8.41c.79 0 1.53.26 2.13.69l3.92-3.14c-.16-.44-.25-.92-.25-1.42 0-1.13.46-2.16 1.21-2.91.74-.74 1.77-1.2 2.91-1.2 1.13 0 2.16.46 2.9 1.2.75.75 1.21 1.78 1.21 2.91 0 1.14-.46 2.17-1.21 2.91-.74.74-1.77 1.2-2.9 1.2-1.08 0-2.06-.41-2.79-1.09l-3.8 3.05c.17.39.27.82.29 1.27l9.9 2.26c.16-.43.42-.82.74-1.14.59-.6 1.41-.96 2.31-.96.9 0 1.71.36 2.31.96.59.59.95 1.4.95 2.3 0 .91-.36 1.73-.95 2.31-.6.59-1.41.96-2.31.96-.9 0-1.72-.37-2.31-.96-.41-.41-.71-.93-.86-1.51L7.59 13.76c-.17.31-.38.6-.63.85a3.62 3.62 0 0 1-5.12 0l-.01-.01a3.58 3.58 0 0 1-1.06-2.56c0-1 .4-1.9 1.06-2.56.66-.66 1.57-1.07 2.57-1.07zM15.85 3c-.39-.39-.94-.64-1.54-.64-.59 0-1.14.25-1.54.64-.39.4-.63.94-.63 1.54 0 .6.24 1.15.63 1.54.4.4.95.64 1.54.64.6 0 1.15-.24 1.54-.64.4-.39.64-.94.64-1.54 0-.6-.24-1.14-.64-1.54zm6.06 11.37a1.34 1.34 0 0 0-.94-.39c-.37 0-.71.15-.94.39-.25.24-.39.57-.39.93 0 .37.14.71.39.95.23.24.57.39.94.39.36 0 .7-.15.94-.39.24-.24.39-.58.39-.95 0-.36-.15-.69-.39-.93zM5.6 10.84c-.31-.3-.73-.5-1.2-.5s-.9.2-1.2.5c-.31.3-.5.73-.5 1.2s.19.89.49 1.2h.01a1.719 1.719 0 0 0 2.4 0c.3-.31.49-.73.49-1.2s-.19-.89-.49-1.2z" style="fill:#1d1819;fill-rule:nonzero"/></svg>