<svg width="21" height="21" fill="none" xmlns="http://www.w3.org/2000/svg"><path d="M.526 5.13c0-.943.765-1.708 1.708-1.708h5.553c.943 0 1.708.765 1.708 1.709v1.708c0 .944-.765 1.708-1.708 1.708H2.234A1.708 1.708 0 0 1 .526 6.84V5.131z" fill="#13A98B"/><path d="M1.807 7.266h.441v-1.06h.34c.524 0 .962-.196.962-.76 0-.536-.368-.742-.934-.742h-.809v2.562zm.441-1.444v-.735h.322c.273 0 .535.055.535.359s-.262.376-.549.376h-.308zM3.943 7.266h.878c.647 0 1.368-.383 1.368-1.281 0-.963-.72-1.281-1.368-1.281h-.878v2.562zm.44-.398V5.095h.368c.455 0 .966.155.966.89 0 .691-.511.883-.966.883h-.367zM6.615 7.266h.44V6.188h1.092v-.384H7.056v-.702h1.158v-.398h-1.6v2.562z" fill="#fff"/><path fill-rule="evenodd" clip-rule="evenodd" d="M4.797 9.829c.236 0 .427.19.427.427v8.541a1.28 1.28 0 0 0 1.281 1.282h11.959a1.281 1.281 0 0 0 1.28-1.282v-3.416a.427.427 0 1 1 .855 0v3.416a2.135 2.135 0 0 1-2.135 2.136H6.505a2.135 2.135 0 0 1-2.135-2.136v-8.541c0-.236.191-.427.427-.427zM20.172 13.245a.427.427 0 0 0 .427-.427V1.998c0-.483-.288-.892-.69-1.16-.403-.268-.923-.405-1.445-.405H6.505c-.522 0-1.042.137-1.445.405-.402.268-.69.677-.69 1.16v1.424a.427.427 0 0 0 .854 0V2c0-.12.072-.291.31-.45.239-.16.587-.262.971-.262h11.959c.384 0 .732.103.97.262.239.159.31.33.31.45v10.82c0 .235.192.426.428.426z" fill="#13A98B"/><path fill-rule="evenodd" clip-rule="evenodd" d="M7.912 10.808a.427.427 0 0 1 .604 0l3.968 3.969 3.97-3.97a.427.427 0 1 1 .603.605l-4.27 4.27a.427.427 0 0 1-.605 0l-4.27-4.27a.427.427 0 0 1 0-.604z" fill="#13A98B"/><path fill-rule="evenodd" clip-rule="evenodd" d="M12.485 4.704c.235 0 .427.19.427.427v10.25a.427.427 0 1 1-.855 0V5.13c0-.236.192-.427.428-.427z" fill="#13A98B"/></svg>