<svg xmlns="http://www.w3.org/2000/svg" width="20" height="18" fill="none"><path fill-rule="evenodd" d="M14.262.25a5.483 5.483 0 0 0-3.88 1.608L10 2.24l-.382-.382a5.49 5.49 0 0 0-7.761-.001 5.488 5.488 0 0 0 0 7.761L4.239 12H6.36L2.918 8.557a3.987 3.987 0 1 1 5.638-5.639l.913.913a.75.75 0 0 0 1.061 0l.913-.913a3.973 3.973 0 0 1 4.345-.865 3.98 3.98 0 0 1 1.293.865 3.99 3.99 0 0 1 .865 1.294 3.995 3.995 0 0 1 0 3.052 3.994 3.994 0 0 1-.865 1.294L10 15.639v1.811a.75.75 0 0 0 .53-.22l7.612-7.612a5.476 5.476 0 0 0 1.608-3.88 5.483 5.483 0 0 0-1.608-3.88A5.487 5.487 0 0 0 14.262.25z" fill="#1db597"/></svg>