<svg xmlns="http://www.w3.org/2000/svg" xml:space="preserve" width="196.728" height="196.728" style="clip-rule:evenodd;fill-rule:evenodd;image-rendering:optimizeQuality;shape-rendering:geometricPrecision;text-rendering:geometricPrecision" viewBox="0 0 5205 5205"><path d="M8861 3812c719 0 1370 291 1841 762s762 1122 762 1840v2060l-217-99c-487-221-658-80-891 113-285 234-642 529-1495 529-718 0-1369-292-1840-762-471-471-762-1122-762-1841 0-718 291-1369 762-1840s1122-762 1840-762zM7776 6177c131 0 237 106 237 237s-106 238-237 238-237-107-237-238 106-237 237-237zm2170 0c131 0 238 106 238 237s-107 238-238 238-237-107-237-238 106-237 237-237zm-1085 0c131 0 238 106 238 237s-107 238-238 238-237-107-237-238 106-237 237-237zm1623-1385c-415-415-989-672-1623-672-633 0-1207 257-1622 672s-672 989-672 1622c0 634 257 1208 672 1623s989 672 1622 672c744 0 1053-255 1300-459 280-231 496-408 995-242V6414c0-633-257-1207-672-1622z" style="fill:#6e248d;fill-rule:nonzero" transform="translate(-6259 -3812)"/></svg>