<?xml version="1.0" encoding="UTF-8"?>
<!DOCTYPE svg PUBLIC "-//W3C//DTD SVG 1.1//EN" "http://www.w3.org/Graphics/SVG/1.1/DTD/svg11.dtd">
<!-- Creator: CorelDRAW 2018 (64-Bit) -->
<svg xmlns="http://www.w3.org/2000/svg" xml:space="preserve" width="128px" height="143px" version="1.1" style="shape-rendering:geometricPrecision; text-rendering:geometricPrecision; image-rendering:optimizeQuality; fill-rule:evenodd; clip-rule:evenodd"
viewBox="0 0 128 143"
 xmlns:xlink="http://www.w3.org/1999/xlink">
 <defs>
  <style type="text/css">
   <![CDATA[
    .fil1 {fill:#FF6C5C}
    .fil0 {fill:white}
   ]]>
  </style>
 </defs>
 <g id="Layer_x0020_1">
  <metadata id="CorelCorpID_0Corel-Layer"/>
  <path class="fil0" d="M33.8 116.56l25.14 -14.11c2.05,-1.15 4.43,-1.15 6.48,0l25.13 14.11c2.02,1.13 4.34,1.16 6.38,0.06 2.04,-1.11 3.21,-3.01 3.21,-5.24l0 -77.95c0,-3.33 -2.86,-6.03 -6.35,-6.03l-0.67 0 0 20.23 -7.79 -5.52 -7.81 5.52 0 -18.78 7.81 0 0 -1.45 -7.81 0 -4.76 0 -28.3 0c0.09,0.77 0.14,1.56 0.14,2.35 0,11.26 -9.13,20.4 -20.39,20.4l0 61.23c0,2.23 1.17,4.13 3.2,5.24 2.04,1.1 4.38,1.07 6.39,-0.06l0 0z"/>
  <path class="fil1" d="M24.21 11.91c9.86,0 17.85,7.99 17.85,17.84 0,9.87 -7.99,17.87 -17.85,17.87 -9.86,0 -17.86,-8 -17.86,-17.87 0,-9.85 8,-17.84 17.86,-17.84zm2.64 21.4l0 -14.93 -5.32 0 0 14.93 5.32 0zm0.45 4.82c0,-1.65 -1.4,-2.98 -3.11,-2.98 -1.71,0 -3.07,1.37 -3.07,3.01 0,1.68 1.42,2.98 3.07,2.98 1.71,0 3.11,-1.33 3.11,-3.01l0 0z"/>
 </g>
</svg>
