<svg xmlns="http://www.w3.org/2000/svg" xml:space="preserve" width="14" height="22" style="shape-rendering:geometricPrecision;text-rendering:geometricPrecision;image-rendering:optimizeQuality;fill-rule:evenodd;clip-rule:evenodd" viewBox="0 0 21 32"><path d="M19.6 28.03H1.41c-.71 0-1.3.59-1.3 1.3 0 .71.59 1.3 1.3 1.3H19.6c.82 0 1.3-.59 1.3-1.3 0-.71-.48-1.3-1.3-1.3zM9.2 15.28V2.4c0-.71.59-1.3 1.3-1.3.71 0 1.3.59 1.3 1.3v12.88c0 .82-.59 1.3-1.3 1.3-.71 0-1.3-.48-1.3-1.3zm-3.54 1.06 4.84 4.96 4.96-4.96c.47-.47 1.3-.47 1.77 0 .59.47.59 1.3 0 1.89l-5.78 5.79c-.48.47-1.3.47-1.89 0l-5.79-5.79c-.47-.59-.47-1.42 0-1.89s1.3-.47 1.89 0z" style="fill:#1a1a1a"/></svg>