<svg xmlns="http://www.w3.org/2000/svg" xml:space="preserve" width="23" height="23" style="clip-rule:evenodd;fill-rule:evenodd;image-rendering:optimizeQuality;shape-rendering:geometricPrecision;text-rendering:geometricPrecision" viewBox="0 0 445.179 756.222"><path d="M7366 9647c9 0 18 2 25 5 8 3 16 8 22 14s11 14 14 22 5 16 5 25v140c0 9-2 18-5 26s-8 15-14 21-14 11-22 14c-7 4-16 5-25 5s-17-1-25-5c-7-2-13-6-19-11l-2-3c-12-12-20-28-20-47v-140c0-9 2-17 5-25 4-8 8-16 15-22 6-6 13-11 21-14s16-5 25-5zm-72 369h62v-41c-13-1-25-4-36-9-13-6-25-14-35-24l-1-1c-10-11-18-23-24-36-5-14-8-28-8-44v-4h19v4c0 13 3 25 8 36 4 11 11 21 19 30l1 1c9 9 19 16 31 21 11 4 23 7 36 7s25-3 36-7c12-5 22-12 31-21s16-19 21-31c4-11 7-23 7-36v-4h20v4c0 16-3 30-9 44s-14 26-25 37c-10 10-21 18-34 24-12 5-24 8-37 9v41h67v20h-153v-20zm72-349c-6 0-12 1-17 3-6 3-11 6-16 10-4 5-7 10-10 15-2 6-3 12-3 18v140c0 7 1 13 3 18 3 6 6 11 10 15l1 1c9 8 20 13 32 13 6 0 12-1 18-4 5-2 11-6 15-10s8-9 10-15c2-5 3-11 3-18v-140c0-6-1-12-3-18-2-5-6-10-10-15-4-4-10-7-15-10-6-2-12-3-18-3z" style="fill:#fff;fill-rule:nonzero" transform="matrix(1.94401 0 0 1.94401 -14097.994 -18753.909)"/></svg>