<?xml version="1.0" encoding="UTF-8"?>
<!DOCTYPE svg PUBLIC "-//W3C//DTD SVG 1.1//EN" "http://www.w3.org/Graphics/SVG/1.1/DTD/svg11.dtd">
<!-- Creator: CorelDRAW X7 -->
<svg xmlns="http://www.w3.org/2000/svg" xml:space="preserve" width="22" height="22" version="1.1" style="shape-rendering:geometricPrecision; text-rendering:geometricPrecision; image-rendering:optimizeQuality; fill-rule:evenodd; clip-rule:evenodd"
viewBox="0 0 3031 3979"
 xmlns:xlink="http://www.w3.org/1999/xlink">
 <defs>
  <style type="text/css">
   <![CDATA[
    .fil0 {fill:white;fill-rule:nonzero}
   ]]>
  </style>
 </defs>
 <g id="Layer_x0020_1">
  <metadata id="CorelCorpID_0Corel-Layer"/>
  <g>
   <path class="fil0" d="M648 2965c-4,-28 1,-58 19,-83l1751 -2501 -164 -114 -1888 2698 509 356 1952 -2789c17,-25 44,-41 72,-46 27,-4 58,2 83,19l6 4 1 1c21,18 35,42 39,67 5,28 -1,58 -19,83l-4 6 0 0 -2011 2873 0 0c-6,9 -14,17 -23,24l-1 1c-8,6 -16,11 -25,14l-782 388 0 1 -1 0 -1 1c-9,3 -18,7 -29,9l0 0c-10,2 -21,2 -31,1l0 0c-31,-4 -58,-19 -75,-41 -18,-23 -27,-52 -24,-82l97 -867 0 -63 21 0 10 -20 6 0 1999 -2855 0 -1 1 -1 0 0c18,-25 44,-40 72,-45 27,-5 58,1 83,18l344 241 2 1 1 1c24,18 40,44 44,71 5,27 -1,58 -18,83l-1815 2592c-17,25 -44,41 -72,46 -28,4 -58,-2 -83,-19l0 0c-25,-18 -41,-44 -46,-72zm-528 -40l8 -17 -8 17zm126 752l438 -218 -383 -268 -55 486z"/>
  </g>
 </g>
</svg>
