<svg xmlns="http://www.w3.org/2000/svg" width="54.719" height="111.039" version="1.0" viewBox="0 0 1448 2938" shape-rendering="geometricPrecision" text-rendering="geometricPrecision" image-rendering="optimizeQuality" fill-rule="evenodd" clip-rule="evenodd"><path d="M625 828c24 24 39 58 39 95s-15 71-39 96c-25 24-59 39-96 39s-71-15-95-39c-25-25-40-59-40-96s15-71 40-95c24-25 58-40 95-40s71 15 96 40zm119-517c0-59-24-113-63-152-39-38-93-62-152-62s-113 24-152 62c-38 39-63 93-63 152 0 60 24 113 63 152s93 63 152 63 113-24 152-63 63-92 63-152zm4-219c56 56 91 134 91 219 0 86-35 163-91 219s-134 91-219 91-163-35-219-91-91-133-91-219c0-85 35-163 91-219S444 1 529 1s163 35 219 91zm615 2151c39 30 65 70 77 113 10 33 12 68 6 102s-20 67-41 95c-27 36-66 65-115 79L284 2927c-50 15-98 12-141-4-32-13-61-33-85-58-23-25-41-55-51-89-13-44-12-92 6-140l266-707c5-13 7-27 8-40 0-14-1-28-5-41l-136-463-1-2c-10-38-11-77-2-114 10-38 29-73 57-102s61-48 96-58c39-12 79-12 117-3 38 10 73 29 102 57 26 26 46 58 58 97l135 463c4 13 10 25 18 37l2 2c7 10 16 19 27 27l605 452 3 2zm-14 139c-7-23-21-46-44-63l-2-2-605-452c-19-13-35-29-48-48l-2-3c-13-19-24-41-31-64l-136-463c-6-23-18-41-32-56-17-16-37-27-59-32-22-6-45-5-67 1-20 6-39 17-55 33-16 17-27 37-32 59-5 21-5 43 1 65v1l136 463c7 23 10 47 9 71s-6 48-14 70l-266 707c-10 28-11 56-4 80 6 19 16 37 30 51 13 15 30 27 49 34 24 9 52 10 80 2l1006-295c28-8 50-25 66-45 12-16 20-35 23-54 4-20 3-40-3-60zM145 1383c-6-25 9-50 33-57l-33 57z" style="fill:#1abc9c;fill-rule:nonzero"/><path d="M695 2481c-248 15-364-230-470-182L63 2622c-32 84 86 216 172 191l867-254c9-3 17-6 25-11-123-175-354-72-432-67z" fill="#1abc9c"/></svg>