<svg xmlns="http://www.w3.org/2000/svg" xml:space="preserve" width="238.719" height="238.719" version="1.0" style="shape-rendering:geometricPrecision;text-rendering:geometricPrecision;image-rendering:optimizeQuality;fill-rule:evenodd;clip-rule:evenodd" viewBox="0 0 6316 6316"><defs><radialGradient id="a" gradientUnits="userSpaceOnUse" gradientTransform="translate(-3537 -631) scale(1.66666)" cx="5305.82" cy="947.12" r="558.8" fx="5305.82" fy="947.12"><stop offset="0" style="stop-opacity:1;stop-color:#6ff7a8"/><stop offset=".439" style="stop-opacity:1;stop-color:#4bd284"/><stop offset="1" style="stop-opacity:1;stop-color:#27ae60"/></radialGradient></defs><circle cx="3158" cy="3158" r="3158" style="fill:url(#a)"/><path d="M1172 3129c311 69 583 205 822 393 115 89 221 190 321 301 1003-1699 2005-2282 2645-2272-756 460-1721 1794-2338 2958l-238 448c-374-765-669-927-1494-1110l282-718z" style="fill:#2980b9;fill-rule:nonzero;fill-opacity:.4"/><path d="M1156 3027c291 65 545 191 769 367 107 84 206 179 300 282 1025-1589 2554-2138 2534-2126-706 430-1670 1680-2247 2768l-223 419-264-394c-134-201-282-372-449-502-160-126-454-231-658-276l238-538z" style="fill:#fff;fill-rule:nonzero"/></svg>