<svg width="14" height="14" viewBox="0 0 21 28" fill="none" xmlns="http://www.w3.org/2000/svg"><path d="M18.725 25.498H1.195c-.797 0-1.195.399-1.195 1.196 0 .797.398 1.195 1.195 1.195h17.531c.796 0 1.195-.398 1.195-1.195.398-.399-.399-1.196-1.196-1.196zm-9.96-11.952V1.196C8.765.397 9.163 0 9.96 0s1.195.398 1.195 1.195v12.35c0 .798-.398 1.196-1.195 1.196-.398 0-1.195-.398-1.195-1.195zm-3.187.797 4.78 4.78 4.782-4.78c.398-.399 1.195-.399 1.992 0 .398.398.398 1.195 0 1.992l-5.578 5.578c-.398.398-1.195.398-1.992 0l-5.578-5.578c-.398-.399-.398-1.195 0-1.992.399-.399 1.195-.399 1.594 0z" fill="#fff"/></svg>