<svg xmlns="http://www.w3.org/2000/svg" xml:space="preserve" width="64.019" height="64.019" style="clip-rule:evenodd;fill-rule:evenodd;image-rendering:optimizeQuality;shape-rendering:geometricPrecision;text-rendering:geometricPrecision" viewBox="0 0 1693.505 1693.505"><defs><linearGradient id="a" gradientUnits="userSpaceOnUse" x1=".18" y1="664.63" x2="1329.08" y2="664.63"><stop offset="0" style="stop-opacity:1;stop-color:#1abc9c"/><stop offset="1" style="stop-opacity:1;stop-color:#159aa1"/></linearGradient></defs><path d="M665 0c367 0 664 298 664 665s-297 664-664 664S0 1032 0 665 298 0 665 0z" style="fill:url(#a);fill-opacity:.8" transform="scale(1.27427)"/><path d="M892 435zM603 676zm103 260zm2-1zm12-13zm-99-295zm233-136L736 775c-8 13-6 45 23 43l27-21 130-316v-12l-2-8 1-1-9-14-14-11-3-1-33-3-405 91-23 11-3 3-6 8-4 34 2 7 9 12 15 9 162 70h1l66 250h1l5 6 25 6 5-2 2-1 12-13 1-16-69-261-11-8-4-3-16-7-139-60 375-84z" style="fill:#fff" transform="scale(1.27427)"/></svg>