<svg xmlns="http://www.w3.org/2000/svg" width="64.959" height="61.76" version="1.0" viewBox="0 0 1719 1634" shape-rendering="geometricPrecision" text-rendering="geometricPrecision" image-rendering="optimizeQuality" fill-rule="evenodd" clip-rule="evenodd"><path d="M859 1636c-26 0-47-22-47-48s21-48 47-48h811c26 0 48 22 48 48s-22 48-48 48H859zM1231 68c22-22 49-40 77-51 29-12 60-19 92-19 15 0 31 2 46 5s30 7 45 14c15 6 28 13 41 22 14 8 26 18 37 29 10 11 20 23 29 36s16 27 22 42 11 30 14 44c3 16 5 31 5 47s-2 31-5 47c-3 14-8 29-14 44s-13 29-22 42-19 25-29 36L443 1532c-7 6-15 11-24 13l-359 89c-25 7-51-9-58-34-2-8-1-16 0-23l91-361c2-8 6-16 12-22L1231 68zm114 36c-17 8-33 18-47 32L182 1252l-68 271 271-68L1501 338c7-7 13-14 18-21 5-8 10-16 13-25 4-8 7-17 8-27 2-9 3-19 3-28s-1-19-3-28c-1-10-4-19-8-27-3-8-8-17-13-25-5-7-11-15-18-21-7-7-14-13-22-18-7-6-16-10-24-14-8-3-18-6-27-8-9-1-19-2-28-2-19 0-38 3-55 10zm-35 991c-27 0-48-21-48-47 0-27 21-48 48-48h360c26 0 48 21 48 48 0 26-22 47-48 47h-360z" fill="#1abc9c" fill-rule="nonzero"/></svg>