<svg width="19" height="19" fill="none" xmlns="http://www.w3.org/2000/svg"><path fill-rule="evenodd" clip-rule="evenodd" d="M15.52 1.426a1.453 1.453 0 0 1 2.055 2.054l-8.648 8.648-2.74.685.685-2.74 8.648-8.647zM16.547 0c-.65 0-1.274.258-1.734.718L6.067 9.464a.5.5 0 0 0-.131.232l-.921 3.683a.5.5 0 0 0 .606.606l3.683-.92a.5.5 0 0 0 .232-.132l8.746-8.746A2.453 2.453 0 0 0 16.547 0zM2.277 2A2.278 2.278 0 0 0 0 4.278v12.444A2.278 2.278 0 0 0 2.278 19h12.444A2.278 2.278 0 0 0 17 16.722V10.5a.5.5 0 0 0-1 0v6.222A1.277 1.277 0 0 1 14.722 18H2.278A1.278 1.278 0 0 1 1 16.722V4.278A1.278 1.278 0 0 1 2.278 3H8.5a.5.5 0 0 0 0-1H2.278z" fill="#1DB597"/></svg>