<?xml version="1.0" encoding="UTF-8" standalone="no"?>
<svg
   xmlns:dc="http://purl.org/dc/elements/1.1/"
   xmlns:cc="http://creativecommons.org/ns#"
   xmlns:rdf="http://www.w3.org/1999/02/22-rdf-syntax-ns#"
   xmlns:svg="http://www.w3.org/2000/svg"
   xmlns="http://www.w3.org/2000/svg"
   xmlns:xlink="http://www.w3.org/1999/xlink"
   xmlns:sodipodi="http://sodipodi.sourceforge.net/DTD/sodipodi-0.dtd"
   xmlns:inkscape="http://www.inkscape.org/namespaces/inkscape"
   xml:space="preserve"
   width="15.359291mm"
   height="15.359291mm"
   version="1.1"
   style="clip-rule:evenodd;fill-rule:evenodd;image-rendering:optimizeQuality;shape-rendering:geometricPrecision;text-rendering:geometricPrecision"
   viewBox="0 0 1535.3181 1535.3181"
   id="svg134"
   sodipodi:docname="IconChecklist.svg"
   inkscape:version="1.0.1 (3bc2e813f5, 2020-09-07)"><metadata
   id="metadata138"><rdf:RDF><cc:Work
       rdf:about=""><dc:format>image/svg+xml</dc:format><dc:type
         rdf:resource="http://purl.org/dc/dcmitype/StillImage" /></cc:Work></rdf:RDF></metadata><sodipodi:namedview
   pagecolor="#ffffff"
   bordercolor="#666666"
   borderopacity="1"
   objecttolerance="10"
   gridtolerance="10"
   guidetolerance="10"
   inkscape:pageopacity="0"
   inkscape:pageshadow="2"
   inkscape:window-width="1920"
   inkscape:window-height="1001"
   id="namedview136"
   showgrid="false"
   inkscape:zoom="6.8257714"
   inkscape:cx="15.963235"
   inkscape:cy="32.94206"
   inkscape:window-x="-9"
   inkscape:window-y="-9"
   inkscape:window-maximized="1"
   inkscape:current-layer="svg134"
   inkscape:document-rotation="0" />
 <defs
   id="defs45">
  <style
   type="text/css"
   id="style2">
   <![CDATA[
    .fil5 {fill:none}
    .fil14 {fill:#663333}
    .fil4 {fill:#B36ECF}
    .fil10 {fill:#C190D4}
    .fil2 {fill:#C483DE}
    .fil11 {fill:#CEA0E4}
    .fil13 {fill:#DEC98A}
    .fil12 {fill:#E8D6A0}
    .fil6 {fill:#EDCF9A}
    .fil7 {fill:#F2D7A7}
    .fil15 {fill:white}
    .fil3 {fill:#1A1A1A;fill-opacity:0.200000}
    .fil1 {fill:#C483DE;fill-opacity:0.200000}
    .fil16 {fill:white;fill-opacity:0.200000}
    .fil0 {fill:#C483DE;fill-opacity:0.400000}
    .fil8 {fill:url(#id9)}
    .fil9 {fill:url(#id10)}
    .fil18 {fill:url(#id11);fill-rule:nonzero}
    .fil17 {fill:url(#id12);fill-rule:nonzero}
   ]]>
  </style>
    <clipPath
   id="id0">
     <path
   d="m 270,183 h 264 c 48,0 88,39 88,87 v 264 c 0,48 -40,88 -88,88 H 270 c -48,0 -87,-40 -87,-88 V 270 c 0,-48 39,-87 87,-87 z"
   id="path4" />
    </clipPath>
     <clipPath
   id="id1">
      <path
   d="m 276,203 h 252 c 40,0 73,33 73,73 v 252 c 0,40 -33,73 -73,73 H 276 c -40,0 -73,-33 -73,-73 V 276 c 0,-40 33,-73 73,-73 z"
   id="path7" />
     </clipPath>
     <clipPath
   id="id2">
      <path
   d="m 270,183 h 264 c 48,0 88,39 88,87 v 264 c 0,48 -40,88 -88,88 H 270 c -48,0 -87,-40 -87,-88 V 270 c 0,-48 39,-87 87,-87 z"
   id="path10" />
     </clipPath>
    <clipPath
   id="id3">
     <path
   d="m 139,206 90,-50 -33,-80 c -42,-9 -74,5 -95,40 z"
   id="path13" />
    </clipPath>
     <clipPath
   id="id4">
      <path
   d="M 215,164 185,93 c -35,-8 -63,1 -83,24 l 37,89 z"
   id="path16" />
     </clipPath>
     <clipPath
   id="id5">
      <path
   d="m 139,206 90,-50 -33,-80 c -42,-9 -74,5 -95,40 z"
   id="path19" />
     </clipPath>
    <clipPath
   id="id6">
     <path
   d="m 222,139 123,307 c 5,12 8,15 5,34 l -5,34 -5,35 c 0,3 -2,6 -5,7 -4,2 -7,1 -10,-1 L 298,533 C 276,516 261,511 251,485 L 128,180 Z"
   id="path22" />
    </clipPath>
     <clipPath
   id="id7">
      <path
   d="m 259,499 c 21,-33 51,-47 91,-40 2,5 2,11 0,21 l -5,34 -5,35 c 0,3 -2,6 -5,7 -4,2 -7,1 -10,-1 l -27,-22 c -17,-13 -30,-19 -39,-34 z"
   id="path25" />
     </clipPath>
     <clipPath
   id="id8">
      <path
   d="m 222,139 123,307 c 5,12 8,15 5,34 l -5,34 -5,35 c 0,3 -2,6 -5,7 -4,2 -7,1 -10,-1 L 298,533 C 276,516 261,511 251,485 L 128,180 Z"
   id="path28" />
     </clipPath>
  <linearGradient
   id="id9"
   gradientUnits="userSpaceOnUse"
   x1="96.339996"
   y1="194.19"
   x2="237.7"
   y2="194.19">
   <stop
   offset="0"
   style="stop-opacity:1; stop-color:#E6E6E6"
   id="stop31" />
   <stop
   offset="0.521569"
   style="stop-opacity:1; stop-color:#F3F3F3"
   id="stop33" />
   <stop
   offset="1"
   style="stop-opacity:1; stop-color:#C4C4C4"
   id="stop35" />
  </linearGradient>
  <linearGradient
   id="id10"
   gradientUnits="userSpaceOnUse"
   xlink:href="#id9"
   x1="106.9"
   y1="177.33"
   x2="248.25999"
   y2="177.33">
  </linearGradient>
  <linearGradient
   id="id11"
   gradientUnits="userSpaceOnUse"
   x1="442.06"
   y1="474.53"
   x2="576.59998"
   y2="474.53">
   <stop
   offset="0"
   style="stop-opacity:1; stop-color:#934DAF"
   id="stop39" />
   <stop
   offset="1"
   style="stop-opacity:1; stop-color:#CEA0E4"
   id="stop41" />
  </linearGradient>
  <linearGradient
   id="id12"
   gradientUnits="userSpaceOnUse"
   xlink:href="#id11"
   x1="442.06"
   y1="300.54999"
   x2="576.59998"
   y2="300.54999">
  </linearGradient>
 <linearGradient
   inkscape:collect="always"
   xlink:href="#id9"
   id="linearGradient963"
   gradientUnits="userSpaceOnUse"
   x1="96.339996"
   y1="194.19"
   x2="237.7"
   y2="194.19" /><linearGradient
   inkscape:collect="always"
   xlink:href="#id11"
   id="linearGradient965"
   gradientUnits="userSpaceOnUse"
   x1="442.06"
   y1="474.53"
   x2="576.59998"
   y2="474.53" /></defs>
 <g
   id="Layer_x0020_1"
   transform="matrix(1.9119777,0,0,1.9119777,-1.9119777,-1.9119777)">
  <metadata
   id="CorelCorpID_0Corel-Layer" />
  <g
   id="_582093767296">
   <path
   class="fil0"
   d="M 402,1 C 624,1 804,180 804,402 804,624 624,804 402,804 180,804 1,624 1,402 1,180 180,1 402,1 Z"
   id="path48" />
   <path
   class="fil1"
   d="M 402,85 C 578,85 720,227 720,402 720,578 578,720 402,720 227,720 85,578 85,402 85,227 227,85 402,85 Z"
   id="path50" />
   <path
   class="fil2"
   d="m 270,183 h 264 c 48,0 88,39 88,87 v 264 c 0,48 -40,88 -88,88 H 270 c -48,0 -87,-40 -87,-88 V 270 c 0,-48 39,-87 87,-87 z"
   id="path52" />
   <g
   clip-path="url(#id0)"
   id="g71">
    <g
   id="g57">
     <polygon
   id="1"
   class="fil3"
   points="243,85 81,260 255,494 350,458 " />
     <path
   class="fil4"
   d="m 276,203 h 252 c 40,0 73,33 73,73 v 252 c 0,40 -33,73 -73,73 H 276 c -40,0 -73,-33 -73,-73 V 276 c 0,-40 33,-73 73,-73 z"
   id="path55" />
    </g>
    <g
   clip-path="url(#id1)"
   id="g65">
     <g
   id="g63">
      <polygon
   id="polygon59"
   class="fil3"
   points="112,489 111,487 112,485 113,486 " />
      <polygon
   class="fil3"
   points="243,85 81,260 255,494 350,458 "
   id="polygon61" />
     </g>
    </g>
    <g
   clip-path="url(#id2)"
   id="g69">
     <path
   class="fil5"
   d="m 276,203 h 252 c 40,0 73,33 73,73 v 252 c 0,40 -33,73 -73,73 H 276 c -40,0 -73,-33 -73,-73 V 276 c 0,-40 33,-73 73,-73 z"
   id="path67" />
    </g>
   </g>
   <path
   class="fil5"
   d="m 270,183 h 264 c 48,0 88,39 88,87 v 264 c 0,48 -40,88 -88,88 H 270 c -48,0 -87,-40 -87,-88 V 270 c 0,-48 39,-87 87,-87 z"
   id="path73" />
   <path
   class="fil6"
   d="m 139,206 90,-50 -33,-80 c -42,-9 -74,5 -95,40 z"
   id="path75" />
   <g
   clip-path="url(#id3)"
   id="g92">
    <g
   id="g79">
     <path
   id="path77"
   class="fil7"
   d="m 128,223 91,-50 -34,-80 c -42,-9 -74,5 -94,40 z" />
    </g>
    <g
   clip-path="url(#id4)"
   id="g84">
     <g
   id="g82">
      <polygon
   id="2"
   class="fil8"
   points="236,124 96,186 147,264 238,215 "
   style="fill:url(#linearGradient963)" />
     </g>
    </g>
    <g
   clip-path="url(#id5)"
   id="g90">
     <path
   class="fil5"
   d="m 128,223 91,-50 -34,-80 c -42,-9 -74,5 -94,40 z"
   id="path86" />
     <polygon
   class="fil9"
   points="247,107 107,169 158,248 248,198 "
   id="polygon88"
   style="fill:url(#id10)" />
    </g>
   </g>
   <path
   class="fil5"
   d="m 139,206 90,-50 -33,-80 c -42,-9 -74,5 -95,40 z"
   id="path94" />
   <path
   class="fil10"
   d="m 222,139 123,307 c 5,12 8,15 5,34 l -5,34 -5,35 c 0,3 -2,6 -5,7 -4,2 -7,1 -10,-1 L 298,533 C 276,516 261,511 251,485 L 128,180 Z"
   id="path96" />
   <g
   clip-path="url(#id6)"
   id="g116">
    <g
   id="g102">
     <polygon
   id="polygon98"
   class="fil11"
   points="169,140 352,600 166,614 -31,236 44,60 " />
     <path
   class="fil12"
   d="m 267,600 -8,-101 c 21,-33 52,-47 92,-40 l 39,78 -63,84 z"
   id="path100" />
    </g>
    <g
   clip-path="url(#id7)"
   id="g108">
     <g
   id="g106">
      <polygon
   id="polygon104"
   class="fil13"
   points="169,140 352,600 166,614 -31,236 44,60 " />
     </g>
    </g>
    <g
   clip-path="url(#id8)"
   id="g114">
     <path
   class="fil5"
   d="m 267,600 -8,-101 c 21,-33 52,-47 92,-40 l 39,78 -63,84 z"
   id="path110" />
     <circle
   class="fil14"
   cx="335"
   cy="556"
   r="28"
   id="circle112" />
    </g>
   </g>
   <path
   class="fil5"
   d="m 222,139 123,307 c 5,12 8,15 5,34 l -5,34 -5,35 c 0,3 -2,6 -5,7 -4,2 -7,1 -10,-1 L 298,533 C 276,516 261,511 251,485 L 128,180 Z"
   id="path118" />
   <path
   class="fil15"
   d="m 449,260 h 68 c 11,0 20,9 20,21 v 67 c 0,11 -9,20 -20,20 h -68 c -11,0 -20,-9 -20,-20 v -67 c 0,-12 9,-21 20,-21 z"
   id="path120" />
   <path
   class="fil16"
   d="m 439,250 h 88 c 11,0 20,9 20,20 v 88 c 0,11 -9,21 -20,21 h -88 c -11,0 -20,-10 -20,-21 v -88 c 0,-11 9,-20 20,-20 z"
   id="path122" />
   <path
   class="fil15"
   d="m 449,436 h 68 c 11,0 20,9 20,20 v 68 c 0,11 -9,20 -20,20 h -68 c -11,0 -20,-9 -20,-20 v -68 c 0,-11 9,-20 20,-20 z"
   id="path124" />
   <polygon
   class="fil17"
   points="472,341 442,300 464,284 485,313 559,248 577,269 492,343 481,353 "
   id="polygon126"
   style="fill:url(#id12)" />
   <path
   class="fil16"
   d="m 439,426 h 88 c 11,0 20,9 20,20 v 88 c 0,11 -9,20 -20,20 h -88 c -11,0 -20,-9 -20,-20 v -88 c 0,-11 9,-20 20,-20 z"
   id="path128" />
   <polygon
   class="fil18"
   points="472,515 442,474 464,458 485,487 559,422 577,443 492,517 481,527 "
   id="polygon130"
   style="fill:url(#linearGradient965)" />
  </g>
 </g>
</svg>
