<svg xmlns="http://www.w3.org/2000/svg" width="76.479" height="94.719" version="1.0" viewBox="0 0 2024 2506" shape-rendering="geometricPrecision" text-rendering="geometricPrecision" image-rendering="optimizeQuality" fill-rule="evenodd" clip-rule="evenodd"><path d="M112 2150v1c0 31 6 61 17 89l1 2c12 29 30 56 53 79s49 41 78 53 61 18 93 18h1389c47 0 89-19 119-49h1c30-31 49-73 49-120v-316H354c-32 0-64 6-93 18s-55 30-78 53-41 50-53 79c-12 28-18 58-18 90v3zm-113 2V356c0-46 10-92 27-135 18-43 44-82 77-116 33-33 73-59 115-76 43-18 89-28 136-28h1389c78 0 148 32 199 83l3 3c49 51 79 120 79 196v1940c0 78-31 148-82 199l-2 2c-50 50-120 81-197 81H354c-46 0-93-10-135-27h-1c-42-18-82-44-115-77s-59-73-77-116l-1-2c-17-42-26-86-26-131zm113-262c31-29 67-52 106-68 43-18 89-28 136-28h1558V283c0-46-18-87-47-117l-3-3c-30-30-72-49-119-49H354c-32 0-64 6-93 18s-55 30-78 53-41 50-53 79c-12 28-18 60-18 92v1534z" fill="#1abc9c" fill-rule="nonzero"/></svg>