<svg width="12" height="12" fill="none" xmlns="http://www.w3.org/2000/svg"><path d="M6 0c3.307 0 6 2.692 6 6.003C12 9.308 9.307 12 6 12S0 9.308 0 6.003A6.009 6.009 0 0 1 6 0zm-.683 3.618a.806.806 0 0 0-.365.087.75.75 0 0 0-.325.359 3.87 3.87 0 0 0-.104.422c-.064.342-.098.897-.098 1.511 0 .585.034 1.117.087 1.465.005.005.07.393.139.526a.73.73 0 0 0 .642.394h.024c.173-.006.538-.156.538-.162.614-.255 1.825-1.048 2.311-1.575l.035-.034c.063-.064.145-.162.162-.186a.731.731 0 0 0-.012-.874c-.023-.023-.11-.121-.19-.202-.476-.51-1.715-1.343-2.364-1.598-.098-.04-.347-.127-.48-.133z" fill="#AB69C6"/></svg>