<svg width="38" height="32" viewBox="0 0 50 45" fill="none" xmlns="http://www.w3.org/2000/svg"><path d="M3.846 14.418v18.96c0 1.05.787 1.836 1.836 1.836H11.276c3.497 3.67 8.392 6.029 13.724 6.029 6.818 0 12.587-3.583 15.91-8.826.524.175 1.223.175 1.747.088a21.507 21.507 0 0 1-3.409 4.456v.087h-.087A20.268 20.268 0 0 1 25 42.816c-5.42 0-10.402-2.097-14.16-5.767H5.681c-2.098 0-3.759-1.572-3.759-3.67V4.982H0L2.885 0l2.884 4.98H3.846v9.438zm13.2-6.641h-.263l.612-2.534c.088-.525.437-.961.962-.961h13.286c.525 0 1.05.35 1.137.873l.699 3.67c0 .262.087.437.262.612.175.087.437.175.612.175h10.315c.874 0 1.486.786 1.486 1.66v28.747H44.23L47.115 45 50 40.02h-1.923V11.271c0-1.835-1.486-3.495-3.41-3.495H35.14l-.525-2.884a2.71 2.71 0 0 0-.786-1.573c-.7-.611-1.224-.96-2.186-.96H18.357c-1.399 0-2.535 1.135-2.798 2.533l-.699 2.884H8.392a.97.97 0 0 0-.962.96c0 .525.437.875.962.875h7.78c.524 0 .873-.35.873-.874v-.961zM25 13.282c-1.399 0-2.36.35-3.584.786-1.224.437-2.01 1.136-2.972 1.922-1.049 1.049-2.098 3.059-2.273 4.544-1.049 6.291 3.41 11.447 9.79 10.835 1.749-.175 2.71-.612 4.109-1.398 1.224-.787 2.797-2.622 3.234-3.932.088-.175.175-.35.35-.524.612-2.272.7-3.845 0-6.204-.088 0-.088-.088-.175-.088-.087-.087-.087-.262-.175-.35-.612-2.184-2.797-4.193-4.982-4.805A7.423 7.423 0 0 0 25 13.282zm0-1.835c1.399 0 2.797.35 4.108.873 2.535.787 4.896 3.146 5.857 5.593.175.087.262.262.35.436.961 3.059.874 5.156 0 8.214-.088.088-.175.175-.175.262l-.175.175c-.524 1.136-1.311 2.184-2.185 3.058-.874 1.049-2.098 1.748-3.322 2.36-2.622 1.048-6.119 1.223-8.741.087-2.623-1.136-4.633-3.233-5.77-5.855-.961-2.271-1.136-6.203 0-8.388.263-.699.612-1.398 1.05-2.097.35-.524.786-1.223 1.31-1.573 1.05-.874 2.186-1.835 3.585-2.272 1.31-.524 2.622-.873 4.108-.873z" fill="#fff"/></svg>