<?xml version="1.0" encoding="UTF-8"?>
<!DOCTYPE svg PUBLIC "-//W3C//DTD SVG 1.1//EN" "http://www.w3.org/Graphics/SVG/1.1/DTD/svg11.dtd">
<!-- Creator: CorelDRAW 2018 (64-Bit) -->
<svg xmlns="http://www.w3.org/2000/svg" xml:space="preserve" width="25px" height="19px" version="1.1" style="shape-rendering:geometricPrecision; text-rendering:geometricPrecision; image-rendering:optimizeQuality; fill-rule:evenodd; clip-rule:evenodd"
viewBox="0 0 25 19"
 xmlns:xlink="http://www.w3.org/1999/xlink"
 xmlns:dc="http://purl.org/dc/elements/1.1/"
 xmlns:cc="http://creativecommons.org/ns#"
 xmlns:rdf="http://www.w3.org/1999/02/22-rdf-syntax-ns#"
 xmlns:svg="http://www.w3.org/2000/svg"
 xmlns:sodipodi="http://sodipodi.sourceforge.net/DTD/sodipodi-0.dtd"
 xmlns:inkscape="http://www.inkscape.org/namespaces/inkscape"
 sodipodi:docname="IconShare.svg"
 inkscape:version="1.0.1 (3bc2e813f5, 2020-09-07)">
 <defs>
  <style type="text/css">
   <![CDATA[
    .fil0 {fill:#1D1819;fill-rule:nonzero}
   ]]>
  </style>
 </defs>
 <g id="Layer_x0020_1">
  <metadata id="CorelCorpID_0Corel-Layer"/>
  <sodipodi:namedview pagecolor="#ffffff" bordercolor="#666666" borderopacity="1" objecttolerance="10" gridtolerance="10" guidetolerance="10" inkscape:pageopacity="0" inkscape:pageshadow="2" inkscape:window-width="1920" inkscape:window-height="1001" id="namedview12" showgrid="false" inkscape:zoom="1.2968776" inkscape:cx="153.77279" inkscape:cy="78.521068" inkscape:window-x="-9" inkscape:window-y="-9" inkscape:window-maximized="1" inkscape:current-layer="svg10" inkscape:document-rotation="0">
   <sodipodi:guide position="-6.8440001e-05,1282.055" orientation="0,67.671449" id="guide10"/>
   <sodipodi:guide position="1790.4421,1282.055" orientation="52.311892,0" id="guide12"/>
   <sodipodi:guide position="1790.4421,-102.00602" orientation="0,-67.671449" id="guide14"/>
   <sodipodi:guide position="-6.8440001e-05,-102.00602" orientation="-52.311892,0" id="guide16"/>
   <sodipodi:guide position="-6.8440001e-05,1282.055" orientation="0,67.671449" id="guide18"/>
   <sodipodi:guide position="1790.4421,1282.055" orientation="52.311892,0" id="guide20"/>
   <sodipodi:guide position="1790.4421,-102.00602" orientation="0,-67.671449" id="guide22"/>
   <sodipodi:guide position="-6.8440001e-05,-102.00602" orientation="-52.311892,0" id="guide24"/>
  </sodipodi:namedview>
 </g>
 <g id="Layer_x0020_1_0">
  <metadata id="CorelCorpID_1Corel-Layer"/>
  <path id="path7" class="fil0" d="M4.4 8.41c0.79,0 1.53,0.26 2.13,0.69l3.92 -3.14c-0.16,-0.44 -0.25,-0.92 -0.25,-1.42 0,-1.13 0.46,-2.16 1.21,-2.91 0.74,-0.74 1.77,-1.2 2.91,-1.2 1.13,0 2.16,0.46 2.9,1.2 0.75,0.75 1.21,1.78 1.21,2.91 0,1.14 -0.46,2.17 -1.21,2.91 -0.74,0.74 -1.77,1.2 -2.9,1.2 -1.08,0 -2.06,-0.41 -2.79,-1.09l-3.8 3.05c0.17,0.39 0.27,0.82 0.29,1.27l9.9 2.26c0.16,-0.43 0.42,-0.82 0.74,-1.14 0.59,-0.6 1.41,-0.96 2.31,-0.96 0.9,0 1.71,0.36 2.31,0.96 0.59,0.59 0.95,1.4 0.95,2.3 0,0.91 -0.36,1.73 -0.95,2.31 -0.6,0.59 -1.41,0.96 -2.31,0.96 -0.9,0 -1.72,-0.37 -2.31,-0.96 -0.41,-0.41 -0.71,-0.93 -0.86,-1.51l-10.21 -2.34c-0.17,0.31 -0.38,0.6 -0.63,0.85l0 0c-0.66,0.65 -1.56,1.06 -2.56,1.06 -1,0 -1.91,-0.41 -2.56,-1.06l-0.01 -0.01c-0.66,-0.65 -1.06,-1.56 -1.06,-2.56 0,-1 0.4,-1.9 1.06,-2.56l0 0c0.66,-0.66 1.57,-1.07 2.57,-1.07zm11.45 -5.41c-0.39,-0.39 -0.94,-0.64 -1.54,-0.64 -0.59,0 -1.14,0.25 -1.54,0.64 -0.39,0.4 -0.63,0.94 -0.63,1.54 0,0.6 0.24,1.15 0.63,1.54 0.4,0.4 0.95,0.64 1.54,0.64 0.6,0 1.15,-0.24 1.54,-0.64 0.4,-0.39 0.64,-0.94 0.64,-1.54 0,-0.6 -0.24,-1.14 -0.64,-1.54zm6.06 11.37c-0.24,-0.24 -0.58,-0.39 -0.94,-0.39 -0.37,0 -0.71,0.15 -0.94,0.39 -0.25,0.24 -0.39,0.57 -0.39,0.93 0,0.37 0.14,0.71 0.39,0.95 0.23,0.24 0.57,0.39 0.94,0.39 0.36,0 0.7,-0.15 0.94,-0.39 0.24,-0.24 0.39,-0.58 0.39,-0.95 0,-0.36 -0.15,-0.69 -0.39,-0.93zm-16.31 -3.53c-0.31,-0.3 -0.73,-0.5 -1.2,-0.5 -0.47,0 -0.9,0.2 -1.2,0.5l0 0c-0.31,0.3 -0.5,0.73 -0.5,1.2 0,0.47 0.19,0.89 0.49,1.2l0.01 0c0.31,0.31 0.73,0.49 1.2,0.49 0.47,0 0.89,-0.19 1.2,-0.49l0 0c0.3,-0.31 0.49,-0.73 0.49,-1.2 0,-0.47 -0.19,-0.89 -0.49,-1.2z"/>
 </g>
</svg>
