<svg xmlns="http://www.w3.org/2000/svg" xml:space="preserve" width="231.614" height="285.816" style="clip-rule:evenodd;fill-rule:evenodd;image-rendering:optimizeQuality;shape-rendering:geometricPrecision;text-rendering:geometricPrecision" viewBox="0 0 6128 7562.084"><path d="M5711 3448c-54 0-104-22-139-57-36-36-58-85-58-139s23-103 58-139c36-36 85-58 139-58h3721c91 0 179 19 259 52 82 34 157 85 219 147s113 137 147 220c34 80 52 167 52 258v6208c0 61-8 120-23 177s-38 112-67 163c-30 51-66 98-108 139-42 42-91 78-144 108-53 31-109 54-165 68-57 15-116 23-174 22h-1c-59 0-118-9-175-25-56-15-111-39-164-70L7190 9398c-23-13-47-24-72-31-24-7-49-10-73-10s-49 3-73 10c-25 7-49 17-72 31l-1898 1124c-53 31-108 55-164 70-57 16-116 25-175 25-59 1-118-7-175-22-56-14-111-37-165-68-53-30-101-67-143-108s-79-88-108-139c-30-51-53-106-68-163s-23-116-23-177V3732c0-91 19-178 52-258 34-83 85-158 147-220s137-113 220-147c79-33 167-52 258-52 54 0 103 22 139 58 35 35 57 85 57 139s-22 103-58 139c-35 35-84 57-138 57-39 0-76 8-108 21-35 15-67 36-93 62s-47 58-61 92c-14 33-22 70-22 109v6208c0 27 4 53 10 77s15 46 27 66c12 21 27 41 44 57l1 1c17 17 38 33 61 46s48 23 72 29c23 7 47 10 71 10h1c22 0 46-4 70-11s49-18 71-31l1899-1124c54-31 110-56 167-71 58-17 118-25 177-25s119 8 177 25c57 16 114 40 167 71h1l1898 1124c23 14 47 24 71 31s48 11 71 11h1c23 0 47-3 71-10 24-6 48-16 72-29 22-13 43-29 61-46v-1c18-17 33-36 45-56l-1-1c12-20 22-43 28-66v-1c6-23 9-49 9-76V3732c0-39-8-76-21-108v-1c-14-34-36-66-62-92s-58-47-92-62c-25-10-54-17-83-20v1564l-120-90-545-406-544 406-121 90V3448zm1504 1533c55 95 106 171 157 226 46 51 92 86 139 104h1c47 17 104 22 174 13 76-9 166-34 272-73l197-71 122-45-22 128-37 206c-19 108-28 199-25 275 2 69 15 125 40 169 26 45 66 85 124 122h1c63 41 148 80 255 120l190 69 119 43-94 84-152 134c-84 74-150 140-197 201h-1c-42 56-69 107-79 155-9 50-4 105 16 170 22 72 62 156 119 256h1l104 181 66 113h-340c-110 0-201 7-275 23-67 14-120 37-159 69s-71 80-98 143c-30 70-53 160-73 273l-37 206-22 129-100-84-160-134-1-1c-83-70-157-123-223-158-61-32-116-49-167-49s-108 15-170 46c-67 35-143 88-230 162l-160 134-100 84-23-129-36-206c-20-109-42-198-70-266-26-64-57-112-96-145-38-33-90-57-158-72h-1c-74-17-167-25-281-25h-340l66-113 105-181c55-95 94-177 117-249 21-65 28-122 20-172-8-51-33-103-75-158h-1c-45-61-112-126-199-199l-160-134-100-84 123-45 196-71c104-38 187-75 250-115 58-37 101-76 126-120 26-44 41-99 44-169 4-76-5-169-25-282l-36-206-23-128 123 45 196 71c103 38 190 63 266 73 68 9 126 6 174-11s95-50 142-101c52-56 105-132 162-230l104-181 65-113 66 112zm158 697c-76-29-145-71-210-127-41-35-80-76-118-123-41 50-83 93-127 130-67 56-139 98-216 125s-158 39-243 38c-54 0-110-6-169-18 1 65-4 125-14 180-15 87-43 165-85 236-41 70-95 132-162 186-41 34-88 65-141 95 42 49 77 97 105 146 44 76 73 154 87 236 13 80 11 161-5 245-10 53-26 107-47 164 64 10 122 25 175 44 83 31 155 72 217 125s113 117 155 192c26 47 49 99 69 156 55-33 109-59 163-78 83-30 164-44 246-43 81 0 161 16 241 46h1c50 19 101 44 152 74 22-60 47-115 75-164 44-77 97-140 160-193 64-52 135-91 216-119 50-18 105-31 164-41-23-61-40-119-49-175-16-86-15-168 1-248 15-79 46-154 91-228 28-46 62-92 101-138-57-32-108-66-152-103-68-57-122-121-163-193h1c-41-72-67-149-80-233-9-53-13-109-12-169-64 12-123 18-180 18-88 0-169-14-246-43z" style="fill:#6e248d;fill-rule:nonzero" transform="translate(-3981 -3055)"/></svg>