<?xml version="1.0" encoding="UTF-8"?>
<!DOCTYPE svg PUBLIC "-//W3C//DTD SVG 1.1//EN" "http://www.w3.org/Graphics/SVG/1.1/DTD/svg11.dtd">
<!-- Creator: CorelDRAW 2018 (64-Bit) -->
<svg xmlns="http://www.w3.org/2000/svg" xml:space="preserve" width="41px" height="41px" version="1.1" style="shape-rendering:geometricPrecision; text-rendering:geometricPrecision; image-rendering:optimizeQuality; fill-rule:evenodd; clip-rule:evenodd"
viewBox="0 0 41 41"
 xmlns:xlink="http://www.w3.org/1999/xlink">
 <defs>
  <style type="text/css">
   <![CDATA[
    .fil2 {fill:none}
    .fil0 {fill:#D73C2C}
    .fil1 {fill:white;fill-rule:nonzero}
   ]]>
  </style>
   <clipPath id="id0">
    <path d="M20.56 -0.03c11.34,0 20.43,9.09 20.43,20.43 0,11.34 -9.09,20.55 -20.43,20.55 -11.34,0 -20.55,-9.21 -20.55,-20.55 0,-11.34 9.21,-20.43 20.55,-20.43z"/>
   </clipPath>
 </defs>
 <g id="Layer_x0020_1">
  <metadata id="CorelCorpID_0Corel-Layer"/>
  <path class="fil0" d="M20.56 -0.03c11.34,0 20.43,9.09 20.43,20.43 0,11.34 -9.09,20.55 -20.43,20.55 -11.34,0 -20.55,-9.21 -20.55,-20.55 0,-11.34 9.21,-20.43 20.55,-20.43z"/>
  <g>
  </g>
  <g style="clip-path:url(#id0)">
   <g>
    <path id="_1" class="fil1" d="M15.36 28.31c-0.94,0.83 -2.6,0.71 -3.42,-0.23 -0.95,-1.06 -0.83,-2.6 0.11,-3.55l13.59 -11.92c1.06,-0.95 2.6,-0.83 3.54,0.23 0.95,1.06 0.83,2.6 -0.24,3.54l-13.58 11.93z"/>
    <path class="fil1" d="M28.94 24.53c1.07,0.95 1.19,2.49 0.24,3.55 -0.94,0.94 -2.48,1.06 -3.54,0.23l-13.59 -11.93c-0.94,-0.94 -1.06,-2.48 -0.11,-3.54 0.82,-1.06 2.48,-1.18 3.42,-0.23l13.58 11.92z"/>
   </g>
  </g>
  <path class="fil2" d="M20.56 -0.03c11.34,0 20.43,9.09 20.43,20.43 0,11.34 -9.09,20.55 -20.43,20.55 -11.34,0 -20.55,-9.21 -20.55,-20.55 0,-11.34 9.21,-20.43 20.55,-20.43z"/>
  <path class="fil2" d="M20.56 -0.03c11.34,0 20.43,9.09 20.43,20.43 0,11.34 -9.09,20.55 -20.43,20.55 -11.34,0 -20.55,-9.21 -20.55,-20.55 0,-11.34 9.21,-20.43 20.55,-20.43z"/>
 </g>
</svg>
