<svg xmlns="http://www.w3.org/2000/svg" xml:space="preserve" width="48.133" height="48.267" style="clip-rule:evenodd;fill-rule:evenodd;image-rendering:optimizeQuality;shape-rendering:geometricPrecision;text-rendering:geometricPrecision" viewBox="0 0 1273.497 1277.054"><path d="M8843 7590c-4-3-5-9-2-14 3-4 9-5 14-2 24 16 43 38 57 64 13 25 20 54 20 84 0 49-20 94-52 126-33 33-77 53-127 53-49 0-94-20-127-53-32-32-52-77-52-126 0-19 3-37 8-54 6-18 14-34 24-49 17-24 39-43 64-56l1-1c25-12 53-20 82-20 6 0 10 5 10 10v191c0 5-4 10-10 10-5 0-10-5-10-10v-180c-22 1-44 7-63 17-23 12-43 29-57 50-10 13-17 28-22 44-5 15-7 31-7 48 0 44 18 83 46 112 29 29 69 47 113 47s84-18 113-47 46-68 46-112c0-27-6-52-18-74-12-23-29-43-51-58zm-90 191c14 0 25 11 25 25s-11 26-25 26-25-12-25-26 11-25 25-25z" style="fill:#d73c2c;fill-rule:nonzero" transform="matrix(3.55725 0 0 3.55725 -30499.897 -26828.81)"/></svg>