<?xml version="1.0" encoding="UTF-8"?>
<!DOCTYPE svg PUBLIC "-//W3C//DTD SVG 1.1//EN" "http://www.w3.org/Graphics/SVG/1.1/DTD/svg11.dtd">
<!-- Creator: CorelDRAW 2018 (64-Bit) -->
<svg xmlns="http://www.w3.org/2000/svg" xml:space="preserve" width="15px" height="15px" version="1.1" style="shape-rendering:geometricPrecision; text-rendering:geometricPrecision; image-rendering:optimizeQuality; fill-rule:evenodd; clip-rule:evenodd"
viewBox="0 0 15 15"
 xmlns:xlink="http://www.w3.org/1999/xlink">
 <defs>
  <style type="text/css">
   <![CDATA[
    .fil0 {fill:#6E248D;fill-opacity:0.400000}
   ]]>
  </style>
 </defs>
 <g id="Layer_x0020_1">
  <metadata id="CorelCorpID_0Corel-Layer"/>
  <path class="fil0" d="M2.84 0.02l9.29 0c1.57,0 2.86,1.17 2.86,2.6l0 9.79c0,1.43 -1.29,2.61 -2.86,2.61l-9.29 0c-1.57,0 -2.85,-1.18 -2.85,-2.61l0 -9.79c0,-1.43 1.28,-2.6 2.85,-2.6zm-0.18 3.03l9.65 0 0 1.1 -9.65 0 0 -1.1zm0 7.83l7.72 0 0 1.1 -7.72 0 0 -1.1zm0 -2.61l9.65 0 0 1.1 -9.65 0 0 -1.1zm0 -2.61l9.65 0 0 1.1 -9.65 0 0 -1.1z"/>
 </g>
</svg>
