<?xml version="1.0" encoding="UTF-8"?>
<!DOCTYPE svg PUBLIC "-//W3C//DTD SVG 1.1//EN" "http://www.w3.org/Graphics/SVG/1.1/DTD/svg11.dtd">
<!-- Creator: CorelDRAW X7 -->
<svg xmlns="http://www.w3.org/2000/svg" xml:space="preserve" width="2.7092mm" height="2.6246mm" version="1.1" style="shape-rendering:geometricPrecision; text-rendering:geometricPrecision; image-rendering:optimizeQuality; fill-rule:evenodd; clip-rule:evenodd"
viewBox="0 0 271 262"
 xmlns:xlink="http://www.w3.org/1999/xlink">
 <defs>
  <style type="text/css">
   <![CDATA[
    .fil0 {fill:#6E248D;fill-rule:nonzero}
   ]]>
  </style>
 </defs>
 <g id="Layer_x0020_1">
  <metadata id="CorelCorpID_0Corel-Layer"/>
  <g>
   <path class="fil0" d="M203 177c-2,0 -3,-2 -4,-3l0 0c0,-2 0,-4 1,-5l0 0 0 0c0,-2 2,-3 3,-4l0 0c2,0 4,0 5,0l0 0c5,3 10,6 15,9 5,3 10,6 14,10 5,4 9,8 14,13l0 0c4,4 8,9 12,14 1,2 3,4 4,7 1,2 2,5 2,7l0 0c0,3 1,6 1,8 -1,3 -1,6 -2,8l0 0c0,3 -1,6 -2,8l0 0c-1,2 -3,4 -4,6l0 0c-2,2 -4,3 -7,5 -2,1 -4,1 -7,1l-177 0c-2,0 -5,0 -7,-1 -2,-1 -4,-3 -6,-5 -1,-2 -3,-4 -4,-6 -1,-2 -2,-5 -3,-8l0 0c0,-2 -1,-5 -1,-8l0 0c0,-2 0,-5 1,-8l0 0c0,-1 0,-2 1,-4l-29 0c-3,0 -5,0 -8,-1 -2,-1 -4,-3 -6,-5 -1,-1 -3,-3 -4,-6 -1,-2 -2,-5 -3,-7l0 0c0,-3 -1,-6 -1,-8 0,-3 0,-6 1,-8 0,-3 1,-6 2,-8l0 0c1,-2 2,-5 4,-7l0 0c4,-5 8,-10 12,-14 5,-4 9,-9 14,-12 4,-4 9,-8 14,-11 4,-3 9,-6 14,-8l0 0c2,-1 4,-1 5,-1l0 1c2,0 3,1 4,3l0 0c1,2 1,3 1,5l0 0c-1,2 -2,3 -4,4l0 0c-4,2 -9,4 -13,7 -4,3 -9,6 -13,10 -4,3 -8,7 -12,11 -4,4 -8,9 -12,13 0,2 -1,3 -2,4l0 0c0,2 -1,3 -1,5 0,2 0,3 0,5l0 0c0,2 0,4 0,6l0 0c1,1 1,3 2,4l0 0c1,1 1,2 2,3l0 0c1,1 1,1 2,2 0,0 1,0 2,0l36 0c3,-4 7,-8 11,-12 4,-4 8,-8 12,-12 5,-4 10,-7 14,-10 5,-3 10,-6 15,-8l0 -1c2,0 4,0 5,0l0 0c2,1 3,2 4,4l0 0 0 0c1,2 1,3 0,5 0,1 -1,3 -3,3l-1 1 0 0c-4,2 -8,4 -12,7l0 0c-5,3 -9,6 -13,9 -4,4 -8,8 -12,12 -4,4 -8,9 -12,13 -1,1 -1,3 -2,4 -1,1 -1,3 -1,5l0 0c-1,1 -1,3 -1,5 0,2 1,4 1,5l0 0c0,2 1,4 2,5 0,1 1,2 2,3l0 0c0,1 1,1 2,1l0 0c0,1 1,1 1,1l177 0c1,0 1,0 2,-1l0 0c1,0 1,0 2,-1 1,-1 1,-2 2,-3 1,-1 1,-3 2,-5l0 0c0,-1 0,-3 0,-5 0,-2 0,-4 0,-5 0,-2 -1,-4 -1,-5l0 0c-1,-1 -2,-3 -2,-4 -4,-5 -8,-9 -12,-13l0 0c-4,-4 -8,-8 -12,-12 -4,-3 -9,-6 -13,-9 -4,-3 -9,-5 -13,-8l0 0zm-92 -176c7,0 14,1 20,3 7,3 13,6 19,10 5,3 10,8 14,13 4,5 7,10 9,15 7,2 13,4 18,7 6,3 12,7 17,12 6,6 11,14 15,22 3,8 5,17 5,26 0,9 -2,18 -5,26 -4,8 -9,16 -15,22 -12,12 -29,20 -48,20 -9,0 -18,-2 -26,-5 -8,-4 -16,-9 -22,-15l0 0c-3,-3 -6,-7 -9,-11l0 0c-2,-3 -4,-7 -6,-10 -7,-2 -13,-4 -19,-8 -7,-4 -13,-9 -18,-14 -5,-6 -10,-13 -13,-21 -2,-8 -4,-15 -4,-24 0,-9 2,-18 5,-26 4,-8 9,-16 15,-22l0 0c6,-6 14,-11 22,-15l0 0c8,-3 17,-5 26,-5zm-19 116l0 0 0 -1 0 0 0 0 0 0 0 -1 0 0 0 0 0 -1 0 0 0 0 0 0 0 0 0 -1 0 0 0 0 0 0 0 0 0 -1 0 0 0 0 0 0 0 0 0 0 0 0 0 -1 0 0 0 0 0 0 0 0 0 0 0 0 0 0 0 0 0 -1 0 0 0 0 0 0 0 0 0 0 0 0 0 0 0 -1 0 0 0 0 0 0c0,-9 2,-18 5,-26l0 0c7,-17 20,-30 37,-37l-42 71zm0 -1l0 0 0 0zm106 -46c-4,-4 -9,-8 -15,-10 -5,-3 -11,-5 -18,-5l0 0 -2 -1 0 0 -2 0 0 0 0 0 0 0 0 0 0 0 0 0 0 0 0 0 0 0 0 0 0 0 0 0 0 0 0 0 -1 0 0 0 0 0 0 0 0 0 0 0c-8,0 -15,2 -21,4 -7,3 -13,7 -18,12 -5,5 -9,11 -12,18 -2,6 -4,14 -4,21l0 0 0 0 0 0 0 0 0 1 0 0 0 0 0 0 0 0 0 0 0 0 0 0 0 1 0 0 0 0 0 0 0 0 0 0 0 0 0 0 0 1 0 0 0 0 0 0 0 0 0 1 0 0 0 0 0 0 0 0 0 1 0 0 0 0 0 1c1,6 3,12 5,17 3,6 7,11 11,16l0 0c10,9 24,16 39,16 7,0 14,-2 21,-5 6,-2 12,-6 17,-11l0 0c5,-5 10,-11 12,-18 3,-7 4,-14 4,-21 0,-7 -1,-15 -4,-21l0 0c-2,-7 -6,-13 -12,-18zm-54 -48c-3,-2 -6,-4 -9,-5 -7,-4 -15,-5 -24,-5 -10,0 -20,2 -28,7 -4,2 -7,5 -10,7 -1,1 -2,2 -3,2 -1,2 -2,3 -3,4 -9,10 -14,23 -14,37 0,2 1,4 1,6 0,6 2,11 3,15 1,2 2,4 3,6 2,4 5,8 7,11l2 2c2,2 4,4 6,5 3,3 7,5 11,7 3,2 7,3 11,4 -1,-3 -1,-5 -2,-8l0 0 0 -1 0 0 0 0 0 0 0 -1 0 0 0 0 0 0c0,0 0,-1 0,-1l0 0 0 -1 0 0 0 0 0 0 0 0 0 -1 0 0 0 0 0 0 0 0 0 0 0 0 0 -1 0 0 0 0 0 0 0 0 0 0 0 0 0 0 0 -1 0 0 0 0 0 0 0 0 0 -1 0 0 0 0 0 0c0,-18 7,-34 19,-46 1,-1 3,-3 5,-4 11,-9 25,-15 41,-15l0 0 0 0 0 0 0 0 0 0 0 0 0 0 0 0 0 0 0 0 0 0 1 0 0 0 0 0 0 0 0 0 0 0 0 0 0 0 0 0 0 0 0 0 0 0 0 0 0 0 0 0 0 0 0 0c1,0 1,0 2,0 -4,-9 -11,-16 -19,-22z"/>
  </g>
 </g>
</svg>
