<?xml version="1.0" encoding="UTF-8"?>
<!DOCTYPE svg PUBLIC "-//W3C//DTD SVG 1.1//EN" "http://www.w3.org/Graphics/SVG/1.1/DTD/svg11.dtd">
<!-- Creator: CorelDRAW X7 -->
<svg xmlns="http://www.w3.org/2000/svg" xml:space="preserve" width="65" height="65" version="1.1" style="shape-rendering:geometricPrecision; text-rendering:geometricPrecision; image-rendering:optimizeQuality; fill-rule:evenodd; clip-rule:evenodd"
viewBox="0 0 1321 1321"
 xmlns:xlink="http://www.w3.org/1999/xlink">
 <defs>
  <style type="text/css">
   <![CDATA[
    .fil0 {fill:white}
    .fil1 {fill:black;fill-rule:nonzero}
   ]]>
  </style>
 </defs>
 <g id="Layer_x0020_1">
  <metadata id="CorelCorpID_0Corel-Layer"/>
  <g id="_365767556704">
   <circle class="fil0" cx="660" cy="660" r="652"/>
   <path class="fil1" d="M523 485l245 0c28,0 55,5 79,15 26,11 49,26 68,45 19,20 34,42 45,68 10,24 16,51 16,79 0,28 -6,55 -16,79 -9,23 -23,44 -39,61l0 1 -6 6c-19,19 -42,34 -68,45 -24,10 -51,15 -79,15l-245 0 -21 0 -9 0 0 -8 0 -21 0 -21 0 -9 9 0 42 0 188 0 36 0c20,0 39,-4 57,-11 18,-8 34,-19 48,-32l2 -3 0 0c13,-13 23,-28 30,-45 7,-18 11,-37 11,-57 0,-20 -4,-39 -11,-56 -7,-19 -18,-35 -32,-49 -14,-13 -30,-24 -48,-32 -18,-7 -37,-11 -57,-11l-36 0 -188 0 -38 0 0 63 -81 -46 -80 -47 80 -46 81 -47 0 64 17 0z"/>
  </g>
 </g>
</svg>
