<?xml version="1.0" encoding="UTF-8"?>
<!DOCTYPE svg PUBLIC "-//W3C//DTD SVG 1.1//EN" "http://www.w3.org/Graphics/SVG/1.1/DTD/svg11.dtd">
<!-- Creator: CorelDRAW X7 -->
<svg xmlns="http://www.w3.org/2000/svg" xml:space="preserve" width="12.711437mm" height="12.711437mm" version="1.1" style="shape-rendering:geometricPrecision; text-rendering:geometricPrecision; image-rendering:optimizeQuality; fill-rule:evenodd; clip-rule:evenodd"
viewBox="0 0 2210 2210"
 xmlns:xlink="http://www.w3.org/1999/xlink">
 <defs>
  <style type="text/css">
   <![CDATA[
    .fil1 {fill:white}
    .fil0 {fill:url(#id0);fill-opacity:0.800000}
   ]]>
  </style>
  <linearGradient id="id0" gradientUnits="userSpaceOnUse" x1="-0.01" y1="1104.89" x2="2209.79" y2="1104.89">
   <stop offset="0" style="stop-opacity:1; stop-color:#7D369A"/>
   <stop offset="1" style="stop-opacity:1; stop-color:#C158D1"/>
  </linearGradient>
 </defs>
 <g id="Layer_x0020_1">
  <metadata id="CorelCorpID_0Corel-Layer"/>
  <g id="_727601340272">
   <path class="fil0" d="M1105 0c610,0 1105,495 1105,1105 0,610 -495,1105 -1105,1105 -610,0 -1105,-495 -1105,-1105 0,-610 495,-1105 1105,-1105z"/>
   <path class="fil1" d="M827 783l111 0c43,0 78,35 78,78l0 488c0,43 -35,78 -78,78l-111 0c-42,0 -77,-35 -77,-78l0 -488c0,-43 35,-78 77,-78zm444 0l111 0c43,0 78,35 78,78l0 488c0,43 -35,78 -78,78l-111 0c-42,0 -77,-35 -77,-78l0 -488c0,-43 35,-78 77,-78z"/>
  </g>
 </g>
</svg>
