<svg width="82" height="3" viewBox="0 0 133 3" fill="none" xmlns="http://www.w3.org/2000/svg"><path d="M.81 2.7C.27 2.7 0 2.16 0 1.62S.27.81.81.81h3.78c.54 0 1.08.27 1.08.81S5.13 2.7 4.59 2.7H.81zM131.218.81c.54 0 1.08.27 1.08.81s-.54 1.08-1.08 1.08h-3.78c-.54 0-1.08-.54-1.08-1.08s.54-.81 1.08-.81h3.78zm-9.72 0c.54 0 1.08.27 1.08.81s-.54 1.08-1.08 1.08h-3.78c-.54 0-1.08-.54-1.08-1.08s.54-.81 1.08-.81h3.78zm-9.72 0c.54 0 1.08.27 1.08.81s-.54 1.08-1.08 1.08h-3.78c-.54 0-1.08-.54-1.08-1.08s.54-.81 1.08-.81h3.78zm-9.72 0c.54 0 1.08.27 1.08.81s-.27 1.08-1.08 1.08h-3.78c-.54 0-1.08-.54-1.08-1.08s.54-.81 1.08-.81h3.78zm-9.72 0c.54 0 .81.27.81.81s-.27 1.08-.81 1.08h-3.78c-.54 0-1.08-.54-1.08-1.08s.54-.81 1.08-.81h3.78zm-9.72 0c.54 0 .81.27.81.81s-.27 1.08-.81 1.08h-3.78c-.54 0-1.08-.54-1.08-1.08s.54-.81 1.08-.81h3.78zm-9.72 0c.54 0 .81.27.81.81s-.27 1.08-.81 1.08h-3.78c-.54 0-1.08-.54-1.08-1.08s.54-.81 1.08-.81h3.78zm-9.72 0c.54 0 .81.27.81.81s-.27 1.08-.81 1.08h-3.78c-.54 0-1.08-.54-1.08-1.08s.54-.81 1.08-.81h3.78zm-9.719 0c.54 0 .81.27.81.81s-.27 1.08-.81 1.08h-3.78c-.54 0-1.08-.54-1.08-1.08s.54-.81 1.08-.81h3.78zm-9.72 0c.54 0 1.08.27 1.08.81s-.54 1.08-1.08 1.08h-3.78c-.54 0-1.08-.54-1.08-1.08s.54-.81 1.08-.81h3.78zm-9.72 0c.54 0 1.08.27 1.08.81s-.54 1.08-1.08 1.08h-3.78c-.54 0-1.08-.54-1.08-1.08s.54-.81 1.08-.81h3.78zm-9.72 0c.54 0 1.08.27 1.08.81S24.84 2.7 24.3 2.7h-3.78c-.54 0-1.08-.54-1.08-1.08s.54-.81 1.08-.81h3.78zm-9.72 0c.54 0 1.08.27 1.08.81s-.54 1.08-1.08 1.08H10.8c-.54 0-1.08-.54-1.08-1.08s.54-.81 1.08-.81h3.78z" fill="#fff" fill-opacity=".922"/></svg>