<svg width="34" height="16" fill="none" xmlns="http://www.w3.org/2000/svg"><path d="M0 0h26a8 8 0 0 1 8 8v8H8a8 8 0 0 1-8-8V0z" fill="#FF4545"/><path d="M7.78 11h1.26V8.02h3.12V6.96H9.04V5.02h3.31v-1.1H7.78V11zm5.253 0h1.2V8.43c0-.35.21-1.29 1.29-1.29.11 0 .21.01.37.05v-1.1c-.08-.02-.2-.03-.29-.03-.63 0-1.14.39-1.4.94h-.02v-.8h-1.15V11zm4.386-2.88c.05-.67.62-1.16 1.33-1.16.78 0 1.13.54 1.13 1.16h-2.46zm3.66.54c0-1.73-.98-2.6-2.32-2.6-1.45 0-2.54 1.02-2.54 2.57 0 1.56 1.1 2.51 2.58 2.51.91 0 1.59-.32 2.06-.96l-.8-.64c-.27.38-.67.62-1.27.62-.7 0-1.32-.5-1.37-1.18h3.65c.01-.11.01-.21.01-.32zm2.082-.54c.05-.67.62-1.16 1.33-1.16.78 0 1.13.54 1.13 1.16h-2.46zm3.66.54c0-1.73-.98-2.6-2.32-2.6-1.45 0-2.54 1.02-2.54 2.57 0 1.56 1.1 2.51 2.58 2.51.91 0 1.59-.32 2.06-.96l-.8-.64c-.27.38-.67.62-1.27.62-.7 0-1.32-.5-1.37-1.18h3.65c.01-.11.01-.21.01-.32z" fill="#fff"/></svg>