<svg xmlns="http://www.w3.org/2000/svg" xml:space="preserve" width="20.142" height="20.09" style="clip-rule:evenodd;fill-rule:evenodd;image-rendering:optimizeQuality;shape-rendering:geometricPrecision;text-rendering:geometricPrecision" viewBox="0 0 532.914 531.534"><defs><linearGradient id="a"><stop style="stop-color:#000;stop-opacity:1" offset="0"/><stop style="stop-color:#000;stop-opacity:0" offset="1"/></linearGradient></defs><g style="fill:#6e248b;fill-opacity:1"><path d="M4841 7983h118c3 0 6 0 9 1 2 2 5 3 6 5 2 2 4 4 5 7 1 2 2 5 2 8v119c0 2-1 5-2 8-1 2-3 5-5 7-1 1-4 3-6 4-3 1-6 2-9 2h-118c-3 0-6-1-8-2-3-1-5-2-7-4s-4-5-5-7c-1-3-1-6-1-8v-119c0-3 0-5 1-8s3-5 5-7 4-3 7-5c2-1 5-1 8-1zm161-134 84-84c2-2 4-4 7-5 1 0 2-1 3-1h5c5 0 11 2 15 6l84 84 3 3h-1c1 1 2 2 2 3 1 3 2 6 2 9 0 2-1 5-2 8-1 2-2 5-4 7l-84 83c-2 2-5 4-7 5-3 1-6 2-8 2h-5v-1c-1 0-2-1-3-1-3-1-5-3-7-5l-84-83-1-2c-2-2-3-3-4-5-1-3-1-6-1-8 0-6 2-11 6-15zm97-71-83 84c-1 0-1 1-1 1v2h1l83 84h3l84-84v-1h1c0-1 0-1-1-1v-1l-84-84h-3zm-57 205h118c3 0 6 0 8 2 1 0 2 1 3 1h1l3 3c2 2 4 4 5 7s1 5 1 8v119c0 2 0 5-1 8-1 2-3 5-5 7l-1 1h-1c-1 1-3 2-5 3s-5 2-8 2h-118c-3 0-6-1-9-2-2-1-5-3-6-4-2-2-4-5-5-7-1-3-2-6-2-8v-119c0-3 1-6 2-8 1-3 3-5 5-7 1-2 4-3 6-5 3-1 6-1 9-1zm118 19h-119c-1 0-1 0-1 1l-1 1v119h1v1l1 1h120v-1c1 0 1 0 1-1v-120h-1v-1h-1zm-319-219h118c3 0 6 1 9 2 2 1 5 2 6 4 2 2 4 5 5 7 1 3 2 5 2 8v119c0 3-1 5-2 8-1 2-3 5-5 7-1 2-4 3-6 4-3 1-6 2-9 2h-118c-3 0-6-1-8-2-3-1-5-2-7-4s-4-5-5-7c-1-3-1-5-1-8v-119c0-3 0-5 1-8 1-2 3-5 5-7s4-3 7-4c2-1 5-2 8-2zm118 19h-119v1c-1 0-1 0-1 1v120h1v1h120l1-1c0-1 1-1 1-1v-119h-1v-1s0-1-1-1h-1zm0 200h-119v1h-1v121h1v1h120c0-1 1-1 1-1v-1h1v-119s-1 0-1-1 0-1-1-1h-1z" style="fill:#6e248b;fill-opacity:1;fill-rule:nonzero" transform="matrix(1.3806 0 0 1.3806 -6654.526 -10712.13)"/></g></svg>