<?xml version="1.0" encoding="UTF-8" standalone="no"?>
<svg
   xmlns:dc="http://purl.org/dc/elements/1.1/"
   xmlns:cc="http://creativecommons.org/ns#"
   xmlns:rdf="http://www.w3.org/1999/02/22-rdf-syntax-ns#"
   xmlns:svg="http://www.w3.org/2000/svg"
   xmlns="http://www.w3.org/2000/svg"
   xmlns:sodipodi="http://sodipodi.sourceforge.net/DTD/sodipodi-0.dtd"
   xmlns:inkscape="http://www.inkscape.org/namespaces/inkscape"
   xml:space="preserve"
   width="47.522839mm"
   height="46.030815mm"
   version="1.1"
   style="clip-rule:evenodd;fill-rule:evenodd;image-rendering:optimizeQuality;shape-rendering:geometricPrecision;text-rendering:geometricPrecision"
   viewBox="0 0 4752.1999 4603.0002"
   id="svg12"
   sodipodi:docname="akses-konsultasi.svg"
   inkscape:version="1.0.1 (3bc2e813f5, 2020-09-07)"><metadata
   id="metadata16"><rdf:RDF><cc:Work
       rdf:about=""><dc:format>image/svg+xml</dc:format><dc:type
         rdf:resource="http://purl.org/dc/dcmitype/StillImage" /></cc:Work></rdf:RDF></metadata><sodipodi:namedview
   pagecolor="#ffffff"
   bordercolor="#666666"
   borderopacity="1"
   objecttolerance="10"
   gridtolerance="10"
   guidetolerance="10"
   inkscape:pageopacity="0"
   inkscape:pageshadow="2"
   inkscape:window-width="810"
   inkscape:window-height="480"
   id="namedview14"
   showgrid="false"
   inkscape:zoom="1.2968776"
   inkscape:cx="66.335658"
   inkscape:cy="163.67533"
   inkscape:window-x="0"
   inkscape:window-y="0"
   inkscape:window-maximized="0"
   inkscape:current-layer="svg12" />
 <defs
   id="defs4">
  <style
   type="text/css"
   id="style2">
   <![CDATA[
    .fil0 {fill:#6E248D;fill-rule:nonzero}
   ]]>
  </style>
 </defs>
 <g
   id="Layer_x0020_1"
   transform="translate(-6711.4,-4136)">
  <metadata
   id="CorelCorpID_0Corel-Layer" />
  <g
   id="g9">
   <path
   class="fil0"
   d="m 10279,7256 c -29,-14 -50,-39 -60,-67 v -1 c -10,-27 -9,-59 5,-88 v -1 0 c 14,-29 39,-50 67,-60 v 1 c 27,-10 60,-9 89,4 v 1 c 90,43 177,92 262,147 86,56 169,118 250,185 80,67 158,141 234,221 h 1 c 75,79 149,164 219,254 27,35 50,75 68,117 18,42 32,88 40,135 v 1 c 8,45 11,93 9,142 -1,47 -8,95 -19,142 v 0 c -11,48 -28,93 -48,134 v 0 c -21,41 -46,78 -75,109 v 0 c -32,34 -68,61 -108,79 -40,18 -82,28 -126,28 H 7952 c -44,0 -87,-10 -126,-28 -40,-18 -76,-45 -109,-79 -28,-30 -53,-67 -74,-109 -21,-40 -37,-86 -49,-134 h 1 c -12,-47 -18,-95 -20,-142 v 0 c -1,-48 2,-97 10,-142 v -1 c 4,-23 9,-47 16,-69 h -513 c -44,0 -86,-10 -126,-28 -39,-18 -76,-45 -108,-79 -28,-30 -54,-67 -75,-108 -20,-40 -37,-85 -48,-134 v 0 c -11,-47 -18,-95 -19,-143 -2,-49 1,-97 9,-142 8,-47 22,-93 40,-135 v -1 c 18,-42 41,-81 68,-116 v 0 c 70,-91 144,-176 219,-255 76,-79 155,-153 235,-220 80,-67 164,-129 250,-186 84,-55 171,-104 261,-147 v 0 c 29,-14 61,-15 89,-5 v 0 c 28,10 53,31 67,60 v 0 c 14,29 15,61 5,90 v 0 c -10,28 -31,53 -60,66 v 0 c -80,38 -158,83 -234,132 -77,51 -154,107 -228,170 -74,62 -147,130 -216,203 -71,73 -139,152 -204,236 -14,19 -27,41 -37,65 v 0 c -10,25 -19,54 -24,83 -5,31 -7,63 -6,95 v 0 c 1,32 5,64 12,95 l 1,1 c 7,29 16,56 28,79 v 0 c 11,23 24,42 37,56 v 0 c 11,12 23,21 34,26 10,5 20,8 30,8 h 646 c 60,-75 124,-147 189,-215 73,-75 148,-145 224,-209 80,-66 163,-129 249,-185 85,-55 172,-104 261,-147 v 0 c 29,-14 61,-15 90,-5 v 0 c 28,10 53,31 66,60 l 6,11 v 2 c 8,25 8,52 -1,76 -10,29 -31,53 -60,67 l -11,5 v 0 c -76,37 -150,80 -223,128 v 0 c -77,49 -153,106 -227,168 -75,63 -147,131 -217,204 -70,73 -138,152 -203,235 -15,19 -28,42 -38,66 -10,25 -18,53 -23,83 v 0 c -5,31 -8,63 -7,95 1,32 6,64 13,95 v 0 c 7,30 17,57 28,79 11,23 24,42 38,57 v 0 c 11,12 22,20 34,26 v 0 c 9,5 20,7 30,7 h 3135 c 10,0 20,-2 30,-7 v 0 c 12,-6 23,-14 34,-26 13,-15 26,-34 38,-56 11,-23 20,-50 27,-80 h 1 c 7,-31 11,-63 12,-95 1,-32 -1,-65 -6,-95 -5,-30 -14,-58 -24,-83 v 0 c -10,-24 -23,-47 -38,-66 -65,-83 -133,-162 -203,-236 v 0 c -70,-72 -142,-140 -217,-203 -74,-62 -150,-119 -227,-169 -77,-50 -155,-94 -235,-133 z M 8656,4136 c 125,0 247,20 361,56 118,37 228,92 328,162 96,67 181,148 253,238 66,83 120,174 163,272 111,23 217,61 315,113 109,57 208,130 294,216 110,110 200,243 261,390 59,142 91,297 91,460 0,162 -32,318 -91,460 -61,147 -151,280 -261,390 -218,218 -519,353 -851,353 -162,0 -318,-33 -460,-92 -147,-61 -279,-150 -390,-261 v 0 c -57,-57 -109,-120 -154,-188 v 0 c -39,-59 -73,-122 -101,-188 -126,-26 -245,-71 -353,-133 -119,-68 -226,-156 -315,-259 -93,-107 -167,-231 -218,-367 -48,-130 -75,-272 -75,-419 0,-162 33,-318 91,-460 61,-147 151,-280 261,-390 v 0 c 111,-111 244,-200 391,-261 v 0 c 142,-59 297,-92 460,-92 z m -331,2051 -2,-15 v -3 -3 l -1,-5 v -2 -2 -3 l -2,-22 v -2 -3 -1 l -1,-2 v -3 -3 -3 -3 l -1,-2 v -8 -2 -1 -3 -2 -4 0 -3 0 -1 l -1,-1 v -4 -3 -3 -2 -2 0 -3 -3 0 -5 -1 -1 -2 -4 -3 -3 -3 c 0,-163 32,-318 91,-460 v 0 c 122,-295 357,-529 651,-651 z m -2,-18 z m 1881,-811 c -78,-77 -169,-142 -269,-189 -98,-47 -204,-78 -316,-89 v 0 l -37,-3 v 0 l -34,-2 h -1 -1 v 0 h -2 -1 -3 v 0 h -2 -1 -1 -1 -1 -1 -2 -1 -1 -6 -1 -1 -2 c -131,0 -256,26 -370,73 -118,49 -225,121 -314,210 -89,90 -162,196 -210,315 -47,113 -73,239 -73,370 v 3 3 2 1 1 4 3 3 3 0 2 1 2 1 2 3 0 3 2 2 l 1,7 v 2 8 1 3 l 1,1 v 8 2 2 l 1,2 v 8 2 0 l 1,12 c 12,112 42,219 89,316 48,101 112,192 190,269 v 0 c 175,175 417,284 684,284 132,0 257,-26 371,-73 118,-49 225,-121 314,-211 v 0 c 89,-89 161,-196 210,-314 47,-114 73,-239 73,-370 0,-131 -26,-257 -73,-370 v 0 c -49,-118 -121,-225 -210,-315 z m -962,-857 c -50,-34 -103,-65 -159,-91 -130,-59 -275,-93 -427,-93 -184,0 -357,49 -506,134 -63,36 -122,79 -176,127 -14,13 -28,26 -41,39 -22,21 -42,44 -62,68 -148,177 -237,405 -237,654 0,36 2,72 5,107 10,94 32,184 66,268 14,36 30,70 47,103 36,68 80,132 130,190 l 32,35 c 33,35 69,68 106,98 56,44 117,83 182,115 65,32 134,58 205,76 -12,-48 -22,-97 -28,-147 v -3 l -2,-12 v 0 -4 -3 l -1,-3 v -3 -3 l -1,-3 c 0,-7 -1,-15 -1,-22 v -3 l -1,-3 v -3 -4 -3 -3 l -1,-3 v -3 -1 -2 -3 -3 -4 -3 0 l -1,-3 v -3 -3 -3 -2 -2 -3 -3 -6 -1 -2 -4 -3 -3 -3 c 0,-317 128,-604 336,-812 27,-27 54,-52 83,-76 199,-163 453,-261 729,-261 h 1 1 1 1 2 v 0 h 1 2 1 1 1 1 1 1 v 0 h 1 v 0 h 1 1 1 1 1 1 v 0 h 1 1 1 l 1,1 c 11,0 21,0 32,1 -77,-159 -193,-295 -335,-395 z"
   id="path7" />
  </g>
 </g>
</svg>
