<svg xmlns="http://www.w3.org/2000/svg" xml:space="preserve" width="30" height="30" version="1.0" style="shape-rendering:geometricPrecision;text-rendering:geometricPrecision;image-rendering:optimizeQuality;fill-rule:evenodd;clip-rule:evenodd" viewBox="0 0 4191 4149"><defs><linearGradient id="a" gradientUnits="userSpaceOnUse" x1="3766.45" y1="574.5" x2="927.21" y2="2615.22"><stop offset="0" style="stop-opacity:1;stop-color:#f4ecd4"/><stop offset="1" style="stop-opacity:1;stop-color:white"/></linearGradient><clipPath id="b"><path d="M0 1106c119-358 400-500 839-437l1433 2748c-348 15-620 175-839 438L0 1106z"/></clipPath></defs><path d="M1957 3190c966-195 439-568 1201-726 244-50 561 63 1033-545-126-365-713-666-960-1725-115-493-636 47-1124 589-473 526-1772 453-1586 488 295 55 1429 1920 1436 1919z" style="fill:url(#a)"/><path d="M2120 4149c50-244 101-488 152-732-505-95-626 165-839 438l687 294z" style="fill:#e2b479"/><path d="M0 1106c119-358 400-500 839-437l1433 2748c-348 15-620 175-839 438L0 1106z" style="fill:#8a43a8"/><g style="clip-path:url(#b)"><path d="M-257 1544c119-358 399-500 838-437l1434 2749c-349 14-621 174-839 437L-257 1544z" style="fill:#9c58b8"/></g><path d="M0 1106c119-358 400-500 839-437l1433 2748c-348 15-620 175-839 438L0 1106z" style="fill:none"/></svg>