<svg xmlns="http://www.w3.org/2000/svg" width="160.319" height="118.4" version="1.0" viewBox="0 0 4242 3133" shape-rendering="geometricPrecision" text-rendering="geometricPrecision" image-rendering="optimizeQuality" fill-rule="evenodd" clip-rule="evenodd"><path d="M784 1030c46 22 97 22 141 7 44-17 82-49 103-95 22-46 22-96 6-140s-48-82-94-104c-46-21-96-22-140-6s-82 49-104 94c-21 46-22 96-6 141 16 44 49 82 94 103zm3 838l5 872c0 130 106 235 236 234l1726-9c130-1 235-107 234-237l-9-1569c-1-130-107-235-237-234l-1020 6c-8 102-34 204-79 299-160 342-553 535-856 638zm933-1094l1022-6c216-1 393 173 394 390l4 632 970-701c13-10 29-15 46-15 43 0 78 35 78 78l9 1565c1 17-4 34-14 49-25 36-74 44-109 19l-979-690 4 632c1 217-173 393-390 394l-1726 10c-217 2-393-173-394-390l-5-826c-140 38-235 53-236 53-32 5-63-11-79-37v1c-1-3-511-843-234-1433 48-104 117-196 199-272l5-4c82-73 178-132 283-170C676 14 789-3 901 2s223 32 327 81c103 48 195 116 271 199s135 181 174 288c24 66 40 135 47 204zM423 1804c194-38 873-201 1079-640 39-85 62-176 66-268s-10-185-42-272c-32-88-80-168-143-236h1c-62-68-138-124-222-164-85-39-176-61-268-65-92-5-184 9-272 41-87 31-166 79-232 139l-4 4c-68 62-124 137-164 222-206 440 106 1066 201 1239zm3656-500l-882 638 889 627-7-1265zM978 1184c-82 29-175 28-260-12s-146-110-175-192c-30-82-28-175 11-260 40-85 111-146 192-175 82-30 175-28 260 12 85 39 146 110 176 191 29 82 28 175-12 260s-110 146-192 176z" fill="#1db597"/></svg>