<svg xmlns="http://www.w3.org/2000/svg" xml:space="preserve" width="48.371" height="53.045" style="clip-rule:evenodd;fill-rule:evenodd;image-rendering:optimizeQuality;shape-rendering:geometricPrecision;text-rendering:geometricPrecision" viewBox="0 0 1279.79 1403.467"><path d="M6350 6895c15 0 28 9 34 22h22c8 0 15 7 15 15s-7 15-15 15h-22c-6 12-19 22-34 22s-28-10-33-22h-119c-8 0-15-7-15-15s7-15 15-15h119c5-13 18-22 33-22zm-97 94c-15 0-28 9-33 22h-22c-8 0-15 7-15 15s7 14 15 14h22c5 13 18 22 33 22s28-9 34-22h119c8 0 15-6 15-14s-7-15-15-15h-119c-6-13-19-22-34-22zm0 22c-8 0-14 7-14 15s6 14 14 14 15-6 15-14-7-15-15-15zm97 72c15 0 28 9 34 22h22c8 0 15 6 15 14s-7 15-15 15h-22c-6 13-19 22-34 22s-28-9-33-22h-119c-8 0-15-7-15-15s7-14 15-14h119c5-13 18-22 33-22zm0 22c-8 0-14 6-14 14s6 15 14 15 15-7 15-15-7-14-15-14zm-14-173c0 8 6 15 14 15s15-7 15-15-7-15-15-15-14 7-14 15z" style="fill:#fff" transform="translate(-33247.66 -37076.277) scale(5.37727)"/></svg>