<svg xmlns="http://www.w3.org/2000/svg" xml:space="preserve" width="92.004" height="92.004" style="clip-rule:evenodd;fill-rule:evenodd;image-rendering:optimizeQuality;shape-rendering:geometricPrecision;text-rendering:geometricPrecision" viewBox="0 0 2434.782 2434.782"><defs><clipPath id="a"><path d="M1003 0c554 0 1004 449 1004 1003s-450 1004-1004 1004S0 1557 0 1003 449 0 1003 0z"/></clipPath></defs><path d="M1003 0c554 0 1004 449 1004 1003s-450 1004-1004 1004S0 1557 0 1003 449 0 1003 0z" style="fill:#27ae60" transform="scale(1.21315)"/><g clip-path="url(#a)" transform="scale(1.21315)"><path style="fill:#fff;fill-rule:nonzero" d="m945 1378-72 78-75-75-288-287 145-146 213 213 481-518 150 140z"/></g><path d="M1003 0c554 0 1004 449 1004 1003s-450 1004-1004 1004S0 1557 0 1003 449 0 1003 0z" style="fill:none" transform="scale(1.21315)"/></svg>