<?xml version="1.0" encoding="UTF-8"?>
<!DOCTYPE svg PUBLIC "-//W3C//DTD SVG 1.1//EN" "http://www.w3.org/Graphics/SVG/1.1/DTD/svg11.dtd">
<!-- Creator: CorelDRAW 2018 (64-Bit) -->
<svg xmlns="http://www.w3.org/2000/svg" xml:space="preserve" width="38px" height="26px" version="1.1" style="shape-rendering:geometricPrecision; text-rendering:geometricPrecision; image-rendering:optimizeQuality; fill-rule:evenodd; clip-rule:evenodd"
viewBox="0 0 38 26"
 xmlns:xlink="http://www.w3.org/1999/xlink">
 <defs>
  <style type="text/css">
   <![CDATA[
    .fil0 {fill:white;fill-rule:nonzero}
   ]]>
  </style>
 </defs>
 <g id="Layer_x0020_1">
  <metadata id="CorelCorpID_0Corel-Layer"/>
  <path class="fil0" d="M21.45 10.04c0.4,0.23 0.54,0.75 0.31,1.16 -0.23,0.41 -0.76,0.55 -1.16,0.31l-4.11 -2.37 -0.01 0c-0.03,-0.02 -0.07,-0.04 -0.11,-0.04 -0.03,0 -0.07,0.01 -0.11,0.03l0 0.01c-0.03,0.02 -0.06,0.04 -0.08,0.07l0 0c-0.01,0.03 -0.02,0.07 -0.02,0.11l0 7.66c0,0.05 0.01,0.09 0.02,0.11l0 0.01c0.02,0.02 0.05,0.05 0.08,0.07 0.04,0.02 0.08,0.03 0.11,0.03 0.04,0 0.08,-0.01 0.11,-0.03l0 0 6.64 -3.83 0 0c0.03,-0.02 0.06,-0.05 0.08,-0.07l0 -0.01c0.01,-0.02 0.02,-0.06 0.02,-0.11 0,-0.04 -0.01,-0.08 -0.02,-0.11l0 0c-0.02,-0.03 -0.05,-0.05 -0.08,-0.07 -0.41,-0.24 -0.55,-0.76 -0.31,-1.17 0.23,-0.4 0.75,-0.54 1.16,-0.31 0.3,0.18 0.53,0.42 0.7,0.7l0 0c0.17,0.29 0.26,0.62 0.26,0.96 0,0.35 -0.09,0.68 -0.26,0.97l0 -0.01c-0.17,0.29 -0.4,0.53 -0.7,0.71l-0.01 0 -6.63 3.82 0 0c-0.3,0.18 -0.63,0.27 -0.96,0.27 -0.33,0 -0.65,-0.09 -0.96,-0.27 -0.29,-0.17 -0.53,-0.41 -0.7,-0.7l0 0.01c-0.17,-0.29 -0.26,-0.62 -0.26,-0.97l0 -7.66c0,-0.34 0.09,-0.67 0.26,-0.96l0 0c0.16,-0.28 0.4,-0.52 0.71,-0.7l0 0c0.3,-0.17 0.62,-0.26 0.95,-0.26 0.33,0 0.66,0.09 0.96,0.26l0 0 4.12 2.38zm-9.36 -6.95c-0.47,0.03 -0.87,-0.34 -0.89,-0.8 -0.03,-0.47 0.34,-0.87 0.81,-0.89 3.46,-0.17 6.93,-0.22 10.4,-0.15l0.01 0c3.47,0.07 6.92,0.25 10.34,0.55 1.02,0.09 1.93,0.56 2.57,1.27l0 0c0.65,0.71 1.05,1.65 1.05,2.67l0 14.82c0,1.03 -0.4,1.97 -1.05,2.68 -0.64,0.7 -1.55,1.17 -2.57,1.26 -8.96,0.78 -17.92,0.78 -26.87,0 -1.02,-0.08 -1.92,-0.56 -2.57,-1.26l0 0c-0.65,-0.71 -1.05,-1.65 -1.05,-2.68l0 -14.81c0,-1.03 0.4,-1.97 1.05,-2.68l0 0c0.65,-0.7 1.55,-1.18 2.58,-1.27 0.47,-0.03 0.88,0.32 0.92,0.78 0.03,0.47 -0.31,0.88 -0.78,0.92 -0.59,0.05 -1.11,0.32 -1.47,0.72l0 0c-0.37,0.4 -0.59,0.94 -0.59,1.53l0 14.81c0,0.59 0.22,1.13 0.59,1.53l0 0c0.36,0.4 0.88,0.67 1.47,0.72 8.85,0.77 17.71,0.76 26.57,0l0.01 0c0.58,-0.05 1.09,-0.32 1.46,-0.72 0.37,-0.41 0.59,-0.94 0.59,-1.53l0 -14.82c0,-0.58 -0.22,-1.13 -0.59,-1.52l0 0c-0.37,-0.4 -0.88,-0.67 -1.47,-0.72 -3.43,-0.3 -6.85,-0.49 -10.23,-0.55 -3.42,-0.07 -6.85,-0.02 -10.29,0.14l0 0z"/>
 </g>
</svg>
