<?xml version="1.0" encoding="UTF-8" standalone="no"?>
<svg
   xmlns:dc="http://purl.org/dc/elements/1.1/"
   xmlns:cc="http://creativecommons.org/ns#"
   xmlns:rdf="http://www.w3.org/1999/02/22-rdf-syntax-ns#"
   xmlns:svg="http://www.w3.org/2000/svg"
   xmlns="http://www.w3.org/2000/svg"
   xmlns:sodipodi="http://sodipodi.sourceforge.net/DTD/sodipodi-0.dtd"
   xmlns:inkscape="http://www.inkscape.org/namespaces/inkscape"
   xml:space="preserve"
   width="24.342726mm"
   height="24.342726mm"
   version="1.1"
   style="clip-rule:evenodd;fill-rule:evenodd;image-rendering:optimizeQuality;shape-rendering:geometricPrecision;text-rendering:geometricPrecision"
   viewBox="0 0 2434.7821 2434.7821"
   id="svg19"
   sodipodi:docname="IconRecordSent.svg"
   inkscape:version="1.0.1 (3bc2e813f5, 2020-09-07)"><metadata
   id="metadata23"><rdf:RDF><cc:Work
       rdf:about=""><dc:format>image/svg+xml</dc:format><dc:type
         rdf:resource="http://purl.org/dc/dcmitype/StillImage" /></cc:Work></rdf:RDF></metadata><sodipodi:namedview
   pagecolor="#ffffff"
   bordercolor="#666666"
   borderopacity="1"
   objecttolerance="10"
   gridtolerance="10"
   guidetolerance="10"
   inkscape:pageopacity="0"
   inkscape:pageshadow="2"
   inkscape:window-width="1920"
   inkscape:window-height="1001"
   id="namedview21"
   showgrid="false"
   inkscape:zoom="5.472101"
   inkscape:cx="77.498512"
   inkscape:cy="48.809209"
   inkscape:window-x="-9"
   inkscape:window-y="-9"
   inkscape:window-maximized="1"
   inkscape:current-layer="svg19" />
 <defs
   id="defs7">
  <style
   type="text/css"
   id="style2">
   <![CDATA[
    .fil2 {fill:none}
    .fil0 {fill:#27AE60}
    .fil1 {fill:white;fill-rule:nonzero}
   ]]>
  </style>
   <clipPath
   id="id0">
    <path
   d="m 1003,0 c 554,0 1004,449 1004,1003 0,554 -450,1004 -1004,1004 C 449,2007 0,1557 0,1003 0,449 449,0 1003,0 Z"
   id="path4" />
   </clipPath>
 </defs>
 <g
   id="Layer_x0020_1"
   transform="scale(1.2131451)">
  <metadata
   id="CorelCorpID_0Corel-Layer" />
  <path
   class="fil0"
   d="m 1003,0 c 554,0 1004,449 1004,1003 0,554 -450,1004 -1004,1004 C 449,2007 0,1557 0,1003 0,449 449,0 1003,0 Z"
   id="path10" />
  <g
   clip-path="url(#id0)"
   id="g14">
   <g
   id="_582239232512">
    <polygon
   id="1"
   class="fil1"
   points="945,1378 873,1456 798,1381 510,1094 655,948 868,1161 1349,643 1499,783 " />
   </g>
  </g>
  <path
   class="fil2"
   d="m 1003,0 c 554,0 1004,449 1004,1003 0,554 -450,1004 -1004,1004 C 449,2007 0,1557 0,1003 0,449 449,0 1003,0 Z"
   id="path16" />
 </g>
</svg>
