<?xml version="1.0" encoding="UTF-8" standalone="no"?>
<svg
   xmlns:dc="http://purl.org/dc/elements/1.1/"
   xmlns:cc="http://creativecommons.org/ns#"
   xmlns:rdf="http://www.w3.org/1999/02/22-rdf-syntax-ns#"
   xmlns:svg="http://www.w3.org/2000/svg"
   xmlns="http://www.w3.org/2000/svg"
   xmlns:xlink="http://www.w3.org/1999/xlink"
   xmlns:sodipodi="http://sodipodi.sourceforge.net/DTD/sodipodi-0.dtd"
   xmlns:inkscape="http://www.inkscape.org/namespaces/inkscape"
   height="71.428574"
   version="1.1"
   viewBox="0 0 100 71.428574"
   width="100"
   id="svg22"
   sodipodi:docname="iconfinder_BNI_2425812.svg"
   inkscape:version="1.0.1 (3bc2e813f5, 2020-09-07)">
  <metadata
     id="metadata26">
    <rdf:RDF>
      <cc:Work
         rdf:about="">
        <dc:format>image/svg+xml</dc:format>
        <dc:type
           rdf:resource="http://purl.org/dc/dcmitype/StillImage" />
      </cc:Work>
    </rdf:RDF>
  </metadata>
  <sodipodi:namedview
     pagecolor="#ffffff"
     bordercolor="#666666"
     borderopacity="1"
     objecttolerance="10"
     gridtolerance="10"
     guidetolerance="10"
     inkscape:pageopacity="0"
     inkscape:pageshadow="2"
     inkscape:window-width="1920"
     inkscape:window-height="1001"
     id="namedview24"
     showgrid="false"
     inkscape:zoom="5.7638889"
     inkscape:cx="46.687003"
     inkscape:cy="39.508759"
     inkscape:window-x="-9"
     inkscape:window-y="-9"
     inkscape:window-maximized="1"
     inkscape:current-layer="svg22" />
  <title
     id="title2" />
  <desc
     id="desc4" />
  <defs
     id="defs7">
    <rect
       height="71.428574"
       id="path-1"
       rx="6.6315789"
       width="100"
       x="0"
       y="0" />
  </defs>
  <g
     fill="none"
     fill-rule="evenodd"
     id="Content"
     stroke="none"
     stroke-width="1">
    <g
       id="Indonesian-Bank-Icons"
       transform="translate(-690,-623)">
      <g
         id="g18"
         transform="translate(690,623)">
        <mask
           fill="#ffffff"
           id="mask-2">
          <use
             xlink:href="#path-1"
             id="use9"
             x="0"
             y="0"
             width="100%"
             height="100%" />
        </mask>
        <use
           fill="#ffffff"
           id="Background"
           xlink:href="#path-1"
           x="0"
           y="0"
           width="100%"
           height="100%" />
        <g
           id="Logo-Bank-BNI"
           mask="url(#mask-2)">
          <g
             transform="translate(8.571429,24.285714)"
             id="g15">
            <path
               d="M 7.6456721,18.129353 11.039395,22.33196 H 2.6371486 Z M 6.5784807,16.831182 0.00582104,22.344797 0.00312612,8.7846097 Z M 22.392856,3.1768544 c 0,0 -1.442864,-0.6830507 -3.119109,-0.5832943 -1.916363,0.1128612 -3.519576,0.8477959 -4.441241,1.817546 -0.579949,0.6092363 -1.221072,1.3524618 -1.543116,2.1596063 -0.467031,1.1676583 -0.566743,2.7105399 -0.566743,2.7105399 0,0 -0.670229,-0.5688524 -1.509968,-2.2264672 C 10.236306,5.1267849 9.9692389,3.9588592 9.8369179,2.6264556 9.7191496,1.4571927 9.9040217,0.3010344 9.9040217,0.3010344 H 22.392856 Z m 0,3.8442328 v 8.5501688 c 0,0 -0.776408,0.2982 -1.409716,0.2982 -0.633308,0 -1.711819,-0.09387 -2.964421,-0.78254 -1.24344,-0.683051 -1.931724,-1.509451 -2.46532,-2.258293 -0.541142,-0.761679 -0.987961,-1.817546 -1.12082,-2.578423 -0.10672,-0.6087013 -0.221793,-2.1269781 0.399927,-3.3609624 0.337405,-0.6696785 1.2429,-1.817546 2.986249,-1.8828023 1.421036,-0.054558 2.209033,0.3190601 2.931273,0.7154114 1.374414,0.7557953 1.642828,1.2992405 1.642828,1.2992405 z M 8.7939809,14.970845 11.046671,13.093125 C 10.328742,12.176061 10.139019,11.830524 9.3364698,10.646551 8.5147863,9.4347648 7.8265017,8.101559 7.2379295,6.5372819 6.6008485,4.8427599 6.4469682,3.8914634 6.5173058,2.6264556 6.6054299,1.0169807 6.9714011,0.3010344 6.9714011,0.3010344 H -1.0779711e-4 L 0.00312612,4.0583481 c 0,0 5.33649618,6.6876919 8.79085478,10.9124969 z m 6.4365661,7.354964 h 7.162309 V 17.10344 c 0,0 -1.776496,0.8149 -2.931273,0.880691 -0.687476,0.04012 -1.35474,0.06659 -2.431364,-0.219838 -1.196817,-0.317991 -1.876747,-0.627958 -2.98598,-1.542882 -0.890943,-0.733865 -1.909625,-1.817546 -1.909625,-1.817546 l -2.2658959,1.889221 c 1.0512919,1.285868 1.8276999,2.221921 2.0653929,2.473852 1.021916,1.079937 1.454991,1.476823 2.143276,1.861674 0.688015,0.385654 2.986788,0.364794 2.986788,0.364794 z"
               fill="#e94e0f"
               id="46" />
            <path
               d="m 76.561338,17.680396 c 0,1.513195 0.204006,4.00042 -1.490565,4.605912 v 0.100826 H 81.5068 V 22.286308 C 79.813307,21.647652 80.016505,19.193591 80.016505,17.680396 V 5.0070505 c 0,-1.512393 -0.203198,-4.0001525 1.490295,-4.63880754 v -0.1008262 h -6.436027 v 0.1008262 C 76.798492,1.006898 76.561338,3.4609596 76.561338,5.0070505 Z M 52.961585,5.0070505 64.580767,19.630594 c 1.490025,1.915697 2.540778,3.025588 4.945731,3.83193 V 4.6037457 c 0,-1.8822674 0,-3.2272408 1.761944,-4.23550274 v -0.1008262 h -5.962528 v 0.1008262 C 67.121545,1.3765049 67.08705,2.7214783 67.08705,4.6037457 V 17.344487 L 54.689573,1.8135076 54.214726,1.1411547 C 53.978112,0.87237395 53.842826,0.70441944 53.707272,0.30111464 v -0.0336979 h -4.946541 v 0.1008262 C 50.522406,1.3765049 50.522406,2.7214783 50.522406,4.6037457 V 18.017374 c 0,1.882 0,3.226439 -1.794822,4.268934 v 0.100826 h 5.995945 V 22.286308 C 52.927898,21.243813 52.961585,19.899374 52.961585,18.017374 Z M 34.021901,9.1759598 V 2.5872217 l 2.26913,-0.2358852 c 2.032784,-0.2016524 4.200314,1.0087969 4.200314,3.3286018 0,2.7565402 -3.15037,3.4960215 -5.351587,3.4960215 z m 0,10.5217622 v -8.303586 l 2.370728,-0.134256 c 2.98113,-0.168222 6.165187,1.244147 6.165187,4.504818 0,3.193543 -2.81081,4.470853 -5.58928,4.202072 z m -3.455706,-2.050757 c 0,1.546626 0.203467,4.000687 -1.490834,4.639343 v 0.100826 h 5.58955 c 2.540509,0 5.217381,0.101093 7.588109,-1.04196 2.269668,-1.075925 4.065298,-3.294904 4.065298,-5.88349 0,-3.293834 -2.473405,-5.31116 -5.522176,-5.9503501 1.931185,-0.84004 3.387254,-2.1173502 3.387254,-4.3697594 0,-2.9918904 -2.607612,-4.87415774 -7.078767,-4.87415774 h -8.029268 v 0.1008262 C 30.803888,1.006898 30.566195,3.4609596 30.566195,4.9733526 Z"
               fill="#005b6a"
               id="BNI" />
          </g>
        </g>
      </g>
    </g>
  </g>
</svg>
