<?xml version="1.0" encoding="UTF-8" standalone="no"?>
<svg
   xmlns:dc="http://purl.org/dc/elements/1.1/"
   xmlns:cc="http://creativecommons.org/ns#"
   xmlns:rdf="http://www.w3.org/1999/02/22-rdf-syntax-ns#"
   xmlns:svg="http://www.w3.org/2000/svg"
   xmlns="http://www.w3.org/2000/svg"
   xmlns:sodipodi="http://sodipodi.sourceforge.net/DTD/sodipodi-0.dtd"
   xmlns:inkscape="http://www.inkscape.org/namespaces/inkscape"
   xml:space="preserve"
   width="12.770768mm"
   height="12.735195mm"
   version="1.1"
   style="clip-rule:evenodd;fill-rule:evenodd;image-rendering:optimizeQuality;shape-rendering:geometricPrecision;text-rendering:geometricPrecision"
   viewBox="0 0 1277.0542 1273.497"
   id="svg10"
   sodipodi:docname="IconInstructorProfileComplete.svg"
   inkscape:version="1.0.1 (3bc2e813f5, 2020-09-07)"><metadata
   id="metadata14"><rdf:RDF><cc:Work
       rdf:about=""><dc:format>image/svg+xml</dc:format><dc:type
         rdf:resource="http://purl.org/dc/dcmitype/StillImage" /></cc:Work></rdf:RDF></metadata><sodipodi:namedview
   pagecolor="#ffffff"
   bordercolor="#666666"
   borderopacity="1"
   objecttolerance="10"
   gridtolerance="10"
   guidetolerance="10"
   inkscape:pageopacity="0"
   inkscape:pageshadow="2"
   inkscape:window-width="1920"
   inkscape:window-height="1001"
   id="namedview12"
   showgrid="false"
   inkscape:zoom="1.2968776"
   inkscape:cx="40.536154"
   inkscape:cy="-29.083977"
   inkscape:window-x="-9"
   inkscape:window-y="-9"
   inkscape:window-maximized="1"
   inkscape:current-layer="svg10"
   inkscape:document-rotation="0" />
 <defs
   id="defs4">
  <style
   type="text/css"
   id="style2">
   <![CDATA[
    .fil0 {fill:#6E248D;fill-rule:nonzero}
   ]]>
  </style>
 </defs>
 <g
   id="Layer_x0020_1"
   transform="matrix(3.5572541,0,0,3.5572541,-26302.337,-32854.799)">
  <metadata
   id="CorelCorpID_0Corel-Layer" />
  <path
   class="fil0"
   d="m 7707,9295 v 0 c 14,17 26,35 34,56 7,20 12,41 12,64 0,49 -20,94 -53,127 v 0 0 c -32,32 -77,52 -127,52 -49,0 -94,-20 -126,-52 v 0 -1 c -33,-32 -53,-77 -53,-126 0,-50 20,-94 53,-127 v 0 c 33,-32 77,-52 126,-52 6,0 10,4 10,10 0,5 -4,10 -10,10 -43,0 -83,17 -112,46 v 0 c -29,29 -47,69 -47,113 0,44 18,84 47,113 29,28 68,46 112,46 44,0 84,-18 113,-46 v 0 c 29,-29 47,-69 47,-113 0,-20 -4,-39 -11,-57 -6,-15 -14,-29 -24,-42 l -138,148 c -3,4 -10,4 -14,1 v -1 l -71,-66 c -4,-4 -5,-10 -1,-14 4,-4 10,-5 14,-1 l 65,60 138,-149 c 4,-4 11,-4 15,0 0,0 0,1 1,1 z"
   id="path7" />
 </g>
</svg>
