<?xml version="1.0" encoding="UTF-8"?>
<!DOCTYPE svg PUBLIC "-//W3C//DTD SVG 1.1//EN" "http://www.w3.org/Graphics/SVG/1.1/DTD/svg11.dtd">
<!-- Creator: CorelDRAW X7 -->
<svg xmlns="http://www.w3.org/2000/svg" xml:space="preserve" width="2.5398mm" height="3.3866mm" version="1.1" style="shape-rendering:geometricPrecision; text-rendering:geometricPrecision; image-rendering:optimizeQuality; fill-rule:evenodd; clip-rule:evenodd"
viewBox="0 0 254 339"
 xmlns:xlink="http://www.w3.org/1999/xlink">
 <defs>
  <style type="text/css">
   <![CDATA[
    .fil0 {fill:#1ABC9C}
   ]]>
  </style>
 </defs>
 <g id="Layer_x0020_1">
  <metadata id="CorelCorpID_0Corel-Layer"/>
  <g>
   <path class="fil0" d="M106 72c1,-1 3,0 5,0l0 0c1,1 3,2 3,4l0 0c0,1 0,1 0,2l0 0c0,1 0,1 0,2 0,1 -1,2 -1,3l-1 0 0 1 -2 0c-1,1 -5,5 -12,12 -8,8 -19,19 -29,29l-27 28 -10 10c2,6 4,11 6,16 2,5 3,9 4,13 5,3 11,7 17,11 6,4 13,9 20,15 13,10 19,23 20,36 2,14 0,28 -2,40 -1,6 -2,12 -3,17 0,4 0,8 1,11 2,4 7,5 19,3 13,-2 33,-9 63,-22 -3,-4 -6,-8 -10,-13l0 0 0 -1 0 0c-20,-25 -48,-63 -58,-88l0 0 0 -2c-3,-7 -3,-12 -2,-17 1,-5 4,-9 10,-11 18,-6 29,-12 35,-17 5,-5 5,-10 4,-15 -2,-6 -7,-13 -12,-21l0 0 0 0 0 0c-2,-3 -4,-5 -6,-9 -2,-3 -4,-6 -5,-9l0 0c-3,-5 -6,-11 -9,-17 -2,-6 -5,-13 -6,-20l0 0c0,0 0,-1 0,-1 0,-1 0,-1 0,-2l0 0 0 0 0 0 0 -1 0 0 0 0 0 0 0 0 0 0 1 -1c0,-1 1,-1 2,-2l0 0c1,0 2,-1 3,-1l0 0 0 0 1 0 0 0 0 0 2 0 0 0 2 0 0 0c4,1 11,2 17,5 4,1 7,3 10,6l-1 -4 2 4c1,1 2,2 3,2 2,0 5,-1 7,-1l0 0c3,1 6,2 9,3 1,1 2,2 4,3 1,1 2,3 2,4l1 0c0,1 1,3 1,4l0 0c1,2 1,3 1,5 1,2 1,5 0,8 -1,2 -2,4 -3,6 1,2 1,4 2,7 1,3 2,6 2,9 1,3 1,6 1,9 1,3 1,7 1,10l0 0 0 0 0 0c0,2 -1,4 -2,5 -2,1 -3,2 -5,2l0 0 0 0 0 0 0 0c-2,0 -4,-1 -5,-2l0 0c-1,-2 -2,-3 -2,-5l0 0 0 0 0 0 0 0 0 -3c0,-2 0,-5 0,-7l0 0c0,-3 0,-5 -1,-7 0,-3 -1,-5 -2,-8l0 -1 -1 0 -1 -6 -1 -1 0 0c-1,-1 -1,-2 -1,-2 0,-1 0,-2 0,-2l-5 -16 -1 0 0 0c-3,1 -5,1 -6,0 -2,-1 -3,-2 -4,-3l0 0 0 0c-3,-3 -6,-5 -10,-7 -3,-1 -5,-2 -8,-3 3,8 6,14 9,21 4,7 9,14 13,20l0 0 0 1c3,4 5,8 8,12 2,4 4,8 5,12 4,9 3,18 -5,26 -7,8 -20,15 -42,23 -1,0 -1,1 -1,2 -1,2 0,5 1,9l1 1c4,11 13,26 23,41 10,15 23,31 32,44 3,4 6,8 9,12 3,3 5,6 7,9l0 0 0 0 0 1 0 0c1,1 1,3 0,5 0,1 -2,3 -3,4l0 0c-36,16 -61,24 -77,26l0 0c-17,2 -26,-2 -30,-11 -2,-5 -2,-10 -2,-16 0,-6 1,-12 2,-19l0 0c4,-22 8,-48 -12,-64 -6,-5 -12,-9 -17,-12 -3,-3 -6,-5 -8,-6 0,3 0,5 -1,7 -1,5 -3,8 -6,9l0 0c-4,2 -9,1 -14,-2 -4,-3 -10,-8 -14,-13 -5,-5 -8,-11 -10,-16 -2,-5 -2,-10 0,-13 2,-3 6,-5 13,-3 3,0 7,2 12,4l-2 -4 0 0c-1,-3 -3,-8 -5,-13l0 0 -1 -3 1 -1c2,-3 5,-8 11,-14 7,-9 18,-20 29,-32 10,-10 21,-21 29,-29 8,-7 14,-13 16,-14l0 0 1 -1 0 0 0 0 0 0 0 0 0 0 1 0 0 0 0 0zm7 11l0 0 0 0zm56 20c-1,0 -1,-1 -1,-1l1 1zm1 -10c1,-1 2,-2 2,-2l0 0c0,-1 0,-3 0,-4 0,0 0,-1 0,-2l0 0c0,0 -1,-1 -1,-1 0,-1 0,-1 -1,-2l0 0c0,0 -1,0 -1,0l0 0c-1,-1 -2,-1 -3,-1 -1,0 -1,0 -2,0l6 12zm-135 124l-1 -3c0,0 0,-1 0,-3l3 0 0 0 -2 6zm116 -215c10,-2 19,-2 28,-1 10,1 19,4 27,8 10,5 19,12 27,21 7,8 13,18 17,29 4,11 5,23 5,34 -1,12 -4,23 -9,33l-2 3 -2 -2 -9 -4 -2 -1 1 -3c4,-8 6,-17 7,-27 1,-9 0,-19 -4,-28 -3,-9 -8,-17 -14,-24l0 0c-6,-7 -13,-13 -22,-17 -7,-3 -14,-6 -22,-7 -7,-1 -15,-1 -23,1l-3 0 0 -3 -2 -9 -1 -3 3 0zm9 44c4,-1 9,-1 13,0 5,0 9,2 13,4 5,2 9,5 13,10l0 0c4,4 6,8 8,14 2,5 3,11 2,16 0,6 -1,11 -4,16l-1 3 -3 -2 -8 -4 -3 -1 1 -3c2,-3 3,-6 3,-10 0,-3 0,-7 -1,-10 -2,-4 -3,-7 -6,-9 -2,-3 -5,-5 -8,-6 -2,-2 -5,-3 -8,-3 -3,0 -6,0 -8,0l-3 1 -1 -3 -2 -9 0 -3 3 -1zm-5 -22c7,-1 14,-2 21,-1 7,1 14,3 20,6l0 0c8,4 14,9 20,16 5,6 10,13 13,22 2,8 4,16 3,25 -1,8 -3,16 -7,24l0 0 0 1 0 0 -2 1 -2 -1 -8 -4 -4 -2 3 -2c2,-6 4,-12 5,-18 0,-7 -1,-13 -3,-19 -2,-7 -5,-12 -10,-17 -4,-5 -9,-9 -15,-12l0 0c-5,-2 -10,-4 -15,-4l0 0c-5,-1 -10,-1 -16,0l-3 1 0 -3 -2 -10 -1 -3 3 0zm-121 187l0 0c0,-2 -1,-6 -3,-11 -7,-4 -12,-7 -15,-9 -3,-1 -4,-1 -4,-1l0 0c-1,0 0,1 1,2 2,3 5,7 8,11 3,3 7,7 9,9 2,1 4,2 4,2l0 -3z"/>
  </g>
 </g>
</svg>
