<svg xmlns="http://www.w3.org/2000/svg" xml:space="preserve" width="22" height="22" style="shape-rendering:geometricPrecision;text-rendering:geometricPrecision;image-rendering:optimizeQuality;fill-rule:evenodd;clip-rule:evenodd" viewBox="0 0 3031 3979"><path d="M648 2965c-4-28 1-58 19-83L2418 381l-164-114L366 2965l509 356L2827 532c17-25 44-41 72-46 27-4 58 2 83 19l6 4 1 1c21 18 35 42 39 67 5 28-1 58-19 83l-4 6L994 3539c-6 9-14 17-23 24l-1 1c-8 6-16 11-25 14l-782 388v1h-1l-1 1c-9 3-18 7-29 9-10 2-21 2-31 1-31-4-58-19-75-41-18-23-27-52-24-82l97-867v-63h21l10-20h6L2135 50v-1l1-1c18-25 44-40 72-45 27-5 58 1 83 18l344 241 2 1 1 1c24 18 40 44 44 71 5 27-1 58-18 83L849 3010c-17 25-44 41-72 46-28 4-58-2-83-19-25-18-41-44-46-72zm-528-40 8-17-8 17zm126 752 438-218-383-268-55 486z" style="fill:#fff;fill-rule:nonzero"/></svg>