<?xml version="1.0" encoding="UTF-8"?>
<!DOCTYPE svg PUBLIC "-//W3C//DTD SVG 1.1//EN" "http://www.w3.org/Graphics/SVG/1.1/DTD/svg11.dtd">
<!-- Creator: CorelDRAW X7 -->
<svg xmlns="http://www.w3.org/2000/svg" xml:space="preserve" width="2.9632mm" height="2.6246mm" version="1.1" style="shape-rendering:geometricPrecision; text-rendering:geometricPrecision; image-rendering:optimizeQuality; fill-rule:evenodd; clip-rule:evenodd"
viewBox="0 0 296 262"
 xmlns:xlink="http://www.w3.org/1999/xlink">
 <defs>
  <style type="text/css">
   <![CDATA[
    .fil0 {fill:#EA4C88;fill-rule:nonzero}
   ]]>
  </style>
 </defs>
 <g id="Layer_x0020_1">
  <metadata id="CorelCorpID_0Corel-Layer"/>
  <path class="fil0" d="M142 38c-3,0 -5,-1 -6,-2l0 0c-2,-2 -3,-3 -3,-6l0 0 0 0 0 0 0 0c0,-2 1,-4 2,-6 1,-1 3,-2 5,-2l0 0 1 0 0 0c9,-1 19,-1 29,1 10,3 19,6 28,11 8,5 16,11 23,19 6,7 12,15 16,24l39 81 0 0c1,4 1,8 -1,13l0 0c-1,4 -5,8 -9,13l0 0c-4,3 -8,7 -13,11l0 0c-5,3 -9,7 -15,10 2,4 2,8 3,13 0,5 -1,11 -3,16l0 0c-2,5 -5,10 -9,14l0 0c-4,5 -8,8 -14,11 -5,2 -11,4 -16,4 -6,0 -11,-1 -17,-3l0 0 0 0c-5,-2 -10,-4 -14,-8 -4,-3 -6,-6 -9,-10 -6,2 -12,4 -17,5l0 0c-6,2 -12,3 -17,3 -6,1 -11,0 -16,-1 -4,-1 -8,-4 -10,-8l-38 -81c-4,-9 -7,-18 -8,-28 -2,-10 -1,-20 0,-30 2,-9 5,-18 9,-26 4,-8 8,-15 14,-21l0 0 0 -1c-3,-4 -4,-9 -4,-14 0,-5 0,-10 2,-15l0 0 0 0 0 0 0 0 0 0c2,-5 5,-10 8,-13 3,-4 8,-7 12,-10 3,-1 5,-1 8,-2 2,0 5,0 7,0 3,0 6,0 8,1l0 0c3,1 6,1 8,3l0 0c2,0 4,2 5,4 0,2 0,4 0,6l0 0c-1,2 -3,4 -5,4 -2,1 -4,1 -6,0l0 0c-2,0 -4,-1 -5,-2l0 0c-2,0 -4,0 -5,0 -2,0 -3,0 -4,0l0 0c-2,0 -3,1 -4,1 -3,1 -5,3 -7,5l0 0c-2,3 -4,5 -5,8l0 0c-1,3 -1,6 -1,9 0,3 1,6 2,9l1 1 0 0c1,1 1,2 1,2l0 0 2 3 2 3 -2 2 -3 2c-5,6 -10,13 -14,20 -4,8 -7,16 -8,24 -1,8 -2,17 0,25 1,8 3,16 7,23l30 65c1,-1 2,-2 3,-3 3,-2 6,-5 10,-8 7,-6 15,-12 25,-17 9,-6 20,-12 31,-17 11,-5 22,-10 32,-13 11,-4 21,-7 30,-9l0 0 3 -1 0 0 3 0 0 0 2 0 0 0c2,-1 5,-1 8,-1l1 0 -31 -65c-4,-8 -8,-15 -14,-21l0 0c-6,-6 -12,-11 -19,-15 -8,-4 -15,-7 -24,-9 -8,-2 -16,-2 -24,-1l0 0 0 0zm107 -36c11,4 21,11 29,20l0 0 0 0c12,13 19,31 18,50 -1,4 -1,8 -2,13l-11 -4c0,-3 1,-7 1,-10 1,-16 -5,-31 -15,-42l0 0c-6,-6 -14,-12 -23,-15l3 -12zm-7 29c5,2 10,6 14,10l0 0c7,8 11,18 10,29 0,2 0,3 0,5l-11 -4 0 -1c0,-8 -3,-16 -8,-21l0 0c-2,-3 -5,-5 -8,-6l3 -12zm-200 184c-10,-4 -19,-10 -26,-18l0 0 0 0c-11,-13 -17,-29 -15,-47 0,-4 1,-7 2,-11l10 4c-1,2 -1,5 -1,8 -2,15 3,29 12,39l0 0c6,6 13,11 21,15l-3 10zm7 -26c-5,-2 -9,-6 -13,-10l0 0c-6,-7 -9,-16 -8,-27 0,-1 0,-2 0,-3l10 3 0 1c0,8 2,14 6,19l0 0c2,3 5,5 8,6l-3 11zm137 60l0 0zm78 -86l0 0z"/>
 </g>
</svg>
