<?xml version="1.0" encoding="UTF-8" standalone="no"?>
<svg
   xmlns:dc="http://purl.org/dc/elements/1.1/"
   xmlns:cc="http://creativecommons.org/ns#"
   xmlns:rdf="http://www.w3.org/1999/02/22-rdf-syntax-ns#"
   xmlns:svg="http://www.w3.org/2000/svg"
   xmlns="http://www.w3.org/2000/svg"
   xmlns:sodipodi="http://sodipodi.sourceforge.net/DTD/sodipodi-0.dtd"
   xmlns:inkscape="http://www.inkscape.org/namespaces/inkscape"
   xml:space="preserve"
   width="5.313098mm"
   height="5.6191444mm"
   version="1.1"
   style="clip-rule:evenodd;fill-rule:evenodd;image-rendering:optimizeQuality;shape-rendering:geometricPrecision;text-rendering:geometricPrecision"
   viewBox="0 0 531.3004 561.90452"
   id="svg10"
   sodipodi:docname="IconInstructorProfile.svg"
   inkscape:version="1.0.1 (3bc2e813f5, 2020-09-07)"><metadata
   id="metadata14"><rdf:RDF><cc:Work
       rdf:about=""><dc:format>image/svg+xml</dc:format><dc:type
         rdf:resource="http://purl.org/dc/dcmitype/StillImage" /></cc:Work></rdf:RDF></metadata><sodipodi:namedview
   pagecolor="#ffffff"
   bordercolor="#666666"
   borderopacity="1"
   objecttolerance="10"
   gridtolerance="10"
   guidetolerance="10"
   inkscape:pageopacity="0"
   inkscape:pageshadow="2"
   inkscape:window-width="1920"
   inkscape:window-height="1001"
   id="namedview12"
   showgrid="false"
   inkscape:zoom="1.2968776"
   inkscape:cx="39.001379"
   inkscape:cy="80.222019"
   inkscape:window-x="-9"
   inkscape:window-y="-9"
   inkscape:window-maximized="1"
   inkscape:current-layer="svg10"
   inkscape:document-rotation="0" />
 <defs
   id="defs4">
  <style
   type="text/css"
   id="style2">
   <![CDATA[
    .fil0 {fill:#B3B3B3;fill-rule:nonzero}
   ]]>
  </style>
 </defs>
 <g
   id="Layer_x0020_1"
   transform="matrix(1.5054374,0,0,1.5054374,-11192.342,-9550.4949)">
  <metadata
   id="CorelCorpID_0Corel-Layer" />
  <path
   class="fil0"
   d="m 7683,6561 c -4,-1 -5,-6 -3,-10 1,-3 6,-5 10,-3 15,7 51,29 75,57 15,19 25,40 22,63 -3,17 -25,29 -58,37 -27,7 -62,11 -99,12 -36,1 -74,-1 -105,-6 -48,-7 -84,-20 -89,-42 -5,-22 4,-44 19,-62 24,-29 63,-52 78,-59 3,-2 8,0 10,3 1,4 0,9 -4,10 -14,7 -50,28 -72,55 -13,16 -21,33 -17,49 4,15 35,25 77,31 31,5 67,7 103,6 35,-1 69,-5 96,-11 26,-7 44,-15 46,-25 2,-18 -6,-36 -19,-51 -22,-27 -56,-47 -70,-54 z m -72,-217 c 30,0 57,12 77,31 19,20 31,47 31,77 0,30 -12,57 -31,76 -20,20 -47,32 -77,32 -30,0 -57,-12 -76,-32 -20,-19 -32,-46 -32,-76 0,-30 12,-57 32,-77 19,-19 46,-31 76,-31 z m 66,42 c -17,-17 -40,-27 -66,-27 -26,0 -49,10 -66,27 -17,17 -27,40 -27,66 0,26 10,49 27,66 17,17 40,27 66,27 26,0 49,-10 66,-27 17,-17 27,-40 27,-66 0,-26 -10,-49 -27,-66 z"
   id="path7" />
 </g>
</svg>
