<?xml version="1.0" encoding="UTF-8"?>
<!DOCTYPE svg PUBLIC "-//W3C//DTD SVG 1.1//EN" "http://www.w3.org/Graphics/SVG/1.1/DTD/svg11.dtd">
<!-- Creator: CorelDRAW 2018 (64-Bit) -->
<svg xmlns="http://www.w3.org/2000/svg" xml:space="preserve" width="14px" height="22px" version="1.1" style="shape-rendering:geometricPrecision; text-rendering:geometricPrecision; image-rendering:optimizeQuality; fill-rule:evenodd; clip-rule:evenodd"
viewBox="0 0 21 32"
 xmlns:xlink="http://www.w3.org/1999/xlink">
 <defs>
  <style type="text/css">
   <![CDATA[
    .fil0 {fill:#1A1A1A}
   ]]>
  </style>
 </defs>
 <g id="Layer_x0020_1">
  <metadata id="CorelCorpID_0Corel-Layer"/>
  <path class="fil0" d="M19.6 28.03l-5.2 0 0 0 -7.68 0 -0.12 0 -5.19 0c-0.71,0 -1.3,0.59 -1.3,1.3 0,0.71 0.59,1.3 1.3,1.3l5.19 0 0.12 0 7.68 0 0 0 5.2 0c0.82,0 1.3,-0.59 1.3,-1.3 0,-0.71 -0.48,-1.3 -1.3,-1.3zm-10.4 -12.75l0 -12.88c0,-0.71 0.59,-1.3 1.3,-1.3 0.71,0 1.3,0.59 1.3,1.3l0 12.88c0,0.82 -0.59,1.3 -1.3,1.3 -0.71,0 -1.3,-0.48 -1.3,-1.3zm-3.54 1.06l4.84 4.96 4.96 -4.96c0.47,-0.47 1.3,-0.47 1.77,0 0.59,0.47 0.59,1.3 0,1.89l-5.78 5.79 0 0c-0.48,0.47 -1.3,0.47 -1.89,0l-5.79 -5.79c-0.47,-0.59 -0.47,-1.42 0,-1.89 0.47,-0.47 1.3,-0.47 1.89,0z"/>
 </g>
</svg>
