<svg width="94" height="69" fill="none" xmlns="http://www.w3.org/2000/svg"><path d="m73.065 54.173-39.137 6.72a4.908 4.908 0 0 1-5.67-4.011l-3.08-17.938a1.945 1.945 0 0 1 .359-1.495L42.899 14.22a4.528 4.528 0 0 1 6.142-1.054l22.992 15.357a5.087 5.087 0 0 1 2.189 3.37l2.85 16.607a4.916 4.916 0 0 1-2.219 4.986 4.908 4.908 0 0 1-1.788.686z" fill="#AB69C6"/><path d="M62.277 17.01 31.6 22.275a2.702 2.702 0 0 0-2.206 3.12l5.27 30.69a2.702 2.702 0 0 0 3.12 2.207l30.675-5.267a2.702 2.702 0 0 0 2.206-3.12l-5.27-30.69a2.702 2.702 0 0 0-3.12-2.207z" fill="#fff"/><path d="m51.41 45.689-24.98-7.193a.95.95 0 0 0-1.197 1.073l3.294 19.189a2.966 2.966 0 0 0 3.424 2.421l42.971-7.377a2.964 2.964 0 0 0 2.42-3.425l-3.238-18.86a1.159 1.159 0 0 0-1.815-.747L51.41 45.689z" fill="#6E248D"/><path d="m62.584 25.702-29.9 5.133.14.814 29.9-5.133-.14-.814zM63.168 29.105l-29.9 5.133.14.814 29.9-5.133-.14-.814zM63.752 32.507 33.853 37.64l.14.814 29.9-5.133-.14-.814z" fill="#F2F2F2"/><ellipse cx="41.5" cy="64.5" rx="18.5" ry="1.5" fill="url(#a)" fill-opacity=".4"/><path opacity=".2" d="M16.792 62.68c-1.367.012-3.175-.212-3.539-.434-.277-.169-.387-.775-.425-1.055l-.04.002s.077.976.44 1.198c.365.222 2.173.446 3.54.435.394-.003.53-.144.523-.352-.055.126-.206.204-.5.207z" fill="#6E248D"/><g clip-path="url(#b)"><path d="M26.67 19.43c.025.063.077.195.116.298.094.252.206.581.238.74.045.238.064.473.048.683a2.318 2.318 0 0 1-1.07 1.779 6.63 6.63 0 0 1-.687.351c-.1.046-.23.103-.291.128l-5.457 2.26c-.06.026-.192.078-.295.117a6.345 6.345 0 0 1-.74.238 2.559 2.559 0 0 1-.684.048 2.292 2.292 0 0 1-1.328-.551 2.545 2.545 0 0 1-.45-.52 6.297 6.297 0 0 1-.353-.686c-.046-.1-.101-.23-.127-.291l-2.26-5.456c-.025-.06-.078-.193-.117-.296a6.388 6.388 0 0 1-.238-.74 2.616 2.616 0 0 1-.048-.683 2.33 2.33 0 0 1 .55-1.328 2.54 2.54 0 0 1 .52-.451c.133-.09.444-.241.688-.353.1-.046.23-.101.29-.127l5.456-2.26c.062-.025.194-.078.297-.117.252-.093.58-.207.74-.238.237-.046.473-.064.683-.048.246.02.485.078.708.17.223.093.431.22.62.38.16.137.314.318.45.521.089.133.24.444.352.687.046.1.103.23.128.291l2.26 5.455z" fill="url(#c)"/><path d="M21.724 14.865a4.275 4.275 0 0 0-3.293 0 4.306 4.306 0 0 0-2.326 5.618c.29.7.756 1.308 1.354 1.766l.29 2.293 1.876-1.426a4.308 4.308 0 0 0 2.1-.304 4.307 4.307 0 0 0 2.328-5.62 4.273 4.273 0 0 0-2.329-2.327zm-.276 7.275-.002.001a3.574 3.574 0 0 1-1.87.237l-.151-.022-1.114.846-.172-1.357-.13-.092a3.574 3.574 0 0 1-1.233-1.547 3.58 3.58 0 0 1 1.934-4.671 3.563 3.563 0 0 1 2.737 0 3.578 3.578 0 0 1 0 6.606zm.786-3.223c-.12-.008-.707-.047-.812-.04-.104.003-.178.014-.203.14-.026.127-.122.43-.152.52-.03.09-.085.122-.205.114-.121-.008-.484.02-1.002-.162a3.204 3.204 0 0 1-.838-.458c-.099-.075-.07-.151-.041-.22.026-.064.051-.157.077-.236.026-.079.025-.126.03-.207.007-.08-.034-.13-.08-.17-.046-.04-.446-.446-.61-.61-.163-.16-.232-.1-.296-.078-.059.021-.124.048-.19.076a.395.395 0 0 0-.214.233c-.05.137-.207.484-.005.972.203.49.754.813.832.86.077.044 1.143.777 2.317.795.279.003.49-.012.652-.027.27-.022.482-.124.643-.219.178-.107.487-.484.473-.75-.014-.266-.096-.464-.137-.495-.042-.032-.12-.03-.24-.038z" fill="#fff"/></g><defs><radialGradient id="a" cx="0" cy="0" r="1" gradientUnits="userSpaceOnUse" gradientTransform="matrix(0 1.5 -18.5 0 41.5 64.5)"><stop stop-color="#C4C4C4"/><stop offset="1" stop-color="#C4C4C4" stop-opacity="0"/></radialGradient><linearGradient id="c" x1="17.703" y1="13.46" x2="22.296" y2="24.539" gradientUnits="userSpaceOnUse"><stop stop-color="#60FD7C"/><stop offset="1" stop-color="#2AB826"/></linearGradient><clipPath id="b"><path fill="#fff" transform="rotate(-22.517 45.652 -22.664)" d="M0 0h12v12H0z"/></clipPath></defs></svg>