<svg xmlns="http://www.w3.org/2000/svg" xml:space="preserve" width="20" height="20" style="clip-rule:evenodd;fill-rule:evenodd;image-rendering:optimizeQuality;shape-rendering:geometricPrecision;text-rendering:geometricPrecision" viewBox="0 0 756.067 764.214"><path d="M7776 8527c-1 4-1 7 1 10 1 3 4 5 7 6 4 1 8 1 11 0 3-2 6-4 7-7l109-264c1-2 2-5 2-7 1-3 0-5 0-7-1-3-1-5-3-7-1-2-2-4-4-6s-4-4-6-5c-3-1-5-2-8-3-2-1-5-1-8-1-2 0-5 0-8 1l-308 69h-1c-3 1-5 2-8 3-3 2-5 3-7 5s-3 5-5 7c-1 3-2 5-2 8v9c1 2 2 5 3 7h1v1c1 2 3 4 5 6 3 2 5 3 8 4l120 52 6 2v1h1v1l50 187c0 3 3 6 6 8 3 1 6 2 10 1s7-3 9-6c1-2 2-6 1-9l-49-187-1-3c-1-1-1-2-2-3s-2-3-3-4v-1c-2-1-3-2-5-4-1-1-3-2-5-3l-3-1-123-53h-1v-1h-1v-2l1-1h1l309-70h1c0 1 1 1 1 1 1 0 1 1 1 1v2z" style="fill:#fff;fill-rule:nonzero" transform="matrix(2.05205 0 0 2.05205 -15482.736 -16900.704)"/></svg>