<svg xmlns="http://www.w3.org/2000/svg" xml:space="preserve" width="15" height="15" style="shape-rendering:geometricPrecision;text-rendering:geometricPrecision;image-rendering:optimizeQuality;fill-rule:evenodd;clip-rule:evenodd" viewBox="0 0 3497 3497"><defs><style>.fil0{fill:#1a1a1a;fill-opacity:.4}</style></defs><g id="Layer_x0020_1"><g id="_537457493536"><path class="fil0" d="M1609 279c128 0 252 15 371 43-71 127-111 273-111 428 0 485 393 878 878 878 155 0 301-41 428-112 28 120 43 244 43 372 0 889-721 1609-1609 1609C720 3497-1 2777-1 1888S720 279 1609 279zm839 1609-629 364-630 363V1161l630 364 629 363z"/><path class="fil0" d="M2747-1c414 0 750 337 750 751 0 415-336 751-750 751-415 0-751-336-751-751 0-414 336-751 751-751zm-250 654h8V497c0-41 17-78 43-104 27-27 64-44 104-44h189c40 0 77 17 104 44 27 26 43 63 43 104v156h8c29 0 53 23 53 52v393c0 29-24 53-53 53h-499c-29 0-52-24-52-53V705c0-29 23-52 52-52zm250 159c49 0 88 40 88 89s-39 89-88 89c-50 0-89-40-89-89s39-89 89-89zm-182-159h363V497c0-24-10-46-26-62-15-15-37-25-61-25h-189c-24 0-45 10-61 25-16 16-26 38-26 62v156z"/></g></g></svg>