<svg xmlns="http://www.w3.org/2000/svg" xml:space="preserve" width="131.946" height="167.02" style="clip-rule:evenodd;fill-rule:evenodd;image-rendering:optimizeQuality;shape-rendering:geometricPrecision;text-rendering:geometricPrecision" viewBox="0 0 3491 4419"><path d="M6841 5394h1558c121 0 231 49 311 129 80 79 129 190 129 311v3540c0 121-49 231-129 310-80 80-190 129-311 129H5788c-121 0-231-49-311-129-79-79-129-189-129-310V6851l24-24 1412-1410 24-23zm-444 2653 1395 18-2 160-1395-18zm0-533 1395 18-2 161-1395-18zm-775-710h950c52 0 99-22 133-56 34-33 55-80 55-132v-948zm1299-1249v1061c0 96-39 183-102 246-64 63-151 103-247 103v-1H5509v2410c0 76 31 146 82 197 51 50 120 82 197 82h2611c77 0 147-32 197-82 51-51 82-121 82-197V5834c0-77-31-147-82-197-50-51-120-82-197-82z" style="fill:#6e248d;fill-rule:nonzero" transform="translate(-5348 -5394)"/></svg>