<svg xmlns="http://www.w3.org/2000/svg" xml:space="preserve" width="20" height="20" style="shape-rendering:geometricPrecision;text-rendering:geometricPrecision;image-rendering:optimizeQuality;fill-rule:evenodd;clip-rule:evenodd" viewBox="0 0 1880 1947"><path d="M444 1271c0 26-21 47-47 47s-47-21-47-47V879H122c-18 36-29 193-29 363 0 95 5 191 16 273 10 78 25 142 45 174 4 7 3 11 4 11 28 0 59 1 86 1 16 1 31 1 42 2v-1h325c8 0 15 2 22 6 26 13 45 43 67 76 21 33 46 71 57 71l666-2v-1c216 0 247-202 276-390 2-14 5-28 9-57v-1l11-64c25-147 67-397 67-490 0-87-90-107-200-107-57 0-118 5-177 10-132 11-253 21-306-32-44-44-36-249-31-378 1-34 2-63 2-79 0-70-10-111-32-134-16-16-41-26-77-32-4 100-19 183-43 259-28 89-68 166-117 250-13 23-41 30-64 17-22-13-30-41-17-63 46-79 83-151 108-232 25-80 39-170 39-284h1v-4c2-26 24-45 50-43 86 8 146 24 187 66s58 104 59 200c0 19-2 48-3 82-4 114-11 294 4 308 23 23 123 15 233 5 61-5 124-10 184-10 161 0 294 37 294 201 0 100-43 355-68 505l-11 65-9 56c-35 227-72 470-369 470l-666 3c-63 0-102-61-136-114l-25-39H285c-14 0-28 0-44-1-21-1-46-1-83-1-35 0-62-20-84-56-27-44-46-121-58-211-12-88-17-188-17-285 0-186 23-366 62-430 7-16 23-27 43-27h293c26 0 47 21 47 47v439zm-50 188c37 0 66 29 66 66 0 36-29 65-66 65-36 0-66-29-66-65 0-37 30-66 66-66z" style="fill:#ab69c6;fill-rule:nonzero"/></svg>