<?xml version="1.0" encoding="UTF-8" standalone="no"?>
<svg
   xmlns:dc="http://purl.org/dc/elements/1.1/"
   xmlns:cc="http://creativecommons.org/ns#"
   xmlns:rdf="http://www.w3.org/1999/02/22-rdf-syntax-ns#"
   xmlns:svg="http://www.w3.org/2000/svg"
   xmlns="http://www.w3.org/2000/svg"
   xmlns:sodipodi="http://sodipodi.sourceforge.net/DTD/sodipodi-0.dtd"
   xmlns:inkscape="http://www.inkscape.org/namespaces/inkscape"
   xml:space="preserve"
   width="12.939937mm"
   height="12.974784mm"
   version="1.1"
   style="clip-rule:evenodd;fill-rule:evenodd;image-rendering:optimizeQuality;shape-rendering:geometricPrecision;text-rendering:geometricPrecision"
   viewBox="0 0 1293.9708 1297.4555"
   id="svg10"
   sodipodi:docname="IconInstructorProfileOngoing.svg"
   inkscape:version="1.0.1 (3bc2e813f5, 2020-09-07)"><metadata
   id="metadata14"><rdf:RDF><cc:Work
       rdf:about=""><dc:format>image/svg+xml</dc:format><dc:type
         rdf:resource="http://purl.org/dc/dcmitype/StillImage" /></cc:Work></rdf:RDF></metadata><sodipodi:namedview
   pagecolor="#ffffff"
   bordercolor="#666666"
   borderopacity="1"
   objecttolerance="10"
   gridtolerance="10"
   guidetolerance="10"
   inkscape:pageopacity="0"
   inkscape:pageshadow="2"
   inkscape:window-width="1920"
   inkscape:window-height="1001"
   id="namedview12"
   showgrid="false"
   inkscape:zoom="1.2968776"
   inkscape:cx="-6.1027004"
   inkscape:cy="27.912304"
   inkscape:window-x="-9"
   inkscape:window-y="-9"
   inkscape:window-maximized="1"
   inkscape:current-layer="svg10"
   inkscape:document-rotation="0" />
 <defs
   id="defs4">
  <style
   type="text/css"
   id="style2">
   <![CDATA[
    .fil0 {fill:#F39C12;fill-rule:nonzero}
   ]]>
  </style>
 </defs>
 <g
   id="Layer_x0020_1"
   transform="matrix(3.6140819,0,0,3.6140819,-31182.169,-27929.625)">
  <metadata
   id="CorelCorpID_0Corel-Layer" />
  <path
   class="fil0"
   d="m 8966,7907 c 0,-6 5,-10 10,-10 6,0 10,4 10,10 0,49 -20,94 -52,127 -32,32 -77,53 -127,53 -49,0 -94,-20 -127,-52 -32,-33 -52,-78 -52,-127 v 0 0 0 c -1,-50 19,-95 52,-127 32,-33 77,-53 126,-53 v 0 0 c 6,0 10,5 10,10 v 1 l 1,139 c 12,2 21,13 21,25 0,4 -1,8 -3,12 l 69,47 c 5,4 6,10 3,14 -3,5 -9,6 -14,3 l -74,-51 c -2,0 -4,1 -6,1 -15,0 -26,-12 -26,-26 0,-8 4,-15 10,-20 l -1,-135 c -40,3 -76,20 -102,47 -29,29 -47,69 -47,113 h 1 v 0 h -1 c 1,44 19,84 48,112 28,29 68,47 112,47 44,0 84,-18 113,-47 29,-29 46,-69 46,-113 z"
   id="path7" />
 </g>
</svg>
