<svg xmlns="http://www.w3.org/2000/svg" width="20" height="18" fill="none" xmlns:v="https://vecta.io/nano"><path fill-rule="evenodd" d="M14.262.25c-.721 0-1.434.142-2.1.418s-1.271.68-1.78 1.19L10 2.24l-.382-.382C8.588.829 7.193.25 5.737.25s-2.851.578-3.88 1.607S.25 4.282.25 5.738s.578 2.851 1.607 3.88L4.239 12h2.121L2.918 8.557C2.17 7.809 1.75 6.795 1.75 5.738s.42-2.072 1.168-2.819S4.68 1.75 5.737 1.75s2.072.42 2.819 1.168l.913.913a.75.75 0 0 0 1.061 0l.913-.913c.37-.37.81-.664 1.293-.865s1.002-.304 1.526-.304 1.042.103 1.526.304.923.494 1.293.865a3.99 3.99 0 0 1 .865 1.294c.2.484.304 1.002.304 1.526s-.103 1.042-.304 1.526-.494.923-.865 1.294L10 15.639v1.811a.75.75 0 0 0 .53-.22l7.612-7.612c.51-.509.914-1.114 1.19-1.78s.418-1.379.418-2.1-.142-1.434-.418-2.1-.68-1.27-1.19-1.78-1.114-.914-1.78-1.19-1.379-.418-2.1-.418z" fill="#1db597"/></svg>