<?xml version="1.0" encoding="UTF-8"?>
<!DOCTYPE svg PUBLIC "-//W3C//DTD SVG 1.1//EN" "http://www.w3.org/Graphics/SVG/1.1/DTD/svg11.dtd">
<!-- Creator: CorelDRAW X7 -->
<svg xmlns="http://www.w3.org/2000/svg" xml:space="preserve" width="15px" height="15px" version="1.1" style="shape-rendering:geometricPrecision; text-rendering:geometricPrecision; image-rendering:optimizeQuality; fill-rule:evenodd; clip-rule:evenodd"
viewBox="0 0 3497 3497"
 xmlns:xlink="http://www.w3.org/1999/xlink">
 <defs>
  <style type="text/css">
   <![CDATA[
    .fil0 {fill:#1A1A1A;fill-opacity:0.400000}
   ]]>
  </style>
 </defs>
 <g id="Layer_x0020_1">
  <metadata id="CorelCorpID_0Corel-Layer"/>
  <g id="_537457493536">
   <path class="fil0" d="M1609 279c128,0 252,15 371,43 -71,127 -111,273 -111,428 0,485 393,878 878,878 155,0 301,-41 428,-112 28,120 43,244 43,372 0,889 -721,1609 -1609,1609 -889,0 -1610,-720 -1610,-1609 0,-889 721,-1609 1610,-1609zm839 1609l-629 364 -630 363 0 -727 0 -727 630 364 629 363z"/>
   <path class="fil0" d="M2747 -1c414,0 750,337 750,751 0,415 -336,751 -750,751 -415,0 -751,-336 -751,-751 0,-414 336,-751 751,-751zm-250 654l8 0 0 -156c0,-41 17,-78 43,-104l0 0c27,-27 64,-44 104,-44l189 0c40,0 77,17 104,44l0 0c27,26 43,63 43,104l0 156 8 0c29,0 53,23 53,52l0 393c0,29 -24,53 -53,53l-499 0c-29,0 -52,-24 -52,-53l0 -393c0,-29 23,-52 52,-52zm250 159c49,0 88,40 88,89 0,49 -39,89 -88,89 -50,0 -89,-40 -89,-89 0,-49 39,-89 89,-89zm-182 -159l363 0 0 -156c0,-24 -10,-46 -26,-62l0 0c-15,-15 -37,-25 -61,-25l-189 0c-24,0 -45,10 -61,25l0 0c-16,16 -26,38 -26,62l0 156z"/>
  </g>
 </g>
</svg>
