<?xml version="1.0" encoding="UTF-8" standalone="no"?>
<svg
   xmlns:dc="http://purl.org/dc/elements/1.1/"
   xmlns:cc="http://creativecommons.org/ns#"
   xmlns:rdf="http://www.w3.org/1999/02/22-rdf-syntax-ns#"
   xmlns:svg="http://www.w3.org/2000/svg"
   xmlns="http://www.w3.org/2000/svg"
   xmlns:sodipodi="http://sodipodi.sourceforge.net/DTD/sodipodi-0.dtd"
   xmlns:inkscape="http://www.inkscape.org/namespaces/inkscape"
   xml:space="preserve"
   width="31.270554mm"
   height="22.550398mm"
   version="1.1"
   style="clip-rule:evenodd;fill-rule:evenodd;image-rendering:optimizeQuality;shape-rendering:geometricPrecision;text-rendering:geometricPrecision"
   viewBox="0 0 3127.0001 2254.9999"
   id="svg12"
   sodipodi:docname="icon-akses video.svg"
   inkscape:version="1.0.1 (3bc2e813f5, 2020-09-07)"><metadata
   id="metadata16"><rdf:RDF><cc:Work
       rdf:about=""><dc:format>image/svg+xml</dc:format><dc:type
         rdf:resource="http://purl.org/dc/dcmitype/StillImage" /></cc:Work></rdf:RDF></metadata><sodipodi:namedview
   pagecolor="#ffffff"
   bordercolor="#666666"
   borderopacity="1"
   objecttolerance="10"
   gridtolerance="10"
   guidetolerance="10"
   inkscape:pageopacity="0"
   inkscape:pageshadow="2"
   inkscape:window-width="1920"
   inkscape:window-height="1001"
   id="namedview14"
   showgrid="false"
   inkscape:zoom="1.2968776"
   inkscape:cx="30.822589"
   inkscape:cy="119.03832"
   inkscape:window-x="-9"
   inkscape:window-y="-9"
   inkscape:window-maximized="1"
   inkscape:current-layer="svg12" />
 <defs
   id="defs4">
  <style
   type="text/css"
   id="style2">
   <![CDATA[
    .fil0 {fill:#6E248D;fill-rule:nonzero}
   ]]>
  </style>
 </defs>
 <g
   id="Layer_x0020_1"
   transform="translate(-7651,-5317)">
  <metadata
   id="CorelCorpID_0Corel-Layer" />
  <g
   id="g9">
   <path
   class="fil0"
   d="m 9051,5823 c 115,-5 231,-8 347,-9 116,-1 232,-1 347,1 259,5 517,19 772,41 36,3 70,13 102,29 32,15 60,37 84,63 24,26 43,56 56,89 12,33 19,68 19,104 v 1103 c 0,36 -7,71 -19,103 -13,34 -32,64 -56,90 -24,26 -53,47 -85,63 -31,15 -65,25 -101,28 -165,15 -332,26 -499,33 -167,7 -334,11 -500,11 v 0 c -167,0 -334,-4 -500,-11 -168,-7 -334,-18 -499,-32 -36,-4 -70,-13 -101,-29 -25,-12 -48,-27 -67,-46 l -1,1 -17,-18 c -24,-26 -43,-56 -56,-90 -12,-32 -19,-67 -19,-103 v -569 -26 l 25,2 c 11,1 22,2 31,2 9,1 19,1 30,1 h 23 v 23 567 c 0,23 5,44 12,64 8,21 20,39 34,55 l 52,39 c 19,10 41,16 63,18 167,14 332,25 495,32 166,7 331,11 495,11 v 0 c 165,0 329,-4 493,-11 164,-7 330,-18 496,-33 h 1 c 22,-1 43,-8 62,-17 20,-9 38,-23 53,-39 14,-16 26,-35 34,-55 7,-20 12,-42 12,-64 V 6141 c 0,-23 -5,-45 -12,-64 v 0 c -8,-21 -20,-40 -34,-56 -15,-15 -33,-29 -52,-38 -19,-10 -41,-16 -63,-18 -129,-11 -257,-20 -383,-27 -128,-7 -255,-11 -381,-14 -114,-2 -228,-2 -342,-1 -113,1 -227,4 -342,9 l -23,1 -1,-23 c -1,-10 -2,-21 -3,-30 v 0 c -1,-10 -3,-21 -4,-30 l -4,-26 z m 1,23 c 231,-9 462,-12 693,-7 258,5 514,18 770,41 68,6 128,37 171,84 43,47 68,109 68,177 v 1103 c 0,68 -25,130 -68,177 -43,47 -103,78 -171,84 -332,29 -664,43 -997,43 -333,0 -666,-14 -997,-43 -68,-6 -128,-37 -170,-84 h -1 c -43,-47 -68,-109 -68,-177 v -569 c 20,1 41,2 62,2 v 567 c 0,52 19,100 52,135 v 0 c 33,36 78,60 130,64 332,29 662,43 992,43 330,0 660,-14 992,-43 51,-4 97,-28 130,-64 33,-36 52,-83 52,-135 V 6141 c 0,-52 -19,-100 -52,-135 -33,-36 -78,-60 -130,-64 -257,-23 -512,-36 -766,-41 -228,-5 -456,-2 -685,7 -1,-21 -4,-41 -7,-62 z m -742,-529 c 89,0 175,18 252,50 v 0 c 81,34 154,83 215,143 l 23,23 -1,1 c 106,117 171,272 171,443 0,89 -18,174 -50,252 -34,80 -83,153 -143,214 v 0 c -61,61 -134,110 -215,143 -77,32 -163,50 -252,50 -89,0 -174,-18 -252,-50 -70,-29 -135,-70 -191,-121 v 1 l -23,-23 c -61,-61 -110,-133 -143,-214 v 0 c -32,-78 -50,-163 -50,-252 0,-89 18,-175 50,-252 v -1 c 33,-80 82,-153 143,-214 l 7,-7 v 0 c 59,-57 130,-104 207,-136 78,-32 163,-50 252,-50 z m -57,258 c 0,-16 7,-30 17,-40 v 0 c 10,-11 25,-17 40,-17 16,0 30,6 41,17 10,10 16,24 16,40 v 373 l 245,184 v 0 c 13,9 20,23 22,37 2,15 -1,30 -10,42 l -1,2 h -1 c -9,12 -22,19 -36,21 v 0 c -14,2 -29,-2 -42,-11 l -1,-1 h -1 l -266,-200 v 0 l -13,-10 -10,-7 v -12 -16 z m 443,16 c -50,-50 -110,-91 -177,-119 v 0 c -64,-26 -135,-41 -209,-41 -74,0 -144,15 -209,41 -66,28 -126,69 -176,119 h -1 c -50,50 -90,110 -118,177 -26,64 -41,134 -41,209 0,74 15,144 41,208 v 0 c 28,67 68,127 118,177 l 5,5 c 50,48 108,87 172,114 65,26 135,41 209,41 74,0 145,-15 209,-41 v 0 c 67,-28 127,-68 177,-119 v 0 c 50,-50 91,-110 118,-177 v 0 c 27,-64 42,-134 42,-208 0,-75 -15,-145 -42,-209 -26,-64 -64,-121 -111,-170 z m 970,874 v 0 l 6,3 c 13,8 21,20 25,33 v 0 c 3,12 2,24 -2,35 v 1 l -3,6 c -8,13 -20,22 -33,25 v 0 c -12,3 -24,3 -35,-2 h -1 l -5,-3 h -1 l -301,-174 v 0 l -5,-3 c -2,-1 -5,-2 -7,-3 -1,0 -3,-1 -6,-1 -4,0 -8,2 -12,4 l -2,1 -4,3 c -1,1 -2,3 -3,4 v 1 c -1,1 -2,3 -3,5 0,2 0,5 0,7 v 570 c 0,3 0,6 0,8 1,2 2,4 3,5 v 1 l 3,4 c 2,1 4,3 6,4 v 0 c 2,1 4,2 6,3 2,0 4,0 6,0 3,0 5,0 7,0 v 0 c 2,-1 4,-2 6,-3 l 493,-285 v 0 c 3,-1 5,-3 6,-4 l 3,-4 1,-1 c 1,-2 2,-4 2,-5 0,-2 1,-5 1,-8 0,-2 -1,-5 -1,-7 0,-2 -1,-4 -2,-5 l -1,-1 -3,-4 v 0 c -1,-1 -3,-3 -6,-4 v 0 0 c -13,-8 -21,-20 -25,-33 -3,-12 -2,-24 2,-35 v -1 l 4,-6 c 7,-13 19,-22 33,-25 13,-4 28,-2 41,5 11,6 20,14 28,22 5,5 9,10 14,15 v 0 l 7,12 c 6,10 11,21 14,33 v 0 c 3,11 4,22 4,34 0,12 -1,24 -4,35 v 0 c -3,12 -8,23 -14,33 l -15,26 -3,-2 c -9,9 -19,18 -31,24 l -494,285 -1,1 v 0 l -2,1 -1,1 -1,1 h -1 c -8,4 -17,8 -26,10 -12,3 -23,5 -35,5 -22,0 -45,-6 -67,-19 -10,-5 -19,-13 -28,-21 l -3,-3 -3,2 -15,-26 c -6,-10 -10,-21 -13,-33 v 0 c -3,-11 -5,-23 -5,-35 v -570 c 0,-12 2,-23 5,-35 v 0 c 3,-11 7,-22 13,-32 l 22,-38 3,7 c 4,-3 8,-7 13,-10 v -1 l 9,-5 2,-2 v 0 c 11,-6 22,-10 33,-13 v 0 c 11,-3 23,-5 34,-5 23,0 46,6 67,18 l 9,6 z m 150,235 z"
   id="path7" />
  </g>
 </g>
</svg>
