<?xml version="1.0" encoding="UTF-8" standalone="no"?>
<svg
   xmlns:dc="http://purl.org/dc/elements/1.1/"
   xmlns:cc="http://creativecommons.org/ns#"
   xmlns:rdf="http://www.w3.org/1999/02/22-rdf-syntax-ns#"
   xmlns:svg="http://www.w3.org/2000/svg"
   xmlns="http://www.w3.org/2000/svg"
   xmlns:sodipodi="http://sodipodi.sourceforge.net/DTD/sodipodi-0.dtd"
   xmlns:inkscape="http://www.inkscape.org/namespaces/inkscape"
   xml:space="preserve"
   width="16.944061mm"
   height="16.944061mm"
   version="1.1"
   style="clip-rule:evenodd;fill-rule:evenodd;image-rendering:optimizeQuality;shape-rendering:geometricPrecision;text-rendering:geometricPrecision"
   viewBox="0 0 1694.0747 1694.0747"
   id="svg18"
   sodipodi:docname="IconRecordVoice.svg"
   inkscape:version="1.0.1 (3bc2e813f5, 2020-09-07)"><metadata
   id="metadata22"><rdf:RDF><cc:Work
       rdf:about=""><dc:format>image/svg+xml</dc:format><dc:type
         rdf:resource="http://purl.org/dc/dcmitype/StillImage" /></cc:Work></rdf:RDF></metadata><sodipodi:namedview
   pagecolor="#ffffff"
   bordercolor="#666666"
   borderopacity="1"
   objecttolerance="10"
   gridtolerance="10"
   guidetolerance="10"
   inkscape:pageopacity="0"
   inkscape:pageshadow="2"
   inkscape:window-width="1920"
   inkscape:window-height="1001"
   id="namedview20"
   showgrid="false"
   inkscape:zoom="8.260392"
   inkscape:cx="28.397899"
   inkscape:cy="35.17029"
   inkscape:window-x="-9"
   inkscape:window-y="-9"
   inkscape:window-maximized="1"
   inkscape:current-layer="svg18" />
 <defs
   id="defs9">
  <style
   type="text/css"
   id="style2">
   <![CDATA[
    .fil1 {fill:white;fill-rule:nonzero}
    .fil0 {fill:url(#id0);fill-opacity:0.800000}
   ]]>
  </style>
  <linearGradient
   id="id0"
   gradientUnits="userSpaceOnUse"
   x1="0.18000001"
   y1="664.63"
   x2="1329.08"
   y2="664.63">
   <stop
   offset="0"
   style="stop-opacity:1; stop-color:#7D369A"
   id="stop4" />
   <stop
   offset="1"
   style="stop-opacity:1; stop-color:#C158D1"
   id="stop6" />
  </linearGradient>
 </defs>
 <g
   id="Layer_x0020_1"
   transform="scale(1.2746988)">
  <metadata
   id="CorelCorpID_0Corel-Layer" />
  <g
   id="_582093805184">
   <path
   class="fil0"
   d="m 665,0 c 367,0 664,298 664,665 0,367 -297,664 -664,664 C 298,1329 0,1032 0,665 0,298 298,0 665,0 Z"
   id="path12"
   style="fill:url(#id0)" />
   <path
   class="fil1"
   d="m 665,315 v 0 c 48,0 92,20 123,52 32,31 52,75 52,123 v 165 c 0,49 -20,92 -52,124 v 0 c -32,32 -75,51 -123,51 v 0 c -48,0 -92,-19 -124,-51 v 0 C 509,747 490,704 490,655 V 490 c 0,-48 19,-92 51,-123 v 0 c 32,-32 76,-52 124,-52 z M 635,984 V 933 C 572,926 516,897 473,855 424,806 394,738 394,664 h 50 c 0,60 25,115 65,155 40,40 95,65 156,65 60,0 115,-25 155,-65 40,-40 65,-95 65,-155 h 51 c 0,74 -31,142 -80,191 -42,42 -99,71 -161,78 v 51 c 0,16 -14,30 -30,30 v 0 c -17,0 -30,-14 -30,-30 z m 30,-619 v 0 c -35,0 -66,14 -89,37 -22,23 -36,54 -36,88 v 165 c 0,35 14,66 37,89 h -1 c 23,22 54,36 89,36 v 0 c 34,0 65,-14 88,-36 v 0 c 22,-23 36,-54 36,-89 V 490 c 0,-34 -14,-65 -36,-88 -23,-23 -54,-37 -88,-37 z"
   id="path14" />
  </g>
 </g>
</svg>
