<svg xmlns="http://www.w3.org/2000/svg" width="64.959" height="75.839" version="1.0" viewBox="0 0 1719 2007" shape-rendering="geometricPrecision" text-rendering="geometricPrecision" image-rendering="optimizeQuality" fill-rule="evenodd" clip-rule="evenodd"><path d="M1202 455v1408l420-311V144l-420 311zm-17 1538c-8 7-19 12-31 12-11 0-21-4-29-10l-559-362-486 360c-8 7-19 12-31 12-27 0-48-22-48-48V431c0-14 7-29 19-38L533 14c9-8 20-12 32-12 10 0 21 4 29 10l558 361 487-359c8-8 19-12 31-12 26 0 48 21 48 48v1526c0 14-7 28-20 38l-513 379zm-79-123V457L612 137v1413l494 320zM96 455v1408l421-311V144L96 455z" fill="#1abc9c" fill-rule="nonzero"/></svg>