<svg xmlns="http://www.w3.org/2000/svg" xml:space="preserve" width="89.086" height="85.023" style="clip-rule:evenodd;fill-rule:evenodd;image-rendering:optimizeQuality;shape-rendering:geometricPrecision;text-rendering:geometricPrecision" viewBox="0 0 2357.02 2249.521"><path d="M8803 8365c58 0 113 17 159 46l164-37c113-26 203 53 203 167v69c43 43 69 101 69 166v484c0 129-105 235-234 235h-715c-129 0-235-106-235-235v-484c0-89 51-168 125-207 23-15 48-26 74-32l138-31c52-85 145-141 252-141zm199 77c30 27 55 61 72 100h90c47 0 90 13 127 37v-38c0-90-67-150-157-130zm85 138c8 26 12 53 12 81 0 26-4 52-11 77h76c-135 45-580 52-723 0h76c-7-25-10-51-10-77 0-28 3-55 11-81h-69c-33 0-63 8-90 22-13 9-28 16-39 27-1-1 1 1 0 0-41 36-67 89-67 147v484c0 108 88 196 196 196h715c108 0 196-88 196-196v-484c0-108-88-196-196-196zm-181 158c2-8 3-16 3-25 0-10-2-20-5-28-4-8-9-14-15-20-7-6-15-10-25-14s-21-7-33-10l-32-6c-11-3-20-6-27-10-6-5-9-11-9-20 0-10 4-18 12-23 8-6 19-9 32-9 16 0 28 4 35 11 8 7 13 16 14 28h54c-1-14-4-25-9-35-5-9-11-17-18-24-8-6-16-11-25-15s-18-6-27-8v-42h-34l-12 3v38c-12 1-23 4-33 9-10 4-18 10-25 17s-12 15-16 24c-4 10-5 20-5 31 0 20 5 36 17 49 11 12 30 21 56 26l42 8c6 1 11 3 16 5 4 2 7 4 9 6 3 2 4 5 5 8 1 2 2 5 2 8 0 7-3 13-8 18zm-135 0c-1-1-2-2-3-2-10-8-17-18-19-31h-54c1 12 4 23 8 33z" style="fill:#fff" transform="matrix(1.99073 0 0 1.99073 -16351.826 -16652.425)"/><path d="M8771 9197c0-19 15-35 35-35s36 16 36 35-16 35-36 35c-19 0-35-15-35-35zm35 110c115 0 208-93 208-207 0-56-22-106-57-143-38-40-91-65-151-65-59 0-112 25-150 65-35 37-57 87-57 143 0 114 93 207 207 207zm-31-166v-174h62v174z" style="fill:#ff6c5c" transform="matrix(1.99073 0 0 1.99073 -16351.826 -16652.425)"/></svg>