<svg xmlns="http://www.w3.org/2000/svg" xml:space="preserve" width="20.106" height="20.052" style="clip-rule:evenodd;fill-rule:evenodd;image-rendering:optimizeQuality;shape-rendering:geometricPrecision;text-rendering:geometricPrecision" viewBox="0 0 531.962 530.543"><g transform="matrix(1.41856 0 0 1.41856 -11456.33 -10338.501)"><path d="M8196 7560c-4 4-10 5-14 1s-5-10-1-14l69-77 7-7 7 6 27 24 55-60c3-4 10-5 14-1s4 10 0 14l-61 68-7 7-7-6-27-24zm67-272c52 0 99 21 133 55s55 80 55 132-21 99-55 133c-34 33-81 54-133 54-51 0-98-21-132-54v-1c-34-33-55-80-55-132s21-98 55-132 81-55 132-55zm119 69c-31-30-72-49-119-49-46 0-88 19-118 49s-49 72-49 118 19 88 49 118c30 31 72 49 118 49 47 0 88-18 119-49 30-30 49-72 49-118s-19-88-49-118z" style="fill:#b3b3b3;fill-rule:nonzero"/><circle cx="8258" cy="7430" r="14" style="fill:#b3b3b3"/></g></svg>