<?xml version="1.0" encoding="UTF-8" standalone="no"?>
<svg
   xmlns:dc="http://purl.org/dc/elements/1.1/"
   xmlns:cc="http://creativecommons.org/ns#"
   xmlns:rdf="http://www.w3.org/1999/02/22-rdf-syntax-ns#"
   xmlns:svg="http://www.w3.org/2000/svg"
   xmlns="http://www.w3.org/2000/svg"
   xmlns:sodipodi="http://sodipodi.sourceforge.net/DTD/sodipodi-0.dtd"
   xmlns:inkscape="http://www.inkscape.org/namespaces/inkscape"
   xml:space="preserve"
   width="6.5602365mm"
   height="6.5602365mm"
   version="1.1"
   style="clip-rule:evenodd;fill-rule:evenodd;image-rendering:optimizeQuality;shape-rendering:geometricPrecision;text-rendering:geometricPrecision"
   viewBox="0 0 656.01205 656.01205"
   id="svg10"
   sodipodi:docname="IconFailed.svg"
   inkscape:version="1.0.1 (3bc2e813f5, 2020-09-07)"><metadata
   id="metadata14"><rdf:RDF><cc:Work
       rdf:about=""><dc:format>image/svg+xml</dc:format><dc:type
         rdf:resource="http://purl.org/dc/dcmitype/StillImage" /></cc:Work></rdf:RDF></metadata><sodipodi:namedview
   pagecolor="#ffffff"
   bordercolor="#666666"
   borderopacity="1"
   objecttolerance="10"
   gridtolerance="10"
   guidetolerance="10"
   inkscape:pageopacity="0"
   inkscape:pageshadow="2"
   inkscape:window-width="1920"
   inkscape:window-height="1001"
   id="namedview12"
   showgrid="false"
   inkscape:zoom="1.2968776"
   inkscape:cx="12.680529"
   inkscape:cy="8.4473961"
   inkscape:window-x="-9"
   inkscape:window-y="-9"
   inkscape:window-maximized="1"
   inkscape:current-layer="svg10"
   inkscape:document-rotation="0" />
 <defs
   id="defs4">
  <style
   type="text/css"
   id="style2">
   <![CDATA[
    .fil0 {fill:#F75C4C;fill-rule:nonzero}
   ]]>
  </style>
 </defs>
 <g
   id="Layer_x0020_1"
   transform="matrix(1.4513541,0,0,1.4513541,-11800.96,-11963.512)">
  <metadata
   id="CorelCorpID_0Corel-Layer" />
  <path
   class="fil0"
   d="m 8453,8283 c 5,-8 16,-10 24,-5 v 0 c 32,20 59,49 77,82 18,33 29,70 29,109 0,63 -26,119 -67,160 -41,41 -97,66 -159,66 -63,0 -119,-25 -160,-66 -41,-41 -66,-97 -66,-160 0,-62 25,-119 66,-159 41,-41 97,-67 160,-67 10,0 18,8 18,18 0,10 -8,18 -18,18 -53,0 -100,22 -135,56 -34,34 -55,82 -55,134 0,53 21,100 55,135 35,34 82,55 135,55 52,0 100,-21 134,-55 34,-35 56,-82 56,-135 0,-33 -9,-64 -24,-92 -13,-23 -30,-43 -51,-59 l -97,134 73,92 c 7,7 5,19 -2,25 -8,6 -19,5 -25,-3 l -68,-84 -60,83 -29,-21 66,-91 -65,-81 c -6,-7 -5,-19 2,-25 8,-6 19,-5 26,3 l 59,73 z"
   id="path7" />
 </g>
</svg>
