<?xml version="1.0" encoding="UTF-8" standalone="no"?>
<!-- Created with Inkscape (http://www.inkscape.org/) -->

<svg
   xmlns:dc="http://purl.org/dc/elements/1.1/"
   xmlns:cc="http://creativecommons.org/ns#"
   xmlns:rdf="http://www.w3.org/1999/02/22-rdf-syntax-ns#"
   xmlns:svg="http://www.w3.org/2000/svg"
   xmlns="http://www.w3.org/2000/svg"
   xmlns:sodipodi="http://sodipodi.sourceforge.net/DTD/sodipodi-0.dtd"
   xmlns:inkscape="http://www.inkscape.org/namespaces/inkscape"
   sodipodi:docname="Indomaret (2010).svg"
   inkscape:version="0.92.3 (2405546, 2018-03-11)"
   version="1.1"
   id="svg13358"
   viewBox="0 0 1000 324.517"
   height="324.517"
   width="1000">
  <defs
     id="defs13360" />
  <sodipodi:namedview
     units="px"
     inkscape:window-maximized="1"
     inkscape:window-y="-8"
     inkscape:window-x="-8"
     inkscape:window-height="706"
     inkscape:window-width="1024"
     showgrid="false"
     inkscape:current-layer="layer1"
     inkscape:document-units="px"
     inkscape:cy="110.65036"
     inkscape:cx="449.42281"
     inkscape:zoom="0.49497475"
     inkscape:pageshadow="2"
     inkscape:pageopacity="0.0"
     borderopacity="1.0"
     bordercolor="#666666"
     pagecolor="#ffffff"
     id="base" />
  <metadata
     id="metadata13363">
    <rdf:RDF>
      <cc:Work
         rdf:about="">
        <dc:format>image/svg+xml</dc:format>
        <dc:type
           rdf:resource="http://purl.org/dc/dcmitype/StillImage" />
        <dc:title></dc:title>
      </cc:Work>
    </rdf:RDF>
  </metadata>
  <g
     inkscape:label="Layer 1"
     inkscape:groupmode="layer"
     id="layer1"
     transform="translate(0,-727.84518)">
    <path
       inkscape:connector-curvature="0"
       id="path14133"
       d="M 23.878517,727.84548 C 10.649517,727.84548 0,738.49499 0,751.724 v 77.52166 H 1000 V 751.724 c 0,-13.22901 -10.64954,-23.87852 -23.87847,-23.87852 z"
       style="opacity:1;fill:#d61c24;fill-opacity:1;fill-rule:nonzero;stroke:none;stroke-width:40.31712723;stroke-linecap:square;stroke-linejoin:round;stroke-miterlimit:4;stroke-dasharray:none;stroke-opacity:0.44897958"
       sodipodi:nodetypes="ssccsss" />
    <path
       style="opacity:1;fill:#ffcf21;fill-opacity:1;fill-rule:nonzero;stroke:none;stroke-width:40.31712723;stroke-linecap:square;stroke-linejoin:round;stroke-miterlimit:4;stroke-dasharray:none;stroke-opacity:0.44897958"
       d="m 0,950.96007 v 77.52353 c 0,13.2291 10.649517,23.8786 23.878517,23.8786 H 976.12153 c 13.22893,0 23.87847,-10.6495 23.87847,-23.8786 v -77.52353 z"
       id="rect14080"
       inkscape:connector-curvature="0"
       sodipodi:nodetypes="csssscc" />
    <path
       sodipodi:nodetypes="ccccc"
       inkscape:connector-curvature="0"
       id="path14135"
       d="M 0,839.36821 V 940.83945 H 1000 V 839.36821 Z"
       style="opacity:1;fill:#006ab4;fill-opacity:1;fill-rule:nonzero;stroke:none;stroke-width:40.31712723;stroke-linecap:square;stroke-linejoin:round;stroke-miterlimit:4;stroke-dasharray:none;stroke-opacity:0.44897958" />
    <path
       style="color:#000000;font-style:normal;font-variant:normal;font-weight:normal;font-stretch:normal;font-size:medium;line-height:normal;font-family:sans-serif;text-indent:0;text-align:start;text-decoration:none;text-decoration-line:none;text-decoration-style:solid;text-decoration-color:#000000;letter-spacing:normal;word-spacing:normal;text-transform:none;writing-mode:lr-tb;direction:ltr;baseline-shift:baseline;text-anchor:start;white-space:normal;clip-rule:nonzero;display:inline;overflow:visible;visibility:visible;opacity:1;isolation:auto;mix-blend-mode:normal;color-interpolation:sRGB;color-interpolation-filters:linearRGB;solid-color:#000000;solid-opacity:1;fill:#ffffff;fill-opacity:1;fill-rule:evenodd;stroke:none;stroke-width:40.31712723;stroke-linecap:butt;stroke-linejoin:miter;stroke-miterlimit:4;stroke-dasharray:none;stroke-dashoffset:0;stroke-opacity:1;color-rendering:auto;image-rendering:auto;shape-rendering:auto;text-rendering:auto;enable-background:accumulate"
       d="m 500.40042,743.94053 c -139.43712,0.004 -259.4532,21.63063 -349.09809,51.15482 -22.09556,8.03085 -30.75363,24.03447 -30.75363,37.33403 v 115.4253 c 0,17.24044 12.98502,32.1928 32.90944,38.1736 118.86608,37.31922 244.74895,51.19322 346.97877,51.19322 120.23717,0.2295 246.17259,-19.8245 346.6553,-50.66653 24.3784,-9.70363 32.63856,-23.19086 33.08505,-38.70048 V 833.3071 c 0,-17.2363 -13.15517,-32.71065 -33.07158,-38.69457 -91.5066,-32.3904 -215.91177,-50.09367 -346.66877,-50.672 z"
       id="path14010"
       inkscape:connector-curvature="0"
       sodipodi:nodetypes="cccsccccsccc" />
    <path
       style="fill:#d61c24;fill-opacity:1;fill-rule:evenodd;stroke:none;stroke-width:1.03377247px;stroke-linecap:butt;stroke-linejoin:miter;stroke-opacity:1"
       d="m 500.43691,763.11403 c -137.53585,0 -241.50753,20.65322 -341.29158,49.85606 -13.81694,4.14749 -19.42314,13.34426 -19.42314,20.33727 v 114.54739 c 0,6.993 5.6062,16.18977 19.42314,20.33727 99.78405,29.20283 209.97444,49.85608 341.29158,49.85608 118.11809,0.2295 242.71973,-19.63208 341.1437,-49.85608 13.81693,-4.1475 19.42313,-13.34427 19.42313,-20.33727 V 833.30736 c 0,-6.99301 -5.6062,-16.18978 -19.42313,-20.33727 C 743.15664,782.74612 618.555,762.88454 500.43691,763.11403 Z m -0.004,29.79726 c 103.73735,0 229.47972,12.06172 322.53482,35.22052 13.06325,3.17798 18.36307,13.2064 18.36307,18.56472 v 87.76903 c 0,5.35832 -3.56184,14.61666 -16.62509,17.79463 -83.57369,18.94486 -212.59786,36.16647 -324.2728,35.99062 -124.15396,0 -229.21165,-13.54127 -323.55263,-35.91764 -14.53003,-3.53481 -17.48543,-15.13258 -17.48543,-20.4909 v -85.14574 c 0,-5.35832 5.29982,-15.38674 18.36306,-18.56472 94.34099,-22.37638 220.94883,-35.22052 322.675,-35.22052 z"
       id="path13994"
       inkscape:connector-curvature="0" />
    <path
       style="fill:#006ab4;fill-opacity:1;fill-rule:evenodd;stroke:none;stroke-width:1.03377247px;stroke-linecap:butt;stroke-linejoin:miter;stroke-opacity:1"
       d="m 299.85079,828.23552 c 0,0 -14.33235,2.52199 -46.07476,8.20595 -8.59103,2.30198 -43.0243,8.05443 -41.31595,34.39093 0.80436,12.4003 12.62821,20.70982 22.42476,20.70982 12.56363,0 16.81329,-13.02621 16.81329,-13.02621 0,0 -14.72963,-0.64225 -14.72963,-13.29125 0,-7.72823 9.03231,-11.79484 17.11864,-14.23993 8.08634,-2.44509 17.95331,-4.97306 22.71474,-5.76318 l -20.73671,50.91615 c -7.76516,19.89876 -21.85788,30.41902 -38.66384,30.67488 -16.80597,0.25586 -21.80855,-15.43808 -23.24478,-20.79816 -7.52267,5.52158 -10.03997,10.90306 -10.03997,15.63223 0,9.64545 16.18465,20.48513 31.97693,20.48513 11.87296,0 25.04183,-3.53884 32.43209,-10.92912 11.14831,-8.80564 17.87283,-14.20904 30.71713,-25.04228 8.45171,-5.77402 11.41947,-5.7253 12.95517,-5.31381 1.53569,0.41149 3.66798,3.17062 0.70096,8.30966 l -11.96807,32.57227 h 19.27143 l 13.61964,-34.7097 c 2.6911,-4.66113 4.03807,-6.82082 7.25535,-6.36427 3.21728,0.45653 3.03229,3.76093 1.76487,7.34945 l -5.75359,15.47668 c -1.84627,6.89039 -1.89977,12.05496 4.09819,16.9189 4.70418,1.72613 6.89992,1.01856 10.34721,-0.97172 l 21.98883,-10.8792 c 1.30153,6.92464 5.37019,13.17986 15.80124,13.17986 9.21965,0 13.19914,-3.55863 16.32358,-6.68307 -0.23696,4.62867 1.86359,6.61778 5.42903,6.61778 3.56543,0 6.49486,-1.15726 9.1777,-2.19121 l 25.17288,-11.94886 c -1.16561,-2.10931 -2.13158,-4.33001 -2.88446,-6.63121 l -10.76397,4.14811 c -7.70258,2.0639 -7.73201,-1.41187 -6.01476,-4.38624 l 27.74817,-74.49124 h -17.27036 l -12.83225,34.69242 c -14.88018,-3.98715 -32.66915,0.62165 -43.54748,19.46347 -4.46984,7.30921 -6.58725,12.94315 -6.83862,20.53699 l -7.98895,3.6584 c -6.86383,3.96283 -8.308,-1.17209 -6.41038,-5.00269 l 8.70528,-22.9452 c 2.0809,-6.98449 1.76362,-13.81661 -2.75389,-16.32935 -5.52831,-3.075 -14.21804,-0.8061 -24.9866,8.82626 -3.00806,-9.76785 -10.84286,-13.82573 -23.56357,-6.48143 l -23.25823,14.52991 z m 89.57614,66.08555 c 0.30606,-0.0205 0.60927,-0.0103 0.90837,0.0327 5.81233,0.82479 1.80521,12.33981 0.51083,14.58176 -5.23811,11.89177 -12.42722,17.83111 -15.83004,17.83111 -8.39164,-1.53362 0.18905,-17.47069 1.71878,-20.12025 2.83135,-4.90406 8.10124,-12.01782 12.69206,-12.32526 z"
       id="path14125"
       inkscape:connector-curvature="0"
       sodipodi:nodetypes="ccsscssccscssccsccccscccccscscccccccccccccsccccccccsc" />
    <path
       style="fill:#006ab4;fill-opacity:1;fill-rule:evenodd;stroke:none;stroke-width:1.03377247px;stroke-linecap:butt;stroke-linejoin:miter;stroke-opacity:1"
       d="m 799.41582,846.09161 -11.90278,32.88914 h -8.76864 l -5.61914,14.7738 h 9.04133 l -7.56262,18.97761 c -3.69136,13.77636 -14.30487,18.62278 -21.91968,18.582 -7.6148,-0.0408 -12.81645,-1.99812 -14.67203,-6.69268 32.71277,-16.68317 34.84885,-44.38103 13.11264,-45.8347 -9.88936,-0.22231 -20.04547,7.12923 -28.36078,21.53177 -3.97739,6.88904 -5.36452,16.46732 -2.77885,24.69086 -6.47262,3.98274 -11.10486,6.76564 -17.1897,5.1352 -3.04909,-0.817 -3.35992,-4.27221 -1.41151,-9.64435 1.94842,-5.37215 5.29871,-13.32851 9.58866,-18.76828 l -1.46912,-9.77878 c -10.01603,0.13586 -13.77481,-2.22693 -15.7321,-5.33686 l 9.92859,-9.61363 c -2.03597,-0.35124 -4.98873,-0.041 -8.97221,-0.79506 -3.98349,-0.75401 -5.32851,-2.43969 -8.47482,-5.70173 l -10.26658,14.6605 c 1.14965,9.24765 -4.28839,18.19519 -11.09812,26.33474 -6.25102,7.14633 -8.51361,9.2361 -13.71372,11.95847 -3.06118,1.60258 -8.21159,3.12071 -6.82326,-2.06061 l 16.09313,-42.449 h -12.91483 c -1.14143,0 -4.86391,0.7506 -6.10694,4.35744 -1.0568,-1.48351 -3.82213,-4.02521 -8.7917,-4.02521 -9.88934,-0.22231 -21.47953,7.46834 -30.53469,21.0363 -4.53874,7.42185 -7.75525,13.37915 -8.30583,20.54082 l -9.30636,4.62054 c -6.86382,3.96283 -8.308,-1.17209 -6.41038,-5.0027 l 8.64383,-22.91831 c 2.0901,-7.0154 2.06228,-14.61793 -2.51768,-17.01493 -5.0435,-2.63962 -12.15002,-1.20116 -23.57701,8.51899 -1.60059,-5.97348 -6.5198,-10.2973 -11.03283,-10.2973 -4.51301,0 -12.92427,2.36193 -20.30461,9.74229 0.8075,-5.84976 -1.55518,-9.50608 -5.99172,-9.50608 -4.43653,0 -7.01683,1.34862 -11.81635,3.39338 l -21.93121,9.14889 c 1.20703,2.43941 2.15361,5.00741 2.82301,7.65864 l 16.84978,-5.15057 -17.51424,47.67639 h 19.15044 l 13.14913,-33.72452 c 1.87966,-5.66058 5.90651,-8.07422 8.34615,-7.42052 2.43964,0.65371 2.40186,4.0831 0.74512,8.57277 l -12.3195,32.57227 h 20.49089 l 12.81114,-33.71492 c 2.44281,-5.43711 4.50437,-7.38978 7.9083,-7.38978 3.40392,0 2.55242,4.71537 1.61123,7.38018 l -5.87457,15.87036 c -2.3999,12.57251 1.73935,21.71223 15.14828,15.5535 l 21.53946,-11.0866 c 1.77253,6.96531 6.96473,13.38726 15.8742,13.38726 9.21966,0 13.33165,-3.55863 16.45609,-6.68307 0.68485,4.89205 2.60873,6.79254 7.71049,6.79254 6.00911,0 14.14065,-5.12705 17.3971,-7.00763 9.97144,-5.75843 18.68606,-15.70772 27.04723,-28.50673 2.37509,-4.11378 6.7265,-7.42217 9.45614,-6.69075 2.72965,0.7314 1.97637,4.20839 1.05432,5.80543 -2.10113,3.63929 -6.37936,11.80627 -8.02544,17.39518 -2.12893,8.61771 -2.81446,18.82974 16.09697,18.82974 8.96885,0 19.77756,-4.63002 26.13118,-9.4696 4.05596,5.433 10.78807,9.2798 20.86538,9.62324 13.91366,0 21.23063,-5.0519 25.01349,-7.12285 2.79546,5.07827 8.89605,7.14397 15.92221,7.14397 6.69647,0 14.79953,-2.43219 18.93153,-5.2658 4.13198,-2.83363 8.37411,-6.40225 11.45914,-9.72118 0,0 -2.25457,-4.1589 -6.27976,-3.08036 -6.65298,4.99512 -11.86713,8.08092 -16.98421,7.50694 -5.11708,-0.57396 -4.2493,-4.61138 -2.80958,-11.72226 l 9.58674,-25.80086 h 8.76865 l 5.5769,-14.7738 h -8.85507 l 12.22157,-32.88914 z m -50.30736,46.48188 c 0.14817,0.003 0.28839,0.0208 0.41865,0.0556 3.55807,0.95339 -1.00945,8.1035 -3.08803,10.18207 -5.2678,5.26782 -7.40112,8.40653 -10.64875,7.94095 -3.32571,-0.89112 2.03755,-9.387 4.84522,-12.19469 2.14203,-2.62695 6.25042,-6.02929 8.47291,-5.98402 z m -118.01376,1.79559 c 5.8512,0.83032 1.83213,12.28028 0.53773,14.52223 -5.23809,11.89178 -12.16411,17.70052 -15.56694,17.70052 -7.34031,0 -2.35743,-13.60872 1.63044,-19.94549 3.27751,-5.67682 8.70471,-12.67322 13.39877,-12.27726 z"
       id="path14019"
       inkscape:connector-curvature="0"
       sodipodi:nodetypes="ccccccsccscssccccscccsccscccccccscscscccccccsccccsccccscsscsscscccssccscccccccccscccccsccc" />
    <path
       style="opacity:1;fill:#d61c24;fill-opacity:1;fill-rule:nonzero;stroke:none;stroke-width:40.31712723;stroke-linecap:square;stroke-linejoin:round;stroke-miterlimit:4;stroke-dasharray:none;stroke-opacity:0.44897958"
       d="M 457.09108,871.02252 A 36.517459,37.75406 0 0 0 420.57425,908.778 36.517459,37.75406 0 0 0 457.09108,946.53158 36.517459,37.75406 0 0 0 493.6098,908.778 36.517459,37.75406 0 0 0 457.09108,871.02252 Z m 0,5.00653 a 31.675463,32.748099 0 0 1 31.67543,32.74895 31.675463,32.748099 0 0 1 -31.67543,32.74895 31.675463,32.748099 0 0 1 -31.67545,-32.74895 31.675463,32.748099 0 0 1 31.67545,-32.74895 z m 0,3.85045 a 27.950852,28.89736 0 0 0 -27.94983,28.8985 27.950852,28.89736 0 0 0 27.94983,28.89659 27.950852,28.89736 0 0 0 27.95173,-28.89659 27.950852,28.89736 0 0 0 -27.95173,-28.8985 z m 0,5.00846 a 23.108856,23.891399 0 0 1 23.11034,23.89004 23.108856,23.891399 0 0 1 -23.11034,23.89197 23.108856,23.891399 0 0 1 -23.10845,-23.89197 23.108856,23.891399 0 0 1 23.10845,-23.89004 z m 0,3.84852 a 19.384245,20.04066 0 0 0 -19.38475,20.04152 19.384245,20.04066 0 0 0 19.38475,20.0396 19.384245,20.04066 0 0 0 19.38473,-20.0396 19.384245,20.04066 0 0 0 -19.38473,-20.04152 z m 0,5.00655 a 14.542251,15.034699 0 0 1 14.54333,15.03497 14.542251,15.034699 0 0 1 -14.54333,15.03498 14.542251,15.034699 0 0 1 -14.54145,-15.03498 14.542251,15.034699 0 0 1 14.54145,-15.03497 z"
       id="path14029"
       inkscape:connector-curvature="0" />
  </g>
</svg>
