<?xml version="1.0" encoding="UTF-8"?>
<!DOCTYPE svg PUBLIC "-//W3C//DTD SVG 1.1//EN" "http://www.w3.org/Graphics/SVG/1.1/DTD/svg11.dtd">
<!-- Creator: CorelDRAW X7 -->
<svg xmlns="http://www.w3.org/2000/svg" xml:space="preserve" width="18.8806mm" height="18.1186mm" version="1.1" style="shape-rendering:geometricPrecision; text-rendering:geometricPrecision; image-rendering:optimizeQuality; fill-rule:evenodd; clip-rule:evenodd"
viewBox="0 0 1888 1812"
 xmlns:xlink="http://www.w3.org/1999/xlink">
 <defs>
  <style type="text/css">
   <![CDATA[
    .fil0 {fill:url(#id0);fill-opacity:0.600000}
   ]]>
  </style>
  <linearGradient id="id0" gradientUnits="userSpaceOnUse" x1="944.03" y1="1811.86" x2="944.03" y2="0">
   <stop offset="0" style="stop-opacity:1; stop-color:#8435A6"/>
   <stop offset="0.501961" style="stop-opacity:1; stop-color:#662980"/>
   <stop offset="1" style="stop-opacity:1; stop-color:#8435A6"/>
  </linearGradient>
 </defs>
 <g id="Layer_x0020_1">
  <metadata id="CorelCorpID_0Corel-Layer"/>
  <path class="fil0" d="M180 0l1528 0c99,0 180,81 180,180l0 1452c0,99 -81,180 -180,180l-1528 0c-99,0 -180,-81 -180,-180l0 -1452c0,-99 81,-180 180,-180zm624 471l280 0 0 482 143 0 -142 194 -141 194 -141 -194 -142 -194 143 0 0 -482z"/>
 </g>
</svg>
