<?xml version="1.0" encoding="UTF-8" standalone="no"?>
<svg
   xmlns:dc="http://purl.org/dc/elements/1.1/"
   xmlns:cc="http://creativecommons.org/ns#"
   xmlns:rdf="http://www.w3.org/1999/02/22-rdf-syntax-ns#"
   xmlns:svg="http://www.w3.org/2000/svg"
   xmlns="http://www.w3.org/2000/svg"
   xmlns:xlink="http://www.w3.org/1999/xlink"
   xmlns:sodipodi="http://sodipodi.sourceforge.net/DTD/sodipodi-0.dtd"
   xmlns:inkscape="http://www.inkscape.org/namespaces/inkscape"
   xml:space="preserve"
   width="6.3525686mm"
   height="5.3652134mm"
   version="1.1"
   style="clip-rule:evenodd;fill-rule:evenodd;image-rendering:optimizeQuality;shape-rendering:geometricPrecision;text-rendering:geometricPrecision"
   viewBox="0 0 635.16772 536.77482"
   id="svg71"
   sodipodi:docname="IconPaketFirdaus.svg"
   inkscape:version="1.0.1 (3bc2e813f5, 2020-09-07)"><metadata
   id="metadata75"><rdf:RDF><cc:Work
       rdf:about=""><dc:format>image/svg+xml</dc:format><dc:type
         rdf:resource="http://purl.org/dc/dcmitype/StillImage" /></cc:Work></rdf:RDF></metadata><sodipodi:namedview
   pagecolor="#ffffff"
   bordercolor="#666666"
   borderopacity="1"
   objecttolerance="10"
   gridtolerance="10"
   guidetolerance="10"
   inkscape:pageopacity="0"
   inkscape:pageshadow="2"
   inkscape:window-width="1920"
   inkscape:window-height="1001"
   id="namedview73"
   showgrid="false"
   inkscape:zoom="30.514989"
   inkscape:cx="16.074295"
   inkscape:cy="21.451476"
   inkscape:window-x="-9"
   inkscape:window-y="-9"
   inkscape:window-maximized="1"
   inkscape:current-layer="svg71" />
 <defs
   id="defs21">
  <style
   type="text/css"
   id="style2">
   <![CDATA[
    .fil4 {fill:none}
    .fil1 {fill:#16A085}
    .fil0 {fill:#1ABC9C}
    .fil5 {fill:#FFFBC4}
    .fil3 {fill:#1A1A1A;fill-opacity:0.101961}
    .fil7 {fill:#4D4D4D;fill-opacity:0.101961}
    .fil2 {fill:url(#id2)}
    .fil8 {fill:url(#id3)}
    .fil6 {fill:url(#id4)}
   ]]>
  </style>
    <clipPath
   id="id0">
     <path
   d="m 105,432 -20,-35 186,10 -89,98 z"
   id="path4" />
    </clipPath>
    <clipPath
   id="id1">
     <path
   d="m 176,495 c -36,-42 -40,-86 -73,-109 65,-8 102,20 168,21 z"
   id="path7" />
    </clipPath>
  <linearGradient
   id="id2"
   gradientUnits="userSpaceOnUse"
   x1="128.08"
   y1="398.98001"
   x2="228.02"
   y2="503.45999">
   <stop
   offset="0"
   style="stop-opacity:1; stop-color:#FFE3A6"
   id="stop10" />
   <stop
   offset="1"
   style="stop-opacity:1; stop-color:#E8AC88"
   id="stop12" />
  </linearGradient>
  <linearGradient
   id="id3"
   gradientUnits="userSpaceOnUse"
   x1="46.349998"
   y1="523.77002"
   x2="175.00999"
   y2="528.54999">
   <stop
   offset="0"
   style="stop-opacity:1; stop-color:#27AE60"
   id="stop15" />
   <stop
   offset="1"
   style="stop-opacity:1; stop-color:#156E3A"
   id="stop17" />
  </linearGradient>
  <linearGradient
   id="id4"
   gradientUnits="userSpaceOnUse"
   xlink:href="#id2"
   x1="139.85001"
   y1="389.97"
   x2="234.33"
   y2="489.29001">
  </linearGradient>
 <linearGradient
   inkscape:collect="always"
   xlink:href="#id2"
   id="linearGradient900"
   gradientUnits="userSpaceOnUse"
   x1="128.08"
   y1="398.98001"
   x2="228.02"
   y2="503.45999" /></defs>
 <g
   id="Layer_x0020_1"
   transform="matrix(0.74661615,0,0,0.74661615,-1.7552471,-0.26454703)">
  <metadata
   id="CorelCorpID_0Corel-Layer" />
  <g
   id="_216415158688">
   <path
   class="fil0"
   d="M 269,105 626,9 c 38,-10 78,13 88,51 l 95,357 c 11,38 -12,77 -50,88 l -96,25 c 1,-22 2,-42 7,-46 11,-51 56,-12 52,-44 -1,-1 -1,-3 -1,-4 H 546 l 39,-28 -3,-3 c 39,-1 70,-1 83,-2 24,-137 -86,-127 -135,-161 -13,-10 -13,-16 -23,-23 -20,8 -8,17 -49,35 -55,23 -135,37 -112,145 h -9 l -7,6 -8,-13 c -9,4 -18,10 -27,17 l -17,-1 -2,-1 -58,-214 c -10,-38 13,-78 51,-88 z m 293,452 -38,11 -70,-67 17,-13 h 91 z m -96,26 -16,5 v -10 c 5,1 10,3 16,5 z m 73,-398 c -56,7 -63,-55 -7,-61 -34,-12 -67,3 -63,41 3,35 46,49 70,20 z"
   id="path24" />
   <rect
   class="fil0"
   transform="matrix(0.29747,-0.079707,0.079707,0.29747,621.331,623.587)"
   width="364"
   height="364"
   rx="247"
   ry="247"
   id="rect26"
   x="0"
   y="0" />
   <rect
   class="fil0"
   transform="matrix(0.127924,-0.0342772,0.0342772,0.127924,81.7026,153.652)"
   width="364"
   height="364"
   rx="575"
   ry="575"
   id="rect28"
   x="0"
   y="0" />
   <rect
   class="fil0"
   transform="matrix(0.215079,-0.0576303,0.0576303,0.215079,763.071,12.2446)"
   width="364"
   height="364"
   rx="342"
   ry="342"
   id="rect30"
   x="0"
   y="0" />
   <polygon
   class="fil1"
   points="2,664 9,671 50,638 178,541 105,457 39,416 38,439 122,541 "
   id="polygon32" />
   <path
   class="fil0"
   d="M 8,671 159,533 317,600 199,635 C 198,529 49,658 49,658 Z"
   id="path34" />
   <path
   class="fil0"
   d="m 566,629 -136,-130 -222,11 -49,23 140,170 28,-8 c -5,-131 78,-169 199,-55 z"
   id="path36" />
   <polygon
   class="fil0"
   points="400,421 39,416 159,533 430,499 "
   id="polygon38" />
   <polygon
   class="fil2"
   points="182,505 105,432 85,397 271,407 "
   id="polygon40"
   style="fill:url(#linearGradient900)" />
   <g
   clip-path="url(#id0)"
   id="g45">
    <g
   id="g43">
     <path
   id="1"
   class="fil3"
   d="m 176,495 c -36,-42 -47,-84 -81,-107 66,-8 110,18 176,19 z" />
    </g>
   </g>
   <polygon
   class="fil4"
   points="182,505 105,432 85,397 271,407 "
   id="polygon47" />
   <path
   class="fil5"
   d="M 182,525 308,406 297,391 c -39,18 -80,69 -121,104 -30,-33 -48,-81 -91,-98 l -19,19 z"
   id="path49" />
   <polygon
   class="fil1"
   points="560,407 313,397 170,532 430,499 "
   id="polygon51" />
   <polygon
   class="fil1"
   points="313,699 299,703 159,534 313,397 323,413 203,528 "
   id="polygon53" />
   <polygon
   class="fil0"
   points="313,397 551,394 560,407 323,413 "
   id="polygon55" />
   <path
   class="fil6"
   d="m 176,495 c -36,-42 -40,-86 -73,-109 65,-8 102,20 168,21 z"
   id="path57"
   style="fill:url(#id4)" />
   <g
   clip-path="url(#id1)"
   id="g63">
    <g
   id="g61">
     <path
   id="path59"
   class="fil7"
   d="m 190,357 c 0,0 -1,-1 0,-1 0,0 1,1 2,1 1,0 0,-1 0,-1 -1,-1 0,-1 0,-1 4,1 5,1 5,1 0,0 -2,1 -3,1 -1,0 -1,0 -2,0 -1,0 -2,1 -2,0 z" />
    </g>
   </g>
   <path
   class="fil4"
   d="m 176,495 c -36,-42 -40,-86 -73,-109 65,-8 102,20 168,21 z"
   id="path65" />
   <path
   class="fil8"
   d="m 176,495 c -1,-2 0,14 -28,30 -25,14 -48,14 -73,28 -14,8 -26,16 -16,3 5,-7 -42,0 12,-15 3,0 51,-9 80,-23 17,-8 21,-28 21,-28 z"
   id="path67"
   style="fill:url(#id3)" />
  </g>
 </g>
</svg>
