<?xml version="1.0" encoding="UTF-8" standalone="no"?>
<svg
   xmlns:dc="http://purl.org/dc/elements/1.1/"
   xmlns:cc="http://creativecommons.org/ns#"
   xmlns:rdf="http://www.w3.org/1999/02/22-rdf-syntax-ns#"
   xmlns:svg="http://www.w3.org/2000/svg"
   xmlns="http://www.w3.org/2000/svg"
   xmlns:sodipodi="http://sodipodi.sourceforge.net/DTD/sodipodi-0.dtd"
   xmlns:inkscape="http://www.inkscape.org/namespaces/inkscape"
   xml:space="preserve"
   width="12.711437mm"
   height="12.711437mm"
   version="1.1"
   style="clip-rule:evenodd;fill-rule:evenodd;image-rendering:optimizeQuality;shape-rendering:geometricPrecision;text-rendering:geometricPrecision"
   viewBox="0 0 1270.707 1270.707"
   id="svg18"
   sodipodi:docname="icon_play voice.svg"
   inkscape:version="1.0.1 (3bc2e813f5, 2020-09-07)"><metadata
   id="metadata22"><rdf:RDF><cc:Work
       rdf:about=""><dc:format>image/svg+xml</dc:format><dc:type
         rdf:resource="http://purl.org/dc/dcmitype/StillImage" /></cc:Work></rdf:RDF></metadata><sodipodi:namedview
   pagecolor="#ffffff"
   bordercolor="#666666"
   borderopacity="1"
   objecttolerance="10"
   gridtolerance="10"
   guidetolerance="10"
   inkscape:pageopacity="0"
   inkscape:pageshadow="2"
   inkscape:window-width="1920"
   inkscape:window-height="1001"
   id="namedview20"
   showgrid="false"
   inkscape:zoom="14.516902"
   inkscape:cx="16.222294"
   inkscape:cy="20.185642"
   inkscape:window-x="-9"
   inkscape:window-y="-9"
   inkscape:window-maximized="1"
   inkscape:current-layer="svg18" />
 <defs
   id="defs9">
  <style
   type="text/css"
   id="style2">
   <![CDATA[
    .fil1 {fill:white}
    .fil0 {fill:url(#id0);fill-opacity:0.800000}
   ]]>
  </style>
  <linearGradient
   id="id0"
   gradientUnits="userSpaceOnUse"
   x1="0.55000001"
   y1="465.66"
   x2="930.77002"
   y2="465.66">
   <stop
   offset="0"
   style="stop-opacity:1; stop-color:#7D369A"
   id="stop4" />
   <stop
   offset="1"
   style="stop-opacity:1; stop-color:#C158D1"
   id="stop6" />
  </linearGradient>
 </defs>
 <g
   id="Layer_x0020_1"
   transform="matrix(1.3663515,0,0,1.3663515,-1.3663515,-1.3663515)">
  <metadata
   id="CorelCorpID_0Corel-Layer" />
  <g
   id="_582239240832">
   <path
   class="fil0"
   d="M 466,1 C 723,1 931,209 931,466 931,723 723,931 466,931 209,931 1,723 1,466 1,209 209,1 466,1 Z"
   id="path12"
   style="fill:url(#id0)" />
   <path
   class="fil1"
   d="m 597,488 -89,51 -89,51 c -8,5 -17,5 -25,0 -8,-4 -13,-12 -13,-22 V 466 363 c 0,-9 5,-17 13,-22 8,-5 17,-5 25,0 l 89,51 89,52 c 8,4 13,12 13,22 0,9 -5,17 -13,22 z"
   id="path14" />
  </g>
 </g>
</svg>
