<?xml version="1.0" encoding="UTF-8"?>
<!DOCTYPE svg PUBLIC "-//W3C//DTD SVG 1.1//EN" "http://www.w3.org/Graphics/SVG/1.1/DTD/svg11.dtd">
<!-- Creator: CorelDRAW X7 -->
<svg xmlns="http://www.w3.org/2000/svg" xml:space="preserve" width="8.2126mm" height="8.2126mm" version="1.1" style="shape-rendering:geometricPrecision; text-rendering:geometricPrecision; image-rendering:optimizeQuality; fill-rule:evenodd; clip-rule:evenodd"
viewBox="0 0 821 821"
 xmlns:xlink="http://www.w3.org/1999/xlink">
 <defs>
  <style type="text/css">
   <![CDATA[
    .fil3 {fill:none}
    .fil4 {fill:white;fill-rule:nonzero}
    .fil2 {fill:#666666;fill-opacity:0.200000}
    .fil1 {fill:#9B59B6;fill-opacity:0.400000}
    .fil0 {fill:url(#id1)}
   ]]>
  </style>
   <clipPath id="id0">
    <path d="M411 0l0 0c226,0 411,185 411,411l0 0c0,226 -185,411 -411,411l0 0c-226,0 -411,-185 -411,-411l0 0c0,-226 185,-411 411,-411z"/>
   </clipPath>
  <linearGradient id="id1" gradientUnits="userSpaceOnUse" x1="122.9" y1="122.9" x2="698.36" y2="698.36">
   <stop offset="0" style="stop-opacity:1; stop-color:#AB69C6"/>
   <stop offset="0.501961" style="stop-opacity:1; stop-color:#C94AE6"/>
   <stop offset="1" style="stop-opacity:1; stop-color:#C73FCC"/>
  </linearGradient>
 </defs>
 <g id="Layer_x0020_1">
  <metadata id="CorelCorpID_0Corel-Layer"/>
  <path class="fil0" d="M411 0l0 0c226,0 411,185 411,411l0 0c0,226 -185,411 -411,411l0 0c-226,0 -411,-185 -411,-411l0 0c0,-226 185,-411 411,-411z"/>
  <g style="clip-path:url(#id0)">
   <g id="_365841256960">
    <path id="1" class="fil1" d="M0 0l0 0c226,0 411,185 411,411l0 0c0,226 -185,411 -411,411l0 0c-227,0 -411,-185 -411,-411l0 0c0,-226 184,-411 411,-411z"/>
    <path class="fil2" d="M280 45l0 0c226,0 411,185 411,411l0 0c0,226 -185,411 -411,411l0 0c-226,0 -411,-185 -411,-411l0 0c0,-226 185,-411 411,-411z"/>
   </g>
  </g>
  <path class="fil3" d="M411 0l0 0c226,0 411,185 411,411l0 0c0,226 -185,411 -411,411l0 0c-226,0 -411,-185 -411,-411l0 0c0,-226 185,-411 411,-411z"/>
  <g>
   <path class="fil4" d="M187 274c5,0 9,3 10,6l0 0c1,2 1,3 1,4 0,2 0,3 -1,5 -1,3 -5,6 -10,6 -5,0 -9,2 -13,6 -3,3 -6,8 -6,13l0 253c0,6 3,11 6,15 4,4 10,6 16,6l442 0c6,0 11,-2 15,-6 4,-4 6,-9 6,-15l0 -253c0,-5 -2,-10 -5,-13 -3,-4 -8,-6 -13,-6l-117 0c-3,0 -5,-1 -7,-3l0 0c-2,-1 -3,-4 -4,-6l-7 -42 0 0c-1,-1 -1,-3 -2,-4 -1,-1 -1,-2 -2,-3l-1 0c-1,-1 -2,-2 -4,-3 -1,0 -3,-1 -5,-1l-151 0c-3,0 -5,2 -7,3 -2,2 -4,5 -4,8l-1 1 -10 42c-1,5 -4,7 -8,8 -2,0 -3,0 -5,0 -1,-1 -2,-1 -3,-2 -4,-2 -6,-6 -4,-11l0 0 10 -42c1,-7 5,-15 11,-20 6,-5 13,-8 21,-8l151 0c4,0 9,1 12,2 4,2 8,4 11,6l3 3 0 0c1,2 3,4 5,6l0 0c1,4 3,7 3,12l0 0 7 33 108 0c11,0 21,4 28,12 7,7 11,17 11,28l0 253c0,12 -4,22 -12,30 -8,7 -19,12 -30,12l-442 0c-12,0 -23,-5 -31,-12 -7,-8 -12,-18 -12,-30l0 -253c0,-11 5,-21 12,-28 7,-8 18,-12 28,-12zm223 63c-6,0 -13,1 -19,2l0 0c-7,2 -13,4 -20,7l0 0 -1 0 0 0 0 0c-12,3 -23,12 -32,20l-2 2c-6,6 -12,15 -17,24 -5,10 -8,19 -10,28 -1,10 -2,21 -1,33 1,10 3,20 7,28l1 3c7,14 17,28 29,38 13,10 28,18 45,21 10,1 21,2 32,1 10,-1 20,-3 28,-7l1 0c1,-1 3,-2 5,-3l0 0c4,-2 9,-4 13,-7l0 0c7,-4 16,-12 23,-21 6,-8 12,-16 14,-23 0,-2 1,-3 1,-4 1,-1 2,-1 2,-2 4,-13 6,-24 6,-35 0,-12 -1,-23 -5,-36 -1,0 -2,-1 -2,-2l0 0c-1,-1 -2,-2 -2,-3 -3,-12 -11,-24 -21,-34 -10,-10 -22,-18 -34,-21l-2 0 0 -1c-6,-2 -12,-4 -18,-6 -7,-1 -13,-2 -21,-2zm0 -22c9,0 17,1 25,3 7,2 15,5 23,8 7,2 14,6 21,10 8,5 15,11 21,16l0 0c5,6 10,12 15,19 4,6 7,12 9,18 1,1 2,2 3,2 0,1 1,3 1,4 6,17 9,32 8,47 0,15 -3,29 -8,46l0 0c0,2 -1,3 -2,4l0 0c0,1 -1,1 -2,2 -2,6 -6,12 -10,18 -4,6 -9,11 -14,16 -6,7 -12,12 -19,17 -6,4 -13,7 -20,10l0 0 -3 2c-13,6 -31,9 -49,9 -17,0 -34,-3 -47,-10 -15,-6 -29,-15 -40,-27 -11,-11 -20,-24 -26,-39l-1 -1c-5,-13 -9,-31 -8,-49 0,-17 2,-34 9,-47 3,-7 7,-16 12,-24l0 0c4,-6 9,-13 14,-17l0 0 2 -2c12,-10 24,-20 39,-24 8,-3 15,-6 23,-8 8,-1 16,-3 24,-3l0 0zm-48 241l0 0 0 0zm-133 -258c5,0 9,0 12,2 3,1 5,3 8,5l0 0 2 2c6,7 9,15 9,23 0,5 -1,9 -3,14 -2,4 -4,8 -8,11 -5,5 -12,8 -20,8 -4,0 -9,-1 -12,-3 -3,-1 -5,-2 -7,-3l0 1 -4 -4c-6,-7 -9,-15 -9,-24 0,-7 2,-15 7,-21l0 0 2 -2c3,-3 6,-5 10,-7 4,-1 8,-2 13,-2l0 0z"/>
  </g>
 </g>
</svg>
