<?xml version="1.0" encoding="UTF-8" standalone="no"?>
<svg
   xmlns:dc="http://purl.org/dc/elements/1.1/"
   xmlns:cc="http://creativecommons.org/ns#"
   xmlns:rdf="http://www.w3.org/1999/02/22-rdf-syntax-ns#"
   xmlns:svg="http://www.w3.org/2000/svg"
   xmlns="http://www.w3.org/2000/svg"
   xmlns:sodipodi="http://sodipodi.sourceforge.net/DTD/sodipodi-0.dtd"
   xmlns:inkscape="http://www.inkscape.org/namespaces/inkscape"
   xml:space="preserve"
   width="12.735195mm"
   height="12.770768mm"
   version="1.1"
   style="clip-rule:evenodd;fill-rule:evenodd;image-rendering:optimizeQuality;shape-rendering:geometricPrecision;text-rendering:geometricPrecision"
   viewBox="0 0 1273.497 1277.0542"
   id="svg10"
   sodipodi:docname="IconInstructorProfileOverdue.svg"
   inkscape:version="1.0.1 (3bc2e813f5, 2020-09-07)"><metadata
   id="metadata14"><rdf:RDF><cc:Work
       rdf:about=""><dc:format>image/svg+xml</dc:format><dc:type
         rdf:resource="http://purl.org/dc/dcmitype/StillImage" /></cc:Work></rdf:RDF></metadata><sodipodi:namedview
   pagecolor="#ffffff"
   bordercolor="#666666"
   borderopacity="1"
   objecttolerance="10"
   gridtolerance="10"
   guidetolerance="10"
   inkscape:pageopacity="0"
   inkscape:pageshadow="2"
   inkscape:window-width="1920"
   inkscape:window-height="1001"
   id="namedview12"
   showgrid="false"
   inkscape:zoom="1.2968776"
   inkscape:cx="-4.063054"
   inkscape:cy="34.942331"
   inkscape:window-x="-9"
   inkscape:window-y="-9"
   inkscape:window-maximized="1"
   inkscape:current-layer="svg10"
   inkscape:document-rotation="0" />
 <defs
   id="defs4">
  <style
   type="text/css"
   id="style2">
   <![CDATA[
    .fil0 {fill:#D73C2C;fill-rule:nonzero}
   ]]>
  </style>
 </defs>
 <g
   id="Layer_x0020_1"
   transform="matrix(3.5572541,0,0,3.5572541,-30499.897,-26828.81)">
  <metadata
   id="CorelCorpID_0Corel-Layer" />
  <path
   class="fil0"
   d="m 8843,7590 c -4,-3 -5,-9 -2,-14 3,-4 9,-5 14,-2 24,16 43,38 57,64 13,25 20,54 20,84 0,49 -20,94 -52,126 v 0 0 c -33,33 -77,53 -127,53 -49,0 -94,-20 -127,-53 v 0 0 c -32,-32 -52,-77 -52,-126 0,-19 3,-37 8,-54 6,-18 14,-34 24,-49 17,-24 39,-43 64,-56 l 1,-1 c 25,-12 53,-20 82,-20 6,0 10,5 10,10 v 1 190 c 0,5 -4,10 -10,10 -5,0 -10,-5 -10,-10 v -180 c -22,1 -44,7 -63,17 v 0 c -23,12 -43,29 -57,50 -10,13 -17,28 -22,44 -5,15 -7,31 -7,48 0,44 18,83 46,112 29,29 69,47 113,47 44,0 84,-18 113,-47 v 0 c 29,-29 46,-68 46,-112 0,-27 -6,-52 -18,-74 -12,-23 -29,-43 -51,-58 z m -90,191 c 14,0 25,11 25,25 0,14 -11,26 -25,26 -14,0 -25,-12 -25,-26 0,-14 11,-25 25,-25 z"
   id="path7" />
 </g>
</svg>
