<svg xmlns="http://www.w3.org/2000/svg" xml:space="preserve" width="30" height="30" version="1.0" style="shape-rendering:geometricPrecision;text-rendering:geometricPrecision;image-rendering:optimizeQuality;fill-rule:evenodd;clip-rule:evenodd" viewBox="0 0 3395 3217"><defs><style>.fil0{fill:#934daf}.fil1{fill:#c5a8d2}</style></defs><g id="Layer_x0020_1"><g id="_963687854976"><path class="fil0" d="M690 2221h409v996H690z"/><path class="fil1" d="M1456 1481h409v1736h-409z"/><path class="fil0" d="M2222 612h409v2605h-409z"/><path class="fil1" d="M2988 970h409v2247h-409zM305 358c0 197 160 357 357 357 174 0 319-124 351-288 5 28 7 55 7 84 0 282-229 511-511 511S-2 793-2 511 227 0 509 0c29 0 57 3 84 7-164 32-288 177-288 351z"/></g></g></svg>