<?xml version="1.0" encoding="UTF-8" standalone="no"?>
<svg
   xmlns:dc="http://purl.org/dc/elements/1.1/"
   xmlns:cc="http://creativecommons.org/ns#"
   xmlns:rdf="http://www.w3.org/1999/02/22-rdf-syntax-ns#"
   xmlns:svg="http://www.w3.org/2000/svg"
   xmlns="http://www.w3.org/2000/svg"
   xmlns:sodipodi="http://sodipodi.sourceforge.net/DTD/sodipodi-0.dtd"
   xmlns:inkscape="http://www.inkscape.org/namespaces/inkscape"
   xml:space="preserve"
   width="36.574013mm"
   height="48.456184mm"
   version="1.1"
   style="clip-rule:evenodd;fill-rule:evenodd;image-rendering:optimizeQuality;shape-rendering:geometricPrecision;text-rendering:geometricPrecision"
   viewBox="0 0 3657.3366 4845.5328"
   id="svg12"
   sodipodi:docname="icon-webinar.svg"
   inkscape:version="1.0.1 (3bc2e813f5, 2020-09-07)"><metadata
   id="metadata16"><rdf:RDF><cc:Work
       rdf:about=""><dc:format>image/svg+xml</dc:format><dc:type
         rdf:resource="http://purl.org/dc/dcmitype/StillImage" /></cc:Work></rdf:RDF></metadata><sodipodi:namedview
   pagecolor="#ffffff"
   bordercolor="#666666"
   borderopacity="1"
   objecttolerance="10"
   gridtolerance="10"
   guidetolerance="10"
   inkscape:pageopacity="0"
   inkscape:pageshadow="2"
   inkscape:window-width="1920"
   inkscape:window-height="1001"
   id="namedview14"
   showgrid="false"
   inkscape:zoom="1.2968776"
   inkscape:cx="84.474153"
   inkscape:cy="155.94583"
   inkscape:window-x="-9"
   inkscape:window-y="-9"
   inkscape:window-maximized="1"
   inkscape:current-layer="svg12" />
 <defs
   id="defs4">
  <style
   type="text/css"
   id="style2">
   <![CDATA[
    .fil0 {fill:#6E248D}
   ]]>
  </style>
 </defs>
 <g
   id="Layer_x0020_1"
   transform="translate(-6231.4941,-4340.5061)">
  <metadata
   id="CorelCorpID_0Corel-Layer" />
  <g
   id="g9">
   <path
   class="fil0"
   d="m 7755,5370 c 25,-9 51,-6 72,4 v 0 c 22,11 40,29 49,54 v 0 c 3,9 5,18 5,28 v 1 c 0,9 -1,18 -3,27 -4,14 -11,28 -21,39 l -9,8 v 5 l -27,12 c -12,5 -80,68 -178,164 -116,112 -269,267 -420,422 l -380,392 -142,147 c 33,81 62,155 85,222 26,72 46,136 62,195 70,42 148,93 235,153 88,61 184,131 290,210 193,147 271,333 293,529 21,191 -12,389 -42,567 -14,87 -28,168 -33,238 -4,65 -2,120 14,156 26,57 104,80 276,49 186,-35 470,-134 895,-319 -38,-52 -86,-115 -140,-186 v 0 l -5,-7 v 0 C 8353,8113 7942,7568 7809,7215 v 0 l -10,-29 c -32,-93 -44,-175 -30,-242 16,-74 61,-128 142,-156 266,-90 423,-170 505,-248 72,-69 81,-137 55,-213 -29,-83 -94,-184 -169,-299 v 0 h -1 v -1 c -24,-37 -50,-76 -80,-123 -28,-45 -56,-90 -82,-136 v 0 c -42,-74 -83,-154 -119,-240 -37,-86 -69,-179 -93,-280 v 0 c -1,-8 -2,-16 -2,-24 0,-7 1,-14 3,-21 v 0 l 1,-5 1,-4 2,-3 v -2 l 2,-3 3,-5 v -1 l 1,-1 1,-3 c 9,-14 21,-25 35,-33 v 0 c 13,-7 27,-11 42,-11 l 6,-1 h 1 l 3,-1 h 9 2 l 24,1 h 2 l 27,2 h 2 c 58,5 148,22 245,65 47,21 95,48 144,83 l -17,-51 30,61 c 12,9 23,18 34,28 38,-11 73,-15 107,-13 v 0 c 46,2 87,16 123,38 20,12 38,26 54,42 16,16 31,35 43,55 v 0 c 11,19 21,39 28,60 v 0 c 7,21 12,43 15,65 4,40 1,82 -11,122 -9,29 -23,57 -42,82 13,32 23,64 33,98 12,41 22,84 30,129 8,44 13,89 17,136 3,44 4,92 3,141 v 0 0 1 c -1,26 -12,50 -29,66 -18,17 -41,27 -67,26 v 0 0 h -1 -1 c -25,0 -49,-12 -65,-29 v 0 c -17,-17 -27,-41 -27,-66 v 0 -1 0 0 l 1,-40 c 0,-34 -2,-70 -5,-105 v 0 c -3,-34 -7,-66 -13,-97 -7,-38 -15,-74 -25,-109 l -8,-26 -6,8 -23,-83 -18,-24 2,-2 c -5,-8 -9,-17 -10,-28 -2,-9 -2,-19 0,-28 l -76,-227 -8,3 v 0 c -39,20 -69,17 -93,3 -21,-11 -34,-30 -45,-48 v 0 l -1,-1 c -47,-42 -98,-72 -147,-94 -40,-18 -79,-31 -114,-39 35,105 79,201 127,289 58,108 121,205 178,293 h 1 l 5,8 c 41,63 79,121 111,177 34,57 61,112 80,166 47,138 38,260 -71,379 -100,110 -290,214 -608,322 -11,4 -17,15 -18,33 -2,31 7,73 24,124 l 7,18 c 57,158 184,367 330,582 153,224 328,456 468,641 41,54 81,108 123,165 37,49 69,93 93,128 l 1,2 1,2 5,8 1,3 c 11,24 11,50 2,72 -8,23 -26,42 -50,53 v 0 c -518,231 -865,347 -1096,378 v 0 c -250,34 -374,-30 -431,-157 -29,-65 -36,-143 -31,-230 5,-83 20,-174 36,-271 v -1 c 52,-311 115,-691 -179,-913 -91,-70 -172,-129 -243,-180 -41,-30 -81,-58 -119,-85 3,44 0,81 -6,112 -13,66 -45,106 -90,125 v 0 c -55,23 -123,7 -193,-32 -70,-41 -146,-108 -209,-182 -63,-74 -117,-158 -145,-232 -28,-75 -31,-144 5,-191 31,-42 88,-60 179,-42 46,10 104,30 173,62 l -20,-54 v 0 c -21,-54 -46,-116 -76,-187 l -2,-6 -18,-37 23,-12 c 20,-46 74,-119 149,-206 108,-126 262,-293 422,-456 146,-152 298,-303 417,-419 108,-103 192,-179 228,-202 l 1,-1 6,-3 3,-2 1,-1 3,-1 3,-1 2,-1 2,-1 z m 102,153 h -1 z m 802,296 c -6,-8 -12,-16 -16,-26 z m 24,-151 c 9,-8 16,-19 20,-30 v 0 c 6,-15 8,-33 6,-50 -1,-9 -3,-18 -6,-26 v 0 c -2,-8 -6,-16 -10,-23 -5,-7 -9,-13 -15,-19 v 0 c -5,-5 -11,-10 -17,-13 v -1 c -13,-7 -29,-11 -47,-11 -6,0 -11,1 -17,2 z m -1939,1774 -17,-40 c 1,0 -1,-11 -2,-37 l 43,-2 v 0 z M 8408,4362 c 134,-25 269,-28 400,-10 133,19 263,59 383,118 146,72 278,172 387,296 105,120 189,262 244,422 54,161 75,324 64,483 -10,165 -54,326 -126,472 l -19,39 -39,-19 -121,-60 -39,-19 19,-39 c 59,-120 95,-252 104,-388 8,-131 -8,-266 -53,-397 -45,-132 -114,-249 -201,-347 v 0 c -89,-102 -198,-185 -318,-244 -99,-49 -205,-82 -315,-97 -107,-14 -219,-12 -329,9 l -43,8 -8,-43 -25,-133 -8,-42 z m 120,637 c 64,-12 129,-13 192,-5 64,9 127,29 185,57 70,35 134,83 186,143 v 0 c 51,57 91,126 118,203 26,77 36,156 31,233 -5,79 -27,156 -61,227 l -19,39 -40,-19 -121,-60 -39,-19 20,-39 c 21,-44 35,-93 38,-143 3,-49 -3,-99 -20,-147 -16,-49 -42,-92 -74,-129 -33,-37 -73,-68 -117,-90 -36,-18 -76,-30 -117,-35 -39,-6 -81,-5 -121,2 l -43,8 -8,-42 -25,-133 -8,-43 z m -60,-318 c 99,-19 199,-21 296,-8 99,14 195,44 284,87 v 0 c 108,54 206,128 287,220 78,89 140,194 180,313 41,118 56,240 48,357 -8,122 -40,241 -94,350 l -3,6 -5,5 v 0 l -22,22 -28,-14 -121,-59 -54,-27 38,-38 c 38,-80 62,-168 67,-259 6,-89 -5,-182 -36,-272 -30,-90 -78,-170 -137,-237 -62,-71 -136,-127 -218,-167 v 0 c -68,-34 -141,-56 -216,-66 v 0 c -73,-11 -149,-9 -225,5 l -43,8 -8,-43 -25,-132 -8,-43 z M 6725,7365 v 0 c -2,-36 -12,-89 -33,-161 -99,-62 -172,-102 -224,-124 -42,-18 -59,-27 -59,-26 v 0 c -2,2 12,13 26,38 24,43 63,97 107,148 45,53 94,101 136,132 26,20 45,31 49,30 z"
   id="path7" />
  </g>
 </g>
</svg>
