<svg xmlns="http://www.w3.org/2000/svg" xml:space="preserve" width="31.04" height="31.04" style="shape-rendering:geometricPrecision;text-rendering:geometricPrecision;image-rendering:optimizeQuality;fill-rule:evenodd;clip-rule:evenodd" viewBox="0 0 821 821"><defs><linearGradient id="a" gradientUnits="userSpaceOnUse" x1="122.9" y1="122.9" x2="698.36" y2="698.36"><stop offset="0" style="stop-opacity:1;stop-color:#ab69c6"/><stop offset=".502" style="stop-opacity:1;stop-color:#c94ae6"/><stop offset="1" style="stop-opacity:1;stop-color:#c73fcc"/></linearGradient><clipPath id="b"><path d="M411 0c226 0 411 185 411 411S637 822 411 822 0 637 0 411 185 0 411 0z"/></clipPath></defs><path d="M411 0c226 0 411 185 411 411S637 822 411 822 0 637 0 411 185 0 411 0z" style="fill:url(#a)"/><g style="clip-path:url(#b)"><path d="M0 0c226 0 411 185 411 411S226 822 0 822c-227 0-411-185-411-411S-227 0 0 0z" style="fill:#9b59b6;fill-opacity:.4"/><path d="M280 45c226 0 411 185 411 411S506 867 280 867s-411-185-411-411S54 45 280 45z" style="fill:#666;fill-opacity:.2"/></g><path d="M411 0c226 0 411 185 411 411S637 822 411 822 0 637 0 411 185 0 411 0z" style="fill:none"/><path d="M187 274c5 0 9 3 10 6 1 2 1 3 1 4 0 2 0 3-1 5-1 3-5 6-10 6s-9 2-13 6c-3 3-6 8-6 13v253c0 6 3 11 6 15 4 4 10 6 16 6h442c6 0 11-2 15-6s6-9 6-15V314c0-5-2-10-5-13-3-4-8-6-13-6H518c-3 0-5-1-7-3-2-1-3-4-4-6l-7-42c-1-1-1-3-2-4s-1-2-2-3h-1c-1-1-2-2-4-3-1 0-3-1-5-1H335c-3 0-5 2-7 3-2 2-4 5-4 8l-1 1-10 42c-1 5-4 7-8 8h-5c-1-1-2-1-3-2-4-2-6-6-4-11l10-42c1-7 5-15 11-20s13-8 21-8h151c4 0 9 1 12 2 4 2 8 4 11 6l3 3c1 2 3 4 5 6 1 4 3 7 3 12l7 33h108c11 0 21 4 28 12 7 7 11 17 11 28v253c0 12-4 22-12 30-8 7-19 12-30 12H190c-12 0-23-5-31-12-7-8-12-18-12-30V314c0-11 5-21 12-28 7-8 18-12 28-12zm223 63c-6 0-13 1-19 2-7 2-13 4-20 7h-1c-12 3-23 12-32 20l-2 2c-6 6-12 15-17 24-5 10-8 19-10 28-1 10-2 21-1 33 1 10 3 20 7 28l1 3c7 14 17 28 29 38 13 10 28 18 45 21 10 1 21 2 32 1 10-1 20-3 28-7h1c1-1 3-2 5-3 4-2 9-4 13-7 7-4 16-12 23-21 6-8 12-16 14-23 0-2 1-3 1-4 1-1 2-1 2-2 4-13 6-24 6-35 0-12-1-23-5-36-1 0-2-1-2-2-1-1-2-2-2-3-3-12-11-24-21-34s-22-18-34-21h-2v-1l-18-6c-7-1-13-2-21-2zm0-22c9 0 17 1 25 3 7 2 15 5 23 8 7 2 14 6 21 10 8 5 15 11 21 16 5 6 10 12 15 19 4 6 7 12 9 18 1 1 2 2 3 2 0 1 1 3 1 4 6 17 9 32 8 47 0 15-3 29-8 46 0 2-1 3-2 4 0 1-1 1-2 2-2 6-6 12-10 18s-9 11-14 16c-6 7-12 12-19 17-6 4-13 7-20 10l-3 2c-13 6-31 9-49 9-17 0-34-3-47-10-15-6-29-15-40-27-11-11-20-24-26-39l-1-1c-5-13-9-31-8-49 0-17 2-34 9-47 3-7 7-16 12-24 4-6 9-13 14-17l2-2c12-10 24-20 39-24 8-3 15-6 23-8 8-1 16-3 24-3zm-48 241zM229 298c5 0 9 0 12 2 3 1 5 3 8 5l2 2c6 7 9 15 9 23 0 5-1 9-3 14-2 4-4 8-8 11-5 5-12 8-20 8-4 0-9-1-12-3-3-1-5-2-7-3v1l-4-4c-6-7-9-15-9-24 0-7 2-15 7-21l2-2c3-3 6-5 10-7 4-1 8-2 13-2z" style="fill:#fff;fill-rule:nonzero"/></svg>