<?xml version="1.0" encoding="UTF-8" standalone="no"?>
<svg
   xmlns:dc="http://purl.org/dc/elements/1.1/"
   xmlns:cc="http://creativecommons.org/ns#"
   xmlns:rdf="http://www.w3.org/1999/02/22-rdf-syntax-ns#"
   xmlns:svg="http://www.w3.org/2000/svg"
   xmlns="http://www.w3.org/2000/svg"
   xmlns:sodipodi="http://sodipodi.sourceforge.net/DTD/sodipodi-0.dtd"
   xmlns:inkscape="http://www.inkscape.org/namespaces/inkscape"
   xml:space="preserve"
   width="6.4862227mm"
   height="6.4862227mm"
   version="1.1"
   style="clip-rule:evenodd;fill-rule:evenodd;image-rendering:optimizeQuality;shape-rendering:geometricPrecision;text-rendering:geometricPrecision"
   viewBox="0 0 648.61081 648.61081"
   id="svg10"
   sodipodi:docname="IconComplete.svg"
   inkscape:version="1.0.1 (3bc2e813f5, 2020-09-07)"><metadata
   id="metadata14"><rdf:RDF><cc:Work
       rdf:about=""><dc:format>image/svg+xml</dc:format><dc:type
         rdf:resource="http://purl.org/dc/dcmitype/StillImage" /></cc:Work></rdf:RDF></metadata><sodipodi:namedview
   pagecolor="#ffffff"
   bordercolor="#666666"
   borderopacity="1"
   objecttolerance="10"
   gridtolerance="10"
   guidetolerance="10"
   inkscape:pageopacity="0"
   inkscape:pageshadow="2"
   inkscape:window-width="1920"
   inkscape:window-height="1001"
   id="namedview12"
   showgrid="false"
   inkscape:zoom="1.2968776"
   inkscape:cx="9.5434928"
   inkscape:cy="10.488374"
   inkscape:window-x="-9"
   inkscape:window-y="-9"
   inkscape:window-maximized="1"
   inkscape:current-layer="svg10"
   inkscape:document-rotation="0" />
 <defs
   id="defs4">
  <style
   type="text/css"
   id="style2">
   <![CDATA[
    .fil0 {fill:#1ABC9C;fill-rule:nonzero}
   ]]>
  </style>
 </defs>
 <g
   id="Layer_x0020_1"
   transform="matrix(1.394862,0,0,1.394862,-11457.396,-11422.525)">
  <metadata
   id="CorelCorpID_0Corel-Layer" />
  <path
   class="fil0"
   d="m 8447,8189 c 10,0 18,8 18,18 0,11 -8,19 -18,19 -54,0 -103,22 -138,57 -36,36 -58,84 -58,138 0,55 22,103 58,139 35,35 84,57 138,57 54,0 103,-22 138,-57 36,-36 57,-84 57,-139 0,-34 -8,-66 -24,-94 -13,-24 -31,-44 -52,-61 l -148,238 c -5,8 -17,11 -26,6 -1,-1 -2,-2 -3,-3 l -95,-86 c -7,-7 -8,-18 -1,-26 7,-7 19,-8 26,-1 l 79,71 147,-235 v 0 0 c 6,-8 17,-11 26,-5 33,21 60,50 80,84 18,34 28,72 28,112 0,65 -26,123 -68,165 -42,42 -100,68 -164,68 -64,0 -122,-26 -165,-68 -42,-42 -68,-100 -68,-165 0,-64 26,-122 68,-164 43,-42 101,-68 165,-68 z"
   id="path7" />
 </g>
</svg>
