<svg xmlns="http://www.w3.org/2000/svg" xml:space="preserve" width="69.119" height="69.119" style="shape-rendering:geometricPrecision;text-rendering:geometricPrecision;image-rendering:optimizeQuality;fill-rule:evenodd;clip-rule:evenodd" viewBox="0 0 1829 1829"><path d="M318-1h1193c175 0 318 144 318 319v1193c0 175-143 318-318 318H318c-175 0-319-143-319-318V318C-1 143 143-1 318-1zm596 358c99 0 179 81 179 179 0 99-80 179-179 179-98 0-179-80-179-179 0-98 81-179 179-179zm-319 819-300 348c-10 13-13 29-6 43 7 15 21 24 37 24h1195c15 0 28-8 35-20 7-13 7-28 0-41l-326-568c-7-12-18-19-32-20-13-1-25 3-34 14l-334 394c-8 10-20 15-33 14-13 0-24-7-31-18l-107-166c-7-11-18-17-31-18s-25 4-33 14z" style="fill:#ab69c6"/></svg>