<svg xmlns="http://www.w3.org/2000/svg" xml:space="preserve" width="48.043" height="48.043" style="shape-rendering:geometricPrecision;text-rendering:geometricPrecision;image-rendering:optimizeQuality;fill-rule:evenodd;clip-rule:evenodd" viewBox="0 0 2210 2210"><defs><linearGradient id="a" gradientUnits="userSpaceOnUse" x1="-.01" y1="1104.89" x2="2209.79" y2="1104.89"><stop offset="0" style="stop-opacity:1;stop-color:#7d369a"/><stop offset="1" style="stop-opacity:1;stop-color:#c158d1"/></linearGradient></defs><path d="M1105 0c610 0 1105 495 1105 1105s-495 1105-1105 1105S0 1715 0 1105 495 0 1105 0z" style="fill:url(#a);fill-opacity:.8"/><path d="M827 783h111c43 0 78 35 78 78v488c0 43-35 78-78 78H827c-42 0-77-35-77-78V861c0-43 35-78 77-78zm444 0h111c43 0 78 35 78 78v488c0 43-35 78-78 78h-111c-42 0-77-35-77-78V861c0-43 35-78 77-78z" style="fill:#fff"/></svg>