<svg xmlns="http://www.w3.org/2000/svg" xml:space="preserve" width="30" height="30" version="1.0" style="shape-rendering:geometricPrecision;text-rendering:geometricPrecision;image-rendering:optimizeQuality;fill-rule:evenodd;clip-rule:evenodd" viewBox="0 0 2743 3463"><path style="fill:#ab69c6" d="M308 2949h2128v287H308z"/><path d="M2513 3465H229c-63 0-114-52-114-115s51-114 114-114h2284c64 0 115 51 115 114s-51 115-115 115z" style="fill:#6e248d"/><path d="M2721 2104C2575 1446 1693 988 1419 864c-16-7-33-11-51-11s-35 4-51 11C974 1024 162 1465 21 2102c-64 291 22 579 255 857 22 25 53 40 87 41h2013c33-1 64-16 85-40 21-25 0 0 0 0 239-273 325-563 260-856z" style="fill:#9c58b8"/><path d="M1221 244c0 135 110 245 246 245 119 0 218-85 240-197 3 18 5 37 5 57 0 194-157 351-351 351-193 0-350-157-350-351S1168-2 1361-2c20 0 39 2 58 5-113 22-198 122-198 241z" style="fill:#934db0"/></svg>