<svg xmlns="http://www.w3.org/2000/svg" xml:space="preserve" width="17.279" height="22.4" style="shape-rendering:geometricPrecision;text-rendering:geometricPrecision;image-rendering:optimizeQuality;fill-rule:evenodd;clip-rule:evenodd" viewBox="0 0 457 593"><defs><linearGradient id="id0" gradientUnits="userSpaceOnUse" x1="19.22" y1="149.1" x2="437.96" y2="443.54"><stop offset="0" style="stop-opacity:1;stop-color:#ab69c6"/><stop offset="1" style="stop-opacity:1;stop-color:#863ca3"/></linearGradient><style>.fil1{fill:#fafbff;fill-rule:nonzero}</style></defs><g id="Layer_x0020_1"><g id="_396897305984"><path d="M2 1v539c0 19 9 35 25 44 16 10 35 10 51 0 173-100 124-103 301 0 16 10 35 10 51 0 16-9 26-25 26-44V1H2z" style="fill:url(#id0)"/><path class="fil1" d="M229 113c43 0 83 18 111 46v1c29 28 46 68 46 111s-17 83-46 111c-28 29-68 47-111 47-44 0-83-18-112-47-28-28-46-68-46-111 0-44 18-83 46-112 29-28 68-46 112-46zm100 57c-26-25-61-41-100-41-40 0-75 16-101 41-26 26-42 62-42 101s16 75 42 100c26 26 61 42 101 42 39 0 74-16 100-42 26-25 42-61 42-100s-16-75-42-100v-1z"/><path class="fil1" d="M169 319c-3 3-8 3-11 0s-3-8 0-11l42-42c3-3 7-3 10-1l20 16 45-45c-3-1-5-4-5-7 0-5 3-8 8-8h15c2 0 4 1 6 2 3 3 3 8 0 11l-63 63c-3 3-8 3-11 1l-19-16-37 37zm41-54"/></g></g></svg>