<svg xmlns="http://www.w3.org/2000/svg" width="64.959" height="64.959" version="1.0" viewBox="0 0 1719 1719" shape-rendering="geometricPrecision" text-rendering="geometricPrecision" image-rendering="optimizeQuality" fill-rule="evenodd" clip-rule="evenodd"><path d="M812 373c0-26 21-48 47-48 27 0 48 22 48 48v457l298 149c23 12 33 40 21 64-12 23-40 33-64 21L842 904c-18-7-30-24-30-45V373zm47 1249c211 0 402-85 540-223s223-329 223-540c0-210-85-401-223-539S1070 96 859 96c-210 0-401 86-539 224S96 649 96 859c0 211 86 402 224 540s329 223 539 223zm607-156c-155 156-370 252-607 252s-451-96-607-252C97 1311 1 1096 1 859s96-451 251-607C408 97 622 1 859 1s452 96 607 251c156 156 252 370 252 607s-96 452-252 607z" fill="#1abc9c" fill-rule="nonzero"/></svg>