<svg xmlns="http://www.w3.org/2000/svg" xml:space="preserve" width="20" height="20" style="shape-rendering:geometricPrecision;text-rendering:geometricPrecision;image-rendering:optimizeQuality;fill-rule:evenodd;clip-rule:evenodd" viewBox="0 0 38 26"><path d="M21.45 10.04c.4.23.54.75.31 1.16-.23.41-.76.55-1.16.31l-4.11-2.37h-.01a.21.21 0 0 0-.11-.04.26.26 0 0 0-.11.03v.01a.27.27 0 0 0-.08.07.36.36 0 0 0-.02.11v7.66c0 .05.01.09.02.11v.01c.02.02.05.05.08.07.04.02.08.03.11.03.04 0 .08-.01.11-.03l6.64-3.83c.03-.02.06-.05.08-.07v-.01c.01-.02.02-.06.02-.11a.36.36 0 0 0-.02-.11c-.02-.03-.05-.05-.08-.07a.853.853 0 0 1 .85-1.48c.3.18.53.42.7.7.17.29.26.62.26.96 0 .35-.09.68-.26.97v-.01c-.17.29-.4.53-.7.71h-.01l-6.63 3.82c-.3.18-.63.27-.96.27-.33 0-.65-.09-.96-.27-.29-.17-.53-.41-.7-.7v.01c-.17-.29-.26-.62-.26-.97V9.32a1.909 1.909 0 0 1 .97-1.66c.3-.17.62-.26.95-.26.33 0 .66.09.96.26l4.12 2.38zm-9.36-6.95a.842.842 0 0 1-.89-.8c-.03-.47.34-.87.81-.89 3.46-.17 6.93-.22 10.4-.15h.01c3.47.07 6.92.25 10.34.55 1.02.09 1.93.56 2.57 1.27.65.71 1.05 1.65 1.05 2.67v14.82a3.96 3.96 0 0 1-3.62 3.94c-8.96.78-17.92.78-26.87 0a3.93 3.93 0 0 1-2.57-1.26 3.96 3.96 0 0 1-1.05-2.68V5.75c0-1.03.4-1.97 1.05-2.68.65-.7 1.55-1.18 2.58-1.27.47-.03.88.32.92.78.03.47-.31.88-.78.92a2.244 2.244 0 0 0-2.06 2.25v14.81c0 .59.22 1.13.59 1.53.36.4.88.67 1.47.72 8.85.77 17.71.76 26.57 0h.01a2.247 2.247 0 0 0 2.05-2.25V5.74c0-.58-.22-1.13-.59-1.52-.37-.4-.88-.67-1.47-.72-3.43-.3-6.85-.49-10.23-.55-3.42-.07-6.85-.02-10.29.14z" style="fill:#fff;fill-rule:nonzero"/></svg>