<?xml version="1.0" encoding="UTF-8"?>
<!DOCTYPE svg PUBLIC "-//W3C//DTD SVG 1.1//EN" "http://www.w3.org/Graphics/SVG/1.1/DTD/svg11.dtd">
<!-- Creator: CorelDRAW X7 -->
<svg xmlns="http://www.w3.org/2000/svg" xml:space="preserve" width="4.5718mm" height="5.9266mm" version="1.1" style="shape-rendering:geometricPrecision; text-rendering:geometricPrecision; image-rendering:optimizeQuality; fill-rule:evenodd; clip-rule:evenodd"
viewBox="0 0 457 593"
 xmlns:xlink="http://www.w3.org/1999/xlink">
 <defs>
  <style type="text/css">
   <![CDATA[
    .fil0 {fill:#1ABC9C}
    .fil1 {fill:#FAFBFF;fill-rule:nonzero}
   ]]>
  </style>
 </defs>
 <g id="Layer_x0020_1">
  <metadata id="CorelCorpID_0Corel-Layer"/>
  <g id="_395366310368">
   <path class="fil0" d="M2 1l0 145 0 394c0,19 9,35 25,44 16,10 35,10 51,0 173,-100 124,-103 301,0 16,10 35,10 51,0 16,-9 26,-25 26,-44l0 -394 0 -145 0 0 -454 0 0 0z"/>
   <path class="fil1" d="M229 113c43,0 83,18 111,46 29,29 46,68 46,112 0,43 -17,83 -46,111l0 0c-28,29 -68,47 -111,47 -44,0 -83,-18 -112,-47l0 0 0 0 0 0c-28,-28 -46,-68 -46,-111 0,-44 18,-83 46,-112l0 0 0 0c29,-28 68,-46 112,-46zm-70 183c-3,-3 -3,-8 0,-11 3,-4 7,-4 11,-1l19 19c5,5 3,10 5,9 0,-1 1,-3 3,-6 2,-4 5,-11 11,-18 9,-14 21,-27 34,-39 14,-12 29,-23 47,-32 4,-2 9,-1 11,3 2,4 0,9 -3,11 -17,8 -32,18 -44,29 -13,11 -24,24 -33,37 -4,6 -7,12 -9,16 -2,4 -4,7 -6,9 -8,8 -13,5 -27,-8l-19 -18zm170 -126c-26,-25 -61,-41 -100,-41 -40,0 -75,16 -101,41l0 0c-26,26 -42,62 -42,101 0,39 16,75 42,100l0 0c26,26 61,42 101,42 39,0 74,-16 100,-42l0 0 0 0c26,-25 42,-61 42,-100 0,-39 -16,-75 -42,-101z"/>
  </g>
 </g>
</svg>
