<?xml version="1.0" encoding="UTF-8" standalone="no"?>
<svg
   xmlns:dc="http://purl.org/dc/elements/1.1/"
   xmlns:cc="http://creativecommons.org/ns#"
   xmlns:rdf="http://www.w3.org/1999/02/22-rdf-syntax-ns#"
   xmlns:svg="http://www.w3.org/2000/svg"
   xmlns="http://www.w3.org/2000/svg"
   xmlns:sodipodi="http://sodipodi.sourceforge.net/DTD/sodipodi-0.dtd"
   xmlns:inkscape="http://www.inkscape.org/namespaces/inkscape"
   xml:space="preserve"
   width="24.343254mm"
   height="24.280893mm"
   version="1.1"
   style="clip-rule:evenodd;fill-rule:evenodd;image-rendering:optimizeQuality;shape-rendering:geometricPrecision;text-rendering:geometricPrecision"
   viewBox="0 0 2434.028 2427.7926"
   id="svg68"
   sodipodi:docname="IllustrationNoTransactionAccept.svg"
   inkscape:version="1.0.1 (3bc2e813f5, 2020-09-07)"><metadata
   id="metadata72"><rdf:RDF><cc:Work
       rdf:about=""><dc:format>image/svg+xml</dc:format><dc:type
         rdf:resource="http://purl.org/dc/dcmitype/StillImage" /></cc:Work></rdf:RDF></metadata><sodipodi:namedview
   pagecolor="#ffffff"
   bordercolor="#666666"
   borderopacity="1"
   objecttolerance="10"
   gridtolerance="10"
   guidetolerance="10"
   inkscape:pageopacity="0"
   inkscape:pageshadow="2"
   inkscape:window-width="1920"
   inkscape:window-height="1001"
   id="namedview70"
   showgrid="false"
   inkscape:zoom="5.2703537"
   inkscape:cx="44.936458"
   inkscape:cy="21.61034"
   inkscape:window-x="-9"
   inkscape:window-y="-9"
   inkscape:window-maximized="1"
   inkscape:current-layer="svg68" />
 <defs
   id="defs16">
  <style
   type="text/css"
   id="style2">
   <![CDATA[
    .fil4 {fill:none}
    .fil7 {fill:#27AE60}
    .fil3 {fill:#4E046D}
    .fil2 {fill:#5E147D}
    .fil5 {fill:#6E248D}
    .fil8 {fill:white;fill-rule:nonzero}
    .fil6 {fill:black;fill-opacity:0.200000}
    .fil1 {fill:#5E147D;fill-opacity:0.200000}
    .fil0 {fill:#DCC6E0;fill-opacity:0.400000}
   ]]>
  </style>
    <clipPath
   id="id0">
     <path
   d="M 485,511 869,408 c 45,-12 82,17 82,65 v 287 c 0,48 -37,97 -82,110 L 485,973 c -45,12 -82,-17 -82,-66 V 621 c 0,-48 37,-98 82,-110 z"
   id="path4" />
    </clipPath>
    <clipPath
   id="id1">
     <path
   d="m 488,525 h 475 c 47,0 85,38 85,84 v 333 c 0,46 -38,84 -85,84 H 488 c -47,0 -85,-38 -85,-84 V 609 c 0,-46 38,-84 85,-84 z"
   id="path7" />
    </clipPath>
    <clipPath
   id="id2">
     <path
   d="m 915,718 h 149 c 14,0 25,11 25,25 v 65 c 0,14 -11,25 -25,25 H 915 c -14,0 -26,-11 -26,-25 v -65 c 0,-14 12,-25 26,-25 z"
   id="path10" />
    </clipPath>
    <clipPath
   id="id3">
     <path
   d="m 421,840 c 84,0 152,68 152,153 0,84 -68,153 -152,153 -85,0 -153,-69 -153,-153 0,-85 68,-153 153,-153 z"
   id="path13" />
    </clipPath>
 </defs>
 <g
   id="Layer_x0020_1"
   transform="matrix(1.6495182,0,0,1.6495182,2.3619087,-1.6495182)">
  <metadata
   id="CorelCorpID_0Corel-Layer" />
  <g
   id="_716146703920">
   <path
   class="fil0"
   d="m 192,158 c 321,-180 1040,-13 1219,308 180,321 -50,724 -371,904 C 718,1550 241,1511 132,1114 23,716 -130,337 192,158 Z"
   id="path19" />
   <path
   class="fil1"
   d="m 556,1 c 369,0 914,496 914,864 0,368 -415,566 -783,566 C 319,1431 -61,1206 38,806 137,406 188,1 556,1 Z"
   id="path21" />
   <rect
   class="fil2"
   x="894"
   y="712"
   width="165.10001"
   height="95.379997"
   rx="40"
   ry="25"
   id="rect23" />
   <path
   class="fil2"
   d="M 485,511 869,408 c 45,-12 82,17 82,65 v 287 c 0,48 -37,97 -82,110 L 485,973 c -45,12 -82,-17 -82,-66 V 621 c 0,-48 37,-98 82,-110 z"
   id="path25" />
   <g
   clip-path="url(#id0)"
   id="g31">
    <g
   id="g29">
     <rect
   class="fil3"
   transform="matrix(0.965368,-0.260182,0,1.113,432.381,593.618)"
   width="567"
   height="415"
   rx="79"
   ry="79"
   id="rect27"
   x="0"
   y="0" />
    </g>
   </g>
   <path
   class="fil4"
   d="M 485,511 869,408 c 45,-12 82,17 82,65 v 287 c 0,48 -37,97 -82,110 L 485,973 c -45,12 -82,-17 -82,-66 V 621 c 0,-48 37,-98 82,-110 z"
   id="path33" />
   <path
   class="fil5"
   d="m 488,525 h 475 c 47,0 85,38 85,84 v 333 c 0,46 -38,84 -85,84 H 488 c -47,0 -85,-38 -85,-84 V 609 c 0,-46 38,-84 85,-84 z"
   id="path35" />
   <g
   clip-path="url(#id1)"
   id="g42">
    <g
   id="g40">
     <path
   id="1"
   class="fil6"
   d="m 873,733 232,-55 c 14,-3 25,6 25,21 v 110 c 0,14 -11,29 -25,32 l -232,55 c -13,3 -25,-6 -25,-21 V 765 c 0,-15 12,-29 25,-32 z" />
     <rect
   class="fil2"
   x="492"
   y="646"
   width="474.13"
   height="16.93"
   id="rect38" />
    </g>
   </g>
   <path
   class="fil4"
   d="m 488,525 h 475 c 47,0 85,38 85,84 v 333 c 0,46 -38,84 -85,84 H 488 c -47,0 -85,-38 -85,-84 V 609 c 0,-46 38,-84 85,-84 z"
   id="path44" />
   <path
   class="fil5"
   d="m 915,718 h 149 c 14,0 25,11 25,25 v 65 c 0,14 -11,25 -25,25 H 915 c -14,0 -26,-11 -26,-25 v -65 c 0,-14 12,-25 26,-25 z"
   id="path46" />
   <g
   clip-path="url(#id2)"
   id="g52">
    <g
   id="g50">
     <circle
   class="fil2"
   cx="945"
   cy="775"
   r="28"
   id="circle48" />
    </g>
   </g>
   <path
   class="fil4"
   d="m 915,718 h 149 c 14,0 25,11 25,25 v 65 c 0,14 -11,25 -25,25 H 915 c -14,0 -26,-11 -26,-25 v -65 c 0,-14 12,-25 26,-25 z"
   id="path54" />
   <path
   class="fil7"
   d="m 421,840 c 84,0 152,68 152,153 0,84 -68,153 -152,153 -85,0 -153,-69 -153,-153 0,-85 68,-153 153,-153 z"
   id="path56" />
   <g
   clip-path="url(#id3)"
   id="g62">
    <g
   id="g60">
     <polygon
   id="polygon58"
   class="fil8"
   points="389,1050 345,1006 367,984 400,1017 473,938 496,959 412,1050 401,1062 " />
    </g>
   </g>
   <path
   class="fil4"
   d="m 421,840 c 84,0 152,68 152,153 0,84 -68,153 -152,153 -85,0 -153,-69 -153,-153 0,-85 68,-153 153,-153 z"
   id="path64" />
  </g>
 </g>
</svg>
