<svg xmlns="http://www.w3.org/2000/svg" xml:space="preserve" width="92.023" height="91.787" version="1.1" style="clip-rule:evenodd;fill-rule:evenodd;image-rendering:optimizeQuality;shape-rendering:geometricPrecision;text-rendering:geometricPrecision" viewBox="0 0 2434.482 2428.246" id="svg46"><defs id="defs10"><clipPath id="id0"><path d="M581 444c104 0 189 84 189 188 0 105-85 189-189 189s-189-84-189-189c0-104 85-188 189-188z" id="path4"/></clipPath><clipPath id="id1"><path d="M581 444c104 0 189 84 189 188 0 105-85 189-189 189s-189-84-189-189c0-104 85-188 189-188z" id="path7"/></clipPath><style type="text/css" id="style2">.fil6{fill:none}.fil7{fill:#6e248d;fill-rule:nonzero}.fil5{fill:#fff;fill-opacity:.2}</style></defs><g id="Layer_x0020_1" transform="matrix(1.64983 0 0 1.64983 2.362 -1.65)"><g id="_716150667344"><path d="M192 158c321-180 1040-13 1219 308 180 321-50 724-371 904-322 180-799 141-908-256-109-398-262-777 60-956z" id="path13" style="fill:#dcc6e0;fill-opacity:.4"/><path d="M556 1c369 0 914 496 914 864s-415 566-783 566-748-225-649-625S188 1 556 1z" id="path15" style="fill:#5e147d;fill-opacity:.2"/><path d="M421 472c44-44 102-66 160-66s116 22 160 66c44 45 66 102 66 160 0 50-16 99-48 140l85 85c10 11 10 28 0 38-11 11-28 11-38 0l-85-85c-41 32-91 49-140 49-58 0-116-22-160-67-44-44-66-102-66-160s22-115 66-160zm262 299c-6-10-4-23 5-32 8-9 21-10 32-4 22-31 33-67 33-103 0-44-17-88-50-122-34-33-78-50-122-50s-88 17-122 50c-34 34-51 78-51 122s17 89 51 122c34 34 78 51 122 51 36 0 72-11 102-34z" id="path17" style="fill:#000;fill-rule:nonzero"/><path d="M768 895c-21-21-21-55 0-76s55-21 76 0l274 274c21 21 21 55 0 76s-55 21-76 0z" id="path19" style="fill:#3e005d;fill-rule:nonzero"/><g clip-path="url(#id0)" id="g23"><path id="polygon21" style="fill:#fff;fill-opacity:.4" d="M770 444v377H392V444z"/></g><g clip-path="url(#id1)" id="g30"><g id="g28"><path id="1" class="fil5" d="m595 358-63 79-13 234z"/><path class="fil5" id="polygon26" d="m626 917-45-96 45-183z"/></g></g><path class="fil6" d="M581 444c104 0 189 84 189 188 0 105-85 189-189 189s-189-84-189-189c0-104 85-188 189-188z" id="path32"/><path class="fil6" d="M1007 413v127m-64-63h127" id="path34"/><path class="fil7" id="polygon36" d="m952 545 45-45-45-45 33-33 45 45 45-45 33 33-45 45 45 45-33 33-45-45-45 45z"/><path class="fil7" id="polygon38" d="m346 1016 21-21-21-20 15-16 21 21 21-21 15 16-21 20 21 21-15 15-21-20-21 20z"/><circle cx="380" cy="316" r="30" id="circle40" style="fill:#fff"/><path class="fil5" d="M708 1082c43 0 78 35 78 79 0 43-35 78-78 78s-78-35-78-78c0-44 35-79 78-79z" id="path42"/></g></g></svg>