<svg xmlns="http://www.w3.org/2000/svg" xml:space="preserve" width="92.071" height="91.835" version="1.1" style="clip-rule:evenodd;fill-rule:evenodd;image-rendering:optimizeQuality;shape-rendering:geometricPrecision;text-rendering:geometricPrecision" viewBox="0 0 2435.737 2429.497" id="svg68"><defs id="defs25"><clipPath id="id0"><path d="m519 578 422-41c45-5 84 28 89 73l29 296c4 45-29 84-73 89l-386 37-108 111-9-99-9-88-28-289c-4-45 28-85 73-89z" id="path4"/></clipPath><clipPath id="id1"><path d="m467 883 264 2 106 71 65-415-383 37c-45 4-77 44-73 89z" id="path7"/></clipPath><clipPath id="id2"><path d="m519 578 422-41c45-5 84 28 89 73l29 296c4 45-29 84-73 89l-386 37-108 111-9-99-9-88-28-289c-4-45 28-85 73-89z" id="path10"/></clipPath><clipPath id="id3"><path d="m467 883 264 2 106 71 65-415-383 37c-45 4-77 44-73 89z" id="path13"/></clipPath><clipPath id="id4"><path d="m519 578 422-41c45-5 84 28 89 73l29 296c4 45-29 84-73 89l-386 37-108 111-9-99-9-88-28-289c-4-45 28-85 73-89z" id="path16"/></clipPath><clipPath id="id5"><path d="m808 452-377-33c-40-4-75 26-78 66l-24 264c-3 40 27 75 66 79l345 30 97 97 8-88 6-78 23-259c3-39-26-75-66-78z" id="path19"/></clipPath><clipPath id="id6"><path d="m808 452-377-33c-40-4-75 26-78 66l-24 264c-3 40 27 75 66 79l345 30 97 97 8-88 6-78 23-259c3-39-26-75-66-78z" id="path22"/></clipPath><style type="text/css" id="style2">.fil5{fill:none}.fil4{fill:#fff}</style></defs><g id="Layer_x0020_1" transform="matrix(1.65068 0 0 1.65068 2.364 -1.65)"><g id="_715442598880"><path d="M192 158c321-180 1040-13 1219 308 180 321-50 724-371 904-322 180-799 141-908-256-109-398-262-777 60-956z" id="path28" style="fill:#dcc6e0;fill-opacity:.4"/><path d="M556 1c369 0 914 496 914 864s-415 566-783 566-748-225-649-625S188 1 556 1z" id="path30" style="fill:#5e147d;fill-opacity:.2"/><path d="m519 578 422-41c45-5 84 28 89 73l29 296c4 45-29 84-73 89l-386 37-108 111-9-99-9-88-28-289c-4-45 28-85 73-89z" id="path32" style="fill:#4e046d"/><g clip-path="url(#id0)" id="g50"><g clip-path="url(#id1)" id="g37"><path id="1" style="fill:#000;fill-opacity:.2" d="M295 419h615v537H295z"/></g><g clip-path="url(#id3)" id="g44"><g id="g42"><path id="2" class="fil4" d="M428 605c21 2 35 20 34 40-2 20-20 35-40 33s-35-19-33-39 19-35 39-34zm323 38c15 1 27 14 25 30-1 15-14 26-30 25-15-2-26-15-25-30 2-15 15-27 30-25zm-161-19c17 2 30 17 29 35-2 17-17 30-35 29-17-2-30-17-29-35 2-17 17-30 35-29z"/></g></g><g clip-path="url(#id4)" id="g48"><path class="fil5" d="m804 454-400-35c-43-4-80 28-84 70l-24 281c-4 42 2 111 45 112l390 3 106 71 73-470-68-51c-33-26 4 23-38 19z" id="path46"/></g></g><path class="fil5" d="m519 578 422-41c45-5 84 28 89 73l29 296c4 45-29 84-73 89l-386 37-108 111-9-99-9-88-28-289c-4-45 28-85 73-89z" id="path52"/><g clip-path="url(#id5)" id="g56"><path id="polygon54" style="fill:#4e046d" d="M329 419h545v536H329z"/></g><g clip-path="url(#id6)" id="g62"><g id="g60"><path id="path58" class="fil4" d="M455 595c18 1 32 18 31 37-2 19-19 33-37 31-19-2-33-18-32-37 2-19 19-33 38-31zm303 35c15 1 25 13 24 28-1 14-14 25-28 23-15-1-25-14-24-28s14-25 28-23zm-152-18c17 2 29 16 28 33-2 16-16 28-33 27-16-1-29-16-27-33 1-16 16-28 32-27z"/></g></g><path class="fil5" d="m808 452-377-33c-40-4-75 26-78 66l-24 264c-3 40 27 75 66 79l345 30 97 97 8-88 6-78 23-259c3-39-26-75-66-78z" id="path64"/></g></g></svg>