<?xml version="1.0" encoding="UTF-8" standalone="no"?>
<svg
   xmlns:dc="http://purl.org/dc/elements/1.1/"
   xmlns:cc="http://creativecommons.org/ns#"
   xmlns:rdf="http://www.w3.org/1999/02/22-rdf-syntax-ns#"
   xmlns:svg="http://www.w3.org/2000/svg"
   xmlns="http://www.w3.org/2000/svg"
   xmlns:sodipodi="http://sodipodi.sourceforge.net/DTD/sodipodi-0.dtd"
   xmlns:inkscape="http://www.inkscape.org/namespaces/inkscape"
   xml:space="preserve"
   width="24.346416mm"
   height="24.284048mm"
   version="1.1"
   style="clip-rule:evenodd;fill-rule:evenodd;image-rendering:optimizeQuality;shape-rendering:geometricPrecision;text-rendering:geometricPrecision"
   viewBox="0 0 2434.3442 2428.1081"
   id="svg83"
   sodipodi:docname="IllustrationNoConsulReject.svg"
   inkscape:version="1.0.1 (3bc2e813f5, 2020-09-07)"><metadata
   id="metadata87"><rdf:RDF><cc:Work
       rdf:about=""><dc:format>image/svg+xml</dc:format><dc:type
         rdf:resource="http://purl.org/dc/dcmitype/StillImage" /></cc:Work></rdf:RDF></metadata><sodipodi:namedview
   pagecolor="#ffffff"
   bordercolor="#666666"
   borderopacity="1"
   objecttolerance="10"
   gridtolerance="10"
   guidetolerance="10"
   inkscape:pageopacity="0"
   inkscape:pageshadow="2"
   inkscape:window-width="1920"
   inkscape:window-height="1001"
   id="namedview85"
   showgrid="false"
   inkscape:zoom="5.2703537"
   inkscape:cx="31.725518"
   inkscape:cy="35.02359"
   inkscape:window-x="-9"
   inkscape:window-y="-9"
   inkscape:window-maximized="1"
   inkscape:current-layer="svg83" />
 <defs
   id="defs28">
  <style
   type="text/css"
   id="style2">
   <![CDATA[
    .fil5 {fill:none}
    .fil2 {fill:#4E046D}
    .fil8 {fill:#E74C3C}
    .fil4 {fill:white}
    .fil9 {fill:white;fill-rule:nonzero}
    .fil3 {fill:black;fill-opacity:0.200000}
    .fil7 {fill:#1A1A1A;fill-opacity:0.200000}
    .fil1 {fill:#5E147D;fill-opacity:0.200000}
    .fil0 {fill:#DCC6E0;fill-opacity:0.400000}
    .fil6 {fill:#4E046D}
   ]]>
  </style>
    <clipPath
   id="id0">
     <path
   d="m 519,578 422,-41 c 45,-5 84,28 89,73 l 29,296 c 4,45 -29,84 -73,89 l -386,37 -108,111 -9,-99 -9,-88 -28,-289 c -4,-45 28,-85 73,-89 z"
   id="path4" />
    </clipPath>
     <clipPath
   id="id1">
      <path
   d="m 467,883 264,2 106,70 65,-414 -383,37 c -45,4 -77,44 -73,89 z"
   id="path7" />
     </clipPath>
     <clipPath
   id="id2">
      <path
   d="m 519,578 422,-41 c 45,-5 84,28 89,73 l 29,296 c 4,45 -29,84 -73,89 l -386,37 -108,111 -9,-99 -9,-88 -28,-289 c -4,-45 28,-85 73,-89 z"
   id="path10" />
     </clipPath>
     <clipPath
   id="id3">
      <path
   d="m 467,883 264,2 106,70 65,-414 -383,37 c -45,4 -77,44 -73,89 z"
   id="path13" />
     </clipPath>
     <clipPath
   id="id4">
      <path
   d="m 519,578 422,-41 c 45,-5 84,28 89,73 l 29,296 c 4,45 -29,84 -73,89 l -386,37 -108,111 -9,-99 -9,-88 -28,-289 c -4,-45 28,-85 73,-89 z"
   id="path16" />
     </clipPath>
    <clipPath
   id="id5">
     <path
   d="M 808,452 431,419 c -40,-4 -75,26 -78,66 l -24,264 c -3,40 27,75 66,79 l 345,30 97,97 7,-88 7,-78 23,-259 c 3,-39 -26,-75 -66,-78 z"
   id="path19" />
    </clipPath>
    <clipPath
   id="id6">
     <path
   d="M 808,452 431,419 c -40,-4 -75,26 -78,66 l -24,264 c -3,40 27,75 66,79 l 345,30 97,97 7,-88 7,-78 23,-259 c 3,-39 -26,-75 -66,-78 z"
   id="path22" />
    </clipPath>
    <clipPath
   id="id7">
     <path
   d="m 339,694 c 85,0 153,69 153,153 0,85 -68,153 -153,153 -84,0 -153,-68 -153,-153 0,-84 69,-153 153,-153 z"
   id="path25" />
    </clipPath>
 </defs>
 <g
   id="Layer_x0020_1"
   transform="matrix(1.6497325,0,0,1.6497325,2.3622156,-1.6497325)">
  <metadata
   id="CorelCorpID_0Corel-Layer" />
  <g
   id="_716141291632">
   <path
   class="fil0"
   d="m 192,158 c 321,-180 1040,-13 1219,308 180,321 -50,724 -371,904 C 718,1550 241,1511 132,1114 23,716 -130,337 192,158 Z"
   id="path31" />
   <path
   class="fil1"
   d="m 556,1 c 369,0 914,496 914,864 0,368 -415,566 -783,566 C 319,1431 -61,1206 38,806 137,406 188,1 556,1 Z"
   id="path33" />
   <path
   class="fil2"
   d="m 519,578 422,-41 c 45,-5 84,28 89,73 l 29,296 c 4,45 -29,84 -73,89 l -386,37 -108,111 -9,-99 -9,-88 -28,-289 c -4,-45 28,-85 73,-89 z"
   id="path35" />
   <g
   clip-path="url(#id0)"
   id="g53">
    <g
   id="g37">
    </g>
    <g
   clip-path="url(#id1)"
   id="g40">
     <polygon
   id="1"
   class="fil3"
   points="295,955 295,419 910,419 910,955 " />
    </g>
    <g
   clip-path="url(#id2)"
   id="g42">
    </g>
    <g
   clip-path="url(#id3)"
   id="g47">
     <g
   id="g45">
      <path
   id="2"
   class="fil4"
   d="m 428,605 c 21,2 35,20 34,40 -2,20 -20,35 -40,33 -20,-2 -35,-19 -33,-39 2,-20 19,-35 39,-34 z m 323,38 c 15,1 27,14 25,29 -1,16 -15,27 -30,26 -15,-2 -26,-15 -25,-30 2,-16 15,-27 30,-25 z M 590,624 c 17,2 30,17 29,35 -2,17 -17,30 -35,29 -17,-2 -30,-17 -29,-35 2,-17 17,-30 35,-29 z" />
     </g>
    </g>
    <g
   clip-path="url(#id4)"
   id="g51">
     <path
   class="fil5"
   d="M 804,454 404,419 c -43,-4 -80,28 -84,70 l -24,281 c -4,42 2,111 44,112 l 391,3 106,70 73,-469 -68,-51 c -33,-26 4,23 -38,19 z"
   id="path49" />
    </g>
   </g>
   <path
   class="fil5"
   d="m 519,578 422,-41 c 45,-5 84,28 89,73 l 29,296 c 4,45 -29,84 -73,89 l -386,37 -108,111 -9,-99 -9,-88 -28,-289 c -4,-45 28,-85 73,-89 z"
   id="path55" />
   <g
   clip-path="url(#id5)"
   id="g59">
    <polygon
   class="fil6"
   points="329,955 329,419 874,419 874,955 "
   id="polygon57" />
   </g>
   <g
   clip-path="url(#id6)"
   id="g65">
    <g
   id="g63">
     <path
   id="path61"
   class="fil4"
   d="m 455,594 c 18,2 32,19 31,38 -2,19 -19,33 -37,31 -19,-2 -33,-18 -32,-37 2,-19 19,-33 38,-32 z m 303,36 c 15,1 25,13 24,28 -1,14 -14,25 -28,23 -15,-1 -25,-14 -24,-28 1,-14 14,-25 28,-23 z M 606,612 c 17,2 29,16 28,33 -2,16 -16,28 -33,27 -16,-1 -29,-16 -27,-33 1,-16 16,-28 32,-27 z" />
    </g>
   </g>
   <path
   class="fil5"
   d="M 808,452 431,419 c -40,-4 -75,26 -78,66 l -24,264 c -3,40 27,75 66,79 l 345,30 97,97 7,-88 7,-78 23,-259 c 3,-39 -26,-75 -66,-78 z"
   id="path67" />
   <path
   class="fil7"
   d="m 339,670 c 98,0 177,79 177,177 0,98 -79,178 -177,178 -98,0 -177,-80 -177,-178 0,-98 79,-177 177,-177 z"
   id="path69" />
   <path
   class="fil8"
   d="m 339,694 c 85,0 153,69 153,153 0,85 -68,153 -153,153 -84,0 -153,-68 -153,-153 0,-84 69,-153 153,-153 z"
   id="path71" />
   <g
   clip-path="url(#id7)"
   id="g77">
    <g
   id="g75">
     <polygon
   id="polygon73"
   class="fil9"
   points="263,896 312,847 263,799 291,771 339,820 388,771 415,799 367,847 415,896 388,923 339,875 291,923 " />
    </g>
   </g>
   <path
   class="fil5"
   d="m 339,694 c 85,0 153,69 153,153 0,85 -68,153 -153,153 -84,0 -153,-68 -153,-153 0,-84 69,-153 153,-153 z"
   id="path79" />
  </g>
 </g>
</svg>
