<?xml version="1.0" encoding="UTF-8" standalone="no"?>
<svg
   xmlns:dc="http://purl.org/dc/elements/1.1/"
   xmlns:cc="http://creativecommons.org/ns#"
   xmlns:rdf="http://www.w3.org/1999/02/22-rdf-syntax-ns#"
   xmlns:svg="http://www.w3.org/2000/svg"
   xmlns="http://www.w3.org/2000/svg"
   xmlns:sodipodi="http://sodipodi.sourceforge.net/DTD/sodipodi-0.dtd"
   xmlns:inkscape="http://www.inkscape.org/namespaces/inkscape"
   xml:space="preserve"
   width="24.343784mm"
   height="24.281422mm"
   version="1.1"
   style="clip-rule:evenodd;fill-rule:evenodd;image-rendering:optimizeQuality;shape-rendering:geometricPrecision;text-rendering:geometricPrecision"
   viewBox="0 0 2434.081 2427.8455"
   id="svg53"
   sodipodi:docname="IllustrationNoTransactionAll.svg"
   inkscape:version="1.0.1 (3bc2e813f5, 2020-09-07)"><metadata
   id="metadata57"><rdf:RDF><cc:Work
       rdf:about=""><dc:format>image/svg+xml</dc:format><dc:type
         rdf:resource="http://purl.org/dc/dcmitype/StillImage" /></cc:Work></rdf:RDF></metadata><sodipodi:namedview
   pagecolor="#ffffff"
   bordercolor="#666666"
   borderopacity="1"
   objecttolerance="10"
   gridtolerance="10"
   guidetolerance="10"
   inkscape:pageopacity="0"
   inkscape:pageshadow="2"
   inkscape:window-width="1920"
   inkscape:window-height="1001"
   id="namedview55"
   showgrid="false"
   inkscape:zoom="5.2703537"
   inkscape:cx="31.558796"
   inkscape:cy="28.577038"
   inkscape:window-x="-9"
   inkscape:window-y="-9"
   inkscape:window-maximized="1"
   inkscape:current-layer="svg53" />
 <defs
   id="defs13">
  <style
   type="text/css"
   id="style2">
   <![CDATA[
    .fil4 {fill:none}
    .fil3 {fill:#4E046D}
    .fil2 {fill:#5E147D}
    .fil5 {fill:#6E248D}
    .fil6 {fill:black;fill-opacity:0.200000}
    .fil1 {fill:#5E147D;fill-opacity:0.200000}
    .fil0 {fill:#DCC6E0;fill-opacity:0.400000}
   ]]>
  </style>
    <clipPath
   id="id0">
     <path
   d="M 485,511 869,408 c 45,-12 82,17 82,65 v 287 c 0,48 -37,97 -82,110 L 485,973 c -45,12 -82,-17 -82,-66 V 621 c 0,-48 37,-98 82,-110 z"
   id="path4" />
    </clipPath>
    <clipPath
   id="id1">
     <path
   d="m 488,525 h 475 c 47,0 85,38 85,84 v 333 c 0,46 -38,84 -85,84 H 488 c -47,0 -85,-38 -85,-84 V 609 c 0,-46 38,-84 85,-84 z"
   id="path7" />
    </clipPath>
    <clipPath
   id="id2">
     <path
   d="m 915,718 h 149 c 14,0 25,11 25,25 v 65 c 0,14 -11,25 -25,25 H 915 c -14,0 -26,-11 -26,-25 v -65 c 0,-14 12,-25 26,-25 z"
   id="path10" />
    </clipPath>
 </defs>
 <g
   id="Layer_x0020_1"
   transform="matrix(1.6495541,0,0,1.6495541,2.3619601,-1.6495541)">
  <metadata
   id="CorelCorpID_0Corel-Layer" />
  <g
   id="_716341319632">
   <path
   class="fil0"
   d="m 192,158 c 321,-180 1040,-13 1219,308 180,321 -50,724 -371,904 C 718,1550 241,1511 132,1114 23,716 -130,337 192,158 Z"
   id="path16" />
   <path
   class="fil1"
   d="m 556,1 c 369,0 914,496 914,864 0,368 -415,566 -783,566 C 319,1431 -61,1206 38,806 137,406 188,1 556,1 Z"
   id="path18" />
   <path
   class="fil2"
   d="M 485,511 869,408 c 45,-12 82,17 82,65 v 287 c 0,48 -37,97 -82,110 L 485,973 c -45,12 -82,-17 -82,-66 V 621 c 0,-48 37,-98 82,-110 z"
   id="path20" />
   <g
   clip-path="url(#id0)"
   id="g26">
    <g
   id="g24">
     <rect
   class="fil3"
   transform="matrix(0.965368,-0.260182,0,1.113,432.381,593.618)"
   width="567"
   height="415"
   rx="79"
   ry="79"
   id="rect22"
   x="0"
   y="0" />
    </g>
   </g>
   <path
   class="fil4"
   d="M 485,511 869,408 c 45,-12 82,17 82,65 v 287 c 0,48 -37,97 -82,110 L 485,973 c -45,12 -82,-17 -82,-66 V 621 c 0,-48 37,-98 82,-110 z"
   id="path28" />
   <path
   class="fil5"
   d="m 488,525 h 475 c 47,0 85,38 85,84 v 333 c 0,46 -38,84 -85,84 H 488 c -47,0 -85,-38 -85,-84 V 609 c 0,-46 38,-84 85,-84 z"
   id="path30" />
   <g
   clip-path="url(#id1)"
   id="g37">
    <g
   id="g35">
     <path
   id="1"
   class="fil6"
   d="m 873,733 232,-55 c 14,-3 25,6 25,21 v 110 c 0,14 -11,29 -25,32 l -232,55 c -13,3 -25,-6 -25,-21 V 765 c 0,-15 12,-29 25,-32 z" />
     <rect
   class="fil2"
   x="492"
   y="646"
   width="474.13"
   height="16.93"
   id="rect33" />
    </g>
   </g>
   <path
   class="fil4"
   d="m 488,525 h 475 c 47,0 85,38 85,84 v 333 c 0,46 -38,84 -85,84 H 488 c -47,0 -85,-38 -85,-84 V 609 c 0,-46 38,-84 85,-84 z"
   id="path39" />
   <path
   class="fil5"
   d="m 915,718 h 149 c 14,0 25,11 25,25 v 65 c 0,14 -11,25 -25,25 H 915 c -14,0 -26,-11 -26,-25 v -65 c 0,-14 12,-25 26,-25 z"
   id="path41" />
   <g
   clip-path="url(#id2)"
   id="g47">
    <g
   id="g45">
     <circle
   class="fil2"
   cx="945"
   cy="775"
   r="28"
   id="circle43" />
    </g>
   </g>
   <path
   class="fil4"
   d="m 915,718 h 149 c 14,0 25,11 25,25 v 65 c 0,14 -11,25 -25,25 H 915 c -14,0 -26,-11 -26,-25 v -65 c 0,-14 12,-25 26,-25 z"
   id="path49" />
  </g>
 </g>
</svg>
