<svg xmlns="http://www.w3.org/2000/svg" xml:space="preserve" width="92.008" height="91.772" version="1.1" style="clip-rule:evenodd;fill-rule:evenodd;image-rendering:optimizeQuality;shape-rendering:geometricPrecision;text-rendering:geometricPrecision" viewBox="0 0 2434.081 2427.845" id="svg53"><defs id="defs13"><clipPath id="id0"><path d="m485 511 384-103c45-12 82 17 82 65v287c0 48-37 97-82 110L485 973c-45 12-82-17-82-66V621c0-48 37-98 82-110z" id="path4"/></clipPath><clipPath id="id1"><path d="M488 525h475c47 0 85 38 85 84v333c0 46-38 84-85 84H488c-47 0-85-38-85-84V609c0-46 38-84 85-84z" id="path7"/></clipPath><clipPath id="id2"><path d="M915 718h149c14 0 25 11 25 25v65c0 14-11 25-25 25H915c-14 0-26-11-26-25v-65c0-14 12-25 26-25z" id="path10"/></clipPath><style type="text/css" id="style2">.fil4{fill:none}.fil2{fill:#5e147d}.fil5{fill:#6e248d}</style></defs><g id="Layer_x0020_1" transform="matrix(1.64955 0 0 1.64955 2.362 -1.65)"><g id="_716341319632"><path d="M192 158c321-180 1040-13 1219 308 180 321-50 724-371 904-322 180-799 141-908-256-109-398-262-777 60-956z" id="path16" style="fill:#dcc6e0;fill-opacity:.4"/><path d="M556 1c369 0 914 496 914 864s-415 566-783 566-748-225-649-625S188 1 556 1z" id="path18" style="fill:#5e147d;fill-opacity:.2"/><path class="fil2" d="m485 511 384-103c45-12 82 17 82 65v287c0 48-37 97-82 110L485 973c-45 12-82-17-82-66V621c0-48 37-98 82-110z" id="path20"/><g clip-path="url(#id0)" id="g26"><g id="g24"><rect transform="matrix(.96537 -.26018 0 1.113 432.381 593.618)" width="567" height="415" rx="79" ry="79" id="rect22" x="0" y="0" style="fill:#4e046d"/></g></g><path class="fil4" d="m485 511 384-103c45-12 82 17 82 65v287c0 48-37 97-82 110L485 973c-45 12-82-17-82-66V621c0-48 37-98 82-110z" id="path28"/><path class="fil5" d="M488 525h475c47 0 85 38 85 84v333c0 46-38 84-85 84H488c-47 0-85-38-85-84V609c0-46 38-84 85-84z" id="path30"/><g clip-path="url(#id1)" id="g37"><g id="g35"><path id="1" d="m873 733 232-55c14-3 25 6 25 21v110c0 14-11 29-25 32l-232 55c-13 3-25-6-25-21V765c0-15 12-29 25-32z" style="fill:#000;fill-opacity:.2"/><path class="fil2" id="rect33" d="M492 646h474.13v16.93H492z"/></g></g><path class="fil4" d="M488 525h475c47 0 85 38 85 84v333c0 46-38 84-85 84H488c-47 0-85-38-85-84V609c0-46 38-84 85-84z" id="path39"/><path class="fil5" d="M915 718h149c14 0 25 11 25 25v65c0 14-11 25-25 25H915c-14 0-26-11-26-25v-65c0-14 12-25 26-25z" id="path41"/><g clip-path="url(#id2)" id="g47"><g id="g45"><circle class="fil2" cx="945" cy="775" r="28" id="circle43"/></g></g><path class="fil4" d="M915 718h149c14 0 25 11 25 25v65c0 14-11 25-25 25H915c-14 0-26-11-26-25v-65c0-14 12-25 26-25z" id="path49"/></g></g></svg>