<?xml version="1.0" encoding="UTF-8" standalone="no"?>
<svg
   xmlns:dc="http://purl.org/dc/elements/1.1/"
   xmlns:cc="http://creativecommons.org/ns#"
   xmlns:rdf="http://www.w3.org/1999/02/22-rdf-syntax-ns#"
   xmlns:svg="http://www.w3.org/2000/svg"
   xmlns="http://www.w3.org/2000/svg"
   xmlns:xlink="http://www.w3.org/1999/xlink"
   xmlns:sodipodi="http://sodipodi.sourceforge.net/DTD/sodipodi-0.dtd"
   xmlns:inkscape="http://www.inkscape.org/namespaces/inkscape"
   xml:space="preserve"
   width="33.866665mm"
   height="32.611347mm"
   version="1.1"
   style="clip-rule:evenodd;fill-rule:evenodd;image-rendering:optimizeQuality;shape-rendering:geometricPrecision;text-rendering:geometricPrecision"
   viewBox="0 0 3387.4225 3260.6316"
   id="svg138"
   sodipodi:docname="IllustrationNoCompletedTask.svg"
   inkscape:version="1.0.1 (3bc2e813f5, 2020-09-07)"><metadata
   id="metadata142"><rdf:RDF><cc:Work
       rdf:about=""><dc:format>image/svg+xml</dc:format><dc:type
         rdf:resource="http://purl.org/dc/dcmitype/StillImage" /></cc:Work></rdf:RDF></metadata><sodipodi:namedview
   pagecolor="#ffffff"
   bordercolor="#666666"
   borderopacity="1"
   objecttolerance="10"
   gridtolerance="10"
   guidetolerance="10"
   inkscape:pageopacity="0"
   inkscape:pageshadow="2"
   inkscape:window-width="1920"
   inkscape:window-height="1001"
   id="namedview140"
   showgrid="false"
   inkscape:zoom="3.743"
   inkscape:cx="9.2295593"
   inkscape:cy="73.066317"
   inkscape:window-x="-9"
   inkscape:window-y="-9"
   inkscape:window-maximized="1"
   inkscape:current-layer="svg138" />
 <defs
   id="defs33">
  <style
   type="text/css"
   id="style2">
   <![CDATA[
    .fil4 {fill:none}
    .fil17 {fill:#663333}
    .fil7 {fill:#AB69C6}
    .fil13 {fill:#C190D4}
    .fil5 {fill:#CCCCCC}
    .fil14 {fill:#CEA0E4}
    .fil0 {fill:#D0B9D4}
    .fil8 {fill:#DCC6E0}
    .fil16 {fill:#DEC98A}
    .fil15 {fill:#E8D6A0}
    .fil1 {fill:#EBE1ED}
    .fil9 {fill:#EDCF9A}
    .fil10 {fill:#F2D7A7}
    .fil6 {fill:white}
    .fil3 {fill:#3E005D;fill-opacity:0.200000}
    .fil2 {fill:#CEA0E4;fill-opacity:0.400000}
    .fil12 {fill:url(#id7)}
    .fil11 {fill:url(#id8)}
   ]]>
  </style>
    <clipPath
   id="id0">
     <path
   d="m 751,267 626,100 c 78,-82 195,-126 315,-107 195,31 328,215 297,410 -20,129 -108,231 -222,276 l -148,929 c -11,70 -77,118 -146,107 L 503,1827 C 433,1816 386,1750 397,1681 L 605,374 c 11,-70 77,-118 146,-107 z"
   id="path4" />
    </clipPath>
     <clipPath
   id="id1">
      <path
   d="M 95,1054 321,929 236,728 C 132,704 52,740 0,827 Z"
   id="path7" />
     </clipPath>
      <clipPath
   id="id2">
       <path
   d="M 285,949 210,770 C 123,751 53,772 2,830 l 93,224 z"
   id="path10" />
      </clipPath>
      <clipPath
   id="id3">
       <path
   d="M 95,1054 321,929 236,728 C 132,704 52,740 0,827 Z"
   id="path13" />
      </clipPath>
     <clipPath
   id="id4">
      <path
   d="m 303,886 309,769 c 11,30 19,37 12,85 l -12,86 -13,87 c -1,8 -6,15 -14,18 -8,3 -17,2 -23,-3 l -69,-54 c -56,-44 -92,-56 -118,-122 L 68,988 Z"
   id="path16" />
     </clipPath>
      <clipPath
   id="id5">
       <path
   d="m 394,1789 c 54,-84 130,-119 230,-101 3,12 4,26 0,52 l -12,86 -13,87 c -1,8 -6,15 -14,18 -8,3 -17,2 -23,-3 l -69,-54 c -44,-34 -75,-49 -99,-85 z"
   id="path19" />
      </clipPath>
      <clipPath
   id="id6">
       <path
   d="m 303,886 309,769 c 11,30 19,37 12,85 l -12,86 -13,87 c -1,8 -6,15 -14,18 -8,3 -17,2 -23,-3 l -69,-54 c -56,-44 -92,-56 -118,-122 L 68,988 Z"
   id="path22" />
      </clipPath>
  <linearGradient
   id="id7"
   gradientUnits="userSpaceOnUse"
   x1="14.08"
   y1="981.54999"
   x2="368.38"
   y2="981.54999">
   <stop
   offset="0"
   style="stop-opacity:1; stop-color:#E6E6E6"
   id="stop25" />
   <stop
   offset="0.521569"
   style="stop-opacity:1; stop-color:#F3F3F3"
   id="stop27" />
   <stop
   offset="1"
   style="stop-opacity:1; stop-color:#C4C4C4"
   id="stop29" />
  </linearGradient>
  <linearGradient
   id="id8"
   gradientUnits="userSpaceOnUse"
   xlink:href="#id7"
   x1="-12.39"
   y1="1023.79"
   x2="341.91"
   y2="1023.79">
  </linearGradient>
 <linearGradient
   inkscape:collect="always"
   xlink:href="#id7"
   id="linearGradient967"
   gradientUnits="userSpaceOnUse"
   x1="14.08"
   y1="981.54999"
   x2="368.38"
   y2="981.54999" /></defs>
 <g
   id="Layer_x0020_1"
   transform="matrix(1.5755454,0,0,1.5755454,0,-3.5426228)">
  <metadata
   id="CorelCorpID_0Corel-Layer" />
  <g
   id="_716139192128">
   <path
   class="fil0"
   d="m 816,363 983,157 c 66,10 111,73 101,139 l -201,1259 c -16,99 -110,168 -210,152 L 567,1923 C 501,1913 456,1850 467,1785 L 677,464 c 10,-66 73,-111 139,-101 z"
   id="path36" />
   <path
   class="fil1"
   d="m 751,267 626,100 c 78,-82 195,-126 315,-107 195,31 328,215 297,410 -20,129 -108,231 -222,276 l -148,929 c -11,70 -77,118 -146,107 L 503,1827 C 433,1816 386,1750 397,1681 L 605,374 c 11,-70 77,-118 146,-107 z"
   id="path38" />
   <g
   clip-path="url(#id0)"
   id="g45">
    <g
   id="g43">
     <path
   id="1"
   class="fil2"
   d="m 1863,1177 c -228,142 -789,591 -1562,106 -638,-401 -454,-777 -443,479 5,562 791,565 1291,634 138,19 589,60 657,-76 303,-605 52,-195 120,-846 20,-191 122,-281 -63,-297 z" />
     <path
   class="fil3"
   d="m 1619,702 c 0,0 0,0 0,-1 0,1 0,1 0,1 z m 165,78 z m -81,-146 c -16,-14 -32,-27 -49,-39 -25,-16 -51,-30 -80,-40 -135,-46 -125,103 -51,126 20,6 39,15 56,27 33,22 62,52 90,88 23,29 65,34 94,11 10,-8 17,-17 21,-27 20,-48 18,-121 70,-233 11,-22 23,-46 39,-72 3,-5 6,-11 10,-16 10,-16 21,-33 34,-50 37,-52 86,-110 149,-174 -73,36 -136,82 -191,135 -14,13 -28,27 -41,42 -4,5 -8,10 -13,15 -1,1 -2,2 -3,4 -29,34 -56,69 -80,106 -20,32 -38,64 -55,97 z m 41,122 c 15,-23 46,-63 52,-122 -6,62 -21,107 -38,132 -8,11 -16,19 -25,23 -20,11 -38,-1 -48,-19 -5,-10 -15,-24 -29,-38 -10,-11 -22,-21 -37,-30 0,0 1,0 1,0 65,41 97,95 124,54 z"
   id="path41" />
    </g>
   </g>
   <path
   class="fil4"
   d="m 751,267 626,100 c 78,-82 195,-126 315,-107 195,31 328,215 297,410 -20,129 -108,231 -222,276 l -148,929 c -11,70 -77,118 -146,107 L 503,1827 C 433,1816 386,1750 397,1681 L 605,374 c 11,-70 77,-118 146,-107 z"
   id="path47" />
   <circle
   class="fil5"
   transform="matrix(0.518708,0.0825766,-0.0825766,0.518708,1619.09,635.125)"
   r="584"
   id="circle49"
   cx="0"
   cy="0" />
   <circle
   class="fil6"
   transform="matrix(0.505177,0.0804224,-0.0804224,0.505177,1636.04,613.501)"
   r="584"
   id="circle51"
   cx="0"
   cy="0" />
   <rect
   class="fil6"
   transform="rotate(9.0453984,-2870.6013,4770.1572)"
   width="169"
   height="169"
   rx="42"
   ry="42"
   id="rect53"
   x="0"
   y="0" />
   <rect
   class="fil6"
   transform="rotate(9.0453984,-5011.3613,4600.8211)"
   width="169"
   height="169"
   rx="42"
   ry="42"
   id="rect55"
   x="0"
   y="0" />
   <rect
   class="fil6"
   transform="rotate(9.0453984,-7152.1529,4431.4875)"
   width="169"
   height="169"
   rx="42"
   ry="42"
   id="rect57"
   x="0"
   y="0" />
   <rect
   class="fil6"
   transform="rotate(9.0453984,-9292.8618,4262.1538)"
   width="169"
   height="169"
   rx="42"
   ry="42"
   id="rect59"
   x="0"
   y="0" />
   <rect
   class="fil6"
   transform="rotate(9.0453984,-5134.1298,6152.9036)"
   width="533.40002"
   height="42.330002"
   id="rect61"
   x="0"
   y="0" />
   <rect
   class="fil6"
   transform="matrix(1.33242,0.212116,-0.157217,0.987564,850.248,1218.15)"
   width="533.40002"
   height="42.330002"
   id="rect63"
   x="0"
   y="0" />
   <rect
   class="fil6"
   transform="matrix(1.33242,0.212116,-0.157217,0.987564,797.003,1552.61)"
   width="533.40002"
   height="42.330002"
   id="rect65"
   x="0"
   y="0" />
   <rect
   class="fil6"
   transform="matrix(1.13886,0.181303,-0.157217,0.987564,777.037,1678.03)"
   width="533.40002"
   height="42.330002"
   id="rect67"
   x="0"
   y="0" />
   <rect
   class="fil6"
   transform="matrix(1.33242,0.212116,-0.157217,0.987564,830.281,1343.57)"
   width="533.40002"
   height="42.330002"
   id="rect69"
   x="0"
   y="0" />
   <rect
   class="fil6"
   transform="rotate(9.0453984,-5936.9038,6089.4009)"
   width="533.40002"
   height="42.330002"
   id="rect71"
   x="0"
   y="0" />
   <rect
   class="fil6"
   transform="matrix(0.203771,0.0324396,-0.157217,0.987564,956.737,549.232)"
   width="533.40002"
   height="42.330002"
   id="rect73"
   x="0"
   y="0" />
   <rect
   class="fil6"
   transform="matrix(0.203771,0.0324396,-0.157217,0.987564,936.771,674.652)"
   width="533.40002"
   height="42.330002"
   id="rect75"
   x="0"
   y="0" />
   <path
   class="fil7"
   d="m 1578,661 c 0,0 0,0 0,0 0,0 0,0 0,0 z m 158,92 z m -69,-153 c -14,-15 -29,-29 -45,-42 -23,-19 -48,-34 -76,-47 -131,-57 -134,92 -62,121 20,8 38,19 54,32 31,24 57,57 82,95 20,31 62,39 93,19 10,-7 18,-15 23,-25 24,-46 28,-119 89,-226 13,-21 28,-44 45,-68 4,-5 8,-11 12,-16 11,-15 24,-31 38,-47 42,-48 95,-102 163,-160 -76,30 -142,70 -201,118 -16,12 -31,25 -45,38 -5,5 -9,9 -14,14 -1,1 -3,2 -4,4 -32,31 -61,64 -88,99 -23,30 -44,60 -64,91 z m 30,126 c 18,-22 52,-59 63,-117 -11,61 -30,104 -49,128 -9,10 -18,18 -27,21 -21,9 -37,-5 -46,-24 -4,-9 -13,-24 -26,-40 -9,-11 -20,-23 -34,-33 0,0 1,0 1,0 61,47 89,103 118,65 z"
   id="path77" />
   <circle
   class="fil7"
   cx="1337"
   cy="70"
   r="51"
   id="circle79" />
   <circle
   class="fil8"
   cx="2082"
   cy="1077"
   r="68"
   id="circle81" />
   <circle
   class="fil7"
   cx="2082"
   cy="36"
   r="34"
   id="circle83" />
   <polygon
   class="fil8"
   points="1541,815 1500,802 1541,790 1553,749 1566,790 1607,802 1566,815 1553,856 "
   id="polygon85" />
   <polygon
   class="fil7"
   points="1657,480 1637,473 1657,467 1663,447 1670,467 1690,473 1670,480 1663,500 "
   id="polygon87" />
   <g
   id="g134">
    <path
   class="fil9"
   d="M 95,1054 321,929 236,728 C 132,704 52,740 0,827 Z"
   id="path89" />
    <g
   clip-path="url(#id1)"
   id="g106">
     <g
   id="g93">
      <path
   id="path91"
   class="fil10"
   d="M 68,1096 295,971 210,770 C 106,747 25,782 -26,869 Z" />
     </g>
     <g
   clip-path="url(#id2)"
   id="g98">
      <g
   id="g96">
       <polygon
   id="2"
   class="fil11"
   points="342,1075 338,848 -12,1002 115,1200 "
   style="fill:url(#id8)" />
      </g>
     </g>
     <g
   clip-path="url(#id3)"
   id="g104">
      <path
   class="fil4"
   d="M 68,1096 295,971 210,770 C 106,747 25,782 -26,869 Z"
   id="path100" />
      <polygon
   class="fil12"
   points="368,1033 365,805 14,960 142,1158 "
   id="polygon102"
   style="fill:url(#linearGradient967)" />
     </g>
    </g>
    <path
   class="fil4"
   d="M 95,1054 321,929 236,728 C 132,704 52,740 0,827 Z"
   id="path108" />
    <path
   class="fil13"
   d="m 303,886 309,769 c 11,30 19,37 12,85 l -12,86 -13,87 c -1,8 -6,15 -14,18 -8,3 -17,2 -23,-3 l -69,-54 c -56,-44 -92,-56 -118,-122 L 68,988 Z"
   id="path110" />
    <g
   clip-path="url(#id4)"
   id="g130">
     <g
   id="g116">
      <polygon
   id="polygon112"
   class="fil14"
   points="-145,688 170,887 628,2042 163,2077 -331,1129 " />
      <path
   class="fil15"
   d="m 416,2042 -22,-253 c 54,-85 130,-119 231,-101 l 99,195 -159,210 z"
   id="path114" />
     </g>
     <g
   clip-path="url(#id5)"
   id="g122">
      <g
   id="g120">
       <polygon
   id="polygon118"
   class="fil16"
   points="-145,688 170,887 628,2042 163,2077 -331,1129 " />
      </g>
     </g>
     <g
   clip-path="url(#id6)"
   id="g128">
      <path
   class="fil4"
   d="m 416,2042 -22,-253 c 54,-85 130,-119 231,-101 l 99,195 -159,210 z"
   id="path124" />
      <circle
   class="fil17"
   cx="585"
   cy="1931"
   r="70"
   id="circle126" />
     </g>
    </g>
    <path
   class="fil4"
   d="m 303,886 309,769 c 11,30 19,37 12,85 l -12,86 -13,87 c -1,8 -6,15 -14,18 -8,3 -17,2 -23,-3 l -69,-54 c -56,-44 -92,-56 -118,-122 L 68,988 Z"
   id="path132" />
   </g>
  </g>
 </g>
</svg>
