<?xml version="1.0" encoding="UTF-8"?>
<!DOCTYPE svg PUBLIC "-//W3C//DTD SVG 1.1//EN" "http://www.w3.org/Graphics/SVG/1.1/DTD/svg11.dtd">
<!-- Creator: CorelDRAW X7 -->
<svg xmlns="http://www.w3.org/2000/svg" xml:space="preserve" width="170.857mm" height="142.833mm" version="1.1" style="shape-rendering:geometricPrecision; text-rendering:geometricPrecision; image-rendering:optimizeQuality; fill-rule:evenodd; clip-rule:evenodd"
viewBox="0 0 17086 14283"
 xmlns:xlink="http://www.w3.org/1999/xlink">
 <defs>
  <style type="text/css">
   <![CDATA[
    .fil7 {fill:none}
    .fil12 {fill:black}
    .fil3 {fill:#8A43A8}
    .fil4 {fill:#AB69C6}
    .fil0 {fill:#D73C2C}
    .fil16 {fill:#E6E6E6}
    .fil6 {fill:#EDAF71}
    .fil18 {fill:#F75C4C}
    .fil2 {fill:#F9B776}
    .fil20 {fill:#FF6C5C}
    .fil15 {fill:white}
    .fil23 {fill:#1A1A1A;fill-rule:nonzero}
    .fil22 {fill:#6E248D;fill-rule:nonzero}
    .fil8 {fill:#1A1A1A;fill-opacity:0.101961}
    .fil13 {fill:#AB69C6;fill-opacity:0.101961}
    .fil9 {fill:#1A1A1A;fill-opacity:0.149020}
    .fil5 {fill:#1A1A1A;fill-opacity:0.200000}
    .fil11 {fill:#5E147D;fill-opacity:0.200000}
    .fil1 {fill:#DCC6E0;fill-opacity:0.200000}
    .fil21 {fill:#FF6C5C;fill-opacity:0.200000}
    .fil10 {fill:#F57D00;fill-opacity:0.400000}
    .fil19 {fill:url(#id38)}
    .fil17 {fill:url(#id39)}
    .fil14 {fill:url(#id40)}
   ]]>
  </style>
    <clipPath id="id0">
     <path d="M5514 8965c-3271,-2023 -2155,-6261 -738,-7769 2272,-2420 5856,-884 5961,2122 58,1657 1658,2365 2313,3275 1047,1456 -777,2349 -2048,2353l-5488 19z"/>
    </clipPath>
    <clipPath id="id1">
     <path d="M5514 8965c-3271,-2023 -2155,-6261 -738,-7769 2272,-2420 5856,-884 5961,2122 58,1657 1658,2365 2313,3275 1047,1456 -777,2349 -2048,2353l-5488 19z"/>
    </clipPath>
     <clipPath id="id2">
      <path d="M8203 4070l-1488 30c-1865,36 -1844,1343 -1780,2664 0,0 -105,46 -59,216 46,169 82,120 209,124 127,3 207,-130 284,-136 77,-7 320,-88 466,-66 147,23 -183,280 -183,443 0,163 -78,443 -97,567 -16,98 -15,643 -38,1052l3446 -11 -46 -1592 -5 -109 51 85c0,0 -21,6 -8,39 13,33 0,36 54,36 249,0 1233,-137 1027,-503 -20,-35 -49,-19 -49,-19 -89,-608 -304,-2181 -836,-2496 -192,-114 -481,-206 -948,-324z"/>
     </clipPath>
      <clipPath id="id3">
       <path d="M6494 4111c-14,44 -30,82 -49,112 -154,250 298,693 945,627 690,-71 778,-478 786,-561 5,-50 -24,-124 -63,-217l-1398 28c-77,1 -150,5 -221,11z"/>
      </clipPath>
       <clipPath id="id4">
        <path d="M6865 4097c64,13 129,19 197,17 240,-7 336,-19 374,-29l-571 12z"/>
       </clipPath>
       <clipPath id="id5">
        <path d="M6494 4111c-14,44 -30,82 -49,112 -154,250 298,693 945,627 690,-71 778,-478 786,-561 5,-50 -24,-124 -63,-217l-1398 28c-77,1 -150,5 -221,11z"/>
       </clipPath>
       <clipPath id="id6">
        <path d="M6865 4097c64,13 129,19 197,17 240,-7 336,-19 374,-29l-571 12z"/>
       </clipPath>
        <clipPath id="id7">
        </clipPath>
        <clipPath id="id8">
         <path d="M6865 4097c64,13 129,19 197,17 240,-7 336,-19 374,-29l-571 12z"/>
        </clipPath>
        <clipPath id="id9">
        </clipPath>
        <clipPath id="id10">
         <path d="M6865 4097c64,13 129,19 197,17 240,-7 336,-19 374,-29l-571 12z"/>
        </clipPath>
       <clipPath id="id11">
        <path d="M6494 4111c-14,44 -30,82 -49,112 -154,250 298,693 945,627 690,-71 778,-478 786,-561 5,-50 -24,-124 -63,-217l-1398 28c-77,1 -150,5 -221,11z"/>
       </clipPath>
      <clipPath id="id12">
       <path d="M8203 4070l-1488 30c-1865,36 -1844,1343 -1780,2664 0,0 -105,46 -59,216 46,169 82,120 209,124 127,3 207,-130 284,-136 77,-7 320,-88 466,-66 147,23 -183,280 -183,443 0,163 -78,443 -97,567 -16,98 -15,643 -38,1052l3446 -11 -46 -1592 -5 -109 51 85c0,0 -21,6 -8,39 13,33 0,36 54,36 249,0 1233,-137 1027,-503 -20,-35 -49,-19 -49,-19 -89,-608 -304,-2181 -836,-2496 -192,-114 -481,-206 -948,-324z"/>
      </clipPath>
      <clipPath id="id13">
       <path d="M5544 8114c116,74 264,83 455,-15 620,-320 1458,-1157 1853,-1709 163,-229 378,-457 378,-457 0,0 46,0 228,-130 183,-131 359,-255 359,-340 0,-84 3,-81 -11,-99 -15,-18 11,-140 -33,-175 -44,-34 -44,-34 -44,-34 0,0 15,-108 -41,-156 -55,-49 -121,-77 -121,-77 0,0 -31,-13 28,-60 192,-155 385,-311 593,-444 -12,-9 -25,-17 -37,-24 -44,-26 -92,-51 -147,-75 -219,112 -513,357 -663,471 0,0 -15,-21 -67,21 -52,42 -171,129 -171,129 0,0 -72,31 -93,52 -21,21 -85,148 -85,148l-145 423c0,0 -17,75 -82,127 -610,488 -792,904 -1572,1210 -49,19 -88,45 -103,30 -28,-27 -40,-20 -40,-20 -191,-25 -322,-27 -499,35 106,-25 251,-58 351,-43 147,23 -183,280 -183,443 0,163 -78,443 -97,567 -5,31 -8,104 -11,202z"/>
      </clipPath>
      <clipPath id="id14">
       <path d="M8203 4070l-1488 30c-1865,36 -1844,1343 -1780,2664 0,0 -105,46 -59,216 46,169 82,120 209,124 127,3 207,-130 284,-136 77,-7 320,-88 466,-66 147,23 -183,280 -183,443 0,163 -78,443 -97,567 -16,98 -15,643 -38,1052l3446 -11 -46 -1592 -5 -109 51 85c0,0 -21,6 -8,39 13,33 0,36 54,36 249,0 1233,-137 1027,-503 -20,-35 -49,-19 -49,-19 -89,-608 -304,-2181 -836,-2496 -192,-114 -481,-206 -948,-324z"/>
      </clipPath>
      <clipPath id="id15">
       <path d="M5544 8114c116,74 264,83 455,-15 620,-320 1458,-1157 1853,-1709 163,-229 378,-457 378,-457 0,0 46,0 228,-130 183,-131 359,-255 359,-340 0,-84 3,-81 -11,-99 -15,-18 11,-140 -33,-175 -44,-34 -44,-34 -44,-34 0,0 15,-108 -41,-156 -55,-49 -121,-77 -121,-77 0,0 -31,-13 28,-60 192,-155 385,-311 593,-444 -12,-9 -25,-17 -37,-24 -44,-26 -92,-51 -147,-75 -219,112 -513,357 -663,471 0,0 -15,-21 -67,21 -52,42 -171,129 -171,129 0,0 -72,31 -93,52 -21,21 -85,148 -85,148l-145 423c0,0 -17,75 -82,127 -610,488 -792,904 -1572,1210 -49,19 -88,45 -103,30 -28,-27 -40,-20 -40,-20 -191,-25 -322,-27 -499,35 106,-25 251,-58 351,-43 147,23 -183,280 -183,443 0,163 -78,443 -97,567 -5,31 -8,104 -11,202z"/>
      </clipPath>
      <clipPath id="id16">
       <path d="M8203 4070l-1488 30c-1865,36 -1844,1343 -1780,2664 0,0 -105,46 -59,216 46,169 82,120 209,124 127,3 207,-130 284,-136 77,-7 320,-88 466,-66 147,23 -183,280 -183,443 0,163 -78,443 -97,567 -16,98 -15,643 -38,1052l3446 -11 -46 -1592 -5 -109 51 85c0,0 -21,6 -8,39 13,33 0,36 54,36 249,0 1233,-137 1027,-503 -20,-35 -49,-19 -49,-19 -89,-608 -304,-2181 -836,-2496 -192,-114 -481,-206 -948,-324z"/>
      </clipPath>
     <clipPath id="id17">
      <path d="M5514 8965c-3271,-2023 -2155,-6261 -738,-7769 2272,-2420 5856,-884 5961,2122 58,1657 1658,2365 2313,3275 1047,1456 -777,2349 -2048,2353l-5488 19z"/>
     </clipPath>
     <clipPath id="id18">
      <path d="M5035 7105c90,441 254,1271 878,949 621,-320 1458,-1156 1853,-1709 163,-228 378,-456 378,-456 0,0 46,0 229,-131 182,-130 358,-254 358,-339 0,-85 4,-82 -11,-100 -15,-17 11,-140 -33,-174 -44,-34 -44,-34 -44,-34 0,0 15,-108 -41,-157 -55,-49 -120,-76 -120,-76 0,0 -31,-14 28,-61 198,-160 397,-320 613,-456 0,0 36,-28 21,-75 -15,-48 -51,-74 -93,-64 -214,49 -612,384 -796,523 0,0 -15,-21 -67,22 -52,42 -171,128 -171,128 0,0 -72,31 -93,53 -21,21 -85,148 -85,148l-145 422c0,0 -16,75 -81,128 -611,488 -792,904 -1572,1210 -50,19 -88,45 -104,30 -27,-27 -40,-21 -40,-21 -191,-25 -322,-27 -500,36 -140,49 -168,163 -362,204z"/>
     </clipPath>
     <clipPath id="id19">
      <path d="M5514 8965c-3271,-2023 -2155,-6261 -738,-7769 2272,-2420 5856,-884 5961,2122 58,1657 1658,2365 2313,3275 1047,1456 -777,2349 -2048,2353l-5488 19z"/>
     </clipPath>
     <clipPath id="id20">
      <path d="M6746 3239c0,0 13,710 -117,921 -121,196 233,544 741,492 541,-56 610,-375 616,-439 15,-150 -339,-544 -112,-1102 227,-558 -1128,128 -1128,128z"/>
     </clipPath>
      <clipPath id="id21">
       <path d="M6699 3945c115,86 258,134 414,130 335,-10 311,-33 311,-33 178,-50 311,-159 406,-299 -44,-175 -55,-388 44,-632 227,-558 -1128,128 -1128,128 0,0 8,416 -47,706z"/>
      </clipPath>
      <clipPath id="id22">
       <path d="M6746 3239c0,0 13,710 -117,921 -121,196 233,544 741,492 541,-56 610,-375 616,-439 15,-150 -339,-544 -112,-1102 227,-558 -1128,128 -1128,128z"/>
      </clipPath>
      <clipPath id="id23">
       <path d="M6699 3945c115,86 258,134 414,130 335,-10 311,-33 311,-33 178,-50 311,-159 406,-299 -44,-175 -55,-388 44,-632 227,-558 -1128,128 -1128,128 0,0 8,416 -47,706z"/>
      </clipPath>
       <clipPath id="id24">
       </clipPath>
       <clipPath id="id25">
        <path d="M6699 3945c115,86 258,134 414,130 335,-10 311,-33 311,-33 178,-50 311,-159 406,-299 -44,-175 -55,-388 44,-632 227,-558 -1128,128 -1128,128 0,0 8,416 -47,706z"/>
       </clipPath>
       <clipPath id="id26">
       </clipPath>
       <clipPath id="id27">
        <path d="M6699 3945c115,86 258,134 414,130 335,-10 311,-33 311,-33 178,-50 311,-159 406,-299 -44,-175 -55,-388 44,-632 227,-558 -1128,128 -1128,128 0,0 8,416 -47,706z"/>
       </clipPath>
      <clipPath id="id28">
       <path d="M6746 3239c0,0 13,710 -117,921 -121,196 233,544 741,492 541,-56 610,-375 616,-439 15,-150 -339,-544 -112,-1102 227,-558 -1128,128 -1128,128z"/>
      </clipPath>
     <clipPath id="id29">
      <path d="M5514 8965c-3271,-2023 -2155,-6261 -738,-7769 2272,-2420 5856,-884 5961,2122 58,1657 1658,2365 2313,3275 1047,1456 -777,2349 -2048,2353l-5488 19z"/>
     </clipPath>
     <clipPath id="id30">
      <path d="M6275 2946c-145,-96 -246,75 -177,159 43,51 192,306 247,296 95,-16 128,102 158,186 90,242 300,415 565,442 339,34 318,8 318,8 676,-100 867,-1066 631,-1536 -136,-271 -25,-489 -25,-489 0,0 -348,392 -843,359 -812,-54 -655,-152 -874,575z"/>
     </clipPath>
      <clipPath id="id31">
      </clipPath>
      <clipPath id="id32">
       <path d="M6275 2946c-145,-96 -246,75 -177,159 43,51 192,306 247,296 95,-16 128,102 158,186 90,242 300,415 565,442 339,34 318,8 318,8 676,-100 867,-1066 631,-1536 -136,-271 -25,-489 -25,-489 0,0 -348,392 -843,359 -812,-54 -655,-152 -874,575z"/>
      </clipPath>
      <clipPath id="id33">
      </clipPath>
      <clipPath id="id34">
       <path d="M6275 2946c-145,-96 -246,75 -177,159 43,51 192,306 247,296 95,-16 128,102 158,186 90,242 300,415 565,442 339,34 318,8 318,8 676,-100 867,-1066 631,-1536 -136,-271 -25,-489 -25,-489 0,0 -348,392 -843,359 -812,-54 -655,-152 -874,575z"/>
      </clipPath>
     <clipPath id="id35">
      <path d="M5514 8965c-3271,-2023 -2155,-6261 -738,-7769 2272,-2420 5856,-884 5961,2122 58,1657 1658,2365 2313,3275 1047,1456 -777,2349 -2048,2353l-5488 19z"/>
     </clipPath>
    <clipPath id="id36">
     <path d="M9068 1122l2157 0c141,0 256,116 256,257l0 1040c0,141 -115,257 -256,257l-2157 0c-141,0 -256,-116 -256,-257l0 -1040c0,-141 115,-257 256,-257z"/>
    </clipPath>
    <clipPath id="id37">
     <path d="M9951 1952l3496 0c209,0 380,171 380,379l0 1717c0,209 -171,380 -380,380l-3496 0c-209,0 -380,-171 -380,-380l0 -1717c0,-208 171,-379 380,-379z"/>
    </clipPath>
  <linearGradient id="id38" gradientUnits="userSpaceOnUse" x1="4819.64" y1="9618.45" x2="12204.9" y2="9618.45">
   <stop offset="0" style="stop-opacity:1; stop-color:white"/>
   <stop offset="1" style="stop-opacity:1; stop-color:#AB69C6"/>
  </linearGradient>
  <linearGradient id="id39" gradientUnits="userSpaceOnUse" xlink:href="#id38" x1="3389.68" y1="9008.09" x2="13634.9" y2="9008.09">
  </linearGradient>
  <linearGradient id="id40" gradientUnits="userSpaceOnUse" x1="8811.93" y1="1899.06" x2="11481.2" y2="1899.06">
   <stop offset="0" style="stop-opacity:1; stop-color:#E6E6E6"/>
   <stop offset="1" style="stop-opacity:1; stop-color:white"/>
  </linearGradient>
 </defs>
 <g id="Layer_x0020_1">
  <metadata id="CorelCorpID_0Corel-Layer"/>
  <g id="_665075068432">
   <path class="fil0" d="M12418 1252c-43,43 -113,44 -157,0 -43,-43 -43,-113 0,-157l168 -168 -168 -167c-43,-44 -43,-114 0,-157 44,-44 114,-44 157,0l168 167 168 -167c44,-44 114,-44 157,0 43,43 43,113 0,157l-174 178 160 159c43,43 57,112 14,155 -43,44 -112,29 -155,-14l-159 -160 -179 174zm763 -325c0,-328 -266,-595 -595,-595 -328,0 -595,267 -595,595 0,329 267,596 595,596 329,0 595,-267 595,-596z"/>
   <g style="clip-path:url(#id0)">
    <polygon class="fil1" points="3384,2 13361,2 13361,8965 3384,8965 "/>
   </g>
   <g style="clip-path:url(#id1)">
    <g>
     <path id="1" class="fil2" d="M9873 7197c57,571 61,1229 -69,1811l-690 0c88,-663 -7,-1127 -49,-1676 -45,-607 535,-392 535,-392l273 257z"/>
     <path class="fil3" d="M8203 4070l-1488 30c-1865,36 -1844,1343 -1780,2664 0,0 -105,46 -59,216 46,169 82,120 209,124 127,3 207,-130 284,-136 77,-7 320,-88 466,-66 147,23 -183,280 -183,443 0,163 -78,443 -97,567 -16,102 -15,683 -41,1096l3450 0 -47 -1647 -5 -109 51 85c0,0 -21,6 -8,39 13,33 0,36 54,36 249,0 1233,-137 1027,-503 -20,-35 -49,-19 -49,-19 -89,-608 -304,-2181 -836,-2496 -192,-114 -481,-206 -948,-324z"/>
    </g>
    <g style="clip-path:url(#id2)">
     <g>
      <path id="1" class="fil4" d="M6595 3048c0,0 16,905 -150,1175 -154,250 298,693 945,627 690,-71 778,-478 786,-561 19,-190 -433,-693 -143,-1404 290,-712 -1438,163 -1438,163z"/>
     </g>
     <g style="clip-path:url(#id3)">
      <g>
      </g>
      <g style="clip-path:url(#id4)">
       <polygon id="2" class="fil5" points="5662,1446 8209,1446 8209,4114 5662,4114 "/>
      </g>
      <g style="clip-path:url(#id5)">
      </g>
      <g style="clip-path:url(#id6)">
       <g>
       </g>
       <g style="clip-path:url(#id7)">
        <polygon id="3" class="fil5" points="4795,3970 4856,3970 4856,4077 4795,4077 "/>
       </g>
       <g style="clip-path:url(#id8)">
       </g>
       <g style="clip-path:url(#id9)">
        <g>
         <path id="4" class="fil6" d="M4850 3998l-4 1c0,0 -1,-1 -1,-2 -1,0 -1,0 -1,0 0,0 -3,2 -3,2 0,1 -1,1 -1,1 0,0 -1,0 -1,-1 0,0 0,0 0,0 0,0 -1,-1 -1,-2 1,0 2,-1 2,-1l-6 2 -6 2c-1,1 -1,7 -1,8l-11 -20 12 -14 6 3c0,0 2,-2 3,-3 2,0 7,0 7,0 0,0 3,1 4,1 1,0 3,1 3,1l8 2 -9 20z"/>
        </g>
       </g>
       <g style="clip-path:url(#id10)">
        <path class="fil7" d="M4854 3970c0,0 -5,0 -9,1 -4,1 -7,2 -7,2 0,0 -1,0 -2,2 0,1 -6,5 -6,5 0,0 -2,1 -3,2 -1,1 -1,2 -1,3 -1,2 -1,2 -1,2 0,0 0,0 0,1 0,0 1,11 1,11 0,0 1,8 1,9 0,0 0,1 0,2l-5 36 -7 -4c-4,9 -10,17 -20,23l25 9c42,16 22,-57 22,-63 1,-1 1,-3 2,-5l2 -4c0,0 1,-3 1,-3 0,-1 0,0 0,0 0,0 1,-1 1,-1 0,-1 0,-3 0,-3l0 -4c0,0 0,-1 0,-2 -1,-1 -4,-6 -4,-6 0,0 -1,-1 -2,-1 -2,0 -4,2 -4,2l2 -4c0,0 0,0 1,0 1,0 7,0 7,0 0,0 5,2 6,2 0,0 1,-1 2,-2 0,0 0,-2 0,-2l-7 -3 4 -2c0,0 3,-2 1,-3z"/>
       </g>
      </g>
      <g style="clip-path:url(#id11)">
       <path class="fil7" d="M5896 2890c-196,-96 -295,134 -194,226 51,48 162,103 201,160 68,98 61,190 154,171 91,-19 176,106 228,206 151,288 441,470 777,461 428,-12 397,-42 397,-42 828,-234 910,-1471 540,-2019 -214,-316 -111,-607 -111,-607 0,0 -368,535 -673,589 -1009,179 -1369,-1360 -1319,855z"/>
      </g>
     </g>
     <g style="clip-path:url(#id12)">
      <path class="fil7" d="M6595 3048c0,0 16,905 -150,1175 -154,250 298,693 945,627 690,-71 778,-478 786,-561 19,-190 -433,-693 -143,-1404 290,-712 -1438,163 -1438,163z"/>
      <path class="fil5" d="M5990 6878c-71,-93 -95,-647 -32,-804 0,-1 -15,146 32,381 40,199 208,785 206,783 -69,-67 -201,-258 -206,-360z"/>
      <path class="fil5" d="M10043 6192c89,270 -58,694 -57,697 -94,100 -529,307 -163,60 157,-106 66,-246 111,-414 47,-175 111,-298 109,-343z"/>
      <path class="fil8" d="M8912 7252c-115,-283 -313,-400 -222,-140 10,29 279,768 9,489 -17,-17 147,809 147,1163 0,329 -51,1377 527,654 9,-11 320,-1414 7,-1598 -290,-170 -421,-410 -427,-414 -6,-4 -38,-148 -41,-154z"/>
     </g>
     <g style="clip-path:url(#id13)">
      <polygon class="fil9" points="5120,4264 9233,4264 9233,8171 5120,8171 "/>
     </g>
     <g style="clip-path:url(#id14)">
     </g>
     <g style="clip-path:url(#id15)">
      <g>
       <path id="1" class="fil10" d="M5106 7152c194,272 1714,-738 935,-794 -30,-2 -932,737 -935,794z"/>
      </g>
     </g>
     <g style="clip-path:url(#id16)">
      <path class="fil7" d="M5120 7149c91,442 255,1271 879,950 620,-320 1458,-1157 1853,-1709 163,-229 378,-457 378,-457 0,0 46,0 228,-130 183,-131 359,-255 359,-340 0,-84 3,-81 -11,-99 -15,-18 11,-140 -33,-175 -44,-34 -44,-34 -44,-34 0,0 15,-108 -41,-156 -55,-49 -121,-77 -121,-77 0,0 -31,-13 28,-60 199,-160 398,-321 613,-457 0,0 36,-28 22,-75 -15,-47 -51,-73 -93,-64 -214,50 -612,385 -796,524 0,0 -15,-21 -67,21 -52,42 -171,129 -171,129 0,0 -72,31 -93,52 -21,21 -85,148 -85,148l-145 423c0,0 -17,75 -82,127 -610,488 -792,904 -1572,1210 -49,19 -88,45 -103,30 -28,-27 -40,-20 -40,-20 -192,-25 -322,-27 -501,35 -139,50 -167,163 -362,204z"/>
      <path class="fil11" d="M4449 8653c875,-1244 2175,-38 3580,-1237 508,-433 350,579 660,1222 680,1406 -1774,1524 -2934,1188 -379,-110 -1021,-859 -1306,-1173z"/>
     </g>
    </g>
    <g style="clip-path:url(#id17)">
     <path class="fil7" d="M8203 4070l-1488 30c-1865,36 -1844,1343 -1780,2664 0,0 -105,46 -59,216 46,169 82,120 209,124 127,3 207,-130 284,-136 77,-7 320,-88 466,-66 147,23 -183,280 -183,443 0,163 -78,443 -97,567 -16,102 -15,683 -41,1096l3450 0 -47 -1647 -5 -109 51 85c0,0 -21,6 -8,39 13,33 0,36 54,36 249,0 1233,-137 1027,-503 -20,-35 -49,-19 -49,-19 -89,-608 -304,-2181 -836,-2496 -192,-114 -481,-206 -948,-324z"/>
     <path class="fil2" d="M5035 7105c90,441 254,1271 878,949 621,-320 1458,-1156 1853,-1709 163,-228 378,-456 378,-456 0,0 46,0 229,-131 182,-130 358,-254 358,-339 0,-85 4,-82 -11,-100 -15,-17 11,-140 -33,-174 -44,-34 -44,-34 -44,-34 0,0 15,-108 -41,-157 -55,-49 -120,-76 -120,-76 0,0 -31,-14 28,-61 198,-160 397,-320 613,-456 0,0 36,-28 21,-75 -15,-48 -51,-74 -93,-64 -214,49 -612,384 -796,523 0,0 -15,-21 -67,22 -52,42 -171,128 -171,128 0,0 -72,31 -93,53 -21,21 -85,148 -85,148l-145 422c0,0 -16,75 -81,128 -611,488 -792,904 -1572,1210 -50,19 -88,45 -104,30 -27,-27 -40,-21 -40,-21 -191,-25 -322,-27 -500,36 -140,49 -168,163 -362,204z"/>
    </g>
    <g style="clip-path:url(#id18)">
     <g>
      <path id="1" class="fil10" d="M5020 7107c194,273 1714,-737 936,-794 -30,-2 -932,738 -936,794z"/>
     </g>
    </g>
    <g style="clip-path:url(#id19)">
     <path class="fil7" d="M5035 7105c90,441 254,1271 878,949 621,-320 1458,-1156 1853,-1709 163,-228 378,-456 378,-456 0,0 46,0 229,-131 182,-130 358,-254 358,-339 0,-85 4,-82 -11,-100 -15,-17 11,-140 -33,-174 -44,-34 -44,-34 -44,-34 0,0 15,-108 -41,-157 -55,-49 -120,-76 -120,-76 0,0 -31,-14 28,-61 198,-160 397,-320 613,-456 0,0 36,-28 21,-75 -15,-48 -51,-74 -93,-64 -214,49 -612,384 -796,523 0,0 -15,-21 -67,22 -52,42 -171,128 -171,128 0,0 -72,31 -93,53 -21,21 -85,148 -85,148l-145 422c0,0 -16,75 -81,128 -611,488 -792,904 -1572,1210 -50,19 -88,45 -104,30 -27,-27 -40,-21 -40,-21 -191,-25 -322,-27 -500,36 -140,49 -168,163 -362,204z"/>
     <path class="fil12" d="M6352 3354c23,-3 41,-19 46,-41 14,-53 29,-116 40,-173 2,-5 4,-11 6,-16 49,-97 362,-271 376,-318 14,-46 -51,47 -55,-169 -1,-40 80,97 111,72 18,-14 15,-215 38,-218 16,-2 135,420 151,424 353,85 552,-552 829,-550 23,261 -52,626 -56,734 941,-1068 310,-1693 -449,-1798 162,-66 343,-117 478,-117 6,0 -979,52 -1357,245 -244,125 -421,331 -448,624 -74,573 286,761 290,1301z"/>
     <path class="fil2" d="M6746 3239c0,0 13,710 -117,921 -121,196 233,544 741,492 541,-56 610,-375 616,-439 15,-150 -339,-544 -112,-1102 227,-558 -1128,128 -1128,128z"/>
    </g>
    <g style="clip-path:url(#id20)">
     <g>
     </g>
     <g style="clip-path:url(#id21)">
      <polygon id="1" class="fil5" points="6014,1983 8012,1983 8012,4075 6014,4075 "/>
     </g>
     <g style="clip-path:url(#id22)">
     </g>
     <g style="clip-path:url(#id23)">
      <g>
      </g>
      <g style="clip-path:url(#id24)">
       <polygon id="2" class="fil5" points="5335,3962 5383,3962 5383,4046 5335,4046 "/>
      </g>
      <g style="clip-path:url(#id25)">
      </g>
      <g style="clip-path:url(#id26)">
       <g>
        <path id="3" class="fil6" d="M5378 3984l-3 1c0,0 -1,-1 -1,-1 -1,-1 -1,-1 -1,-1 0,0 -2,2 -2,2 0,1 -1,0 -1,1 0,0 0,-1 -1,-1 0,0 0,-1 0,-1 0,0 0,0 0,-1 0,0 1,0 1,0l-5 1 -4 2c-1,0 -1,5 -1,6l-9 -16 10 -11 4 3c0,0 2,-2 3,-2 1,0 5,-1 5,-1 0,0 3,1 3,1 1,0 3,1 3,1l6 1 -7 16z"/>
       </g>
      </g>
      <g style="clip-path:url(#id27)">
       <path class="fil7" d="M5381 3962c0,0 -4,0 -7,1 -3,1 -5,1 -5,1 0,0 -1,1 -2,2 0,1 -5,4 -5,4 0,0 -2,1 -2,2 -1,0 -1,1 -1,2 0,1 -1,2 -1,2 0,0 0,0 0,0 0,1 1,9 1,9 0,0 1,6 1,7 0,0 0,1 0,1l-4 28 -5 -2c-3,7 -8,13 -16,18l19 7c34,12 18,-45 17,-49 1,-2 2,-3 2,-5l2 -3c0,0 1,-2 1,-2 0,-1 0,0 0,0 0,0 1,-1 1,-1 0,-1 0,-2 0,-2l0 -3c0,0 0,-1 -1,-2 -1,-1 -3,-5 -3,-5 0,0 -1,-1 -2,0 -1,0 -2,1 -2,1l1 -3c0,0 0,0 1,0 1,0 5,0 5,0 0,0 4,1 5,1 0,0 1,0 1,-1 1,0 1,-1 1,-1l-6 -3 3 -1c0,0 3,-2 1,-3z"/>
      </g>
     </g>
     <g style="clip-path:url(#id28)">
      <path class="fil7" d="M6198 3116c-154,-76 -231,104 -152,177 40,37 127,80 158,125 53,77 47,149 121,134 71,-15 137,83 178,161 118,226 346,369 610,362 335,-10 311,-33 311,-33 649,-183 713,-1154 423,-1583 -167,-248 -86,-476 -86,-476 0,0 -290,420 -529,462 -791,140 -1073,-1067 -1034,671z"/>
     </g>
    </g>
    <g style="clip-path:url(#id29)">
     <path class="fil7" d="M6746 3239c0,0 13,710 -117,921 -121,196 233,544 741,492 541,-56 610,-375 616,-439 15,-150 -339,-544 -112,-1102 227,-558 -1128,128 -1128,128z"/>
     <path class="fil2" d="M6275 2946c-145,-96 -246,75 -177,159 43,51 192,306 247,296 95,-16 128,102 158,186 90,242 300,415 565,442 339,34 318,8 318,8 676,-100 867,-1066 631,-1536 -136,-271 -25,-489 -25,-489 0,0 -348,392 -843,359 -812,-54 -655,-152 -874,575z"/>
    </g>
    <g style="clip-path:url(#id30)">
     <g>
     </g>
     <g style="clip-path:url(#id31)">
      <polygon id="1" class="fil5" points="5287,3690 5345,3690 5345,3772 5287,3772 "/>
     </g>
     <g style="clip-path:url(#id32)">
     </g>
     <g style="clip-path:url(#id33)">
      <g>
       <path id="2" class="fil6" d="M5338 3712l-3 0c0,0 -1,0 -2,-1 0,-1 0,0 0,0 0,0 -2,1 -2,1 0,1 -1,1 -1,1 0,0 -1,-1 -1,-1 0,0 0,-1 0,-1 0,0 -1,0 0,-1 0,0 1,0 1,0l-5 1 -5 1c0,0 -1,5 -2,6l-6 -17 11 -10 4 3c0,0 2,-2 3,-2 1,0 5,1 5,1 0,0 3,0 3,1 1,0 3,1 3,1l5 2 -8 15z"/>
      </g>
     </g>
     <g style="clip-path:url(#id34)">
      <path class="fil7" d="M5344 3690c0,0 -4,0 -7,0 -4,1 -6,1 -6,1 0,0 -1,0 -2,1 0,1 -6,4 -6,4 0,0 -1,1 -2,1 -1,1 -1,2 -1,3 -1,1 -1,1 -1,1 0,0 0,0 0,1 0,0 0,9 0,9 0,0 -1,6 -1,7 0,0 0,0 0,1l-8 28 -4 -3c-4,6 -10,12 -19,15l19 10c32,17 23,-43 24,-47 1,-1 1,-3 2,-4l2 -3c0,0 1,-2 1,-3 0,0 0,0 0,0 0,0 1,0 1,0 0,-1 1,-2 1,-2l0 -3c0,0 0,-1 0,-2 -1,-1 -3,-5 -3,-5 0,0 0,-1 -1,-1 -1,0 -3,1 -3,1l2 -3c0,0 0,0 1,0 0,0 5,1 5,1 0,0 4,1 4,2 0,0 2,-1 2,-1 0,-1 1,-2 1,-2l-6 -3 4 -1c0,0 2,-1 1,-3z"/>
     </g>
    </g>
    <g style="clip-path:url(#id35)">
     <path class="fil7" d="M6275 2946c-145,-96 -246,75 -177,159 43,51 192,306 247,296 95,-16 128,102 158,186 90,242 300,415 565,442 339,34 318,8 318,8 676,-100 867,-1066 631,-1536 -136,-271 -25,-489 -25,-489 0,0 -348,392 -843,359 -812,-54 -655,-152 -874,575z"/>
     <path class="fil12" d="M6247 2875c37,101 94,217 173,352 5,-94 -97,-341 152,-490 43,-26 19,-266 155,-355 75,-49 306,-19 306,-19l-113 -339 -466 -105 -201 240c0,0 -102,318 -27,331 49,9 -2,97 -12,208 -6,58 33,177 33,177z"/>
     <path class="fil12" d="M7749 1595l-45 -217c255,80 476,251 658,526l-613 -309z"/>
     <path class="fil12" d="M7665 1584l-492 -299c339,-11 698,35 1008,330l-516 -31z"/>
     <path class="fil12" d="M7537 2313c-1,-6 -669,258 -690,420 25,-135 428,-378 573,-431 129,-47 92,-76 117,11z"/>
     <path class="fil12" d="M7348 2389c-112,-201 -606,122 -602,120 360,-169 602,-120 602,-120z"/>
     <path class="fil13" d="M1751 13206c-31,-35 -707,-131 -572,750 90,586 -1456,726 -1088,-657 136,-508 -801,-1352 -1291,402 -166,591 1962,3944 4136,1060 702,-930 -453,-1992 -705,-1970 -195,17 -490,325 -480,415z"/>
    </g>
   </g>
   <path class="fil7" d="M5514 8965c-3271,-2023 -2155,-6261 -738,-7769 2272,-2420 5856,-884 5961,2122 58,1657 1658,2365 2313,3275 1047,1456 -777,2349 -2048,2353l-5488 19z"/>
   <path class="fil14" d="M9068 1122l2157 0c141,0 256,116 256,257l0 1040c0,141 -115,257 -256,257l-2157 0c-141,0 -256,-116 -256,-257l0 -1040c0,-141 115,-257 256,-257z"/>
   <g style="clip-path:url(#id36)">
    <g>
     <path id="1" class="fil15" d="M9069 1392l2155 0 0 109 -2155 0 0 -109zm0 902l1078 0 0 110 -1078 0 0 -110zm0 -300l2155 0 0 109 -2155 0 0 -109zm0 -301l2155 0 0 109 -2155 0 0 -109z"/>
    </g>
   </g>
   <path class="fil7" d="M9068 1122l2157 0c141,0 256,116 256,257l0 1040c0,141 -115,257 -256,257l-2157 0c-141,0 -256,-116 -256,-257l0 -1040c0,-141 115,-257 256,-257z"/>
   <path class="fil16" d="M9951 1952l3496 0c209,0 380,171 380,379l0 1717c0,209 -171,380 -380,380l-3496 0c-209,0 -380,-171 -380,-380l0 -1717c0,-208 171,-379 380,-379z"/>
   <g style="clip-path:url(#id37)">
    <g>
     <path id="1" class="fil15" d="M9981 2381l3436 0 0 175 -3436 0 0 -175zm0 1439l1718 0 0 174 -1718 0 0 -174zm0 -479l3436 0 0 174 -3436 0 0 -174zm0 -480l3436 0 0 174 -3436 0 0 -174z"/>
    </g>
   </g>
   <path class="fil7" d="M9951 1952l3496 0c209,0 380,171 380,379l0 1717c0,209 -171,380 -380,380l-3496 0c-209,0 -380,-171 -380,-380l0 -1717c0,-208 171,-379 380,-379z"/>
   <path class="fil17" d="M12615 8877l889 0c72,0 131,59 131,131l0 0c0,72 -59,131 -131,131l-889 0c-72,0 -131,-59 -131,-131l0 0c0,-72 59,-131 131,-131zm-9095 0l8345 0c72,0 131,59 131,131l0 0c0,72 -59,131 -131,131l-8345 0c-71,0 -130,-59 -130,-131l0 0c0,-72 59,-131 130,-131z"/>
   <path class="fil18" d="M12479 1263c-38,38 -102,38 -141,0 -38,-39 -38,-102 0,-141l151 -151 -151 -151c-38,-38 -38,-102 0,-141 39,-38 103,-38 141,0l151 151 151 -151c38,-38 102,-38 141,0 38,39 38,103 0,141l-151 151 151 151c38,39 38,102 0,141 -39,38 -103,38 -141,0l-151 -151 -151 151zm685 -292c0,-295 -239,-534 -534,-534 -295,0 -534,239 -534,534 0,295 239,534 534,534 295,0 534,-239 534,-534z"/>
   <path class="fil19" d="M5555 9524l-641 0c-52,0 -94,43 -94,94l0 0c0,52 42,95 94,95l641 0c52,0 94,-43 94,-95l0 0c0,-51 -42,-94 -94,-94zm6556 0l-6015 0c-52,0 -95,43 -95,94l0 0c0,52 43,95 95,95l6015 0c51,0 94,-43 94,-95l0 0c0,-51 -43,-94 -94,-94z"/>
   <circle class="fil20" cx="11296" cy="7203" r="185"/>
   <path class="fil21" d="M12615 5874c168,0 305,136 305,305 0,168 -137,305 -305,305 -169,0 -305,-137 -305,-305 0,-169 136,-305 305,-305z"/>
   <circle class="fil20" cx="12266" cy="5030" r="98"/>
   <circle class="fil20" transform="matrix(-0.235959 0.103 -0.103 -0.235959 4235.35 394.826)" r="720"/>
   <path class="fil21" d="M3559 2141c-155,68 -335,-3 -402,-158 -68,-154 3,-334 157,-401 155,-68 335,3 402,157 68,155 -3,335 -157,402z"/>
   <circle class="fil20" transform="matrix(-0.125331 0.0547091 -0.0547091 -0.125331 4215.92 2774.99)" r="720"/>
   <path class="fil22" d="M5418 10896l-443 0 -252 817 -8 0 -282 -817 -463 0 529 1251 -41 105c-40,109 -84,171 -214,171 -40,0 -94,-11 -134,-23l-46 352c61,15 150,28 229,28 318,0 456,-156 557,-421l568 -1463z"/>
   <path id="1" class="fil22" d="M6327 11657c0,158 -94,260 -262,260 -84,0 -181,-33 -181,-130 0,-151 206,-174 390,-174l53 0 0 44zm-555 -360c76,-72 194,-130 313,-130 130,0 229,58 229,183l0 21c-369,0 -814,61 -814,429 0,298 259,398 460,398 151,0 296,-61 359,-166l8 0 0 135 382 0 0 -640c0,-463 -158,-672 -583,-672 -206,0 -418,74 -565,215l211 227z"/>
   <path id="2" class="fil22" d="M8275 12167l0 -786c0,-255 -120,-521 -464,-521 -175,0 -308,95 -364,197l-5 0 0 -820 -417 0 0 1930 417 0 0 -686c0,-151 82,-271 227,-271 150,0 186,125 186,268l0 689 420 0z"/>
   <path id="3" class="fil22" d="M9846 12167l0 -786c0,-255 -120,-521 -464,-521 -175,0 -308,95 -364,197l-5 0 0 -820 -417 0 0 1930 417 0 0 -686c0,-151 82,-271 227,-271 150,0 186,125 186,268l0 689 420 0z"/>
   <path id="4" class="fil22" d="M11416 12167l0 -786c0,-255 -119,-521 -463,-521 -176,0 -308,95 -364,197l-5 0 0 -820 -418 0 0 1930 418 0 0 -686c0,-151 81,-271 227,-271 150,0 185,125 185,268l0 689 420 0z"/>
   <path id="5" class="fil22" d="M12208 11943c0,-141 -117,-251 -254,-251 -143,0 -260,115 -260,253 0,141 120,248 260,248 137,0 254,-110 254,-250l0 0z"/>
   <path id="6" class="fil22" d="M12972 11943c0,-141 -117,-251 -255,-251 -142,0 -259,115 -259,253 0,141 119,248 259,248 138,0 255,-110 255,-250l0 0z"/>
   <path id="7" class="fil22" d="M13736 11943c0,-141 -117,-251 -255,-251 -142,0 -259,115 -259,253 0,141 119,248 259,248 138,0 255,-110 255,-250l0 0z"/>
   <path class="fil23" d="M452 13491c-53,-47 -121,-66 -192,-66 -123,0 -239,70 -239,204 0,209 294,147 294,262 0,45 -51,66 -96,66 -46,0 -92,-22 -120,-59l-99 108c60,55 131,79 211,79 130,0 242,-67 242,-207 0,-220 -289,-146 -289,-261 0,-47 54,-64 93,-64 34,0 78,13 101,41l94 -103z"/>
   <path id="1" class="fil23" d="M833 13638l-117 0 0 -128 -133 0 0 128 -85 0 0 106 85 0 0 205c0,94 68,130 157,130 31,0 64,-2 93,-13l0 -111c-12,11 -40,13 -54,13 -58,0 -63,-34 -63,-80l0 -144 117 0 0 -106z"/>
   <path id="2" class="fil23" d="M884 13853c0,138 107,226 240,226 133,0 239,-88 239,-226 0,-137 -106,-226 -239,-226 -133,0 -240,89 -240,226zm133 0c0,-64 40,-109 107,-109 66,0 106,45 106,109 0,65 -40,109 -106,109 -67,0 -107,-44 -107,-109z"/>
   <path id="3" class="fil23" d="M1441 14069l133 0 0 -180c0,-86 13,-145 114,-145 19,0 38,4 57,9l0 -121c-13,-4 -30,-5 -45,-5 -58,0 -95,28 -124,80l-2 0 0 -69 -133 0 0 431z"/>
   <path id="4" class="fil23" d="M2246 13638l-137 0 -95 284 -2 0 -110 -284 -144 0 189 434 -10 25c-19,47 -28,73 -89,73 -22,0 -41,-5 -62,-13l-17 109c32,10 65,16 99,16 127,0 147,-52 183,-143l195 -501z"/>
   <polygon id="5" class="fil23" points="2573,14069 2711,14069 2711,13441 2573,13441 "/>
   <path id="6" class="fil23" d="M2820 14069l133 0 0 -215c0,-56 11,-110 80,-110 69,0 69,64 69,114l0 211 133 0 0 -238c0,-115 -24,-204 -159,-204 -65,0 -108,36 -126,69l-2 0 0 -58 -128 0 0 431z"/>
   <path id="7" class="fil23" d="M3655 13684c-40,-43 -103,-57 -160,-57 -90,0 -181,44 -181,145 0,165 225,106 225,175 0,23 -30,31 -61,31 -39,0 -69,-17 -94,-47l-80 90c42,43 109,58 169,58 92,0 199,-32 199,-142 0,-164 -225,-110 -225,-173 0,-26 27,-36 49,-36 32,0 58,13 77,36l82 -80z"/>
   <path id="8" class="fil23" d="M3752 14271l134 0 0 -248 1 0c30,41 82,56 137,56 122,0 197,-110 197,-229 0,-131 -84,-223 -212,-223 -61,0 -112,36 -132,68l-2 0 0 -57 -123 0 0 633zm123 -418c0,-64 40,-109 106,-109 67,0 107,45 107,109 0,65 -40,109 -107,109 -66,0 -106,-44 -106,-109z"/>
   <path id="9" class="fil23" d="M4301 14069l133 0 0 -431 -133 0 0 431zm-11 -567c0,43 35,77 77,77 43,0 77,-34 77,-77 0,-43 -34,-77 -77,-77 -42,0 -77,34 -77,77z"/>
   <path id="10" class="fil23" d="M4529 14069l133 0 0 -180c0,-86 13,-145 114,-145 19,0 38,4 57,9l0 -121c-13,-4 -30,-5 -45,-5 -58,0 -95,28 -124,80l-2 0 0 -69 -133 0 0 431z"/>
   <path id="11" class="fil23" d="M5161 14069l122 0 0 -219c0,-144 -41,-223 -197,-223 -70,0 -141,23 -189,69l70 73c29,-32 65,-51 109,-51 46,0 85,30 85,77 -111,0 -292,2 -292,151 0,87 73,133 153,133 55,0 108,-18 137,-64l2 0 0 54zm0 -189l0 28c0,53 -49,81 -101,81 -30,0 -63,-15 -63,-47 0,-59 90,-62 131,-62l33 0z"/>
   <path id="12" class="fil23" d="M5660 13638l-117 0 0 -128 -133 0 0 128 -85 0 0 106 85 0 0 205c0,94 68,130 157,130 31,0 64,-2 93,-13l0 -111c-11,11 -40,13 -54,13 -58,0 -63,-34 -63,-80l0 -144 117 0 0 -106z"/>
   <path id="13" class="fil23" d="M5729 14069l133 0 0 -431 -133 0 0 431zm-10 -567c0,43 34,77 77,77 42,0 77,-34 77,-77 0,-43 -35,-77 -77,-77 -43,0 -77,34 -77,77z"/>
   <path id="14" class="fil23" d="M6004 14069l133 0 0 -325 99 0 0 -106 -99 0 0 -69c0,-56 22,-70 64,-70 16,0 28,4 44,9l6 -112c-25,-7 -52,-8 -78,-8 -145,0 -169,79 -169,173l0 77 -88 0 0 106 88 0 0 325z"/>
   <polygon id="15" class="fil23" points="6480,13795 6261,13795 6261,13901 6480,13901 "/>
   <polygon id="16" class="fil23" points="6566,14069 6704,14069 6704,13622 6706,13622 6980,14069 7161,14069 7161,13441 7022,13441 7022,13877 7021,13877 6754,13441 6566,13441 "/>
   <path id="17" class="fil23" d="M7715 13638l-137 0 -95 284 -1 0 -111 -284 -144 0 189 434 -10 25c-18,47 -28,73 -88,73 -23,0 -42,-5 -62,-13l-18 109c32,10 65,16 99,16 127,0 147,-52 183,-143l195 -501z"/>
   <path id="18" class="fil23" d="M8035 14069l123 0 0 -219c0,-144 -42,-223 -197,-223 -70,0 -141,23 -190,69l71 73c28,-32 65,-51 108,-51 46,0 85,30 85,77 -111,0 -292,2 -292,151 0,87 73,133 154,133 54,0 107,-18 136,-64l2 0 0 54zm0 -189l0 28c0,53 -49,81 -101,81 -29,0 -63,-15 -63,-47 0,-59 91,-62 131,-62l33 0z"/>
   <path id="19" class="fil23" d="M8786 13707c-30,-50 -88,-69 -143,-69 -79,0 -160,41 -160,129 0,81 60,103 129,120 34,8 101,17 101,65 0,36 -45,53 -85,53 -47,0 -77,-24 -102,-50l-61 50c42,57 93,74 163,74 83,0 170,-37 170,-132 0,-79 -53,-105 -123,-122 -35,-8 -107,-15 -107,-66 0,-30 33,-47 70,-47 40,0 68,19 86,42l62 -47z"/>
   <path id="20" class="fil23" d="M8944 13749c29,-22 59,-47 120,-47 68,0 100,45 100,88l0 18 -58 0c-128,0 -232,37 -232,145 0,82 67,126 146,126 63,0 111,-20 147,-74l2 0c0,21 0,42 2,64l71 0c-3,-22 -3,-47 -3,-77l0 -214c0,-73 -52,-140 -176,-140 -59,0 -122,20 -167,62l48 49zm220 118l0 26c0,57 -31,123 -120,123 -55,0 -90,-21 -90,-69 0,-67 92,-80 168,-80l42 0z"/>
   <path id="21" class="fil23" d="M9404 13749c30,-22 59,-47 120,-47 68,0 100,45 100,88l0 18 -58 0c-128,0 -232,37 -232,145 0,82 68,126 146,126 64,0 112,-20 147,-74l2 0c0,21 1,42 2,64l71 0c-2,-22 -3,-47 -3,-77l0 -214c0,-73 -52,-140 -176,-140 -58,0 -122,20 -166,62l47 49zm220 118l0 26c0,57 -31,123 -119,123 -55,0 -91,-21 -91,-69 0,-67 92,-80 168,-80l42 0z"/>
   <path id="22" class="fil23" d="M10040 13648l-114 0 0 -118 -80 0 0 118 -92 0 0 70 92 0 0 219c0,67 2,142 125,142 16,0 53,-3 72,-14l0 -73c-16,10 -38,13 -57,13 -60,0 -60,-50 -60,-97l0 -190 114 0 0 -70z"/>
   <path id="23" class="fil23" d="M10396 14069l80 0 0 -421 -80 0 0 421zm-19 -571c0,32 27,58 59,58 32,0 58,-26 58,-58 0,-32 -26,-59 -58,-59 -32,0 -59,27 -59,59z"/>
   <path id="24" class="fil23" d="M10603 14069l79 0 0 -217c0,-97 51,-140 117,-140 51,0 96,30 96,108l0 249 80 0 0 -271c0,-111 -71,-160 -152,-160 -65,0 -118,31 -139,75l-2 0 0 -65 -79 0 0 421z"/>
   <path id="25" class="fil23" d="M11102 14069l80 0 0 -421 -80 0 0 421zm-19 -571c0,32 27,58 59,58 32,0 58,-26 58,-58 0,-32 -26,-59 -58,-59 -32,0 -59,27 -59,59z"/>
   <path id="26" class="fil23" d="M11555 14069l80 0 0 -61 2 0c31,46 89,71 146,71 130,0 214,-96 214,-220 0,-126 -85,-221 -214,-221 -60,0 -118,27 -146,71l-2 0 0 -311 -80 0 0 671zm218 -64c-85,0 -138,-61 -138,-146 0,-86 53,-147 138,-147 85,0 139,61 139,147 0,85 -54,146 -139,146z"/>
   <path id="27" class="fil23" d="M12494 13888l0 -29c0,-108 -56,-221 -205,-221 -126,0 -217,95 -217,221 0,125 83,220 217,220 80,0 141,-28 186,-86l-61 -46c-31,38 -66,63 -115,63 -73,0 -142,-49 -142,-122l337 0zm-337 -64c0,-56 52,-122 131,-122 80,0 119,52 121,122l-252 0z"/>
   <polygon id="28" class="fil23" points="12596,14069 12676,14069 12676,13398 12596,13398 "/>
   <path id="29" class="fil23" d="M13175 13648l-79 0 0 217c0,97 -51,140 -118,140 -50,0 -95,-29 -95,-108l0 -249 -80 0 0 271c0,112 71,160 152,160 65,0 118,-31 139,-75l2 0 0 65 79 0 0 -421z"/>
   <path id="30" class="fil23" d="M13296 14069l80 0 0 -218c0,-95 51,-139 109,-139 77,0 89,57 89,137l0 220 79 0 0 -230c0,-74 31,-127 108,-127 77,0 90,59 90,123l0 234 80 0 0 -245c0,-94 -30,-186 -160,-186 -50,0 -105,26 -133,78 -26,-52 -69,-78 -131,-78 -75,0 -127,51 -135,76l-2 0 0 -66 -74 0 0 421z"/>
   <path id="31" class="fil23" d="M14348 13749c29,-22 58,-47 120,-47 68,0 100,45 100,88l0 18 -59 0c-128,0 -231,37 -231,145 0,82 67,126 145,126 64,0 112,-20 147,-74l2 0c0,21 1,42 3,64l71 0c-3,-22 -4,-47 -4,-77l0 -214c0,-73 -51,-140 -175,-140 -59,0 -123,20 -167,62l48 49zm220 118l0 26c0,57 -31,123 -120,123 -55,0 -90,-21 -90,-69 0,-67 92,-80 167,-80l43 0z"/>
   <path id="32" class="fil23" d="M15180 13398l-80 0 0 311 -2 0c-28,-44 -86,-71 -146,-71 -130,0 -214,95 -214,221 0,124 83,220 214,220 57,0 115,-25 146,-71l2 0 0 61 80 0 0 -671zm-218 607c-86,0 -139,-61 -139,-146 0,-86 53,-147 139,-147 85,0 138,61 138,147 0,85 -53,146 -138,146z"/>
   <path id="33" class="fil23" d="M15350 13749c29,-22 58,-47 120,-47 68,0 100,45 100,88l0 18 -59 0c-127,0 -231,37 -231,145 0,82 67,126 145,126 64,0 112,-20 148,-74l1 0c0,21 1,42 3,64l71 0c-3,-22 -4,-47 -4,-77l0 -214c0,-73 -51,-140 -175,-140 -59,0 -123,20 -167,62l48 49zm220 118l0 26c0,57 -31,123 -120,123 -55,0 -90,-21 -90,-69 0,-67 92,-80 167,-80l43 0z"/>
   <path id="34" class="fil23" d="M16007 14069l80 0 0 -217c0,-97 50,-140 117,-140 51,0 96,30 96,108l0 249 80 0 0 -271c0,-111 -71,-160 -153,-160 -65,0 -118,31 -138,75l-2 0 0 -65 -80 0 0 421z"/>
   <path id="35" class="fil23" d="M16506 14069l80 0 0 -421 -80 0 0 421zm-18 -571c0,32 26,58 58,58 32,0 59,-26 59,-58 0,-32 -27,-59 -59,-59 -32,0 -58,27 -58,59z"/>
   <path id="36" class="fil23" d="M16713 14069l80 0 0 -217c0,-97 50,-140 117,-140 50,0 96,30 96,108l0 249 80 0 0 -271c0,-111 -71,-160 -153,-160 -65,0 -118,31 -138,75l-2 0 0 -315 -80 0 0 671z"/>
  </g>
 </g>
</svg>
