<?xml version="1.0" encoding="UTF-8" standalone="no"?>
<svg
   xmlns:dc="http://purl.org/dc/elements/1.1/"
   xmlns:cc="http://creativecommons.org/ns#"
   xmlns:rdf="http://www.w3.org/1999/02/22-rdf-syntax-ns#"
   xmlns:svg="http://www.w3.org/2000/svg"
   xmlns="http://www.w3.org/2000/svg"
   xmlns:sodipodi="http://sodipodi.sourceforge.net/DTD/sodipodi-0.dtd"
   xmlns:inkscape="http://www.inkscape.org/namespaces/inkscape"
   xml:space="preserve"
   width="24.347797mm"
   height="24.285425mm"
   version="1.1"
   style="clip-rule:evenodd;fill-rule:evenodd;image-rendering:optimizeQuality;shape-rendering:geometricPrecision;text-rendering:geometricPrecision"
   viewBox="0 0 2434.4823 2428.2457"
   id="svg46"
   sodipodi:docname="IllustrationsNoInstructor.svg"
   inkscape:version="1.0.1 (3bc2e813f5, 2020-09-07)"><metadata
   id="metadata50"><rdf:RDF><cc:Work
       rdf:about=""><dc:format>image/svg+xml</dc:format><dc:type
         rdf:resource="http://purl.org/dc/dcmitype/StillImage" /></cc:Work></rdf:RDF></metadata><sodipodi:namedview
   pagecolor="#ffffff"
   bordercolor="#666666"
   borderopacity="1"
   objecttolerance="10"
   gridtolerance="10"
   guidetolerance="10"
   inkscape:pageopacity="0"
   inkscape:pageshadow="2"
   inkscape:window-width="1920"
   inkscape:window-height="1001"
   id="namedview48"
   showgrid="false"
   inkscape:zoom="7.4534057"
   inkscape:cx="35.744028"
   inkscape:cy="42.132846"
   inkscape:window-x="-9"
   inkscape:window-y="-9"
   inkscape:window-maximized="1"
   inkscape:current-layer="svg46"
   inkscape:document-rotation="0" />
 <defs
   id="defs10">
  <style
   type="text/css"
   id="style2">
   <![CDATA[
    .fil6 {fill:none}
    .fil8 {fill:white}
    .fil2 {fill:black;fill-rule:nonzero}
    .fil3 {fill:#3E005D;fill-rule:nonzero}
    .fil7 {fill:#6E248D;fill-rule:nonzero}
    .fil1 {fill:#5E147D;fill-opacity:0.200000}
    .fil5 {fill:white;fill-opacity:0.200000}
    .fil0 {fill:#DCC6E0;fill-opacity:0.400000}
    .fil4 {fill:white;fill-opacity:0.400000}
   ]]>
  </style>
    <clipPath
   id="id0">
     <path
   d="m 581,444 c 104,0 189,84 189,188 0,105 -85,189 -189,189 -104,0 -189,-84 -189,-189 0,-104 85,-188 189,-188 z"
   id="path4" />
    </clipPath>
    <clipPath
   id="id1">
     <path
   d="m 581,444 c 104,0 189,84 189,188 0,105 -85,189 -189,189 -104,0 -189,-84 -189,-189 0,-104 85,-188 189,-188 z"
   id="path7" />
    </clipPath>
 </defs>
 <g
   id="Layer_x0020_1"
   transform="matrix(1.6498261,0,0,1.6498261,2.3623496,-1.6498261)">
  <metadata
   id="CorelCorpID_0Corel-Layer" />
  <g
   id="_716150667344">
   <path
   class="fil0"
   d="m 192,158 c 321,-180 1040,-13 1219,308 180,321 -50,724 -371,904 C 718,1550 241,1511 132,1114 23,716 -130,337 192,158 Z"
   id="path13" />
   <path
   class="fil1"
   d="m 556,1 c 369,0 914,496 914,864 0,368 -415,566 -783,566 C 319,1431 -61,1206 38,806 137,406 188,1 556,1 Z"
   id="path15" />
   <path
   class="fil2"
   d="m 421,472 c 44,-44 102,-66 160,-66 58,0 116,22 160,66 44,45 66,102 66,160 0,50 -16,99 -48,140 l 85,85 c 10,11 10,28 0,38 -11,11 -28,11 -38,0 l -85,-85 c -41,32 -91,49 -140,49 -58,0 -116,-22 -160,-67 -44,-44 -66,-102 -66,-160 0,-58 22,-115 66,-160 z m 262,299 c -6,-10 -4,-23 5,-32 8,-9 21,-10 32,-4 22,-31 33,-67 33,-103 0,-44 -17,-88 -50,-122 -34,-33 -78,-50 -122,-50 -44,0 -88,17 -122,50 -34,34 -51,78 -51,122 0,44 17,89 51,122 34,34 78,51 122,51 36,0 72,-11 102,-34 z"
   id="path17" />
   <path
   class="fil3"
   d="m 768,895 c -21,-21 -21,-55 0,-76 21,-21 55,-21 76,0 l 274,274 c 21,21 21,55 0,76 -21,21 -55,21 -76,0 z"
   id="path19" />
   <g
   clip-path="url(#id0)"
   id="g23">
    <polygon
   class="fil4"
   points="770,444 770,821 392,821 392,444 "
   id="polygon21" />
   </g>
   <g
   clip-path="url(#id1)"
   id="g30">
    <g
   id="g28">
     <polygon
   id="1"
   class="fil5"
   points="595,358 532,437 519,671 " />
     <polygon
   class="fil5"
   points="626,917 581,821 626,638 "
   id="polygon26" />
    </g>
   </g>
   <path
   class="fil6"
   d="m 581,444 c 104,0 189,84 189,188 0,105 -85,189 -189,189 -104,0 -189,-84 -189,-189 0,-104 85,-188 189,-188 z"
   id="path32" />
   <path
   class="fil6"
   d="m 1007,413 v 127 m -64,-63 h 127"
   id="path34" />
   <polygon
   class="fil7"
   points="952,545 997,500 952,455 985,422 1030,467 1075,422 1108,455 1063,500 1108,545 1075,578 1030,533 985,578 "
   id="polygon36" />
   <polygon
   class="fil7"
   points="346,1016 367,995 346,975 361,959 382,980 403,959 418,975 397,995 418,1016 403,1031 382,1011 361,1031 "
   id="polygon38" />
   <circle
   class="fil8"
   cx="380"
   cy="316"
   r="30"
   id="circle40" />
   <path
   class="fil5"
   d="m 708,1082 c 43,0 78,35 78,79 0,43 -35,78 -78,78 -43,0 -78,-35 -78,-78 0,-44 35,-79 78,-79 z"
   id="path42" />
  </g>
 </g>
</svg>
