<svg xmlns="http://www.w3.org/2000/svg" xml:space="preserve" width="92.03" height="91.794" version="1.1" style="clip-rule:evenodd;fill-rule:evenodd;image-rendering:optimizeQuality;shape-rendering:geometricPrecision;text-rendering:geometricPrecision" viewBox="0 0 2434.663 2428.426" id="svg68"><defs id="defs16"><clipPath id="id0"><path d="m485 511 384-103c45-12 82 17 82 65v287c0 48-37 97-82 110L485 973c-45 12-82-17-82-66V621c0-48 37-98 82-110z" id="path4"/></clipPath><clipPath id="id1"><path d="M488 525h475c47 0 85 38 85 84v333c0 46-38 84-85 84H488c-47 0-85-38-85-84V609c0-46 38-84 85-84z" id="path7"/></clipPath><clipPath id="id2"><path d="M915 718h149c14 0 25 11 25 25v65c0 14-11 25-25 25H915c-14 0-26-11-26-25v-65c0-14 12-25 26-25z" id="path10"/></clipPath><clipPath id="id3"><path d="M432 840c84 0 153 68 153 153 0 84-69 153-153 153s-153-69-153-153c0-85 69-153 153-153z" id="path13"/></clipPath><style type="text/css" id="style2">.fil4{fill:none}.fil2{fill:#5e147d}.fil5{fill:#6e248d}</style></defs><g id="Layer_x0020_1" transform="matrix(1.64995 0 0 1.64995 2.363 -1.65)"><g id="_716000281408"><path d="M192 158c321-180 1040-13 1219 308 180 321-50 724-371 904-322 180-799 141-908-256-109-398-262-777 60-956z" id="path19" style="fill:#dcc6e0;fill-opacity:.4"/><path d="M556 1c369 0 914 496 914 864s-415 566-783 566-748-225-649-625S188 1 556 1z" id="path21" style="fill:#5e147d;fill-opacity:.2"/><rect class="fil2" x="894" y="712" width="165.1" height="95.38" rx="40" ry="25" id="rect23"/><path class="fil2" d="m485 511 384-103c45-12 82 17 82 65v287c0 48-37 97-82 110L485 973c-45 12-82-17-82-66V621c0-48 37-98 82-110z" id="path25"/><g clip-path="url(#id0)" id="g31"><g id="g29"><rect transform="matrix(.96537 -.26018 0 1.113 432.381 593.618)" width="567" height="415" rx="79" ry="79" id="rect27" x="0" y="0" style="fill:#4e046d"/></g></g><path class="fil4" d="m485 511 384-103c45-12 82 17 82 65v287c0 48-37 97-82 110L485 973c-45 12-82-17-82-66V621c0-48 37-98 82-110z" id="path33"/><path class="fil5" d="M488 525h475c47 0 85 38 85 84v333c0 46-38 84-85 84H488c-47 0-85-38-85-84V609c0-46 38-84 85-84z" id="path35"/><g clip-path="url(#id1)" id="g42"><g id="g40"><path id="1" d="m873 733 232-55c14-3 25 6 25 21v110c0 14-11 29-25 32l-232 55c-13 3-25-6-25-21V765c0-15 12-29 25-32z" style="fill:#000;fill-opacity:.2"/><path class="fil2" id="rect38" d="M492 646h474.13v16.93H492z"/></g></g><path class="fil4" d="M488 525h475c47 0 85 38 85 84v333c0 46-38 84-85 84H488c-47 0-85-38-85-84V609c0-46 38-84 85-84z" id="path44"/><path class="fil5" d="M915 718h149c14 0 25 11 25 25v65c0 14-11 25-25 25H915c-14 0-26-11-26-25v-65c0-14 12-25 26-25z" id="path46"/><g clip-path="url(#id2)" id="g52"><g id="g50"><circle class="fil2" cx="945" cy="775" r="28" id="circle48"/></g></g><path class="fil4" d="M915 718h149c14 0 25 11 25 25v65c0 14-11 25-25 25H915c-14 0-26-11-26-25v-65c0-14 12-25 26-25z" id="path54"/><path d="M432 840c84 0 153 68 153 153 0 84-69 153-153 153s-153-69-153-153c0-85 69-153 153-153z" id="path56" style="fill:#e74c3c"/><g clip-path="url(#id3)" id="g62"><g id="g60"><path id="polygon58" style="fill:#fff;fill-rule:nonzero" d="m383 917 49 48 49-48 27 27-48 49 48 48-27 28-49-49-49 49-27-28 48-48-48-49z"/></g></g><path class="fil4" d="M432 840c84 0 153 68 153 153 0 84-69 153-153 153s-153-69-153-153c0-85 69-153 153-153z" id="path64"/></g></g></svg>