<?xml version="1.0" encoding="UTF-8" standalone="no"?>
<svg
   xmlns:dc="http://purl.org/dc/elements/1.1/"
   xmlns:cc="http://creativecommons.org/ns#"
   xmlns:rdf="http://www.w3.org/1999/02/22-rdf-syntax-ns#"
   xmlns:svg="http://www.w3.org/2000/svg"
   xmlns="http://www.w3.org/2000/svg"
   xmlns:xlink="http://www.w3.org/1999/xlink"
   xmlns:sodipodi="http://sodipodi.sourceforge.net/DTD/sodipodi-0.dtd"
   xmlns:inkscape="http://www.inkscape.org/namespaces/inkscape"
   xml:space="preserve"
   width="33.867195mm"
   height="33.607861mm"
   version="1.1"
   style="clip-rule:evenodd;fill-rule:evenodd;image-rendering:optimizeQuality;shape-rendering:geometricPrecision;text-rendering:geometricPrecision"
   viewBox="0 0 3386.1304 3360.0727"
   id="svg134"
   sodipodi:docname="IllustrationNoRecentTask.svg"
   inkscape:version="1.0.1 (3bc2e813f5, 2020-09-07)"><metadata
   id="metadata138"><rdf:RDF><cc:Work
       rdf:about=""><dc:format>image/svg+xml</dc:format><dc:type
         rdf:resource="http://purl.org/dc/dcmitype/StillImage" /></cc:Work></rdf:RDF></metadata><sodipodi:namedview
   pagecolor="#ffffff"
   bordercolor="#666666"
   borderopacity="1"
   objecttolerance="10"
   gridtolerance="10"
   guidetolerance="10"
   inkscape:pageopacity="0"
   inkscape:pageshadow="2"
   inkscape:window-width="1920"
   inkscape:window-height="1001"
   id="namedview136"
   showgrid="false"
   inkscape:zoom="3.5821559"
   inkscape:cx="7.4434117"
   inkscape:cy="78.081075"
   inkscape:window-x="-9"
   inkscape:window-y="-9"
   inkscape:window-maximized="1"
   inkscape:current-layer="svg134"
   inkscape:document-rotation="0" />
 <defs
   id="defs33">
  <style
   type="text/css"
   id="style2">
   <![CDATA[
    .fil3 {fill:none}
    .fil16 {fill:#663333}
    .fil12 {fill:#C190D4}
    .fil4 {fill:#CCCCCC}
    .fil13 {fill:#CEA0E4}
    .fil0 {fill:#D0B9D4}
    .fil15 {fill:#DEC98A}
    .fil14 {fill:#E8D6A0}
    .fil1 {fill:#EBE1ED}
    .fil8 {fill:#EDCF9A}
    .fil9 {fill:#F2D7A7}
    .fil5 {fill:white}
    .fil6 {fill:#AB69C6;fill-rule:nonzero}
    .fil7 {fill:#DCC6E0;fill-rule:nonzero}
    .fil2 {fill:#CEA0E4;fill-opacity:0.400000}
    .fil11 {fill:url(#id7)}
    .fil10 {fill:url(#id8)}
   ]]>
  </style>
    <clipPath
   id="id0">
     <path
   d="m 739,360 626,100 c 78,-82 194,-126 315,-106 195,31 328,214 297,409 -21,129 -108,231 -222,276 l -148,929 c -11,70 -77,118 -146,107 L 491,1920 C 421,1909 373,1843 385,1774 L 593,467 c 11,-70 77,-118 146,-107 z"
   id="path4" />
    </clipPath>
     <clipPath
   id="id1">
      <path
   d="M 94,1166 316,1044 233,848 C 131,824 52,859 2,944 Z"
   id="path7" />
     </clipPath>
      <clipPath
   id="id2">
       <path
   d="M 281,1063 207,889 C 122,870 53,891 3,948 l 91,218 z"
   id="path10" />
      </clipPath>
      <clipPath
   id="id3">
       <path
   d="M 94,1166 316,1044 233,848 C 131,824 52,859 2,944 Z"
   id="path13" />
      </clipPath>
     <clipPath
   id="id4">
      <path
   d="m 298,1002 302,752 c 11,29 19,37 12,83 l -12,85 -13,85 c -1,8 -6,14 -14,17 -7,4 -16,2 -22,-3 l -67,-53 c -55,-42 -90,-55 -115,-119 L 68,1102 Z"
   id="path16" />
     </clipPath>
      <clipPath
   id="id5">
       <path
   d="m 387,1885 c 52,-82 127,-116 225,-99 3,12 4,26 0,51 l -12,85 -13,85 c -1,8 -6,14 -14,17 -7,4 -16,2 -22,-3 l -67,-53 c -43,-33 -73,-48 -97,-83 z"
   id="path19" />
      </clipPath>
      <clipPath
   id="id6">
       <path
   d="m 298,1002 302,752 c 11,29 19,37 12,83 l -12,85 -13,85 c -1,8 -6,14 -14,17 -7,4 -16,2 -22,-3 l -67,-53 c -55,-42 -90,-55 -115,-119 L 68,1102 Z"
   id="path22" />
      </clipPath>
  <linearGradient
   id="id7"
   gradientUnits="userSpaceOnUse"
   x1="15.33"
   y1="1095.47"
   x2="361.88"
   y2="1095.47">
   <stop
   offset="0"
   style="stop-opacity:1; stop-color:#E6E6E6"
   id="stop25" />
   <stop
   offset="0.521569"
   style="stop-opacity:1; stop-color:#F3F3F3"
   id="stop27" />
   <stop
   offset="1"
   style="stop-opacity:1; stop-color:#C4C4C4"
   id="stop29" />
  </linearGradient>
  <linearGradient
   id="id8"
   gradientUnits="userSpaceOnUse"
   xlink:href="#id7"
   x1="-10.56"
   y1="1136.79"
   x2="335.98999"
   y2="1136.79">
  </linearGradient>
 <linearGradient
   inkscape:collect="always"
   xlink:href="#id7"
   id="linearGradient963"
   gradientUnits="userSpaceOnUse"
   x1="15.33"
   y1="1095.47"
   x2="361.88"
   y2="1095.47" /></defs>
 <g
   id="Layer_x0020_1"
   transform="matrix(1.5532709,0,0,1.5532709,-3.1065418,-3.156896)">
  <metadata
   id="CorelCorpID_0Corel-Layer" />
  <g
   id="_716139190336">
   <path
   class="fil0"
   d="m 803,456 984,157 c 66,10 111,73 100,139 l -200,1259 c -16,99 -110,168 -210,152 L 555,2016 C 489,2006 444,1943 454,1878 L 665,557 c 10,-66 73,-111 138,-101 z"
   id="path36" />
   <path
   class="fil1"
   d="m 739,360 626,100 c 78,-82 194,-126 315,-106 195,31 328,214 297,409 -21,129 -108,231 -222,276 l -148,929 c -11,70 -77,118 -146,107 L 491,1920 C 421,1909 373,1843 385,1774 L 593,467 c 11,-70 77,-118 146,-107 z"
   id="path38" />
   <g
   clip-path="url(#id0)"
   id="g43">
    <g
   id="g41">
     <path
   id="1"
   class="fil2"
   d="m 1851,1270 c -229,142 -789,591 -1562,106 -638,-401 -454,-776 -443,479 5,563 791,566 1291,634 138,19 589,60 657,-76 303,-605 52,-195 120,-846 20,-191 122,-281 -63,-297 z" />
    </g>
   </g>
   <path
   class="fil3"
   d="m 739,360 626,100 c 78,-82 194,-126 315,-106 195,31 328,214 297,409 -21,129 -108,231 -222,276 l -148,929 c -11,70 -77,118 -146,107 L 491,1920 C 421,1909 373,1843 385,1774 L 593,467 c 11,-70 77,-118 146,-107 z"
   id="path45" />
   <circle
   class="fil4"
   transform="matrix(0.518708,0.0825766,-0.0825766,0.518708,1606.94,728.235)"
   r="584"
   id="circle47"
   cx="0"
   cy="0" />
   <circle
   class="fil5"
   transform="matrix(0.505177,0.0804225,-0.0804225,0.505177,1623.89,706.611)"
   r="584"
   id="circle49"
   cx="0"
   cy="0" />
   <polygon
   class="fil6"
   points="1491,87 1602,2 1628,36 1540,103 1589,136 1609,149 1593,167 1514,258 1482,230 1545,158 1492,122 1468,105 "
   id="polygon51" />
   <polygon
   class="fil6"
   points="2088,645 2153,596 2179,631 2134,664 2170,697 2182,709 2174,723 2105,840 2068,818 2128,717 2086,678 2067,660 "
   id="polygon53" />
   <polygon
   class="fil7"
   points="1546,1267 1647,1174 1667,1196 1590,1268 1642,1276 1676,1281 1650,1303 1587,1355 1568,1332 1604,1301 1554,1293 1523,1288 "
   id="polygon55" />
   <polygon
   class="fil7"
   points="1212,826 1130,867 1111,829 1176,796 1160,751 1156,740 1163,731 1211,669 1245,694 1204,748 1223,800 1229,818 "
   id="polygon57" />
   <rect
   class="fil5"
   transform="rotate(9.0453984,-3465.2325,4739.9113)"
   width="169"
   height="169"
   rx="42"
   ry="42"
   id="rect59"
   x="0"
   y="0" />
   <rect
   class="fil5"
   transform="rotate(9.0453984,-5605.9925,4570.5752)"
   width="169"
   height="169"
   rx="42"
   ry="42"
   id="rect61"
   x="0"
   y="0" />
   <rect
   class="fil5"
   transform="rotate(9.0453984,-7746.7841,4401.2416)"
   width="169"
   height="169"
   rx="42"
   ry="42"
   id="rect63"
   x="0"
   y="0" />
   <rect
   class="fil5"
   transform="rotate(9.0453984,-9887.493,4231.9079)"
   width="169"
   height="169"
   rx="42"
   ry="42"
   id="rect65"
   x="0"
   y="0" />
   <rect
   class="fil5"
   transform="rotate(9.0453984,-5728.7611,6122.6577)"
   width="533.40002"
   height="42.330002"
   id="rect67"
   x="0"
   y="0" />
   <rect
   class="fil5"
   transform="matrix(1.33242,0.212116,-0.157217,0.987564,838.098,1311.26)"
   width="533.40002"
   height="42.330002"
   id="rect69"
   x="0"
   y="0" />
   <rect
   class="fil5"
   transform="matrix(1.33242,0.212116,-0.157217,0.987564,784.853,1645.72)"
   width="533.40002"
   height="42.330002"
   id="rect71"
   x="0"
   y="0" />
   <rect
   class="fil5"
   transform="matrix(1.13886,0.181303,-0.157217,0.987564,764.887,1771.14)"
   width="533.40002"
   height="42.330002"
   id="rect73"
   x="0"
   y="0" />
   <rect
   class="fil5"
   transform="matrix(1.33242,0.212116,-0.157217,0.987564,818.131,1436.68)"
   width="533.40002"
   height="42.330002"
   id="rect75"
   x="0"
   y="0" />
   <rect
   class="fil5"
   transform="rotate(9.0453984,-6531.5351,6059.155)"
   width="533.40002"
   height="42.330002"
   id="rect77"
   x="0"
   y="0" />
   <rect
   class="fil5"
   transform="matrix(0.203771,0.0324396,-0.157217,0.987564,944.587,642.342)"
   width="533.40002"
   height="42.330002"
   id="rect79"
   x="0"
   y="0" />
   <rect
   class="fil5"
   transform="matrix(0.203771,0.0324396,-0.157217,0.987564,924.621,767.762)"
   width="533.40002"
   height="42.330002"
   id="rect81"
   x="0"
   y="0" />
   <path
   class="fil6"
   d="m 1564,1011 c -7,8 -13,18 -19,32 -1,-14 3,-26 13,-37 5,-6 11,-9 17,-12 7,-3 13,-3 19,-2 -12,4 -22,10 -30,19 z m 30,-49 c -20,0 -37,7 -53,22 -15,15 -24,33 -27,54 -2,22 2,42 12,60 11,18 26,30 45,35 23,6 44,2 63,-12 20,-15 32,-36 35,-62 4,-27 -2,-50 -17,-69 -16,-19 -35,-28 -58,-28 z m 11,-383 c -9,1 -18,3 -29,6 -20,5 -39,12 -55,19 -20,9 -36,19 -50,31 -18,16 -26,33 -25,51 -2,-10 -1,-20 3,-30 4,-8 10,-17 18,-25 13,-13 29,-24 50,-34 20,-8 39,-14 58,-18 21,-4 41,-5 60,-4 l -15,2 c -6,0 -11,1 -15,2 z m -19,254 c -4,2 -7,3 -9,4 -6,4 -12,8 -15,11 -4,5 -7,10 -9,17 -2,-7 0,-14 4,-20 3,-6 9,-10 16,-14 6,-4 13,-6 20,-8 4,-1 11,-2 19,-5 -5,5 -11,8 -18,11 z m 83,-286 c -26,-4 -54,-3 -84,1 -31,6 -59,15 -85,27 -28,14 -50,30 -64,49 -17,20 -24,42 -20,66 7,58 56,75 148,51 16,-4 28,-4 38,-1 8,4 13,9 15,17 1,7 -1,15 -7,22 -6,8 -14,14 -26,18 -43,14 -63,37 -62,69 1,16 7,29 18,39 11,11 27,16 46,16 17,0 36,-3 58,-11 25,-9 48,-21 70,-37 56,-42 87,-98 93,-169 4,-40 -5,-74 -27,-101 -24,-30 -61,-48 -111,-56 z"
   id="path83" />
   <g
   id="g130">
    <path
   class="fil8"
   d="M 94,1166 316,1044 233,848 C 131,824 52,859 2,944 Z"
   id="path85" />
    <g
   clip-path="url(#id1)"
   id="g102">
     <g
   id="g89">
      <path
   id="path87"
   class="fil9"
   d="M 68,1207 290,1085 207,889 C 105,866 26,901 -24,986 Z" />
     </g>
     <g
   clip-path="url(#id2)"
   id="g94">
      <g
   id="g92">
       <polygon
   id="2"
   class="fil10"
   points="333,964 -11,1116 114,1309 336,1187 "
   style="fill:url(#id8)" />
      </g>
     </g>
     <g
   clip-path="url(#id3)"
   id="g100">
      <path
   class="fil3"
   d="M 68,1207 290,1085 207,889 C 105,866 26,901 -24,986 Z"
   id="path96" />
      <polygon
   class="fil11"
   points="359,923 15,1074 140,1268 362,1146 "
   id="polygon98"
   style="fill:url(#linearGradient963)" />
     </g>
    </g>
    <path
   class="fil3"
   d="M 94,1166 316,1044 233,848 C 131,824 52,859 2,944 Z"
   id="path104" />
    <path
   class="fil12"
   d="m 298,1002 302,752 c 11,29 19,37 12,83 l -12,85 -13,85 c -1,8 -6,14 -14,17 -7,4 -16,2 -22,-3 l -67,-53 c -55,-42 -90,-55 -115,-119 L 68,1102 Z"
   id="path106" />
    <g
   clip-path="url(#id4)"
   id="g126">
     <g
   id="g112">
      <polygon
   id="polygon108"
   class="fil13"
   points="-322,1240 -140,808 168,1003 616,2132 161,2167 " />
      <path
   class="fil14"
   d="m 409,2132 -22,-247 c 53,-83 128,-116 226,-98 l 97,190 -156,206 z"
   id="path110" />
     </g>
     <g
   clip-path="url(#id5)"
   id="g118">
      <g
   id="g116">
       <polygon
   id="polygon114"
   class="fil15"
   points="-322,1240 -140,808 168,1003 616,2132 161,2167 " />
      </g>
     </g>
     <g
   clip-path="url(#id6)"
   id="g124">
      <path
   class="fil3"
   d="m 409,2132 -22,-247 c 53,-83 128,-116 226,-98 l 97,190 -156,206 z"
   id="path120" />
      <circle
   class="fil16"
   cx="573"
   cy="2024"
   r="69"
   id="circle122" />
     </g>
    </g>
    <path
   class="fil3"
   d="m 298,1002 302,752 c 11,29 19,37 12,83 l -12,85 -13,85 c -1,8 -6,14 -14,17 -7,4 -16,2 -22,-3 l -67,-53 c -55,-42 -90,-55 -115,-119 L 68,1102 Z"
   id="path128" />
   </g>
  </g>
 </g>
</svg>
