<svg xmlns="http://www.w3.org/2000/svg" xml:space="preserve" width="80.96" height="83.519" style="shape-rendering:geometricPrecision;text-rendering:geometricPrecision;image-rendering:optimizeQuality;fill-rule:evenodd;clip-rule:evenodd" viewBox="0 0 843.33 869.99" xmlns:xlink="http://www.w3.org/1999/xlink"><defs><linearGradient id="id6" gradientUnits="userSpaceOnUse" x1="-1" y1="411.56" x2="840.52" y2="461.77"><stop offset="0" style="stop-opacity:1;stop-color:#dcc6e0"/><stop offset=".741" style="stop-opacity:1;stop-color:#ede2ef"/><stop offset="1" style="stop-opacity:1;stop-color:white"/></linearGradient><linearGradient id="id12" gradientUnits="userSpaceOnUse" x1="607.55" y1="670.31" x2="513.46" y2="672.24"><stop offset="0" style="stop-opacity:1;stop-color:#27ae60"/><stop offset="1" style="stop-opacity:1;stop-color:#156e3a"/></linearGradient><linearGradient id="id11" gradientUnits="userSpaceOnUse" xlink:href="#id9" x1="534.44" y1="576.57" x2="490.64" y2="659.14"/><linearGradient id="id10" gradientUnits="userSpaceOnUse" xlink:href="#id7" x1="670.12" y1="719.58" x2="539.87" y2="719.58"/><linearGradient id="id9" gradientUnits="userSpaceOnUse" x1="530.19" y1="569.48" x2="481.66" y2="649.2"><stop offset="0" style="stop-opacity:1;stop-color:#ffe3a6"/><stop offset="1" style="stop-opacity:1;stop-color:#e8ac88"/></linearGradient><linearGradient id="id8" gradientUnits="userSpaceOnUse" xlink:href="#id7" x1="294.98" y1="717.54" x2="165.1" y2="717.54"/><linearGradient id="id7" gradientUnits="userSpaceOnUse" x1="422.16" y1="417.87" x2="419.25" y2="167.44"><stop offset="0" style="stop-opacity:1;stop-color:#f9b776"/><stop offset="1" style="stop-opacity:1;stop-color:#f47960"/></linearGradient><clipPath id="id0"><path d="M259.4 474.32c.36-1.96.68-3.77 1-5.48.24-.26.52-.54.8-.83-.6 2.09-1.16 4.21-1.8 6.31z"/></clipPath><clipPath id="id5"><path d="M414.86 85.58c41.67 0 75.45 33.78 75.45 75.45-60 6.54-111.79 7.54-150.91 0 0-41.67 33.78-75.45 75.45-75.45z"/></clipPath><clipPath id="id4"><path d="M512.98 648.67c26.12-30.44 28.88-61.79 53.02-78.61-47.06-5.84-73.85 14.44-121.45 15.09l68.43 63.52z"/></clipPath><clipPath id="id3"><path d="m564.89 603.57 14.16-25.24-134.5 6.82 64.17 70.95 56.17-52.53z"/></clipPath><clipPath id="id2"><path d="M666.33 583.06c-13.09-30.12-45.1-35.02-72.33-20.93-.48.61-173.03 89.06-325.21 127.81 4.37 13.96 6.61 28.82 7.08 43.43.1 3.26.04 6.48-.15 9.63 116.69-5.99 243.33-44.9 352.17-79.1 33.73-10.89 52.98-47.47 38.44-80.84z"/></clipPath><clipPath id="id1"><path d="M594.62 416.86h-.04c-10.89-39.94-29.19-95.84-59.56-117.49-22.42-15.89-54.03-5.02-80.74-10.33l-33.5 32.57-32.89-32.2c-30.61 5.94-62.81 18.25-89.54 36.63-44.69 30.75-44.75 134.16-40 186.67l42.28 34.89-3.08 64.63-.57 22.85 131.27 65.89 115-58.84.48-19.93c8.99-6.96 16.63-14.78 23.12-23.19l-53.51-44.93 90.28-45.16s-3.44-79.75-9-92.05z"/></clipPath><style>.fil4{fill:none}.fil10{fill:#1a1a1a}.fil16{fill:#401818}.fil15{fill:#522222}.fil14{fill:#633}.fil6{fill:#ffc8a3}.fil5{fill:#fff}.fil3{fill:#1a1a1a;fill-opacity:.101961}.fil13{fill:#ab69c6;fill-opacity:.4}</style></defs><g id="Layer_x0020_1"><g id="_239173133888"><path d="M743.3 584.7c250 127.89-23.95 286.96-316.67 286.96-347.45 0-452.19-250.33-423.93-489.74C49.76-16.83 373.18-70.46 513.3 76.28c130.63 136.81-.67 390.43 230 508.42z" style="fill:url(#id6)"/><image x="190.42" y="439.33" width="140.91" height="71.14" xlink:href="Illustrasi Paket tahsin_Images\Illustrasi Paket tahsin_ImgID1.png" style="clip-path:url(#id0)"/><path d="M355.45 299.06s11.63 46.81 68.04 45.78c57.44-1.05 62.57-49.48 62.57-49.48l-37.54-8.04-3.13-41.82-56.46 4.17-1.06 39.74-32.44 9.65z" style="fill:url(#id7)"/><path d="M594.62 416.86h-.04c-10.89-39.94-29.19-95.84-59.56-117.49-22.42-15.89-54.03-5.02-80.74-10.33l-33.5 32.57-32.89-32.2c-30.61 5.94-62.81 18.25-89.54 36.63-44.69 30.75-44.75 134.16-40 186.67l42.28 34.89-3.08 64.63-.57 22.85 131.27 65.89 115-58.84.48-19.93c8.99-6.96 16.63-14.78 23.12-23.19l-53.51-44.93 90.28-45.16s-3.44-79.75-9-92.05z" style="fill:#763db0"/><g style="clip-path:url(#id1)"><path id="1" class="fil3" d="m321.94 276.23 164.23 5.97 72.41 39.99-369.48 452.2L35.61 465.47z"/></g><path class="fil4" d="M594.62 416.86h-.04c-10.89-39.94-29.19-95.84-59.56-117.49-22.42-15.89-54.03-5.02-80.74-10.33l-33.5 32.57-32.89-32.2c-30.61 5.94-62.81 18.25-89.54 36.63-44.69 30.75-44.75 134.16-40 186.67l42.28 34.89-3.08 64.63-.57 22.85 131.27 65.89 115-58.84.48-19.93c8.99-6.96 16.63-14.78 23.12-23.19l-53.51-44.93 90.28-45.16s-3.44-79.75-9-92.05z"/><path class="fil5" d="M460.08 287.09c-.21-.63-.64-1.14-1.25-1.42-.57-.3-1.25-.31-1.86-.08l-30.56 11.59c-.57.19-.96.64-1.14 1.19l-2.54 7.98-.82-7.63c-.11-.74-.61-1.37-1.32-1.59l-41.51-12.65c-.7-.22-1.44-.09-2.06.33-.59.41-.95 1.08-.99 1.8l-.76 14.28s29.49 20.17 46.5 20.81c16.98.66 42.75-20.57 42.75-20.57l-4.43-14.05z"/><path class="fil6" d="M424.37 293.61c-4.6.41-9.48-.07-14.57-1.6-26.25-7.8-37.9-27.37-41.76-50.04-.82-4.77-1.29-9.69-1.48-14.67 4.85-8.91 5.22-32.08 9.34-41.11 3.02-6.59-4.88-52.55 5.78-53.49 11.68-1.03 50.85 7.01 76.67 13.33 5.17 1.28 15.46 3.73 20 3.33.74-.07 2.56 50.82 1.77 57.84-3.92 35.83-23.08 83.53-55.74 86.4z"/><path d="M480.12 207.21c3.59-31.71-3.18-54.74-18.43-51.17-38.91 9.09-73.33-13.33-85.78 30.15-4.13 9.03-4.49 32.2-9.34 41.11.19 4.98.66 9.9 1.48 14.67-19.75-15.84-33.87-45.23-29.8-76.94 33.09-83.13 64.59-11.02 98.2-46.03-2.09 13.79 54.86 20.87 53.87 42.04-.86 18.31-1.72 39.79-10.2 46.17z" style="fill:#000"/><path class="fil6" d="M381.48 193.09s-13.8-14.86-16.03 3.04c-2.2 17.9 4.88 40.96 13.19 28.32 8.31-12.64 2.83-31.36 2.83-31.36zM431.85 580.44c-1.29-2.31-113.73-104.31-128.59-98.86-28.7 5.02-36.67 33.33-34.59 41.69 1.52 15.8 70.44 52.7 105.84 59.56 35.37 6.83 64.94 11.33 57.35-2.39z"/><path d="M658.26 697.55c-28.85-6.63-95.56-3.06-95.56-3.06l-.11.3a20.553 20.553 0 0 0-7.74-1.87l-11.31-.48-3.65 44.71 15.61 1.1-.01.1s63.54 11.45 94.85 11.41c3.2 0 6.11-.48 8.79-1.3.94-.86 1.87-1.74 2.78-2.72 13.24-14.49 9.43-35.81-3.65-48.19z" style="fill:url(#id10)"/><path d="M177.7 694.02c29.01-5.72 95.61-.11 95.61-.11l.1.3a20.59 20.59 0 0 1 7.79-1.64l11.31-.13 2.51 44.82-15.62.63.01.09s-63.8 9.5-95.09 8.52c-3.2-.12-6.11-.67-8.75-1.59-.94-.88-1.84-1.8-2.7-2.8-12.92-14.91-8.56-36.09 4.83-48.08z" style="fill:url(#id8)"/><path class="fil10" d="M666.33 583.06c-13.09-30.12-45.1-35.02-72.33-20.93-.48.61-173.03 89.06-325.21 127.81 4.37 13.96 6.61 28.82 7.08 43.43.1 3.26.04 6.48-.15 9.63 116.69-5.99 243.33-44.9 352.17-79.1 33.73-10.89 52.98-47.47 38.44-80.84z"/><g style="clip-path:url(#id2)"><path id="1" d="M574.77 726.96c-.55-19.08 6.18-20.6 14.13-37.06.22-.74.48-1.48.73-2.21-9.85-3.06-18.72 6.61-35.42.95-146.56-84.17-219.87-98.08-309.05-146.8-34.67-18.93-74.05-6.25-85.15 34.76-9.92 36.6 11.83 67.84 44.83 78.83 98.73 32.87-68.43 5.31-36.17 15.68 86.6 26.79 310.12 69.59 409.26 76.26-.07-1.39-3.14-19.02-3.17-20.41z" style="fill:#4d4d4d;fill-opacity:.2"/></g><path class="fil4" d="M666.33 583.06c-13.09-30.12-45.1-35.02-72.33-20.93-.48.61-173.03 89.06-325.21 127.81 4.37 13.96 6.61 28.82 7.08 43.43.1 3.26.04 6.48-.15 9.63 116.69-5.99 243.33-44.9 352.17-79.1 33.73-10.89 52.98-47.47 38.44-80.84z"/><path class="fil10" d="M544.38 735.67c-.48-16.83 2.81-32.52 9.82-47.03.19-.65.42-1.3.65-1.95-8.69-2.7-19.93-6.33-34.67-11.33-108.06-37-190.5-74.33-269.16-117.3-30.58-16.69-65.31-5.51-75.1 30.66-8.75 32.28 10.44 59.84 39.54 69.53 87.08 28.99 41.74 20.93 70.19 30.08 76.38 23.63 171.44 45.13 258.89 51.02-.06-1.23-.13-2.43-.16-3.66z"/><path class="fil6" d="M491.69 569.37c1.29-2.31 60-96.67 86.66-91.43 30 11.43 19.19 43.12 19.19 43.12-1.52 15.8-37.22 53.17-72.63 60.02-35.37 6.83-40.81 2-33.22-11.71z"/><path d="M528.57 175.93c-.92-1.64-1.86-3.29-2.82-4.94 1.15 1.52 2.11 3.19 2.82 4.94z" style="fill:#fff;fill-rule:nonzero"/><path class="fil13" d="M695.02 422.7c9.2 0 16.67 7.46 16.67 16.67 0 9.2-7.46 16.67-16.67 16.67-9.2 0-16.67-7.46-16.67-16.67 0-9.2 7.46-16.67 16.67-16.67zM184.8 159.79c14.61 0 26.46 11.85 26.46 26.46 0 14.61-11.84 26.46-26.46 26.46-14.61 0-26.45-11.85-26.45-26.46 0-14.61 11.84-26.46 26.45-26.46z"/><path class="fil14" d="m612.41 591.42.35 17.2-60.65 73.42 86.93 88.83-4.85 5.28-29.95-23.93-92.23-70.12 52.25-61.01z"/><path class="fil15" d="M634.85 775.97 525.5 676.39l-114.01 48.23 85.41 25.5c.49-76.44 107.9 16.43 107.9 16.43l30.05 9.42z"/><path class="fil15" d="m231.8 745.47 98.14-93.74 160.54 8.17 35.02 16.49-101 122.55-20.19-5.32c3.79-94.74-56.35-122.42-143.98-40.06l-28.52-8.09z"/><path class="fil16" d="m612.41 591.42-86.91 84.97-195.56-24.66 21.22-56.6z"/><path style="fill:url(#id11)" d="m564.89 603.57 14.16-25.24-134.5 6.82 64.17 70.95z"/><g style="clip-path:url(#id3)"><path id="1" class="fil3" d="M512.98 648.67c26.12-30.44 34.35-60.54 58.49-77.37-47.06-5.84-79.33 13.19-126.91 13.84l68.42 63.52z"/></g><path class="fil4" d="m564.89 603.57 14.16-25.24-134.5 6.82 64.17 70.95z"/><path d="m509.2 670.78-91.41-85.98 7.77-11.39c28.71 13.22 58.28 50.17 87.41 75.26 22.02-23.44 35-58.57 66.07-70.34l13.59 13.37-83.43 79.08z" style="fill:#fffbc4"/><path class="fil14" d="m414.48 578.28 103.25 97.13-187.79-23.68-94.26-66.67z"/><path style="fill:#784141" d="m414.48 578.28-7.25 10.98 86.88 83.17-79.72 123.85 10.1 2.66 101.38-122.25z"/><path class="fil16" d="m242.33 576.08-6.65 8.98 171.55 4.2 7.25-10.98z"/><path d="M512.98 648.67c26.12-30.44 28.88-61.79 53.02-78.61-47.06-5.84-73.85 14.44-121.45 15.09l68.43 63.52z" style="fill:url(#id9)"/><g style="clip-path:url(#id4)"><path id="1" d="M483.87 569.83c-.15-.05 2.42-2.39.13-2.17-1.57.15-3.38 1.18-5.59.4-.56-.2.17-.93.77-1.62 1.23-1.4-.2-2.15-.69-1.96-8.28 3.02-8.81 1.82-10.28 2.15 1.11.6 5.48 1.65 6.47 2.53 1.61-.26 3.31-.31 5.5.39.27.08 3.81.32 3.7.28z" style="fill:#4d4d4d;fill-opacity:.101961"/></g><path class="fil4" d="M512.98 648.67c26.12-30.44 28.88-61.79 53.02-78.61-47.06-5.84-73.85 14.44-121.45 15.09l68.43 63.52z"/><path d="M512.98 648.67c.83-.94.12 10.14 20.34 21.49 18.21 10.22 34.8 10.47 53.15 20.56 9.97 5.48 18.41 11.35 11.31 1.83-3.47-4.66 30.15.41-8.91-10.24-2.27-.62-36.78-6.46-57.65-16.97-12-6.04-15.04-20.28-15.04-20.28l-3.21 3.61z" style="fill:url(#id12)"/><path class="fil4" d="m612.41 591.42.35 17.2-54.92 66.48c15.48 4.37 29.59 6.81 31.02 7.2 39.06 10.65 5.43 5.58 8.91 10.24 7.09 9.52-1.34 3.66-11.31-1.83-10.98-6.04-21.33-8.55-31.78-11.78l-2.57 3.11 86.93 88.82-4.47 4.86.27.25-.39-.12-.28.3-.8-.64-28.59-8.96s-107.41-92.86-107.9-16.43l-25.59-7.64-46.81 56.45-10.1-2.66-10.09-2.66c3.79-94.74-56.35-122.42-143.98-40.06l-28.52-8.09 98.14-93.74-94.26-66.67 6.65-8.98 172.15 2.2 4.84 4.28 6.24-9.15c6.29 2.9 12.63 6.93 18.99 11.74l12.63-.64c40.06-3.52 66.08-19.75 108.81-14.45-3.99 2.78-7.39 5.96-10.42 9.46l23.46-1.19 13.59 13.37 19.78-.28z"/><path d="M414.86 85.58c41.67 0 75.45 33.78 75.45 75.45-60 6.54-111.79 7.54-150.91 0 0-41.67 33.78-75.45 75.45-75.45z" style="fill:#6e248d"/><g style="clip-path:url(#id5)"><path id="1" d="M415.17 61.27c47.78 0 86.51 38.73 86.51 86.51-68.8 7.5-128.18 8.65-173.02 0 0-47.78 38.73-86.51 86.51-86.51z" style="fill:#4e046d"/></g><path class="fil4" d="M414.86 85.58c41.67 0 75.45 33.78 75.45 75.45-60 6.54-111.79 7.54-150.91 0 0-41.67 33.78-75.45 75.45-75.45z"/><path class="fil5" d="M189.97 475c49.15-46.7 103.01-84.71 160.23-116.52-56.44 37.9-109.54 76.83-160.23 116.52zM681.43 693.3c49.15-46.7 103.01-84.71 160.23-116.52-56.44 37.9-109.54 76.83-160.23 116.52z"/></g></g></svg>