<svg xmlns="http://www.w3.org/2000/svg" xml:space="preserve" width="92.018" height="91.782" version="1.1" style="clip-rule:evenodd;fill-rule:evenodd;image-rendering:optimizeQuality;shape-rendering:geometricPrecision;text-rendering:geometricPrecision" viewBox="0 0 2434.344 2428.108" id="svg83"><defs id="defs28"><clipPath id="id0"><path d="m519 578 422-41c45-5 84 28 89 73l29 296c4 45-29 84-73 89l-386 37-108 111-9-99-9-88-28-289c-4-45 28-85 73-89z" id="path4"/></clipPath><clipPath id="id1"><path d="m467 883 264 2 106 70 65-414-383 37c-45 4-77 44-73 89z" id="path7"/></clipPath><clipPath id="id2"><path d="m519 578 422-41c45-5 84 28 89 73l29 296c4 45-29 84-73 89l-386 37-108 111-9-99-9-88-28-289c-4-45 28-85 73-89z" id="path10"/></clipPath><clipPath id="id3"><path d="m467 883 264 2 106 70 65-414-383 37c-45 4-77 44-73 89z" id="path13"/></clipPath><clipPath id="id4"><path d="m519 578 422-41c45-5 84 28 89 73l29 296c4 45-29 84-73 89l-386 37-108 111-9-99-9-88-28-289c-4-45 28-85 73-89z" id="path16"/></clipPath><clipPath id="id5"><path d="m808 452-377-33c-40-4-75 26-78 66l-24 264c-3 40 27 75 66 79l345 30 97 97 7-88 7-78 23-259c3-39-26-75-66-78z" id="path19"/></clipPath><clipPath id="id6"><path d="m808 452-377-33c-40-4-75 26-78 66l-24 264c-3 40 27 75 66 79l345 30 97 97 7-88 7-78 23-259c3-39-26-75-66-78z" id="path22"/></clipPath><clipPath id="id7"><path d="M339 694c85 0 153 69 153 153 0 85-68 153-153 153-84 0-153-68-153-153 0-84 69-153 153-153z" id="path25"/></clipPath><style type="text/css" id="style2">.fil5{fill:none}.fil4{fill:#fff}</style></defs><g id="Layer_x0020_1" transform="matrix(1.64973 0 0 1.64973 2.362 -1.65)"><g id="_716141291632"><path d="M192 158c321-180 1040-13 1219 308 180 321-50 724-371 904-322 180-799 141-908-256-109-398-262-777 60-956z" id="path31" style="fill:#dcc6e0;fill-opacity:.4"/><path d="M556 1c369 0 914 496 914 864s-415 566-783 566-748-225-649-625S188 1 556 1z" id="path33" style="fill:#5e147d;fill-opacity:.2"/><path d="m519 578 422-41c45-5 84 28 89 73l29 296c4 45-29 84-73 89l-386 37-108 111-9-99-9-88-28-289c-4-45 28-85 73-89z" id="path35" style="fill:#4e046d"/><g clip-path="url(#id0)" id="g53"><g clip-path="url(#id1)" id="g40"><path id="1" style="fill:#000;fill-opacity:.2" d="M295 955V419h615v536z"/></g><g clip-path="url(#id3)" id="g47"><g id="g45"><path id="2" class="fil4" d="M428 605c21 2 35 20 34 40-2 20-20 35-40 33s-35-19-33-39 19-35 39-34zm323 38c15 1 27 14 25 29-1 16-15 27-30 26-15-2-26-15-25-30 2-16 15-27 30-25zm-161-19c17 2 30 17 29 35-2 17-17 30-35 29-17-2-30-17-29-35 2-17 17-30 35-29z"/></g></g><g clip-path="url(#id4)" id="g51"><path class="fil5" d="m804 454-400-35c-43-4-80 28-84 70l-24 281c-4 42 2 111 44 112l391 3 106 70 73-469-68-51c-33-26 4 23-38 19z" id="path49"/></g></g><path class="fil5" d="m519 578 422-41c45-5 84 28 89 73l29 296c4 45-29 84-73 89l-386 37-108 111-9-99-9-88-28-289c-4-45 28-85 73-89z" id="path55"/><g clip-path="url(#id5)" id="g59"><path id="polygon57" style="fill:#4e046d" d="M329 955V419h545v536z"/></g><g clip-path="url(#id6)" id="g65"><g id="g63"><path id="path61" class="fil4" d="M455 594c18 2 32 19 31 38-2 19-19 33-37 31-19-2-33-18-32-37 2-19 19-33 38-32zm303 36c15 1 25 13 24 28-1 14-14 25-28 23-15-1-25-14-24-28s14-25 28-23zm-152-18c17 2 29 16 28 33-2 16-16 28-33 27-16-1-29-16-27-33 1-16 16-28 32-27z"/></g></g><path class="fil5" d="m808 452-377-33c-40-4-75 26-78 66l-24 264c-3 40 27 75 66 79l345 30 97 97 7-88 7-78 23-259c3-39-26-75-66-78z" id="path67"/><path d="M339 670c98 0 177 79 177 177s-79 178-177 178-177-80-177-178 79-177 177-177z" id="path69" style="fill:#1a1a1a;fill-opacity:.2"/><path d="M339 694c85 0 153 69 153 153 0 85-68 153-153 153-84 0-153-68-153-153 0-84 69-153 153-153z" id="path71" style="fill:#e74c3c"/><g clip-path="url(#id7)" id="g77"><g id="g75"><path id="polygon73" style="fill:#fff;fill-rule:nonzero" d="m263 896 49-49-49-48 28-28 48 49 49-49 27 28-48 48 48 49-27 27-49-48-48 48z"/></g></g><path class="fil5" d="M339 694c85 0 153 69 153 153 0 85-68 153-153 153-84 0-153-68-153-153 0-84 69-153 153-153z" id="path79"/></g></g></svg>