<svg xmlns="http://www.w3.org/2000/svg" xml:space="preserve" width="199.04" height="168.32" version="1.0" style="shape-rendering:geometricPrecision;text-rendering:geometricPrecision;image-rendering:optimizeQuality;fill-rule:evenodd;clip-rule:evenodd" viewBox="0 0 5266 4453"><defs><clipPath id="id0"><path d="M4226 454c346 500-279 1133-543 2109-440 1618-2525-375-2716-1342C725-12 2059 801 2568 436c645-462 1313-481 1658 18z"/></clipPath><clipPath id="id1"><path d="M4226 454c346 500-279 1133-543 2109-440 1618-2525-375-2716-1342C725-12 2059 801 2568 436c645-462 1313-481 1658 18z"/></clipPath><clipPath id="id2" style="clip-rule:nonzero"><path d="M2770 1806c-78-78-78-205 0-283s205-78 283 0l1023 1023c78 78 78 205 0 283s-205 78-283 0L2770 1806z"/></clipPath><clipPath id="id3"><path d="M2075 139c381 0 689 309 689 689 0 381-308 689-689 689-380 0-689-308-689-689 0-380 309-689 689-689z"/></clipPath><clipPath id="id4"><path d="M2075 139c381 0 689 309 689 689 0 381-308 689-689 689-380 0-689-308-689-689 0-380 309-689 689-689z"/></clipPath><style>.fil2{fill:none}.fil10,.fil4,.fil9{fill:#1a1a1a;fill-rule:nonzero}.fil10,.fil4{fill:#6e248d}.fil8{fill:#fff;fill-opacity:.2}</style></defs><g id="Layer_x0020_1"><g id="_266052317680"><g style="clip-path:url(#id0)"><path style="fill:#efdff2;fill-opacity:.4" d="M938 85h3390v3090H938z"/></g><g style="clip-path:url(#id1)"><path id="1" d="M2369 2854c67 696-443 1315-1139 1382-696 66-1315-444-1382-1140S292 1781 988 1714c696-66 1315 444 1381 1140z" style="fill:#dacede;fill-opacity:.2"/></g><path class="fil2" d="M4226 454c346 500-279 1133-543 2109-440 1618-2525-375-2716-1342C725-12 2059 801 2568 436c645-462 1313-481 1658 18z"/><path d="M1491 244C1652 83 1864 2 2075 2c212 0 423 81 584 242 162 161 242 373 242 584 0 181-58 362-176 511l310 310c38 38 38 100 0 139-39 38-101 38-139 0l-310-310c-149 117-330 176-511 176-211 0-423-80-584-242-161-161-242-372-242-584 0-211 81-423 242-584zm958 1091c-21-37-16-85 16-117s80-37 117-16c82-111 123-242 123-374 0-161-62-322-185-445s-284-184-445-184-322 61-445 184-184 284-184 445 61 322 184 445 284 185 445 185c132 0 263-41 374-123z" style="fill:#000;fill-rule:nonzero"/><path class="fil4" d="M2770 1806c-78-78-78-205 0-283s205-78 283 0l1023 1023c78 78 78 205 0 283s-205 78-283 0L2770 1806z"/><g style="clip-path:url(#id2)"><path id="1" d="M3032 1785c-78-78-78-204 0-283 79-78 205-78 283 0l1023 1023c79 79 79 205 0 283-78 79-204 79-283 0L3032 1785z" style="fill:#9b59b6;fill-rule:nonzero;fill-opacity:.2"/></g><path d="M2770 1806c-78-78-78-205 0-283s205-78 283 0l1023 1023c78 78 78 205 0 283s-205 78-283 0L2770 1806z" style="fill:none;fill-rule:nonzero"/><g style="clip-path:url(#id3)"><path style="fill:#fff;fill-opacity:.4" d="M1386 139h1378v1378H1386z"/></g><g style="clip-path:url(#id4)"><path id="1" class="fil8" d="m2126-174-228 288-50 855z"/><path class="fil8" d="m2239 1868-164-351 164-669z"/></g><path class="fil2" d="M2075 139c381 0 689 309 689 689 0 381-308 689-689 689-380 0-689-308-689-689 0-380 309-689 689-689zM3436 1217v275m-137-137h274"/><path class="fil4" d="m3501 910 72 117 117-72 53 85-117 73 72 117-85 52-73-117-117 72-52-85 117-72-72-117zM1266 1925l81 57 57-81 58 41-56 81 80 57-41 58-81-56-56 80-59-41 57-80-81-57z"/><path class="fil9" d="M80 4365h45v-214h78v-39H2v39h78z"/><path id="1" class="fil9" d="M226 4365h43v-171h-43v171zm-6-230c0 14 12 26 27 26 16 0 28-11 28-26 0-14-12-26-28-26-15 0-27 13-27 26z"/><path id="2" class="fil9" d="M496 4095h-43v120h-1c-9-11-26-26-58-26-49 0-83 39-83 90 0 50 32 91 85 91 24 0 47-11 59-30v25h41v-270zm-141 184c0-27 16-55 49-55 32 0 51 29 51 56 0 26-19 55-51 55-33 0-49-29-49-56z"/><path id="3" class="fil9" d="M655 4365h40v-104c0-34-15-72-76-72-27 0-54 9-73 27l22 26c11-11 29-20 47-20 22 0 39 11 39 32v4c-53 0-118 7-118 58 0 41 37 54 65 54 24 0 44-11 53-26h1v21zm-1-72c0 27-15 44-45 44-14 0-30-5-30-21 0-26 39-29 66-29h9v6z"/><path id="4" class="fil9" d="M746 4365h43v-88h1l68 88h57l-79-94 74-77h-55l-65 72h-1v-171h-43z"/><path id="5" class="fil9" d="M1136 4365h40v-104c0-34-15-72-76-72-27 0-54 9-73 27l22 26c11-11 29-20 47-20 21 0 39 11 39 32v4c-53 0-118 7-118 58 0 41 37 54 65 54 24 0 44-11 53-26h1v21zm-1-72c0 27-15 44-45 44-14 0-30-5-30-21 0-26 38-29 66-29h9v6z"/><path id="6" class="fil9" d="M1401 4095h-43v120h-1c-9-11-26-26-58-26-49 0-83 39-83 90 0 50 32 91 84 91 24 0 48-11 59-30h1v25h41v-270zm-141 184c0-27 16-55 49-55 31 0 50 29 50 56 0 26-19 55-50 55-33 0-49-29-49-56z"/><path id="7" class="fil9" d="M1560 4365h40v-104c0-34-15-72-77-72-26 0-53 9-72 27l22 26c11-11 29-20 47-20 21 0 39 11 39 32v4c-53 0-118 7-118 58 0 41 37 54 65 54 24 0 44-11 53-26h1v21zm-1-72c0 27-15 44-45 44-15 0-30-5-30-21 0-26 38-29 66-29h9v6z"/><path id="8" class="fil9" d="m2683 4365-9 22c-7 18-12 27-30 27-5 0-11-1-17-2l-3 37c7 2 15 2 22 2 38 0 53-17 65-49l81-208h-44l-43 125h-1l-48-125h-47l74 171z"/><path id="9" class="fil9" d="M2925 4365h40v-104c0-34-15-72-77-72-26 0-53 9-72 27l22 26c11-11 29-20 47-20 21 0 39 11 39 32v4c-53 0-118 7-118 58 0 41 37 54 65 54 24 0 44-11 53-26h1v21zm-1-72c0 27-16 44-45 44-15 0-30-5-30-21 0-26 38-29 66-29h9v6z"/><path id="10" class="fil9" d="M3015 4365h43v-94c0-23 13-47 40-47 28 0 32 26 32 46v95h43v-107c0-35-18-69-63-69-25 0-46 15-53 32h-1v-27h-41v171z"/><path id="11" class="fil9" d="M3358 4194v25h-1c-13-20-35-30-59-30-52 0-84 40-84 90 0 49 33 89 84 89 24 0 44-9 57-25v12c0 34-13 59-54 59-22 0-44-8-60-24l-25 33c22 18 57 28 85 28 67 0 97-39 97-101v-156h-40zm-51 30c31 0 51 25 51 54s-20 55-52 55c-30 0-49-27-49-55 0-30 19-54 50-54z"/><path id="12" class="fil9" d="M3714 4095h-43v120h-1c-9-11-26-26-58-26-49 0-83 39-83 90 0 50 32 91 85 91 24 0 47-11 59-30v25h41v-270zm-141 184c0-27 16-55 49-55 32 0 51 29 51 56 0 26-19 55-51 55-33 0-49-29-49-56z"/><path id="13" class="fil9" d="M3767 4365h43v-171h-43v171zm-6-230c0 14 12 26 27 26 16 0 28-11 28-26 0-14-12-26-28-26-15 0-27 13-27 26z"/><path id="14" class="fil9" d="M3868 4228v80c0 33 10 61 56 61 9 0 21-2 28-5l-1-33c-5 2-13 3-18 3-19 0-23-11-23-26v-80h43v-34h-43v-50h-42v50h-30v34h30z"/><path id="15" class="fil9" d="M4017 4262c2-24 22-41 48-41 28 0 40 19 40 41h-88zm131 20c0-62-35-93-83-93-52 0-91 36-91 92 0 55 39 89 92 89 33 0 57-11 74-34l-28-23c-10 14-24 22-46 22-25 0-47-17-49-42h131v-11z"/><path id="16" class="fil9" d="M4395 4189c-26 0-45 11-57 32-9-19-27-32-53-32-28 0-46 15-54 32h-1v-27h-40v171h43v-94c0-23 11-47 37-47 22 0 32 17 32 38v103h43v-93c0-23 11-48 38-48 28 0 32 26 32 46v95h43v-107c0-35-18-69-63-69z"/><path id="17" class="fil9" d="M4665 4194h-43v94c0 23-13 47-40 47s-32-26-32-46v-95h-43v107c0 35 19 69 63 69 26 0 46-15 54-32v27h41v-171z"/><path id="18" class="fil9" d="M4717 4365h43v-88h2l68 88h56l-79-94 75-77h-55l-65 72h-2v-171h-43z"/><path id="19" class="fil9" d="M5016 4365h40v-104c0-34-15-72-77-72-26 0-53 9-72 27l22 26c11-11 28-20 47-20 21 0 39 11 39 32v4c-54 0-118 7-118 58 0 41 37 54 64 54 25 0 45-11 54-26h1v21zm-1-72c0 27-16 44-45 44-15 0-30-5-30-21 0-26 38-29 65-29h10v6z"/><path id="20" class="fil9" d="M5106 4365h43v-94c0-23 13-47 40-47 28 0 32 26 32 46v95h43v-107c0-35-18-69-63-69-26 0-46 15-53 32h-1v-27h-41v171z"/><path id="21" class="fil10" d="M1913 4365v-110c0-36-16-73-65-73-24 0-43 13-51 28h-1v-115h-58v270h58v-96c0-21 12-38 32-38 21 0 26 18 26 38v96h59z"/><path id="22" class="fil10" d="M2063 4294c0 22-13 36-37 36-12 0-25-4-25-18 0-21 29-24 55-24h7v6zm-78-51c11-10 27-18 44-18 18 0 32 8 32 26v3c-52 0-114 8-114 60 0 42 36 56 65 56 21 0 41-9 50-23h1v18h54v-89c0-65-22-95-82-95-29 0-59 11-80 31l30 31z"/><path id="23" class="fil10" d="M2298 4207c-18-17-45-26-72-26-34 0-74 18-74 60 0 34 27 46 52 52 24 6 35 9 35 21 0 11-11 15-21 15-17 0-33-9-44-20l-32 35c18 18 48 27 77 27 37 0 76-16 76-61 0-34-29-48-56-54-23-5-33-8-33-18s11-14 22-14c14 0 28 7 37 16l33-33z"/><path id="24" class="fil10" d="M2393 4130c0-18-15-32-33-32-19 0-34 15-34 32 0 18 15 32 34 32 18 0 33-14 33-32zm-4 235v-178h-59v178h59z"/><path id="25" class="fil10" d="M2496 4365v-270h-60v270z"/></g></g></svg>