<svg xmlns="http://www.w3.org/2000/svg" xmlns:xlink="http://www.w3.org/1999/xlink" xml:space="preserve" width="128" height="123.255" version="1.1" style="clip-rule:evenodd;fill-rule:evenodd;image-rendering:optimizeQuality;shape-rendering:geometricPrecision;text-rendering:geometricPrecision" viewBox="0 0 3387.423 3260.632" id="svg138"><defs id="defs33"><clipPath id="id4"><path d="m303 886 309 769c11 30 19 37 12 85l-12 86-13 87c-1 8-6 15-14 18s-17 2-23-3l-69-54c-56-44-92-56-118-122L68 988z" id="path16"/></clipPath><clipPath id="id1"><path d="m95 1054 226-125-85-201C132 704 52 740 0 827z" id="path7"/></clipPath><clipPath id="id2"><path d="m285 949-75-179c-87-19-157 2-208 60l93 224z" id="path10"/></clipPath><clipPath id="id3"><path d="m95 1054 226-125-85-201C132 704 52 740 0 827z" id="path13"/></clipPath><clipPath id="id0"><path d="m751 267 626 100c78-82 195-126 315-107 195 31 328 215 297 410-20 129-108 231-222 276l-148 929c-11 70-77 118-146 107l-970-155c-70-11-117-77-106-146L605 374c11-70 77-118 146-107z" id="path4"/></clipPath><clipPath id="id5"><path d="M394 1789c54-84 130-119 230-101 3 12 4 26 0 52l-12 86-13 87c-1 8-6 15-14 18s-17 2-23-3l-69-54c-44-34-75-49-99-85z" id="path19"/></clipPath><clipPath id="id6"><path d="m303 886 309 769c11 30 19 37 12 85l-12 86-13 87c-1 8-6 15-14 18s-17 2-23-3l-69-54c-56-44-92-56-118-122L68 988z" id="path22"/></clipPath><linearGradient xlink:href="#id7" id="linearGradient967" gradientUnits="userSpaceOnUse" x1="14.08" y1="981.55" x2="368.38" y2="981.55"/><linearGradient id="id7" gradientUnits="userSpaceOnUse" x1="14.08" y1="981.55" x2="368.38" y2="981.55"><stop offset="0" style="stop-opacity:1;stop-color:#e6e6e6" id="stop25"/><stop offset=".522" style="stop-opacity:1;stop-color:#f3f3f3" id="stop27"/><stop offset="1" style="stop-opacity:1;stop-color:#c4c4c4" id="stop29"/></linearGradient><linearGradient id="id8" gradientUnits="userSpaceOnUse" xlink:href="#id7" x1="-12.39" y1="1023.79" x2="341.91" y2="1023.79"/><style type="text/css" id="style2">.fil4{fill:none}.fil7{fill:#ab69c6}.fil8{fill:#dcc6e0}.fil6{fill:#fff}</style></defs><g id="Layer_x0020_1" transform="matrix(1.57555 0 0 1.57555 0 -3.543)"><g id="_716139192128"><path d="m816 363 983 157c66 10 111 73 101 139l-201 1259c-16 99-110 168-210 152l-922-147c-66-10-111-73-100-138L677 464c10-66 73-111 139-101z" id="path36" style="fill:#d0b9d4"/><path d="m751 267 626 100c78-82 195-126 315-107 195 31 328 215 297 410-20 129-108 231-222 276l-148 929c-11 70-77 118-146 107l-970-155c-70-11-117-77-106-146L605 374c11-70 77-118 146-107z" id="path38" style="fill:#ebe1ed"/><g clip-path="url(#id0)" id="g45"><g id="g43"><path id="1" d="M1863 1177c-228 142-789 591-1562 106-638-401-454-777-443 479 5 562 791 565 1291 634 138 19 589 60 657-76 303-605 52-195 120-846 20-191 122-281-63-297z" style="fill:#cea0e4;fill-opacity:.4"/><path d="M1619 702v-1 1zm165 78zm-81-146c-16-14-32-27-49-39-25-16-51-30-80-40-135-46-125 103-51 126 20 6 39 15 56 27 33 22 62 52 90 88 23 29 65 34 94 11 10-8 17-17 21-27 20-48 18-121 70-233 11-22 23-46 39-72 3-5 6-11 10-16 10-16 21-33 34-50 37-52 86-110 149-174-73 36-136 82-191 135-14 13-28 27-41 42-4 5-8 10-13 15-1 1-2 2-3 4-29 34-56 69-80 106-20 32-38 64-55 97zm41 122c15-23 46-63 52-122-6 62-21 107-38 132-8 11-16 19-25 23-20 11-38-1-48-19-5-10-15-24-29-38-10-11-22-21-37-30h1c65 41 97 95 124 54z" id="path41" style="fill:#3e005d;fill-opacity:.2"/></g></g><path class="fil4" d="m751 267 626 100c78-82 195-126 315-107 195 31 328 215 297 410-20 129-108 231-222 276l-148 929c-11 70-77 118-146 107l-970-155c-70-11-117-77-106-146L605 374c11-70 77-118 146-107z" id="path47"/><circle transform="rotate(9.046 -3205.115 10551.98) scale(.52524)" r="584" id="circle49" cx="0" cy="0" style="fill:#ccc"/><circle class="fil6" transform="rotate(9.046 -3059.777 10648.392) scale(.51154)" r="584" id="circle51" cx="0" cy="0"/><rect class="fil6" transform="rotate(9.045 -2870.601 4770.157)" width="169" height="169" rx="42" ry="42" id="rect53" x="0" y="0"/><rect class="fil6" transform="rotate(9.045 -5011.361 4600.821)" width="169" height="169" rx="42" ry="42" id="rect55" x="0" y="0"/><rect class="fil6" transform="rotate(9.045 -7152.153 4431.488)" width="169" height="169" rx="42" ry="42" id="rect57" x="0" y="0"/><rect class="fil6" transform="rotate(9.045 -9292.862 4262.154)" width="169" height="169" rx="42" ry="42" id="rect59" x="0" y="0"/><path class="fil6" transform="rotate(9.045 -5134.13 6152.904)" id="rect61" d="M0 0h533.4v42.33H0z"/><path class="fil6" transform="matrix(1.33242 .21212 -.15722 .98756 850.248 1218.15)" id="rect63" d="M0 0h533.4v42.33H0z"/><path class="fil6" transform="matrix(1.33242 .21212 -.15722 .98756 797.003 1552.61)" id="rect65" d="M0 0h533.4v42.33H0z"/><path class="fil6" transform="matrix(1.13886 .1813 -.15722 .98756 777.037 1678.03)" id="rect67" d="M0 0h533.4v42.33H0z"/><path class="fil6" transform="matrix(1.33242 .21212 -.15722 .98756 830.281 1343.57)" id="rect69" d="M0 0h533.4v42.33H0z"/><path class="fil6" transform="rotate(9.045 -5936.904 6089.4)" id="rect71" d="M0 0h533.4v42.33H0z"/><path class="fil6" transform="matrix(.20377 .03244 -.15722 .98756 956.737 549.232)" id="rect73" d="M0 0h533.4v42.33H0z"/><path class="fil6" transform="matrix(.20377 .03244 -.15722 .98756 936.771 674.652)" id="rect75" d="M0 0h533.4v42.33H0z"/><path class="fil7" d="M1578 661zm158 92zm-69-153c-14-15-29-29-45-42-23-19-48-34-76-47-131-57-134 92-62 121 20 8 38 19 54 32 31 24 57 57 82 95 20 31 62 39 93 19 10-7 18-15 23-25 24-46 28-119 89-226 13-21 28-44 45-68 4-5 8-11 12-16 11-15 24-31 38-47 42-48 95-102 163-160-76 30-142 70-201 118-16 12-31 25-45 38l-14 14c-1 1-3 2-4 4-32 31-61 64-88 99-23 30-44 60-64 91zm30 126c18-22 52-59 63-117-11 61-30 104-49 128-9 10-18 18-27 21-21 9-37-5-46-24-4-9-13-24-26-40-9-11-20-23-34-33h1c61 47 89 103 118 65z" id="path77"/><circle class="fil7" cx="1337" cy="70" r="51" id="circle79"/><circle class="fil8" cx="2082" cy="1077" r="68" id="circle81"/><circle class="fil7" cx="2082" cy="36" r="34" id="circle83"/><path class="fil8" id="polygon85" d="m1541 815-41-13 41-12 12-41 13 41 41 12-41 13-13 41z"/><path class="fil7" id="polygon87" d="m1657 480-20-7 20-6 6-20 7 20 20 6-20 7-7 20z"/><g id="g134"><path d="m95 1054 226-125-85-201C132 704 52 740 0 827z" id="path89" style="fill:#edcf9a"/><g clip-path="url(#id1)" id="g106"><g id="g93"><path id="path91" d="m68 1096 227-125-85-201c-104-23-185 12-236 99z" style="fill:#f2d7a7"/></g><g clip-path="url(#id2)" id="g98"><g id="g96"><path id="2" style="fill:url(#id8)" d="m342 1075-4-227-350 154 127 198z"/></g></g><g clip-path="url(#id3)" id="g104"><path class="fil4" d="m68 1096 227-125-85-201c-104-23-185 12-236 99z" id="path100"/><path id="polygon102" style="fill:url(#linearGradient967)" d="m368 1033-3-228L14 960l128 198z"/></g></g><path class="fil4" d="m95 1054 226-125-85-201C132 704 52 740 0 827z" id="path108"/><path d="m303 886 309 769c11 30 19 37 12 85l-12 86-13 87c-1 8-6 15-14 18s-17 2-23-3l-69-54c-56-44-92-56-118-122L68 988z" id="path110" style="fill:#c190d4"/><g clip-path="url(#id4)" id="g130"><g id="g116"><path id="polygon112" style="fill:#cea0e4" d="m-145 688 315 199 458 1155-465 35-494-948z"/><path d="m416 2042-22-253c54-85 130-119 231-101l99 195-159 210z" id="path114" style="fill:#e8d6a0"/></g><g clip-path="url(#id5)" id="g122"><g id="g120"><path id="polygon118" style="fill:#dec98a" d="m-145 688 315 199 458 1155-465 35-494-948z"/></g></g><g clip-path="url(#id6)" id="g128"><path class="fil4" d="m416 2042-22-253c54-85 130-119 231-101l99 195-159 210z" id="path124"/><circle cx="585" cy="1931" r="70" id="circle126" style="fill:#633"/></g></g><path class="fil4" d="m303 886 309 769c11 30 19 37 12 85l-12 86-13 87c-1 8-6 15-14 18s-17 2-23-3l-69-54c-56-44-92-56-118-122L68 988z" id="path132"/></g></g></g></svg>