<svg xmlns="http://www.w3.org/2000/svg" xmlns:xlink="http://www.w3.org/1999/xlink" xml:space="preserve" width="128.002" height="127.022" version="1.1" style="clip-rule:evenodd;fill-rule:evenodd;image-rendering:optimizeQuality;shape-rendering:geometricPrecision;text-rendering:geometricPrecision" viewBox="0 0 3386.13 3360.073" id="svg134"><defs id="defs33"><clipPath id="id4"><path d="m298 1002 302 752c11 29 19 37 12 83l-12 85-13 85c-1 8-6 14-14 17-7 4-16 2-22-3l-67-53c-55-42-90-55-115-119L68 1102z" id="path16"/></clipPath><clipPath id="id1"><path d="m94 1166 222-122-83-196C131 824 52 859 2 944z" id="path7"/></clipPath><clipPath id="id2"><path d="m281 1063-74-174c-85-19-154 2-204 59l91 218z" id="path10"/></clipPath><clipPath id="id3"><path d="m94 1166 222-122-83-196C131 824 52 859 2 944z" id="path13"/></clipPath><clipPath id="id0"><path d="m739 360 626 100c78-82 194-126 315-106 195 31 328 214 297 409-21 129-108 231-222 276l-148 929c-11 70-77 118-146 107l-970-155c-70-11-118-77-106-146L593 467c11-70 77-118 146-107z" id="path4"/></clipPath><clipPath id="id5"><path d="M387 1885c52-82 127-116 225-99 3 12 4 26 0 51l-12 85-13 85c-1 8-6 14-14 17-7 4-16 2-22-3l-67-53c-43-33-73-48-97-83z" id="path19"/></clipPath><clipPath id="id6"><path d="m298 1002 302 752c11 29 19 37 12 83l-12 85-13 85c-1 8-6 14-14 17-7 4-16 2-22-3l-67-53c-55-42-90-55-115-119L68 1102z" id="path22"/></clipPath><linearGradient xlink:href="#id7" id="linearGradient963" gradientUnits="userSpaceOnUse" x1="15.33" y1="1095.47" x2="361.88" y2="1095.47"/><linearGradient id="id7" gradientUnits="userSpaceOnUse" x1="15.33" y1="1095.47" x2="361.88" y2="1095.47"><stop offset="0" style="stop-opacity:1;stop-color:#e6e6e6" id="stop25"/><stop offset=".522" style="stop-opacity:1;stop-color:#f3f3f3" id="stop27"/><stop offset="1" style="stop-opacity:1;stop-color:#c4c4c4" id="stop29"/></linearGradient><linearGradient id="id8" gradientUnits="userSpaceOnUse" xlink:href="#id7" x1="-10.56" y1="1136.79" x2="335.99" y2="1136.79"/><style type="text/css" id="style2">.fil3{fill:none}.fil5{fill:#fff}.fil6,.fil7{fill:#ab69c6;fill-rule:nonzero}.fil7{fill:#dcc6e0}</style></defs><g id="Layer_x0020_1" transform="translate(-3.107 -3.157) scale(1.55327)"><g id="_716139190336"><path d="m803 456 984 157c66 10 111 73 100 139l-200 1259c-16 99-110 168-210 152l-922-147c-66-10-111-73-101-138L665 557c10-66 73-111 138-101z" id="path36" style="fill:#d0b9d4"/><path d="m739 360 626 100c78-82 194-126 315-106 195 31 328 214 297 409-21 129-108 231-222 276l-148 929c-11 70-77 118-146 107l-970-155c-70-11-118-77-106-146L593 467c11-70 77-118 146-107z" id="path38" style="fill:#ebe1ed"/><g clip-path="url(#id0)" id="g43"><g id="g41"><path id="1" d="M1851 1270c-229 142-789 591-1562 106-638-401-454-776-443 479 5 563 791 566 1291 634 138 19 589 60 657-76 303-605 52-195 120-846 20-191 122-281-63-297z" style="fill:#cea0e4;fill-opacity:.4"/></g></g><path class="fil3" d="m739 360 626 100c78-82 194-126 315-106 195 31 328 214 297 409-21 129-108 231-222 276l-148 929c-11 70-77 118-146 107l-970-155c-70-11-118-77-106-146L593 467c11-70 77-118 146-107z" id="path45"/><circle transform="rotate(9.046 -3799.747 10521.735) scale(.52524)" r="584" id="circle47" cx="0" cy="0" style="fill:#ccc"/><circle class="fil5" transform="rotate(9.046 -3654.407 10618.144) scale(.51154)" r="584" id="circle49" cx="0" cy="0"/><path class="fil6" id="polygon51" d="m1491 87 111-85 26 34-88 67 49 33 20 13-16 18-79 91-32-28 63-72-53-36-24-17z"/><path class="fil6" id="polygon53" d="m2088 645 65-49 26 35-45 33 36 33 12 12-8 14-69 117-37-22 60-101-42-39-19-18z"/><path class="fil7" id="polygon55" d="m1546 1267 101-93 20 22-77 72 52 8 34 5-26 22-63 52-19-23 36-31-50-8-31-5z"/><path class="fil7" id="polygon57" d="m1212 826-82 41-19-38 65-33-16-45-4-11 7-9 48-62 34 25-41 54 19 52 6 18z"/><rect class="fil5" transform="rotate(9.045 -3465.233 4739.911)" width="169" height="169" rx="42" ry="42" id="rect59" x="0" y="0"/><rect class="fil5" transform="rotate(9.045 -5605.993 4570.575)" width="169" height="169" rx="42" ry="42" id="rect61" x="0" y="0"/><rect class="fil5" transform="rotate(9.045 -7746.784 4401.242)" width="169" height="169" rx="42" ry="42" id="rect63" x="0" y="0"/><rect class="fil5" transform="rotate(9.045 -9887.493 4231.908)" width="169" height="169" rx="42" ry="42" id="rect65" x="0" y="0"/><path class="fil5" transform="rotate(9.045 -5728.761 6122.658)" id="rect67" d="M0 0h533.4v42.33H0z"/><path class="fil5" transform="matrix(1.33242 .21212 -.15722 .98756 838.098 1311.26)" id="rect69" d="M0 0h533.4v42.33H0z"/><path class="fil5" transform="matrix(1.33242 .21212 -.15722 .98756 784.853 1645.72)" id="rect71" d="M0 0h533.4v42.33H0z"/><path class="fil5" transform="matrix(1.13886 .1813 -.15722 .98756 764.887 1771.14)" id="rect73" d="M0 0h533.4v42.33H0z"/><path class="fil5" transform="matrix(1.33242 .21212 -.15722 .98756 818.131 1436.68)" id="rect75" d="M0 0h533.4v42.33H0z"/><path class="fil5" transform="rotate(9.045 -6531.535 6059.155)" id="rect77" d="M0 0h533.4v42.33H0z"/><path class="fil5" transform="matrix(.20377 .03244 -.15722 .98756 944.587 642.342)" id="rect79" d="M0 0h533.4v42.33H0z"/><path class="fil5" transform="matrix(.20377 .03244 -.15722 .98756 924.621 767.762)" id="rect81" d="M0 0h533.4v42.33H0z"/><path class="fil6" d="M1564 1011c-7 8-13 18-19 32-1-14 3-26 13-37 5-6 11-9 17-12 7-3 13-3 19-2-12 4-22 10-30 19zm30-49c-20 0-37 7-53 22-15 15-24 33-27 54-2 22 2 42 12 60 11 18 26 30 45 35 23 6 44 2 63-12 20-15 32-36 35-62 4-27-2-50-17-69-16-19-35-28-58-28zm11-383c-9 1-18 3-29 6-20 5-39 12-55 19-20 9-36 19-50 31-18 16-26 33-25 51-2-10-1-20 3-30 4-8 10-17 18-25 13-13 29-24 50-34 20-8 39-14 58-18 21-4 41-5 60-4l-15 2c-6 0-11 1-15 2zm-19 254c-4 2-7 3-9 4-6 4-12 8-15 11-4 5-7 10-9 17-2-7 0-14 4-20 3-6 9-10 16-14 6-4 13-6 20-8 4-1 11-2 19-5-5 5-11 8-18 11zm83-286c-26-4-54-3-84 1-31 6-59 15-85 27-28 14-50 30-64 49-17 20-24 42-20 66 7 58 56 75 148 51 16-4 28-4 38-1 8 4 13 9 15 17 1 7-1 15-7 22-6 8-14 14-26 18-43 14-63 37-62 69 1 16 7 29 18 39 11 11 27 16 46 16 17 0 36-3 58-11 25-9 48-21 70-37 56-42 87-98 93-169 4-40-5-74-27-101-24-30-61-48-111-56z" id="path83"/><g id="g130"><path d="m94 1166 222-122-83-196C131 824 52 859 2 944z" id="path85" style="fill:#edcf9a"/><g clip-path="url(#id1)" id="g102"><g id="g89"><path id="path87" d="m68 1207 222-122-83-196c-102-23-181 12-231 97z" style="fill:#f2d7a7"/></g><g clip-path="url(#id2)" id="g94"><g id="g92"><path id="2" style="fill:url(#id8)" d="m333 964-344 152 125 193 222-122z"/></g></g><g clip-path="url(#id3)" id="g100"><path class="fil3" d="m68 1207 222-122-83-196c-102-23-181 12-231 97z" id="path96"/><path id="polygon98" style="fill:url(#linearGradient963)" d="M359 923 15 1074l125 194 222-122z"/></g></g><path class="fil3" d="m94 1166 222-122-83-196C131 824 52 859 2 944z" id="path104"/><path d="m298 1002 302 752c11 29 19 37 12 83l-12 85-13 85c-1 8-6 14-14 17-7 4-16 2-22-3l-67-53c-55-42-90-55-115-119L68 1102z" id="path106" style="fill:#c190d4"/><g clip-path="url(#id4)" id="g126"><g id="g112"><path id="polygon108" style="fill:#cea0e4" d="m-322 1240 182-432 308 195 448 1129-455 35z"/><path d="m409 2132-22-247c53-83 128-116 226-98l97 190-156 206z" id="path110" style="fill:#e8d6a0"/></g><g clip-path="url(#id5)" id="g118"><g id="g116"><path id="polygon114" style="fill:#dec98a" d="m-322 1240 182-432 308 195 448 1129-455 35z"/></g></g><g clip-path="url(#id6)" id="g124"><path class="fil3" d="m409 2132-22-247c53-83 128-116 226-98l97 190-156 206z" id="path120"/><circle cx="573" cy="2024" r="69" id="circle122" style="fill:#633"/></g></g><path class="fil3" d="m298 1002 302 752c11 29 19 37 12 83l-12 85-13 85c-1 8-6 14-14 17-7 4-16 2-22-3l-67-53c-55-42-90-55-115-119L68 1102z" id="path128"/></g></g></g></svg>