<svg version="1.1" id="Layer_1" xmlns="http://www.w3.org/2000/svg" x="0" y="0" viewBox="-759 761 480 480" style="enable-background:new -759 761 480 480" xml:space="preserve"><style>.st0{fill:gray}</style><g id="Layer_x0020_1"><g id="_966687342080"><path class="st0" d="M-520.8 948c-4.7-4.7-12.2-4.7-16.8 0-4.5 4.5-4.5 12 0 16.7l44.9 44.9-44.9 44.9c-4.5 4.5-4.5 12 0 16.7 4.7 4.7 12.2 4.7 16.8 0l53.3-53.3c4.5-4.7 4.5-12.2 0-16.7l-53.3-53.2zm-26.2 73.5c6.5 0 11.9-5.4 11.9-11.9s-5.4-11.9-11.9-11.9h-118.4c-6.5 0-11.9 5.4-11.9 11.9s5.4 11.9 11.9 11.9H-547z"/><path class="st0" d="M-407.2 1084.7V934.6c0-10.2-4.1-19.5-10.9-26.1-6.6-6.8-16-10.9-26.1-10.9h-120.3c-10.2 0-19.4 4.1-26.1 10.9-6.6 6.6-10.9 16-10.9 26.1h-22.9c0-16.5 6.8-31.5 17.7-42.4 9.6-9.6 22.3-16 36.6-17.2v-.3h131.7v.3c14.3 1.3 27.1 7.6 36.7 17.2 10.7 10.9 17.5 25.9 17.5 42.4v150.1c0 16.5-6.8 31.5-17.5 42.4-9.6 9.5-22.5 16-36.7 17.2v.3h-131.7v-.3c-14.3-1.3-27-7.8-36.6-17.2-10.9-10.9-17.7-25.9-17.7-42.4h22.9c0 10.2 4.2 19.5 10.9 26.1 6.8 6.8 16 10.9 26.1 10.9h120.3c10.2 0 19.5-4.1 26.1-10.9 6.8-6.6 10.9-16 10.9-26.1z"/></g></g></svg>