<?xml version="1.0" encoding="UTF-8"?>
<!DOCTYPE svg PUBLIC "-//W3C//DTD SVG 1.1//EN" "http://www.w3.org/Graphics/SVG/1.1/DTD/svg11.dtd">
<!-- Creator: CorelDRAW X7 -->
<svg xmlns="http://www.w3.org/2000/svg" xml:space="preserve" width="169.333mm" height="169.333mm" version="1.1" style="shape-rendering:geometricPrecision; text-rendering:geometricPrecision; image-rendering:optimizeQuality; fill-rule:evenodd; clip-rule:evenodd"
viewBox="0 0 16933 16933"
 xmlns:xlink="http://www.w3.org/1999/xlink">
 <defs>
  <style type="text/css">
   <![CDATA[
    .str0 {stroke:black;stroke-width:20;stroke-opacity:0.101961}
    .fil3 {fill:none}
    .fil13 {fill:black}
    .fil16 {fill:#1A1A1A}
    .fil10 {fill:#763DB0}
    .fil19 {fill:#AB69C6}
    .fil4 {fill:#F6EDF7}
    .fil12 {fill:#FFC8A3}
    .fil8 {fill:white}
    .fil18 {fill:white;fill-rule:nonzero}
    .fil0 {fill:#1A1A1A;fill-opacity:0.101961}
    .fil20 {fill:white;fill-opacity:0.101961}
    .fil11 {fill:#0A5D7D;fill-opacity:0.200000}
    .fil2 {fill:#1A1A1A;fill-opacity:0.200000}
    .fil17 {fill:#4D4D4D;fill-opacity:0.200000}
    .fil21 {fill:#B3B3B3;fill-opacity:0.200000}
    .fil5 {fill:#FF8CC8;fill-opacity:0.200000}
    .fil6 {fill:#4E046D;fill-rule:nonzero;fill-opacity:0.200000}
    .fil22 {fill:#4E046D;fill-opacity:0.400000}
    .fil1 {fill:#AB69C6;fill-opacity:0.400000}
    .fil23 {fill:#AB69C6;fill-rule:nonzero;fill-opacity:0.400000}
    .fil7 {fill:#DCC6E0;fill-rule:nonzero;fill-opacity:0.800000}
    .fil9 {fill:url(#id7)}
    .fil15 {fill:url(#id8)}
    .fil14 {fill:url(#id9)}
   ]]>
  </style>
    <clipPath id="id0">
     <path d="M8552 8906l-3 -42 -7 -110c-3,-37 -4,-74 -6,-111 -3,-74 -7,-148 -10,-222 -9,-296 -15,-592 -14,-888 2,-148 2,-296 4,-444l2 -111 2 -112c2,-74 4,-148 6,-222 3,-148 8,-296 14,-444 5,-148 11,-296 18,-444l-13 -1c-24,296 -40,592 -52,888 -3,74 -4,149 -7,223l-3 111 -2 111c-1,74 -3,148 -4,222l-1 223c2,148 2,296 6,445 1,74 2,148 5,222l9 222c9,172 21,343 36,514 -8,15 -16,31 -22,49 -44,119 -98,175 -149,206 -31,8 -62,16 -94,24 -9,-16 -17,-33 -24,-50 -1,-3 -3,-6 -4,-9 -52,-115 -125,-220 -213,-311 -212,-222 -357,-549 -381,-922 -24,-368 75,-708 253,-955 159,-221 229,-495 189,-764 -4,-28 -7,-57 -9,-86 -26,-400 173,-746 459,-825 30,-9 62,-14 95,-16 334,-22 629,319 658,762 6,91 0,178 -15,261 -50,263 -3,537 141,763 367,573 113,945 -66,1345 -70,76 -113,177 -197,243 -46,36 -102,58 -161,75 -38,10 -77,18 -115,26 -39,9 -78,17 -115,27 -83,23 -159,57 -210,127zm220 -3469c-3,1 -6,3 -7,6 -3,6 0,12 5,14 2,1 131,57 237,202 98,134 196,374 106,756 -1,6 2,12 8,13 2,0 4,0 5,0 1,0 2,-1 2,-1 3,-1 5,-4 6,-7 92,-390 -9,-637 -110,-774 -110,-150 -240,-206 -245,-208 -3,-1 -5,-1 -7,-1z"/>
    </clipPath>
    <clipPath id="id1">
     <path d="M8552 8906l-3 -42 -7 -110c-3,-37 -4,-74 -6,-111 -3,-74 -7,-148 -10,-222 -9,-296 -15,-592 -14,-888 2,-148 2,-296 4,-444l2 -111 2 -112c2,-74 4,-148 6,-222 3,-148 8,-296 14,-444 5,-148 11,-296 18,-444l-13 -1c-24,296 -40,592 -52,888 -3,74 -4,149 -7,223l-3 111 -2 111c-1,74 -3,148 -4,222l-1 223c2,148 2,296 6,445 1,74 2,148 5,222l9 222c9,172 21,343 36,514 -8,15 -16,31 -22,49 -44,119 -98,175 -149,206 -31,8 -62,16 -94,24 -9,-16 -17,-33 -24,-50 -1,-3 -3,-6 -4,-9 -52,-115 -125,-220 -213,-311 -212,-222 -357,-549 -381,-922 -24,-368 75,-708 253,-955 159,-221 229,-495 189,-764 -4,-28 -7,-57 -9,-86 -26,-400 173,-746 459,-825 30,-9 62,-14 95,-16 334,-22 629,319 658,762 6,91 0,178 -15,261 -50,263 -3,537 141,763 367,573 113,945 -66,1345 -70,76 -113,177 -197,243 -46,36 -102,58 -161,75 -38,10 -77,18 -115,26 -39,9 -78,17 -115,27 -83,23 -159,57 -210,127zm220 -3469c-3,1 -6,3 -7,6 -3,6 0,12 5,14 2,1 131,57 237,202 98,134 196,374 106,756 -1,6 2,12 8,13 2,0 4,0 5,0 1,0 2,-1 2,-1 3,-1 5,-4 6,-7 92,-390 -9,-637 -110,-774 -110,-150 -240,-206 -245,-208 -3,-1 -5,-1 -7,-1z"/>
    </clipPath>
    <clipPath id="id2">
     <path d="M9882 8090c217,-726 960,-1614 181,-1597 -713,16 -173,2048 -2137,513 -618,-483 -1687,-235 -481,1051 576,615 -1893,1743 1945,1616 1558,-51 300,-941 492,-1583z"/>
    </clipPath>
    <clipPath id="id3" style="clip-rule:nonzero">
     <path d="M8023 8698c1,-8 3,-15 4,-22 1,-1 2,-2 3,-3 -2,8 -4,16 -7,25z"/>
    </clipPath>
    <clipPath id="id4">
     <path d="M9349 8470l-1 0c-43,-158 -113,-317 -233,-403 -40,-27 -107,-55 -190,-76 -2,0 -4,-1 -6,-1 -5,-1 -10,-2 -15,-3l-110 -22 -133 129 -130 -128c0,0 -136,27 -139,28l-1 0c-56,16 -109,42 -157,75 -177,122 -303,565 -284,773l236 145 -12 256 -2 90 519 261 454 -233 2 -79c36,-27 66,-58 92,-91l-212 -178 357 -179c0,0 -13,-315 -35,-364z"/>
    </clipPath>
    <clipPath id="id5">
     <path d="M9632 9128c-52,-120 -178,-139 -286,-83 -2,2 -684,352 -1286,505 17,55 26,114 28,172 1,13 0,26 0,38 461,-24 962,-178 1392,-313 133,-43 210,-187 152,-319z"/>
    </clipPath>
    <clipPath id="id6">
     <path d="M8151 8383l1032 0c21,0 39,17 39,38l0 637c0,22 -18,39 -39,39l-1032 0c-21,0 -38,-17 -38,-39l0 -637c0,-21 17,-38 38,-38zm-8 775l1048 0c17,0 31,-14 31,-30l0 0c0,-17 -14,-31 -31,-31l-1048 0c-16,0 -30,14 -30,31l0 0c0,16 14,30 30,30z"/>
    </clipPath>
  <linearGradient id="id7" gradientUnits="userSpaceOnUse" x1="8662.83" y1="8187.9" x2="8659.32" y2="7790.48">
   <stop offset="0" style="stop-opacity:1; stop-color:#F9B776"/>
   <stop offset="1" style="stop-opacity:1; stop-color:#F47960"/>
  </linearGradient>
  <linearGradient id="id8" gradientUnits="userSpaceOnUse" xlink:href="#id7" x1="8108.67" y1="9665.12" x2="7595.03" y2="9665.12">
  </linearGradient>
  <linearGradient id="id9" gradientUnits="userSpaceOnUse" xlink:href="#id7" x1="9647.23" y1="9673.4" x2="9132.15" y2="9673.4">
  </linearGradient>
 </defs>
 <g id="Layer_x0020_1">
  <metadata id="CorelCorpID_0Corel-Layer"/>
  <g id="_799270847392">
   <path class="fil0 str0" d="M8464 9568c908,0 1645,93 1645,207 0,115 -737,208 -1645,208 -908,0 -1645,-93 -1645,-208 0,-114 737,-207 1645,-207z"/>
   <g style="clip-path:url(#id0)">
    <polygon class="fil1" points="7641,5276 9604,5276 9604,9215 7641,9215 "/>
   </g>
   <g style="clip-path:url(#id1)">
    <g>
     <path id="1" class="fil2" d="M6995 7690c-14,22 -43,29 -64,15 -21,-14 -28,-40 -17,-62l-15 -9c-2,-2 -2,-4 -1,-6l0 0c1,-2 4,-2 5,-1l16 10c14,-20 41,-25 62,-11 22,14 28,43 14,64zm-5 -3c-12,19 -37,25 -56,13 -19,-13 -25,-38 -13,-57 12,-19 38,-25 57,-12 19,12 24,37 12,56z"/>
    </g>
   </g>
   <path class="fil3" d="M8552 8906l-3 -42 -7 -110c-3,-37 -4,-74 -6,-111 -3,-74 -7,-148 -10,-222 -9,-296 -15,-592 -14,-888 2,-148 2,-296 4,-444l2 -111 2 -112c2,-74 4,-148 6,-222 3,-148 8,-296 14,-444 5,-148 11,-296 18,-444l-13 -1c-24,296 -40,592 -52,888 -3,74 -4,149 -7,223l-3 111 -2 111c-1,74 -3,148 -4,222l-1 223c2,148 2,296 6,445 1,74 2,148 5,222l9 222c9,172 21,343 36,514 -8,15 -16,31 -22,49 -44,119 -98,175 -149,206 -31,8 -62,16 -94,24 -9,-16 -17,-33 -24,-50 -1,-3 -3,-6 -4,-9 -52,-115 -125,-220 -213,-311 -212,-222 -357,-549 -381,-922 -24,-368 75,-708 253,-955 159,-221 229,-495 189,-764 -4,-28 -7,-57 -9,-86 -26,-400 173,-746 459,-825 30,-9 62,-14 95,-16 334,-22 629,319 658,762 6,91 0,178 -15,261 -50,263 -3,537 141,763 367,573 113,945 -66,1345 -70,76 -113,177 -197,243 -46,36 -102,58 -161,75 -38,10 -77,18 -115,26 -39,9 -78,17 -115,27 -83,23 -159,57 -210,127zm220 -3469c-3,1 -6,3 -7,6 -3,6 0,12 5,14 2,1 131,57 237,202 98,134 196,374 106,756 -1,6 2,12 8,13 2,0 4,0 5,0 1,0 2,-1 2,-1 3,-1 5,-4 6,-7 92,-390 -9,-637 -110,-774 -110,-150 -240,-206 -245,-208 -3,-1 -5,-1 -7,-1z"/>
   <path class="fil4" d="M9882 8090c217,-726 960,-1614 181,-1597 -713,16 -173,2048 -2137,513 -618,-483 -1687,-235 -481,1051 576,615 -1893,1743 1945,1616 1558,-51 300,-941 492,-1583z"/>
   <g style="clip-path:url(#id2)">
    <g>
     <path id="1" class="fil5" d="M9034 9660c576,-492 1682,-835 1019,-1243 -608,-374 -1258,1626 -2073,-729 -257,-742 -1290,-1114 -975,621 150,829 -2536,436 755,2413 1337,803 764,-627 1274,-1062z"/>
     <path class="fil6" d="M7830 8271c0,0 554,-310 296,-731 0,0 -207,-259 -429,-325 0,0 118,627 0,642 -118,15 -81,-709 -81,-709 0,0 -584,-281 -813,-258 0,0 362,613 244,598 -118,-15 -524,-635 -524,-635 0,0 -599,-111 -694,243 -97,355 59,532 147,554 89,23 658,15 643,89 -15,74 -399,192 -613,126 0,0 236,583 546,554 310,-30 407,-222 598,-237 193,-15 333,37 237,89 -96,52 -421,17 -576,149 -155,132 -281,213 7,272 288,59 805,22 909,-200 0,0 7,-9 13,-27l-13 27c262,154 425,778 293,1312l64 1c193,-625 -59,-1260 -254,-1534z"/>
    </g>
   </g>
   <path class="fil3" d="M9882 8090c217,-726 960,-1614 181,-1597 -713,16 -173,2048 -2137,513 -618,-483 -1687,-235 -481,1051 576,615 -1893,1743 1945,1616 1558,-51 300,-941 492,-1583z"/>
   <path class="fil7" d="M9438 8726c0,0 -367,-206 -196,-485 0,0 137,-172 285,-216 0,0 -79,417 0,427 78,9 53,-471 53,-471 0,0 388,-186 540,-171 0,0 -241,406 -162,397 78,-10 348,-422 348,-422 0,0 397,-73 460,162 64,235 -39,353 -98,367 -58,15 -436,10 -426,59 10,49 265,128 407,84 0,0 -157,387 -363,367 -206,-19 -269,-147 -397,-157 -127,-10 -220,25 -157,59 64,34 280,11 383,99 103,87 186,141 -5,180 -191,40 -535,15 -603,-132 0,0 -5,-6 -9,-18l9 18c-174,102 -283,516 -195,870l-42 1c-128,-414 39,-836 168,-1018z"/>
   <path class="fil8" d="M9511 8671c194,-185 407,-335 633,-461 -223,150 -433,304 -633,461z"/>
   <path class="fil7" d="M7723 8221c0,0 554,-310 295,-731 0,0 -207,-258 -428,-325 0,0 118,628 0,643 -118,14 -81,-709 -81,-709 0,0 -584,-281 -813,-259 0,0 362,613 244,598 -118,-14 -525,-635 -525,-635 0,0 -598,-111 -694,244 -96,354 59,532 148,554 88,22 657,15 642,88 -14,74 -399,193 -613,126 0,0 237,584 547,554 310,-29 406,-222 598,-236 192,-15 333,37 237,88 -97,52 -422,17 -577,149 -155,132 -280,213 8,272 288,59 805,23 908,-199 0,0 7,-10 13,-28l-13 28c263,153 426,777 294,1311l64 2c193,-625 -59,-1261 -254,-1535z"/>
   <path class="fil8" d="M7614 8138c-293,-278 -614,-505 -955,-694 336,226 653,458 955,694z"/>
   <g style="clip-path:url(#id3)">
    <image x="7750" y="8559" width="557" height="281" xlink:href="Illustrasi_Beljariah_login_Images\Illustrasi_Beljariah_login_ImgID1.png"/>
   </g>
   <path class="fil9" d="M8403 8005c0,0 46,185 269,181 227,-5 247,-196 247,-196l-148 -32 -12 -165 -224 16 -4 157 -128 39z"/>
   <path class="fil10" d="M9349 8470l-1 0c-43,-158 -113,-317 -233,-403 -40,-27 -107,-55 -190,-76 -2,0 -4,-1 -6,-1 -5,-1 -10,-2 -15,-3l-110 -22 -133 129 -130 -128c0,0 -136,27 -139,28l-1 0c-56,16 -109,42 -157,75 -177,122 -303,565 -284,773l236 145 -12 256 -2 90 519 261 454 -233 2 -79c36,-27 66,-58 92,-91l-212 -178 357 -179c0,0 -13,-315 -35,-364z"/>
   <g style="clip-path:url(#id4)">
    <g>
     <polygon id="1" class="fil0" points="8270,7914 8920,7938 9206,8096 7745,9884 7138,8663 "/>
     <path class="fil11" d="M9183 8383l-1053 -28c0,0 -30,1 -38,20 -8,18 -5,374 -5,374l1096 -366z"/>
    </g>
   </g>
   <path class="fil3" d="M9349 8470l-1 0c-43,-158 -113,-317 -233,-403 -40,-27 -107,-55 -190,-76 -2,0 -4,-1 -6,-1 -5,-1 -10,-2 -15,-3l-110 -22 -133 129 -130 -128c0,0 -136,27 -139,28l-1 0c-56,16 -109,42 -157,75 -177,122 -303,565 -284,773l236 145 -12 256 -2 90 519 261 454 -233 2 -79c36,-27 66,-58 92,-91l-212 -178 357 -179c0,0 -13,-315 -35,-364z"/>
   <path class="fil8" d="M8817 7957c-1,-2 -3,-4 -5,-5 -3,-2 -5,-2 -8,-1l-121 46c-2,1 -3,3 -4,5l-10 31 -3 -30c-1,-3 -3,-5 -6,-6l-164 -50c-3,-1 -5,0 -8,1 -2,2 -4,5 -4,7l-3 57c0,0 117,80 184,82 67,3 169,-81 169,-81l-17 -56z"/>
   <path class="fil12" d="M8675 7983c-18,2 -37,0 -57,-6 -104,-31 -150,-109 -165,-198 -4,-19 -5,-39 -6,-58 19,-35 20,-127 37,-163 12,-26 35,-41 77,-45 46,-4 110,-55 213,-30 20,5 66,-11 84,-13 21,-2 18,71 35,62 7,28 8,67 3,109 -16,142 -91,331 -221,342z"/>
   <path class="fil13" d="M8896 7641c14,-125 -18,-129 -78,-114 -154,35 -299,-46 -334,31 -17,36 -18,128 -37,163 1,19 2,39 6,58 -78,-63 -134,-179 -118,-304 131,-329 482,-90 615,-228 -16,101 18,340 -54,394z"/>
   <path class="fil12" d="M8506 7586c0,0 -55,-59 -64,12 -8,70 20,162 53,112 32,-50 11,-124 11,-124z"/>
   <path class="fil12" d="M8447 8828c-5,-9 -338,-138 -397,-116 -113,20 -76,170 -76,170 6,63 193,104 333,131 140,27 170,-131 140,-185z"/>
   <path class="fil14" d="M9600 9580c-114,-26 -378,-12 -378,-12l0 1c-10,-4 -20,-7 -31,-7l-44 -2 -15 177 62 4 0 1c0,0 251,45 375,45 13,0 24,-2 35,-5 3,-4 7,-7 11,-11 52,-57 37,-142 -15,-191z"/>
   <path class="fil15" d="M7645 9566c114,-22 378,0 378,0l0 1c10,-4 20,-6 31,-6l45 -1 10 177 -62 3 0 0c0,0 -252,38 -376,34 -13,-1 -24,-3 -35,-6 -3,-4 -7,-8 -10,-12 -51,-59 -34,-142 19,-190z"/>
   <path class="fil16" d="M9632 9128c-52,-120 -178,-139 -286,-83 -2,2 -684,352 -1286,505 17,55 26,114 28,172 1,13 0,26 0,38 461,-24 962,-178 1392,-313 133,-43 210,-187 152,-319z"/>
   <g style="clip-path:url(#id5)">
    <g>
     <path id="1" class="fil17" d="M9270 9697c-2,-76 24,-82 56,-147 1,-3 2,-6 3,-9 -39,-12 -74,26 -140,4 -580,-333 -870,-388 -1222,-580 -137,-75 -293,-25 -337,137 -39,145 47,268 177,312 391,130 -270,21 -143,62 343,106 1227,275 1619,301 -1,-5 -13,-75 -13,-80z"/>
    </g>
   </g>
   <path class="fil3" d="M9632 9128c-52,-120 -178,-139 -286,-83 -2,2 -684,352 -1286,505 17,55 26,114 28,172 1,13 0,26 0,38 461,-24 962,-178 1392,-313 133,-43 210,-187 152,-319z"/>
   <path class="fil16" d="M9150 9731c-2,-67 11,-129 39,-186 1,-3 1,-5 2,-8 -34,-10 -79,-25 -137,-44 -427,-147 -753,-294 -1064,-464 -121,-66 -258,-22 -297,121 -35,128 41,237 156,275 345,114 165,83 278,119 302,93 678,178 1024,201 -1,-4 -1,-9 -1,-14z"/>
   <path class="fil12" d="M8887 8828c5,-9 338,-138 397,-116 114,20 76,170 76,170 -6,63 -193,104 -333,131 -140,27 -170,-131 -140,-185z"/>
   <path class="fil18" d="M9087 7518c-3,-7 -7,-13 -11,-20 5,6 9,13 11,20z"/>
   <path class="fil19" d="M8151 8383l1032 0c21,0 39,17 39,38l0 637c0,22 -18,39 -39,39l-1032 0c-21,0 -38,-17 -38,-39l0 -637c0,-21 17,-38 38,-38zm-8 775l1048 0c17,0 31,-14 31,-30l0 0c0,-17 -14,-31 -31,-31l-1048 0c-16,0 -30,14 -30,31l0 0c0,16 14,30 30,30z"/>
   <g style="clip-path:url(#id6)">
    <g>
     <polygon id="1" class="fil20" points="8123,7965 9206,8096 7745,9884 7138,8663 "/>
    </g>
   </g>
   <path class="fil3" d="M8151 8383l1032 0c21,0 39,17 39,38l0 637c0,22 -18,39 -39,39l-1032 0c-21,0 -38,-17 -38,-39l0 -637c0,-21 17,-38 38,-38zm-8 775l1048 0c17,0 31,-14 31,-30l0 0c0,-17 -14,-31 -31,-31l-1048 0c-16,0 -30,14 -30,31l0 0c0,16 14,30 30,30z"/>
   <circle class="fil8" cx="8656" cy="8742" r="76"/>
   <path class="fil1" d="M10390 9412c57,0 104,46 104,104 0,58 -47,105 -104,105 -58,0 -105,-47 -105,-105 0,-58 47,-104 105,-104z"/>
   <path class="fil1" d="M7504 6260c58,0 104,47 104,105 0,57 -46,104 -104,104 -58,0 -105,-47 -105,-104 0,-58 47,-105 105,-105z"/>
   <path class="fil8" d="M9203 7115l721 0c50,0 90,41 90,90l0 419c0,49 -40,89 -90,89l-642 0 -172 163 4 -365 0 -306c0,-49 40,-90 89,-90z"/>
   <path class="fil21" d="M9311 7258l525 0c22,0 40,18 40,40l0 0c0,22 -18,40 -40,40l-525 0c-22,0 -40,-18 -40,-40l0 0c0,-22 18,-40 40,-40z"/>
   <path class="fil21" d="M9313 7405l521 0c23,0 42,18 42,41l0 0c0,23 -19,42 -42,42l-521 0c-23,0 -42,-19 -42,-42l0 0c0,-23 19,-41 42,-41z"/>
   <path class="fil22" d="M9762 7564l75 0c18,0 33,15 33,33l0 0c0,19 -15,34 -33,34l-75 0c-18,0 -33,-15 -33,-34l0 0c0,-18 15,-33 33,-33z"/>
   <path class="fil23" d="M9671 6052c0,104 95,104 158,104 34,0 61,0 74,16 20,24 -8,66 -125,162 -5,4 -8,8 -10,12 -1,2 -1,4 -1,6 1,3 3,7 5,10 8,9 22,18 34,24l-19 37c-16,-8 -34,-20 -47,-35 -6,-8 -11,-17 -14,-27 -2,-11 -1,-22 5,-34 4,-8 11,-17 21,-25 92,-76 121,-101 119,-104 -1,0 -19,0 -42,0 -79,-1 -200,-1 -199,-146l41 0z"/>
   <path class="fil23" d="M6771 9413c137,-150 181,-201 179,-203 0,-1 -24,8 -57,19 -48,16 -112,36 -171,36l0 0c-92,0 -172,-47 -172,-224 0,-111 0,-111 -22,-108 -42,7 -125,19 -287,-85l18 -36c151,98 226,86 265,80 61,-9 62,-9 62,149 0,145 63,183 136,183l0 0c55,0 115,-20 161,-35 45,-15 79,-25 93,-8 20,24 -24,90 -180,262l-25 -30z"/>
  </g>
 </g>
</svg>
