<?xml version="1.0" encoding="UTF-8" standalone="no"?>
<svg
   xmlns:dc="http://purl.org/dc/elements/1.1/"
   xmlns:cc="http://creativecommons.org/ns#"
   xmlns:rdf="http://www.w3.org/1999/02/22-rdf-syntax-ns#"
   xmlns:svg="http://www.w3.org/2000/svg"
   xmlns="http://www.w3.org/2000/svg"
   xmlns:xlink="http://www.w3.org/1999/xlink"
   xmlns:sodipodi="http://sodipodi.sourceforge.net/DTD/sodipodi-0.dtd"
   xmlns:inkscape="http://www.inkscape.org/namespaces/inkscape"
   xml:space="preserve"
   width="73.221291mm"
   height="66.081169mm"
   version="1.1"
   style="clip-rule:evenodd;fill-rule:evenodd;image-rendering:optimizeQuality;shape-rendering:geometricPrecision;text-rendering:geometricPrecision"
   viewBox="0 0 7321.9996 6608.0001"
   id="svg34"
   sodipodi:docname="LogoBelajariahHome.svg"
   inkscape:version="1.0.1 (3bc2e813f5, 2020-09-07)"><metadata
   id="metadata38"><rdf:RDF><cc:Work
       rdf:about=""><dc:format>image/svg+xml</dc:format><dc:type
         rdf:resource="http://purl.org/dc/dcmitype/StillImage" /></cc:Work></rdf:RDF></metadata><sodipodi:namedview
   pagecolor="#ffffff"
   bordercolor="#666666"
   borderopacity="1"
   objecttolerance="10"
   gridtolerance="10"
   guidetolerance="10"
   inkscape:pageopacity="0"
   inkscape:pageshadow="2"
   inkscape:window-width="1920"
   inkscape:window-height="1001"
   id="namedview36"
   showgrid="false"
   inkscape:zoom="0.64843881"
   inkscape:cx="-106.32887"
   inkscape:cy="63.705242"
   inkscape:window-x="-9"
   inkscape:window-y="-9"
   inkscape:window-maximized="1"
   inkscape:current-layer="svg34"
   inkscape:document-rotation="0" />
 <defs
   id="defs12">
  <style
   type="text/css"
   id="style2">
   <![CDATA[
    .fil2 {fill:#FEFEFE}
    .fil5 {fill:#542F91}
    .fil0 {fill:white}
    .fil1 {fill:#FEFEFE;fill-opacity:0.211765}
    .fil4 {fill:url(#id0);fill-opacity:0.211765}
    .fil3 {fill:url(#id1);fill-opacity:0.211765}
   ]]>
  </style>
  <linearGradient
   id="id0"
   gradientUnits="userSpaceOnUse"
   x1="7779.1699"
   y1="6262.71"
   x2="8854.9697"
   y2="9400.4297">
   <stop
   offset="0"
   style="stop-opacity:1; stop-color:#735AAB"
   id="stop4" />
   <stop
   offset="0.509804"
   style="stop-opacity:1; stop-color:#64459E"
   id="stop6" />
   <stop
   offset="1"
   style="stop-opacity:1; stop-color:#542F91"
   id="stop8" />
  </linearGradient>
  <linearGradient
   id="id1"
   gradientUnits="userSpaceOnUse"
   xlink:href="#id0"
   x1="9407.1201"
   y1="8010.8101"
   x2="9879.0195"
   y2="9387.1904">
  </linearGradient>
 <linearGradient
   inkscape:collect="always"
   xlink:href="#id0"
   id="linearGradient50"
   gradientUnits="userSpaceOnUse"
   x1="7779.1699"
   y1="6262.71"
   x2="8854.9697"
   y2="9400.4297" /></defs>
 <g
   id="Layer_x0020_1"
   transform="translate(-5926,-4653)">
  <metadata
   id="CorelCorpID_0Corel-Layer" />
  <path
   class="fil0"
   d="M 9944,4653 H 5926 v 6608 h 4018 c 1818,0 3304,-1486 3304,-3304 v 0 c 0,-1817 -1486,-3304 -3304,-3304 z"
   id="path15" />
  <path
   class="fil1"
   d="m 9455,8037 v 0 c 523,-125 776,205 753,511 -21,284 -405,744 -1164,771 -66,3 -129,0 -189,-8 133,75 298,110 479,103 776,-31 1113,-625 1096,-888 -25,-388 -443,-664 -975,-489 z"
   id="path17" />
  <path
   class="fil1"
   d="m 8672,5837 c 690,579 -10,1362 -829,2390 -533,669 -211,1340 501,1599 C 7836,9466 7668,8820 8130,8176 8967,7010 9432,6231 8672,5837 Z"
   id="path19" />
  <path
   class="fil2"
   d="m 8752,5824 c 759,394 295,1173 -542,2339 -837,1165 391,2338 1958,1805 1051,-357 1022,-1512 536,-1962 -304,-281 -810,-358 -1228,-21 572,-188 1022,108 1049,526 19,283 -344,922 -1179,955 -885,36 -1404,-881 13,-2340 618,-637 507,-1410 -607,-1302 z"
   id="path21" />
  <polygon
   class="fil2"
   points="10927,9723 11194,9794 11126,10066 10822,10012 "
   id="polygon23" />
  <path
   class="fil3"
   d="m 9455,8037 v 0 c 523,-125 776,205 753,511 -21,284 -405,744 -1164,771 -66,3 -129,0 -189,-8 133,75 298,110 479,103 776,-31 1113,-625 1096,-888 -25,-388 -443,-664 -975,-489 z"
   id="path25"
   style="fill:url(#id1)" />
  <path
   class="fil4"
   d="m 8672,5837 c 690,579 -10,1362 -829,2390 -533,669 -211,1340 501,1599 C 7836,9466 7668,8820 8130,8176 8967,7010 9432,6231 8672,5837 Z"
   id="path27"
   style="fill:url(#linearGradient50)" />
  <path
   class="fil5"
   d="m 8752,5824 c 759,394 295,1173 -542,2339 -837,1165 391,2338 1958,1805 1051,-357 1022,-1512 536,-1962 -304,-281 -810,-358 -1228,-21 572,-188 1022,108 1049,526 19,283 -344,922 -1179,955 -885,36 -1404,-881 13,-2340 618,-637 507,-1410 -607,-1302 z"
   id="path29" />
  <polygon
   class="fil5"
   points="10927,9723 11194,9794 11126,10066 10822,10012 "
   id="polygon31" />
 </g>
</svg>
