<svg xmlns="http://www.w3.org/2000/svg" xml:space="preserve" width="48.592" height="43.901" version="1.1" style="clip-rule:evenodd;fill-rule:evenodd;image-rendering:optimizeQuality;shape-rendering:geometricPrecision;text-rendering:geometricPrecision" viewBox="0 0 1285.635 1161.517" id="svg26"><defs id="defs4"><style type="text/css" id="style2">.fil1,.fil2{fill:#fff}.fil1{fill-opacity:.211765}</style></defs><g id="Layer_x0020_1" transform="matrix(1.8525 0 0 1.8525 -10618.529 -12343.207)"><path d="M6113 6663h-381v627h381c172 0 313-141 313-313 0-173-141-314-313-314z" id="path7" style="fill:#6e248d"/><path class="fil1" d="M6067 6984c49-12 73 20 71 49-2 27-38 70-110 73-7 0-13 0-18-1 12 7 28 10 45 10 74-3 106-60 104-85-2-36-42-63-92-46z" id="path9"/><path class="fil1" d="M5992 6776c66 54-1 129-78 226-51 64-20 127 47 152-48-34-64-96-20-157 79-110 123-184 51-221z" id="path11"/><path class="fil2" d="M6000 6774c72 38 28 112-51 222-80 111 37 222 185 171 100-34 97-143 51-186-29-26-77-34-116-2 54-18 96 10 99 50 2 27-33 87-112 91-84 3-133-84 1-222 59-61 49-134-57-124z" id="path13"/><path class="fil2" id="polygon15" d="m6231 7151-6 25-29-5 10-27z"/><path class="fil1" d="M6067 6984c49-12 73 20 71 49-2 27-38 70-110 73-7 0-13 0-18-1 12 7 28 10 45 10 74-3 106-60 104-85-2-36-42-63-92-46z" id="path17"/><path class="fil1" d="M5992 6776c66 54-1 129-78 226-51 64-20 127 47 152-48-34-64-96-20-157 79-110 123-184 51-221z" id="path19"/><path class="fil2" d="M6000 6774c72 38 28 112-51 222-80 111 37 222 185 171 100-34 97-143 51-186-29-26-77-34-116-2 54-18 96 10 99 50 2 27-33 87-112 91-84 3-133-84 1-222 59-61 49-134-57-124z" id="path21"/><path class="fil2" id="polygon23" d="m6231 7151-6 25-29-5 10-27z"/></g></svg>