<svg xmlns="http://www.w3.org/2000/svg" xml:space="preserve" width="306.299" height="363.087" version="1.1" style="clip-rule:evenodd;fill-rule:evenodd;image-rendering:optimizeQuality;shape-rendering:geometricPrecision;text-rendering:geometricPrecision" viewBox="0 0 8104.027 9606.499" id="svg24"><defs id="defs4"><style type="text/css" id="style2">.fil0,.fil1{fill:#fff}.fil0{fill-opacity:.211765}</style></defs><g id="Layer_x0020_1" transform="translate(-4798.973 -3213.362)"><path class="fil0" d="M9007 8195c1171-279 1739 460 1688 1146-47 637-908 1666-2610 1728-146 5-288-1-422-18 297 167 666 247 1073 231 1739-71 2495-1400 2456-1990-57-871-993-1489-2185-1097z" id="path7"/><path class="fil0" d="M7253 3266c1545 1298-25 3052-1860 5356-1193 1499-472 3003 1123 3583-1138-806-1515-2254-478-3698 1876-2612 2916-4359 1215-5241z" id="path9"/><path class="fil1" d="M7431 3236c1701 883 661 2629-1215 5241-1876 2613 876 5241 4388 4046 2356-801 2292-3389 1202-4397-681-629-1817-802-2752-47 1282-422 2289 243 2351 1180 41 634-771 2064-2643 2140-1984 80-3147-1975 28-5245 1386-1428 1138-3159-1359-2918z" id="path11"/><path class="fil1" id="polygon13" d="m12751 12742-681-119 234-648 599 158z"/><path class="fil0" d="M9007 8195c1171-279 1739 460 1688 1146-47 637-908 1666-2610 1728-146 5-288-1-422-18 297 167 666 247 1073 231 1739-71 2495-1400 2456-1990-57-871-993-1489-2185-1097z" id="path15"/><path class="fil0" d="M7253 3266c1545 1298-25 3052-1860 5356-1193 1499-472 3003 1123 3583-1138-806-1515-2254-478-3698 1876-2612 2916-4359 1215-5241z" id="path17"/><path class="fil1" d="M7431 3236c1701 883 661 2629-1215 5241-1876 2613 876 5241 4388 4046 2356-801 2292-3389 1202-4397-681-629-1817-802-2752-47 1282-422 2289 243 2351 1180 41 634-771 2064-2643 2140-1984 80-3147-1975 28-5245 1386-1428 1138-3159-1359-2918z" id="path19"/><path class="fil1" id="polygon21" d="m12751 12742-681-119 234-648 599 158z"/></g></svg>