<?xml version="1.0" encoding="UTF-8"?>
<!DOCTYPE svg PUBLIC "-//W3C//DTD SVG 1.0//EN" "http://www.w3.org/TR/2001/REC-SVG-20010904/DTD/svg10.dtd">
<!-- Creator: CorelDRAW X7 -->
<svg xmlns="http://www.w3.org/2000/svg" xml:space="preserve" width="12.1918mm" height="11.0066mm" version="1.0" style="shape-rendering:geometricPrecision; text-rendering:geometricPrecision; image-rendering:optimizeQuality; fill-rule:evenodd; clip-rule:evenodd"
viewBox="0 0 1219 1101"
 xmlns:xlink="http://www.w3.org/1999/xlink">
 <defs>
  <style type="text/css">
   <![CDATA[
    .fil6 {fill:none}
    .fil2 {fill:#FEFEFE}
    .fil5 {fill:#542F91}
    .fil0 {fill:white}
    .fil1 {fill:#FEFEFE;fill-opacity:0.211765}
    .fil4 {fill:url(#id1);fill-opacity:0.211765}
    .fil3 {fill:url(#id2);fill-opacity:0.211765}
   ]]>
  </style>
   <clipPath id="id0">
    <path d="M669 0l-669 0 0 1100 669 0c303,0 550,-247 550,-550l0 0c0,-302 -247,-550 -550,-550z"/>
   </clipPath>
  <linearGradient id="id1" gradientUnits="userSpaceOnUse" x1="308.6" y1="268.23" x2="487.72" y2="790.63">
   <stop offset="0" style="stop-opacity:1; stop-color:#735AAB"/>
   <stop offset="0.509804" style="stop-opacity:1; stop-color:#64459E"/>
   <stop offset="1" style="stop-opacity:1; stop-color:#542F91"/>
  </linearGradient>
  <linearGradient id="id2" gradientUnits="userSpaceOnUse" xlink:href="#id1" x1="579.64" y1="559.27" x2="658.22" y2="788.43">
  </linearGradient>
 </defs>
 <g id="Layer_x0020_1">
  <metadata id="CorelCorpID_0Corel-Layer"/>
  <path class="fil0" d="M669 0l-669 0 0 1100 669 0c303,0 550,-247 550,-550l0 0c0,-302 -247,-550 -550,-550z"/>
  <g style="clip-path:url(#id0)">
   <g id="_304995922144">
    <path id="1" class="fil1" d="M588 564l0 0c87,-21 129,34 125,85 -3,47 -67,124 -194,128 -11,1 -21,0 -31,-1 22,12 49,18 79,17 130,-5 186,-104 183,-148 -4,-65 -74,-111 -162,-81z"/>
    <path class="fil1" d="M457 197c115,97 -1,227 -138,398 -88,112 -35,223 84,266 -85,-59 -113,-167 -36,-274 139,-194 217,-324 90,-390z"/>
    <path class="fil2" d="M471 195c126,66 49,195 -91,390 -139,194 65,389 326,300 175,-59 171,-252 90,-327 -51,-46 -135,-59 -205,-3 95,-31 170,18 175,88 3,47 -57,153 -197,159 -147,6 -233,-147 3,-390 103,-106 84,-235 -101,-217z"/>
    <polygon class="fil2" points="833,844 877,856 866,901 815,893 "/>
    <path class="fil3" d="M588 564l0 0c87,-21 129,34 125,85 -3,47 -67,124 -194,128 -11,1 -21,0 -31,-1 22,12 49,18 79,17 130,-5 186,-104 183,-148 -4,-65 -74,-111 -162,-81z"/>
    <path class="fil4" d="M457 197c115,97 -1,227 -138,398 -88,112 -35,223 84,266 -85,-59 -113,-167 -36,-274 139,-194 217,-324 90,-390z"/>
    <path class="fil5" d="M471 195c126,66 49,195 -91,390 -139,194 65,389 326,300 175,-59 171,-252 90,-327 -51,-46 -135,-59 -205,-3 95,-31 170,18 175,88 3,47 -57,153 -197,159 -147,6 -233,-147 3,-390 103,-106 84,-235 -101,-217z"/>
    <polygon class="fil5" points="833,844 877,856 866,901 815,893 "/>
   </g>
  </g>
  <path class="fil6" d="M669 0l-669 0 0 1100 669 0c303,0 550,-247 550,-550l0 0c0,-302 -247,-550 -550,-550z"/>
 </g>
</svg>
