<svg xmlns="http://www.w3.org/2000/svg" xml:space="preserve" width="46.079" height="41.6" version="1.0" style="shape-rendering:geometricPrecision;text-rendering:geometricPrecision;image-rendering:optimizeQuality;fill-rule:evenodd;clip-rule:evenodd" viewBox="0 0 1219 1101" xmlns:xlink="http://www.w3.org/1999/xlink"><defs><linearGradient id="id1" gradientUnits="userSpaceOnUse" x1="308.6" y1="268.23" x2="487.72" y2="790.63"><stop offset="0" style="stop-opacity:1;stop-color:#735aab"/><stop offset=".51" style="stop-opacity:1;stop-color:#64459e"/><stop offset="1" style="stop-opacity:1;stop-color:#542f91"/></linearGradient><linearGradient id="id2" gradientUnits="userSpaceOnUse" xlink:href="#id1" x1="579.64" y1="559.27" x2="658.22" y2="788.43"/><clipPath id="id0"><path d="M669 0H0v1100h669c303 0 550-247 550-550C1219 248 972 0 669 0z"/></clipPath><style>.fil2{fill:#fefefe}.fil5{fill:#542f91}.fil1{fill:#fefefe;fill-opacity:.211765}</style></defs><g id="Layer_x0020_1"><path d="M669 0H0v1100h669c303 0 550-247 550-550C1219 248 972 0 669 0z" style="fill:#fff"/><g style="clip-path:url(#id0)"><g id="_304995922144"><path id="1" class="fil1" d="M588 564c87-21 129 34 125 85-3 47-67 124-194 128-11 1-21 0-31-1 22 12 49 18 79 17 130-5 186-104 183-148-4-65-74-111-162-81z"/><path class="fil1" d="M457 197c115 97-1 227-138 398-88 112-35 223 84 266-85-59-113-167-36-274 139-194 217-324 90-390z"/><path class="fil2" d="M471 195c126 66 49 195-91 390-139 194 65 389 326 300 175-59 171-252 90-327-51-46-135-59-205-3 95-31 170 18 175 88 3 47-57 153-197 159-147 6-233-147 3-390 103-106 84-235-101-217zM833 844l44 12-11 45-51-8z"/><path d="M588 564c87-21 129 34 125 85-3 47-67 124-194 128-11 1-21 0-31-1 22 12 49 18 79 17 130-5 186-104 183-148-4-65-74-111-162-81z" style="fill:url(#id2);fill-opacity:.211765"/><path d="M457 197c115 97-1 227-138 398-88 112-35 223 84 266-85-59-113-167-36-274 139-194 217-324 90-390z" style="fill:url(#id1);fill-opacity:.211765"/><path class="fil5" d="M471 195c126 66 49 195-91 390-139 194 65 389 326 300 175-59 171-252 90-327-51-46-135-59-205-3 95-31 170 18 175 88 3 47-57 153-197 159-147 6-233-147 3-390 103-106 84-235-101-217zM833 844l44 12-11 45-51-8z"/></g></g><path d="M669 0H0v1100h669c303 0 550-247 550-550C1219 248 972 0 669 0z" style="fill:none"/></g></svg>