<?xml version="1.0" encoding="UTF-8" standalone="no"?>
<svg
   xmlns:dc="http://purl.org/dc/elements/1.1/"
   xmlns:cc="http://creativecommons.org/ns#"
   xmlns:rdf="http://www.w3.org/1999/02/22-rdf-syntax-ns#"
   xmlns:svg="http://www.w3.org/2000/svg"
   xmlns="http://www.w3.org/2000/svg"
   xmlns:sodipodi="http://sodipodi.sourceforge.net/DTD/sodipodi-0.dtd"
   xmlns:inkscape="http://www.inkscape.org/namespaces/inkscape"
   width="47.996094pt"
   height="47.996094pt"
   viewBox="0 0 47.996094 47.996094"
   version="1.1"
   id="svg7"
   sodipodi:docname="profileProfileIcon.svg"
   inkscape:version="1.0.1 (3bc2e813f5, 2020-09-07)">
  <metadata
     id="metadata13">
    <rdf:RDF>
      <cc:Work
         rdf:about="">
        <dc:format>image/svg+xml</dc:format>
        <dc:type
           rdf:resource="http://purl.org/dc/dcmitype/StillImage" />
      </cc:Work>
    </rdf:RDF>
  </metadata>
  <defs
     id="defs11" />
  <sodipodi:namedview
     pagecolor="#ffffff"
     bordercolor="#666666"
     borderopacity="1"
     objecttolerance="10"
     gridtolerance="10"
     guidetolerance="10"
     inkscape:pageopacity="0"
     inkscape:pageshadow="2"
     inkscape:window-width="810"
     inkscape:window-height="480"
     id="namedview9"
     showgrid="false"
     inkscape:zoom="12.96875"
     inkscape:cx="32"
     inkscape:cy="32"
     inkscape:window-x="0"
     inkscape:window-y="0"
     inkscape:window-maximized="0"
     inkscape:current-layer="svg7" />
  <g
     id="surface1">
    <path
       style="fill:#9c57b8;fill-opacity:1;fill-rule:evenodd;stroke:none"
       d="M 47.996094,24 C 47.996094,37.253906 37.253906,47.996094 24,47.996094 10.746094,47.996094 0,37.253906 0,24 0,10.746094 10.746094,0 24,0 37.253906,0 47.996094,10.746094 47.996094,24 Z m 0,0"
       id="path2" />
    <path
       style="fill:#ffffff;fill-opacity:1;fill-rule:nonzero;stroke:none"
       d="m 24,11.964844 c 2.011719,0 3.839844,0.820312 5.167969,2.144531 1.320312,1.320313 2.136719,3.148437 2.136719,5.167969 0,2.011718 -0.816407,3.839844 -2.136719,5.160156 -1.328125,1.324219 -3.15625,2.144531 -5.167969,2.144531 -2.015625,0 -3.84375,-0.820312 -5.167969,-2.144531 -1.324219,-1.320312 -2.136719,-3.148438 -2.136719,-5.160156 0,-2.019532 0.8125,-3.847656 2.136719,-5.167969 C 20.15625,12.785156 21.984375,11.964844 24,11.964844 Z m 4.933594,14.707031 c -0.21875,-0.101563 -0.308594,-0.363281 -0.207032,-0.582031 0.105469,-0.21875 0.371094,-0.3125 0.585938,-0.207032 1.113281,0.53125 2.171875,1.230469 3.175781,2.0625 1.007813,0.847657 1.953125,1.839844 2.828125,2.964844 0.316406,0.398438 0.527344,0.910156 0.625,1.457032 0.08984,0.535156 0.07422,1.117187 -0.05859,1.679687 -0.140624,0.578125 -0.386718,1.058594 -0.707031,1.398437 -0.347656,0.375 -0.785156,0.582032 -1.261719,0.582032 H 14.082031 c -0.476562,0 -0.910156,-0.207032 -1.261719,-0.582032 -0.316406,-0.339843 -0.566406,-0.820312 -0.707031,-1.398437 -0.132812,-0.5625 -0.148437,-1.144531 -0.05469,-1.679687 0.09375,-0.546876 0.308594,-1.058594 0.621094,-1.457032 0.875,-1.125 1.824218,-2.117187 2.832031,-2.964844 0.996093,-0.832031 2.054687,-1.527343 3.160156,-2.058593 0.222656,-0.105469 0.484375,-0.01563 0.589844,0.203125 0.105469,0.222656 0.0078,0.480468 -0.207031,0.585937 -1.039063,0.5 -2.035157,1.15625 -2.984376,1.945313 -0.960937,0.808594 -1.867187,1.753906 -2.695312,2.824218 -0.222656,0.289063 -0.375,0.664063 -0.445312,1.074219 -0.07813,0.421875 -0.06641,0.882813 0.03906,1.324219 0.101562,0.425781 0.273438,0.765625 0.492188,0.996094 0.179687,0.199218 0.398437,0.304687 0.621093,0.304687 h 19.832031 c 0.222657,0 0.441407,-0.105469 0.625,-0.304687 0.214844,-0.230469 0.386719,-0.570313 0.488282,-0.996094 0.109375,-0.441406 0.117187,-0.902344 0.04297,-1.324219 C 35,32.109375 34.847656,31.734375 34.625,31.445312 33.792969,30.375 32.886719,29.429688 31.921875,28.621094 30.972656,27.824219 29.976562,27.171875 28.933594,26.671875 Z M 28.539062,14.730469 C 27.378906,13.570312 25.777344,12.851562 24,12.851562 c -1.773438,0 -3.382812,0.71875 -4.542969,1.878907 -1.164062,1.164062 -1.882812,2.769531 -1.882812,4.546875 0,1.769531 0.71875,3.378906 1.882812,4.539062 1.160157,1.164063 2.769531,1.882813 4.542969,1.882813 1.777344,0 3.378906,-0.71875 4.539062,-1.882813 1.164063,-1.160156 1.882813,-2.769531 1.882813,-4.539062 0,-1.777344 -0.71875,-3.382813 -1.882813,-4.546875 z m 0,0"
       id="path4" />
  </g>
</svg>
