<svg xmlns="http://www.w3.org/2000/svg" width="63.995" height="63.995" viewBox="0 0 47.996 47.996"><path style="fill:#9c57b8;fill-opacity:1;fill-rule:evenodd;stroke:none" d="M47.996 24c0 13.254-10.742 23.996-23.996 23.996C10.746 47.996 0 37.254 0 24 0 10.746 10.746 0 24 0s23.996 10.746 23.996 24zm0 0"/><path style="fill:#fff;fill-opacity:1;fill-rule:nonzero;stroke:none" d="M24 11.965c2.012 0 3.84.82 5.168 2.144a7.286 7.286 0 0 1 2.137 5.168 7.28 7.28 0 0 1-2.137 5.16A7.304 7.304 0 0 1 24 26.582a7.29 7.29 0 0 1-5.168-2.145 7.265 7.265 0 0 1-2.137-5.16 7.27 7.27 0 0 1 2.137-5.168A7.29 7.29 0 0 1 24 11.965zm4.934 14.707a.437.437 0 1 1 .378-.79c1.114.532 2.172 1.231 3.176 2.063a19.51 19.51 0 0 1 2.828 2.965c.317.399.528.91.625 1.457a4.29 4.29 0 0 1-.058 1.68c-.14.578-.387 1.058-.707 1.398-.348.375-.785.582-1.262.582H14.082c-.477 0-.91-.207-1.262-.582-.316-.34-.566-.82-.707-1.398a4.215 4.215 0 0 1-.054-1.68 3.27 3.27 0 0 1 .62-1.457 19.53 19.53 0 0 1 2.833-2.965 15.266 15.266 0 0 1 3.16-2.058.441.441 0 0 1 .59.203.441.441 0 0 1-.207.586c-1.04.5-2.035 1.156-2.985 1.945a18.401 18.401 0 0 0-2.695 2.824c-.223.29-.375.664-.445 1.075-.078.421-.067.882.039 1.324.101.426.273.765.492.996.18.2.398.305.621.305h19.832c.223 0 .441-.106.625-.305.215-.23.387-.57.488-.996.11-.442.118-.903.043-1.324a2.441 2.441 0 0 0-.445-1.075 18.443 18.443 0 0 0-2.703-2.824 14.202 14.202 0 0 0-2.988-1.95zm-.395-11.942A6.393 6.393 0 0 0 24 12.852a6.41 6.41 0 0 0-4.543 1.878 6.406 6.406 0 0 0-1.883 4.547c0 1.77.719 3.38 1.883 4.54A6.397 6.397 0 0 0 24 25.698a6.38 6.38 0 0 0 4.54-1.883 6.394 6.394 0 0 0 1.882-4.539 6.406 6.406 0 0 0-1.883-4.547zm0 0"/></svg>