<svg xmlns="http://www.w3.org/2000/svg" width="40" height="40" viewBox="0 0 30 30"><path style="stroke:none;fill-rule:nonzero;fill:#fff;fill-opacity:1" d="M29.168 25.375a2.677 2.677 0 0 1 0 3.79 2.672 2.672 0 0 1-3.793 0l-10.398-10.4-10.399 10.4a2.68 2.68 0 0 1-1.898.788 2.656 2.656 0 0 1-1.89-.789 2.665 2.665 0 0 1 0-3.789l10.394-10.402L.789 4.578A2.68 2.68 0 0 1 0 2.68C0 1.992.266 1.305.79.785a2.686 2.686 0 0 1 3.792 0L14.977 11.18 25.37.785a2.686 2.686 0 0 1 3.793 0c.523.52.785 1.211.785 1.895 0 .687-.262 1.375-.785 1.898L18.766 14.973zm0 0"/></svg>