<svg xmlns="http://www.w3.org/2000/svg" width="40" height="23pt" viewBox="0 0 30 23"><path style="stroke:none;fill-rule:nonzero;fill:#fff;fill-opacity:1" d="M2.957 4.152a.522.522 0 0 1 .04-.718.497.497 0 0 1 .706.043C5.61 5.664 7.457 7.71 9.332 9.19c1.836 1.45 3.703 2.371 5.7 2.368 1.988-.008 3.917-.907 5.808-2.313 1.933-1.441 3.832-3.414 5.71-5.527a.492.492 0 0 1 .704-.031.51.51 0 0 1 .031.714c-1.906 2.149-3.848 4.164-5.86 5.664-2.054 1.524-4.167 2.496-6.394 2.504-2.242.004-4.308-.996-6.304-2.574-1.95-1.539-3.832-3.625-5.77-5.844zM4.07 0h21.805c1.113 0 2.137.465 2.871 1.223.742.75 1.2 1.793 1.2 2.93v14.66c0 1.144-.458 2.18-1.192 2.933l-.008.004a4.01 4.01 0 0 1-2.871 1.219H4.07A4.01 4.01 0 0 1 1.2 21.75v-.004A4.166 4.166 0 0 1 0 18.813V4.152c0-1.137.457-2.18 1.2-2.93A4.028 4.028 0 0 1 4.07 0zm21.805 1.016H4.07a3.05 3.05 0 0 0-2.172.921v.004a3.16 3.16 0 0 0-.902 2.211v14.66c0 .864.348 1.649.902 2.22a3.05 3.05 0 0 0 2.172.921h21.805a3.05 3.05 0 0 0 2.172-.922 3.18 3.18 0 0 0 .902-2.218V4.152a3.16 3.16 0 0 0-.902-2.212v-.004a3.05 3.05 0 0 0-2.172-.921zm0 0"/></svg>