<?xml version="1.0" encoding="UTF-8"?>
<svg xmlns="http://www.w3.org/2000/svg" xmlns:xlink="http://www.w3.org/1999/xlink" width="400pt" height="1040pt" viewBox="0 0 400 1040" version="1.1">
<defs>
<clipPath id="clip1">
  <path d="M 0 0 L 374.359375 0 C 389.144531 0 401.210938 12.0625 401.210938 26.851562 L 401.210938 1014.410156 C 401.210938 1029.195312 389.144531 1041.261719 374.359375 1041.261719 L 0 1041.261719 Z M 0 0 "/>
</clipPath>
<linearGradient id="linear0" gradientUnits="userSpaceOnUse" x1="8116.748" y1="-9274.9932" x2="12691.547" y2="-16681.844" gradientTransform="matrix(0.09056,0,0,-0.09056,-743.1584,-656.648)">
<stop offset="0" style="stop-color:rgb(58.823529%,32.156863%,69.803922%);stop-opacity:1;"/>
<stop offset="1" style="stop-color:rgb(37.647059%,13.72549%,47.843137%);stop-opacity:1;"/>
</linearGradient>
<clipPath id="clip2">
  <path d="M 0 457 L 10 457 L 10 472 L 0 472 Z M 0 457 "/>
</clipPath>
<clipPath id="clip3">
  <path d="M 0 0 L 374.359375 0 C 389.144531 0 401.210938 12.0625 401.210938 26.851562 L 401.210938 1014.410156 C 401.210938 1029.195312 389.144531 1041.261719 374.359375 1041.261719 L 0 1041.261719 Z M 0 0 "/>
</clipPath>
<clipPath id="clip4">
  <path d="M 0 310 L 53 310 L 53 435 L 0 435 Z M 0 310 "/>
</clipPath>
<clipPath id="clip5">
  <path d="M 0 0 L 374.359375 0 C 389.144531 0 401.210938 12.0625 401.210938 26.851562 L 401.210938 1014.410156 C 401.210938 1029.195312 389.144531 1041.261719 374.359375 1041.261719 L 0 1041.261719 Z M 0 0 "/>
</clipPath>
<clipPath id="clip6">
  <path d="M 272 455 L 398 455 L 398 514 L 272 514 Z M 272 455 "/>
</clipPath>
<clipPath id="clip7">
  <path d="M 0 0 L 374.359375 0 C 389.144531 0 401.210938 12.0625 401.210938 26.851562 L 401.210938 1014.410156 C 401.210938 1029.195312 389.144531 1041.261719 374.359375 1041.261719 L 0 1041.261719 Z M 0 0 "/>
</clipPath>
<clipPath id="clip8">
  <path d="M 329 457 L 400 457 L 400 547 L 329 547 Z M 329 457 "/>
</clipPath>
<clipPath id="clip9">
  <path d="M 0 0 L 374.359375 0 C 389.144531 0 401.210938 12.0625 401.210938 26.851562 L 401.210938 1014.410156 C 401.210938 1029.195312 389.144531 1041.261719 374.359375 1041.261719 L 0 1041.261719 Z M 0 0 "/>
</clipPath>
<clipPath id="clip10">
  <path d="M 280 63 L 400 63 L 400 188 L 280 188 Z M 280 63 "/>
</clipPath>
<clipPath id="clip11">
  <path d="M 0 0 L 374.359375 0 C 389.144531 0 401.210938 12.0625 401.210938 26.851562 L 401.210938 1014.410156 C 401.210938 1029.195312 389.144531 1041.261719 374.359375 1041.261719 L 0 1041.261719 Z M 0 0 "/>
</clipPath>
<clipPath id="clip12">
  <path d="M 130 825 L 156 825 L 156 851 L 130 851 Z M 130 825 "/>
</clipPath>
<clipPath id="clip13">
  <path d="M 0 0 L 374.359375 0 C 389.144531 0 401.210938 12.0625 401.210938 26.851562 L 401.210938 1014.410156 C 401.210938 1029.195312 389.144531 1041.261719 374.359375 1041.261719 L 0 1041.261719 Z M 0 0 "/>
</clipPath>
<clipPath id="clip14">
  <path d="M 388 272 L 400 272 L 400 297 L 388 297 Z M 388 272 "/>
</clipPath>
<clipPath id="clip15">
  <path d="M 0 0 L 374.359375 0 C 389.144531 0 401.210938 12.0625 401.210938 26.851562 L 401.210938 1014.410156 C 401.210938 1029.195312 389.144531 1041.261719 374.359375 1041.261719 L 0 1041.261719 Z M 0 0 "/>
</clipPath>
</defs>
<g id="surface1">
<g clip-path="url(#clip1)" clip-rule="nonzero">
<rect x="0" y="0" width="400" height="1040" style="fill:url(#linear0);stroke:none;"/>
</g>
<g clip-path="url(#clip2)" clip-rule="nonzero">
<g clip-path="url(#clip3)" clip-rule="nonzero">
<path style=" stroke:none;fill-rule:nonzero;fill:rgb(100%,100%,100%);fill-opacity:0.4;" d="M 2.722656 457.175781 C 6.625 457.175781 9.707031 460.351562 9.707031 464.164062 C 9.707031 468.066406 6.625 471.242188 2.722656 471.242188 C -1.175781 471.242188 -4.351562 468.066406 -4.351562 464.164062 C -4.351562 460.351562 -1.175781 457.175781 2.722656 457.175781 Z M 2.722656 457.175781 "/>
</g>
</g>
<g clip-path="url(#clip4)" clip-rule="nonzero">
<g clip-path="url(#clip5)" clip-rule="nonzero">
<path style=" stroke:none;fill-rule:nonzero;fill:rgb(86.27451%,77.647059%,87.843137%);fill-opacity:0.2;" d="M -66.128906 408.289062 C -79.101562 431.78125 -156.65625 449.378906 -211.445312 415.179688 C -222.152344 408.46875 -229.585938 401.027344 -229.585938 392.957031 C -229.585938 368.917969 -187.496094 349.234375 -134.792969 348.328125 C -130.078125 327.011719 -104.316406 310.679688 -73.203125 310.679688 C -39.003906 310.679688 -11.246094 330.457031 -10.882812 354.949219 C 27.210938 362.839844 52.523438 376.898438 52.523438 392.957031 C 52.523438 434.59375 -53.246094 422.34375 -66.128906 408.289062 Z M -66.128906 408.289062 "/>
</g>
</g>
<g clip-path="url(#clip6)" clip-rule="nonzero">
<g clip-path="url(#clip7)" clip-rule="nonzero">
<path style=" stroke:none;fill-rule:nonzero;fill:rgb(86.27451%,77.647059%,87.843137%);fill-opacity:0.2;" d="M 330.820312 511.878906 C 316.488281 515.324219 296.714844 514.601562 281.019531 504.804688 C 276.027344 501.628906 272.582031 498.183594 272.582031 494.464844 C 272.582031 483.125 292.265625 473.960938 316.9375 473.507812 C 319.207031 463.53125 331.269531 455.820312 345.785156 455.820312 C 361.84375 455.820312 374.90625 465.164062 374.996094 476.59375 C 384.425781 478.589844 392.230469 481.3125 397.488281 484.664062 C 363.566406 485.480469 335.902344 497 330.820312 511.878906 Z M 330.820312 511.878906 "/>
</g>
</g>
<g clip-path="url(#clip8)" clip-rule="nonzero">
<g clip-path="url(#clip9)" clip-rule="nonzero">
<path style=" stroke:none;fill-rule:nonzero;fill:rgb(67.058824%,41.176471%,77.647059%);fill-opacity:0.2;" d="M 448.019531 527.9375 C 438.675781 544.898438 382.617188 557.691406 343.066406 532.925781 C 335.265625 528.027344 329.914062 522.675781 329.914062 516.867188 C 329.914062 499.453125 360.390625 485.300781 398.492188 484.574219 C 401.847656 469.15625 420.441406 457.359375 442.941406 457.359375 C 467.707031 457.359375 487.75 471.691406 487.9375 489.382812 C 515.511719 495.097656 533.832031 505.257812 533.832031 516.867188 C 533.832031 546.980469 457.359375 538.09375 448.019531 527.9375 Z M 448.019531 527.9375 "/>
</g>
</g>
<g clip-path="url(#clip10)" clip-rule="nonzero">
<g clip-path="url(#clip11)" clip-rule="nonzero">
<path style=" stroke:none;fill-rule:nonzero;fill:rgb(86.27451%,77.647059%,87.843137%);fill-opacity:0.101961;" d="M 443.664062 161.28125 C 430.691406 184.773438 353.136719 202.375 298.347656 168.171875 C 287.640625 161.460938 280.292969 154.023438 280.292969 145.953125 C 280.292969 121.914062 322.382812 102.320312 375.089844 101.320312 C 379.804688 80.007812 405.566406 63.675781 436.589844 63.675781 C 470.878906 63.675781 498.636719 83.542969 498.910156 108.03125 C 537.003906 115.832031 562.40625 129.894531 562.40625 145.953125 C 562.402344 187.585938 456.542969 175.34375 443.664062 161.28125 Z M 443.664062 161.28125 "/>
</g>
</g>
<g clip-path="url(#clip12)" clip-rule="nonzero">
<g clip-path="url(#clip13)" clip-rule="nonzero">
<path style=" stroke:none;fill-rule:nonzero;fill:rgb(100%,100%,100%);fill-opacity:0.2;" d="M 142.960938 825.554688 C 149.671875 825.554688 155.207031 831.089844 155.207031 837.796875 C 155.207031 844.605469 149.671875 850.046875 142.960938 850.046875 C 136.15625 850.046875 130.625 844.605469 130.625 837.796875 C 130.625 831.085938 136.15625 825.554688 142.960938 825.554688 Z M 142.960938 825.554688 "/>
</g>
</g>
<g clip-path="url(#clip14)" clip-rule="nonzero">
<g clip-path="url(#clip15)" clip-rule="nonzero">
<path style=" stroke:none;fill-rule:nonzero;fill:rgb(100%,100%,100%);fill-opacity:0.4;" d="M 401.210938 272.222656 C 408.015625 272.222656 413.457031 277.660156 413.457031 284.464844 C 413.457031 291.265625 408.015625 296.710938 401.210938 296.710938 C 394.410156 296.710938 388.964844 291.265625 388.964844 284.464844 C 388.964844 277.660156 394.410156 272.222656 401.210938 272.222656 Z M 401.210938 272.222656 "/>
</g>
</g>
</g>
</svg>
