<svg xmlns="http://www.w3.org/2000/svg" width="40" height="31pt" viewBox="0 0 30 31"><path style="stroke:none;fill-rule:nonzero;fill:#fff;fill-opacity:1" d="M14.996 7.313c1.125 0 2.2.218 3.18.609a8.388 8.388 0 0 1 2.699 1.754 8.087 8.087 0 0 1 1.813 2.62c.402.954.625 1.997.625 3.087a7.923 7.923 0 0 1-.625 3.09 8.087 8.087 0 0 1-1.813 2.62 8.313 8.313 0 0 1-2.7 1.75 8.503 8.503 0 0 1-3.179.614c-1.121 0-2.2-.219-3.18-.613a8.397 8.397 0 0 1-2.699-1.75 8.065 8.065 0 0 1-1.805-2.621 7.854 7.854 0 0 1 0-6.176 8.065 8.065 0 0 1 1.805-2.621 8.473 8.473 0 0 1 2.7-1.754c.98-.39 2.058-.61 3.18-.61zm4.152-2.036V5.27a.984.984 0 0 1-.32-.637.974.974 0 0 1 .235-.703l.007-.012.028-.027v-.004c.175-.18.414-.29.652-.309h.004c.25-.015.516.059.723.223l.02.015.015.012c.375.309.77.57 1.187.777a7.3 7.3 0 0 0 1.371.536c.504.136 1.055.238 1.653.3.601.067 1.257.094 1.972.094.172 0 .332.047.48.125v-.004a.98.98 0 0 1 .345.301c.218.27.43.55.632.844.203.3.395.597.57.886a14.737 14.737 0 0 1 .969 1.922v.004c.059.145.082.305.07.45v.007a.945.945 0 0 1-.16.438c-.562.957-.984 1.816-1.269 2.617-.254.742-.395 1.438-.41 2.121v.137c0 .738.137 1.48.414 2.265.285.813.719 1.68 1.293 2.653.023.039.05.086.07.137h.297l-.305.718a14.16 14.16 0 0 1-.449.98h-.008c-.16.333-.336.65-.511.942a16.095 16.095 0 0 1-1.23 1.77.94.94 0 0 1-.259.222v.157h-.539c-1.156 0-2.152.085-3.02.261-.855.176-1.593.442-2.253.82-.66.372-1.254.868-1.817 1.493-.582.64-1.132 1.41-1.675 2.332a.947.947 0 0 1-.27.3v.133l-.473.059-.53.063h-.02l-.532.042h-.02l-.534.032h-.02l-.527.008h-.016l-.527-.008h-.016l-.535-.032h-.02l-.519-.043h-.02l-.539-.062-.003-.004a.974.974 0 0 1-.461-.176.905.905 0 0 1-.293-.328c-.575-.957-1.145-1.75-1.739-2.39-.582-.63-1.187-1.114-1.851-1.477-.656-.363-1.399-.621-2.238-.781-.856-.168-1.82-.242-2.926-.242a.99.99 0 0 1-.477-.118H2.82a.95.95 0 0 1-.36-.32 14.291 14.291 0 0 1-1.187-1.71c-.175-.294-.351-.61-.515-.942a12.62 12.62 0 0 1-.453-.98.97.97 0 0 1-.07-.454v-.008a.968.968 0 0 1 .156-.437c.562-.95.98-1.817 1.25-2.633.27-.805.394-1.566.394-2.309-.008-.742-.152-1.492-.426-2.277-.277-.805-.695-1.652-1.242-2.57a.904.904 0 0 1-.07-.137H0l.305-.723c.129-.312.28-.644.453-.98.164-.328.34-.645.515-.938.184-.308.38-.617.586-.91.207-.3.422-.593.653-.867.07-.086.156-.16.246-.223v-.156H3.3c1.156 0 2.156-.082 3.023-.258.848-.175 1.59-.441 2.246-.82a7.175 7.175 0 0 0 1.817-1.488c.582-.64 1.129-1.418 1.68-2.348a.957.957 0 0 1 .308-.316c.125-.082.273-.137.422-.16h.015l.54-.067h.015l.524-.043h.02l.53-.027h.02L14.988 0h.016l.527.008h.02l.535.027h.016l.535.043.02.004.53.063h.008c.274.039.504.183.664.382.157.2.235.461.196.723a.961.961 0 0 1-.383.64l-.004.005a1.08 1.08 0 0 1-.742.195l-.488-.059-.489-.043a14.381 14.381 0 0 0-1.91 0l-.371.032-.113.011c-.563.903-1.137 1.68-1.75 2.34H11.8a8.978 8.978 0 0 1-2.215 1.774c-.809.464-1.7.8-2.707 1.02-.918.194-1.934.304-3.074.327a16.78 16.78 0 0 0-.34.477c-.156.23-.305.465-.45.699-.14.238-.277.488-.406.734-.086.168-.171.348-.25.516.524.922.926 1.793 1.207 2.633.309.93.47 1.832.477 2.754.012.918-.14 1.84-.441 2.793-.282.875-.696 1.78-1.243 2.754.082.171.168.343.254.52.13.253.266.491.403.722.144.242.293.476.449.703.113.164.226.328.34.48 1.093.02 2.078.11 2.965.297a9.48 9.48 0 0 1 2.69.973 9.221 9.221 0 0 1 2.263 1.765c.632.676 1.238 1.477 1.828 2.426l.129.012.36.027a14.504 14.504 0 0 0 1.913 0l.383-.03.105-.009c.563-.902 1.137-1.675 1.754-2.34a9.178 9.178 0 0 1 2.211-1.78 9.577 9.577 0 0 1 2.711-1.013c.914-.203 1.93-.304 3.07-.328.118-.152.231-.316.344-.48.157-.227.309-.461.45-.703.132-.227.269-.469.402-.73.09-.169.176-.34.258-.512-.555-.973-.98-1.868-1.266-2.723-.316-.942-.477-1.84-.477-2.746v-.524h.028a8.644 8.644 0 0 1 .449-2.222c.29-.856.71-1.754 1.258-2.719a7.941 7.941 0 0 0-.254-.52v-.003c-.129-.254-.266-.493-.399-.727-.14-.234-.293-.469-.445-.7-.117-.163-.23-.323-.348-.476a17.247 17.247 0 0 1-1.816-.117 12.281 12.281 0 0 1-1.848-.355h-.003a8.951 8.951 0 0 1-1.766-.684 8.794 8.794 0 0 1-1.57-1.035l-.016-.012zm.301 5.785a6.277 6.277 0 0 0-2.043-1.328 6.38 6.38 0 0 0-2.41-.46 6.39 6.39 0 0 0-2.406.46h-.004a6.403 6.403 0 0 0-2.043 1.329 6.171 6.171 0 0 0-1.363 1.98v.004a5.958 5.958 0 0 0 0 4.672v.004a6.188 6.188 0 0 0 1.363 1.984 6.459 6.459 0 0 0 2.043 1.324h.004c.738.297 1.555.461 2.406.461.856 0 1.672-.164 2.41-.46a6.2 6.2 0 0 0 3.41-3.309v-.004a5.972 5.972 0 0 0 0-4.672v-.004a6.122 6.122 0 0 0-1.367-1.98zm0 0"/></svg>