<svg xmlns="http://www.w3.org/2000/svg" width="40" height="29pt" viewBox="0 0 30 29"><path style="stroke:none;fill-rule:nonzero;fill:#fff;fill-opacity:1" d="m29.254 20.703-4.531-4.39a1.27 1.27 0 0 0-.996-.344 1.5 1.5 0 0 0-.95.426l-.71.687c-.27.258-.415.59-.442.918a1.32 1.32 0 0 0 0 .176 1.522 1.522 0 0 0-1.129.426l-2.23 2.164a.436.436 0 0 1-.235.113c-.047.004-.09-.008-.117-.035l-9.469-9.172c-.027-.024-.039-.063-.035-.113a.398.398 0 0 1 .117-.227l2.235-2.16a1.45 1.45 0 0 0 .437-.918 1.262 1.262 0 0 0 0-.172h.18c.336-.027.68-.172.95-.43l.71-.691c.27-.258.414-.59.445-.918a1.198 1.198 0 0 0-.363-.961L8.59.692A2.441 2.441 0 0 0 7.066 0v.004c-.57-.035-1.132.137-1.539.535l-4 3.867C.398 5.504-.093 7.008.016 8.543c.105 1.512.804 3.062 2.062 4.281l14.645 14.188c1.261 1.218 2.863 1.89 4.418 1.996 1.593.105 3.144-.371 4.273-1.465l3.996-3.871c.414-.399.59-.942.55-1.492h.005a2.323 2.323 0 0 0-.711-1.477zm-5.328-3.625 4.535 4.39c.23.231.363.516.383.786a.788.788 0 0 1-.227.644l-4 3.875c-.887.864-2.125 1.239-3.394 1.153-1.297-.086-2.637-.656-3.703-1.688L2.87 12.055C1.81 11.023 1.22 9.73 1.133 8.469c-.09-1.23.3-2.43 1.191-3.293L6.32 1.305a.857.857 0 0 1 .664-.22c.286.02.579.145.813.372l4.531 4.395c.027.023.04.066.035.113a.387.387 0 0 1-.117.226l-.71.692a.386.386 0 0 1-.24.113.161.161 0 0 1-.116-.031L7.44 3.344l-.394-.387-.402.387-.336.328-.399.383.399.386 3.738 3.622c.027.023.039.066.035.113a.354.354 0 0 1-.121.226l-2.227 2.164c-.27.254-.418.59-.445.914-.023.356.094.707.356.965l9.472 9.168c.266.258.63.375.992.348.34-.023.684-.168.95-.426l2.234-2.164a.373.373 0 0 1 .23-.11c.047-.003.09.005.122.032l3.738 3.617.394.387.399-.387.34-.324.394-.387-.394-.387-3.739-3.617c-.027-.027-.039-.07-.035-.117a.368.368 0 0 1 .117-.223l.715-.69a.356.356 0 0 1 .235-.118.161.161 0 0 1 .117.031zm0 0"/></svg>