<?xml version="1.0" encoding="UTF-8" standalone="no"?>
<svg
   xmlns:dc="http://purl.org/dc/elements/1.1/"
   xmlns:cc="http://creativecommons.org/ns#"
   xmlns:rdf="http://www.w3.org/1999/02/22-rdf-syntax-ns#"
   xmlns:svg="http://www.w3.org/2000/svg"
   xmlns="http://www.w3.org/2000/svg"
   xmlns:sodipodi="http://sodipodi.sourceforge.net/DTD/sodipodi-0.dtd"
   xmlns:inkscape="http://www.inkscape.org/namespaces/inkscape"
   width="551.37109pt"
   height="486.69266pt"
   viewBox="0 0 551.37109 486.69266"
   version="1.1"
   id="svg127"
   sodipodi:docname="profileBackground.svg"
   inkscape:version="1.0.1 (3bc2e813f5, 2020-09-07)">
  <metadata
     id="metadata131">
    <rdf:RDF>
      <cc:Work
         rdf:about="">
        <dc:format>image/svg+xml</dc:format>
        <dc:type
           rdf:resource="http://purl.org/dc/dcmitype/StillImage" />
      </cc:Work>
    </rdf:RDF>
  </metadata>
  <sodipodi:namedview
     pagecolor="#ffffff"
     bordercolor="#666666"
     borderopacity="1"
     objecttolerance="10"
     gridtolerance="10"
     guidetolerance="10"
     inkscape:pageopacity="0"
     inkscape:pageshadow="2"
     inkscape:window-width="1920"
     inkscape:window-height="1001"
     id="namedview129"
     showgrid="false"
     inkscape:zoom="0.44194174"
     inkscape:cx="436.44075"
     inkscape:cy="251.52658"
     inkscape:window-x="-9"
     inkscape:window-y="-9"
     inkscape:window-maximized="1"
     inkscape:current-layer="svg127" />
  <defs
     id="defs62">
    <clipPath
       id="clip1">
      <path
         d="m 461,94 h 91 v 309 h -91 z m 0,0"
         id="path2" />
    </clipPath>
    <clipPath
       id="clip2">
      <path
         d="M 39.070312,496.68359 H 512.29687 c 21.44141,0 39.07422,-17.64843 39.07422,-39.11328 V -190.26172 H 0 v 647.83203 c 0,21.46485 17.546875,39.11328 39.070312,39.11328 z m 0,0"
         id="path5" />
    </clipPath>
    <clipPath
       id="clip3">
      <path
         d="M 448.5,94 H 552 V 403 H 448.5 Z m 0,0"
         id="path8" />
    </clipPath>
    <clipPath
       id="clip4">
      <path
         d="M 39.070312,496.68359 H 512.29687 c 21.44141,0 39.07422,-17.64843 39.07422,-39.11328 V -190.26172 H 0 v 647.83203 c 0,21.46485 17.546875,39.11328 39.070312,39.11328 z m 0,0"
         id="path11" />
    </clipPath>
    <clipPath
       id="clip5">
      <path
         d="M 432,94 H 552 V 403 H 432 Z m 0,0"
         id="path14" />
    </clipPath>
    <clipPath
       id="clip6">
      <path
         d="M 39.070312,496.68359 H 512.29687 c 21.44141,0 39.07422,-17.64843 39.07422,-39.11328 V -190.26172 H 0 v 647.83203 c 0,21.46485 17.546875,39.11328 39.070312,39.11328 z m 0,0"
         id="path17" />
    </clipPath>
    <clipPath
       id="clip7">
      <path
         d="M 425.03906,94 H 552 V 403 H 425.03906 Z m 0,0"
         id="path20" />
    </clipPath>
    <clipPath
       id="clip8">
      <path
         d="M 39.070312,496.68359 H 512.29687 c 21.44141,0 39.07422,-17.64843 39.07422,-39.11328 V -190.26172 H 0 v 647.83203 c 0,21.46485 17.546875,39.11328 39.070312,39.11328 z m 0,0"
         id="path23" />
    </clipPath>
    <clipPath
       id="clip9">
      <path
         d="M 0,0 H 441.60156 V 422 H 0 Z m 0,0"
         id="path26" />
    </clipPath>
    <clipPath
       id="clip10">
      <path
         d="M 39.070312,496.68359 H 512.29687 c 21.44141,0 39.07422,-17.64843 39.07422,-39.11328 V -190.26172 H 0 v 647.83203 c 0,21.46485 17.546875,39.11328 39.070312,39.11328 z m 0,0"
         id="path29" />
    </clipPath>
    <clipPath
       id="clip11">
      <path
         d="M 345,29 H 552 V 496.89453 H 345 Z m 0,0"
         id="path32" />
    </clipPath>
    <clipPath
       id="clip12">
      <path
         d="M 39.070312,496.68359 H 512.29687 c 21.44141,0 39.07422,-17.64843 39.07422,-39.11328 V -190.26172 H 0 v 647.83203 c 0,21.46485 17.546875,39.11328 39.070312,39.11328 z m 0,0"
         id="path35" />
    </clipPath>
    <clipPath
       id="clip13">
      <path
         d="m 75,388 h 29 v 26 H 75 Z m 0,0"
         id="path38" />
    </clipPath>
    <clipPath
       id="clip14">
      <path
         d="M 39.070312,496.68359 H 512.29687 c 21.44141,0 39.07422,-17.64843 39.07422,-39.11328 V -190.26172 H 0 v 647.83203 c 0,21.46485 17.546875,39.11328 39.070312,39.11328 z m 0,0"
         id="path41" />
    </clipPath>
    <clipPath
       id="clip15">
      <path
         d="M 393.30078,76 H 404 v 13.71875 h -10.69922 z m 0,0"
         id="path44" />
    </clipPath>
    <clipPath
       id="clip16">
      <path
         d="M 39.070312,496.68359 H 512.29687 c 21.44141,0 39.07422,-17.64843 39.07422,-39.11328 V -190.26172 H 0 v 647.83203 c 0,21.46485 17.546875,39.11328 39.070312,39.11328 z m 0,0"
         id="path47" />
    </clipPath>
    <clipPath
       id="clip17">
      <path
         d="M 0,148 H 552 V 496.89453 H 0 Z m 0,0"
         id="path50" />
    </clipPath>
    <clipPath
       id="clip18">
      <path
         d="M 39.070312,496.68359 H 512.29687 c 21.44141,0 39.07422,-17.64843 39.07422,-39.11328 V -190.26172 H 0 v 647.83203 c 0,21.46485 17.546875,39.11328 39.070312,39.11328 z m 0,0"
         id="path53" />
    </clipPath>
    <clipPath
       id="clip19">
      <path
         d="M 0,0 H 552 V 375 H 0 Z m 0,0"
         id="path56" />
    </clipPath>
    <clipPath
       id="clip20">
      <path
         d="M 39.070312,496.68359 H 512.29687 c 21.44141,0 39.07422,-17.64843 39.07422,-39.11328 V -190.26172 H 0 v 647.83203 c 0,21.46485 17.546875,39.11328 39.070312,39.11328 z m 0,0"
         id="path59" />
    </clipPath>
    <clipPath
       clipPathUnits="userSpaceOnUse"
       id="clipPath137">
      <rect
         style="fill:#ab69c6;stroke-width:0.75"
         id="rect139"
         width="860.40759"
         height="541.36096"
         x="-95.035149"
         y="9.9909163" />
    </clipPath>
  </defs>
  <g
     id="surface1"
     transform="translate(0,-9.9909163)"
     clip-path="url(#clipPath137)">
    <path
       style="fill:#ab68c5;fill-opacity:1;fill-rule:nonzero;stroke:none"
       d="M 39.070312,496.68359 H 512.29687 c 21.44141,0 39.07422,-17.64843 39.07422,-39.11328 V -190.26172 H 0 v 647.83203 c 0,21.46485 17.546875,39.11328 39.070312,39.11328 z m 0,0"
       id="path64" />
    <g
       clip-path="url(#clip1)"
       clip-rule="nonzero"
       id="g70">
      <g
         clip-path="url(#clip2)"
         clip-rule="nonzero"
         id="g68">
        <path
           style="fill:none;stroke:#4c4c4c;stroke-width:8.46;stroke-linecap:butt;stroke-linejoin:miter;stroke-miterlimit:4;stroke-opacity:1"
           d="m 352.06995,284.76793 c 0.39665,0 0.71985,0.14186 0.71985,0.31674 0,0.17489 -0.32075,0.31553 -0.71985,0.31553 -0.39911,0 -0.72108,-0.14186 -0.72108,-0.31553 0,-0.17488 0.32197,-0.31674 0.72108,-0.31674 z m 0,0"
           transform="matrix(3.190752,0,0,3.194076,-507.1061,-662.06272)"
           id="path66" />
      </g>
    </g>
    <g
       clip-path="url(#clip3)"
       clip-rule="nonzero"
       id="g76">
      <g
         clip-path="url(#clip4)"
         clip-rule="nonzero"
         id="g74">
        <path
           style="fill:none;stroke:#4c4c4c;stroke-width:8.46;stroke-linecap:butt;stroke-linejoin:miter;stroke-miterlimit:4;stroke-opacity:1"
           d="m 349.27255,284.76793 c 0.98307,0 1.77883,0.14186 1.77883,0.31674 0,0.17489 -0.79576,0.31553 -1.77883,0.31553 -0.98184,0 -1.77882,-0.14186 -1.77882,-0.31553 0,-0.17488 0.79698,-0.31674 1.77882,-0.31674 z m 0,0"
           transform="matrix(3.190752,0,0,3.194076,-507.1061,-662.06272)"
           id="path72" />
      </g>
    </g>
    <g
       clip-path="url(#clip5)"
       clip-rule="nonzero"
       id="g82">
      <g
         clip-path="url(#clip6)"
         clip-rule="nonzero"
         id="g80">
        <path
           style="fill:none;stroke:#4c4c4c;stroke-width:8.46;stroke-linecap:butt;stroke-linejoin:miter;stroke-miterlimit:4;stroke-opacity:1"
           d="m 344.74408,284.76793 c 1.34667,0 2.43869,0.14186 2.43869,0.31674 0,0.17489 -1.09324,0.31553 -2.43869,0.31553 -1.34789,0 -2.43746,-0.14186 -2.43746,-0.31553 0,-0.17488 1.0908,-0.31674 2.43746,-0.31674 z m 0,0"
           transform="matrix(3.190752,0,0,3.194076,-507.1061,-662.06272)"
           id="path78" />
      </g>
    </g>
    <g
       clip-path="url(#clip7)"
       clip-rule="nonzero"
       id="g88">
      <g
         clip-path="url(#clip8)"
         clip-rule="nonzero"
         id="g86">
        <path
           style="fill:none;stroke:#4c4c4c;stroke-width:8.46;stroke-linecap:butt;stroke-linejoin:miter;stroke-miterlimit:4;stroke-opacity:1"
           d="m 341.05422,284.76793 c 0.51418,0 0.93165,0.14186 0.93165,0.31674 0,0.17489 -0.41747,0.31553 -0.93165,0.31553 -0.51418,0 -0.93165,-0.14186 -0.93165,-0.31553 0,-0.17488 0.41747,-0.31674 0.93165,-0.31674 z m 0,0"
           transform="matrix(3.190752,0,0,3.194076,-507.1061,-662.06272)"
           id="path84" />
      </g>
    </g>
    <g
       clip-path="url(#clip9)"
       clip-rule="nonzero"
       id="g94">
      <g
         clip-path="url(#clip10)"
         clip-rule="nonzero"
         id="g92">
        <path
           style="fill:#5c117d;fill-opacity:0.270588;fill-rule:nonzero;stroke:none"
           d="M 407.37891,-283.78906 C 544.40625,-96.371094 224.22266,-318.73828 177.63672,96.484375 144.35156,393.82812 44.5,-38.058594 7.59375,258.64844 -41.878906,657.12891 -354.64453,236.375 -129.88281,-50.828125 9.230469,-228.64844 -297.75781,-323.8125 104.83203,-207.55078 c 60.14844,17.38281 296.12109,-108.92188 302.54688,-76.23828 z m 0,0"
           id="path90" />
      </g>
    </g>
    <g
       clip-path="url(#clip11)"
       clip-rule="nonzero"
       id="g100">
      <g
         clip-path="url(#clip12)"
         clip-rule="nonzero"
         id="g98">
        <path
           style="fill:#5c117d;fill-opacity:0.270588;fill-rule:nonzero;stroke:none"
           d="M 467.89062,205.32031 C 291.51562,345.66016 336.73437,617.46484 412.71094,601.625 456.49609,592.56641 730.81641,480.20312 730.54687,462.36719 724.12109,-73.914062 651.49609,103.36328 573.53125,29.121094 542.23047,135.87109 506.14844,186.66406 467.89062,205.32031 Z m 0,0"
           id="path96" />
      </g>
    </g>
    <g
       clip-path="url(#clip13)"
       clip-rule="nonzero"
       id="g106">
      <g
         clip-path="url(#clip14)"
         clip-rule="nonzero"
         id="g104">
        <path
           style="fill:#5c117d;fill-opacity:0.2;fill-rule:nonzero;stroke:none"
           d="m 81.128906,388.21484 9.589844,2.35157 9.67578,2.26562 c 1.63281,0.35938 2.8086,1.44922 3.26172,2.89844 0.35938,1.44531 0,2.89062 -1.26562,3.98047 l -6.964849,6.33984 -7.058593,6.24609 c -1.171876,1.08594 -2.800782,1.53516 -4.429688,1.08594 -1.628906,-0.35937 -2.808594,-1.44922 -3.261719,-2.89844 l -2.621093,-8.60156 -2.53125,-8.59765 c -0.453126,-1.45313 0,-2.89454 1.175781,-3.98047 1.171875,-1.08985 2.808593,-1.44922 4.429687,-1.08985 z m 0,0"
           id="path102" />
      </g>
    </g>
    <g
       clip-path="url(#clip15)"
       clip-rule="nonzero"
       id="g112">
      <g
         clip-path="url(#clip16)"
         clip-rule="nonzero"
         id="g110">
        <path
           style="fill:#5c117d;fill-opacity:0.2;fill-rule:nonzero;stroke:none"
           d="m 395.52734,76.835938 3.4375,1.089843 3.52735,1.089844 c 0.6289,0.269531 1.08593,0.722656 1.26562,1.449219 0.0899,0.722656 0,1.445312 -0.45312,1.898437 l -2.625,3.078125 -2.53516,3.078125 c -0.44922,0.546875 -1.08203,0.730469 -1.625,0.546875 -0.63281,-0.183594 -1.08594,-0.722656 -1.26172,-1.445312 l -0.90625,-4.167969 -0.90234,-4.167969 c -0.1875,-0.722656 0,-1.445312 0.35937,-1.992187 0.44922,-0.457031 1.08594,-0.632813 1.71875,-0.457031 z m 0,0"
           id="path108" />
      </g>
    </g>
    <g
       clip-path="url(#clip17)"
       clip-rule="nonzero"
       id="g118">
      <g
         clip-path="url(#clip18)"
         clip-rule="nonzero"
         id="g116">
        <path
           style="fill:#5c117d;fill-opacity:0.2;fill-rule:nonzero;stroke:none"
           d="m -204.14453,250.94922 c -38.98438,117.4375 -19.71875,271.44922 131.695311,409.97656 92.523438,84.65625 315.386719,14.30859 388.382809,-100.95312 50.5586,-79.85938 182.70313,34.3125 235.4375,23.26953 28.03516,-5.88672 6.96485,-97.87891 -20.35156,-173.9336 C 422.30078,106.99219 260.03125,407.04297 144.53516,204.41406 100.57813,230.03516 35.816406,32.203125 7.59375,258.64453 -25.054688,521.67187 -172.39062,427.78125 -204.14453,250.94922 Z m 0,0"
           id="path114" />
      </g>
    </g>
    <g
       clip-path="url(#clip19)"
       clip-rule="nonzero"
       id="g124">
      <g
         clip-path="url(#clip20)"
         clip-rule="nonzero"
         id="g122">
        <path
           style="fill:#5c117d;fill-opacity:0.2;fill-rule:nonzero;stroke:none"
           d="m 129.51953,165.02734 c 113.24219,-217.207028 344.96875,375.75 469.42578,-240.476559 23.96875,-119.066401 -305.08203,14.753907 -360.52344,14.753907 -729.46484,0 -410.99609,805.199222 -108.90234,225.722652 z m 0,0"
           id="path120" />
      </g>
    </g>
  </g>
</svg>
