<?xml version="1.0" encoding="UTF-8"?>
<svg xmlns="http://www.w3.org/2000/svg" xmlns:xlink="http://www.w3.org/1999/xlink" width="30pt" height="31pt" viewBox="0 0 30 31" version="1.1">
<g id="surface1">
<path style=" stroke:none;fill-rule:nonzero;fill:rgb(100%,100%,100%);fill-opacity:1;" d="M 14.996094 7.3125 C 16.121094 7.3125 17.195312 7.53125 18.175781 7.921875 C 19.195312 8.335938 20.113281 8.933594 20.875 9.675781 C 21.644531 10.417969 22.261719 11.308594 22.6875 12.296875 C 23.089844 13.25 23.3125 14.292969 23.3125 15.382812 C 23.3125 16.476562 23.089844 17.519531 22.6875 18.472656 C 22.261719 19.460938 21.644531 20.351562 20.875 21.09375 C 20.113281 21.835938 19.195312 22.433594 18.175781 22.84375 C 17.195312 23.238281 16.121094 23.457031 14.996094 23.457031 C 13.875 23.457031 12.796875 23.238281 11.816406 22.84375 C 10.800781 22.433594 9.882812 21.835938 9.117188 21.09375 C 8.351562 20.351562 7.734375 19.460938 7.3125 18.472656 C 6.902344 17.519531 6.679688 16.476562 6.679688 15.382812 C 6.679688 14.292969 6.90625 13.25 7.3125 12.296875 C 7.734375 11.308594 8.351562 10.417969 9.117188 9.675781 C 9.882812 8.933594 10.800781 8.335938 11.816406 7.921875 C 12.796875 7.53125 13.875 7.3125 14.996094 7.3125 Z M 19.148438 5.277344 L 19.148438 5.269531 C 18.960938 5.101562 18.851562 4.871094 18.828125 4.632812 C 18.8125 4.386719 18.886719 4.132812 19.0625 3.929688 L 19.070312 3.917969 L 19.097656 3.890625 L 19.097656 3.886719 C 19.273438 3.707031 19.511719 3.597656 19.75 3.578125 L 19.753906 3.578125 C 20.003906 3.5625 20.269531 3.636719 20.476562 3.800781 L 20.496094 3.816406 L 20.511719 3.828125 C 20.886719 4.136719 21.28125 4.398438 21.699219 4.605469 C 22.125 4.824219 22.582031 5.003906 23.070312 5.140625 C 23.574219 5.277344 24.125 5.378906 24.722656 5.441406 C 25.324219 5.507812 25.980469 5.535156 26.695312 5.535156 C 26.867188 5.535156 27.027344 5.582031 27.175781 5.660156 L 27.175781 5.65625 C 27.3125 5.726562 27.429688 5.832031 27.519531 5.957031 C 27.738281 6.226562 27.949219 6.507812 28.152344 6.800781 C 28.355469 7.101562 28.546875 7.398438 28.722656 7.6875 C 28.898438 7.984375 29.074219 8.304688 29.246094 8.640625 C 29.410156 8.972656 29.566406 9.300781 29.691406 9.609375 L 29.691406 9.613281 C 29.75 9.757812 29.773438 9.917969 29.761719 10.0625 L 29.761719 10.070312 C 29.746094 10.222656 29.691406 10.378906 29.601562 10.507812 C 29.039062 11.464844 28.617188 12.324219 28.332031 13.125 C 28.078125 13.867188 27.9375 14.5625 27.921875 15.246094 L 27.921875 15.382812 C 27.921875 16.121094 28.058594 16.863281 28.335938 17.648438 C 28.621094 18.460938 29.054688 19.328125 29.628906 20.300781 C 29.652344 20.339844 29.679688 20.386719 29.699219 20.4375 L 29.996094 20.4375 L 29.691406 21.15625 C 29.5625 21.472656 29.410156 21.800781 29.242188 22.136719 L 29.234375 22.136719 C 29.074219 22.46875 28.898438 22.785156 28.722656 23.078125 C 28.546875 23.378906 28.34375 23.679688 28.136719 23.984375 C 27.9375 24.277344 27.71875 24.566406 27.492188 24.847656 C 27.421875 24.933594 27.332031 25.015625 27.234375 25.070312 L 27.234375 25.226562 L 26.695312 25.226562 C 25.539062 25.226562 24.542969 25.3125 23.675781 25.488281 C 22.820312 25.664062 22.082031 25.929688 21.421875 26.308594 C 20.761719 26.679688 20.167969 27.175781 19.605469 27.800781 C 19.023438 28.441406 18.472656 29.210938 17.929688 30.132812 C 17.863281 30.25 17.769531 30.355469 17.660156 30.433594 L 17.660156 30.566406 L 17.1875 30.625 L 16.65625 30.6875 L 16.636719 30.6875 L 16.105469 30.730469 L 16.085938 30.730469 L 15.550781 30.761719 L 15.53125 30.761719 L 15.003906 30.769531 L 14.988281 30.769531 L 14.460938 30.761719 L 14.445312 30.761719 L 13.910156 30.730469 L 13.890625 30.730469 L 13.371094 30.6875 L 13.351562 30.6875 L 12.8125 30.625 L 12.808594 30.621094 C 12.632812 30.601562 12.480469 30.539062 12.347656 30.445312 C 12.222656 30.359375 12.121094 30.246094 12.054688 30.117188 C 11.480469 29.160156 10.910156 28.367188 10.316406 27.726562 C 9.734375 27.097656 9.128906 26.613281 8.464844 26.25 C 7.808594 25.886719 7.066406 25.628906 6.226562 25.46875 C 5.371094 25.300781 4.40625 25.226562 3.300781 25.226562 C 3.128906 25.226562 2.96875 25.1875 2.824219 25.109375 L 2.820312 25.109375 C 2.671875 25.035156 2.550781 24.921875 2.460938 24.789062 C 2.246094 24.523438 2.035156 24.242188 1.839844 23.960938 C 1.640625 23.667969 1.445312 23.371094 1.273438 23.078125 C 1.097656 22.785156 0.921875 22.46875 0.757812 22.136719 C 0.585938 21.800781 0.433594 21.472656 0.304688 21.15625 C 0.242188 21.007812 0.222656 20.851562 0.234375 20.703125 L 0.234375 20.695312 C 0.25 20.539062 0.304688 20.386719 0.390625 20.257812 C 0.953125 19.308594 1.371094 18.441406 1.640625 17.625 C 1.910156 16.820312 2.035156 16.058594 2.035156 15.316406 C 2.027344 14.574219 1.882812 13.824219 1.609375 13.039062 C 1.332031 12.234375 0.914062 11.386719 0.367188 10.46875 C 0.339844 10.425781 0.316406 10.378906 0.296875 10.332031 L 0 10.332031 L 0.304688 9.609375 C 0.433594 9.296875 0.585938 8.964844 0.757812 8.628906 C 0.921875 8.300781 1.097656 7.984375 1.273438 7.691406 C 1.457031 7.382812 1.652344 7.074219 1.859375 6.78125 C 2.066406 6.480469 2.28125 6.1875 2.511719 5.914062 C 2.582031 5.828125 2.667969 5.753906 2.757812 5.691406 L 2.757812 5.535156 L 3.300781 5.535156 C 4.457031 5.535156 5.457031 5.453125 6.324219 5.277344 C 7.171875 5.101562 7.914062 4.835938 8.570312 4.457031 C 9.230469 4.082031 9.828125 3.59375 10.386719 2.96875 C 10.96875 2.328125 11.515625 1.550781 12.066406 0.621094 C 12.144531 0.488281 12.253906 0.382812 12.375 0.304688 C 12.5 0.222656 12.648438 0.167969 12.796875 0.144531 L 12.8125 0.144531 L 13.351562 0.078125 L 13.367188 0.078125 L 13.890625 0.0351562 L 13.910156 0.0351562 L 14.441406 0.0078125 L 14.460938 0.0078125 L 14.988281 0 L 15.003906 0 L 15.53125 0.0078125 L 15.550781 0.0078125 L 16.085938 0.0351562 L 16.101562 0.0351562 L 16.636719 0.078125 L 16.65625 0.0820312 L 17.1875 0.144531 L 17.195312 0.144531 C 17.46875 0.183594 17.699219 0.328125 17.859375 0.527344 C 18.015625 0.726562 18.09375 0.988281 18.054688 1.25 C 18.019531 1.515625 17.871094 1.742188 17.671875 1.890625 L 17.667969 1.894531 C 17.464844 2.042969 17.199219 2.117188 16.925781 2.089844 L 16.4375 2.03125 L 15.949219 1.988281 C 15.65625 1.96875 15.335938 1.957031 14.996094 1.957031 C 14.65625 1.957031 14.332031 1.96875 14.039062 1.988281 L 13.667969 2.019531 L 13.554688 2.03125 C 12.992188 2.933594 12.417969 3.710938 11.804688 4.371094 L 11.800781 4.371094 C 11.128906 5.097656 10.402344 5.6875 9.585938 6.144531 C 8.777344 6.609375 7.886719 6.945312 6.878906 7.164062 C 5.960938 7.359375 4.945312 7.46875 3.804688 7.492188 C 3.691406 7.644531 3.578125 7.804688 3.464844 7.96875 C 3.308594 8.199219 3.160156 8.433594 3.015625 8.667969 C 2.875 8.90625 2.738281 9.15625 2.609375 9.402344 C 2.523438 9.570312 2.4375 9.75 2.359375 9.917969 C 2.882812 10.839844 3.285156 11.710938 3.566406 12.550781 C 3.875 13.480469 4.035156 14.382812 4.042969 15.304688 C 4.054688 16.222656 3.902344 17.144531 3.601562 18.097656 C 3.320312 18.972656 2.90625 19.878906 2.359375 20.851562 C 2.441406 21.023438 2.527344 21.195312 2.613281 21.371094 C 2.742188 21.625 2.878906 21.863281 3.015625 22.09375 C 3.160156 22.335938 3.308594 22.570312 3.464844 22.796875 C 3.578125 22.960938 3.691406 23.125 3.804688 23.277344 C 4.898438 23.296875 5.882812 23.386719 6.769531 23.574219 C 7.75 23.777344 8.640625 24.09375 9.460938 24.546875 C 10.28125 24.996094 11.023438 25.578125 11.722656 26.3125 C 12.355469 26.988281 12.960938 27.789062 13.550781 28.738281 L 13.679688 28.75 L 14.039062 28.777344 C 14.332031 28.796875 14.65625 28.808594 14.996094 28.808594 C 15.335938 28.808594 15.65625 28.796875 15.953125 28.777344 L 16.335938 28.746094 L 16.441406 28.738281 C 17.003906 27.835938 17.578125 27.0625 18.195312 26.398438 C 18.867188 25.671875 19.589844 25.082031 20.40625 24.617188 C 21.21875 24.160156 22.105469 23.824219 23.117188 23.605469 C 24.03125 23.402344 25.046875 23.300781 26.1875 23.277344 C 26.304688 23.125 26.417969 22.960938 26.53125 22.796875 C 26.6875 22.570312 26.839844 22.335938 26.980469 22.09375 C 27.113281 21.867188 27.25 21.625 27.382812 21.363281 C 27.472656 21.195312 27.558594 21.023438 27.640625 20.851562 C 27.085938 19.878906 26.660156 18.984375 26.375 18.128906 C 26.058594 17.1875 25.898438 16.289062 25.898438 15.382812 L 25.898438 14.859375 L 25.925781 14.859375 C 25.972656 14.125 26.121094 13.390625 26.375 12.636719 C 26.664062 11.78125 27.085938 10.882812 27.632812 9.917969 C 27.558594 9.746094 27.46875 9.570312 27.378906 9.398438 L 27.378906 9.394531 C 27.25 9.140625 27.113281 8.902344 26.980469 8.667969 C 26.839844 8.433594 26.6875 8.199219 26.535156 7.96875 C 26.417969 7.804688 26.304688 7.644531 26.1875 7.492188 C 25.539062 7.480469 24.933594 7.445312 24.371094 7.375 C 23.726562 7.300781 23.105469 7.179688 22.523438 7.019531 L 22.519531 7.019531 C 21.890625 6.847656 21.304688 6.621094 20.753906 6.335938 C 20.203125 6.054688 19.679688 5.707031 19.183594 5.300781 L 19.167969 5.289062 Z M 19.449219 11.0625 C 18.871094 10.496094 18.171875 10.042969 17.40625 9.734375 C 16.667969 9.433594 15.851562 9.273438 14.996094 9.273438 C 14.144531 9.273438 13.332031 9.433594 12.589844 9.734375 L 12.585938 9.734375 C 11.824219 10.042969 11.128906 10.496094 10.542969 11.0625 C 9.964844 11.628906 9.496094 12.300781 9.179688 13.042969 L 9.179688 13.046875 C 8.875 13.761719 8.703125 14.554688 8.703125 15.382812 C 8.703125 16.210938 8.875 17 9.179688 17.71875 L 9.179688 17.722656 C 9.496094 18.464844 9.964844 19.140625 10.542969 19.707031 C 11.128906 20.265625 11.824219 20.726562 12.585938 21.03125 L 12.589844 21.03125 C 13.328125 21.328125 14.144531 21.492188 14.996094 21.492188 C 15.851562 21.492188 16.667969 21.328125 17.40625 21.03125 C 18.171875 20.726562 18.871094 20.265625 19.449219 19.707031 C 20.03125 19.140625 20.496094 18.464844 20.816406 17.722656 L 20.816406 17.71875 C 21.121094 17 21.292969 16.210938 21.292969 15.382812 C 21.292969 14.554688 21.121094 13.761719 20.816406 13.046875 L 20.816406 13.042969 C 20.5 12.300781 20.03125 11.628906 19.449219 11.0625 Z M 19.449219 11.0625 "/>
</g>
</svg>
