<?xml version="1.0" encoding="UTF-8"?>
<!DOCTYPE svg PUBLIC "-//W3C//DTD SVG 1.1//EN" "http://www.w3.org/Graphics/SVG/1.1/DTD/svg11.dtd">
<!-- Creator: CorelDRAW X7 -->
<svg xmlns="http://www.w3.org/2000/svg" xml:space="preserve" width="23" height="23" version="1.1" style="shape-rendering:geometricPrecision; text-rendering:geometricPrecision; image-rendering:optimizeQuality; fill-rule:evenodd; clip-rule:evenodd"
viewBox="0 0 16933 16933"
 xmlns:xlink="http://www.w3.org/1999/xlink">
 <defs>
  <style type="text/css">
   <![CDATA[
    .fil0 {fill:#CCCCCC;fill-rule:nonzero}
   ]]>
  </style>
 </defs>
 <g id="Layer_x0020_1">
  <metadata id="CorelCorpID_0Corel-Layer"/>
  <path class="fil0" d="M10503 9120c-126,-60 -179,-210 -119,-335 60,-125 210,-179 336,-119 502,241 1718,968 2510,1927 511,620 852,1339 741,2103 -82,565 -830,976 -1921,1238 -919,220 -2100,350 -3317,386 -1217,35 -2473,-23 -3544,-178 -1586,-231 -2795,-697 -2969,-1423 -178,-743 143,-1459 658,-2083 799,-969 2081,-1726 2584,-1968 126,-60 276,-7 336,119 60,125 7,275 -119,335 -471,226 -1670,934 -2412,1833 -424,514 -692,1086 -558,1647 118,491 1162,839 2552,1041 1045,152 2271,208 3458,174 1185,-35 2330,-161 3214,-373 889,-213 1491,-492 1539,-819 87,-601 -201,-1192 -631,-1712 -735,-891 -1870,-1568 -2338,-1793zm-2410 -7292c1001,0 1907,405 2563,1061 656,656 1062,1563 1062,2564 0,1001 -405,1907 -1061,2563 -657,656 -1563,1062 -2564,1062 -1001,0 -1908,-406 -2564,-1062 -656,-656 -1061,-1562 -1061,-2563 0,-1001 405,-1908 1061,-2564 656,-656 1563,-1061 2564,-1061zm2206 1419c-564,-565 -1344,-914 -2206,-914 -862,0 -1642,349 -2206,914 -565,564 -914,1344 -914,2206 0,861 349,1642 914,2206 564,565 1344,914 2206,914 862,0 1642,-349 2206,-914 565,-564 914,-1345 914,-2206 0,-862 -349,-1642 -914,-2206z"/>
 </g>
</svg>
