<svg xmlns="http://www.w3.org/2000/svg" xml:space="preserve" width="300.156" height="252.023" style="clip-rule:evenodd;fill-rule:evenodd;image-rendering:optimizeQuality;shape-rendering:geometricPrecision;text-rendering:geometricPrecision" viewBox="0 0 7941.5 6668"><path d="M5137 5673h3112v565H5137c-251 0-479 103-645 268-166 166-268 395-268 646v3710c0 251 102 479 268 645s394 269 645 269h3112v565H5137c-407 0-777-166-1045-434-267-268-434-638-434-1045V7152c0-407 167-778 434-1045 268-268 638-434 1045-434zm5061 1811c-114-115-300-115-414 0-114 114-114 299 0 413l1110 1110-1110 1109c-114 114-114 299 0 414 114 114 300 114 414 0l1310-1311 6-5c114-115 114-300 0-414zm-646 1815c162 0 293-131 293-292 0-162-131-293-293-293H6628c-162 0-293 131-293 293 0 161 131 292 293 292z" style="fill:#fff;fill-rule:nonzero" transform="translate(-3658 -5673)"/></svg>