<?xml version="1.0" encoding="UTF-8" standalone="no"?>
<svg
   xmlns:dc="http://purl.org/dc/elements/1.1/"
   xmlns:cc="http://creativecommons.org/ns#"
   xmlns:rdf="http://www.w3.org/1999/02/22-rdf-syntax-ns#"
   xmlns:svg="http://www.w3.org/2000/svg"
   xmlns="http://www.w3.org/2000/svg"
   xmlns:sodipodi="http://sodipodi.sourceforge.net/DTD/sodipodi-0.dtd"
   xmlns:inkscape="http://www.inkscape.org/namespaces/inkscape"
   xml:space="preserve"
   width="79.416405mm"
   height="66.681183mm"
   version="1.1"
   style="clip-rule:evenodd;fill-rule:evenodd;image-rendering:optimizeQuality;shape-rendering:geometricPrecision;text-rendering:geometricPrecision"
   viewBox="0 0 7941.5001 6668.0004"
   id="svg10"
   sodipodi:docname="button_logout.svg"
   inkscape:version="1.0.1 (3bc2e813f5, 2020-09-07)"><metadata
   id="metadata14"><rdf:RDF><cc:Work
       rdf:about=""><dc:format>image/svg+xml</dc:format><dc:type
         rdf:resource="http://purl.org/dc/dcmitype/StillImage" /></cc:Work></rdf:RDF></metadata><sodipodi:namedview
   pagecolor="#ffffff"
   bordercolor="#666666"
   borderopacity="1"
   objecttolerance="10"
   gridtolerance="10"
   guidetolerance="10"
   inkscape:pageopacity="0"
   inkscape:pageshadow="2"
   inkscape:window-width="1920"
   inkscape:window-height="1001"
   id="namedview12"
   showgrid="false"
   inkscape:zoom="1.2968776"
   inkscape:cx="181.74179"
   inkscape:cy="105.58297"
   inkscape:window-x="-9"
   inkscape:window-y="-9"
   inkscape:window-maximized="1"
   inkscape:current-layer="svg10" />
 <defs
   id="defs4">
  <style
   type="text/css"
   id="style2">
   <![CDATA[
    .fil0 {fill:white;fill-rule:nonzero}
   ]]>
  </style>
 </defs>
 <g
   id="Layer_x0020_1"
   transform="translate(-3658,-5673)">
  <metadata
   id="CorelCorpID_0Corel-Layer" />
  <path
   class="fil0"
   d="m 5137,5673 h 3112 v 565 H 5137 c -251,0 -479,103 -645,268 -166,166 -268,395 -268,646 v 3710 c 0,251 102,479 268,645 166,166 394,269 645,269 h 3112 v 565 H 5137 c -407,0 -777,-166 -1045,-434 -267,-268 -434,-638 -434,-1045 V 7152 c 0,-407 167,-778 434,-1045 268,-268 638,-434 1045,-434 z m 5061,1811 c -114,-115 -300,-115 -414,0 -114,114 -114,299 0,413 l 1110,1110 -1110,1109 c -114,114 -114,299 0,414 114,114 300,114 414,0 l 1310,-1311 6,-5 c 114,-115 114,-300 0,-414 z m -646,1815 c 162,0 293,-131 293,-292 0,-162 -131,-293 -293,-293 H 6628 c -162,0 -293,131 -293,293 0,161 131,292 293,292 z"
   id="path7" />
 </g>
</svg>
