<svg xmlns="http://www.w3.org/2000/svg" width="735.161" height="648.924" viewBox="0 0 551.371 486.693"><defs><clipPath id="l"><path d="M345 29h207v467.895H345zm0 0"/></clipPath><clipPath id="b"><path d="M461 94h91v309h-91zm0 0"/></clipPath><clipPath id="d"><path d="M448.5 94H552v309H448.5zm0 0"/></clipPath><clipPath id="e"><path d="M39.07 496.684h473.227c21.441 0 39.074-17.649 39.074-39.114v-647.832H0V457.57c0 21.465 17.547 39.114 39.07 39.114zm0 0"/></clipPath><clipPath id="f"><path d="M432 94h120v309H432zm0 0"/></clipPath><clipPath id="g"><path d="M39.07 496.684h473.227c21.441 0 39.074-17.649 39.074-39.114v-647.832H0V457.57c0 21.465 17.547 39.114 39.07 39.114zm0 0"/></clipPath><clipPath id="h"><path d="M425.04 94H552v309H425.04zm0 0"/></clipPath><clipPath id="i"><path d="M39.07 496.684h473.227c21.441 0 39.074-17.649 39.074-39.114v-647.832H0V457.57c0 21.465 17.547 39.114 39.07 39.114zm0 0"/></clipPath><clipPath id="j"><path d="M0 0h441.602v422H0zm0 0"/></clipPath><clipPath id="k"><path d="M39.07 496.684h473.227c21.441 0 39.074-17.649 39.074-39.114v-647.832H0V457.57c0 21.465 17.547 39.114 39.07 39.114zm0 0"/></clipPath><clipPath id="c"><path d="M39.07 496.684h473.227c21.441 0 39.074-17.649 39.074-39.114v-647.832H0V457.57c0 21.465 17.547 39.114 39.07 39.114zm0 0"/></clipPath><clipPath id="m"><path d="M39.07 496.684h473.227c21.441 0 39.074-17.649 39.074-39.114v-647.832H0V457.57c0 21.465 17.547 39.114 39.07 39.114zm0 0"/></clipPath><clipPath id="n"><path d="M75 388h29v26H75zm0 0"/></clipPath><clipPath id="o"><path d="M39.07 496.684h473.227c21.441 0 39.074-17.649 39.074-39.114v-647.832H0V457.57c0 21.465 17.547 39.114 39.07 39.114zm0 0"/></clipPath><clipPath id="p"><path d="M393.3 76H404v13.719h-10.7zm0 0"/></clipPath><clipPath id="q"><path d="M39.07 496.684h473.227c21.441 0 39.074-17.649 39.074-39.114v-647.832H0V457.57c0 21.465 17.547 39.114 39.07 39.114zm0 0"/></clipPath><clipPath id="r"><path d="M0 148h552v348.895H0zm0 0"/></clipPath><clipPath id="s"><path d="M39.07 496.684h473.227c21.441 0 39.074-17.649 39.074-39.114v-647.832H0V457.57c0 21.465 17.547 39.114 39.07 39.114zm0 0"/></clipPath><clipPath id="t"><path d="M0 0h552v375H0zm0 0"/></clipPath><clipPath id="u"><path d="M39.07 496.684h473.227c21.441 0 39.074-17.649 39.074-39.114v-647.832H0V457.57c0 21.465 17.547 39.114 39.07 39.114zm0 0"/></clipPath><clipPath clipPathUnits="userSpaceOnUse" id="a"><path style="fill:#ab69c6;stroke-width:.75" d="M-95.035 9.991h860.408v541.361H-95.035z"/></clipPath></defs><g transform="translate(0 -9.99)" clip-path="url(#a)"><path style="fill:#ab68c5;fill-opacity:1;fill-rule:nonzero;stroke:none" d="M39.07 496.684h473.227c21.441 0 39.074-17.649 39.074-39.114v-647.832H0V457.57c0 21.465 17.547 39.114 39.07 39.114zm0 0"/><g clip-path="url(#b)"><g clip-path="url(#c)"><path style="fill:none;stroke:#4c4c4c;stroke-width:8.46;stroke-linecap:butt;stroke-linejoin:miter;stroke-miterlimit:4;stroke-opacity:1" d="M352.07 284.768c.397 0 .72.142.72.317 0 .175-.321.315-.72.315-.4 0-.721-.142-.721-.315 0-.175.322-.317.721-.317zm0 0" transform="matrix(3.19075 0 0 3.19408 -507.106 -662.063)"/></g></g><g clip-path="url(#d)"><g clip-path="url(#e)"><path style="fill:none;stroke:#4c4c4c;stroke-width:8.46;stroke-linecap:butt;stroke-linejoin:miter;stroke-miterlimit:4;stroke-opacity:1" d="M349.273 284.768c.983 0 1.778.142 1.778.317 0 .175-.795.315-1.778.315-.982 0-1.78-.142-1.78-.315 0-.175.798-.317 1.78-.317zm0 0" transform="matrix(3.19075 0 0 3.19408 -507.106 -662.063)"/></g></g><g clip-path="url(#f)"><g clip-path="url(#g)"><path style="fill:none;stroke:#4c4c4c;stroke-width:8.46;stroke-linecap:butt;stroke-linejoin:miter;stroke-miterlimit:4;stroke-opacity:1" d="M344.744 284.768c1.347 0 2.439.142 2.439.317 0 .175-1.093.315-2.439.315-1.348 0-2.437-.142-2.437-.315 0-.175 1.09-.317 2.437-.317zm0 0" transform="matrix(3.19075 0 0 3.19408 -507.106 -662.063)"/></g></g><g clip-path="url(#h)"><g clip-path="url(#i)"><path style="fill:none;stroke:#4c4c4c;stroke-width:8.46;stroke-linecap:butt;stroke-linejoin:miter;stroke-miterlimit:4;stroke-opacity:1" d="M341.054 284.768c.514 0 .932.142.932.317 0 .175-.418.315-.932.315s-.931-.142-.931-.315c0-.175.417-.317.931-.317zm0 0" transform="matrix(3.19075 0 0 3.19408 -507.106 -662.063)"/></g></g><g clip-path="url(#j)"><g clip-path="url(#k)"><path style="fill:#5c117d;fill-opacity:.270588;fill-rule:nonzero;stroke:none" d="M407.379-283.79C544.406-96.37 224.223-318.737 177.637 96.485 144.352 393.828 44.5-38.059 7.594 258.648c-49.473 398.48-362.239-22.273-137.477-309.476C9.23-228.648-297.758-323.813 104.832-207.551c60.148 17.383 296.121-108.922 302.547-76.238zm0 0"/></g></g><g clip-path="url(#l)"><g clip-path="url(#m)"><path style="fill:#5c117d;fill-opacity:.270588;fill-rule:nonzero;stroke:none" d="M467.89 205.32c-176.374 140.34-131.156 412.145-55.18 396.305 43.786-9.059 318.106-121.422 317.837-139.258-6.426-536.281-79.05-359.004-157.016-433.246-31.3 106.75-67.383 157.543-105.64 176.2zm0 0"/></g></g><g clip-path="url(#n)"><g clip-path="url(#o)"><path style="fill:#5c117d;fill-opacity:.2;fill-rule:nonzero;stroke:none" d="m81.129 388.215 9.59 2.351 9.676 2.266c1.632.36 2.808 1.45 3.261 2.898.36 1.446 0 2.891-1.265 3.98l-6.965 6.34-7.059 6.247a4.633 4.633 0 0 1-4.43 1.086c-1.628-.36-2.808-1.45-3.261-2.899l-2.621-8.601-2.532-8.598c-.453-1.453 0-2.894 1.176-3.98 1.172-1.09 2.809-1.45 4.43-1.09zm0 0"/></g></g><g clip-path="url(#p)"><g clip-path="url(#q)"><path style="fill:#5c117d;fill-opacity:.2;fill-rule:nonzero;stroke:none" d="m395.527 76.836 3.438 1.09 3.527 1.09c.63.27 1.086.722 1.266 1.449.09.722 0 1.445-.453 1.898l-2.625 3.078-2.535 3.079c-.45.546-1.083.73-1.625.546-.633-.183-1.086-.722-1.262-1.445l-.906-4.168-.903-4.168c-.187-.722 0-1.445.36-1.992.449-.457 1.086-.633 1.718-.457zm0 0"/></g></g><g clip-path="url(#r)"><g clip-path="url(#s)"><path style="fill:#5c117d;fill-opacity:.2;fill-rule:nonzero;stroke:none" d="M-204.145 250.95c-38.984 117.437-19.718 271.448 131.696 409.976 92.523 84.656 315.387 14.308 388.383-100.953 50.558-79.86 182.703 34.312 235.437 23.27 28.035-5.888 6.965-97.88-20.351-173.934-108.72-302.317-270.989-2.266-386.485-204.895-43.957 25.621-108.719-172.21-136.941 54.23-32.649 263.028-179.985 169.137-211.739-7.695zm0 0"/></g></g><g clip-path="url(#t)"><g clip-path="url(#u)"><path style="fill:#5c117d;fill-opacity:.2;fill-rule:nonzero;stroke:none" d="M129.52 165.027C242.762-52.18 474.488 540.777 598.945-75.449c23.97-119.067-305.082 14.754-360.523 14.754-729.465 0-410.996 805.199-108.902 225.722zm0 0"/></g></g></g></svg>