<svg xmlns="http://www.w3.org/2000/svg" xml:space="preserve" width="23" height="23" version="1.0" style="shape-rendering:geometricPrecision;text-rendering:geometricPrecision;image-rendering:optimizeQuality;fill-rule:evenodd;clip-rule:evenodd" viewBox="0 0 330 330"><path d="M165-1c28 0 54 11 72 30 19 18 30 44 30 72s-11 53-30 72c-18 18-44 30-72 30s-54-12-72-30c-18-19-30-44-30-72s12-54 30-72c19-19 44-30 72-30zm66 205c-4-2-6-7-4-12 2-4 7-6 11-3 16 7 30 16 44 28s27 25 39 41c5 5 8 13 9 21 1 7 1 15-1 23-2 9-5 16-10 21s-12 8-19 8H30c-7 0-14-3-19-8-4-5-8-12-10-21-2-8-2-16-1-23 2-8 5-16 9-21 12-16 25-29 39-41s28-21 44-28c4-2 9-1 11 4 2 4 0 9-4 11-14 6-27 15-40 26s-25 24-37 38c-2 4-4 8-5 13-1 6-1 12 0 18 2 5 4 9 6 12 3 2 5 3 7 3h270c2 0 5-1 7-3 2-3 5-7 6-12 1-6 1-12 0-18-1-5-2-9-5-13-11-14-24-27-37-38-12-11-26-20-40-26zm-6-163c-15-16-36-25-60-25-23 0-45 9-60 25-15 15-25 36-25 60 0 23 10 45 25 60s37 25 60 25c24 0 45-10 60-25 16-15 25-37 25-60 0-24-9-45-25-60z" style="fill:#b3b3b3;fill-rule:nonzero"/></svg>