<?xml version="1.0" encoding="UTF-8"?>
<!DOCTYPE svg PUBLIC "-//W3C//DTD SVG 1.1//EN" "http://www.w3.org/Graphics/SVG/1.1/DTD/svg11.dtd">
<!-- Creator: CorelDRAW X7 -->
<svg xmlns="http://www.w3.org/2000/svg" xml:space="preserve" width="169.333mm" height="169.333mm" version="1.1" style="shape-rendering:geometricPrecision; text-rendering:geometricPrecision; image-rendering:optimizeQuality; fill-rule:evenodd; clip-rule:evenodd"
viewBox="0 0 16933 16933"
 xmlns:xlink="http://www.w3.org/1999/xlink">
 <defs>
  <style type="text/css">
   <![CDATA[
    .str0 {stroke:black;stroke-width:20;stroke-opacity:0.200000}
    .fil7 {fill:none}
    .fil4 {fill:none;fill-rule:nonzero}
    .fil41 {fill:black}
    .fil21 {fill:#1A1A1A}
    .fil25 {fill:#763DB0}
    .fil37 {fill:#8548B3}
    .fil23 {fill:#9B59B6}
    .fil16 {fill:#AB69C6}
    .fil35 {fill:#BA1C58}
    .fil28 {fill:#CEA0E4}
    .fil32 {fill:#DA3C78}
    .fil14 {fill:#DCC6E0}
    .fil27 {fill:#E6E6E6}
    .fil5 {fill:#F4B8FF}
    .fil29 {fill:#FA5C98}
    .fil33 {fill:#FFC8A3}
    .fil31 {fill:white}
    .fil40 {fill:#27AE60;fill-rule:nonzero}
    .fil39 {fill:#2ECC71;fill-rule:nonzero}
    .fil13 {fill:#AB69C6;fill-rule:nonzero}
    .fil43 {fill:#E6E6E6;fill-rule:nonzero}
    .fil12 {fill:white;fill-rule:nonzero}
    .fil36 {fill:black;fill-opacity:0.101961}
    .fil26 {fill:#1A1A1A;fill-opacity:0.101961}
    .fil38 {fill:#4D4D4D;fill-opacity:0.101961}
    .fil3 {fill:black;fill-rule:nonzero;fill-opacity:0.101961}
    .fil18 {fill:black;fill-opacity:0.200000}
    .fil30 {fill:#1A1A1A;fill-opacity:0.200000}
    .fil22 {fill:#4D4D4D;fill-opacity:0.200000}
    .fil11 {fill:#6E248D;fill-opacity:0.200000}
    .fil1 {fill:#AB69C6;fill-opacity:0.200000}
    .fil42 {fill:#E68545;fill-opacity:0.200000}
    .fil0 {fill:#FA5C98;fill-opacity:0.200000}
    .fil6 {fill:white;fill-opacity:0.200000}
    .fil10 {fill:#CEA0E4;fill-opacity:0.400000}
    .fil24 {fill:#763DB0;fill-opacity:0.600000}
    .fil2 {fill:#AB69C6;fill-rule:nonzero;fill-opacity:0.600000}
    .fil20 {fill:url(#id33)}
    .fil8 {fill:url(#id34)}
    .fil19 {fill:url(#id35)}
    .fil15 {fill:url(#id36)}
    .fil9 {fill:url(#id37)}
    .fil17 {fill:url(#id38)}
    .fil34 {fill:url(#id39);fill-rule:nonzero}
   ]]>
  </style>
    <clipPath id="id0" style="clip-rule:nonzero">
     <path d="M9316 8407c0,0 -477,-263 -258,-626 0,0 176,-223 366,-282 0,0 -98,540 4,552 102,12 66,-609 66,-609 0,0 500,-245 696,-227 0,0 -307,529 -206,515 102,-13 447,-548 447,-548 0,0 513,-99 598,205 85,304 -48,457 -124,477 -76,19 -564,16 -551,80 13,63 344,162 527,104 0,0 -200,503 -466,479 -267,-24 -350,-188 -515,-200 -165,-11 -286,34 -203,78 83,44 362,12 496,124 134,113 242,182 -5,234 -553,118 -789,-182 -782,-166 -331,319 -267,747 -236,981l-52 -19c-155,-522 96,-978 198,-1152z"/>
    </clipPath>
    <clipPath id="id1" style="clip-rule:nonzero">
     <path d="M9316 8407c0,0 -477,-263 -258,-626 0,0 176,-223 366,-282 0,0 -98,540 4,552 102,12 66,-609 66,-609 0,0 500,-245 696,-227 0,0 -307,529 -206,515 102,-13 447,-548 447,-548 0,0 513,-99 598,205 85,304 -48,457 -124,477 -76,19 -564,16 -551,80 13,63 344,162 527,104 0,0 -200,503 -466,479 -267,-24 -350,-188 -515,-200 -165,-11 -286,34 -203,78 83,44 362,12 496,124 134,113 242,182 -5,234 -553,118 -789,-182 -782,-166 -331,319 -267,747 -236,981l-52 -19c-155,-522 96,-978 198,-1152z"/>
    </clipPath>
    <clipPath id="id2">
     <path d="M4712 9034c-77,-264 -27,-545 277,-670 190,-79 -726,-1096 605,-724 768,215 1746,-1985 2103,-342 240,1101 1969,-468 1913,1269 -2,42 1521,587 -376,1113 -524,146 -1339,33 -2505,67 -642,18 -1815,-23 -2017,-713z"/>
    </clipPath>
     <clipPath id="id3" style="clip-rule:nonzero">
      <path d="M9316 8407c0,0 -477,-263 -258,-626 0,0 29,-36 75,-83 95,16 180,48 253,106 -9,125 -5,242 42,247 31,4 50,-52 60,-132 85,134 132,338 122,648 -1,15 203,98 369,223 -404,14 -579,-207 -573,-193 -331,319 -267,747 -236,981l-52 -19c-155,-522 96,-978 198,-1152z"/>
     </clipPath>
     <clipPath id="id4" style="clip-rule:nonzero">
      <path d="M4712 9034c-77,-264 -27,-545 277,-670 190,-79 -726,-1096 605,-724 768,215 1746,-1985 2103,-342 240,1101 1969,-468 1913,1269 -2,42 1521,587 -376,1113 -524,146 -1339,33 -2505,67 -642,18 -1815,-23 -2017,-713z"/>
     </clipPath>
     <clipPath id="id5" style="clip-rule:nonzero">
      <path d="M9316 8407c0,0 -477,-263 -258,-626 0,0 29,-36 75,-83 95,16 180,48 253,106 -9,125 -5,242 42,247 31,4 50,-52 60,-132 85,134 132,338 122,648 -1,15 203,98 369,223 -404,14 -579,-207 -573,-193 -331,319 -267,747 -236,981l-52 -19c-155,-522 96,-978 198,-1152z"/>
     </clipPath>
     <clipPath id="id6" style="clip-rule:nonzero">
      <path d="M4712 9034c-77,-264 -27,-545 277,-670 190,-79 -726,-1096 605,-724 768,215 1746,-1985 2103,-342 240,1101 1969,-468 1913,1269 -2,42 1521,587 -376,1113 -524,146 -1339,33 -2505,67 -642,18 -1815,-23 -2017,-713z"/>
     </clipPath>
     <clipPath id="id7">
      <path d="M5057 7562c63,98 118,244 163,450 240,1101 1969,-468 1912,1269 -1,24 491,211 567,464 -292,-5 -615,-9 -970,2 -642,18 -1815,-23 -2017,-713 -77,-264 -27,-545 277,-670 154,-64 -419,-745 68,-802z"/>
     </clipPath>
     <clipPath id="id8">
      <path d="M4712 9034c-77,-264 -27,-545 277,-670 190,-79 -726,-1096 605,-724 768,215 1746,-1985 2103,-342 240,1101 1969,-468 1913,1269 -2,42 1521,587 -376,1113 -524,146 -1339,33 -2505,67 -642,18 -1815,-23 -2017,-713z"/>
     </clipPath>
     <clipPath id="id9">
      <path d="M5057 7562c63,98 118,244 163,450 240,1101 1969,-468 1912,1269 -1,24 491,211 567,464 -292,-5 -615,-9 -970,2 -642,18 -1815,-23 -2017,-713 -77,-264 -27,-545 277,-670 154,-64 -419,-745 68,-802z"/>
     </clipPath>
      <clipPath id="id10" style="clip-rule:nonzero">
      </clipPath>
      <clipPath id="id11" style="clip-rule:nonzero">
       <path d="M5057 7562c63,98 118,244 163,450 240,1101 1969,-468 1912,1269 -1,24 491,211 567,464 -292,-5 -615,-9 -970,2 -642,18 -1815,-23 -2017,-713 -77,-264 -27,-545 277,-670 154,-64 -419,-745 68,-802z"/>
      </clipPath>
      <clipPath id="id12" style="clip-rule:nonzero">
      </clipPath>
      <clipPath id="id13" style="clip-rule:nonzero">
       <path d="M5057 7562c63,98 118,244 163,450 240,1101 1969,-468 1912,1269 -1,24 491,211 567,464 -292,-5 -615,-9 -970,2 -642,18 -1815,-23 -2017,-713 -77,-264 -27,-545 277,-670 154,-64 -419,-745 68,-802z"/>
      </clipPath>
     <clipPath id="id14">
      <path d="M4712 9034c-77,-264 -27,-545 277,-670 190,-79 -726,-1096 605,-724 768,215 1746,-1985 2103,-342 240,1101 1969,-468 1913,1269 -2,42 1521,587 -376,1113 -524,146 -1339,33 -2505,67 -642,18 -1815,-23 -2017,-713z"/>
     </clipPath>
    <clipPath id="id15">
     <path d="M5108 5920l2445 0c159,0 289,130 289,289l0 0c0,158 -130,288 -289,288l-2445 0c-159,0 -288,-130 -288,-288l0 0c0,-159 129,-289 288,-289z"/>
    </clipPath>
    <clipPath id="id16">
     <path d="M5108 5920l2445 0c159,0 289,130 289,289l0 0c0,158 -130,288 -289,288l-2445 0c-159,0 -288,-130 -288,-288l0 0c0,-159 129,-289 288,-289z"/>
    </clipPath>
    <clipPath id="id17">
     <path d="M5674 8852l12 -24c63,-206 865,-121 997,-36 347,225 843,-114 938,-46 0,575 192,348 192,634 0,47 -762,83 -1285,75 -290,-4 -395,-48 -641,-78 -418,-51 -965,133 -851,-17 214,-281 638,-216 638,-508z"/>
    </clipPath>
    <clipPath id="id18">
     <path d="M9222 8811c-57,-130 -195,-152 -312,-91 -3,3 -747,385 -1404,552 19,60 28,124 30,187 1,14 1,28 0,42 503,-26 1050,-194 1520,-342 145,-47 228,-204 166,-348z"/>
    </clipPath>
    <clipPath id="id19">
     <path d="M7490 8384c963,0 1778,108 2048,257l95 -30 0 138c0,119 -337,225 -858,292l0 0 0 0c-358,45 -803,72 -1285,72 -1183,0 -2142,-163 -2142,-364l0 -138 109 22c283,-145 1086,-249 2033,-249z"/>
    </clipPath>
    <clipPath id="id20">
     <path d="M7490 8247c1184,0 2143,163 2143,364 0,202 -959,365 -2143,365 -1183,0 -2142,-163 -2142,-365 0,-201 959,-364 2142,-364z"/>
    </clipPath>
    <clipPath id="id21">
     <path d="M7031 7346l-247 130c0,0 264,35 255,95 -9,59 194,209 194,209l129 233 -55 220 -522 158 -480 -231 13 -252c0,0 13,-325 192,-449 179,-123 420,-119 420,-119l101 6z"/>
    </clipPath>
     <clipPath id="id22">
      <path d="M6699 7909l580 -46 38 69 39 104 -49 197 -522 158 -480 -231 1 -12c181,-111 364,-214 393,-239z"/>
     </clipPath>
     <clipPath id="id23">
      <path d="M7031 7346l-247 130c0,0 264,35 255,95 -9,59 194,209 194,209l129 233 -55 220 -522 158 -480 -231 13 -252c0,0 13,-325 192,-449 179,-123 420,-119 420,-119l101 6z"/>
     </clipPath>
     <clipPath id="id24">
      <path d="M6699 7909l580 -46 38 69 39 104 -49 197 -522 158 -480 -231 1 -12c181,-111 364,-214 393,-239z"/>
     </clipPath>
     <clipPath id="id25">
      <path d="M7031 7346l-247 130c0,0 264,35 255,95 -9,59 194,209 194,209l129 233 -55 220 -522 158 -480 -231 13 -252c0,0 13,-325 192,-449 179,-123 420,-119 420,-119l101 6z"/>
     </clipPath>
    <clipPath id="id26">
     <path d="M7121 6937c16,95 -50,424 -240,313 -50,-29 -106,-123 -106,-123l-144 -174 66 -155 167 -50 127 -47 107 39 23 197z"/>
    </clipPath>
    <clipPath id="id27" style="clip-rule:nonzero">
     <path d="M6882 7160c122,24 197,-132 211,-229 4,-31 27,-95 5,-158 -14,-39 -56,-57 -126,-55 -61,1 -136,33 -166,113 -68,183 -25,308 76,329zm240 -31c21,15 42,44 35,96 89,17 103,54 119,89 32,73 306,732 238,1112 -300,-125 -537,-114 -701,29 -313,271 -825,-179 -826,-230 0,0 18,-51 47,-129 88,-239 273,-733 319,-783 60,-66 109,-57 109,-57 0,0 52,-134 131,-144 -71,-239 -12,-423 39,-533 52,-114 203,-166 379,-74 34,18 107,70 136,172 10,34 16,99 19,132 12,114 -12,251 -44,320z"/>
    </clipPath>
    <clipPath id="id28">
     <path d="M5538 7820l1584 0 218 783c0,0 12,29 -11,33 -22,5 -1302,-24 -1302,-24l-23 -19 -103 -3c0,0 -46,4 -58,-35 -12,-39 -308,-678 -308,-678 0,0 -21,-25 3,-57z"/>
    </clipPath>
    <clipPath id="id29">
     <path d="M9089 8314c27,-34 10,-150 10,-150l-64 -330c-185,-692 -28,-601 -670,-805l-419 -9c-104,33 -404,84 -436,187 -21,68 -100,329 -100,329l-109 407c-86,209 -9,283 104,406 48,52 28,53 89,38 225,-53 560,-5 849,61 134,30 221,128 350,107 142,-23 276,-92 396,-241z"/>
    </clipPath>
    <clipPath id="id30">
     <path d="M8798 8476c57,-125 9,-278 -113,-237l-74 0 -132 50c0,0 -169,67 -178,71 -10,5 -42,40 -42,40l43 79 59 38c203,68 376,92 437,-41z"/>
    </clipPath>
    <clipPath id="id31">
     <path d="M7602 8147c0,0 -52,-22 -79,20 -28,41 -62,70 -62,106 0,35 9,74 9,74l14 58c0,0 -4,9 30,21 33,12 79,15 79,15l123 -12c0,0 45,14 55,-30 10,-44 18,-79 18,-79 0,0 -11,-31 -36,-48 -25,-16 -104,-88 -104,-88l-47 -37z"/>
    </clipPath>
    <clipPath id="id32">
     <path d="M8619 8177l-853 182 22 183 56 -11 23 120 839 -252c0,0 23,-146 -87,-222z"/>
    </clipPath>
  <linearGradient id="id33" gradientUnits="userSpaceOnUse" x1="7558.88" y1="9397.31" x2="6998.26" y2="9397.31">
   <stop offset="0" style="stop-opacity:1; stop-color:#F9B776"/>
   <stop offset="1" style="stop-opacity:1; stop-color:#F47960"/>
  </linearGradient>
  <linearGradient id="id34" gradientUnits="userSpaceOnUse" xlink:href="#id33" x1="6392.16" y1="9366.06" x2="5844.88" y2="9386.98">
  </linearGradient>
  <linearGradient id="id35" gradientUnits="userSpaceOnUse" xlink:href="#id33" x1="9238.17" y1="9406.35" x2="8675.97" y2="9406.35">
  </linearGradient>
  <linearGradient id="id36" gradientUnits="userSpaceOnUse" x1="4312.17" y1="8192.58" x2="4434.67" y2="8363.26">
   <stop offset="0" style="stop-opacity:1; stop-color:#FF94DF"/>
   <stop offset="1" style="stop-opacity:1; stop-color:#C909DB"/>
  </linearGradient>
  <linearGradient id="id37" gradientUnits="userSpaceOnUse" xlink:href="#id33" x1="6094.23" y1="9216.7" x2="5622.91" y2="9397.94">
  </linearGradient>
  <linearGradient id="id38" gradientUnits="userSpaceOnUse" xlink:href="#id36" x1="5972.09" y1="8458.57" x2="6861.37" y2="9697.67">
  </linearGradient>
  <linearGradient id="id39" gradientUnits="userSpaceOnUse" xlink:href="#id36" x1="6242.43" y1="6784.29" x2="7268.95" y2="8214.63">
  </linearGradient>
 </defs>
 <g id="Layer_x0020_1">
  <metadata id="CorelCorpID_0Corel-Layer"/>
  <g id="_799263575792">
   <path class="fil0" d="M7794 6653l-5 -16c-13,-42 -25,-84 -39,-126 -25,-84 -52,-168 -78,-252 -27,-84 -54,-168 -82,-251l7 -3c62,166 118,333 172,500 13,42 26,84 39,126l2 5c45,-50 93,-95 143,-135 24,-19 47,-40 69,-61 -48,-75 -79,-161 -91,-251 -2,-17 -5,-34 -8,-51 -49,-233 -219,-399 -394,-399 -19,0 -38,2 -57,6 -195,41 -309,284 -255,542 11,52 28,102 50,146 71,143 87,307 41,460 -89,291 5,460 128,612 6,-56 14,-113 26,-169 57,-269 176,-504 332,-683zm361 1291l32 -1c62,-250 127,-499 197,-747 17,-61 35,-121 52,-182 -6,-20 -13,-39 -20,-58 -2,7 -4,14 -6,21l-60 209c-38,141 -77,281 -112,422 -18,70 -37,140 -53,211l-30 125zm-738 -2084c2,0 4,0 5,2 2,3 2,7 -1,9 -1,0 -65,53 -103,153 -35,92 -52,245 60,449 2,3 1,7 -2,9 -1,1 -2,1 -4,1 0,0 0,0 -1,0 -2,-1 -3,-2 -4,-4 -115,-208 -97,-365 -61,-460 39,-103 104,-156 107,-158 1,-1 3,-1 4,-1z"/>
   <path class="fil1" d="M8015 8727l10 -51 9 -54 11 -53 23 -107 22 -106c8,-36 16,-71 24,-106 17,-71 32,-142 49,-212 69,-282 142,-563 221,-842 40,-140 80,-279 121,-418l31 -105 31 -104c21,-69 42,-139 64,-208 42,-139 86,-277 130,-416 44,-138 89,-276 134,-414l-12 -4c-101,272 -193,548 -282,824 -23,69 -44,139 -66,208l-32 104 -31 105c-21,69 -42,139 -62,209l-60 209c-38,141 -77,281 -112,422 -18,70 -37,140 -53,211l-50 212c-52,231 -99,463 -137,696 -91,-3 -188,-6 -289,-8 -4,-18 -7,-35 -9,-53 -1,-3 -1,-6 -2,-10 -18,-122 -59,-240 -118,-350 -142,-265 -193,-612 -118,-970 75,-354 258,-649 491,-835 208,-167 346,-407 380,-671 3,-28 8,-56 14,-84 80,-384 360,-658 650,-658 31,0 63,3 94,10 322,67 510,467 421,893 -18,87 -47,168 -83,242 -117,236 -145,506 -68,758 277,905 -519,1097 -687,1724 -6,7 -596,14 -659,12zm1166 -3441c-3,0 -6,2 -8,4 -4,5 -3,11 1,15 2,1 109,88 171,253 57,152 86,404 -100,741 -2,5 -1,12 5,14 1,1 3,2 5,2 0,0 1,0 2,-1 3,0 5,-2 7,-5 190,-344 159,-603 100,-760 -64,-170 -172,-257 -176,-260 -2,-2 -5,-3 -7,-3z"/>
   <g style="clip-path:url(#id0)">
    <polygon class="fil2" points="9001,7166 11056,7166 11056,9578 9001,9578 "/>
   </g>
   <g style="clip-path:url(#id1)">
    <g>
     <path id="1" class="fil3" d="M9413 7452c-27,-44 -117,-65 -167,-38 -68,35 -123,128 -139,172 -24,64 -47,135 -133,198 -177,129 -159,265 -82,384 107,165 327,296 300,325 298,-76 283,-945 221,-1041z"/>
    </g>
   </g>
   <path class="fil4" d="M9316 8407c0,0 -477,-263 -258,-626 0,0 176,-223 366,-282 0,0 -98,540 4,552 102,12 66,-609 66,-609 0,0 500,-245 696,-227 0,0 -307,529 -206,515 102,-13 447,-548 447,-548 0,0 513,-99 598,205 85,304 -48,457 -124,477 -76,19 -564,16 -551,80 13,63 344,162 527,104 0,0 -200,503 -466,479 -267,-24 -350,-188 -515,-200 -165,-11 -286,34 -203,78 83,44 362,12 496,124 134,113 242,182 -5,234 -553,118 -789,-182 -782,-166 -331,319 -267,747 -236,981l-52 -19c-155,-522 96,-978 198,-1152z"/>
   <path class="fil5" d="M4712 9034c-77,-264 -27,-545 277,-670 190,-79 -726,-1096 605,-724 768,215 1746,-1985 2103,-342 240,1101 1969,-468 1913,1269 -2,42 1521,587 -376,1113 -524,146 -1339,33 -2505,67 -642,18 -1815,-23 -2017,-713z"/>
   <g style="clip-path:url(#id2)">
    <g>
    </g>
    <g style="clip-path:url(#id3)">
     <polygon id="1" class="fil2" points="9001,7166 11056,7166 11056,9578 9001,9578 "/>
    </g>
    <g style="clip-path:url(#id4)">
    </g>
    <g style="clip-path:url(#id5)">
     <g>
      <path id="2" class="fil3" d="M9413 7452c-27,-44 -117,-65 -167,-38 -68,35 -123,128 -139,172 -24,64 -47,135 -133,198 -177,129 -159,265 -82,384 107,165 327,296 300,325 298,-76 283,-945 221,-1041z"/>
     </g>
    </g>
    <g style="clip-path:url(#id6)">
     <path class="fil4" d="M9316 8407c0,0 -477,-263 -258,-626 0,0 176,-223 366,-282 0,0 -98,540 4,552 102,12 66,-609 66,-609 0,0 500,-245 696,-227 0,0 -307,529 -206,515 102,-13 447,-548 447,-548 0,0 513,-99 598,205 85,304 -48,457 -124,477 -76,19 -564,16 -551,80 13,63 344,162 527,104 0,0 -200,503 -466,479 -267,-24 -350,-188 -515,-200 -165,-11 -286,34 -203,78 83,44 362,12 496,124 134,113 242,182 -5,234 -553,118 -789,-182 -782,-166 -331,319 -267,747 -236,981l-52 -19c-155,-522 96,-978 198,-1152z"/>
    </g>
    <g style="clip-path:url(#id7)">
     <polygon class="fil6" points="2231,7399 7709,7399 7709,10449 2231,10449 "/>
    </g>
    <g style="clip-path:url(#id8)">
    </g>
    <g style="clip-path:url(#id9)">
     <g>
     </g>
     <g style="clip-path:url(#id10)">
      <polygon id="1" class="fil2" points="9719,9761 11774,9761 11774,12173 9719,12173 "/>
     </g>
     <g style="clip-path:url(#id11)">
     </g>
     <g style="clip-path:url(#id12)">
      <g>
       <path id="2" class="fil3" d="M10132 10047c-28,-44 -118,-65 -168,-38 -67,35 -122,128 -139,171 -24,65 -47,136 -132,199 -177,128 -160,265 -82,384 106,165 326,296 299,325 298,-76 283,-945 222,-1041z"/>
      </g>
     </g>
     <g style="clip-path:url(#id13)">
      <path class="fil4" d="M10035 11002c0,0 -478,-263 -259,-626 0,0 177,-224 367,-282 0,0 -98,540 3,552 102,12 66,-610 66,-610 0,0 500,-244 697,-226 0,0 -308,528 -206,515 101,-13 446,-549 446,-549 0,0 514,-98 598,206 85,304 -47,457 -123,477 -76,19 -565,16 -552,79 13,64 344,163 527,105 0,0 -199,502 -466,479 -267,-24 -350,-188 -515,-200 -165,-11 -285,34 -203,78 83,43 362,12 496,124 134,112 242,182 -5,234 -553,117 -789,-183 -781,-166 -332,319 -267,747 -237,981l-51 -19c-156,-522 96,-979 198,-1152z"/>
     </g>
    </g>
    <g style="clip-path:url(#id14)">
     <path class="fil7" d="M2785 10189c-391,-149 -867,-866 -274,-1110 191,-79 -725,-1097 606,-724 767,214 1745,-1986 2103,-343 240,1101 1969,-468 1912,1269 -1,43 1522,587 -376,1114 -524,145 -1339,-53 -2505,-20 -388,11 -1263,-368 -1466,-186z"/>
    </g>
   </g>
   <path class="fil7" d="M4712 9034c-77,-264 -27,-545 277,-670 190,-79 -726,-1096 605,-724 768,215 1746,-1985 2103,-342 240,1101 1969,-468 1913,1269 -2,42 1521,587 -376,1113 -524,146 -1339,33 -2505,67 -642,18 -1815,-23 -2017,-713z"/>
   <path class="fil8" d="M5890 9271c125,-27 413,-7 413,-7l0 1c11,-5 22,-7 34,-8l48 -1 14 193 -67 4 0 0c0,0 -275,46 -410,44 -13,0 -26,-3 -38,-6 -4,-4 -8,-8 -11,-12 -57,-64 -40,-155 17,-208z"/>
   <path class="fil9" d="M5606 9257c117,-52 403,-92 403,-92l0 1c10,-6 20,-11 32,-14l47 -11 53 186 -65 18 0 0c0,0 -259,101 -392,126 -13,3 -26,3 -38,2 -5,-3 -10,-6 -14,-9 -69,-51 -71,-144 -26,-207z"/>
   <g style="clip-path:url(#id15)">
    <polygon class="fil10" points="4820,5920 7842,5920 7842,6497 4820,6497 "/>
   </g>
   <g style="clip-path:url(#id16)">
    <g>
     <path id="1" class="fil11" d="M7391 5920l634 0c158,0 288,130 288,289l0 0c0,158 -130,288 -288,288l-634 0c-159,0 -288,-130 -288,-288l0 0c0,-159 129,-289 288,-289z"/>
    </g>
   </g>
   <path class="fil7" d="M5108 5920l2445 0c159,0 289,130 289,289l0 0c0,158 -130,288 -289,288l-2445 0c-159,0 -288,-130 -288,-288l0 0c0,-159 129,-289 288,-289z"/>
   <path class="fil12" d="M7445 6089c-4,1 -7,-1 -7,-4 0,-4 2,-7 5,-7 20,-3 39,2 54,13 15,11 25,28 28,47 4,20 -2,39 -13,54 -11,15 -27,26 -47,29 -3,0 -6,-2 -7,-5 0,-3 2,-6 5,-7 17,-2 31,-11 40,-24 9,-12 13,-28 11,-45 -3,-16 -12,-30 -24,-40 -13,-9 -29,-13 -45,-11zm111 45c5,29 -3,57 -19,79 -16,22 -40,38 -69,42 -29,4 -57,-3 -79,-19 -22,-16 -38,-41 -42,-70l0 0 0 0c-5,-29 3,-57 19,-79 16,-21 40,-37 69,-42l1 0 0 0c29,-4 57,4 78,20 22,16 38,40 42,69zm-28 72c14,-20 21,-44 17,-70 -4,-26 -18,-48 -38,-62 -19,-14 -44,-21 -70,-17l0 0c-26,4 -47,18 -61,37 -15,20 -22,45 -18,71l0 0c4,25 18,47 38,61 19,14 44,21 70,17 26,-4 47,-18 62,-37zm6 27l0 0c6,-6 13,-8 20,-8 8,0 15,2 20,8l92 92 0 0c6,5 8,12 8,20 0,7 -2,14 -8,20l0 0 0 0 0 0c-5,5 -13,8 -20,8 -7,0 -14,-3 -20,-8l-92 -92c-5,-6 -8,-13 -8,-20 0,-7 3,-15 8,-20zm9 8l0 0c-3,4 -5,8 -5,12 0,4 2,8 5,12l91 91c4,4 8,5 12,5 4,0 9,-1 12,-5l0 0 0 0 0 0c3,-3 5,-7 5,-11 0,-4 -2,-9 -5,-12l0 0 -92 -92c-3,-3 -7,-4 -12,-4 -4,0 -8,1 -11,4z"/>
   <path class="fil13" d="M7641 5140l188 -133 -303 89 115 44zm218 -142l-214 152 0 0c-1,1 -3,1 -5,1l-131 -51c-2,0 -3,-2 -3,-3 -1,-3 0,-5 3,-6l346 -102c2,0 4,1 5,2 2,3 1,6 -1,7z"/>
   <path class="fil13" d="M7852 4991c2,-2 5,-2 7,-1 2,2 3,5 1,7l-171 241c-2,3 -5,3 -7,1 -1,0 -1,-1 -2,-2l-42 -89c-2,-2 -1,-5 2,-6 2,-2 5,-1 6,2l40 82 166 -235z"/>
   <path class="fil14" d="M10115 6446l98 26 98 27c12,3 21,12 24,24 3,12 0,24 -9,33l-72 71 -72 72c-8,9 -20,12 -32,9 -12,-3 -21,-12 -24,-24l-27 -98 -26 -98c-3,-12 0,-24 9,-33 9,-9 21,-12 33,-9z"/>
   <path class="fil15" d="M4299 8168l82 22 82 22c10,3 17,10 20,20 3,11 0,21 -7,28l-60 60 -61 60c-7,8 -17,10 -27,8 -10,-3 -18,-10 -20,-21l-22 -82 -22 -82c-3,-10 0,-20 7,-27 8,-8 18,-10 28,-8z"/>
   <circle class="fil16" cx="10730" cy="9114" r="104"/>
   <path class="fil17" d="M5674 8852l12 -24c63,-206 865,-121 997,-36 347,225 843,-114 938,-46 0,575 192,348 192,634 0,47 -762,83 -1285,75 -290,-4 -395,-48 -641,-78 -418,-51 -965,133 -851,-17 214,-281 638,-216 638,-508z"/>
   <g style="clip-path:url(#id17)">
    <g>
     <path id="1" class="fil18" d="M5255 9535l93 -140c268,-135 571,-228 919,-267 -479,116 -765,259 -1012,407z"/>
     <path class="fil18" d="M6099 9689l267 -238 314 -82 -343 46c-207,-16 -423,-53 -621,-47l383 321z"/>
    </g>
   </g>
   <path class="fil7" d="M5674 8852l12 -24c63,-206 865,-121 997,-36 347,225 843,-114 938,-46 0,575 192,348 192,634 0,47 -762,83 -1285,75 -290,-4 -395,-48 -641,-78 -418,-51 -965,133 -851,-17 214,-281 638,-216 638,-508z"/>
   <path class="fil19" d="M9187 9305c-125,-29 -413,-14 -413,-14l0 2c-11,-5 -22,-8 -33,-8l-49 -2 -16 193 67 4 0 1c0,0 275,49 410,49 13,0 26,-2 38,-6 4,-3 8,-7 12,-11 57,-63 40,-155 -16,-208z"/>
   <path class="fil20" d="M7053 9289c125,-24 412,0 412,0l1 1c10,-4 22,-7 33,-7l49 0 11 193 -68 3 1 0c0,0 -276,41 -411,37 -14,-1 -26,-3 -38,-7 -4,-4 -8,-8 -11,-12 -56,-64 -37,-156 21,-208z"/>
   <path class="fil21" d="M9222 8811c-57,-130 -195,-152 -312,-91 -3,3 -747,385 -1404,552 19,60 28,124 30,187 1,14 1,28 0,42 503,-26 1050,-194 1520,-342 145,-47 228,-204 166,-348z"/>
   <g style="clip-path:url(#id18)">
    <g>
     <path id="1" class="fil22" d="M8826 9432c-2,-83 27,-89 61,-160 1,-3 3,-7 4,-10 -43,-13 -81,29 -153,4 -633,-363 -949,-423 -1334,-633 -150,-82 -320,-27 -368,150 -42,158 51,293 194,340 426,142 -295,23 -156,68 374,115 1338,300 1766,329 0,-6 -13,-82 -14,-88z"/>
    </g>
   </g>
   <path class="fil7" d="M9222 8811c-57,-130 -195,-152 -312,-91 -3,3 -747,385 -1404,552 19,60 28,124 30,187 1,14 1,28 0,42 503,-26 1050,-194 1520,-342 145,-47 228,-204 166,-348z"/>
   <path class="fil21" d="M8695 9469c-2,-72 12,-140 43,-203 1,-3 2,-5 3,-8 -38,-12 -86,-28 -150,-49 -466,-160 -822,-321 -1162,-506 -132,-72 -282,-24 -324,132 -38,139 45,258 171,300 376,125 180,90 303,130 329,102 740,195 1117,220 0,-5 -1,-10 -1,-16z"/>
   <path class="fil23" d="M7490 8384c963,0 1778,108 2048,257l95 -30 0 138c0,119 -337,225 -858,292l0 0 0 0c-358,45 -803,72 -1285,72 -1183,0 -2142,-163 -2142,-364l0 -138 109 22c283,-145 1086,-249 2033,-249z"/>
   <g style="clip-path:url(#id19)">
    <g>
     <polygon id="1" class="fil24" points="7502,11214 5521,9424 8359,8833 8989,9009 "/>
    </g>
   </g>
   <path class="fil7" d="M7490 8384c963,0 1778,108 2048,257l95 -30 0 138c0,119 -337,225 -858,292l0 0 0 0c-358,45 -803,72 -1285,72 -1183,0 -2142,-163 -2142,-364l0 -138 109 22c283,-145 1086,-249 2033,-249z"/>
   <path class="fil25" d="M7490 8247c1184,0 2143,163 2143,364 0,202 -959,365 -2143,365 -1183,0 -2142,-163 -2142,-365 0,-201 959,-364 2142,-364z"/>
   <g style="clip-path:url(#id20)">
    <g>
     <path id="1" class="fil6" d="M7490 8292c1036,0 1876,143 1876,319 0,177 -840,320 -1876,320 -1036,0 -1876,-143 -1876,-320 0,-176 840,-319 1876,-319z"/>
     <polygon class="fil26" points="6432,8502 6027,8612 5991,8642 5848,8640 5658,8801 5588,8991 6878,9166 6990,8966 7329,8636 "/>
    </g>
   </g>
   <path class="fil7" d="M7490 8247c1184,0 2143,163 2143,364 0,202 -959,365 -2143,365 -1183,0 -2142,-163 -2142,-365 0,-201 959,-364 2142,-364z"/>
   <polygon class="fil27" points="8048,8461 7788,8542 7552,8376 8304,8244 8145,8519 "/>
   <polygon class="fil28" points="7089,8353 7546,8353 7525,8391 7289,8613 6990,8600 6975,8402 "/>
   <path class="fil18" d="M8379 8462c-213,0 -385,35 -385,79 0,43 172,78 385,78 212,0 385,-35 385,-78 0,-44 -173,-79 -385,-79z"/>
   <path class="fil29" d="M7031 7346l-247 130c0,0 264,35 255,95 -9,59 194,209 194,209l129 233 -55 220 -522 158 -480 -231 13 -252c0,0 13,-325 192,-449 179,-123 420,-119 420,-119l101 6z"/>
   <g style="clip-path:url(#id21)">
    <g>
     <path id="1" class="fil18" d="M6668 7930c-56,-196 241,-413 -181,-581l-407 639 243 172 345 -230z"/>
    </g>
    <g style="clip-path:url(#id22)">
     <polygon class="fil30" points="5928,7862 7570,7862 7570,8619 5928,8619 "/>
    </g>
    <g style="clip-path:url(#id23)">
    </g>
    <g style="clip-path:url(#id24)">
     <g>
      <circle class="fil31" transform="matrix(0.199246 -0 0.00558202 0.168256 6574.07 8175.95)" r="389"/>
     </g>
    </g>
    <g style="clip-path:url(#id25)">
     <path class="fil7" d="M6699 7909l591 -47 279 734c15,65 -1387,-23 -1470,-96l-18 -16 -103 -2c0,0 -47,3 -50,-30 -10,-106 712,-492 771,-543z"/>
     <path class="fil32" d="M6636 7909c-56,-196 233,-420 -189,-588l-385 667 243 172 331 -251z"/>
    </g>
   </g>
   <path class="fil7" d="M7031 7346l-247 130c0,0 264,35 255,95 -9,59 194,209 194,209l129 233 -55 220 -522 158 -480 -231 13 -252c0,0 13,-325 192,-449 179,-123 420,-119 420,-119l101 6z"/>
   <path class="fil16" d="M7292 8576l249 -221c0,0 9,-7 9,6 -1,13 -210,270 -210,270l-79 -28 31 -27z"/>
   <polygon class="fil14" points="7091,8394 7443,8394 7269,8538 7065,8538 "/>
   <path class="fil33" d="M7121 6937c16,95 -50,424 -240,313 -50,-29 -106,-123 -106,-123l-144 -174 66 -155 167 -50 127 -47 107 39 23 197z"/>
   <g style="clip-path:url(#id26)">
    <g>
     <ellipse class="fil31" cx="6931" cy="6733" rx="174" ry="73"/>
    </g>
   </g>
   <path class="fil7" d="M7121 6937c16,95 -50,424 -240,313 -50,-29 -106,-123 -106,-123l-144 -174 66 -155 167 -50 127 -47 107 39 23 197z"/>
   <path class="fil34" d="M6882 7160c122,24 197,-132 211,-229 4,-31 27,-95 5,-158 -14,-39 -56,-57 -126,-55 -61,1 -136,33 -166,113 -68,183 -25,308 76,329zm240 -31c21,15 42,44 35,96 89,17 103,54 119,89 32,73 306,732 238,1112 -300,-125 -537,-114 -701,29 -313,271 -825,-179 -826,-230 0,0 18,-51 47,-129 88,-239 273,-733 319,-783 60,-66 109,-57 109,-57 0,0 52,-134 131,-144 -71,-239 -12,-423 39,-533 52,-114 203,-166 379,-74 34,18 107,70 136,172 10,34 16,99 19,132 12,114 -12,251 -44,320z"/>
   <g style="clip-path:url(#id27)">
    <g>
     <polygon id="1" class="fil35" points="6550,8425 6507,8348 6528,7964 "/>
     <polygon class="fil18" points="6735,8166 7282,8394 7154,7740 6533,7820 "/>
     <polygon class="fil18" points="7262,7181 7157,7225 6944,7217 "/>
     <polygon class="fil18" points="6506,7046 6593,7112 6677,7380 "/>
    </g>
   </g>
   <path class="fil4" d="M6882 7160c122,24 197,-132 211,-229 4,-31 27,-95 5,-158 -14,-39 -56,-57 -126,-55 -61,1 -136,33 -166,113 -68,183 -25,308 76,329zm240 -31c21,15 42,44 35,96 89,17 103,54 119,89 32,73 306,732 238,1112 -300,-125 -537,-114 -701,29 -313,271 -825,-179 -826,-230 0,0 18,-51 47,-129 88,-239 273,-733 319,-783 60,-66 109,-57 109,-57 0,0 52,-134 131,-144 -71,-239 -12,-423 39,-533 52,-114 203,-166 379,-74 34,18 107,70 136,172 10,34 16,99 19,132 12,114 -12,251 -44,320z"/>
   <path class="fil16" d="M5538 7820l1584 0 218 783c0,0 12,29 -11,33 -22,5 -1302,-24 -1302,-24l-23 -19 -103 -3c0,0 -46,4 -58,-35 -12,-39 -308,-678 -308,-678 0,0 -21,-25 3,-57z"/>
   <g style="clip-path:url(#id28)">
    <g>
     <circle class="fil31" transform="matrix(0.199246 -0 0.0506923 0.199246 6415.1 8228.5)" r="389"/>
     <path class="fil36" d="M5995 7455c730,-99 1323,14 1323,253 0,239 -593,513 -1323,611 -730,99 -1322,-14 -1322,-253 0,-239 592,-512 1322,-611z"/>
    </g>
   </g>
   <path class="fil7" d="M5538 7820l1584 0 218 783c0,0 12,29 -11,33 -22,5 -1302,-24 -1302,-24l-23 -19 -103 -3c0,0 -46,4 -58,-35 -12,-39 -308,-678 -308,-678 0,0 -21,-25 3,-57z"/>
   <path class="fil18" d="M8802 8649c-178,0 -323,7 -323,15 0,8 145,15 323,15 178,0 322,-7 322,-15 0,-8 -144,-15 -322,-15z"/>
   <path class="fil13" d="M6288 5866c2,2 2,5 0,7 -2,2 -5,1 -7,-1 -154,-186 -122,-311 -36,-382l0 -1c29,-24 65,-42 102,-53 -8,-19 -14,-40 -18,-60 -14,-62 -12,-127 15,-175 53,-94 200,-126 517,51 91,51 280,108 451,91 116,-12 223,-58 283,-164 2,-2 5,-3 7,-2 2,2 3,4 2,7 -63,109 -172,156 -291,168 -173,18 -365,-40 -457,-92 -310,-173 -453,-144 -504,-54 -25,46 -27,108 -14,168 4,20 10,40 18,59 19,-6 39,-10 58,-12 58,-7 110,3 133,27 21,22 16,57 -34,103 -34,32 -75,18 -110,-19 -20,-22 -38,-53 -53,-87 -36,11 -70,28 -99,52l0 0c-82,68 -113,188 37,369zm127 -435c-18,2 -37,5 -56,11 14,33 32,62 51,83 32,34 67,46 97,19 44,-41 50,-71 33,-90 -20,-22 -69,-30 -125,-23z"/>
   <polygon class="fil23" points="5348,8749 5444,8749 5428,10127 5364,10127 "/>
   <polygon class="fil23" points="9536,8749 9633,8749 9616,10127 9553,10127 "/>
   <polygon class="fil37" points="8418,9012 8515,9012 8499,9631 8435,9631 "/>
   <polygon class="fil23" points="6711,9049 6808,9049 6791,9631 6728,9631 "/>
   <path class="fil23" d="M9089 8314c27,-34 10,-150 10,-150l-64 -330c-185,-692 -28,-601 -670,-805l-419 -9c-104,33 -404,84 -436,187 -21,68 -100,329 -100,329l-109 407c-86,209 -9,283 104,406 48,52 28,53 89,38 225,-53 560,-5 849,61 134,30 221,128 350,107 142,-23 276,-92 396,-241z"/>
   <g style="clip-path:url(#id29)">
    <g>
     <polygon id="1" class="fil18" points="7661,8151 7611,8026 7655,7675 7526,8077 "/>
     <polygon class="fil18" points="8738,8170 8685,8239 8792,8176 8721,7809 "/>
     <polygon class="fil18" points="7860,8397 8537,8195 7884,8279 7935,8161 7773,8117 7661,8151 7624,8333 "/>
     <path class="fil38" d="M6991 6647c-354,514 -329,1146 56,1411 385,265 984,63 1338,-451 354,-514 329,-1146 -56,-1411 -385,-265 -984,-63 -1338,451z"/>
    </g>
   </g>
   <path class="fil7" d="M9089 8314c27,-34 10,-150 10,-150l-64 -330c-185,-692 -28,-601 -670,-805l-419 -9c-104,33 -404,84 -436,187 -21,68 -100,329 -100,329l-109 407c-86,209 -9,283 104,406 48,52 28,53 89,38 225,-53 560,-5 849,61 134,30 221,128 350,107 142,-23 276,-92 396,-241z"/>
   <path class="fil33" d="M8798 8476c57,-125 9,-278 -113,-237l-74 0 -132 50c0,0 -169,67 -178,71 -10,5 -42,40 -42,40l43 79 59 38c203,68 376,92 437,-41z"/>
   <g style="clip-path:url(#id30)">
    <g>
     <polygon id="1" class="fil26" points="8262,8430 8706,8399 8200,8640 "/>
    </g>
   </g>
   <path class="fil7" d="M8798 8476c57,-125 9,-278 -113,-237l-74 0 -132 50c0,0 -169,67 -178,71 -10,5 -42,40 -42,40l43 79 59 38c203,68 376,92 437,-41z"/>
   <path class="fil39" d="M9030 8333c0,0 -52,-61 -3,-99 0,0 36,-22 65,-20 0,0 -41,69 -28,76 13,7 40,-81 40,-81 0,0 82,-8 108,5 0,0 -70,57 -55,60 15,4 90,-52 90,-52 0,0 76,13 72,59 -4,46 -30,60 -42,59 -11,-1 -79,-27 -80,-17 -1,9 39,40 67,41 0,0 -53,59 -89,42 -35,-17 -38,-44 -60,-54 -22,-10 -41,-10 -32,0 9,11 49,21 62,43 12,22 24,38 -13,32 -37,-5 -97,-32 -99,-63 0,0 -1,-2 -1,-4l1 4c-8,1 -24,15 -35,26 -2,2 -5,5 -8,8 -2,2 -3,3 -4,4 -23,26 -36,80 -36,80l-8 0c3,-59 47,-91 47,-91 31,-28 41,-58 41,-58z"/>
   <path class="fil40" d="M8976 8192c0,0 -110,-61 -59,-144 0,0 41,-51 85,-64 0,0 -23,124 0,127 23,3 16,-140 16,-140 0,0 115,-56 161,-51 0,0 -72,121 -49,118 24,-3 104,-126 104,-126 0,0 118,-22 137,48 19,70 -12,105 -29,110 -18,4 -130,3 -127,17 3,15 79,38 121,25 0,0 -47,115 -108,110 -61,-6 -80,-44 -118,-47 -38,-3 -66,7 -47,17 19,11 83,4 114,30 31,26 55,42 -1,54 -57,11 -159,4 -180,-40 0,0 -1,-2 -2,-5l2 5c-10,6 -26,36 -37,58 -2,4 -4,9 -8,16l0 0c-1,3 -2,6 -3,8 -20,50 -10,137 -10,137l-12 3c-27,-87 20,-159 20,-159 31,-57 30,-107 30,-107z"/>
   <path class="fil33" d="M7950 6656c0,0 -7,-11 -16,-6 -9,5 -13,34 -13,34l5 55c0,0 3,19 7,18 4,-1 4,-2 4,-2 -19,99 -46,234 -14,329 122,368 367,152 480,-78 0,0 11,9 20,3 22,-13 134,-198 86,-203 -22,-2 -51,-3 -51,-3l-21 -195 -175 -35 -273 -12 -39 95z"/>
   <path class="fil41" d="M8397 6695c0,0 -2,1 -6,2 -21,6 -87,23 -122,20 -41,-5 28,-11 28,-11 0,0 -20,-12 -65,-2 -44,9 -88,27 -129,-5 -18,-14 -63,-88 -63,-88 0,0 4,30 13,42 9,12 -44,2 -60,-26 -16,-28 -6,6 -6,6 0,0 -18,19 -27,69 -9,49 -10,69 -10,69 -23,-149 6,-393 182,-438 102,-26 177,4 189,2 11,-2 89,35 95,75 6,40 15,-10 34,6 19,16 41,36 56,61 14,25 50,95 29,175 -21,80 -44,130 -55,157 -10,26 -79,158 -79,158 0,0 31,-115 15,-132 -17,-16 -35,-44 -35,-44 0,0 -25,-32 16,-96z"/>
   <path class="fil33" d="M7594 8145c100,7 134,15 225,57 0,0 31,17 18,45 -12,29 -26,76 -26,76 0,0 -8,22 -25,11 -17,-12 -47,-50 -47,-50l17 -56c0,0 -12,14 -8,15 3,1 -119,-6 -119,-6l-35 -92z"/>
   <path class="fil21" d="M7510 8013l258 332c0,0 33,38 32,45 -1,7 26,-8 26,-8l-21 -32 -175 -242 -89 -114c-15,-19 -41,4 -31,19z"/>
   <path class="fil33" d="M7602 8147c0,0 -52,-22 -79,20 -28,41 -62,70 -62,106 0,35 9,74 9,74l14 58c0,0 -4,9 30,21 33,12 79,15 79,15l123 -12c0,0 45,14 55,-30 10,-44 18,-79 18,-79 0,0 -11,-31 -36,-48 -25,-16 -104,-88 -104,-88l-47 -37z"/>
   <g style="clip-path:url(#id31)">
    <g>
     <polygon id="1" class="fil42" points="7717,8092 7788,8327 7552,8208 7489,8144 7540,8092 "/>
    </g>
   </g>
   <path class="fil7" d="M7602 8147c0,0 -52,-22 -79,20 -28,41 -62,70 -62,106 0,35 9,74 9,74l14 58c0,0 -4,9 30,21 33,12 79,15 79,15l123 -12c0,0 45,14 55,-30 10,-44 18,-79 18,-79 0,0 -11,-31 -36,-48 -25,-16 -104,-88 -104,-88l-47 -37z"/>
   <path class="fil31" d="M8619 8177l-853 182 22 183 56 -11 23 120 839 -252c0,0 23,-146 -87,-222z"/>
   <g style="clip-path:url(#id32)">
    <g>
     <path id="1" class="fil18 str0" d="M7833 8620l11 -89c-8,-56 -20,-104 -46,-130 32,91 30,159 35,219z"/>
    </g>
   </g>
   <path class="fil7" d="M8619 8177l-853 182 22 183 56 -11 23 120 839 -252c0,0 23,-146 -87,-222z"/>
   <path class="fil40" d="M8848 8263c0,0 83,-47 44,-110 0,0 -31,-39 -64,-49 0,0 18,95 0,97 -18,2 -12,-106 -12,-106 0,0 -87,-43 -122,-39 0,0 54,92 37,89 -18,-2 -79,-95 -79,-95 0,0 -89,-16 -104,37 -14,53 9,79 22,83 14,3 99,2 97,13 -3,11 -60,29 -92,19 0,0 35,87 82,83 46,-5 60,-33 89,-36 29,-2 50,6 36,14 -15,8 -63,2 -87,22 -23,20 -42,32 1,41 44,9 121,3 137,-30 0,0 1,-1 2,-4l-2 4c13,8 37,64 37,64l0 -5c15,39 7,104 7,104l9 2c21,-66 -15,-121 -15,-121 0,0 -3,-3 -6,-6 -18,-39 -17,-71 -17,-71z"/>
   <path class="fil43" d="M8958 8647c118,0 214,-96 214,-214l-429 0c0,118 96,214 215,214z"/>
  </g>
 </g>
</svg>
