<svg xmlns="http://www.w3.org/2000/svg" xml:space="preserve" width="72.29" height="72.231" version="1.1" style="clip-rule:evenodd;fill-rule:evenodd;image-rendering:optimizeQuality;shape-rendering:geometricPrecision;text-rendering:geometricPrecision" viewBox="0 0 1912.641 1911.072" id="svg25"><defs id="defs9"><linearGradient id="id0" gradientUnits="userSpaceOnUse" x1="10552" y1="9563.71" x2="11696.6" y2="9563.71"><stop offset="0" style="stop-opacity:1;stop-color:#f75c4c" id="stop4"/><stop offset="1" style="stop-opacity:1;stop-color:#d62020" id="stop6"/></linearGradient><style type="text/css" id="style2">.fil0{fill:#a70c00}.fil2{fill:#fff;fill-rule:nonzero}</style></defs><g id="Layer_x0020_1" transform="matrix(1.56902 0 0 1.56902 -16440.24 -14108.669)"><path class="fil0" id="polygon12" d="M11697 9543v592l-76 75v-645z"/><path class="fil0" id="polygon14" d="M11145 8992h-593l-74 75h644z"/><path id="polygon16" style="fill:url(#id0)" d="m11546 9985 75 75 76 75v-592l-401-401-76-75-75-75h-593l994 993z"/><path class="fil2" d="M11156 9326c13-13 12-31 2-45h1c13 7 27 6 39-6 20-21 7-45-9-61l-41-41-103 103 41 41c20 20 47 32 70 9zm14-71c-7 7-16 6-26-4l-13-13 21-21 12 12c11 10 13 19 6 26zm-37 44c-10 10-22 3-30-5l-14-14 24-23 14 13c10 11 14 21 6 29z" id="path18"/><path id="1" class="fil2" d="M11214 9384c-9 9-21 10-30 0-5-5-9-12-3-18 8-8 22 2 32 13l3 3zm-12-52c9 0 19 3 26 10 7 8 9 17 2 24l-1 1c-21-21-50-43-71-22-17 17-8 38 4 49 9 9 20 14 30 11v1l-7 7 22 22 36-37c26-26 29-47 5-71-12-12-29-20-45-20z"/><path id="2" class="fil2" d="m11321 9439 18-18-17-17 19-19-24-24-19 19-11-11-18 18 11 12-30 30c-15 16-19 33 0 52 5 5 12 9 16 11l17-18c-2-1-5-3-8-5-7-7-5-13 1-19l28-28z"/><path id="3" class="fil2" d="M11350 9518c-9 9-20 9-30 0-4-5-8-13-3-18 9-9 22 2 33 12l3 3zm-11-53c8 1 18 4 25 11 8 7 10 16 3 23l-1 1c-21-20-50-42-71-21-17 17-8 37 4 49 8 8 20 13 30 11l-8 8 22 22 37-37c26-27 29-48 4-72-12-11-28-19-44-20z"/><path id="4" class="fil2" d="m11496 9499-25-24-109 111 24 24z"/></g></svg>