<?xml version="1.0" encoding="UTF-8" standalone="no"?>
<svg
   xmlns:dc="http://purl.org/dc/elements/1.1/"
   xmlns:cc="http://creativecommons.org/ns#"
   xmlns:rdf="http://www.w3.org/1999/02/22-rdf-syntax-ns#"
   xmlns:svg="http://www.w3.org/2000/svg"
   xmlns="http://www.w3.org/2000/svg"
   xmlns:sodipodi="http://sodipodi.sourceforge.net/DTD/sodipodi-0.dtd"
   xmlns:inkscape="http://www.inkscape.org/namespaces/inkscape"
   xml:space="preserve"
   width="19.126747mm"
   height="19.111057mm"
   version="1.1"
   style="clip-rule:evenodd;fill-rule:evenodd;image-rendering:optimizeQuality;shape-rendering:geometricPrecision;text-rendering:geometricPrecision"
   viewBox="0 0 1912.641 1911.072"
   id="svg25"
   sodipodi:docname="RibbonFailed.svg"
   inkscape:version="1.0.1 (3bc2e813f5, 2020-09-07)"><metadata
   id="metadata29"><rdf:RDF><cc:Work
       rdf:about=""><dc:format>image/svg+xml</dc:format><dc:type
         rdf:resource="http://purl.org/dc/dcmitype/StillImage" /></cc:Work></rdf:RDF></metadata><sodipodi:namedview
   pagecolor="#ffffff"
   bordercolor="#666666"
   borderopacity="1"
   objecttolerance="10"
   gridtolerance="10"
   guidetolerance="10"
   inkscape:pageopacity="0"
   inkscape:pageshadow="2"
   inkscape:window-width="1920"
   inkscape:window-height="1001"
   id="namedview27"
   showgrid="false"
   inkscape:zoom="1.2968776"
   inkscape:cx="-76.026535"
   inkscape:cy="-19.86178"
   inkscape:window-x="-9"
   inkscape:window-y="-9"
   inkscape:window-maximized="1"
   inkscape:current-layer="svg25"
   inkscape:document-rotation="0" />
 <defs
   id="defs9">
  <style
   type="text/css"
   id="style2">
   <![CDATA[
    .fil0 {fill:#A70C00}
    .fil2 {fill:white;fill-rule:nonzero}
    .fil1 {fill:url(#id0)}
   ]]>
  </style>
  <linearGradient
   id="id0"
   gradientUnits="userSpaceOnUse"
   x1="10552"
   y1="9563.71"
   x2="11696.6"
   y2="9563.71">
   <stop
   offset="0"
   style="stop-opacity:1; stop-color:#F75C4C"
   id="stop4" />
   <stop
   offset="1"
   style="stop-opacity:1; stop-color:#D62020"
   id="stop6" />
  </linearGradient>
 </defs>
 <g
   id="Layer_x0020_1"
   transform="matrix(1.5690246,0,0,1.5690246,-16440.24,-14108.669)">
  <metadata
   id="CorelCorpID_0Corel-Layer" />
  <polygon
   class="fil0"
   points="11697,9543 11697,10135 11621,10210 11621,9565 "
   id="polygon12" />
  <polygon
   class="fil0"
   points="11145,8992 10552,8992 10478,9067 11122,9067 "
   id="polygon14" />
  <polygon
   class="fil1"
   points="11546,9985 11621,10060 11621,10060 11697,10135 11697,9543 11296,9142 11296,9142 11220,9067 11145,8992 10552,8992 11546,9985 "
   id="polygon16"
   style="fill:url(#id0)" />
  <path
   class="fil2"
   d="m 11156,9326 c 13,-13 12,-31 2,-45 h 1 c 13,7 27,6 39,-6 20,-21 7,-45 -9,-61 l -41,-41 -103,103 41,41 c 20,20 47,32 70,9 z m 14,-71 c -7,7 -16,6 -26,-4 l -13,-13 21,-21 12,12 c 11,10 13,19 6,26 z m -37,44 c -10,10 -22,3 -30,-5 l -14,-14 24,-23 14,13 c 10,11 14,21 6,29 z"
   id="path18" />
  <path
   id="1"
   class="fil2"
   d="m 11214,9384 c -9,9 -21,10 -30,0 -5,-5 -9,-12 -3,-18 8,-8 22,2 32,13 l 3,3 z m -12,-52 c 9,0 19,3 26,10 7,8 9,17 2,24 l -1,1 c -21,-21 -50,-43 -71,-22 -17,17 -8,38 4,49 9,9 20,14 30,11 v 1 l -7,7 22,22 36,-37 c 26,-26 29,-47 5,-71 -12,-12 -29,-20 -45,-20 z" />
  <path
   id="2"
   class="fil2"
   d="m 11321,9439 18,-18 -17,-17 19,-19 -24,-24 -19,19 -11,-11 -18,18 11,12 -30,30 c -15,16 -19,33 0,52 5,5 12,9 16,11 l 17,-18 c -2,-1 -5,-3 -8,-5 -7,-7 -5,-13 1,-19 l 28,-28 z" />
  <path
   id="3"
   class="fil2"
   d="m 11350,9518 c -9,9 -20,9 -30,0 -4,-5 -8,-13 -3,-18 9,-9 22,2 33,12 l 3,3 z m -11,-53 c 8,1 18,4 25,11 8,7 10,16 3,23 l -1,1 c -21,-20 -50,-42 -71,-21 -17,17 -8,37 4,49 8,8 20,13 30,11 v 0 l -8,8 22,22 37,-37 c 26,-27 29,-48 4,-72 -12,-11 -28,-19 -44,-20 z" />
  <polygon
   id="4"
   class="fil2"
   points="11496,9499 11471,9475 11362,9586 11386,9610 " />
 </g>
</svg>
