<svg xmlns="http://www.w3.org/2000/svg" xml:space="preserve" width="72.277" height="72.159" version="1.1" style="clip-rule:evenodd;fill-rule:evenodd;image-rendering:optimizeQuality;shape-rendering:geometricPrecision;text-rendering:geometricPrecision" viewBox="0 0 1912.306 1909.168" id="svg25"><defs id="defs9"><linearGradient id="id0" gradientUnits="userSpaceOnUse" x1="10723.9" y1="6384.82" x2="11524.7" y2="7185.6"><stop offset="0" style="stop-opacity:1;stop-color:#1abc9c" id="stop4"/><stop offset="1" style="stop-opacity:1;stop-color:#138794" id="stop6"/></linearGradient><style type="text/css" id="style2">.fil0{fill:#185457}.fil2{fill:#fff;fill-rule:nonzero}</style></defs><g id="Layer_x0020_1" transform="matrix(1.56875 0 0 1.56875 -16437.358 -9748.21)"><path class="fil0" id="polygon12" d="m11621 6787 76-23v593l-76 74z"/><path class="fil0" id="polygon14" d="m11122 6289 11-38-581-37-74 75z"/><path id="polygon16" style="fill:url(#id0)" d="M11697 7357v-593l-401-400-76-75-75-75h-593l994 993 75 75z"/><path class="fil2" id="polygon18" d="m11092 6501 81-82-25-25-103 104 65 65 22-22z"/><path id="1" class="fil2" d="m11191 6641 72-73-24-24-39 40c-9 8-20 11-29 3-8-9-3-18 5-27l39-39-24-24-45 45c-14 15-22 37-3 56 10 10 24 13 34 10l-10 10z"/><path id="2" class="fil2" d="m11282 6730 44-45c15-15 23-37 3-56-10-10-24-13-33-9l-1-1 10-10-23-23-72 73 24 24 39-40c8-8 20-11 28-3 9 9 4 18-4 26l-39 40z"/><path id="3" class="fil2" d="M11373 6761c-9 9-21 9-30 0-5-5-9-12-3-18 8-9 21 2 32 12l3 3zm-12-52c9 0 19 3 25 10 8 7 10 16 3 24l-1 1c-21-21-50-43-71-22-17 17-8 38 4 49 8 8 20 13 30 11l-7 8 22 22 36-37c26-26 29-47 4-72-11-11-28-19-44-19z"/><path id="4" class="fil2" d="M11504 6819c0-13-8-28-19-39-14-14-37-23-54-5-14 13-8 30 0 42s11 18 6 23c-5 4-11 1-15-3-7-7-10-17-9-26l-28 1c0 15 9 31 21 43 15 15 37 24 55 6 14-14 8-32-1-45-7-12-10-17-6-21s10-1 15 3c6 6 8 15 9 22z"/></g></svg>