<svg width="72.29" height="72.231" viewBox="0 0 36 35" fill="none" xmlns="http://www.w3.org/2000/svg"><path fill-rule="evenodd" clip-rule="evenodd" d="m32.9 16.479 2.157-.661v17.054L32.901 35V16.479zM18.55 2.157 19.182 0H2.157L0 2.157h18.55z" fill="#D4721B"/><path fill-rule="evenodd" clip-rule="evenodd" d="M21.368 2.157 19.211 0H2.157l28.587 28.558 2.157 2.157 2.156 2.157V15.818L23.525 4.314l-2.157-2.157z" fill="url(#a)"/><path d="M18.233 5.723c.662-.69.374-1.41-.259-2.07L16.883 2.56l-2.963 2.99.72.72 1.121-1.122.345.345c.633.604 1.438.92 2.128.23zm-.747-.719c-.26.288-.604.144-.863-.144l-.288-.287.69-.72.317.317c.259.259.431.575.144.834zM18.205 7.219c.23-.202.604-.202.891.057.259.288.23.604 0 .805l-.891-.862zm1.265 1.783c.719-.72.69-1.582.086-2.186-.632-.633-1.582-.69-2.243 0-.69.69-.575 1.61.058 2.243.431.432.891.575 1.38.49l-.173-.777c-.23.028-.46-.03-.69-.23-.23-.26-.316-.633-.086-.892l1.495 1.495c.058-.057.116-.115.173-.143zM20.965 12.453l1.295-1.294c.431-.403.661-1.036.086-1.611a1.007 1.007 0 0 0-.978-.259l.288-.316-.662-.662-2.1 2.1.72.69 1.121-1.122c.23-.258.576-.345.806-.086.258.23.115.518-.115.748l-1.15 1.15.69.662zM23.726 15.156l3.164-3.163-.69-.69-1.294 1.293c0-.258-.058-.603-.374-.92-.604-.604-1.496-.46-2.071.115-.575.604-.748 1.496-.115 2.128.288.26.69.403 1.006.346h.03l-.288.258.632.633zm.403-1.697c-.288.26-.748.345-1.035.03-.345-.317-.23-.749.028-1.036.26-.26.69-.345 1.036-.029a.755.755 0 0 1-.029 1.035zM27.781 13.66c.23-.2.202-.546 0-.776-.23-.201-.575-.201-.776 0-.201.201-.201.547.029.777.201.201.546.23.747 0zm-2.79 2.704 2.1-2.07-.69-.69-2.1 2.099.69.661zM27.638 18.952l1.265-1.294c.431-.402.662-1.064.086-1.61-.287-.288-.69-.374-.977-.26v-.028l.287-.287-.661-.662-2.071 2.1.69.69 1.122-1.15c.23-.23.575-.317.805-.087.259.259.115.546-.115.776l-1.122 1.122.69.69zM30.571 21.454l1.898-1.898-.661-.632-.26.258a1.185 1.185 0 0 0-.344-1.006c-.633-.604-1.524-.46-2.1.115-.575.575-.69 1.438-.057 2.07.287.288.604.403.891.346l.03.028-.116.115c-.345.346-.776.403-1.179 0a1.536 1.536 0 0 1-.431-.949l-.834.144c.057.49.373 1.035.747 1.41.748.718 1.61.833 2.416 0zm.201-1.495a.729.729 0 0 1-1.035.029c-.316-.317-.23-.748.058-1.036.287-.287.69-.345 1.006-.028.317.287.259.747-.029 1.035z" fill="#fff"/><defs><linearGradient id="a" x1="2.144" y1="16.427" x2="35.062" y2="16.427" gradientUnits="userSpaceOnUse"><stop stop-color="#F1C40F"/><stop offset="1" stop-color="#F1A90F"/></linearGradient></defs></svg>