<svg xmlns="http://www.w3.org/2000/svg" xml:space="preserve" width="15.68" height="17.919" style="shape-rendering:geometricPrecision;text-rendering:geometricPrecision;image-rendering:optimizeQuality;fill-rule:evenodd;clip-rule:evenodd" viewBox="0 0 415 474"><path d="M292 293c-4-3-6-8-4-12s8-6 12-4c18 8 60 34 88 67 18 22 30 47 26 74-3 20-29 35-67 44-26 6-57 10-90 12h-1c-9 1-17 1-26 1-42 2-86-1-124-6-56-8-98-24-104-50-7-26 5-51 23-73 28-34 73-61 91-69 4-2 9 0 11 4s1 10-4 12c-16 8-58 33-85 64-14 18-24 38-19 58 4 17 41 29 89 36 21 3 44 5 67 6l-6-1 123-163zm-20 162c26-2 50-6 71-10 31-8 52-18 54-29 3-21-7-42-23-60-4-6-9-11-14-15l-88 114zM208 37c35 0 67 14 90 37s37 55 37 90-14 67-37 90-55 37-90 37-67-14-90-37-37-55-37-90 14-67 37-90 55-37 90-37zm77 50c-20-20-47-32-77-32s-58 12-78 32c-19 19-32 47-32 77s13 58 32 78c20 19 48 32 78 32s57-13 77-32c20-20 32-48 32-78s-12-58-32-77z" style="fill:#fff;fill-rule:nonzero"/><path d="M98 101c74 14 148 17 220 0l-17-86-94-17-93 17-16 86z" style="fill:#fff"/></svg>