<?xml version="1.0" encoding="UTF-8"?>
<!DOCTYPE svg PUBLIC "-//W3C//DTD SVG 1.1//EN" "http://www.w3.org/Graphics/SVG/1.1/DTD/svg11.dtd">
<!-- Creator: CorelDRAW X7 -->
<svg xmlns="http://www.w3.org/2000/svg" xml:space="preserve" width="4.1486mm" height="4.7412mm" version="1.1" style="shape-rendering:geometricPrecision; text-rendering:geometricPrecision; image-rendering:optimizeQuality; fill-rule:evenodd; clip-rule:evenodd"
viewBox="0 0 415 474"
 xmlns:xlink="http://www.w3.org/1999/xlink">
 <defs>
  <style type="text/css">
   <![CDATA[
    .fil1 {fill:white}
    .fil0 {fill:white;fill-rule:nonzero}
   ]]>
  </style>
 </defs>
 <g id="Layer_x0020_1">
  <metadata id="CorelCorpID_0Corel-Layer"/>
  <g id="_1010061337392">
   <path class="fil0" d="M292 293c-4,-3 -6,-8 -4,-12 2,-4 8,-6 12,-4 18,8 60,34 88,67 18,22 30,47 26,74 -3,20 -29,35 -67,44 -26,6 -57,10 -90,12l0 0 -1 0c-9,1 -17,1 -26,1 -42,2 -86,-1 -124,-6 -56,-8 -98,-24 -104,-50 -7,-26 5,-51 23,-73 28,-34 73,-61 91,-69 4,-2 9,0 11,4 2,4 1,10 -4,12 -16,8 -58,33 -85,64 -14,18 -24,38 -19,58 4,17 41,29 89,36 21,3 44,5 67,6l-6 -1 123 -163zm-20 162c26,-2 50,-6 71,-10 31,-8 52,-18 54,-29 3,-21 -7,-42 -23,-60 -4,-6 -9,-11 -14,-15l-88 114zm-64 -418c35,0 67,14 90,37 23,23 37,55 37,90 0,35 -14,67 -37,90 -23,23 -55,37 -90,37 -35,0 -67,-14 -90,-37 -23,-23 -37,-55 -37,-90 0,-35 14,-67 37,-90 23,-23 55,-37 90,-37zm77 50c-20,-20 -47,-32 -77,-32 -30,0 -58,12 -78,32 -19,19 -32,47 -32,77 0,30 13,58 32,78 20,19 48,32 78,32 30,0 57,-13 77,-32 20,-20 32,-48 32,-78 0,-30 -12,-58 -32,-77z"/>
   <path class="fil1" d="M98 101c74,14 148,17 220,0l-17 -86 -94 -17 -93 17 -16 86z"/>
  </g>
 </g>
</svg>
