<?xml version="1.0" encoding="UTF-8"?>
<!DOCTYPE svg PUBLIC "-//W3C//DTD SVG 1.1//EN" "http://www.w3.org/Graphics/SVG/1.1/DTD/svg11.dtd">
<!-- Creator: CorelDRAW X7 -->
<svg xmlns="http://www.w3.org/2000/svg" xml:space="preserve" width="31.1572mm" height="31.1572mm" version="1.1" style="shape-rendering:geometricPrecision; text-rendering:geometricPrecision; image-rendering:optimizeQuality; fill-rule:evenodd; clip-rule:evenodd"
viewBox="0 0 3116 3116"
 xmlns:xlink="http://www.w3.org/1999/xlink"
 enable-background="new 0 0 24 24">
 <defs>
  <style type="text/css">
   <![CDATA[
    .fil0 {fill:#6E248D}
    .fil1 {fill:#6E248D;fill-rule:nonzero}
   ]]>
  </style>
 </defs>
 <g id="Layer_x0020_1">
  <metadata id="CorelCorpID_0Corel-Layer"/>
  <g id="_291427346416">
   <path class="fil0" d="M1763 1127l117 0 0 -205c-20,-3 -90,-9 -171,-9 -170,0 -286,107 -286,303l0 181 -188 0 0 229 188 0 0 577 229 0 0 -577 180 0 29 -229 -209 0 0 -158c0,-67 18,-112 111,-112l0 0z"/>
   <path class="fil1" d="M1697 2980c38,0 68,31 68,68 0,37 -30,68 -68,68l-749 0c-261,0 -498,-107 -670,-279 -171,-172 -278,-409 -278,-670l0 -1219c0,-261 107,-498 278,-670 172,-171 409,-278 670,-278l1219 0c261,0 498,107 670,278 172,172 279,409 279,670l0 1219c0,261 -107,498 -279,670 -172,172 -409,279 -670,279 -37,0 -67,-31 -67,-68 0,-37 30,-68 67,-68 224,0 427,-91 574,-239 148,-147 239,-350 239,-574l0 -1219c0,-223 -91,-426 -239,-574 -147,-147 -350,-239 -574,-239l-1219 0c-223,0 -426,92 -574,239 -147,148 -239,351 -239,574l0 1219c0,224 92,427 239,574 148,148 351,239 574,239l749 0z"/>
  </g>
 </g>
</svg>
