<svg xmlns="http://www.w3.org/2000/svg" xml:space="preserve" width="117.759" height="117.759" style="shape-rendering:geometricPrecision;text-rendering:geometricPrecision;image-rendering:optimizeQuality;fill-rule:evenodd;clip-rule:evenodd" viewBox="0 0 3116 3116"><defs><style>.fil0{fill:#6e248d;fill-rule:nonzero}</style></defs><g id="Layer_x0020_1"><g id="_291423765728"><path class="fil0" d="M1558 779c215 0 410 87 551 228s228 336 228 551-87 410-228 551-336 228-551 228-410-87-551-228-228-336-228-551 87-410 228-551 336-228 551-228zm455 324c-117-117-277-189-455-189s-339 72-455 189c-117 116-189 277-189 455s72 338 189 455c116 116 277 188 455 188s338-72 455-188c116-117 188-277 188-455s-72-339-188-455z"/><circle cx="2438" cy="813" r="169" style="fill:#6e248d"/><path class="fil0" d="M3116 1697c0 38-31 68-68 68s-68-30-68-68V948c0-223-91-426-239-574-147-147-350-239-574-239H948c-223 0-426 92-574 239-147 148-239 351-239 574v1219c0 224 92 427 239 574 148 148 351 239 574 239h1219c224 0 427-91 574-239 148-147 239-350 239-574 0-37 31-67 68-67s68 30 68 67c0 261-107 498-279 670s-409 279-670 279H948c-261 0-498-107-670-279C107 2665 0 2428 0 2167V948c0-261 107-498 278-670C450 107 687 0 948 0h1219c261 0 498 107 670 278 172 172 279 409 279 670v749z"/></g></g></svg>