<svg xmlns="http://www.w3.org/2000/svg" xml:space="preserve" width="117.759" height="117.759" style="shape-rendering:geometricPrecision;text-rendering:geometricPrecision;image-rendering:optimizeQuality;fill-rule:evenodd;clip-rule:evenodd" viewBox="0 0 3116 3116"><path d="M2014 1730c-66 0-131-11-194-31-30-11-62-4-85 18l-123 92c-132-66-239-173-306-305l91-121c22-22 31-56 21-87-21-63-31-128-31-194 0-48-39-86-86-86h-199c-48 0-86 38-86 86 1 551 447 997 998 998 47 0 86-39 86-86v-199c0-47-39-85-86-85z" style="fill:#6e248d"/><path d="M1697 2980c38 0 68 31 68 68s-30 68-68 68H948c-261 0-498-107-670-279C107 2665 0 2428 0 2167V948c0-261 107-498 278-670C450 107 687 0 948 0h1219c261 0 498 107 670 278 172 172 279 409 279 670v1219c0 261-107 498-279 670s-409 279-670 279c-37 0-67-31-67-68s30-68 67-68c224 0 427-91 574-239 148-147 239-350 239-574V948c0-223-91-426-239-574-147-147-350-239-574-239H948c-223 0-426 92-574 239-147 148-239 351-239 574v1219c0 224 92 427 239 574 148 148 351 239 574 239h749z" style="fill:#6e248d;fill-rule:nonzero"/></svg>