<svg xmlns="http://www.w3.org/2000/svg" xml:space="preserve" width="117.759" height="117.759" style="shape-rendering:geometricPrecision;text-rendering:geometricPrecision;image-rendering:optimizeQuality;fill-rule:evenodd;clip-rule:evenodd" viewBox="0 0 3116 3116"><path d="M1989 1127c-115-115-268-179-431-179s-316 64-431 179-179 268-179 431 64 316 179 431 268 178 431 178 316-63 431-178 178-268 178-431-63-316-178-431zm-812 50c54-53 117-94 185-121-18 23-35 49-51 79-18 34-33 72-47 112-45-8-87-17-124-28 11-14 24-28 37-42zm-81 104c44 14 94 26 149 35-15 65-24 134-26 206h-198c6-86 32-169 75-241zm-3 547c-42-71-67-151-72-234h198c2 69 11 137 26 200-56 9-107 21-152 34zm84 110c-15-15-29-31-42-47 39-11 82-20 129-28 13 41 29 79 47 114 18 32 36 60 56 84-70-26-135-68-190-123zm345 149c-54-15-106-65-147-144-15-27-28-57-39-89 59-7 122-11 186-11v244zm0-316c-71 1-141 6-206 13-14-59-23-124-25-190h231v177zm0-249h-232c3-69 11-135 26-196 65 8 134 13 206 15v181zm0-253c-65-1-127-5-186-12 11-32 24-61 39-89 41-78 93-128 147-143v244zm500 15c42 72 67 153 73 238h-198c-2-71-11-140-26-204 55-9 106-20 151-34zm-84-107c15 15 28 30 41 45-39 11-81 20-127 27-13-41-29-79-48-114-15-30-33-56-51-79 69 27 132 68 185 121zm-344 417h231c-2 67-11 132-26 192-64-8-134-13-205-15v-177zm0-72v-181c71-1 141-5 206-13 15 61 23 126 25 194h-231zm0-497c54 15 105 65 147 143 15 28 28 58 39 90-59 7-122 11-186 12v-245zm0 1062v-244c64 1 127 5 185 12-11 32-23 61-38 88-42 79-93 129-147 144zm344-149c-55 55-119 97-190 123 20-24 39-52 56-84 18-34 34-72 47-112 46 8 89 17 128 28-13 16-26 31-41 45zm83-106c-44-15-95-27-151-36 15-64 24-132 27-202h198c-6 85-31 166-74 238z" style="fill:#6e248d"/><path d="M1697 0c38 0 68 30 68 68 0 37-30 67-68 67H948c-223 0-426 92-574 239-147 148-239 351-239 574v1219c0 224 92 427 239 574 148 148 351 239 574 239h1219c224 0 427-91 574-239 148-147 239-350 239-574V948c0-223-91-426-239-574-147-147-350-239-574-239-37 0-67-30-67-67 0-38 30-68 67-68 261 0 498 107 670 278 172 172 279 409 279 670v1219c0 261-107 498-279 670s-409 279-670 279H948c-261 0-498-107-670-279C107 2665 0 2428 0 2167V948c0-261 107-498 278-670C450 107 687 0 948 0h749z" style="fill:#6e248d;fill-rule:nonzero"/></svg>