<svg xmlns="http://www.w3.org/2000/svg" xml:space="preserve" width="117.759" height="117.759" style="shape-rendering:geometricPrecision;text-rendering:geometricPrecision;image-rendering:optimizeQuality;fill-rule:evenodd;clip-rule:evenodd" viewBox="0 0 3116 3116"><path d="M2110 1281c-13-49-52-88-102-102-90-24-450-24-450-24s-361 0-451 23c-48 14-88 54-101 103-24 90-24 277-24 277s0 188 24 277c13 49 52 88 101 101 91 25 451 25 451 25s360 0 450-24c50-13 89-52 102-101 24-90 24-277 24-277s1-188-24-278zm-667 449 300-172-300-173v345z" style="fill:#6e248d"/><path d="M0 1418c0-37 30-67 68-67 37 0 67 30 67 67v749c0 224 92 427 239 574 148 148 351 239 574 239h1219c224 0 427-91 574-239 148-147 239-350 239-574V948c0-223-91-426-239-574-147-147-350-239-574-239H948c-223 0-426 92-574 239-147 148-239 351-239 574 0 38-30 68-67 68-38 0-68-30-68-68 0-261 107-498 278-670C450 107 687 0 948 0h1219c261 0 498 107 670 278 172 172 279 409 279 670v1219c0 261-107 498-279 670s-409 279-670 279H948c-261 0-498-107-670-279C107 2665 0 2428 0 2167v-749z" style="fill:#6e248d;fill-rule:nonzero"/></svg>