<?xml version="1.0" encoding="UTF-8"?>
<!DOCTYPE svg PUBLIC "-//W3C//DTD SVG 1.1//EN" "http://www.w3.org/Graphics/SVG/1.1/DTD/svg11.dtd">
<!-- Creator: CorelDRAW X7 -->
<svg xmlns="http://www.w3.org/2000/svg" xml:space="preserve" width="31.1572mm" height="31.1572mm" version="1.1" style="shape-rendering:geometricPrecision; text-rendering:geometricPrecision; image-rendering:optimizeQuality; fill-rule:evenodd; clip-rule:evenodd"
viewBox="0 0 3116 3116"
 xmlns:xlink="http://www.w3.org/1999/xlink"
 enable-background="new 0 0 24 24">
 <defs>
  <style type="text/css">
   <![CDATA[
    .fil0 {fill:#6E248D}
    .fil1 {fill:#6E248D;fill-rule:nonzero}
   ]]>
  </style>
 </defs>
 <g id="Layer_x0020_1">
  <metadata id="CorelCorpID_0Corel-Layer"/>
  <g id="_291425026064">
   <path class="fil0" d="M2110 1281c-13,-49 -52,-88 -102,-102 -90,-24 -450,-24 -450,-24 0,0 -361,0 -451,23 -48,14 -88,54 -101,103 -24,90 -24,277 -24,277 0,0 0,188 24,277 13,49 52,88 101,101 91,25 451,25 451,25 0,0 360,0 450,-24 50,-13 89,-52 102,-101 24,-90 24,-277 24,-277 0,0 1,-188 -24,-278zm-667 449l300 -172 -300 -173 0 345z"/>
   <path class="fil1" d="M0 1418c0,-37 30,-67 68,-67 37,0 67,30 67,67l0 749c0,224 92,427 239,574 148,148 351,239 574,239l1219 0c224,0 427,-91 574,-239 148,-147 239,-350 239,-574l0 -1219c0,-223 -91,-426 -239,-574 -147,-147 -350,-239 -574,-239l-1219 0c-223,0 -426,92 -574,239 -147,148 -239,351 -239,574 0,38 -30,68 -67,68 -38,0 -68,-30 -68,-68 0,-261 107,-498 278,-670 172,-171 409,-278 670,-278l1219 0c261,0 498,107 670,278 172,172 279,409 279,670l0 1219c0,261 -107,498 -279,670 -172,172 -409,279 -670,279l-1219 0c-261,0 -498,-107 -670,-279 -171,-172 -278,-409 -278,-670l0 -749z"/>
  </g>
 </g>
</svg>
