<svg xmlns="http://www.w3.org/2000/svg" width="15.658" height="15.046" viewBox="0 0 469.732 451.373" xml:space="preserve"><defs><linearGradient id="a"><stop style="stop-color:#000;stop-opacity:1" offset="0"/><stop style="stop-color:#000;stop-opacity:0" offset="1"/></linearGradient></defs><path fill="#F1C40F" d="m284.914 47.134 31.768 98.53a9.786 9.786 0 0 0 3.306 4.759v.081c1.45 1.046 3.387 1.613 5.564 1.613l103.61-.164v-.08c10.157 0 19.591 3.144 27.333 8.789 7.739 5.563 13.625 13.627 16.854 23.302 3.144 9.677 2.982 19.674 0 28.705-2.904 9.031-8.709 17.175-16.935 23.142v.081l-83.938 60.713h-.081c-1.692 1.211-2.822 2.822-3.386 4.598h-.081c-.482 1.693-.482 3.707.162 5.725l32.252 98.449c3.063 9.674 3.063 19.675.081 28.785-2.984 9.111-8.79 17.256-16.932 23.223l-.082-.081c-8.223 6.048-17.739 9.03-27.253 9.03-9.513 0-19.027-3.063-27.332-9.111h.079l-83.692-61.037c-1.614-1.21-3.548-1.773-5.483-1.773-1.855 0-3.789.563-5.403 1.773l-83.693 61.037c-8.305 6.048-17.819 9.111-27.335 9.111-9.514 0-19.028-2.982-27.253-8.949a47.036 47.036 0 0 1-16.93-23.303c-2.903-9.111-3.067-19.031.08-28.705l32.25-98.449c.647-2.018.647-4.031.081-5.725v-.081c-.563-1.694-1.692-3.306-3.386-4.517h-.081L25.123 235.89c-8.144-5.967-13.95-14.111-16.934-23.223h-.08c-2.903-9.03-2.982-19.027.081-28.624 3.145-9.756 9.112-17.819 16.853-23.383 7.658-5.562 17.175-8.789 27.333-8.709l103.61.164c2.096 0 4.033-.647 5.563-1.694 1.453-1.047 2.581-2.662 3.225-4.678l31.85-98.61c3.144-9.594 9.111-17.658 16.852-23.302v-.081c7.659-5.564 17.172-8.789 27.253-8.789 10.158 0 19.594 3.225 27.333 8.789 7.742 5.565 13.708 13.71 16.852 23.384z" style="fill:#000;fill-opacity:1;stroke-width:.99;stroke-miterlimit:4;stroke-dasharray:none" transform="translate(-5.913 -14.961)"/></svg>