<?xml version="1.0" encoding="utf-8"?>
<!-- Generator: Adobe Illustrator 16.0.3, SVG Export Plug-In . SVG Version: 6.00 Build 0)  -->
<!DOCTYPE svg PUBLIC "-//W3C//DTD SVG 1.1//EN" "http://www.w3.org/Graphics/SVG/1.1/DTD/svg11.dtd">
<svg version="1.1" id="Layer_1" xmlns="http://www.w3.org/2000/svg" xmlns:xlink="http://www.w3.org/1999/xlink" x="0px" y="0px"
	 width="14" height="14" viewBox="0 0 479.998 480" enable-background="new 0 0 479.998 480" xml:space="preserve">
<g id="Layer_x0020_1">
	<path fill="#F1C40F" d="M238.968,373.541c-5.746,0-11.442,1.83-16.426,5.441l-84.212,61.43c-9.916,7.221-22.883,7.271-32.852,0
		c-9.966-7.221-13.933-19.528-10.119-31.274l32.393-99.011c3.814-11.746-0.203-24.054-10.169-31.325l-84.416-61.075
		c-10.02-7.221-13.985-19.476-10.222-31.222c3.814-11.749,14.29-19.325,26.646-19.325l104.198,0.204
		c12.357,0.051,22.834-7.577,26.597-19.323l32.037-99.163c3.763-11.749,14.238-19.376,26.545-19.376V373.541z"/>
	<path fill="#F1C40F" d="M284.363,43.15l31.986,99.214c0.66,1.983,1.78,3.61,3.253,4.678l0.054-0.052
		c1.523,1.12,3.456,1.729,5.542,1.729l104.145-0.203v-0.051c10.223,0,19.732,3.205,27.512,8.798
		c7.781,5.645,13.73,13.729,16.935,23.442v0.052c3.103,9.712,3.001,19.73,0.051,28.833l0,0c-2.999,9.205-8.848,17.391-17.035,23.29
		l-84.415,61.125h-0.102c-1.679,1.171-2.849,2.798-3.408,4.477v0.102c-0.559,1.729-0.508,3.763,0.103,5.746l32.392,99.01
		c3.154,9.713,3.104,19.783,0.102,28.884l0,0c-2.998,9.204-8.796,17.393-17.034,23.342v-0.051c-8.34,6.052-17.9,9.104-27.409,9.104
		c-9.561,0-19.122-3.052-27.411-9.153l-84.16-61.38v0.102c-0.968-0.711-1.882-1.221-2.696-1.476l0,0
		c-0.864-0.254-1.83-0.405-2.796-0.405c-1.882,0-3.813,0.609-5.442,1.779l-84.211,61.38c-8.29,6.102-17.85,9.153-27.41,9.153
		c-9.561,0-19.171-3.052-27.41-9.053c-8.238-5.949-14.085-14.188-17.035-23.393c-2.949-9.101-3.05-19.12,0.101-28.833l32.395-99.01
		c0.661-1.983,0.661-4.018,0.152-5.746h-0.05c-0.56-1.78-1.729-3.407-3.408-4.578h-0.05l-84.416-61.125l0,0
		c-8.239-6-14.138-14.238-17.086-23.29c-2.95-9.052-3.103-19.171,0.102-28.885c3.152-9.713,9.152-17.798,16.883-23.442
		c7.78-5.594,17.289-8.798,27.51-8.798v0.051l104.198,0.203c2.084,0,4.067-0.609,5.492-1.678v-0.052
		c1.475-1.067,2.696-2.745,3.356-4.728l0,0l31.986-99.112c3.154-9.766,9.154-17.901,16.883-23.495
		c7.78-5.645,17.291-8.849,27.461-8.849c10.221,0,19.73,3.204,27.459,8.849v0.05C275.209,25.401,281.209,33.487,284.363,43.15z
		 M280.802,153.755l-32.036-99.163c-0.662-1.983-1.832-3.611-3.255-4.68l-0.051,0.051c-1.476-1.066-3.356-1.678-5.492-1.678
		c-2.084,0-4.017,0.662-5.493,1.729c-1.475,1.069-2.694,2.696-3.306,4.578l-31.985,99.163v0.101
		c-3.154,9.713-9.103,17.799-16.934,23.444v-0.05c-7.78,5.645-17.34,8.847-27.46,8.796l-104.198-0.203v0.101
		c-2.135,0-4.067,0.612-5.543,1.678c-1.473,1.069-2.644,2.697-3.304,4.68c-0.611,1.932-0.611,3.966-0.051,5.695
		c0.559,1.78,1.729,3.408,3.354,4.576h0.102l84.417,61.074v0.051c8.289,6.052,14.085,14.24,17.086,23.292v0.102
		c2.95,9.101,3.001,19.171-0.153,28.833l-32.343,99.01c-0.661,2.034-0.711,4.068-0.153,5.848c0.561,1.628,1.729,3.255,3.458,4.477
		c1.678,1.218,3.61,1.83,5.441,1.83c1.881,0,3.813-0.612,5.441-1.779l84.212-61.38c8.29-6.052,17.901-9.103,27.41-9.103
		c4.83,0,9.662,0.763,14.391,2.338l0.154,0.051c4.575,1.526,8.999,3.765,12.914,6.611v0.103l84.163,61.38
		c1.627,1.167,3.56,1.779,5.441,1.779s3.813-0.56,5.439-1.779v-0.051c1.731-1.222,2.95-2.849,3.458-4.527v-0.052
		c0.561-1.729,0.511-3.762-0.102-5.745l-32.393-99.01c-3.153-9.714-3.103-19.783-0.102-28.935l0,0
		c2.999-9.104,8.85-17.291,17.086-23.292v-0.051l84.415-61.074c1.729-1.22,2.899-2.848,3.459-4.475v-0.102
		c0.56-1.729,0.56-3.763-0.101-5.695l0,0c-0.611-1.983-1.832-3.61-3.307-4.68c-1.474-1.066-3.355-1.678-5.544-1.678v-0.101
		l-104.145,0.203c-10.223,0.051-19.782-3.101-27.512-8.746v-0.05C289.904,171.554,283.905,163.467,280.802,153.755z"/>
</g>
</svg>
