<?xml version="1.0" encoding="UTF-8" standalone="no"?>
<svg
   xmlns:dc="http://purl.org/dc/elements/1.1/"
   xmlns:cc="http://creativecommons.org/ns#"
   xmlns:rdf="http://www.w3.org/1999/02/22-rdf-syntax-ns#"
   xmlns:svg="http://www.w3.org/2000/svg"
   xmlns="http://www.w3.org/2000/svg"
   xmlns:sodipodi="http://sodipodi.sourceforge.net/DTD/sodipodi-0.dtd"
   xmlns:inkscape="http://www.inkscape.org/namespaces/inkscape"
   version="1.1"
   id="Layer_1"
   x="0px"
   y="0px"
   width="15.741353"
   height="15.1271"
   viewBox="0 0 472.23862 453.813"
   enable-background="new 0 0 479.998 480"
   xml:space="preserve"
   sodipodi:docname="StarHalfBlack.svg"
   inkscape:version="1.0.1 (3bc2e813f5, 2020-09-07)"><metadata
   id="metadata12"><rdf:RDF><cc:Work
       rdf:about=""><dc:format>image/svg+xml</dc:format><dc:type
         rdf:resource="http://purl.org/dc/dcmitype/StillImage" /></cc:Work></rdf:RDF></metadata><defs
   id="defs10" /><sodipodi:namedview
   pagecolor="#ffffff"
   bordercolor="#666666"
   borderopacity="1"
   objecttolerance="10"
   gridtolerance="10"
   guidetolerance="10"
   inkscape:pageopacity="0"
   inkscape:pageshadow="2"
   inkscape:window-width="1920"
   inkscape:window-height="1001"
   id="namedview8"
   showgrid="false"
   inkscape:zoom="51.875"
   inkscape:cx="7.77542"
   inkscape:cy="7.6398"
   inkscape:window-x="-9"
   inkscape:window-y="-9"
   inkscape:window-maximized="1"
   inkscape:current-layer="Layer_1"
   inkscape:document-rotation="0" />
<g
   id="Layer_x0020_1"
   style="fill:#000000;fill-opacity:1"
   transform="translate(-3.8458354,-10.806)">
	<path
   fill="#F1C40F"
   d="m 238.968,373.541 c -5.746,0 -11.442,1.83 -16.426,5.441 l -84.212,61.43 c -9.916,7.221 -22.883,7.271 -32.852,0 -9.966,-7.221 -13.933,-19.528 -10.119,-31.274 l 32.393,-99.011 c 3.814,-11.746 -0.203,-24.054 -10.169,-31.325 L 33.167,217.727 C 23.147,210.506 19.182,198.251 22.945,186.505 26.759,174.756 37.235,167.18 49.591,167.18 l 104.198,0.204 c 12.357,0.051 22.834,-7.577 26.597,-19.323 l 32.037,-99.163 c 3.763,-11.749 14.238,-19.376 26.545,-19.376 z"
   id="path2"
   style="fill:#000000;fill-opacity:1" />
	<path
   fill="#F1C40F"
   d="m 284.363,43.15 31.986,99.214 c 0.66,1.983 1.78,3.61 3.253,4.678 l 0.054,-0.052 c 1.523,1.12 3.456,1.729 5.542,1.729 l 104.145,-0.203 v -0.051 c 10.223,0 19.732,3.205 27.512,8.798 7.781,5.645 13.73,13.729 16.935,23.442 v 0.052 c 3.103,9.712 3.001,19.73 0.051,28.833 v 0 c -2.999,9.205 -8.848,17.391 -17.035,23.29 l -84.415,61.125 h -0.102 c -1.679,1.171 -2.849,2.798 -3.408,4.477 v 0.102 c -0.559,1.729 -0.508,3.763 0.103,5.746 l 32.392,99.01 c 3.154,9.713 3.104,19.783 0.102,28.884 v 0 c -2.998,9.204 -8.796,17.393 -17.034,23.342 v -0.051 c -8.34,6.052 -17.9,9.104 -27.409,9.104 -9.561,0 -19.122,-3.052 -27.411,-9.153 l -84.16,-61.38 v 0.102 c -0.968,-0.711 -1.882,-1.221 -2.696,-1.476 v 0 c -0.864,-0.254 -1.83,-0.405 -2.796,-0.405 -1.882,0 -3.813,0.609 -5.442,1.779 l -84.211,61.38 c -8.29,6.102 -17.85,9.153 -27.41,9.153 -9.561,0 -19.171,-3.052 -27.41,-9.053 -8.238,-5.949 -14.085,-14.188 -17.035,-23.393 -2.949,-9.101 -3.05,-19.12 0.101,-28.833 l 32.395,-99.01 c 0.661,-1.983 0.661,-4.018 0.152,-5.746 h -0.05 c -0.56,-1.78 -1.729,-3.407 -3.408,-4.578 h -0.05 L 23.188,232.881 v 0 c -8.239,-6 -14.138,-14.238 -17.086,-23.29 -2.95,-9.052 -3.103,-19.171 0.102,-28.885 3.152,-9.713 9.152,-17.798 16.883,-23.442 7.78,-5.594 17.289,-8.798 27.51,-8.798 v 0.051 l 104.198,0.203 c 2.084,0 4.067,-0.609 5.492,-1.678 v -0.052 c 1.475,-1.067 2.696,-2.745 3.356,-4.728 v 0 L 195.629,43.15 c 3.154,-9.766 9.154,-17.901 16.883,-23.495 7.78,-5.645 17.291,-8.849 27.461,-8.849 10.221,0 19.73,3.204 27.459,8.849 v 0.05 c 7.777,5.696 13.777,13.782 16.931,23.445 z m -3.561,110.605 -32.036,-99.163 c -0.662,-1.983 -1.832,-3.611 -3.255,-4.68 l -0.051,0.051 c -1.476,-1.066 -3.356,-1.678 -5.492,-1.678 -2.084,0 -4.017,0.662 -5.493,1.729 -1.475,1.069 -2.694,2.696 -3.306,4.578 l -31.985,99.163 v 0.101 c -3.154,9.713 -9.103,17.799 -16.934,23.444 v -0.05 c -7.78,5.645 -17.34,8.847 -27.46,8.796 L 50.592,185.843 v 0.101 c -2.135,0 -4.067,0.612 -5.543,1.678 -1.473,1.069 -2.644,2.697 -3.304,4.68 -0.611,1.932 -0.611,3.966 -0.051,5.695 0.559,1.78 1.729,3.408 3.354,4.576 h 0.102 l 84.417,61.074 v 0.051 c 8.289,6.052 14.085,14.24 17.086,23.292 v 0.102 c 2.95,9.101 3.001,19.171 -0.153,28.833 l -32.343,99.01 c -0.661,2.034 -0.711,4.068 -0.153,5.848 0.561,1.628 1.729,3.255 3.458,4.477 1.678,1.218 3.61,1.83 5.441,1.83 1.881,0 3.813,-0.612 5.441,-1.779 l 84.212,-61.38 c 8.29,-6.052 17.901,-9.103 27.41,-9.103 4.83,0 9.662,0.763 14.391,2.338 l 0.154,0.051 c 4.575,1.526 8.999,3.765 12.914,6.611 v 0.103 l 84.163,61.38 c 1.627,1.167 3.56,1.779 5.441,1.779 1.881,0 3.813,-0.56 5.439,-1.779 v -0.051 c 1.731,-1.222 2.95,-2.849 3.458,-4.527 v -0.052 c 0.561,-1.729 0.511,-3.762 -0.102,-5.745 l -32.393,-99.01 c -3.153,-9.714 -3.103,-19.783 -0.102,-28.935 v 0 c 2.999,-9.104 8.85,-17.291 17.086,-23.292 v -0.051 l 84.415,-61.074 c 1.729,-1.22 2.899,-2.848 3.459,-4.475 v -0.102 c 0.56,-1.729 0.56,-3.763 -0.101,-5.695 v 0 c -0.611,-1.983 -1.832,-3.61 -3.307,-4.68 -1.474,-1.066 -3.355,-1.678 -5.544,-1.678 v -0.101 l -104.145,0.203 c -10.223,0.051 -19.782,-3.101 -27.512,-8.746 v -0.05 c -7.776,-5.696 -13.775,-13.783 -16.878,-23.495 z"
   id="path4"
   style="fill:#000000;fill-opacity:1" />
</g>
</svg>
