<?xml version="1.0" encoding="UTF-8" standalone="no"?>
<svg
   xmlns:dc="http://purl.org/dc/elements/1.1/"
   xmlns:cc="http://creativecommons.org/ns#"
   xmlns:rdf="http://www.w3.org/1999/02/22-rdf-syntax-ns#"
   xmlns:svg="http://www.w3.org/2000/svg"
   xmlns="http://www.w3.org/2000/svg"
   xmlns:sodipodi="http://sodipodi.sourceforge.net/DTD/sodipodi-0.dtd"
   xmlns:inkscape="http://www.inkscape.org/namespaces/inkscape"
   xml:space="preserve"
   width="3.6247916mm"
   height="3.4827895mm"
   version="1.1"
   style="clip-rule:evenodd;fill-rule:evenodd;image-rendering:optimizeQuality;shape-rendering:geometricPrecision;text-rendering:geometricPrecision"
   viewBox="0 0 362.41943 348.41772"
   id="svg10"
   sodipodi:docname="StarEmptyClass.svg"
   inkscape:version="1.0.1 (3bc2e813f5, 2020-09-07)"><metadata
   id="metadata14"><rdf:RDF><cc:Work
       rdf:about=""><dc:format>image/svg+xml</dc:format><dc:type
         rdf:resource="http://purl.org/dc/dcmitype/StillImage" /></cc:Work></rdf:RDF></metadata><sodipodi:namedview
   pagecolor="#ffffff"
   bordercolor="#666666"
   borderopacity="1"
   objecttolerance="10"
   gridtolerance="10"
   guidetolerance="10"
   inkscape:pageopacity="0"
   inkscape:pageshadow="2"
   inkscape:window-width="1920"
   inkscape:window-height="1001"
   id="namedview12"
   showgrid="false"
   inkscape:zoom="31.250592"
   inkscape:cx="13.745911"
   inkscape:cy="13.204188"
   inkscape:window-x="-9"
   inkscape:window-y="-9"
   inkscape:window-maximized="1"
   inkscape:current-layer="svg10"
   inkscape:document-rotation="0" />
 <defs
   id="defs4"><style
     type="text/css"
     id="style2">
   <![CDATA[
    .fil0 {fill:#F1C40F;fill-rule:nonzero}
   ]]>
  </style></defs>
 <g
   id="Layer_x0020_1"
   transform="matrix(0.49845167,0,0,0.49845167,-0.24084972,-0.99690334)">
  <metadata
   id="CorelCorpID_0Corel-Layer" />
  <path
   class="fil0"
   d="m 432,52 50,152 c 1,4 3,6 5,8 v 0 c 2,1 5,2 8,2 h 161 v 0 c 15,0 30,5 42,13 12,9 21,22 26,37 v 0 c 5,15 5,30 0,44 v 0 c -4,14 -13,27 -26,36 l -130,94 v 0 c -3,2 -5,4 -5,7 v 0 c -1,3 -1,6 0,9 l 50,152 c 5,15 4,31 0,45 v 0 c -5,14 -14,27 -26,36 v 0 c -13,9 -28,14 -43,14 -14,0 -29,-5 -42,-14 L 373,592 c -3,-2 -6,-3 -9,-3 -3,0 -6,1 -8,3 l -130,95 c -13,9 -28,14 -42,14 -15,0 -30,-5 -42,-14 -13,-9 -22,-22 -27,-36 -4,-14 -4,-30 1,-45 l 49,-152 c 1,-3 1,-6 1,-9 v 0 c -1,-3 -3,-5 -6,-7 v 0 L 30,344 v 0 C 17,335 8,322 4,308 -1,294 -1,279 4,264 9,249 18,236 30,227 42,219 57,214 72,214 v 0 h 161 c 3,0 6,-1 8,-2 v 0 c 3,-2 5,-5 5,-8 h 1 L 296,52 c 5,-15 14,-28 26,-36 12,-9 26,-14 42,-14 16,0 30,5 42,14 v 0 c 12,8 22,21 26,36 z M 427,222 378,69 c -1,-3 -3,-5 -5,-7 v 0 c -3,-1 -6,-2 -9,-2 -3,0 -6,1 -8,2 -3,2 -4,4 -5,7 l -50,153 v 0 c -5,15 -14,28 -26,36 v 0 c -12,9 -26,14 -42,14 H 72 v 0 c -3,0 -6,1 -8,2 -2,2 -4,4 -5,7 -1,3 -1,7 0,9 1,3 2,5 5,7 v 0 l 130,94 v 0 c 13,10 22,22 26,36 v 0 c 5,14 5,30 0,45 l -50,152 c -1,3 -1,7 0,9 1,3 3,5 5,7 3,2 6,3 9,3 3,0 6,-1 8,-3 l 130,-94 c 13,-10 27,-14 42,-14 15,0 30,4 42,14 l 130,94 c 3,2 5,3 8,3 3,0 6,-1 9,-3 v 0 c 2,-2 4,-4 5,-7 v 0 c 1,-2 1,-6 0,-9 L 508,472 c -5,-15 -5,-31 0,-45 v 0 c 4,-14 13,-26 26,-36 v 0 l 130,-94 c 3,-2 5,-4 5,-7 v 0 c 1,-2 1,-6 0,-9 v 0 c -1,-3 -2,-5 -5,-7 -2,-1 -5,-2 -8,-2 v 0 H 495 c -15,0 -30,-5 -42,-14 v 0 c -12,-8 -21,-21 -26,-36 z"
   id="path7" />
 </g>
</svg>
