<svg xmlns="http://www.w3.org/2000/svg" width="16" height="16" viewBox="0 0 479.998 480" xml:space="preserve"><g fill="#F1C40F"><path d="M238.968 373.541c-5.746 0-11.442 1.83-16.426 5.441l-84.212 61.43c-9.916 7.221-22.883 7.271-32.852 0-9.966-7.221-13.933-19.528-10.119-31.274l32.393-99.011c3.814-11.746-.203-24.054-10.169-31.325l-84.416-61.075c-10.02-7.221-13.985-19.476-10.222-31.222 3.814-11.749 14.29-19.325 26.646-19.325l104.198.204c12.357.051 22.834-7.577 26.597-19.323l32.037-99.163c3.763-11.749 14.238-19.376 26.545-19.376v344.019z"/><path d="m284.363 43.15 31.986 99.214c.66 1.983 1.78 3.61 3.253 4.678l.054-.052c1.523 1.12 3.456 1.729 5.542 1.729l104.145-.203v-.051c10.223 0 19.732 3.205 27.512 8.798 7.781 5.645 13.73 13.729 16.935 23.442v.052c3.103 9.712 3.001 19.73.051 28.833-2.999 9.205-8.848 17.391-17.035 23.29l-84.415 61.125h-.102c-1.679 1.171-2.849 2.798-3.408 4.477v.102c-.559 1.729-.508 3.763.103 5.746l32.392 99.01c3.154 9.713 3.104 19.783.102 28.884a46.394 46.394 0 0 1-17.034 23.342v-.051c-8.34 6.052-17.9 9.104-27.409 9.104-9.561 0-19.122-3.052-27.411-9.153l-84.16-61.38v.102c-.968-.711-1.882-1.221-2.696-1.476a10.05 10.05 0 0 0-2.796-.405c-1.882 0-3.813.609-5.442 1.779l-84.211 61.38c-8.29 6.102-17.85 9.153-27.41 9.153-9.561 0-19.171-3.052-27.41-9.053-8.238-5.949-14.085-14.188-17.035-23.393-2.949-9.101-3.05-19.12.101-28.833l32.395-99.01c.661-1.983.661-4.018.152-5.746h-.05c-.56-1.78-1.729-3.407-3.408-4.578h-.05l-84.416-61.125c-8.239-6-14.138-14.238-17.086-23.29-2.95-9.052-3.103-19.171.102-28.885 3.152-9.713 9.152-17.798 16.883-23.442 7.78-5.594 17.289-8.798 27.51-8.798v.051l104.198.203c2.084 0 4.067-.609 5.492-1.678v-.052c1.475-1.067 2.696-2.745 3.356-4.728l31.986-99.112c3.154-9.766 9.154-17.901 16.883-23.495 7.78-5.645 17.291-8.849 27.461-8.849 10.221 0 19.73 3.204 27.459 8.849v.05c7.777 5.696 13.777 13.782 16.931 23.445zm-3.561 110.605-32.036-99.163c-.662-1.983-1.832-3.611-3.255-4.68l-.051.051c-1.476-1.066-3.356-1.678-5.492-1.678-2.084 0-4.017.662-5.493 1.729-1.475 1.069-2.694 2.696-3.306 4.578l-31.985 99.163v.101c-3.154 9.713-9.103 17.799-16.934 23.444v-.05c-7.78 5.645-17.34 8.847-27.46 8.796l-104.198-.203v.101c-2.135 0-4.067.612-5.543 1.678-1.473 1.069-2.644 2.697-3.304 4.68-.611 1.932-.611 3.966-.051 5.695.559 1.78 1.729 3.408 3.354 4.576h.102l84.417 61.074v.051c8.289 6.052 14.085 14.24 17.086 23.292v.102c2.95 9.101 3.001 19.171-.153 28.833l-32.343 99.01c-.661 2.034-.711 4.068-.153 5.848.561 1.628 1.729 3.255 3.458 4.477 1.678 1.218 3.61 1.83 5.441 1.83 1.881 0 3.813-.612 5.441-1.779l84.212-61.38c8.29-6.052 17.901-9.103 27.41-9.103a45.4 45.4 0 0 1 14.391 2.338l.154.051c4.575 1.526 8.999 3.765 12.914 6.611v.103l84.163 61.38c1.627 1.167 3.56 1.779 5.441 1.779s3.813-.56 5.439-1.779v-.051c1.731-1.222 2.95-2.849 3.458-4.527v-.052c.561-1.729.511-3.762-.102-5.745l-32.393-99.01c-3.153-9.714-3.103-19.783-.102-28.935 2.999-9.104 8.85-17.291 17.086-23.292v-.051l84.415-61.074c1.729-1.22 2.899-2.848 3.459-4.475v-.102c.56-1.729.56-3.763-.101-5.695-.611-1.983-1.832-3.61-3.307-4.68-1.474-1.066-3.355-1.678-5.544-1.678v-.101l-104.145.203c-10.223.051-19.782-3.101-27.512-8.746v-.05c-7.776-5.696-13.775-13.783-16.878-23.495z"/></g></svg>