<svg xmlns="http://www.w3.org/2000/svg" xml:space="preserve" width="13.7" height="13.163" style="clip-rule:evenodd;fill-rule:evenodd;image-rendering:optimizeQuality;shape-rendering:geometricPrecision;text-rendering:geometricPrecision" viewBox="0 0 362.419 348.418"><path d="m432 52 50 152c1 4 3 6 5 8 2 1 5 2 8 2h161c15 0 30 5 42 13 12 9 21 22 26 37s5 30 0 44c-4 14-13 27-26 36l-130 94c-3 2-5 4-5 7-1 3-1 6 0 9l50 152c5 15 4 31 0 45-5 14-14 27-26 36-13 9-28 14-43 14-14 0-29-5-42-14l-129-95c-3-2-6-3-9-3s-6 1-8 3l-130 95c-13 9-28 14-42 14-15 0-30-5-42-14-13-9-22-22-27-36-4-14-4-30 1-45l49-152c1-3 1-6 1-9-1-3-3-5-6-7L30 344c-13-9-22-22-26-36-5-14-5-29 0-44s14-28 26-37c12-8 27-13 42-13h161c3 0 6-1 8-2 3-2 5-5 5-8h1l49-152c5-15 14-28 26-36 12-9 26-14 42-14s30 5 42 14c12 8 22 21 26 36zm-5 170L378 69c-1-3-3-5-5-7-3-1-6-2-9-2s-6 1-8 2c-3 2-4 4-5 7l-50 153c-5 15-14 28-26 36-12 9-26 14-42 14H72c-3 0-6 1-8 2-2 2-4 4-5 7s-1 7 0 9c1 3 2 5 5 7l130 94c13 10 22 22 26 36 5 14 5 30 0 45l-50 152c-1 3-1 7 0 9 1 3 3 5 5 7 3 2 6 3 9 3s6-1 8-3l130-94c13-10 27-14 42-14s30 4 42 14l130 94c3 2 5 3 8 3s6-1 9-3c2-2 4-4 5-7 1-2 1-6 0-9l-50-152c-5-15-5-31 0-45 4-14 13-26 26-36l130-94c3-2 5-4 5-7 1-2 1-6 0-9s-2-5-5-7c-2-1-5-2-8-2H495c-15 0-30-5-42-14-12-8-21-21-26-36z" style="fill:#f1c40f;fill-rule:nonzero" transform="translate(-.24 -.997) scale(.49845)"/></svg>