<?xml version="1.0" encoding="UTF-8" standalone="no"?>
<svg
   xmlns:dc="http://purl.org/dc/elements/1.1/"
   xmlns:cc="http://creativecommons.org/ns#"
   xmlns:rdf="http://www.w3.org/1999/02/22-rdf-syntax-ns#"
   xmlns:svg="http://www.w3.org/2000/svg"
   xmlns="http://www.w3.org/2000/svg"
   xmlns:xlink="http://www.w3.org/1999/xlink"
   xmlns:sodipodi="http://sodipodi.sourceforge.net/DTD/sodipodi-0.dtd"
   xmlns:inkscape="http://www.inkscape.org/namespaces/inkscape"
   version="1.1"
   id="Layer_1"
   x="0px"
   y="0px"
   width="15.657813"
   height="15.045767"
   viewBox="0 0 469.73243 451.373"
   enable-background="new 0 0 479.998 480"
   xml:space="preserve"
   sodipodi:docname="StarFullBlack.svg"
   inkscape:version="1.0.1 (3bc2e813f5, 2020-09-07)"><metadata
   id="metadata10"><rdf:RDF><cc:Work
       rdf:about=""><dc:format>image/svg+xml</dc:format><dc:type
         rdf:resource="http://purl.org/dc/dcmitype/StillImage" /></cc:Work></rdf:RDF></metadata><defs
   id="defs8"><linearGradient
     inkscape:collect="always"
     id="linearGradient853"><stop
       style="stop-color:#000000;stop-opacity:1;"
       offset="0"
       id="stop849" /><stop
       style="stop-color:#000000;stop-opacity:0;"
       offset="1"
       id="stop851" /></linearGradient><linearGradient
     inkscape:collect="always"
     xlink:href="#linearGradient853"
     id="linearGradient855"
     x1="5.91225"
     y1="240.64751"
     x2="475.64664"
     y2="240.64751"
     gradientUnits="userSpaceOnUse" /></defs><sodipodi:namedview
   pagecolor="#ffffff"
   bordercolor="#666666"
   borderopacity="1"
   objecttolerance="10"
   gridtolerance="10"
   guidetolerance="10"
   inkscape:pageopacity="0"
   inkscape:pageshadow="2"
   inkscape:window-width="1920"
   inkscape:window-height="1001"
   id="namedview6"
   showgrid="false"
   inkscape:zoom="25.9375"
   inkscape:cx="5.188415"
   inkscape:cy="7.2625879"
   inkscape:window-x="-9"
   inkscape:window-y="-9"
   inkscape:window-maximized="1"
   inkscape:current-layer="Layer_1"
   inkscape:document-rotation="0" />
<g
   id="Layer_x0020_1"
   style="fill:#000000;fill-opacity:1;stroke-width:0.99;stroke-miterlimit:4;stroke-dasharray:none"
   transform="translate(-5.9132499,-14.961)">
	<path
   fill="#F1C40F"
   d="m 284.914,47.134 31.768,98.53 v 0 c 0.646,2.017 1.854,3.63 3.306,4.759 v 0.081 c 1.45,1.046 3.387,1.613 5.564,1.613 l 103.61,-0.164 v -0.08 c 10.157,0 19.591,3.144 27.333,8.789 7.739,5.563 13.625,13.627 16.854,23.302 3.144,9.677 2.982,19.674 0,28.705 -2.904,9.031 -8.709,17.175 -16.935,23.142 v 0.081 l -83.938,60.713 h -0.081 c -1.692,1.211 -2.822,2.822 -3.386,4.598 h -0.081 c -0.482,1.693 -0.482,3.707 0.162,5.725 l 32.252,98.449 c 3.063,9.674 3.063,19.675 0.081,28.785 v 0 c -2.984,9.111 -8.79,17.256 -16.932,23.223 l -0.082,-0.081 c -8.223,6.048 -17.739,9.03 -27.253,9.03 -9.513,0 -19.027,-3.063 -27.332,-9.111 h 0.079 l -83.692,-61.037 c -1.614,-1.21 -3.548,-1.773 -5.483,-1.773 -1.855,0 -3.789,0.563 -5.403,1.773 l -83.693,61.037 c -8.305,6.048 -17.819,9.111 -27.335,9.111 -9.514,0 -19.028,-2.982 -27.253,-8.949 -8.144,-5.967 -13.947,-14.192 -16.93,-23.303 -2.903,-9.111 -3.067,-19.031 0.08,-28.705 l 32.25,-98.449 c 0.647,-2.018 0.647,-4.031 0.081,-5.725 v -0.081 c -0.563,-1.694 -1.692,-3.306 -3.386,-4.517 h -0.081 L 25.123,235.89 C 16.979,229.923 11.173,221.779 8.189,212.667 h -0.08 c -2.903,-9.03 -2.982,-19.027 0.081,-28.624 3.145,-9.756 9.112,-17.819 16.853,-23.383 7.658,-5.562 17.175,-8.789 27.333,-8.709 l 103.61,0.164 c 2.096,0 4.033,-0.647 5.563,-1.694 v 0 c 1.453,-1.047 2.581,-2.662 3.225,-4.678 l 31.85,-98.61 c 3.144,-9.594 9.111,-17.658 16.852,-23.302 V 23.75 c 7.659,-5.564 17.172,-8.789 27.253,-8.789 10.158,0 19.594,3.225 27.333,8.789 7.742,5.565 13.708,13.71 16.852,23.384 z"
   id="path2"
   style="fill:#000000;fill-opacity:1;stroke-width:0.99;stroke-miterlimit:4;stroke-dasharray:none" />
</g>
</svg>
