<?xml version="1.0" encoding="UTF-8" standalone="no"?>
<svg
   xmlns:dc="http://purl.org/dc/elements/1.1/"
   xmlns:cc="http://creativecommons.org/ns#"
   xmlns:rdf="http://www.w3.org/1999/02/22-rdf-syntax-ns#"
   xmlns:svg="http://www.w3.org/2000/svg"
   xmlns="http://www.w3.org/2000/svg"
   xmlns:sodipodi="http://sodipodi.sourceforge.net/DTD/sodipodi-0.dtd"
   xmlns:inkscape="http://www.inkscape.org/namespaces/inkscape"
   width="80.230469pt"
   height="11.246095pt"
   viewBox="0 0 90.230469 15.246095"
   version="1.1"
   id="svg15"
   sodipodi:docname="Star45.svg"
   inkscape:version="1.0.1 (3bc2e813f5, 2020-09-07)">
  <metadata
     id="metadata21">
    <rdf:RDF>
      <cc:Work
         rdf:about="">
        <dc:format>image/svg+xml</dc:format>
        <dc:type
           rdf:resource="http://purl.org/dc/dcmitype/StillImage" />
      </cc:Work>
    </rdf:RDF>
  </metadata>
  <defs
     id="defs19" />
  <sodipodi:namedview
     pagecolor="#ffffff"
     bordercolor="#666666"
     borderopacity="1"
     objecttolerance="10"
     gridtolerance="10"
     guidetolerance="10"
     inkscape:pageopacity="0"
     inkscape:pageshadow="2"
     inkscape:window-width="725"
     inkscape:window-height="480"
     id="namedview17"
     showgrid="false"
     inkscape:zoom="10.125"
     inkscape:cx="60"
     inkscape:cy="10.666667"
     inkscape:window-x="0"
     inkscape:window-y="0"
     inkscape:window-maximized="0"
     inkscape:current-layer="svg15" />
  <g
     id="surface1">
    <path
       style="fill:#f0c20c;fill-opacity:1;fill-rule:evenodd;stroke:none"
       d="m 8.785156,1.261719 1.0625,3.335937 c 0.125,0.378906 0.4375,0.628906 0.875,0.628906 h 3.441406 c 0.4375,0 0.8125,0.253907 0.9375,0.695313 0.125,0.378906 0,0.753906 -0.375,1.007813 l -2.816406,2.078124 c -0.3125,0.253907 -0.4375,0.628907 -0.3125,1.070313 l 1.066406,3.277344 c 0.125,0.441406 0,0.816406 -0.3125,1.070312 -0.378906,0.25 -0.816406,0.25 -1.128906,0 l -2.8125,-2.078125 c -0.3125,-0.253906 -0.75,-0.253906 -1.0625,0 l -2.8125,2.078125 c -0.375,0.25 -0.753906,0.25 -1.128906,0 -0.3125,-0.253906 -0.4375,-0.628906 -0.3125,-1.070312 l 1.066406,-3.277344 c 0.125,-0.441406 0,-0.816406 -0.316406,-1.070313 L 1.03125,6.929688 c -0.375,-0.253907 -0.5,-0.628907 -0.375,-1.007813 0.125,-0.441406 0.5,-0.695313 0.875,-0.695313 h 3.503906 c 0.4375,0 0.75,-0.25 0.875,-0.628906 l 1.0625,-3.335937 c 0.125,-0.378907 0.5,-0.632813 0.875,-0.632813 0.4375,0 0.8125,0.253906 0.9375,0.632813 z m 0,0"
       id="path2" />
    <path
       style="fill:#f0c20c;fill-opacity:1;fill-rule:evenodd;stroke:none"
       d="m 27.355469,1.261719 1.0625,3.335937 c 0.128906,0.378906 0.503906,0.628906 0.878906,0.628906 h 3.5 c 0.375,0 0.75,0.253907 0.875,0.695313 0.125,0.378906 0,0.753906 -0.375,1.007813 l -2.8125,2.078124 c -0.3125,0.253907 -0.4375,0.628907 -0.3125,1.070313 l 1.0625,3.277344 c 0.125,0.441406 0,0.816406 -0.3125,1.070312 -0.3125,0.25 -0.75,0.25 -1.125,0 l -2.816406,-2.078125 c -0.3125,-0.253906 -0.75,-0.253906 -1.0625,0 l -2.8125,2.078125 c -0.3125,0.25 -0.75,0.25 -1.125,0 -0.3125,-0.253906 -0.4375,-0.628906 -0.3125,-1.070312 l 1.0625,-3.277344 c 0.125,-0.441406 0,-0.816406 -0.3125,-1.070313 L 19.601562,6.929688 c -0.375,-0.253907 -0.5,-0.628907 -0.375,-1.007813 0.125,-0.441406 0.5,-0.695313 0.9375,-0.695313 h 3.441407 c 0.4375,0 0.75,-0.25 0.875,-0.628906 l 1.0625,-3.335937 c 0.125,-0.378907 0.5,-0.632813 0.9375,-0.632813 0.375,0 0.75,0.253906 0.875,0.632813 z m 0,0"
       id="path4" />
    <path
       style="fill:#f0c20c;fill-opacity:1;fill-rule:evenodd;stroke:none"
       d="m 45.992188,1.261719 1.0625,3.335937 c 0.125,0.378906 0.4375,0.628906 0.875,0.628906 h 3.5 c 0.375,0 0.75,0.253907 0.875,0.695313 0.125,0.378906 0,0.753906 -0.375,1.007813 l -2.8125,2.078124 c -0.3125,0.253907 -0.4375,0.628907 -0.3125,1.070313 l 1.0625,3.277344 c 0.125,0.441406 0,0.816406 -0.3125,1.070312 -0.375,0.25 -0.75,0.25 -1.125,0 l -2.8125,-2.078125 c -0.3125,-0.253906 -0.75,-0.253906 -1.066407,0 l -2.8125,2.078125 c -0.3125,0.25 -0.75,0.25 -1.125,0 -0.3125,-0.253906 -0.4375,-0.628906 -0.3125,-1.070312 l 1.0625,-3.277344 c 0.125,-0.441406 0,-0.816406 -0.3125,-1.070313 l -2.8125,-2.078124 c -0.375,-0.253907 -0.5,-0.628907 -0.375,-1.007813 0.125,-0.441406 0.5,-0.695313 0.875,-0.695313 h 3.5 c 0.4375,0 0.75,-0.25 0.875,-0.628906 l 1.0625,-3.335937 c 0.125,-0.378907 0.5,-0.632813 0.941407,-0.632813 0.375,0 0.75,0.253906 0.875,0.632813 z m 0,0"
       id="path6" />
    <path
       style="fill:#f0c20c;fill-opacity:1;fill-rule:evenodd;stroke:none"
       d="m 64.625,1.261719 1.0625,3.335937 c 0.125,0.378906 0.4375,0.628906 0.875,0.628906 h 3.441406 c 0.4375,0 0.8125,0.253907 0.9375,0.695313 0.125,0.378906 0,0.753906 -0.375,1.007813 L 67.75,9.007812 c -0.3125,0.253907 -0.4375,0.628907 -0.3125,1.070313 L 68.5,13.355469 c 0.125,0.441406 0,0.816406 -0.3125,1.070312 -0.375,0.25 -0.8125,0.25 -1.125,0 L 64.25,12.347656 c -0.3125,-0.253906 -0.75,-0.253906 -1.0625,0 l -2.816406,2.078125 c -0.375,0.25 -0.75,0.25 -1.125,0 -0.3125,-0.253906 -0.4375,-0.628906 -0.3125,-1.070312 l 1.0625,-3.277344 c 0.125,-0.441406 0,-0.816406 -0.3125,-1.070313 l -2.8125,-2.078124 c -0.375,-0.253907 -0.5,-0.628907 -0.375,-1.007813 0.125,-0.441406 0.5,-0.695313 0.875,-0.695313 h 3.5 c 0.441406,0 0.753906,-0.25 0.878906,-0.628906 l 1.0625,-3.335937 c 0.125,-0.378907 0.5,-0.632813 0.875,-0.632813 0.4375,0 0.8125,0.253906 0.9375,0.632813 z m 0,0"
       id="path8" />
    <path
       style="fill:#f0c20c;fill-opacity:1;fill-rule:evenodd;stroke:none"
       d="m 82.320312,12.15625 c -0.1875,0 -0.375,0.0625 -0.5,0.191406 l -2.8125,2.078125 c -0.375,0.25 -0.8125,0.25 -1.125,0 -0.3125,-0.253906 -0.4375,-0.628906 -0.3125,-1.070312 l 1.0625,-3.277344 c 0.125,-0.441406 0,-0.816406 -0.3125,-1.070313 L 75.503906,6.929688 c -0.375,-0.253907 -0.5,-0.628907 -0.375,-1.007813 0.125,-0.441406 0.5,-0.695313 0.875,-0.695313 h 3.503906 c 0.375,0 0.75,-0.25 0.875,-0.628906 l 1.0625,-3.335937 c 0.125,-0.378907 0.5,-0.632813 0.875,-0.632813 z m 0,0"
       id="path10" />
    <path
       style="fill:#f0c20c;fill-opacity:1;fill-rule:nonzero;stroke:none"
       d="m 83.820312,1.070312 1.0625,3.339844 c 0,0.0625 0.0625,0.125 0.125,0.125 0.0625,0.0625 0.125,0.0625 0.1875,0.0625 h 3.441407 c 0.375,0 0.6875,0.125 0.9375,0.316406 0.25,0.1875 0.4375,0.441407 0.5625,0.753907 0.125,0.378906 0.125,0.695312 0,1.007812 -0.125,0.316407 -0.3125,0.570313 -0.5625,0.757813 l -2.8125,2.078125 c -0.0625,0.0625 -0.125,0.0625 -0.125,0.125 0,0.0625 0,0.128906 0,0.191406 l 1.0625,3.335937 c 0.125,0.316407 0.125,0.695313 0.0625,1.007813 h -0.0625 c -0.0625,0.316406 -0.25,0.570313 -0.5625,0.757813 -0.25,0.1875 -0.5625,0.316406 -0.875,0.316406 -0.3125,0 -0.625,-0.128906 -0.941407,-0.316406 l -2.8125,-2.078126 c -0.0625,0 -0.125,-0.0625 -0.1875,-0.0625 -0.0625,0 -0.125,0.0625 -0.1875,0.0625 l -2.8125,2.078126 c -0.25,0.1875 -0.5625,0.316406 -0.875,0.316406 -0.3125,0 -0.625,-0.128906 -0.9375,-0.316406 -0.25,-0.1875 -0.441406,-0.441407 -0.566406,-0.757813 -0.0625,-0.3125 -0.0625,-0.691406 0,-1.007813 l 1.066406,-3.335937 c 0.0625,-0.0625 0.0625,-0.128906 0.0625,-0.191406 -0.0625,-0.0625 -0.0625,-0.0625 -0.125,-0.125 L 75.128906,7.433594 c -0.3125,-0.1875 -0.5,-0.441406 -0.5625,-0.757813 -0.125,-0.3125 -0.125,-0.628906 0,-1.007812 0.0625,-0.3125 0.25,-0.566407 0.5625,-0.753907 0.25,-0.191406 0.5625,-0.316406 0.875,-0.316406 h 3.503906 c 0.0625,0 0.125,0 0.1875,-0.0625 0.0625,0 0.0625,-0.0625 0.125,-0.125 l 1.0625,-3.339844 c 0.0625,-0.3125 0.3125,-0.566406 0.5625,-0.753906 C 81.695312,0.125 82.007812,0 82.320312,0 c 0.375,0 0.6875,0.125 0.9375,0.316406 0.25,0.1875 0.4375,0.441406 0.5625,0.753906 z m -0.125,3.71875 -1.0625,-3.339843 c 0,-0.0625 -0.0625,-0.125 -0.125,-0.125 -0.0625,-0.0625 -0.125,-0.0625 -0.1875,-0.0625 -0.0625,0 -0.125,0 -0.1875,0.0625 0,0 -0.0625,0.0625 -0.0625,0.125 l -1.0625,3.339843 c -0.125,0.3125 -0.3125,0.628907 -0.5625,0.816407 -0.3125,0.191406 -0.625,0.253906 -0.9375,0.253906 h -3.503906 c -0.0625,0 -0.125,0.0625 -0.1875,0.0625 0,0.0625 -0.0625,0.125 -0.0625,0.1875 -0.0625,0.0625 -0.0625,0.128906 0,0.191406 0,0.0625 0,0.0625 0.0625,0.125 l 2.816406,2.078125 c 0.3125,0.1875 0.5,0.441406 0.625,0.757813 0.0625,0.3125 0.0625,0.628906 -0.0625,1.007812 l -1.0625,3.273438 c 0,0.125 0,0.191406 0,0.253906 0,0 0.0625,0.0625 0.125,0.125 0.0625,0.0625 0.125,0.0625 0.1875,0.0625 0.0625,0 0.125,0 0.1875,-0.0625 l 2.8125,-2.078125 c 0.25,-0.191406 0.5625,-0.316406 0.875,-0.316406 0.3125,0 0.6875,0.125 0.9375,0.316406 l 2.816407,2.078125 c 0.0625,0.0625 0.125,0.0625 0.1875,0.0625 0.0625,0 0.125,0 0.1875,-0.0625 0.0625,-0.0625 0.0625,-0.125 0.125,-0.125 v -0.0625 c 0,0 0,-0.128906 -0.0625,-0.191406 l -1.0625,-3.273438 c -0.0625,-0.378906 -0.0625,-0.695312 0,-1.007812 0.125,-0.316407 0.3125,-0.570313 0.5625,-0.757813 l 2.8125,-2.078125 c 0.0625,-0.0625 0.125,-0.0625 0.125,-0.125 0,-0.0625 0,-0.128906 0,-0.191406 0,-0.0625 -0.0625,-0.125 -0.125,-0.1875 0,0 -0.0625,-0.0625 -0.1875,-0.0625 h -3.441407 c -0.375,0 -0.6875,-0.0625 -0.9375,-0.253906 -0.25,-0.1875 -0.4375,-0.503907 -0.5625,-0.816407 z M 65.1875,1.070312 66.25,4.410156 c 0.0625,0.0625 0.0625,0.125 0.125,0.125 0.0625,0.0625 0.125,0.0625 0.1875,0.0625 h 3.441406 c 0.375,0 0.6875,0.125 0.9375,0.316406 0.25,0.1875 0.4375,0.441407 0.5625,0.753907 0.125,0.378906 0.125,0.695312 0,1.007812 -0.0625,0.316407 -0.25,0.570313 -0.5625,0.757813 L 68.125,9.511719 c -0.0625,0.0625 -0.0625,0.0625 -0.125,0.125 0,0.0625 0,0.128906 0,0.191406 l 1.128906,3.335937 c 0.0625,0.316407 0.0625,0.695313 0,1.007813 C 69,14.488281 68.8125,14.742188 68.5625,14.929688 H 68.5 c -0.25,0.1875 -0.5625,0.316406 -0.875,0.316406 -0.3125,0 -0.625,-0.128906 -0.9375,-0.316406 L 63.875,12.851562 c -0.0625,0 -0.125,-0.0625 -0.1875,-0.0625 -0.0625,0 -0.125,0.0625 -0.125,0.0625 l -2.816406,2.078126 c -0.3125,0.1875 -0.625,0.316406 -0.9375,0.316406 -0.3125,0 -0.625,-0.128906 -0.9375,-0.316406 -0.25,-0.1875 -0.4375,-0.441407 -0.5625,-0.757813 -0.0625,-0.3125 -0.0625,-0.691406 0,-1.007813 l 1.125,-3.335937 c 0,-0.0625 0,-0.128906 0,-0.191406 -0.0625,-0.0625 -0.0625,-0.0625 -0.125,-0.125 l -2.8125,-2.078125 c -0.3125,-0.1875 -0.5,-0.441406 -0.5625,-0.757813 -0.125,-0.3125 -0.125,-0.628906 0,-1.007812 0.0625,-0.3125 0.3125,-0.566407 0.5625,-0.753907 0.25,-0.191406 0.5625,-0.316406 0.875,-0.316406 h 3.5 c 0.0625,0 0.128906,0 0.191406,-0.0625 0.0625,0 0.0625,-0.0625 0.125,-0.125 L 62.25,1.070312 C 62.3125,0.757812 62.5625,0.503906 62.8125,0.316406 63.0625,0.125 63.375,0 63.6875,0 c 0.375,0 0.6875,0.125 0.9375,0.316406 0.25,0.1875 0.4375,0.441406 0.5625,0.753906 z M 65.0625,4.789062 64,1.449219 c 0,-0.0625 -0.0625,-0.125 -0.125,-0.125 0,-0.0625 -0.0625,-0.0625 -0.1875,-0.0625 -0.0625,0 -0.125,0 -0.1875,0.0625 0,0 -0.0625,0.0625 -0.0625,0.125 L 62.375,4.789062 C 62.25,5.101562 62.0625,5.417969 61.8125,5.605469 61.5,5.796875 61.1875,5.859375 60.871094,5.859375 h -3.5 c -0.0625,0 -0.125,0.0625 -0.1875,0.0625 0,0.0625 -0.0625,0.125 -0.0625,0.1875 -0.0625,0.0625 -0.0625,0.128906 0,0.191406 0,0.0625 0.0625,0.0625 0.0625,0.125 l 2.875,2.078125 c 0.25,0.1875 0.4375,0.441406 0.5625,0.757813 0.0625,0.3125 0.0625,0.628906 0,1.007812 l -1.125,3.273438 c 0,0.125 0,0.191406 0,0.253906 0.0625,0 0.0625,0.0625 0.125,0.125 0.0625,0.0625 0.125,0.0625 0.1875,0.0625 0.0625,0 0.125,0 0.1875,-0.0625 L 62.8125,11.84375 c 0.25,-0.191406 0.5625,-0.316406 0.875,-0.316406 0.375,0 0.6875,0.125 0.9375,0.316406 l 2.8125,2.078125 c 0.0625,0.0625 0.125,0.0625 0.1875,0.0625 0.0625,0 0.125,0 0.1875,-0.0625 0.0625,-0.0625 0.0625,-0.125 0.125,-0.125 v -0.0625 c 0,0 0,-0.128906 0,-0.191406 l -1.125,-3.273438 C 66.75,9.890625 66.75,9.574219 66.8125,9.261719 66.9375,8.945312 67.125,8.691406 67.375,8.503906 l 2.816406,-2.078125 c 0.0625,-0.0625 0.125,-0.0625 0.125,-0.125 0.0625,-0.0625 0.0625,-0.128906 0,-0.191406 0,-0.0625 -0.0625,-0.125 -0.125,-0.1875 0,0 -0.0625,-0.0625 -0.1875,-0.0625 H 66.5625 c -0.375,0 -0.6875,-0.0625 -0.9375,-0.253906 -0.25,-0.1875 -0.4375,-0.503907 -0.5625,-0.816407 z m -18.507812,-3.71875 1.0625,3.339844 c 0.0625,0.0625 0.0625,0.125 0.125,0.125 0.0625,0.0625 0.125,0.0625 0.1875,0.0625 h 3.5 c 0.3125,0 0.625,0.125 0.875,0.316406 0.25,0.1875 0.5,0.441407 0.566406,0.753907 0.125,0.378906 0.125,0.695312 0,1.007812 -0.06641,0.316407 -0.253906,0.570313 -0.566406,0.757813 l -2.8125,2.078125 c -0.0625,0.0625 -0.0625,0.0625 -0.125,0.125 0,0.0625 0,0.128906 0,0.191406 l 1.125,3.335937 c 0.0625,0.316407 0.0625,0.695313 0,1.007813 -0.125,0.316406 -0.3125,0.570313 -0.5625,0.757813 -0.3125,0.1875 -0.625,0.316406 -0.9375,0.316406 -0.3125,0 -0.625,-0.128906 -0.9375,-0.316406 l -2.8125,-2.078126 c 0,0 -0.0625,-0.0625 -0.125,-0.0625 -0.0625,0 -0.1875,0.0625 -0.1875,0.0625 l -2.816407,2.078126 c -0.3125,0.1875 -0.625,0.316406 -0.9375,0.316406 -0.3125,0 -0.625,-0.128906 -0.9375,-0.316406 -0.25,-0.1875 -0.4375,-0.441407 -0.5625,-0.757813 -0.0625,-0.3125 -0.0625,-0.691406 0,-1.007813 l 1.125,-3.335937 c 0,-0.0625 0,-0.128906 0,-0.191406 -0.0625,-0.0625 -0.0625,-0.0625 -0.125,-0.125 l -2.8125,-2.078125 c -0.3125,-0.1875 -0.5,-0.441406 -0.5625,-0.757813 -0.125,-0.3125 -0.125,-0.628906 0,-1.007812 0.0625,-0.3125 0.3125,-0.566407 0.5625,-0.753907 0.25,-0.191406 0.5625,-0.316406 0.875,-0.316406 h 3.5 c 0.0625,0 0.125,0 0.1875,-0.0625 0.0625,0 0.0625,-0.0625 0.125,-0.125 l 1.0625,-3.339844 c 0.125,-0.3125 0.3125,-0.566406 0.5625,-0.753906 C 44.425781,0.125 44.742188,0 45.117188,0 c 0.3125,0 0.625,0.125 0.875,0.316406 0.25,0.1875 0.5,0.441406 0.5625,0.753906 z m -0.125,3.71875 -1.0625,-3.339843 c 0,-0.0625 -0.0625,-0.125 -0.125,-0.125 0,-0.0625 -0.0625,-0.0625 -0.125,-0.0625 -0.125,0 -0.1875,0 -0.1875,0.0625 -0.0625,0 -0.125,0.0625 -0.125,0.125 l -1.066407,3.339843 c -0.125,0.3125 -0.3125,0.628907 -0.5625,0.816407 -0.25,0.191406 -0.625,0.253906 -0.9375,0.253906 h -3.5 c -0.0625,0 -0.125,0.0625 -0.125,0.0625 -0.0625,0.0625 -0.125,0.125 -0.125,0.1875 -0.0625,0.0625 -0.0625,0.128906 0,0.191406 0,0.0625 0.0625,0.0625 0.125,0.125 l 2.8125,2.078125 c 0.25,0.1875 0.4375,0.441406 0.5625,0.757813 0.0625,0.3125 0.0625,0.628906 0,1.007812 l -1.125,3.273438 c 0,0.0625 0,0.191406 0,0.191406 v 0.0625 c 0.0625,0 0.0625,0.0625 0.125,0.125 0.0625,0.0625 0.125,0.0625 0.1875,0.0625 0.0625,0 0.125,0 0.1875,-0.0625 l 2.8125,-2.078125 c 0.25,-0.191406 0.566407,-0.316406 0.941407,-0.316406 0.3125,0 0.625,0.125 0.875,0.316406 l 2.8125,2.078125 c 0.0625,0.0625 0.125,0.0625 0.1875,0.0625 0.0625,0 0.125,0 0.1875,-0.0625 0.0625,-0.0625 0.0625,-0.125 0.125,-0.125 v -0.0625 c 0,0 0,-0.128906 0,-0.191406 l -1.125,-3.273438 c -0.0625,-0.378906 -0.0625,-0.695312 0,-1.007812 0.125,-0.316407 0.3125,-0.570313 0.5625,-0.757813 l 2.8125,-2.078125 c 0.0625,-0.0625 0.125,-0.0625 0.125,-0.125 0.0625,-0.0625 0.0625,-0.128906 0,-0.191406 0,-0.0625 -0.0625,-0.125 -0.0625,-0.1875 -0.0625,0 -0.125,-0.0625 -0.1875,-0.0625 h -3.5 c -0.3125,0 -0.6875,-0.0625 -0.9375,-0.253906 -0.25,-0.1875 -0.4375,-0.503907 -0.5625,-0.816407 z m -18.511719,-3.71875 1.066406,3.339844 c 0.0625,0.0625 0.0625,0.125 0.125,0.125 0.0625,0.0625 0.125,0.0625 0.1875,0.0625 h 3.5 c 0.3125,0 0.625,0.125 0.875,0.316406 0.25,0.1875 0.5,0.441407 0.5625,0.753907 0.125,0.378906 0.125,0.695312 0,1.007812 -0.0625,0.316407 -0.25,0.570313 -0.5625,0.757813 l -2.8125,2.078125 c -0.0625,0.0625 -0.0625,0.0625 -0.125,0.125 0,0.0625 0,0.128906 0,0.191406 l 1.125,3.335937 c 0.0625,0.316407 0.0625,0.695313 0,1.007813 -0.125,0.316406 -0.3125,0.570313 -0.5625,0.757813 -0.3125,0.1875 -0.625,0.316406 -0.9375,0.316406 -0.3125,0 -0.625,-0.128906 -0.9375,-0.316406 l -2.753906,-2.078126 c -0.0625,0 -0.125,-0.0625 -0.1875,-0.0625 -0.0625,0 -0.125,0.0625 -0.1875,0.0625 l -2.8125,2.078126 c -0.3125,0.1875 -0.625,0.316406 -0.9375,0.316406 -0.3125,0 -0.625,-0.128906 -0.875,-0.316406 -0.3125,-0.1875 -0.5,-0.441407 -0.625,-0.757813 -0.0625,-0.3125 -0.0625,-0.691406 0.0625,-1.007813 l 1.0625,-3.335937 c 0,-0.0625 0,-0.128906 0,-0.191406 0,-0.0625 -0.0625,-0.0625 -0.125,-0.125 L 19.226562,7.433594 c -0.25,-0.1875 -0.5,-0.441406 -0.5625,-0.757813 -0.125,-0.3125 -0.125,-0.628906 0,-1.007812 0.125,-0.3125 0.3125,-0.566407 0.5625,-0.753907 0.25,-0.191406 0.5625,-0.316406 0.9375,-0.316406 h 3.441407 c 0.0625,0 0.125,0 0.1875,-0.0625 0.0625,0 0.125,-0.0625 0.125,-0.125 l 1.0625,-3.339844 c 0.125,-0.3125 0.3125,-0.566406 0.5625,-0.753906 C 25.792969,0.125 26.105469,0 26.480469,0 c 0.3125,0 0.625,0.125 0.875,0.316406 0.25,0.1875 0.5,0.441406 0.5625,0.753906 z m -0.125,3.71875 -1.0625,-3.339843 c 0,-0.0625 -0.0625,-0.125 -0.0625,-0.125 -0.0625,-0.0625 -0.125,-0.0625 -0.1875,-0.0625 -0.125,0 -0.1875,0 -0.1875,0.0625 -0.0625,0 -0.125,0.0625 -0.125,0.125 l -1.0625,3.339843 c -0.125,0.3125 -0.3125,0.628907 -0.5625,0.816407 -0.25,0.191406 -0.5625,0.253906 -0.9375,0.253906 h -3.441407 c -0.0625,0 -0.1875,0.0625 -0.1875,0.0625 -0.0625,0.0625 -0.125,0.125 -0.125,0.1875 0,0.0625 0,0.128906 0,0.191406 0,0.0625 0.0625,0.0625 0.125,0.125 l 2.816407,2.078125 c 0.25,0.1875 0.4375,0.441406 0.5625,0.757813 0.0625,0.3125 0.0625,0.628906 0,1.007812 l -1.125,3.273438 c 0,0.125 0,0.191406 0,0.253906 0.0625,0 0.0625,0.0625 0.125,0.125 0.0625,0.0625 0.125,0.0625 0.1875,0.0625 0.0625,0 0.125,0 0.1875,-0.0625 l 2.8125,-2.078125 c 0.25,-0.191406 0.625,-0.316406 0.9375,-0.316406 0.3125,0 0.625,0.125 0.875,0.316406 l 2.816406,2.078125 c 0.0625,0.0625 0.125,0.0625 0.1875,0.0625 0.0625,0 0.125,0 0.1875,-0.0625 0.0625,-0.0625 0.125,-0.125 0.125,-0.125 v -0.0625 c 0,0 0,-0.128906 0,-0.191406 l -1.125,-3.273438 c -0.0625,-0.378906 -0.0625,-0.695312 0,-1.007812 0.125,-0.316407 0.3125,-0.570313 0.625,-0.757813 l 2.8125,-2.078125 c 0.0625,-0.0625 0.0625,-0.0625 0.0625,-0.125 0.0625,-0.0625 0.0625,-0.128906 0,-0.191406 0,-0.0625 -0.0625,-0.125 -0.0625,-0.1875 -0.0625,0 -0.125,-0.0625 -0.1875,-0.0625 h -3.5 c -0.3125,0 -0.625,-0.0625 -0.941406,-0.253906 -0.25,-0.1875 -0.4375,-0.503907 -0.5625,-0.816407 z m -18.445313,-3.71875 1.0625,3.339844 c 0.0625,0.0625 0.0625,0.125 0.125,0.125 0.0625,0.0625 0.125,0.0625 0.1875,0.0625 h 3.441406 c 0.375,0 0.6875,0.125 0.9375,0.316406 0.25,0.1875 0.4375,0.441407 0.5625,0.753907 0.125,0.378906 0.125,0.695312 0,1.007812 -0.0625,0.316407 -0.25,0.570313 -0.5625,0.757813 l -2.8125,2.078125 c -0.0625,0.0625 -0.0625,0.0625 -0.128906,0.125 0,0.0625 0,0.128906 0,0.191406 l 1.128906,3.335937 c 0.0625,0.316407 0.0625,0.695313 0,1.007813 -0.125,0.316406 -0.3125,0.570313 -0.5625,0.757813 -0.3125,0.1875 -0.628906,0.316406 -0.941406,0.316406 -0.3125,0 -0.625,-0.128906 -0.9375,-0.316406 l -2.8125,-2.078126 c -0.0625,0 -0.125,-0.0625 -0.1875,-0.0625 -0.0625,0 -0.125,0.0625 -0.125,0.0625 l -2.8125,2.078126 c -0.3125,0.1875 -0.625,0.316406 -0.941406,0.316406 -0.3125,0 -0.625,-0.128906 -0.9375,-0.316406 -0.25,-0.1875 -0.4375,-0.441407 -0.5625,-0.757813 -0.0625,-0.3125 -0.0625,-0.691406 0,-1.007813 l 1.125,-3.335937 c 0,-0.0625 0,-0.128906 0,-0.191406 -0.0625,-0.0625 -0.0625,-0.0625 -0.125,-0.125 L 0.65625,7.433594 c -0.3125,-0.1875 -0.5,-0.441406 -0.5625,-0.757813 -0.125,-0.3125 -0.125,-0.628906 0,-1.007812 0.0625,-0.3125 0.3125,-0.566407 0.5625,-0.753907 0.25,-0.191406 0.5625,-0.316406 0.875,-0.316406 h 3.503906 c 0.0625,0 0.125,0 0.1875,-0.0625 0.0625,0 0.0625,-0.0625 0.125,-0.125 l 1.0625,-3.339844 c 0.0625,-0.3125 0.3125,-0.566406 0.5625,-0.753906 C 7.222656,0.125 7.535156,0 7.847656,0 c 0.375,0 0.6875,0.125 0.9375,0.316406 0.25,0.1875 0.4375,0.441406 0.5625,0.753906 z m -0.125,3.71875 -1.0625,-3.339843 c 0,-0.0625 -0.0625,-0.125 -0.125,-0.125 0,-0.0625 -0.0625,-0.0625 -0.1875,-0.0625 -0.0625,0 -0.125,0 -0.125,0.0625 h -0.0625 c 0,0 -0.0625,0.0625 -0.0625,0.125 l -1.0625,3.339843 c -0.125,0.3125 -0.3125,0.628907 -0.5625,0.816407 -0.25,0.191406 -0.625,0.253906 -0.9375,0.253906 H 1.53125 c -0.0625,0 -0.125,0.0625 -0.1875,0.0625 0,0.0625 -0.0625,0.125 -0.0625,0.1875 -0.0625,0.0625 -0.0625,0.128906 0,0.191406 0,0.0625 0.0625,0.0625 0.0625,0.125 l 2.878906,2.078125 c 0.25,0.1875 0.4375,0.441406 0.5625,0.757813 0.0625,0.3125 0.0625,0.628906 0,1.007812 L 3.65625,13.542969 c 0,0.125 0,0.191406 0,0.253906 0.0625,0 0.0625,0.0625 0.125,0.125 0.0625,0.0625 0.125,0.0625 0.1875,0.0625 0.0625,0 0.128906,0 0.191406,-0.0625 l 2.8125,-2.078125 c 0.25,-0.191406 0.5625,-0.316406 0.875,-0.316406 0.375,0 0.6875,0.125 0.9375,0.316406 l 2.8125,2.078125 c 0.0625,0.0625 0.125,0.0625 0.1875,0.0625 0.0625,0 0.125,0 0.1875,-0.0625 0.0625,-0.0625 0.0625,-0.125 0.125,-0.125 v -0.0625 c 0,0 0,-0.128906 0,-0.191406 l -1.125,-3.273438 c -0.0625,-0.378906 -0.0625,-0.695312 0,-1.007812 0.125,-0.316407 0.3125,-0.570313 0.5625,-0.757813 l 2.816406,-2.078125 c 0.0625,-0.0625 0.125,-0.0625 0.125,-0.125 0.0625,-0.0625 0.0625,-0.128906 0,-0.191406 0,-0.0625 -0.0625,-0.125 -0.125,-0.1875 0,0 -0.0625,-0.0625 -0.1875,-0.0625 h -3.441406 c -0.375,0 -0.6875,-0.0625 -0.9375,-0.253906 -0.25,-0.1875 -0.4375,-0.503907 -0.5625,-0.816407 z m 0,0"
       id="path12" />
  </g>
</svg>
