<?xml version="1.0" encoding="UTF-8" standalone="no"?>
<svg
   xmlns:dc="http://purl.org/dc/elements/1.1/"
   xmlns:cc="http://creativecommons.org/ns#"
   xmlns:rdf="http://www.w3.org/1999/02/22-rdf-syntax-ns#"
   xmlns:svg="http://www.w3.org/2000/svg"
   xmlns="http://www.w3.org/2000/svg"
   xmlns:sodipodi="http://sodipodi.sourceforge.net/DTD/sodipodi-0.dtd"
   xmlns:inkscape="http://www.inkscape.org/namespaces/inkscape"
   xml:space="preserve"
   width="145.03085mm"
   height="237.38902mm"
   version="1.1"
   style="clip-rule:evenodd;fill-rule:evenodd;image-rendering:optimizeQuality;shape-rendering:geometricPrecision;text-rendering:geometricPrecision"
   viewBox="0 0 14502.973 23738.902"
   id="svg136"
   sodipodi:docname="TransactionBackground.svg"
   inkscape:version="1.0.1 (3bc2e813f5, 2020-09-07)"><metadata
   id="metadata140"><rdf:RDF><cc:Work
       rdf:about=""><dc:format>image/svg+xml</dc:format><dc:type
         rdf:resource="http://purl.org/dc/dcmitype/StillImage" /></cc:Work></rdf:RDF></metadata><sodipodi:namedview
   pagecolor="#ffffff"
   bordercolor="#666666"
   borderopacity="1"
   objecttolerance="10"
   gridtolerance="10"
   guidetolerance="10"
   inkscape:pageopacity="0"
   inkscape:pageshadow="2"
   inkscape:window-width="1920"
   inkscape:window-height="1001"
   id="namedview138"
   showgrid="false"
   inkscape:zoom="0.50266472"
   inkscape:cx="210.18331"
   inkscape:cy="733.29404"
   inkscape:window-x="-9"
   inkscape:window-y="-9"
   inkscape:window-maximized="1"
   inkscape:current-layer="svg136" />
 <defs
   id="defs10">
  <style
   type="text/css"
   id="style2">
   <![CDATA[
    .str0 {stroke:#4D4D4D;stroke-width:8.46}
    .fil3 {fill:none}
    .fil4 {fill:#6E248D}
    .fil1 {fill:#AA5BC9}
    .fil9 {fill:#AB69C6}
    .fil6 {fill:#AD5ECC}
    .fil7 {fill:#AF66CC}
    .fil8 {fill:#B26ACF}
    .fil2 {fill:#333333;fill-rule:nonzero}
    .fil5 {fill:white;fill-rule:nonzero}
    .fil0 {fill:#AB69C6}
   ]]>
  </style>
   <clipPath
   id="id0">
    <path
   d="M -2,0 H 12922 V 21844 H -2 Z"
   id="path4" />
   </clipPath>
   <clipPath
   id="id1">
    <path
   d="M -2,0 H 12922 V 21844 H -2 Z"
   id="path7" />
   </clipPath>
 </defs>
 <g
   id="Layer_x0020_1"
   transform="matrix(1.1221823,0,0,1.086747,2.1944402,0)">
  <metadata
   id="CorelCorpID_0Corel-Layer" />
  <g
   clip-path="url(#id0)"
   id="g15">
   <polygon
   class="fil0"
   points="-2,21844 -2,0 12922,0 12922,21844 "
   id="polygon13" />
  </g>
  <g
   clip-path="url(#id1)"
   id="g131">
   <g
   id="_788788512368">
    <path
   id="1"
   class="fil1"
   d="M 12922,3778 C 8059,9001 3310,5195 -2,13628 c -3443,8769 -156,10719 1223,10726 5975,29 4796,4153 15449,-568 2730,-1210 3486,-7293 -18,-10817 -420,-422 -3213,-9154 -3730,-9191 z" />
    <polygon
   class="fil2"
   points="14264,9177 14264,9183 14256,9183 14256,9185 14264,9185 14264,9191 14255,9191 14255,9193 14267,9193 14267,9175 14255,9175 14255,9177 "
   id="polygon18" />
    <polygon
   id="polygon20"
   class="fil2"
   points="14244,9175 14241,9175 14247,9182 14242,9187 14245,9187 14250,9182 14250,9194 14252,9194 14252,9175 14250,9175 14250,9181 " />
    <path
   id="2"
   class="fil2"
   d="m 14237,9181 c 0,2 -1,4 -4,4 -2,0 -4,-2 -4,-4 0,-2 2,-4 4,-4 3,0 4,2 4,4 z m 3,0 c 0,-3 -3,-6 -7,-6 -3,0 -6,3 -6,6 0,3 3,6 6,6 4,0 7,-3 7,-6 z" />
    <path
   id="3"
   class="fil2"
   d="m 14224,9175 h -2 v 6 c 0,3 -2,4 -4,4 -1,0 -2,-1 -2,-3 v -7 h -3 v 8 c 0,3 2,4 5,4 2,0 3,-1 4,-2 v 0 2 h 2 z" />
    <path
   id="4"
   class="fil2"
   d="m 14208,9181 c 0,2 -1,4 -4,4 -2,0 -4,-2 -4,-4 0,-2 2,-4 4,-4 3,0 4,2 4,4 z m 3,0 c 0,-3 -3,-6 -7,-6 -3,0 -6,3 -6,6 0,3 3,6 6,6 4,0 7,-3 7,-6 z" />
    <path
   id="5"
   class="fil2"
   d="m 14195,9175 h -2 v 6 c 0,3 -2,4 -3,4 -3,0 -3,-1 -3,-4 v -6 h -2 v 7 c 0,2 -1,3 -3,3 -2,0 -3,-2 -3,-3 v -7 h -2 v 7 c 0,3 1,5 5,5 1,0 3,0 3,-2 1,2 2,2 4,2 2,0 4,-1 4,-2 v 0 2 h 2 z" />
    <path
   id="6"
   class="fil2"
   d="m 14173,9175 h -2 v 12 h 2 z m 1,16 c 0,-1 -1,-1 -2,-1 -1,0 -1,0 -1,1 0,1 0,2 1,2 1,0 2,-1 2,-2 z" />
    <path
   id="7"
   class="fil2"
   d="m 14161,9177 c -1,-2 -3,-2 -5,-2 -4,0 -6,2 -6,5 0,7 8,4 8,8 0,1 -1,3 -3,3 -2,0 -3,-1 -3,-2 l -2,2 c 1,2 3,2 5,2 4,0 6,-3 6,-5 0,-7 -9,-4 -9,-8 0,-2 2,-3 4,-3 1,0 3,0 3,2 z" />
    <path
   id="8"
   class="fil2"
   d="m 14143,9175 1,-2 c 0,-1 1,-2 2,-2 0,0 1,0 1,0 l 1,-2 c -1,0 -2,0 -2,0 -3,0 -4,1 -4,3 l -6,15 h 2 l 4,-9 v 0 l 3,9 h 3 z" />
    <path
   id="9"
   class="fil2"
   d="m 14133,9184 c -1,1 -2,1 -4,1 -2,0 -3,-1 -3,-2 v -1 h 2 c 4,0 7,-1 7,-4 0,-2 -2,-3 -5,-3 -1,0 -3,0 -4,2 v 0 c 0,-1 0,-1 0,-2 h -2 c 0,1 0,1 0,2 v 6 c 0,2 2,4 5,4 2,0 4,0 5,-1 z m -7,-3 v -1 c 0,-2 1,-3 4,-3 1,0 2,0 2,1 0,2 -2,3 -5,3 z" />
    <path
   id="10"
   class="fil2"
   d="m 14121,9175 h -2 v 6 c 0,3 -2,4 -4,4 0,0 -1,0 -1,0 v 2 c 0,0 1,0 1,0 1,0 3,-1 4,-2 v 0 2 h 2 z" />
    <path
   id="11"
   class="fil2"
   d="m 14111,9175 h -2 v 12 h 2 z m 1,16 c 0,-1 -1,-1 -2,-1 -1,0 -1,0 -1,1 0,1 0,2 1,2 1,0 2,-1 2,-2 z" />
    <path
   id="12"
   class="fil2"
   d="m 14104,9184 c -1,1 -2,1 -3,1 -2,0 -3,-1 -3,-2 v -1 h 1 c 4,0 7,-1 7,-4 0,-2 -2,-3 -4,-3 -2,0 -3,0 -4,2 v 0 c 0,-1 0,-1 0,-2 h -2 c 0,1 0,1 0,2 v 6 c 0,2 1,4 5,4 1,0 3,0 4,-1 z m -6,-3 v -1 c 0,-2 1,-3 3,-3 2,0 3,0 3,1 0,2 -3,3 -5,3 z" />
    <path
   id="13"
   class="fil2"
   d="m 14092,9175 h -2 v 6 c 0,3 -1,4 -3,4 -2,0 -3,-1 -3,-3 v -7 h -2 v 8 c 0,3 2,4 4,4 2,0 3,-1 4,-2 v 0 9 h 2 z" />
    <polygon
   class="fil2"
   points="13999,9193 13999,9175 13997,9175 13997,9193 "
   id="polygon34" />
    <path
   id="path36"
   class="fil2"
   d="m 13992,9175 h -2 v 2 0 c -1,-2 -2,-2 -4,-2 -4,0 -6,2 -6,6 0,4 2,6 6,6 2,0 3,-1 4,-2 v 0 9 h 2 z m -6,2 c 3,0 4,2 4,4 0,2 -1,4 -4,4 -2,0 -4,-2 -4,-4 0,-2 2,-4 4,-4 z" />
    <path
   id="path38"
   class="fil2"
   d="m 13976,9184 c -1,1 -2,1 -4,1 -2,0 -3,-1 -3,-2 v -1 h 2 c 4,0 7,-1 7,-4 0,-2 -2,-3 -4,-3 -2,0 -4,0 -5,2 v 0 c 0,-1 0,-1 0,-2 h -2 c 0,1 0,1 0,2 v 6 c 0,2 2,4 5,4 2,0 4,0 5,-1 z m -7,-3 v -1 c 0,-2 1,-3 4,-3 1,0 2,0 2,1 0,2 -2,3 -4,3 z" />
    <path
   id="path40"
   class="fil2"
   d="m 13952,9194 h 2 v -9 0 c 1,1 3,2 5,2 3,0 6,-2 6,-6 0,-4 -3,-6 -6,-6 -2,0 -4,0 -5,2 v 0 -2 h -2 z m 6,-17 c 3,0 4,2 4,4 0,2 -1,4 -4,4 -2,0 -4,-2 -4,-4 0,-2 2,-4 4,-4 z" />
    <path
   id="path42"
   class="fil2"
   d="m 13947,9184 c -1,1 -1,1 -3,1 -2,0 -3,-1 -3,-2 v -1 h 2 c 3,0 6,-1 6,-4 0,-2 -2,-3 -4,-3 -2,0 -3,0 -4,2 v 0 c 0,-1 0,-1 0,-2 h -2 c 0,1 0,1 0,2 v 6 c 0,2 1,4 5,4 2,0 3,0 5,-1 z m -6,-3 v -1 c 0,-2 1,-3 3,-3 2,0 3,0 3,1 0,2 -3,3 -5,3 z" />
    <path
   id="path44"
   class="fil2"
   d="m 13936,9175 h -3 v 6 c 0,3 -1,4 -3,4 -1,0 -3,-1 -3,-3 v -7 h -2 v 8 c 0,3 2,4 4,4 2,0 4,-1 4,-2 v 0 9 h 3 z" />
    <polygon
   id="polygon46"
   class="fil2"
   points="13911,9184 13903,9175 13899,9175 13909,9185 13900,9193 13903,9193 13911,9185 13912,9185 13912,9193 13914,9193 13914,9175 13912,9175 13912,9184 " />
    <path
   id="path48"
   class="fil2"
   d="m 13887,9180 v 1 c 0,3 1,6 6,6 3,0 6,-2 6,-6 0,-4 -2,-6 -6,-6 -3,0 -4,1 -6,2 l 2,1 c 1,-1 2,-1 3,-1 3,0 4,1 4,3 z m 9,2 c 0,2 -1,3 -3,3 -3,0 -4,-1 -4,-3 z" />
    <path
   id="path50"
   class="fil2"
   d="m 13884,9175 h -2 v 6 c 0,3 -2,4 -3,4 -2,0 -3,-1 -3,-4 v -6 h -2 v 7 c 0,2 -1,3 -3,3 -2,0 -3,-2 -3,-3 v -7 h -2 v 7 c 0,3 1,5 5,5 1,0 3,0 3,-2 1,2 2,2 4,2 2,0 4,-1 4,-2 v 0 2 h 2 z" />
    <path
   id="path52"
   class="fil2"
   d="m 13861,9184 c -1,1 -1,1 -3,1 -2,0 -3,-1 -3,-2 v -1 h 2 c 3,0 6,-1 6,-4 0,-2 -2,-3 -4,-3 -2,0 -3,0 -4,2 v 0 c 0,-1 0,-1 0,-2 h -2 c 0,1 0,1 0,2 v 6 c 0,2 1,4 5,4 2,0 3,0 5,-1 z m -6,-3 v -1 c 0,-2 1,-3 3,-3 2,0 3,0 3,1 0,2 -3,3 -5,3 z" />
    <path
   id="path54"
   class="fil2"
   d="m 13842,9185 c 0,2 2,2 4,2 2,0 4,-1 4,-3 0,-3 -2,-3 -4,-4 -1,0 -2,0 -2,-2 0,-1 1,-1 2,-1 1,0 2,1 3,1 l 2,-1 c -2,-2 -3,-2 -5,-2 -2,0 -5,1 -5,3 0,3 2,3 4,4 1,0 3,0 3,2 0,1 -1,1 -2,1 -1,0 -2,0 -3,-1 z" />
    <path
   id="path56"
   class="fil2"
   d="m 13835,9175 1,-2 c 0,-1 0,-2 2,-2 0,0 1,0 1,0 l 1,-2 c -1,0 -2,0 -2,0 -3,0 -4,1 -5,3 l -5,15 h 2 l 4,-9 v 0 l 3,9 h 3 z" />
    <path
   id="path58"
   class="fil2"
   d="m 13824,9184 c 0,1 -1,1 -3,1 -2,0 -3,-1 -3,-2 v -1 h 2 c 3,0 6,-1 6,-4 0,-2 -2,-3 -4,-3 -2,0 -3,0 -4,2 v 0 c 0,-1 0,-1 0,-2 h -2 c 0,1 0,1 0,2 v 6 c 0,2 2,4 5,4 2,0 4,0 5,-1 z m -6,-3 v -1 c 0,-2 1,-3 4,-3 1,0 2,0 2,1 0,2 -2,3 -5,3 z" />
    <path
   id="path60"
   class="fil2"
   d="m 13813,9175 h -3 v 6 c 0,3 -1,4 -3,4 0,0 -1,0 -1,0 v 2 c 0,0 0,0 1,0 1,0 3,-1 3,-2 v 0 2 h 3 z" />
    <path
   id="14"
   class="fil2"
   d="m 13802,9184 c -1,1 -2,1 -3,1 -2,0 -3,-1 -3,-2 v -1 h 1 c 4,0 7,-1 7,-4 0,-2 -2,-3 -4,-3 -2,0 -3,0 -4,2 v 0 c 0,-1 0,-1 0,-2 h -2 c 0,1 0,1 0,2 v 6 c 0,2 1,4 5,4 1,0 3,0 4,-1 z m -6,-3 v -1 c 0,-2 1,-3 3,-3 2,0 3,0 3,1 0,2 -3,3 -5,3 z" />
    <polygon
   id="15"
   class="fil2"
   points="13783,9175 13779,9175 13785,9182 13780,9187 13783,9187 13788,9182 13788,9194 13790,9194 13790,9175 13788,9175 13788,9181 " />
    <path
   id="16"
   class="fil2"
   d="m 13776,9184 c -1,1 -2,1 -4,1 -2,0 -2,-1 -2,-2 v -1 h 1 c 4,0 7,-1 7,-4 0,-2 -2,-3 -4,-3 -2,0 -4,0 -5,2 v 0 c 0,-1 0,-1 0,-2 h -2 c 0,1 0,1 0,2 v 6 c 0,2 2,4 5,4 2,0 4,0 5,-1 z m -6,-3 v -1 c 0,-2 0,-3 3,-3 2,0 3,0 3,1 0,2 -3,3 -5,3 z" />
    <path
   id="17"
   class="fil2"
   d="m 13758,9187 h 3 v 3 h 2 v -3 h 3 v -2 h -3 v -6 c 0,-2 0,-4 -3,-4 -1,0 -2,0 -2,0 v 2 c 0,0 1,0 1,0 2,0 2,1 2,3 v 5 h -3 z" />
    <path
   id="18"
   class="fil2"
   d="m 13753,9184 c 0,1 -1,1 -3,1 -2,0 -3,-1 -3,-2 v -1 h 2 c 3,0 6,-1 6,-4 0,-2 -2,-3 -4,-3 -2,0 -3,0 -4,2 v 0 c 0,-1 0,-1 0,-2 h -2 c 0,1 0,1 0,2 v 6 c 0,2 1,4 5,4 2,0 3,0 5,-1 z m -6,-3 v -1 c 0,-2 1,-3 4,-3 1,0 2,0 2,1 0,2 -3,3 -5,3 z" />
    <path
   id="19"
   class="fil2"
   d="m 13742,9175 h -3 v 6 c 0,3 -1,4 -3,4 -1,0 -3,-1 -3,-3 v -7 h -2 v 8 c 0,3 2,4 4,4 2,0 4,-1 4,-2 v 0 2 h 3 z" />
    <path
   class="fil2"
   d="m 13652,9172 h -6 c -4,0 -7,2 -7,5 0,3 2,5 4,5 v 0 c -2,0 -3,2 -3,4 0,3 3,4 6,4 h 6 z m -3,16 h -3 c -2,0 -3,-1 -3,-3 0,-2 1,-2 3,-2 h 3 z m 0,-7 h -3 c -2,0 -4,-1 -4,-4 0,-2 2,-3 4,-3 h 3 z"
   id="path68" />
    <path
   id="path70"
   class="fil2"
   d="m 13635,9181 c -1,1 -1,2 -3,2 -2,0 -3,-2 -3,-3 v 0 h 2 c 3,0 6,-1 6,-4 0,-3 -2,-4 -4,-4 -2,0 -3,1 -4,2 v 0 c 0,0 0,-1 0,-2 h -2 c 0,1 0,2 0,2 v 7 c 0,2 1,4 5,4 1,0 3,-1 5,-2 z m -6,-3 v -1 c 0,-1 1,-3 3,-3 2,0 3,0 3,2 0,2 -3,2 -5,2 z" />
    <path
   id="path72"
   class="fil2"
   d="m 13623,9172 h -2 v 6 c 0,3 -1,4 -3,4 -2,0 -3,0 -3,-3 v -7 h -2 v 8 c 0,3 2,5 4,5 2,0 4,-1 4,-3 v 0 9 h 2 z" />
    <path
   id="path74"
   class="fil2"
   d="m 13608,9181 c -1,1 -2,2 -3,2 -2,0 -3,-2 -3,-3 v 0 h 2 c 3,0 6,-1 6,-4 0,-3 -2,-4 -4,-4 -2,0 -3,1 -4,2 v 0 c 0,0 0,-1 0,-2 h -2 c 0,1 0,2 0,2 v 7 c 0,2 1,4 5,4 1,0 3,-1 4,-2 z m -6,-3 v -1 c 0,-1 1,-3 3,-3 2,0 3,0 3,2 0,2 -3,2 -5,2 z" />
    <path
   id="path76"
   class="fil2"
   d="m 13588,9183 c 1,1 3,2 4,2 3,0 5,-2 5,-4 0,-2 -2,-3 -4,-4 -1,0 -3,0 -3,-1 0,-1 2,-2 3,-2 1,0 2,1 3,2 l 1,-2 c -1,-1 -2,-2 -4,-2 -3,0 -5,1 -5,4 0,2 1,3 3,3 1,0 3,1 3,2 0,1 0,1 -2,1 -1,0 -1,0 -2,-1 z" />
    <path
   id="path78"
   class="fil2"
   d="m 13584,9181 c -1,1 -2,2 -4,2 -2,0 -2,-2 -2,-3 v 0 h 1 c 4,0 7,-1 7,-4 0,-3 -2,-4 -4,-4 -2,0 -4,1 -5,2 v 0 c 0,0 0,-1 0,-2 h -2 c 0,1 0,2 0,2 v 7 c 0,2 2,4 5,4 2,0 4,-1 5,-2 z m -6,-3 v -1 c 0,-1 0,-3 3,-3 1,0 2,0 2,2 0,2 -2,2 -4,2 z" />
    <rect
   class="fil3 str0"
   x="14317"
   y="9153"
   width="98.428101"
   height="57.517502"
   rx="79"
   ry="161"
   id="rect80" />
    <polygon
   class="fil2"
   points="14383,9183 14383,9185 14391,9185 14391,9191 14382,9191 14382,9193 14393,9193 14393,9175 14391,9175 14391,9183 "
   id="polygon82" />
    <path
   id="path84"
   class="fil2"
   d="m 14379,9175 h -2 v 12 h 2 z m 1,16 c 0,-1 -1,-1 -2,-1 -1,0 -1,0 -1,1 0,1 0,2 1,2 1,0 2,-1 2,-2 z" />
    <path
   id="path86"
   class="fil2"
   d="m 14362,9187 h 2 v -2 0 c 1,2 2,2 4,2 4,0 6,-2 6,-6 0,-4 -2,-6 -6,-6 -2,0 -3,0 -4,2 v 0 -8 h -2 z m 6,-2 c -3,0 -4,-2 -4,-4 0,-2 1,-4 4,-4 2,0 4,2 4,4 0,2 -2,4 -4,4 z" />
    <path
   id="path88"
   class="fil2"
   d="m 14358,9175 h -2 v 12 h 2 z m 0,16 c 0,-1 0,-1 -1,-1 -1,0 -2,0 -2,1 0,1 1,2 2,2 1,0 1,-1 1,-2 z" />
    <path
   id="path90"
   class="fil2"
   d="m 14352,9175 h -2 v 6 c 0,3 -2,4 -4,4 -1,0 -2,-1 -2,-3 v -7 h -3 v 8 c 0,3 2,4 5,4 2,0 3,-1 4,-2 v 0 9 h 2 z" />
    <rect
   class="fil3 str0"
   x="14053"
   y="9153"
   width="243.041"
   height="57.517502"
   rx="194"
   ry="161"
   id="rect92" />
    <rect
   class="fil3 str0"
   x="13698"
   y="9153"
   width="333.14001"
   height="57.517502"
   rx="266"
   ry="161"
   id="rect94" />
    <rect
   class="fil3 str0"
   x="13550"
   y="9153"
   width="127.201"
   height="57.517502"
   rx="102"
   ry="161"
   id="rect96" />
    <rect
   class="fil4"
   x="14437"
   y="9153"
   width="154.455"
   height="57.517502"
   rx="123"
   ry="161"
   id="rect98" />
    <path
   class="fil5"
   d="m 14571,9173 h -3 l -2,4 h -8 l -2,-4 h -3 l 8,17 h 2 z m -6,6 -3,8 v 0 l -3,-8 z"
   id="path100" />
    <polygon
   id="polygon102"
   class="fil5"
   points="14551,9192 14551,9173 14549,9173 14549,9192 " />
    <polygon
   id="polygon104"
   class="fil5"
   points="14540,9178 14540,9180 14546,9180 14546,9178 " />
    <path
   id="path106"
   class="fil5"
   d="m 14518,9175 h 6 v 0 c -3,1 -4,4 -4,7 0,5 4,9 9,9 5,0 9,-4 9,-9 0,-6 -4,-9 -9,-9 h -11 z m 11,0 c 4,0 6,3 6,7 0,4 -2,7 -6,7 -4,0 -7,-3 -7,-7 0,-4 3,-7 7,-7 z" />
    <path
   id="path108"
   class="fil5"
   d="m 14506,9185 h 2 v -7 c 0,-2 2,-4 4,-4 1,0 2,1 2,4 v 7 h 3 v -8 c 0,-3 -2,-5 -5,-5 -2,0 -3,1 -4,2 v 0 -1 h -2 z" />
    <path
   id="path110"
   class="fil5"
   d="m 14503,9173 h -3 v 6 c 0,2 -1,3 -3,3 -1,0 -1,0 -1,0 v 3 c 0,0 0,0 1,0 1,0 3,-1 3,-2 v 0 2 h 3 z" />
    <polygon
   id="polygon112"
   class="fil5"
   points="14491,9184 14489,9190 14492,9190 14493,9184 " />
    <path
   id="path114"
   class="fil5"
   d="m 14485,9182 c -1,0 -2,1 -4,1 -2,0 -2,-1 -2,-2 v -1 h 1 c 4,0 7,-1 7,-4 0,-2 -2,-4 -4,-4 -2,0 -4,1 -5,2 v 0 c 0,0 0,-1 0,-1 h -2 c 0,0 0,1 0,2 v 6 c 0,2 2,4 5,4 2,0 4,-1 5,-2 z m -6,-4 v 0 c 0,-2 0,-4 3,-4 1,0 2,1 2,2 0,2 -2,2 -4,2 z" />
    <path
   id="path116"
   class="fil5"
   d="m 14473,9173 h -2 v 6 c 0,3 -2,4 -4,4 -1,0 -2,-1 -2,-3 v -7 h -3 v 7 c 0,3 3,5 5,5 2,0 3,-1 4,-2 v 0 2 h 2 z" />
    <path
   class="fil6"
   d="M 12922,7906 C 10974,9999 9639,9433 7927,8963 4287,7964 1488,10240 -2,13628 c -3792,8624 -156,10719 1223,10726 5975,29 4796,4153 15449,-568 2730,-1210 3486,-7293 -18,-10817 -420,-422 -3213,-5026 -3730,-5063 z"
   id="path118" />
    <path
   class="fil7"
   d="M 12922,11886 C 9063,15194 4832,4752 -2,13628 c -4505,8274 -156,14699 1223,14706 5975,29 4796,4153 15449,-568 2730,-1210 3486,-7293 -18,-10817 -420,-422 -3213,-5026 -3730,-5063 z"
   id="path120" />
    <path
   class="fil8"
   d="M 12922,15754 C 9063,19061 5293,5314 -2,13628 c -5060,7946 -156,18567 1223,18574 5975,29 4796,4153 15449,-569 2730,-1209 3486,-7293 -18,-10816 -420,-422 -3213,-5026 -3730,-5063 z"
   id="path122" />
    <path
   class="fil8"
   d="M 12922,20062 C 6460,21844 6227,5781 -2,13628 c -5856,7379 -156,18567 1223,18574 5975,29 4796,4153 15449,-569 2730,-1209 3486,-7293 -18,-10816 -420,-422 -3213,-719 -3730,-755 z"
   id="path124" />
    <path
   class="fil8"
   d="M 9763,24932 C 3301,22725 6701,6861 -2,13628 c -6629,6694 -156,18567 1223,18574 5975,29 4796,4153 15449,-569 2730,-1209 3486,-7293 -18,-10816 -420,-422 -6372,4152 -6889,4115 z"
   id="path126" />
    <rect
   class="fil9"
   x="-7427"
   y="7642"
   width="2656"
   height="2656"
   id="rect128" />
   </g>
  </g>
  <polygon
   class="fil3"
   points="-2,21844 -2,0 12922,0 12922,21844 "
   id="polygon133" />
 </g>
</svg>
