<svg xmlns="http://www.w3.org/2000/svg" xml:space="preserve" width="25" height="25" version="1.0" style="shape-rendering:geometricPrecision;text-rendering:geometricPrecision;image-rendering:optimizeQuality;fill-rule:evenodd;clip-rule:evenodd" viewBox="0 0 415 356"><defs><style>.fil0{fill:#b3b3b3;fill-rule:nonzero}</style></defs><g id="Layer_x0020_1"><g id="_1063296099296"><path class="fil0" d="M364 105c4-2 9-1 12 3s2 9-2 12l-21 13-59 36-13 9v-47H118V89c0-11 4-22 11-30 7-7 18-12 29-12h123V0l13 9 59 36 58 37c4 2 5 8 2 12-2 3-8 5-12 2l-58-37-45-28v33H158c-6 0-12 2-16 7-4 4-7 11-7 18v25h163v33l45-28 21-14zM51 250c-4 3-9 2-12-2-2-4-1-9 3-12l21-13 59-37 14-8v46h165v43c0 11-4 22-11 29-8 8-18 13-29 13H136v47l-14-9-59-36-59-37c-4-3-5-8-3-12 3-4 8-5 12-2l60 36 45 29v-33h143c6 0 12-3 16-7 4-5 7-11 7-18v-26H118v-32l-45 28-22 13z"/></g></g></svg>