<svg xmlns="http://www.w3.org/2000/svg" xml:space="preserve" width="548.148" height="897.218" version="1.1" style="clip-rule:evenodd;fill-rule:evenodd;image-rendering:optimizeQuality;shape-rendering:geometricPrecision;text-rendering:geometricPrecision" viewBox="0 0 14502.973 23738.902" id="svg136"><defs id="defs10"><clipPath id="id0"><path d="M-2 0h12924v21844H-2z" id="path4"/></clipPath><clipPath id="id1"><path d="M-2 0h12924v21844H-2z" id="path7"/></clipPath><style type="text/css" id="style2">.str0{stroke:#4d4d4d;stroke-width:8.46}.fil3{fill:none}.fil8{fill:#b26acf}.fil2,.fil5{fill:#333;fill-rule:nonzero}.fil5{fill:#fff}</style></defs><g id="Layer_x0020_1" transform="matrix(1.12218 0 0 1.08675 2.194 0)"><g clip-path="url(#id0)" id="g15"><path id="polygon13" style="fill:#ab69c6" d="M-2 21844V0h12924v21844z"/></g><g clip-path="url(#id1)" id="g131"><g id="_788788512368"><path id="1" d="M12922 3778C8059 9001 3310 5195-2 13628c-3443 8769-156 10719 1223 10726 5975 29 4796 4153 15449-568 2730-1210 3486-7293-18-10817-420-422-3213-9154-3730-9191z" style="fill:#aa5bc9"/><path class="fil2" id="polygon18" d="M14264 9177v6h-8v2h8v6h-9v2h12v-18h-12v2z"/><path id="polygon20" class="fil2" d="M14244 9175h-3l6 7-5 5h3l5-5v12h2v-19h-2v6z"/><path id="2" class="fil2" d="M14237 9181c0 2-1 4-4 4-2 0-4-2-4-4s2-4 4-4c3 0 4 2 4 4zm3 0c0-3-3-6-7-6-3 0-6 3-6 6s3 6 6 6c4 0 7-3 7-6z"/><path id="3" class="fil2" d="M14224 9175h-2v6c0 3-2 4-4 4-1 0-2-1-2-3v-7h-3v8c0 3 2 4 5 4 2 0 3-1 4-2v2h2z"/><path id="4" class="fil2" d="M14208 9181c0 2-1 4-4 4-2 0-4-2-4-4s2-4 4-4c3 0 4 2 4 4zm3 0c0-3-3-6-7-6-3 0-6 3-6 6s3 6 6 6c4 0 7-3 7-6z"/><path id="5" class="fil2" d="M14195 9175h-2v6c0 3-2 4-3 4-3 0-3-1-3-4v-6h-2v7c0 2-1 3-3 3s-3-2-3-3v-7h-2v7c0 3 1 5 5 5 1 0 3 0 3-2 1 2 2 2 4 2s4-1 4-2v2h2z"/><path id="6" class="fil2" d="M14173 9175h-2v12h2zm1 16c0-1-1-1-2-1s-1 0-1 1 0 2 1 2 2-1 2-2z"/><path id="7" class="fil2" d="M14161 9177c-1-2-3-2-5-2-4 0-6 2-6 5 0 7 8 4 8 8 0 1-1 3-3 3s-3-1-3-2l-2 2c1 2 3 2 5 2 4 0 6-3 6-5 0-7-9-4-9-8 0-2 2-3 4-3 1 0 3 0 3 2z"/><path id="8" class="fil2" d="m14143 9175 1-2c0-1 1-2 2-2h1l1-2h-2c-3 0-4 1-4 3l-6 15h2l4-9 3 9h3z"/><path id="9" class="fil2" d="M14133 9184c-1 1-2 1-4 1s-3-1-3-2v-1h2c4 0 7-1 7-4 0-2-2-3-5-3-1 0-3 0-4 2v-2h-2v8c0 2 2 4 5 4 2 0 4 0 5-1zm-7-3v-1c0-2 1-3 4-3 1 0 2 0 2 1 0 2-2 3-5 3z"/><path id="10" class="fil2" d="M14121 9175h-2v6c0 3-2 4-4 4h-1v2h1c1 0 3-1 4-2v2h2z"/><path id="11" class="fil2" d="M14111 9175h-2v12h2zm1 16c0-1-1-1-2-1s-1 0-1 1 0 2 1 2 2-1 2-2z"/><path id="12" class="fil2" d="M14104 9184c-1 1-2 1-3 1-2 0-3-1-3-2v-1h1c4 0 7-1 7-4 0-2-2-3-4-3s-3 0-4 2v-2h-2v8c0 2 1 4 5 4 1 0 3 0 4-1zm-6-3v-1c0-2 1-3 3-3s3 0 3 1c0 2-3 3-5 3z"/><path id="13" class="fil2" d="M14092 9175h-2v6c0 3-1 4-3 4s-3-1-3-3v-7h-2v8c0 3 2 4 4 4s3-1 4-2v9h2z"/><path class="fil2" id="polygon34" d="M13999 9193v-18h-2v18z"/><path id="path36" class="fil2" d="M13992 9175h-2v2c-1-2-2-2-4-2-4 0-6 2-6 6s2 6 6 6c2 0 3-1 4-2v9h2zm-6 2c3 0 4 2 4 4s-1 4-4 4c-2 0-4-2-4-4s2-4 4-4z"/><path id="path38" class="fil2" d="M13976 9184c-1 1-2 1-4 1s-3-1-3-2v-1h2c4 0 7-1 7-4 0-2-2-3-4-3s-4 0-5 2v-2h-2v8c0 2 2 4 5 4 2 0 4 0 5-1zm-7-3v-1c0-2 1-3 4-3 1 0 2 0 2 1 0 2-2 3-4 3z"/><path id="path40" class="fil2" d="M13952 9194h2v-9c1 1 3 2 5 2 3 0 6-2 6-6s-3-6-6-6c-2 0-4 0-5 2v-2h-2zm6-17c3 0 4 2 4 4s-1 4-4 4c-2 0-4-2-4-4s2-4 4-4z"/><path id="path42" class="fil2" d="M13947 9184c-1 1-1 1-3 1s-3-1-3-2v-1h2c3 0 6-1 6-4 0-2-2-3-4-3s-3 0-4 2v-2h-2v8c0 2 1 4 5 4 2 0 3 0 5-1zm-6-3v-1c0-2 1-3 3-3s3 0 3 1c0 2-3 3-5 3z"/><path id="path44" class="fil2" d="M13936 9175h-3v6c0 3-1 4-3 4-1 0-3-1-3-3v-7h-2v8c0 3 2 4 4 4s4-1 4-2v9h3z"/><path id="polygon46" class="fil2" d="m13911 9184-8-9h-4l10 10-9 8h3l8-8h1v8h2v-18h-2v9z"/><path id="path48" class="fil2" d="M13887 9180v1c0 3 1 6 6 6 3 0 6-2 6-6s-2-6-6-6c-3 0-4 1-6 2l2 1c1-1 2-1 3-1 3 0 4 1 4 3zm9 2c0 2-1 3-3 3-3 0-4-1-4-3z"/><path id="path50" class="fil2" d="M13884 9175h-2v6c0 3-2 4-3 4-2 0-3-1-3-4v-6h-2v7c0 2-1 3-3 3s-3-2-3-3v-7h-2v7c0 3 1 5 5 5 1 0 3 0 3-2 1 2 2 2 4 2s4-1 4-2v2h2z"/><path id="path52" class="fil2" d="M13861 9184c-1 1-1 1-3 1s-3-1-3-2v-1h2c3 0 6-1 6-4 0-2-2-3-4-3s-3 0-4 2v-2h-2v8c0 2 1 4 5 4 2 0 3 0 5-1zm-6-3v-1c0-2 1-3 3-3s3 0 3 1c0 2-3 3-5 3z"/><path id="path54" class="fil2" d="M13842 9185c0 2 2 2 4 2s4-1 4-3c0-3-2-3-4-4-1 0-2 0-2-2 0-1 1-1 2-1s2 1 3 1l2-1c-2-2-3-2-5-2s-5 1-5 3c0 3 2 3 4 4 1 0 3 0 3 2 0 1-1 1-2 1s-2 0-3-1z"/><path id="path56" class="fil2" d="m13835 9175 1-2c0-1 0-2 2-2h1l1-2h-2c-3 0-4 1-5 3l-5 15h2l4-9 3 9h3z"/><path id="path58" class="fil2" d="M13824 9184c0 1-1 1-3 1s-3-1-3-2v-1h2c3 0 6-1 6-4 0-2-2-3-4-3s-3 0-4 2v-2h-2v8c0 2 2 4 5 4 2 0 4 0 5-1zm-6-3v-1c0-2 1-3 4-3 1 0 2 0 2 1 0 2-2 3-5 3z"/><path id="path60" class="fil2" d="M13813 9175h-3v6c0 3-1 4-3 4h-1v2h1c1 0 3-1 3-2v2h3z"/><path id="14" class="fil2" d="M13802 9184c-1 1-2 1-3 1-2 0-3-1-3-2v-1h1c4 0 7-1 7-4 0-2-2-3-4-3s-3 0-4 2v-2h-2v8c0 2 1 4 5 4 1 0 3 0 4-1zm-6-3v-1c0-2 1-3 3-3s3 0 3 1c0 2-3 3-5 3z"/><path id="15" class="fil2" d="M13783 9175h-4l6 7-5 5h3l5-5v12h2v-19h-2v6z"/><path id="16" class="fil2" d="M13776 9184c-1 1-2 1-4 1s-2-1-2-2v-1h1c4 0 7-1 7-4 0-2-2-3-4-3s-4 0-5 2v-2h-2v8c0 2 2 4 5 4 2 0 4 0 5-1zm-6-3v-1c0-2 0-3 3-3 2 0 3 0 3 1 0 2-3 3-5 3z"/><path id="17" class="fil2" d="M13758 9187h3v3h2v-3h3v-2h-3v-6c0-2 0-4-3-4h-2v2h1c2 0 2 1 2 3v5h-3z"/><path id="18" class="fil2" d="M13753 9184c0 1-1 1-3 1s-3-1-3-2v-1h2c3 0 6-1 6-4 0-2-2-3-4-3s-3 0-4 2v-2h-2v8c0 2 1 4 5 4 2 0 3 0 5-1zm-6-3v-1c0-2 1-3 4-3 1 0 2 0 2 1 0 2-3 3-5 3z"/><path id="19" class="fil2" d="M13742 9175h-3v6c0 3-1 4-3 4-1 0-3-1-3-3v-7h-2v8c0 3 2 4 4 4s4-1 4-2v2h3z"/><path class="fil2" d="M13652 9172h-6c-4 0-7 2-7 5s2 5 4 5c-2 0-3 2-3 4 0 3 3 4 6 4h6zm-3 16h-3c-2 0-3-1-3-3s1-2 3-2h3zm0-7h-3c-2 0-4-1-4-4 0-2 2-3 4-3h3z" id="path68"/><path id="path70" class="fil2" d="M13635 9181c-1 1-1 2-3 2s-3-2-3-3h2c3 0 6-1 6-4s-2-4-4-4-3 1-4 2v-2h-2v9c0 2 1 4 5 4 1 0 3-1 5-2zm-6-3v-1c0-1 1-3 3-3s3 0 3 2-3 2-5 2z"/><path id="path72" class="fil2" d="M13623 9172h-2v6c0 3-1 4-3 4s-3 0-3-3v-7h-2v8c0 3 2 5 4 5s4-1 4-3v9h2z"/><path id="path74" class="fil2" d="M13608 9181c-1 1-2 2-3 2-2 0-3-2-3-3h2c3 0 6-1 6-4s-2-4-4-4-3 1-4 2v-2h-2v9c0 2 1 4 5 4 1 0 3-1 4-2zm-6-3v-1c0-1 1-3 3-3s3 0 3 2-3 2-5 2z"/><path id="path76" class="fil2" d="M13588 9183c1 1 3 2 4 2 3 0 5-2 5-4s-2-3-4-4c-1 0-3 0-3-1s2-2 3-2 2 1 3 2l1-2c-1-1-2-2-4-2-3 0-5 1-5 4 0 2 1 3 3 3 1 0 3 1 3 2s0 1-2 1c-1 0-1 0-2-1z"/><path id="path78" class="fil2" d="M13584 9181c-1 1-2 2-4 2s-2-2-2-3h1c4 0 7-1 7-4s-2-4-4-4-4 1-5 2v-2h-2v9c0 2 2 4 5 4 2 0 4-1 5-2zm-6-3v-1c0-1 0-3 3-3 1 0 2 0 2 2s-2 2-4 2z"/><rect class="fil3 str0" x="14317" y="9153" width="98.428" height="57.518" rx="79" ry="161" id="rect80"/><path class="fil2" id="polygon82" d="M14383 9183v2h8v6h-9v2h11v-18h-2v8z"/><path id="path84" class="fil2" d="M14379 9175h-2v12h2zm1 16c0-1-1-1-2-1s-1 0-1 1 0 2 1 2 2-1 2-2z"/><path id="path86" class="fil2" d="M14362 9187h2v-2c1 2 2 2 4 2 4 0 6-2 6-6s-2-6-6-6c-2 0-3 0-4 2v-8h-2zm6-2c-3 0-4-2-4-4s1-4 4-4c2 0 4 2 4 4s-2 4-4 4z"/><path id="path88" class="fil2" d="M14358 9175h-2v12h2zm0 16c0-1 0-1-1-1s-2 0-2 1 1 2 2 2 1-1 1-2z"/><path id="path90" class="fil2" d="M14352 9175h-2v6c0 3-2 4-4 4-1 0-2-1-2-3v-7h-3v8c0 3 2 4 5 4 2 0 3-1 4-2v9h2z"/><rect class="fil3 str0" x="14053" y="9153" width="243.041" height="57.518" rx="194" ry="161" id="rect92"/><rect class="fil3 str0" x="13698" y="9153" width="333.14" height="57.518" rx="266" ry="161" id="rect94"/><rect class="fil3 str0" x="13550" y="9153" width="127.201" height="57.518" rx="102" ry="161" id="rect96"/><rect x="14437" y="9153" width="154.455" height="57.518" rx="123" ry="161" id="rect98" style="fill:#6e248d"/><path class="fil5" d="M14571 9173h-3l-2 4h-8l-2-4h-3l8 17h2zm-6 6-3 8-3-8z" id="path100"/><path id="polygon102" class="fil5" d="M14551 9192v-19h-2v19z"/><path id="polygon104" class="fil5" d="M14540 9178v2h6v-2z"/><path id="path106" class="fil5" d="M14518 9175h6c-3 1-4 4-4 7 0 5 4 9 9 9s9-4 9-9c0-6-4-9-9-9h-11zm11 0c4 0 6 3 6 7s-2 7-6 7-7-3-7-7 3-7 7-7z"/><path id="path108" class="fil5" d="M14506 9185h2v-7c0-2 2-4 4-4 1 0 2 1 2 4v7h3v-8c0-3-2-5-5-5-2 0-3 1-4 2v-1h-2z"/><path id="path110" class="fil5" d="M14503 9173h-3v6c0 2-1 3-3 3h-1v3h1c1 0 3-1 3-2v2h3z"/><path id="polygon112" class="fil5" d="m14491 9184-2 6h3l1-6z"/><path id="path114" class="fil5" d="M14485 9182c-1 0-2 1-4 1s-2-1-2-2v-1h1c4 0 7-1 7-4 0-2-2-4-4-4s-4 1-5 2v-1h-2v8c0 2 2 4 5 4 2 0 4-1 5-2zm-6-4c0-2 0-4 3-4 1 0 2 1 2 2 0 2-2 2-4 2z"/><path id="path116" class="fil5" d="M14473 9173h-2v6c0 3-2 4-4 4-1 0-2-1-2-3v-7h-3v7c0 3 3 5 5 5s3-1 4-2v2h2z"/><path d="M12922 7906c-1948 2093-3283 1527-4995 1057-3640-999-6439 1277-7929 4665-3792 8624-156 10719 1223 10726 5975 29 4796 4153 15449-568 2730-1210 3486-7293-18-10817-420-422-3213-5026-3730-5063z" id="path118" style="fill:#ad5ecc"/><path d="M12922 11886C9063 15194 4832 4752-2 13628c-4505 8274-156 14699 1223 14706 5975 29 4796 4153 15449-568 2730-1210 3486-7293-18-10817-420-422-3213-5026-3730-5063z" id="path120" style="fill:#af66cc"/><path class="fil8" d="M12922 15754C9063 19061 5293 5314-2 13628c-5060 7946-156 18567 1223 18574 5975 29 4796 4153 15449-569 2730-1209 3486-7293-18-10816-420-422-3213-5026-3730-5063z" id="path122"/><path class="fil8" d="M12922 20062C6460 21844 6227 5781-2 13628c-5856 7379-156 18567 1223 18574 5975 29 4796 4153 15449-569 2730-1209 3486-7293-18-10816-420-422-3213-719-3730-755z" id="path124"/><path class="fil8" d="M9763 24932C3301 22725 6701 6861-2 13628c-6629 6694-156 18567 1223 18574 5975 29 4796 4153 15449-569 2730-1209 3486-7293-18-10816-420-422-6372 4152-6889 4115z" id="path126"/><path id="rect128" style="fill:#ab69c6" d="M-7427 7642h2656v2656h-2656z"/></g></g><path class="fil3" id="polygon133" d="M-2 21844V0h12924v21844z"/></g></svg>