<svg data-name="Layer 1" width="23" height="23" xmlns="http://www.w3.org/2000/svg" viewBox="0 0 174.01 189.66"><defs><linearGradient id="a" x1="1136.5" y1="-772.05" x2="1323.99" y2="-580.06" gradientTransform="matrix(1 0 0 -1 -1155.1 -550.52)" gradientUnits="userSpaceOnUse"><stop offset="0" stop-color="#6e248d"/><stop offset=".59" stop-color="#92359b"/><stop offset=".66" stop-color="#95399e"/><stop offset=".74" stop-color="#9e45a6"/><stop offset=".82" stop-color="#ae59b3"/><stop offset=".9" stop-color="#c375c6"/><stop offset=".98" stop-color="#df99dd"/><stop offset="1" stop-color="#e9a6e6"/></linearGradient><linearGradient id="b" x1="35.12" y1="107.34" x2="138.88" y2="107.34" gradientTransform="matrix(1 0 0 -1 0 191.99)" gradientUnits="userSpaceOnUse"><stop offset="0" stop-color="#fff"/><stop offset=".59" stop-color="#fff"/><stop offset=".67" stop-color="#fefbfe"/><stop offset=".76" stop-color="#fbeffb"/><stop offset=".85" stop-color="#f6dbf5"/><stop offset=".94" stop-color="#efbfed"/><stop offset="1" stop-color="#e9a6e6"/></linearGradient></defs><path d="M159.27 49.48V34.66c0-15.43-6.49-23.78-11.94-28.07-7.83-6.18-18.94-8.12-30.48-5.35L15.63 25.6A20.36 20.36 0 0 0 0 45.48v108.84a35.35 35.35 0 0 0 35.35 35.35H174V73.48a26.9 26.9 0 0 0-14.73-24zM12 45.48a8.38 8.38 0 0 1 6.44-8.17L119.66 13a31.49 31.49 0 0 1 7.34-1 20.65 20.65 0 0 1 12.89 4c4.81 3.8 7.36 10.24 7.36 18.65v11.98H12z" transform="translate(0 -.01)" style="fill:url(#a)"/><path style="fill:none" d="M35.12 84.65h103.76"/><rect x="35.12" y="80.24" width="103.76" height="8.82" rx="4.41" ry="4.41" style="fill:url(#b)"/></svg>