<svg xmlns="http://www.w3.org/2000/svg" xml:space="preserve" width="28" height="28" version="1.0" style="shape-rendering:geometricPrecision;text-rendering:geometricPrecision;image-rendering:optimizeQuality;fill-rule:evenodd;clip-rule:evenodd" viewBox="0 0 415 356"><path d="m10 260 58-37 57-37 13-8v46h161v43c0 11-5 22-12 29-7 8-17 13-28 13H138v47l-13-9-57-36-58-37-11-7 11-7zM405 96l-57 37-56 36-13 9v-47H121V89c0-11 4-22 11-30 7-7 16-12 27-12h120V0l13 9 56 36 57 37 11 7-11 7z" style="fill:#6e248d"/></svg>