<svg data-name="Layer 1" width="23" height="23" xmlns="http://www.w3.org/2000/svg" viewBox="0 0 174.01 189.66"><path d="M1103.37 789v-14.82c0-15.43-6.49-23.78-11.94-28.07-7.83-6.18-18.94-8.12-30.48-5.35l-101.22 24.36A20.36 20.36 0 0 0 944.1 785v108.84a35.35 35.35 0 0 0 35.35 35.35h138.66V813a26.91 26.91 0 0 0-14.74-24zm-147.27-4a8.38 8.38 0 0 1 6.44-8.17l101.22-24.36a31.45 31.45 0 0 1 7.36-.91 20.64 20.64 0 0 1 12.89 4c4.81 3.8 7.36 10.24 7.36 18.65v11.94H956.1z" transform="translate(-944.1 -739.52)" style="fill:#ccc"/><path style="fill:#6e248d" d="M35.12 87.84h103.76"/><path style="fill:#fff" d="M35.12 81.84h103.76v12H35.12z"/></svg>