<?xml version="1.0" encoding="UTF-8"?>
<!DOCTYPE svg PUBLIC "-//W3C//DTD SVG 1.1//EN" "http://www.w3.org/Graphics/SVG/1.1/DTD/svg11.dtd">
<!-- Creator: CorelDRAW X7 -->
<svg xmlns="http://www.w3.org/2000/svg" xml:space="preserve" width="23" height="23" version="1.1" style="shape-rendering:geometricPrecision; text-rendering:geometricPrecision; image-rendering:optimizeQuality; fill-rule:evenodd; clip-rule:evenodd"
viewBox="0 0 16933 16933"
 xmlns:xlink="http://www.w3.org/1999/xlink">
 <defs>
  <style type="text/css">
   <![CDATA[
    .fil0 {fill:#CCCCCC;fill-rule:nonzero}
   ]]>
  </style>
 </defs>
 <g id="Layer_x0020_1">
  <metadata id="CorelCorpID_0Corel-Layer"/>
  <path class="fil0" d="M11363 13270c600,-331 1148,-783 1601,-1351l3 0c241,-302 448,-630 619,-976 172,-348 306,-712 399,-1084 56,-225 97,-454 125,-684l-289 -334 -229 198c-21,206 -54,409 -100,607l-6 25 -11 40 -1 0c-82,336 -201,664 -355,978 -156,319 -344,619 -564,893l-2 0c-413,517 -908,927 -1447,1225 -562,311 -1178,504 -1807,574 -625,70 -1268,17 -1887,-162l0 0c-597,-172 -1169,-462 -1678,-869l-21 -16c-39,-24 -84,-33 -128,-28l-2 0c-50,5 -99,30 -133,72l-6 8 -75 93c-33,42 -47,96 -42,147 5,52 31,102 73,136l-1 1c569,454 1204,776 1863,966 684,198 1398,255 2097,177 697,-77 1380,-292 2004,-636zm-9927 -6390c-4,52 13,107 47,147l1986 2291 1 -1 0 1 25 29c35,41 85,64 136,68 50,3 102,-11 141,-43l6 -5 2296 -1991 0 -1 1 0 29 -25c40,-35 63,-85 67,-137 4,-49 -10,-100 -42,-140l-6 -7c-35,-40 -85,-64 -137,-68 -51,-3 -105,12 -147,48l-1771 1537 -401 348 -348 -402 -1531 -1765c-35,-41 -86,-65 -137,-68 -52,-4 -106,12 -147,47 -41,36 -64,86 -68,137zm4794 -3877c-600,331 -1147,783 -1601,1351l-2 0c-241,302 -448,630 -620,976 -172,348 -305,712 -398,1084 -56,225 -98,454 -125,684l289 334 229 -199c21,-205 54,-408 99,-606l7 -25 11 -40 0 0c83,-336 202,-664 356,-978 155,-319 344,-619 564,-893l2 0c412,-517 907,-927 1447,-1225 562,-311 1178,-504 1806,-574 626,-70 1269,-17 1888,162l0 0c597,172 1168,462 1678,869l21 16c38,24 83,33 128,28l2 0c50,-5 99,-30 133,-72l5 -8 76 -93c33,-42 47,-96 42,-147 -5,-52 -31,-102 -73,-136l0 -1c-568,-454 -1203,-776 -1862,-966 -684,-198 -1398,-255 -2097,-177 -696,77 -1380,292 -2005,636zm9928 6390c3,-52 -13,-107 -48,-147l-1985 -2291 -1 0 0 0 -25 -29c-35,-41 -85,-64 -136,-68 -50,-3 -102,11 -142,43l-6 5 -2296 1991 1 1 -1 0 -29 25c-40,35 -64,85 -67,137 -4,49 10,100 41,140l6 7c35,40 86,64 137,67 52,4 106,-11 147,-47l1772 -1537 401 -348 349 402 1530 1765c34,41 85,65 136,68 52,3 106,-12 148,-47 41,-36 64,-86 68,-137z"/>
 </g>
</svg>
