<svg id="Layer_1" data-name="Layer 1" width="23" height="23" xmlns="http://www.w3.org/2000/svg" xmlns:xlink="http://www.w3.org/1999/xlink" viewBox="0 0 174.01 189.66"><defs><style>.cls-1{fill:url(#linear-gradient);}.cls-2{fill:none;}.cls-3{fill:url(#linear-gradient-2);}</style><linearGradient id="linear-gradient" x1="1136.5" y1="-772.05" x2="1323.99" y2="-580.06" gradientTransform="matrix(1, 0, 0, -1, -1155.1, -550.52)" gradientUnits="userSpaceOnUse"><stop offset="0" stop-color="#6e248d"/><stop offset="0.59" stop-color="#92359b"/><stop offset="0.66" stop-color="#95399e"/><stop offset="0.74" stop-color="#9e45a6"/><stop offset="0.82" stop-color="#ae59b3"/><stop offset="0.9" stop-color="#c375c6"/><stop offset="0.98" stop-color="#df99dd"/><stop offset="1" stop-color="#e9a6e6"/></linearGradient><linearGradient id="linear-gradient-2" x1="35.12" y1="107.34" x2="138.88" y2="107.34" gradientTransform="matrix(1, 0, 0, -1, 0, 191.99)" gradientUnits="userSpaceOnUse"><stop offset="0" stop-color="#fff"/><stop offset="0.59" stop-color="#fff"/><stop offset="0.67" stop-color="#fefbfe"/><stop offset="0.76" stop-color="#fbeffb"/><stop offset="0.85" stop-color="#f6dbf5"/><stop offset="0.94" stop-color="#efbfed"/><stop offset="1" stop-color="#e9a6e6"/></linearGradient></defs><title>PEMBAYARAN_FILL</title><path class="cls-1" d="M159.27,49.48V34.66c0-15.43-6.49-23.78-11.94-28.07C139.5.41,128.39-1.53,116.85,1.24L15.63,25.6A20.36,20.36,0,0,0,0,45.48v1.15H0V154.32a35.35,35.35,0,0,0,35.35,35.35H174V73.48A26.9,26.9,0,0,0,159.27,49.48ZM12,45.48a8.38,8.38,0,0,1,6.44-8.17L119.66,13A31.49,31.49,0,0,1,127,12a20.65,20.65,0,0,1,12.89,4c4.81,3.8,7.36,10.24,7.36,18.65V46.63H12Z" transform="translate(0 -0.01)"/><line class="cls-2" x1="35.12" y1="84.65" x2="138.88" y2="84.65"/><rect class="cls-3" x="35.12" y="80.24" width="103.76" height="8.82" rx="4.41" ry="4.41"/></svg>