<?xml version="1.0" encoding="UTF-8"?>
<!DOCTYPE svg PUBLIC "-//W3C//DTD SVG 1.1//EN" "http://www.w3.org/Graphics/SVG/1.1/DTD/svg11.dtd">
<!-- Creator: CorelDRAW X7 -->
<svg xmlns="http://www.w3.org/2000/svg" xml:space="preserve" width="169.333mm" height="169.333mm" version="1.1" style="shape-rendering:geometricPrecision; text-rendering:geometricPrecision; image-rendering:optimizeQuality; fill-rule:evenodd; clip-rule:evenodd"
viewBox="0 0 16933 16933"
 xmlns:xlink="http://www.w3.org/1999/xlink">
 <defs>
  <style type="text/css">
   <![CDATA[
    .fil0 {fill:#F1C40F}
    .fil1 {fill:#F1C40F;fill-rule:nonzero}
   ]]>
  </style>
 </defs>
 <g id="Layer_x0020_1">
  <metadata id="CorelCorpID_0Corel-Layer"/>
  <path class="fil0" d="M6729 8072l17 53c2,6 7,10 14,10l56 0c6,0 12,4 14,11 2,6 0,12 -6,16l-45 33c-5,4 -7,10 -5,17l17 52c2,7 0,13 -5,17 -6,4 -12,4 -18,0l-45 -33c-5,-4 -12,-4 -17,0l-45 33c-6,4 -12,4 -18,0 -5,-4 -7,-10 -5,-17l17 -52c2,-7 0,-13 -5,-17l-45 -33c-6,-4 -8,-10 -6,-16 2,-7 8,-11 14,-11l56 0c7,0 12,-4 14,-10l17 -53c2,-6 8,-10 15,-10 6,0 12,4 14,10z"/>
  <path class="fil1" d="M7929 8069l17 53c0,1 1,2 2,3l0 -1c1,1 2,1 3,1l55 0 0 0c6,0 11,2 15,5 4,3 7,7 9,12l0 1c2,5 2,10 0,15l0 0c-1,5 -5,9 -9,12l-45 33 0 0c-1,1 -2,1 -2,2l0 0c0,1 0,2 0,3l18 53c1,5 1,11 0,16l0 0c-2,5 -5,9 -10,12l0 0c-4,3 -9,5 -14,5 -5,0 -10,-2 -15,-5l-45 -33c-1,0 -2,-1 -3,-1 -1,0 -2,1 -3,1l-44 33c-5,3 -10,5 -15,5 -5,0 -10,-2 -15,-5 -4,-3 -7,-7 -9,-12 -1,-5 -1,-11 0,-16l18 -53c0,-1 0,-2 0,-3l0 0c-1,-1 -1,-1 -2,-2l0 0 -45 -33 0 0c-5,-3 -8,-7 -9,-12 -2,-5 -2,-10 0,-16 1,-5 5,-9 9,-12 4,-3 9,-5 14,-5l0 0 56 0c1,0 2,0 3,0l0 -1c1,0 1,-1 2,-2l0 0 17 -53c1,-5 5,-9 9,-12 4,-3 9,-5 14,-5 6,0 11,2 15,5l0 0c4,3 7,7 9,12zm-2 59l-17 -53c0,-1 -1,-2 -2,-2l0 0c0,-1 -1,-1 -3,-1 -1,0 -2,0 -3,1 0,0 -1,1 -1,2l-17 53 0 0c-2,5 -5,10 -9,13l0 0c-5,3 -10,4 -15,4l-56 0 0 0c-1,0 -2,1 -3,1 0,1 -1,2 -1,3 -1,1 -1,2 0,3 0,1 1,2 1,2l0 0 45 33 0 0c5,3 8,7 10,12l0 0c1,5 1,10 0,16l-18 52c0,2 0,3 0,4 0,0 1,1 2,2 1,1 2,1 3,1 1,0 2,0 3,-1l45 -33c4,-3 9,-5 14,-5 5,0 11,2 15,5l45 33c1,1 2,1 3,1 1,0 2,0 3,-1l0 0c1,-1 1,-2 2,-2l0 0c0,-1 0,-2 0,-4l-18 -52c-1,-6 -1,-11 0,-16l0 0c2,-5 5,-9 9,-12l0 0 45 -33c1,-1 2,-1 2,-2l0 0c0,-1 0,-2 0,-3l0 0c0,-1 -1,-2 -2,-3 0,0 -1,-1 -3,-1l0 0 -55 0c-6,0 -11,-1 -15,-4l0 0c-4,-3 -7,-8 -9,-13zm-296 -59l17 53c1,1 1,2 2,3l0 -1c1,1 2,1 3,1l56 0 0 0c5,0 10,2 14,5 4,3 8,7 9,12l0 1c2,5 2,10 0,15 -1,5 -4,9 -9,12l0 0 -45 33 0 0c-1,1 -1,1 -2,2l0 0c0,1 0,2 0,3l18 53c1,5 1,11 0,16l0 0c-2,5 -5,9 -9,12l0 0c-5,3 -10,5 -15,5 -5,0 -10,-2 -15,-5l-45 -33c0,0 -1,-1 -3,-1 -1,0 -2,1 -2,1l-45 33c-5,3 -10,5 -15,5 -5,0 -10,-2 -15,-5 -4,-3 -7,-7 -9,-12 -1,-5 -1,-11 0,-16l18 -53c0,-1 0,-2 0,-3l0 0c-1,-1 -1,-1 -2,-2l0 0 -45 -33 0 0c-5,-3 -8,-7 -9,-12 -2,-5 -2,-10 0,-16l0 0c1,-5 5,-9 9,-12 4,-3 9,-5 14,-5l56 0c1,0 2,0 3,0l0 -1c1,0 1,-1 2,-2l0 0 17 -53c1,-5 5,-9 9,-12 4,-3 9,-5 14,-5 6,0 11,2 15,5l0 0c4,3 7,7 9,12zm-2 59l-17 -53c0,-1 -1,-2 -2,-2l0 0c0,-1 -1,-1 -3,-1 -1,0 -2,0 -2,1 -1,0 -2,1 -2,2l-17 53 0 0c-2,5 -5,10 -9,13l0 0c-4,3 -10,4 -15,4l-56 0c-1,0 -2,1 -3,1 0,1 -1,2 -1,3l0 0c-1,1 -1,2 0,3 0,1 1,2 1,2l1 0 45 33 0 0c4,3 7,7 9,12l0 0c1,5 1,10 0,16l-18 52c0,2 0,3 0,4 1,0 1,1 2,2 1,1 2,1 3,1 1,0 2,0 3,-1l45 -33c4,-3 9,-5 14,-5 6,0 11,2 15,5l45 33c1,1 2,1 3,1 1,0 2,0 3,-1l0 0c1,-1 1,-2 2,-2l0 0c0,-1 0,-2 0,-4l-18 -52c-1,-6 -1,-11 0,-16l0 0c2,-5 5,-9 9,-12l0 0 45 -33 0 0c1,0 2,-1 2,-2 1,-1 1,-2 0,-3l0 0c0,-1 -1,-2 -2,-3 0,0 -1,-1 -2,-1l0 0 -56 0c-5,0 -11,-1 -15,-4l0 0c-4,-3 -7,-8 -9,-13zm-296 -59l17 53c1,1 1,2 2,3l0 -1c1,1 2,1 3,1l56 0 0 0c5,0 10,2 14,5l0 0c4,3 8,7 9,12l0 1c2,5 2,10 0,15 -1,5 -4,9 -9,12l-45 33 0 0c-1,1 -1,1 -2,2 0,1 0,2 0,3l18 53c1,5 1,11 0,16l0 0c-2,5 -5,9 -9,12l0 0c-5,3 -10,5 -15,5 -5,0 -10,-2 -15,-5l-44 -33c-1,0 -2,-1 -3,-1 -1,0 -2,1 -3,1l-45 33c-5,3 -10,5 -15,5 -5,0 -10,-2 -14,-5l0 0c-5,-3 -8,-7 -10,-12l0 0c-1,-5 -1,-11 0,-16l18 -53c0,-1 0,-2 0,-3l0 0c-1,-1 -1,-1 -2,-2l0 0 -45 -33 0 0c-4,-3 -8,-7 -9,-12 -2,-5 -2,-10 0,-16l0 0c2,-5 5,-9 9,-12 4,-3 9,-5 15,-5l55 0c1,0 2,0 3,0l0 -1c1,0 2,-1 2,-2l0 0 17 -53c2,-5 5,-9 9,-12 4,-3 9,-5 15,-5 5,0 10,2 14,5l0 0c4,3 8,7 9,12zm-2 59l-17 -53c0,-1 -1,-2 -1,-2l0 0c-1,-1 -2,-1 -3,-1 -2,0 -3,0 -3,1 -1,0 -2,1 -2,2l-17 53 0 0c-2,5 -5,10 -9,13l0 0c-4,3 -9,4 -15,4l-55 0c-2,0 -3,1 -3,1 -1,1 -2,2 -2,3l0 0c-1,1 -1,2 0,3 0,1 1,2 2,2l0 0 45 33 0 0c4,3 7,7 9,12l0 0c1,5 1,10 0,16l-18 52c0,2 0,3 0,4l0 0c1,0 1,1 2,2l0 0c1,1 2,1 3,1 1,0 2,0 3,-1l45 -33c4,-3 9,-5 15,-5 5,0 10,2 14,5l45 33c1,1 2,1 3,1 1,0 2,0 3,-1l0 0c1,-1 2,-2 2,-2l0 0c0,-1 0,-2 0,-4l-18 -52c-1,-6 -1,-11 0,-16 2,-5 5,-9 10,-12l0 0 45 -33c0,-1 1,-1 1,-2 1,-1 1,-2 0,-3l0 0c0,-1 -1,-2 -1,-3l0 0c-1,0 -2,-1 -3,-1l0 0 -56 0c-5,0 -10,-1 -15,-4l0 0c-4,-3 -7,-8 -9,-13zm-296 -59l17 53c1,1 1,2 2,3l0 -1c1,1 2,1 3,1l56 0 0 0c5,0 10,2 14,5l0 0c5,3 8,7 9,12l0 1c2,5 2,10 0,15 -1,5 -4,9 -9,12l0 0 -45 33 0 0c-1,1 -1,1 -2,2l0 0c0,1 0,2 1,3l17 53c1,5 1,11 0,16l0 0c-2,5 -5,9 -9,12l0 0c-5,3 -10,5 -15,5 -5,0 -10,-2 -14,-5l-45 -33c-1,0 -2,-1 -3,-1 -1,0 -2,1 -3,1l-45 33c-5,3 -10,5 -15,5 -5,0 -10,-2 -14,-5 -5,-3 -8,-7 -9,-12 -2,-5 -2,-11 0,-16l17 -53c0,-1 0,-2 0,-3l0 0c0,-1 -1,-1 -2,-2l0 0 -45 -33 0 0c-4,-3 -8,-7 -9,-12 -2,-5 -2,-10 0,-16l0 0c2,-5 5,-9 9,-12 4,-3 9,-5 15,-5l55 0c1,0 2,0 3,0l0 -1c1,0 2,-1 2,-2l0 0 17 -53c2,-5 5,-9 9,-12 4,-3 9,-5 15,-5 5,0 10,2 14,5l0 0c5,3 8,7 9,12zm-2 59l-17 -53c0,-1 -1,-2 -1,-2l0 0c-1,-1 -2,-1 -3,-1 -1,0 -2,0 -3,1 -1,0 -2,1 -2,2l-17 53 0 0c-2,5 -5,10 -9,13l0 0c-4,3 -9,4 -15,4l-55 0c-1,0 -2,1 -3,1 -1,1 -2,2 -2,3l0 0c0,1 0,2 0,3 0,1 1,2 2,2l0 0 45 33 0 0c4,3 7,7 9,12l0 0c1,5 2,10 0,16l-17 52c-1,2 -1,3 -1,4 1,0 1,1 2,2 1,1 2,1 3,1 1,0 2,0 3,-1l45 -33c4,-3 10,-5 15,-5 5,0 10,2 14,5l45 33c1,1 2,1 3,1 1,0 2,0 3,-1l0 0c1,-1 2,-2 2,-2l0 0c0,-1 0,-2 0,-4l-17 -52c-2,-6 -2,-11 0,-16l0 0c1,-5 4,-9 9,-12l0 0 45 -33 0 0c1,0 1,-1 1,-2 1,-1 1,-2 0,-3l0 0c0,-1 -1,-2 -1,-3l0 0c-1,0 -2,-1 -3,-1l0 0 -56 0c-5,0 -10,-1 -15,-4l0 0c-4,-3 -7,-8 -9,-13zm-295 -59l17 53 0 0c1,1 1,2 2,2l0 1c1,0 2,0 3,0l56 0 0 0c5,0 10,2 14,5 4,3 8,7 9,12 2,6 2,11 0,16 -1,5 -4,9 -9,12l0 0 -45 33 0 0c-1,1 -1,1 -2,2l0 0c0,1 0,2 0,3l18 53c1,5 1,11 0,16l0 0c-2,5 -5,9 -9,12l0 0c-5,3 -10,5 -15,5 -5,0 -10,-2 -15,-5l0 0 -45 -33c0,0 -1,-1 -2,-1 -2,0 -3,1 -3,1l-45 33c-5,3 -10,5 -15,5 -5,0 -10,-2 -15,-5 -4,-3 -7,-7 -9,-12 -1,-5 -1,-11 0,-16l18 -53c0,-1 0,-2 0,-3l0 0c-1,-1 -1,-1 -2,-2l0 0 -45 -33c-5,-3 -8,-7 -9,-12l0 0c-2,-5 -2,-10 0,-15 1,-6 5,-10 9,-13 4,-3 9,-5 14,-5l56 0c1,0 2,0 3,-1l0 1c1,-1 1,-2 2,-3l17 -53c2,-5 5,-9 9,-12l0 0c4,-3 9,-5 15,-5 5,0 10,2 14,5 4,3 7,7 9,12zm-2 59l-17 -53c0,-1 -1,-2 -2,-2 0,-1 -1,-1 -2,-1 -2,0 -3,0 -3,1l0 0c-1,0 -2,1 -2,2l-17 53c-2,5 -5,10 -9,13l0 0c-4,3 -10,4 -15,4l-56 0c-1,0 -2,1 -2,1 -1,1 -2,2 -2,3 -1,1 -1,2 0,3l0 0c0,1 1,1 2,2l45 33 0 0c4,3 7,7 9,12l0 0c1,5 1,10 0,16l-18 52c0,2 0,3 0,4 1,0 1,1 2,2 1,1 2,1 3,1 1,0 2,0 3,-1l45 -33c4,-3 9,-5 15,-5 5,0 10,2 14,5l45 33 0 0c1,1 2,1 3,1 1,0 2,0 3,-1l0 0c1,-1 1,-2 2,-2l0 0c0,-1 0,-2 0,-4l-18 -52c-1,-6 -1,-11 0,-16l0 0c2,-5 5,-9 9,-12l0 0 45 -33 0 0c1,0 2,-1 2,-2 1,-1 1,-2 0,-3 0,-1 -1,-2 -2,-3 0,0 -1,-1 -2,-1l0 0 -56 0c-5,0 -11,-1 -15,-4l0 0c-4,-3 -7,-8 -9,-13l0 0z"/>
  <path class="fil0" d="M6729 8410l17 53c2,6 7,10 14,10l56 0c6,0 12,4 14,10 2,7 0,13 -6,17l-45 33c-5,4 -7,10 -5,16l17 53c2,6 0,13 -5,17 -6,4 -12,4 -18,0l-45 -33c-5,-4 -12,-4 -17,0l-45 33c-6,4 -12,4 -18,0 -5,-4 -7,-11 -5,-17l17 -53c2,-6 0,-12 -5,-16l-45 -33c-6,-4 -8,-10 -6,-17 2,-6 8,-10 14,-10l56 0c7,0 12,-4 14,-10l17 -53c2,-6 8,-10 15,-10 6,0 12,4 14,10z"/>
  <path class="fil0" d="M7026 8410l17 53c2,6 8,10 14,10l56 0c6,0 12,4 14,10 2,7 0,13 -5,17l-46 33c-5,4 -7,10 -5,16l17 53c2,6 0,13 -5,17 -5,4 -12,4 -18,0l-45 -33c-5,-4 -12,-4 -17,0l-45 33c-5,4 -12,4 -18,0 -5,-4 -7,-11 -5,-17l17 -53c2,-6 0,-12 -5,-16l-45 -33c-5,-4 -8,-10 -6,-17 2,-6 8,-10 15,-10l55 0c7,0 12,-4 14,-10l18 -53c2,-6 7,-10 14,-10 6,0 12,4 14,10z"/>
  <path class="fil1" d="M7929 8407l17 53c0,1 1,2 2,2l0 0c1,1 2,1 3,1l55 0 0 0c6,0 11,2 15,5 4,3 7,7 9,12l0 0c2,6 2,11 0,16l0 0c-1,5 -5,9 -9,12l-45 33 0 0c-1,0 -2,1 -2,2l0 0c0,1 0,2 0,3l18 53c1,5 1,11 0,16l0 0c-2,4 -5,9 -10,12l0 0c-4,3 -9,5 -14,5 -5,0 -10,-2 -15,-5l-45 -33c-1,0 -2,-1 -3,-1 -1,0 -2,1 -3,1l-44 33c-5,3 -10,5 -15,5 -5,0 -10,-2 -15,-5 -4,-3 -7,-8 -9,-13 -1,-4 -1,-10 0,-15l18 -53c0,-1 0,-2 0,-3l0 0c-1,-1 -1,-2 -2,-2l0 0 -45 -33 0 0c-5,-3 -8,-7 -9,-12 -2,-5 -2,-11 0,-16 1,-5 5,-9 9,-12 4,-3 9,-5 14,-5l0 0 56 0c1,0 2,0 3,-1l0 0c1,0 1,-1 2,-2l0 0 17 -53c1,-5 5,-10 9,-13 4,-3 9,-4 14,-4 6,0 11,1 15,4l0 0c4,3 7,8 9,13zm-2 59l-17 -53c0,-1 -1,-2 -2,-2l0 0c0,-1 -1,-1 -3,-1 -1,0 -2,0 -3,1 0,0 -1,1 -1,2l-17 53 0 0c-2,5 -5,9 -9,12l0 0c-5,3 -10,5 -15,5l-56 0 0 0c-1,0 -2,0 -3,1 0,1 -1,1 -1,2 -1,2 -1,3 0,4 0,0 1,1 1,2l0 0 45 33 0 0c5,3 8,7 10,12l0 0c1,5 1,10 0,15l-18 53c0,1 0,2 0,3 0,1 1,2 2,3 1,0 2,1 3,1 1,0 2,-1 3,-1l45 -33c4,-3 9,-5 14,-5 5,0 11,2 15,5l45 33c1,0 2,1 3,1 1,0 2,-1 3,-1l0 0c1,-1 1,-2 2,-3l0 0c0,-1 0,-2 0,-3l-18 -53c-1,-5 -1,-10 0,-15l0 0c2,-5 5,-9 9,-12l0 0 45 -33c1,-1 2,-2 2,-2l0 0c0,-1 0,-2 0,-4l0 0c0,-1 -1,-1 -2,-2 0,-1 -1,-1 -3,-1l0 0 -55 0c-6,0 -11,-2 -15,-5l0 0c-4,-3 -7,-7 -9,-12zm-296 -59l17 53c1,1 1,2 2,2l0 0c1,1 2,1 3,1l56 0 0 0c5,0 10,2 14,5 4,3 8,7 9,12l0 0c2,6 2,11 0,16 -1,5 -4,9 -9,12l0 0 -45 33 0 0c-1,0 -1,1 -2,2l0 0c0,1 0,2 0,3l18 53c1,5 1,11 0,16l0 0c-2,4 -5,9 -9,12l0 0c-5,3 -10,5 -15,5 -5,0 -10,-2 -15,-5l-45 -33c0,0 -1,-1 -3,-1 -1,0 -2,1 -2,1l-45 33c-5,3 -10,5 -15,5 -5,0 -10,-2 -15,-5 -4,-3 -7,-8 -9,-13 -1,-4 -1,-10 0,-15l18 -53c0,-1 0,-2 0,-3l0 0c-1,-1 -1,-2 -2,-2l0 0 -45 -33 0 0c-5,-3 -8,-7 -9,-12 -2,-5 -2,-11 0,-16l0 0c1,-5 5,-9 9,-12 4,-3 9,-5 14,-5l56 0c1,0 2,0 3,-1l0 0c1,0 1,-1 2,-2l0 0 17 -53c1,-5 5,-10 9,-13 4,-3 9,-4 14,-4 6,0 11,1 15,4l0 0c4,3 7,8 9,13zm-2 59l-17 -53c0,-1 -1,-2 -2,-2l0 0c0,-1 -1,-1 -3,-1 -1,0 -2,0 -2,1 -1,0 -2,1 -2,2l-17 53 0 0c-2,5 -5,9 -9,12l0 0c-4,3 -10,5 -15,5l-56 0c-1,0 -2,0 -3,1 0,1 -1,1 -1,2l0 0c-1,2 -1,3 0,4 0,0 1,1 1,2l1 0 45 33 0 0c4,3 7,7 9,12l0 0c1,5 1,10 0,15l-18 53c0,1 0,2 0,3 1,1 1,2 2,3 1,0 2,1 3,1 1,0 2,-1 3,-1l45 -33c4,-3 9,-5 14,-5 6,0 11,2 15,5l45 33c1,0 2,1 3,1 1,0 2,-1 3,-1l0 0c1,-1 1,-2 2,-3l0 0c0,-1 0,-2 0,-3l-18 -53c-1,-5 -1,-10 0,-15l0 0c2,-5 5,-9 9,-12l0 0 45 -33 0 0c1,-1 2,-2 2,-2 1,-1 1,-2 0,-4l0 0c0,-1 -1,-1 -2,-2 0,-1 -1,-1 -2,-1l0 0 -56 0c-5,0 -11,-2 -15,-5l0 0c-4,-3 -7,-7 -9,-12zm-296 -59l17 53c1,1 1,2 2,2l0 0c1,1 2,1 3,1l56 0 0 0c5,0 10,2 14,5l0 0c4,3 8,7 9,12l0 0c2,6 2,11 0,16 -1,5 -4,9 -9,12l-45 33 0 0c-1,0 -1,1 -2,2 0,1 0,2 0,3l18 53c1,5 1,11 0,16l0 0c-2,4 -5,9 -9,12l0 0c-5,3 -10,5 -15,5 -5,0 -10,-2 -15,-5l-44 -33c-1,0 -2,-1 -3,-1 -1,0 -2,1 -3,1l-45 33c-5,3 -10,5 -15,5 -5,0 -10,-2 -14,-5l0 0c-5,-3 -8,-8 -10,-12l0 0c-1,-5 -1,-11 0,-16l18 -53c0,-1 0,-2 0,-3l0 0c-1,-1 -1,-2 -2,-2l0 0 -45 -33 0 0c-4,-3 -8,-7 -9,-12 -2,-5 -2,-11 0,-16l0 0c2,-5 5,-9 9,-12 4,-3 9,-5 15,-5l55 0c1,0 2,0 3,-1l0 0c1,0 2,-1 2,-2l0 0 17 -53c2,-5 5,-10 9,-13 4,-3 9,-4 15,-4 5,0 10,1 14,4l0 0c4,3 8,8 9,13zm-2 59l-17 -53c0,-1 -1,-2 -1,-2l0 0c-1,-1 -2,-1 -3,-1 -2,0 -3,0 -3,1 -1,0 -2,1 -2,2l-17 53 0 0c-2,5 -5,9 -9,12l0 0c-4,3 -9,5 -15,5l-55 0c-2,0 -3,0 -3,1 -1,1 -2,1 -2,2l0 0c-1,2 -1,3 0,4 0,0 1,1 2,2l0 0 45 33 0 0c4,3 7,7 9,12l0 0c1,5 1,10 0,15l-18 53c0,1 0,2 0,3l0 0c1,1 1,2 2,3l0 0c1,0 2,1 3,1 1,0 2,-1 3,-1l45 -33c4,-3 9,-5 15,-5 5,0 10,2 14,5l45 33c1,0 2,1 3,1 1,0 2,-1 3,-1l0 0c1,-1 2,-2 2,-3l0 0c0,-1 0,-2 0,-3l-18 -53c-1,-5 -1,-10 0,-15 2,-5 5,-9 10,-12l0 0 45 -33c0,-1 1,-2 1,-2 1,-1 1,-2 0,-4l0 0c0,-1 -1,-1 -1,-2l0 0c-1,-1 -2,-1 -3,-1l0 0 -56 0c-5,0 -10,-2 -15,-5l0 0c-4,-3 -7,-7 -9,-12zm-296 -59l17 53c1,1 1,2 2,2l0 0c1,1 2,1 3,1l56 0 0 0c5,0 10,2 14,5l0 0c5,3 8,7 9,12l0 0c2,6 2,11 0,16 -1,5 -4,9 -9,12l0 0 -45 33 0 0c-1,0 -1,1 -2,2l0 0c0,1 0,2 1,3l17 53c1,5 1,11 0,16l0 0c-2,4 -5,9 -9,12l0 0c-5,3 -10,5 -15,5 -5,0 -10,-2 -14,-5l-45 -33c-1,0 -2,-1 -3,-1 -1,0 -2,1 -3,1l-45 33c-5,3 -10,5 -15,5 -5,0 -10,-2 -14,-5 -5,-3 -8,-8 -9,-13 -2,-4 -2,-10 0,-15l17 -53c0,-1 0,-2 0,-3l0 0c0,-1 -1,-2 -2,-2l0 0 -45 -33 0 0c-4,-3 -8,-7 -9,-12 -2,-5 -2,-11 0,-16l0 0c2,-5 5,-9 9,-12 4,-3 9,-5 15,-5l55 0c1,0 2,0 3,-1l0 0c1,0 2,-1 2,-2l0 0 17 -53c2,-5 5,-10 9,-13 4,-3 9,-4 15,-4 5,0 10,1 14,4l0 0c5,3 8,8 9,13zm-2 59l-17 -53c0,-1 -1,-2 -1,-2l0 0c-1,-1 -2,-1 -3,-1 -1,0 -2,0 -3,1 -1,0 -2,1 -2,2l-17 53 0 0c-2,5 -5,9 -9,12l0 0c-4,3 -9,5 -15,5l-55 0c-1,0 -2,0 -3,1 -1,1 -2,1 -2,2l0 0c0,2 0,3 0,4 0,0 1,1 2,2l0 0 45 33 0 0c4,3 7,7 9,12l0 0c1,5 2,10 0,15l-17 53c-1,1 -1,2 -1,3 1,1 1,2 2,3 1,0 2,1 3,1 1,0 2,-1 3,-1l45 -33c4,-3 10,-5 15,-5 5,0 10,2 14,5l45 33c1,0 2,1 3,1 1,0 2,-1 3,-1l0 0c1,-1 2,-2 2,-3l0 0c0,-1 0,-2 0,-3l-17 -53c-2,-5 -2,-10 0,-15l0 0c1,-5 4,-9 9,-12l0 0 45 -33 0 0c1,-1 1,-2 1,-2 1,-1 1,-2 0,-4l0 0c0,-1 -1,-1 -1,-2l0 0c-1,-1 -2,-1 -3,-1l0 0 -56 0c-5,0 -10,-2 -15,-5l0 0c-4,-3 -7,-7 -9,-12zm-295 -59l17 53 0 0c1,1 1,2 2,2l0 0c1,1 2,1 3,1l56 0 0 0c5,0 10,2 14,5 4,3 8,7 9,12 2,5 2,11 0,16 -1,5 -4,9 -9,12l0 0 -45 33 0 0c-1,0 -1,1 -2,2l0 0c0,1 0,2 0,3l18 53c1,5 1,11 0,16l0 0c-2,4 -5,9 -9,12l0 0c-5,3 -10,5 -15,5 -5,0 -10,-2 -15,-5l0 0 -45 -33c0,0 -1,-1 -2,-1 -2,0 -3,1 -3,1l-45 33c-5,3 -10,5 -15,5 -5,0 -10,-2 -15,-5 -4,-3 -7,-8 -9,-13 -1,-4 -1,-10 0,-15l18 -53c0,-1 0,-2 0,-3l0 0c-1,-1 -1,-2 -2,-2l0 0 -45 -33c-5,-3 -8,-7 -9,-12l0 0c-2,-5 -2,-10 0,-16 1,-5 5,-9 9,-12 4,-3 9,-5 14,-5l56 0c1,0 2,0 3,-1l0 0c1,0 1,-1 2,-2l17 -53c2,-5 5,-10 9,-13l0 0c4,-3 9,-4 15,-4 5,0 10,1 14,4 4,3 7,8 9,13zm-2 59l-17 -53c0,-1 -1,-2 -2,-2 0,-1 -1,-1 -2,-1 -2,0 -3,0 -3,1l0 0c-1,0 -2,1 -2,2l-17 53c-2,5 -5,9 -9,12l0 0c-4,3 -10,5 -15,5l-56 0c-1,0 -2,0 -2,1 -1,1 -2,1 -2,2 -1,2 -1,3 0,4l0 0c0,0 1,1 2,2l45 33 0 0c4,3 7,7 9,12l0 0c1,5 1,10 0,15l-18 53c0,1 0,2 0,3 1,1 1,2 2,3 1,0 2,1 3,1 1,0 2,-1 3,-1l45 -33c4,-3 9,-5 15,-5 5,0 10,2 14,5l45 33 0 0c1,0 2,1 3,1 1,0 2,-1 3,-1l0 0c1,-1 1,-2 2,-3l0 0c0,-1 0,-2 0,-3l-18 -53c-1,-5 -1,-10 0,-15l0 0c2,-5 5,-9 9,-12l0 0 45 -33 0 0c1,-1 2,-2 2,-2 1,-1 1,-2 0,-4 0,-1 -1,-1 -2,-2 0,-1 -1,-1 -2,-1l0 0 -56 0c-5,0 -11,-2 -15,-5l0 0c-4,-3 -7,-7 -9,-12l0 0z"/>
  <path class="fil0" d="M6729 8749l17 53c2,6 7,10 14,10l56 0c6,0 12,4 14,10 2,6 0,13 -6,17l-45 32c-5,4 -7,11 -5,17l17 53c2,6 0,13 -5,17 -6,3 -12,3 -18,0l-45 -33c-5,-4 -12,-4 -17,0l-45 33c-6,3 -12,3 -18,0 -5,-4 -7,-11 -5,-17l17 -53c2,-6 0,-13 -5,-17l-45 -32c-6,-4 -8,-11 -6,-17 2,-6 8,-10 14,-10l56 0c7,0 12,-4 14,-10l17 -53c2,-7 8,-11 15,-11 6,0 12,4 14,11z"/>
  <path class="fil0" d="M7026 8749l17 53c2,6 8,10 14,10l56 0c6,0 12,4 14,10 2,6 0,13 -5,17l-46 32c-5,4 -7,11 -5,17l17 53c2,6 0,13 -5,17 -5,3 -12,3 -18,0l-45 -33c-5,-4 -12,-4 -17,0l-45 33c-5,3 -12,3 -18,0 -5,-4 -7,-11 -5,-17l17 -53c2,-6 0,-13 -5,-17l-45 -32c-5,-4 -8,-11 -6,-17 2,-6 8,-10 15,-10l55 0c7,0 12,-4 14,-10l18 -53c2,-7 7,-11 14,-11 6,0 12,4 14,11z"/>
  <path class="fil0" d="M7324 8749l17 53c2,6 7,10 14,10l56 0c6,0 12,4 14,10 2,6 0,13 -6,17l-45 32c-5,4 -7,11 -5,17l17 53c2,6 0,13 -5,17 -6,3 -12,3 -18,0l-45 -33c-5,-4 -12,-4 -17,0l-45 33c-5,3 -12,3 -18,0 -5,-4 -7,-11 -5,-17l17 -53c2,-6 0,-13 -5,-17l-45 -32c-6,-4 -8,-11 -6,-17 2,-6 8,-10 15,-10l55 0c7,0 12,-4 14,-10l17 -53c2,-7 8,-11 15,-11 6,0 12,4 14,11z"/>
  <path class="fil1" d="M7929 8746l17 52c0,2 1,2 2,3l0 0c1,1 2,1 3,1l55 0 0 0c6,0 11,1 15,4 4,3 7,8 9,13l0 0c2,5 2,11 0,15l0 0c-1,5 -5,10 -9,13l-45 32 0 0c-1,1 -2,2 -2,3l0 0c0,1 0,2 0,3l18 53c1,5 1,10 0,15l0 0c-2,5 -5,9 -10,13l0 0c-4,3 -9,4 -14,4 -5,0 -10,-1 -15,-4l-45 -33c-1,-1 -2,-1 -3,-1 -1,0 -2,0 -3,1l-44 33c-5,3 -10,4 -15,4 -5,0 -10,-1 -15,-4 -4,-4 -7,-8 -9,-13 -1,-5 -1,-10 0,-15l18 -53c0,-1 0,-2 0,-3l0 0c-1,-1 -1,-2 -2,-3l0 0 -45 -32 0 0c-5,-3 -8,-8 -9,-13 -2,-4 -2,-10 0,-15 1,-5 5,-10 9,-13 4,-3 9,-4 14,-4l0 0 56 0c1,0 2,0 3,-1l0 0c1,-1 1,-1 2,-3l0 0 17 -52c1,-6 5,-10 9,-13 4,-3 9,-5 14,-5 6,0 11,2 15,5l0 0c4,3 7,7 9,13zm-2 59l-17 -53c0,-1 -1,-2 -2,-3l0 0c0,0 -1,-1 -3,-1 -1,0 -2,1 -3,1 0,1 -1,2 -1,3l-17 53 0 0c-2,5 -5,9 -9,12l0 0c-5,3 -10,5 -15,5l-56 0 0 0c-1,0 -2,0 -3,1 0,0 -1,1 -1,2 -1,1 -1,2 0,3 0,1 1,2 1,3l0 0 45 32 0 0c5,3 8,8 10,13l0 0c1,5 1,10 0,15l-18 53c0,1 0,2 0,3 0,1 1,2 2,2 1,1 2,1 3,1 1,0 2,0 3,-1l45 -32c4,-4 9,-5 14,-5 5,0 11,1 15,5l45 32c1,1 2,1 3,1 1,0 2,0 3,-1l0 0c1,0 1,-1 2,-2l0 0c0,-1 0,-2 0,-3l-18 -53c-1,-5 -1,-10 0,-15l0 0c2,-5 5,-10 9,-13l0 0 45 -32c1,-1 2,-2 2,-3l0 0c0,-1 0,-2 0,-3l0 0c0,-1 -1,-2 -2,-2 0,-1 -1,-1 -3,-1l0 0 -55 0c-6,0 -11,-2 -15,-5l0 0c-4,-3 -7,-7 -9,-12zm-296 -59l17 52c1,2 1,2 2,3l0 0c1,1 2,1 3,1l56 0 0 0c5,0 10,1 14,4 4,3 8,8 9,13l0 0c2,5 2,11 0,15 -1,5 -4,10 -9,13l0 0 -45 32 0 0c-1,1 -1,2 -2,3l0 0c0,1 0,2 0,3l18 53c1,5 1,10 0,15l0 0c-2,5 -5,9 -9,13l0 0c-5,3 -10,4 -15,4 -5,0 -10,-1 -15,-4l-45 -33c0,-1 -1,-1 -3,-1 -1,0 -2,0 -2,1l-45 33c-5,3 -10,4 -15,4 -5,0 -10,-1 -15,-4 -4,-4 -7,-8 -9,-13 -1,-5 -1,-10 0,-15l18 -53c0,-1 0,-2 0,-3l0 0c-1,-1 -1,-2 -2,-3l0 0 -45 -32 0 0c-5,-3 -8,-8 -9,-13 -2,-4 -2,-10 0,-15l0 0c1,-5 5,-10 9,-13 4,-3 9,-4 14,-4l56 0c1,0 2,0 3,-1l0 0c1,-1 1,-1 2,-3l0 0 17 -52c1,-6 5,-10 9,-13 4,-3 9,-5 14,-5 6,0 11,2 15,5l0 0c4,3 7,7 9,13zm-2 59l-17 -53c0,-1 -1,-2 -2,-3l0 0c0,0 -1,-1 -3,-1 -1,0 -2,1 -2,1 -1,1 -2,2 -2,3l-17 53 0 0c-2,5 -5,9 -9,12l0 0c-4,3 -10,5 -15,5l-56 0c-1,0 -2,0 -3,1 0,0 -1,1 -1,2l0 0c-1,1 -1,2 0,3 0,1 1,2 1,3l1 0 45 32 0 0c4,3 7,8 9,13l0 0c1,5 1,10 0,15l-18 53c0,1 0,2 0,3 1,1 1,2 2,2 1,1 2,1 3,1 1,0 2,0 3,-1l45 -32c4,-4 9,-5 14,-5 6,0 11,1 15,5l45 32c1,1 2,1 3,1 1,0 2,0 3,-1l0 0c1,0 1,-1 2,-2l0 0c0,-1 0,-2 0,-3l-18 -53c-1,-5 -1,-10 0,-15l0 0c2,-5 5,-10 9,-13l0 0 45 -32 0 0c1,-1 2,-2 2,-3 1,-1 1,-2 0,-3l0 0c0,-1 -1,-2 -2,-2 0,-1 -1,-1 -2,-1l0 0 -56 0c-5,0 -11,-2 -15,-5l0 0c-4,-3 -7,-7 -9,-12zm-296 -59l17 52c1,2 1,2 2,3l0 0c1,1 2,1 3,1l56 0 0 0c5,0 10,1 14,4l0 1c4,3 8,7 9,12l0 0c2,5 2,11 0,15 -1,5 -4,10 -9,13l-45 32 0 0c-1,1 -1,2 -2,3 0,1 0,2 0,3l18 53c1,5 1,10 0,15l0 0c-2,5 -5,9 -9,13l0 0c-5,3 -10,4 -15,4 -5,0 -10,-1 -15,-4l-44 -33c-1,-1 -2,-1 -3,-1 -1,0 -2,0 -3,1l-45 33c-5,3 -10,4 -15,4 -5,0 -10,-1 -14,-4l0 0c-5,-4 -8,-8 -10,-13l0 0c-1,-5 -1,-10 0,-15l18 -53c0,-1 0,-2 0,-3l0 0c-1,-1 -1,-2 -2,-3l0 0 -45 -32 0 0c-4,-3 -8,-8 -9,-13 -2,-4 -2,-10 0,-15l0 0c2,-5 5,-10 9,-13 4,-3 9,-4 15,-4l55 0c1,0 2,0 3,-1l0 0c1,-1 2,-1 2,-3l0 0 17 -52c2,-6 5,-10 9,-13 4,-3 9,-5 15,-5 5,0 10,2 14,5l0 0c4,3 8,7 9,13zm-2 59l-17 -53c0,-1 -1,-2 -1,-3l0 0c-1,0 -2,-1 -3,-1 -2,0 -3,1 -3,1 -1,1 -2,2 -2,3l-17 53 0 0c-2,5 -5,9 -9,12l0 0c-4,3 -9,5 -15,5l-55 0c-2,0 -3,0 -3,1 -1,0 -2,1 -2,2l0 0c-1,1 -1,2 0,3 0,1 1,2 2,3l0 0 45 32 0 0c4,3 7,8 9,13l0 0c1,5 1,10 0,15l-18 53c0,1 0,2 0,3l0 0c1,1 1,2 2,2l0 0c1,1 2,1 3,1 1,0 2,0 3,-1l45 -32c4,-4 9,-5 15,-5 5,0 10,1 14,5l45 32c1,1 2,1 3,1 1,0 2,0 3,-1l0 0c1,0 2,-1 2,-2l0 0c0,-1 0,-2 0,-3l-18 -53c-1,-5 -1,-10 0,-15 2,-5 5,-10 10,-13l0 0 45 -32c0,-1 1,-2 1,-3 1,-1 1,-2 0,-3l0 0c0,-1 -1,-2 -1,-2l0 0c-1,-1 -2,-1 -3,-1l0 0 -56 0c-5,0 -10,-2 -15,-5l0 0c-4,-3 -7,-7 -9,-12zm-296 -59l17 52c1,2 1,2 2,3l0 0c1,1 2,1 3,1l56 0 0 0c5,0 10,1 14,4l0 1c5,3 8,7 9,12l0 0c2,5 2,11 0,15 -1,5 -4,10 -9,13l0 0 -45 32 0 0c-1,1 -1,2 -2,3l0 0c0,1 0,2 1,3l17 53c1,5 1,10 0,15l0 0c-2,5 -5,9 -9,13l0 0c-5,3 -10,4 -15,4 -5,0 -10,-1 -14,-4l-45 -33c-1,-1 -2,-1 -3,-1 -1,0 -2,0 -3,1l-45 33c-5,3 -10,4 -15,4 -5,0 -10,-1 -14,-4 -5,-4 -8,-8 -9,-13 -2,-5 -2,-10 0,-15l17 -53c0,-1 0,-2 0,-3l0 0c0,-1 -1,-2 -2,-3l0 0 -45 -32 0 0c-4,-3 -8,-8 -9,-13 -2,-4 -2,-10 0,-15l0 0c2,-5 5,-10 9,-13 4,-3 9,-4 15,-4l55 0c1,0 2,0 3,-1l0 0c1,-1 2,-1 2,-3l0 0 17 -52c2,-6 5,-10 9,-13 4,-3 9,-5 15,-5 5,0 10,2 14,5l0 0c5,3 8,7 9,13zm-2 59l-17 -53c0,-1 -1,-2 -1,-3l0 0c-1,0 -2,-1 -3,-1 -1,0 -2,1 -3,1 -1,1 -2,2 -2,3l-17 53 0 0c-2,5 -5,9 -9,12l0 0c-4,3 -9,5 -15,5l-55 0c-1,0 -2,0 -3,1 -1,0 -2,1 -2,2l0 0c0,1 0,2 0,3 0,1 1,2 2,3l0 0 45 32 0 0c4,3 7,8 9,13l0 0c1,5 2,10 0,15l-17 53c-1,1 -1,2 -1,3 1,1 1,2 2,2 1,1 2,1 3,1 1,0 2,0 3,-1l45 -32c4,-4 10,-5 15,-5 5,0 10,1 14,5l45 32c1,1 2,1 3,1 1,0 2,0 3,-1l0 0c1,0 2,-1 2,-2l0 0c0,-1 0,-2 0,-3l-17 -53c-2,-5 -2,-10 0,-15l0 0c1,-5 4,-10 9,-13l0 0 45 -32 0 0c1,-1 1,-2 1,-3 1,-1 1,-2 0,-3l0 0c0,-1 -1,-2 -1,-2l0 0c-1,-1 -2,-1 -3,-1l0 0 -56 0c-5,0 -10,-2 -15,-5l0 0c-4,-3 -7,-7 -9,-12zm-295 -59l17 52 0 0c1,2 1,2 2,3l0 0c1,1 2,1 3,1l56 0 0 0c5,0 10,1 14,4 4,3 8,8 9,13 2,5 2,11 0,15 -1,5 -4,10 -9,13l0 0 -45 32 0 0c-1,1 -1,2 -2,3l0 0c0,1 0,2 0,3l18 53c1,5 1,10 0,15l0 0c-2,5 -5,9 -9,13l0 0c-5,3 -10,4 -15,4 -5,0 -10,-1 -15,-4l0 0 -45 -33c0,-1 -1,-1 -2,-1 -2,0 -3,0 -3,1l-45 33c-5,3 -10,4 -15,4 -5,0 -10,-1 -15,-4 -4,-4 -7,-8 -9,-13 -1,-5 -1,-10 0,-15l18 -53c0,-1 0,-2 0,-3l0 0c-1,-1 -1,-2 -2,-3l0 0 -45 -32c-5,-3 -8,-8 -9,-13l0 0c-2,-4 -2,-10 0,-15 1,-5 5,-10 9,-13 4,-3 9,-4 14,-4l56 0c1,0 2,0 3,-1l0 0c1,-1 1,-1 2,-3l17 -52c2,-6 5,-10 9,-13l0 0c4,-3 9,-5 15,-5 5,0 10,2 14,5 4,3 7,7 9,13zm-2 59l-17 -53c0,-1 -1,-2 -2,-3 0,0 -1,-1 -2,-1 -2,0 -3,1 -3,1l0 0c-1,1 -2,2 -2,3l-17 53c-2,5 -5,9 -9,12l0 0c-4,3 -10,5 -15,5l-56 0c-1,0 -2,0 -2,1 -1,0 -2,1 -2,2 -1,1 -1,2 0,3l0 0c0,1 1,2 2,3l45 32 0 0c4,3 7,8 9,13l0 0c1,5 1,10 0,15l-18 53c0,1 0,2 0,3 1,1 1,2 2,2 1,1 2,1 3,1 1,0 2,0 3,-1l45 -32c4,-4 9,-5 15,-5 5,0 10,1 14,5l45 32 0 0c1,1 2,1 3,1 1,0 2,0 3,-1l0 0c1,0 1,-1 2,-2l0 0c0,-1 0,-2 0,-3l-18 -53c-1,-5 -1,-10 0,-15l0 0c2,-5 5,-10 9,-13l0 0 45 -32 0 0c1,-1 2,-2 2,-3 1,-1 1,-2 0,-3 0,-1 -1,-2 -2,-2 0,-1 -1,-1 -2,-1l0 0 -56 0c-5,0 -11,-2 -15,-5l0 0c-4,-3 -7,-7 -9,-12l0 0z"/>
  <path class="fil0" d="M6729 9087l17 53c2,6 7,11 14,11l56 -1c6,0 12,4 14,11 2,6 0,13 -6,16l-45 33c-5,4 -7,10 -5,17l17 53c2,6 0,12 -5,16 -6,4 -12,4 -18,0l-45 -33c-5,-3 -12,-3 -17,0l-45 33c-6,4 -12,4 -18,0 -5,-4 -7,-10 -5,-16l17 -53c2,-7 0,-13 -5,-17l-45 -33c-6,-3 -8,-10 -6,-16 2,-7 8,-11 14,-11l56 1c7,0 12,-5 14,-11l17 -53c2,-6 8,-10 15,-10 6,0 12,4 14,10z"/>
  <path class="fil0" d="M7026 9087l17 53c2,6 8,11 14,11l56 -1c6,0 12,4 14,11 2,6 0,13 -5,16l-46 33c-5,4 -7,10 -5,17l17 53c2,6 0,12 -5,16 -5,4 -12,4 -18,0l-45 -33c-5,-3 -12,-3 -17,0l-45 33c-5,4 -12,4 -18,0 -5,-4 -7,-10 -5,-16l17 -53c2,-7 0,-13 -5,-17l-45 -33c-5,-3 -8,-10 -6,-16 2,-7 8,-11 15,-11l55 1c7,0 12,-5 14,-11l18 -53c2,-6 7,-10 14,-10 6,0 12,4 14,10z"/>
  <path class="fil0" d="M7324 9087l17 53c2,6 7,11 14,11l56 -1c6,0 12,4 14,11 2,6 0,13 -6,16l-45 33c-5,4 -7,10 -5,17l17 53c2,6 0,12 -5,16 -6,4 -12,4 -18,0l-45 -33c-5,-3 -12,-3 -17,0l-45 33c-5,4 -12,4 -18,0 -5,-4 -7,-10 -5,-16l17 -53c2,-7 0,-13 -5,-17l-45 -33c-6,-3 -8,-10 -6,-16 2,-7 8,-11 15,-11l55 1c7,0 12,-5 14,-11l17 -53c2,-6 8,-10 15,-10 6,0 12,4 14,10z"/>
  <path class="fil0" d="M7622 9087l17 53c2,6 7,11 14,11l56 -1c6,0 12,4 14,11 2,6 0,13 -6,16l-45 33c-5,4 -7,10 -5,17l17 53c2,6 0,12 -5,16 -6,4 -13,4 -18,0l-45 -33c-5,-3 -12,-3 -17,0l-45 33c-6,4 -12,4 -18,0 -5,-4 -7,-10 -5,-16l17 -53c2,-7 0,-13 -5,-17l-45 -33c-6,-3 -8,-10 -6,-16 2,-7 8,-11 14,-11l56 1c7,0 12,-5 14,-11l17 -53c2,-6 8,-10 14,-10 7,0 13,4 15,10z"/>
  <path class="fil1" d="M7929 9084l17 53c0,1 1,2 2,3l0 0c1,0 2,1 3,1l55 -1 0 0c6,0 11,2 15,5 4,3 7,7 9,13l0 0c2,5 2,10 0,15l0 0c-1,5 -5,9 -9,12l-45 33 0 0c-1,1 -2,2 -2,2l0 1c0,0 0,2 0,3l18 52c1,6 1,11 0,16l0 0c-2,5 -5,9 -10,12l0 0c-4,3 -9,5 -14,5 -5,0 -10,-2 -15,-5l-45 -33c-1,0 -2,0 -3,0 -1,0 -2,0 -3,0l-44 33c-5,3 -10,5 -15,5 -5,0 -10,-2 -15,-5 -4,-3 -7,-7 -9,-12 -1,-5 -1,-10 0,-16l18 -52c0,-1 0,-3 0,-3l0 0c-1,-1 -1,-2 -2,-3l0 0 -45 -33 0 0c-5,-3 -8,-7 -9,-12 -2,-5 -2,-10 0,-15 1,-6 5,-10 9,-13 4,-3 9,-5 14,-5l0 0 56 1c1,0 2,-1 3,-1l0 0c1,-1 1,-2 2,-3l0 0 17 -53c1,-5 5,-9 9,-12 4,-3 9,-5 14,-5 6,0 11,2 15,5l0 0c4,3 7,7 9,12zm-2 59l-17 -53c0,-1 -1,-2 -2,-2l0 0c0,-1 -1,-1 -3,-1 -1,0 -2,0 -3,1 0,0 -1,1 -1,2l-17 53 0 0c-2,5 -5,10 -9,13l0 0c-5,3 -10,5 -15,4l-56 0 0 0c-1,0 -2,1 -3,1 0,1 -1,2 -1,3 -1,1 -1,2 0,3 0,1 1,2 1,2l0 0 45 33 0 0c5,3 8,8 10,12l0 0c1,5 1,11 0,16l-18 53c0,1 0,2 0,3 0,1 1,1 2,2 1,1 2,1 3,1 1,0 2,0 3,-1l45 -33c4,-3 9,-4 14,-4 5,0 11,1 15,4l45 33c1,1 2,1 3,1 1,0 2,0 3,-1l0 0c1,-1 1,-1 2,-2l0 0c0,-1 0,-2 0,-3l-18 -53c-1,-5 -1,-11 0,-16l0 0c2,-5 5,-9 9,-12l0 0 45 -33c1,0 2,-1 2,-2l0 0c0,-1 0,-2 0,-3l0 0c0,-1 -1,-2 -2,-3 0,0 -1,-1 -3,-1l0 0 -55 0c-6,1 -11,-1 -15,-4l0 0c-4,-3 -7,-8 -9,-13zm-296 -59l17 53c1,1 1,2 2,3l0 0c1,0 2,1 3,1l56 -1 0 0c5,0 10,2 14,5 4,3 8,7 9,13l0 0c2,5 2,10 0,15 -1,5 -4,9 -9,12l0 0 -45 33 0 0c-1,1 -1,2 -2,2l0 1c0,0 0,2 0,3l18 52c1,6 1,11 0,16l0 0c-2,5 -5,9 -9,12l0 0c-5,3 -10,5 -15,5 -5,0 -10,-2 -15,-5l-45 -33c0,0 -1,0 -3,0 -1,0 -2,0 -2,0l-45 33c-5,3 -10,5 -15,5 -5,0 -10,-2 -15,-5 -4,-3 -7,-7 -9,-12 -1,-5 -1,-10 0,-16l18 -52c0,-1 0,-3 0,-3l0 0c-1,-1 -1,-2 -2,-3l0 0 -45 -33 0 0c-5,-3 -8,-7 -9,-12 -2,-5 -2,-10 0,-15l0 0c1,-6 5,-10 9,-13 4,-3 9,-5 14,-5l56 1c1,0 2,-1 3,-1l0 0c1,-1 1,-2 2,-3l0 0 17 -53c1,-5 5,-9 9,-12 4,-3 9,-5 14,-5 6,0 11,2 15,5l0 0c4,3 7,7 9,12zm-2 59l-17 -53c0,-1 -1,-2 -2,-2l0 0c0,-1 -1,-1 -3,-1 -1,0 -2,0 -2,1 -1,0 -2,1 -2,2l-17 53 0 0c-2,5 -5,10 -9,13l0 0c-4,3 -10,5 -15,4l-56 0c-1,0 -2,1 -3,1 0,1 -1,2 -1,3l0 0c-1,1 -1,2 0,3 0,1 1,2 1,2l1 0 45 33 0 0c4,3 7,8 9,12l0 0c1,5 1,11 0,16l-18 53c0,1 0,2 0,3 1,1 1,1 2,2 1,1 2,1 3,1 1,0 2,0 3,-1l45 -33c4,-3 9,-4 14,-4 6,0 11,1 15,4l45 33c1,1 2,1 3,1 1,0 2,0 3,-1l0 0c1,-1 1,-1 2,-2l0 0c0,-1 0,-2 0,-3l-18 -53c-1,-5 -1,-11 0,-16l0 0c2,-5 5,-9 9,-12l0 0 45 -33 0 0c1,0 2,-1 2,-2 1,-1 1,-2 0,-3l0 0c0,-1 -1,-2 -2,-3 0,0 -1,-1 -2,-1l0 0 -56 0c-5,1 -11,-1 -15,-4l0 0c-4,-3 -7,-8 -9,-13zm-296 -59l17 53c1,1 1,2 2,3l0 0c1,0 2,1 3,1l56 -1 0 0c5,0 10,2 14,5l0 0c4,3 8,7 9,13l0 0c2,5 2,10 0,15 -1,5 -4,9 -9,12l-45 33 0 0c-1,1 -1,2 -2,2 0,1 0,3 0,4l18 52c1,6 1,11 0,16l0 0c-2,5 -5,9 -9,12l0 0c-5,3 -10,5 -15,5 -5,0 -10,-2 -15,-5l-44 -33c-1,0 -2,0 -3,0 -1,0 -2,0 -3,0l-45 33c-5,3 -10,5 -15,5 -5,0 -10,-2 -14,-5l0 0c-5,-3 -8,-7 -10,-12l0 0c-1,-5 -1,-10 0,-16l18 -52c0,-1 0,-3 0,-3l0 0c-1,-1 -1,-2 -2,-3l0 0 -45 -33 0 0c-4,-3 -8,-7 -9,-12 -2,-5 -2,-10 0,-15l0 0c2,-6 5,-10 9,-13 4,-3 9,-5 15,-5l55 1c1,0 2,-1 3,-1l0 0c1,-1 2,-2 2,-3l0 0 17 -53c2,-5 5,-9 9,-12 4,-3 9,-5 15,-5 5,0 10,2 14,5l0 0c4,3 8,7 9,12zm-2 59l-17 -53c0,-1 -1,-2 -1,-2l0 0c-1,-1 -2,-1 -3,-1 -2,0 -3,0 -3,1 -1,0 -2,1 -2,2l-17 53 0 0c-2,5 -5,10 -9,13l0 0c-4,3 -9,5 -15,4l-55 0c-2,0 -3,1 -3,1 -1,1 -2,2 -2,3l0 0c-1,1 -1,2 0,3 0,1 1,2 2,2l0 0 45 33 0 0c4,3 7,8 9,12l0 0c1,5 1,11 0,16l-18 53c0,1 0,2 0,3l0 0c1,1 1,1 2,2l0 0c1,1 2,1 3,1 1,0 2,0 3,-1l45 -33c4,-3 9,-4 15,-4 5,0 10,1 14,4l45 33c1,1 2,1 3,1 1,0 2,0 3,-1l0 0c1,-1 2,-1 2,-2l0 0c0,-1 0,-2 0,-3l-18 -53c-1,-5 -1,-11 0,-16 2,-4 5,-9 10,-12l0 0 45 -33c0,0 1,-1 1,-2 1,-1 1,-2 0,-3l0 0c0,-1 -1,-2 -1,-3l0 0c-1,0 -2,-1 -3,-1l0 0 -56 0c-5,1 -10,-1 -15,-4l0 0c-4,-3 -7,-8 -9,-13zm-296 -59l17 53c1,1 1,2 2,3l0 0c1,0 2,1 3,1l56 -1 0 0c5,0 10,2 14,5l0 0c5,3 8,7 9,13l0 0c2,5 2,10 0,15 -1,5 -4,9 -9,12l0 0 -45 33 0 0c-1,1 -1,2 -2,2l0 1c0,0 0,2 1,3l17 52c1,6 1,11 0,16l0 0c-2,5 -5,9 -9,12l0 0c-5,3 -10,5 -15,5 -5,0 -10,-2 -14,-5l-45 -33c-1,0 -2,0 -3,0 -1,0 -2,0 -3,0l-45 33c-5,3 -10,5 -15,5 -5,0 -10,-2 -14,-5 -5,-3 -8,-7 -9,-12 -2,-5 -2,-10 0,-16l17 -52c0,-1 0,-3 0,-3l0 0c0,-1 -1,-2 -2,-3l0 0 -45 -33 0 0c-4,-3 -8,-7 -9,-12 -2,-5 -2,-10 0,-15l0 0c2,-6 5,-10 9,-13 4,-3 9,-5 15,-5l55 1c1,0 2,-1 3,-1l0 0c1,-1 2,-2 2,-3l0 0 17 -53c2,-5 5,-9 9,-12 4,-3 9,-5 15,-5 5,0 10,2 14,5l0 0c5,3 8,7 9,12zm-2 59l-17 -53c0,-1 -1,-2 -1,-2l0 0c-1,-1 -2,-1 -3,-1 -1,0 -2,0 -3,1 -1,0 -2,1 -2,2l-17 53 0 0c-2,5 -5,10 -9,13l0 0c-4,3 -9,5 -15,4l-55 0c-1,0 -2,1 -3,1 -1,1 -2,2 -2,3l0 0c0,1 0,2 0,3 0,1 1,2 2,2l0 0 45 33 0 0c4,3 7,8 9,12l0 0c1,5 2,11 0,16l-17 53c-1,1 -1,2 -1,3 1,1 1,1 2,2 1,1 2,1 3,1 1,0 2,0 3,-1l45 -33c4,-3 10,-4 15,-4 5,0 10,1 14,4l45 33c1,1 2,1 3,1 1,0 2,0 3,-1l0 0c1,-1 2,-1 2,-2l0 0c0,-1 0,-2 0,-3l-17 -53c-2,-5 -2,-11 0,-16l0 0c1,-5 4,-9 9,-12l0 0 45 -33 0 0c1,0 1,-1 1,-2 1,-1 1,-2 0,-3l0 0c0,-1 -1,-2 -1,-3l0 0c-1,0 -2,-1 -3,-1l0 0 -56 0c-5,1 -10,-1 -15,-4l0 0c-4,-3 -7,-8 -9,-13zm-295 -59l17 53 0 0c1,1 1,2 2,3l0 0c1,0 2,1 3,1l56 -1 0 0c5,0 10,2 14,5 4,3 8,7 9,13 2,5 2,10 0,15 -1,5 -4,9 -9,12l0 0 -45 33 0 0c-1,1 -1,2 -2,3l0 0c0,0 0,2 0,3l18 52c1,6 1,11 0,16l0 0c-2,5 -5,9 -9,12l0 0c-5,3 -10,5 -15,5 -5,0 -10,-2 -15,-5l0 0 -45 -33c0,0 -1,0 -2,0 -2,0 -3,0 -3,0l-45 33c-5,3 -10,5 -15,5 -5,0 -10,-2 -15,-5 -4,-3 -7,-7 -9,-12 -1,-5 -1,-10 0,-16l18 -52c0,-1 0,-3 0,-3l0 -1c-1,0 -1,-1 -2,-2l0 0 -45 -33c-5,-3 -8,-7 -9,-12l0 0c-2,-5 -2,-10 0,-15 1,-6 5,-10 9,-13 4,-3 9,-5 14,-5l56 1c1,0 2,-1 3,-1l0 0c1,-1 1,-2 2,-3l17 -53c2,-5 5,-9 9,-12l0 0c4,-3 9,-5 15,-5 5,0 10,2 14,5 4,3 7,7 9,12zm-2 59l-17 -53c0,-1 -1,-2 -2,-2 0,-1 -1,-1 -2,-1 -2,0 -3,0 -3,1l0 0c-1,0 -2,1 -2,2l-17 53c-2,5 -5,10 -9,13l0 0c-4,3 -10,5 -15,4l-56 0c-1,0 -2,1 -2,1 -1,1 -2,2 -2,3 -1,1 -1,2 0,3l0 0c0,1 1,2 2,2l45 33 0 0c4,3 7,7 9,12l0 0c1,5 1,11 0,16l-18 53c0,1 0,2 0,3 1,1 1,1 2,2 1,1 2,1 3,1 1,0 2,0 3,-1l45 -33c4,-3 9,-4 15,-4 5,0 10,1 14,4l45 33 0 0c1,1 2,1 3,1 1,0 2,0 3,-1l0 0c1,-1 1,-1 2,-2l0 0c0,-1 0,-2 0,-3l-18 -53c-1,-5 -1,-11 0,-16l0 0c2,-4 5,-9 9,-12l0 0 45 -33 0 0c1,0 2,-1 2,-2 1,-1 1,-2 0,-3 0,-1 -1,-2 -2,-3 0,0 -1,-1 -2,-1l0 0 -56 0c-5,1 -11,-1 -15,-4l0 0c-4,-3 -7,-8 -9,-13l0 0z"/>
  <path class="fil0" d="M6729 9426l17 53c2,6 7,10 14,10l56 0c6,0 12,4 14,10 2,7 0,13 -6,17l-45 33c-5,4 -7,10 -5,16l17 53c2,6 0,13 -5,17 -6,4 -12,4 -18,0l-45 -33c-5,-4 -12,-4 -17,0l-45 33c-6,4 -12,4 -18,0 -5,-4 -7,-11 -5,-17l17 -53c2,-6 0,-12 -5,-16l-45 -33c-6,-4 -8,-10 -6,-17 2,-6 8,-10 14,-10l56 0c7,0 12,-4 14,-10l17 -53c2,-6 8,-10 15,-10 6,0 12,4 14,10z"/>
  <path class="fil0" d="M7026 9426l17 53c2,6 8,10 14,10l56 0c6,0 12,4 14,10 2,7 0,13 -5,17l-46 33c-5,4 -7,10 -5,16l17 53c2,6 0,13 -5,17 -5,4 -12,4 -18,0l-45 -33c-5,-4 -12,-4 -17,0l-45 33c-5,4 -12,4 -18,0 -5,-4 -7,-11 -5,-17l17 -53c2,-6 0,-12 -5,-16l-45 -33c-5,-4 -8,-10 -6,-17 2,-6 8,-10 15,-10l55 0c7,0 12,-4 14,-10l18 -53c2,-6 7,-10 14,-10 6,0 12,4 14,10z"/>
  <path class="fil0" d="M7324 9426l17 53c2,6 7,10 14,10l56 0c6,0 12,4 14,10 2,7 0,13 -6,17l-45 33c-5,4 -7,10 -5,16l17 53c2,6 0,13 -5,17 -6,4 -12,4 -18,0l-45 -33c-5,-4 -12,-4 -17,0l-45 33c-5,4 -12,4 -18,0 -5,-4 -7,-11 -5,-17l17 -53c2,-6 0,-12 -5,-16l-45 -33c-6,-4 -8,-10 -6,-17 2,-6 8,-10 15,-10l55 0c7,0 12,-4 14,-10l17 -53c2,-6 8,-10 15,-10 6,0 12,4 14,10z"/>
  <path class="fil0" d="M7622 9426l17 53c2,6 7,10 14,10l56 0c6,0 12,4 14,10 2,7 0,13 -6,17l-45 33c-5,4 -7,10 -5,16l17 53c2,6 0,13 -5,17 -6,4 -13,4 -18,0l-45 -33c-5,-4 -12,-4 -17,0l-45 33c-6,4 -12,4 -18,0 -5,-4 -7,-11 -5,-17l17 -53c2,-6 0,-12 -5,-16l-45 -33c-6,-4 -8,-10 -6,-17 2,-6 8,-10 14,-10l56 0c7,0 12,-4 14,-10l17 -53c2,-6 8,-10 14,-10 7,0 13,4 15,10z"/>
  <path class="fil0" d="M7920 9426l17 53c2,6 7,10 14,10l55 0c7,0 13,4 15,10 2,7 0,13 -6,17l-45 33c-5,4 -7,10 -5,16l17 53c2,6 0,13 -5,17 -6,4 -13,4 -18,0l-45 -33c-5,-4 -12,-4 -17,0l-45 33c-6,4 -13,4 -18,0 -5,-4 -7,-11 -5,-17l17 -53c2,-6 0,-12 -5,-16l-45 -33c-6,-4 -8,-10 -6,-17 2,-6 8,-10 14,-10l56 0c7,0 12,-4 14,-10l17 -53c2,-6 8,-10 14,-10 7,0 13,4 15,10z"/>
  <path class="fil1" d="M7929 9423l17 53c0,1 1,2 2,2l0 0c1,1 2,1 3,1l55 0 0 0c6,0 11,2 15,5 4,3 7,7 9,12l0 0c2,6 2,11 0,16l0 0c-1,5 -5,9 -9,12l-45 33 0 0c-1,0 -2,1 -2,2l0 0c0,1 0,2 0,3l18 53c1,5 1,11 0,16l0 0c-2,4 -5,9 -10,12l0 0c-4,3 -9,5 -14,5 -5,0 -10,-2 -15,-5l-45 -33c-1,0 -2,-1 -3,-1 -1,0 -2,1 -3,1l-44 33c-5,3 -10,5 -15,5 -5,0 -10,-2 -15,-5 -4,-3 -7,-8 -9,-13 -1,-4 -1,-10 0,-15l18 -53c0,-1 0,-2 0,-3l0 0c-1,-1 -1,-2 -2,-2l0 0 -45 -33 0 0c-5,-3 -8,-7 -9,-12 -2,-5 -2,-11 0,-16 1,-5 5,-9 9,-12 4,-3 9,-5 14,-5l0 0 56 0c1,0 2,0 3,-1l0 0c1,0 1,-1 2,-2l0 0 17 -53c1,-5 5,-10 9,-13 4,-3 9,-4 14,-4 6,0 11,1 15,4l0 0c4,3 7,8 9,13zm-2 59l-17 -53c0,-1 -1,-2 -2,-2l0 0c0,-1 -1,-1 -3,-1 -1,0 -2,0 -3,1 0,0 -1,1 -1,2l-17 53 0 0c-2,5 -5,9 -9,12l0 0c-5,3 -10,5 -15,5l-56 0 0 0c-1,0 -2,0 -3,1 0,1 -1,1 -1,2 -1,2 -1,3 0,4 0,0 1,1 1,2l0 0 45 33 0 0c5,3 8,7 10,12l0 0c1,5 1,10 0,15l-18 53c0,1 0,2 0,3 0,1 1,2 2,3 1,0 2,1 3,1 1,0 2,-1 3,-1l45 -33c4,-3 9,-5 14,-5 5,0 11,2 15,5l45 33c1,0 2,1 3,1 1,0 2,-1 3,-1l0 0c1,-1 1,-2 2,-3l0 0c0,-1 0,-2 0,-3l-18 -53c-1,-5 -1,-10 0,-15l0 0c2,-5 5,-9 9,-12l0 0 45 -33c1,-1 2,-2 2,-2l0 0c0,-1 0,-2 0,-4l0 0c0,-1 -1,-1 -2,-2 0,-1 -1,-1 -3,-1l0 0 -55 0c-6,0 -11,-2 -15,-5l0 0c-4,-3 -7,-7 -9,-12zm-296 -59l17 53c1,1 1,2 2,2l0 0c1,1 2,1 3,1l56 0 0 0c5,0 10,2 14,5 4,3 8,7 9,12l0 0c2,6 2,11 0,16 -1,5 -4,9 -9,12l0 0 -45 33 0 0c-1,0 -1,1 -2,2l0 0c0,1 0,2 0,3l18 53c1,5 1,11 0,16l0 0c-2,4 -5,9 -9,12l0 0c-5,3 -10,5 -15,5 -5,0 -10,-2 -15,-5l-45 -33c0,0 -1,-1 -3,-1 -1,0 -2,1 -2,1l-45 33c-5,3 -10,5 -15,5 -5,0 -10,-2 -15,-5 -4,-3 -7,-8 -9,-13 -1,-4 -1,-10 0,-15l18 -53c0,-1 0,-2 0,-3l0 0c-1,-1 -1,-2 -2,-2l0 0 -45 -33 0 0c-5,-3 -8,-7 -9,-12 -2,-5 -2,-11 0,-16l0 0c1,-5 5,-9 9,-12 4,-3 9,-5 14,-5l56 0c1,0 2,0 3,-1l0 0c1,0 1,-1 2,-2l0 0 17 -53c1,-5 5,-10 9,-13 4,-3 9,-4 14,-4 6,0 11,1 15,4l0 0c4,3 7,8 9,13zm-2 59l-17 -53c0,-1 -1,-2 -2,-2l0 0c0,-1 -1,-1 -3,-1 -1,0 -2,0 -2,1 -1,0 -2,1 -2,2l-17 53 0 0c-2,5 -5,9 -9,12l0 0c-4,3 -10,5 -15,5l-56 0c-1,0 -2,0 -3,1 0,1 -1,1 -1,2l0 0c-1,2 -1,3 0,4 0,0 1,1 1,2l1 0 45 33 0 0c4,3 7,7 9,12l0 0c1,5 1,10 0,15l-18 53c0,1 0,2 0,3 1,1 1,2 2,3 1,0 2,1 3,1 1,0 2,-1 3,-1l45 -33c4,-3 9,-5 14,-5 6,0 11,2 15,5l45 33c1,0 2,1 3,1 1,0 2,-1 3,-1l0 0c1,-1 1,-2 2,-3l0 0c0,-1 0,-2 0,-3l-18 -53c-1,-5 -1,-10 0,-15l0 0c2,-5 5,-9 9,-12l0 0 45 -33 0 0c1,-1 2,-2 2,-2 1,-1 1,-2 0,-4l0 0c0,-1 -1,-1 -2,-2 0,-1 -1,-1 -2,-1l0 0 -56 0c-5,0 -11,-2 -15,-5l0 0c-4,-3 -7,-7 -9,-12zm-296 -59l17 53c1,1 1,2 2,2l0 0c1,1 2,1 3,1l56 0 0 0c5,0 10,2 14,5l0 0c4,3 8,7 9,12l0 0c2,6 2,11 0,16 -1,5 -4,9 -9,12l-45 33 0 0c-1,0 -1,1 -2,2 0,1 0,2 0,3l18 53c1,5 1,11 0,16l0 0c-2,4 -5,9 -9,12l0 0c-5,3 -10,5 -15,5 -5,0 -10,-2 -15,-5l-44 -33c-1,0 -2,-1 -3,-1 -1,0 -2,1 -3,1l-45 33c-5,3 -10,5 -15,5 -5,0 -10,-2 -14,-5l0 0c-5,-3 -8,-8 -10,-12l0 0c-1,-5 -1,-11 0,-16l18 -53c0,-1 0,-2 0,-3l0 0c-1,-1 -1,-2 -2,-2l0 0 -45 -33 0 0c-4,-3 -8,-7 -9,-12 -2,-5 -2,-11 0,-16l0 0c2,-5 5,-9 9,-12 4,-3 9,-5 15,-5l55 0c1,0 2,0 3,-1l0 0c1,0 2,-1 2,-2l0 0 17 -53c2,-5 5,-10 9,-13 4,-3 9,-4 15,-4 5,0 10,1 14,4l0 0c4,3 8,8 9,13zm-2 59l-17 -53c0,-1 -1,-2 -1,-2l0 0c-1,-1 -2,-1 -3,-1 -2,0 -3,0 -3,1 -1,0 -2,1 -2,2l-17 53 0 0c-2,5 -5,9 -9,12l0 0c-4,3 -9,5 -15,5l-55 0c-2,0 -3,0 -3,1 -1,1 -2,1 -2,2l0 0c-1,2 -1,3 0,4 0,0 1,1 2,2l0 0 45 33 0 0c4,3 7,7 9,12l0 0c1,5 1,10 0,15l-18 53c0,1 0,2 0,3l0 0c1,1 1,2 2,3l0 0c1,0 2,1 3,1 1,0 2,-1 3,-1l45 -33c4,-3 9,-5 15,-5 5,0 10,2 14,5l45 33c1,0 2,1 3,1 1,0 2,-1 3,-1l0 0c1,-1 2,-2 2,-3l0 0c0,-1 0,-2 0,-3l-18 -53c-1,-5 -1,-10 0,-15 2,-5 5,-9 10,-12l0 0 45 -33c0,-1 1,-2 1,-2 1,-1 1,-2 0,-4l0 0c0,-1 -1,-1 -1,-2l0 0c-1,-1 -2,-1 -3,-1l0 0 -56 0c-5,0 -10,-2 -15,-5l0 0c-4,-3 -7,-7 -9,-12zm-296 -59l17 53c1,1 1,2 2,2l0 0c1,1 2,1 3,1l56 0 0 0c5,0 10,2 14,5l0 0c5,3 8,7 9,12l0 0c2,6 2,11 0,16 -1,5 -4,9 -9,12l0 0 -45 33 0 0c-1,0 -1,1 -2,2l0 0c0,1 0,2 1,3l17 53c1,5 1,11 0,16l0 0c-2,4 -5,9 -9,12l0 0c-5,3 -10,5 -15,5 -5,0 -10,-2 -14,-5l-45 -33c-1,0 -2,-1 -3,-1 -1,0 -2,1 -3,1l-45 33c-5,3 -10,5 -15,5 -5,0 -10,-2 -14,-5 -5,-3 -8,-8 -9,-13 -2,-4 -2,-10 0,-15l17 -53c0,-1 0,-2 0,-3l0 0c0,-1 -1,-2 -2,-2l0 0 -45 -33 0 0c-4,-3 -8,-7 -9,-12 -2,-5 -2,-11 0,-16l0 0c2,-5 5,-9 9,-12 4,-3 9,-5 15,-5l55 0c1,0 2,0 3,-1l0 0c1,0 2,-1 2,-2l0 0 17 -53c2,-5 5,-10 9,-13 4,-3 9,-4 15,-4 5,0 10,1 14,4l0 0c5,3 8,8 9,13zm-2 59l-17 -53c0,-1 -1,-2 -1,-2l0 0c-1,-1 -2,-1 -3,-1 -1,0 -2,0 -3,1 -1,0 -2,1 -2,2l-17 53 0 0c-2,5 -5,9 -9,12l0 0c-4,3 -9,5 -15,5l-55 0c-1,0 -2,0 -3,1 -1,1 -2,1 -2,2l0 0c0,2 0,3 0,4 0,0 1,1 2,2l0 0 45 33 0 0c4,3 7,7 9,12l0 0c1,5 2,10 0,15l-17 53c-1,1 -1,2 -1,3 1,1 1,2 2,3 1,0 2,1 3,1 1,0 2,-1 3,-1l45 -33c4,-3 10,-5 15,-5 5,0 10,2 14,5l45 33c1,0 2,1 3,1 1,0 2,-1 3,-1l0 0c1,-1 2,-2 2,-3l0 0c0,-1 0,-2 0,-3l-17 -53c-2,-5 -2,-10 0,-15l0 0c1,-5 4,-9 9,-12l0 0 45 -33 0 0c1,-1 1,-2 1,-2 1,-1 1,-2 0,-4l0 0c0,-1 -1,-1 -1,-2l0 0c-1,-1 -2,-1 -3,-1l0 0 -56 0c-5,0 -10,-2 -15,-5l0 0c-4,-3 -7,-7 -9,-12zm-295 -59l17 53 0 0c1,1 1,2 2,2l0 0c1,1 2,1 3,1l56 0 0 0c5,0 10,2 14,5 4,3 8,7 9,12 2,5 2,11 0,16 -1,5 -4,9 -9,12l0 0 -45 33 0 0c-1,0 -1,1 -2,2l0 0c0,1 0,2 0,3l18 53c1,5 1,11 0,16l0 0c-2,4 -5,9 -9,12l0 0c-5,3 -10,5 -15,5 -5,0 -10,-2 -15,-5l0 0 -45 -33c0,0 -1,-1 -2,-1 -2,0 -3,1 -3,1l-45 33c-5,3 -10,5 -15,5 -5,0 -10,-2 -15,-5 -4,-3 -7,-8 -9,-13 -1,-4 -1,-10 0,-15l18 -53c0,-1 0,-2 0,-3l0 0c-1,-1 -1,-2 -2,-2l0 0 -45 -33c-5,-3 -8,-7 -9,-12l0 0c-2,-5 -2,-10 0,-16 1,-5 5,-9 9,-12 4,-3 9,-5 14,-5l56 0c1,0 2,0 3,-1l0 0c1,0 1,-1 2,-2l17 -53c2,-5 5,-10 9,-13l0 0c4,-3 9,-4 15,-4 5,0 10,1 14,4 4,3 7,8 9,13zm-2 59l-17 -53c0,-1 -1,-2 -2,-2 0,-1 -1,-1 -2,-1 -2,0 -3,0 -3,1l0 0c-1,0 -2,1 -2,2l-17 53c-2,5 -5,9 -9,12l0 0c-4,3 -10,5 -15,5l-56 0c-1,0 -2,0 -2,1 -1,1 -2,1 -2,2 -1,2 -1,3 0,4l0 0c0,0 1,1 2,2l45 33 0 0c4,3 7,7 9,12l0 0c1,5 1,10 0,15l-18 53c0,1 0,2 0,3 1,1 1,2 2,3 1,0 2,1 3,1 1,0 2,-1 3,-1l45 -33c4,-3 9,-5 15,-5 5,0 10,2 14,5l45 33 0 0c1,0 2,1 3,1 1,0 2,-1 3,-1l0 0c1,-1 1,-2 2,-3l0 0c0,-1 0,-2 0,-3l-18 -53c-1,-5 -1,-10 0,-15l0 0c2,-5 5,-9 9,-12l0 0 45 -33 0 0c1,-1 2,-2 2,-2 1,-1 1,-2 0,-4 0,-1 -1,-1 -2,-2 0,-1 -1,-1 -2,-1l0 0 -56 0c-5,0 -11,-2 -15,-5l0 0c-4,-3 -7,-7 -9,-12l0 0z"/>
  <path class="fil1" d="M9791 9423l17 53c0,1 1,2 2,2l0 0c1,1 2,1 3,1l55 0 0 0c6,0 11,2 15,5 4,3 7,7 9,12l0 0c2,6 2,11 0,16l0 0c-2,5 -5,9 -9,12l-45 33 0 0c-1,0 -2,1 -2,2l0 0c0,1 0,2 0,3l17 53c2,5 2,11 1,16l-1 0c-1,4 -4,9 -9,12l0 0c-4,3 -9,5 -14,5 -5,0 -10,-2 -15,-5l-45 -33c-1,0 -2,-1 -3,-1 -1,0 -2,1 -3,1l-45 33c-4,3 -9,5 -14,5 -5,0 -10,-2 -15,-5 -4,-3 -7,-8 -9,-13 -1,-4 -1,-10 0,-15l17 -53c1,-1 1,-2 1,-3l0 0c-1,-1 -1,-2 -2,-2l0 0 -45 -33 0 0c-5,-3 -8,-7 -9,-12 -2,-5 -2,-11 0,-16 1,-5 4,-9 9,-12 4,-3 9,-5 14,-5l0 0 56 0c1,0 2,0 3,-1l0 0c1,0 1,-1 2,-2l0 0 17 -53c1,-5 5,-10 9,-13 4,-3 9,-4 14,-4 6,0 11,1 15,4l0 0c4,3 7,8 9,13zm-2 59l-17 -53c0,-1 -1,-2 -2,-2l0 0c-1,-1 -2,-1 -3,-1 -1,0 -2,0 -3,1 0,0 -1,1 -1,2l-17 53 0 0c-2,5 -5,9 -9,12l0 0c-5,3 -10,5 -15,5l-56 0 0 0c-1,0 -2,0 -3,1 0,1 -1,1 -1,2 -1,2 -1,3 0,4 0,0 0,1 1,2l0 0 45 33 0 0c5,3 8,7 10,12l0 0c1,5 1,10 -1,15l-17 53c0,1 0,2 0,3 0,1 1,2 2,3 1,0 2,1 3,1 1,0 2,-1 3,-1l45 -33c4,-3 9,-5 14,-5 5,0 11,2 15,5l45 33c1,0 2,1 3,1 1,0 2,-1 3,-1l0 0c1,-1 1,-2 2,-3l0 0c0,-1 0,-2 -1,-3l-17 -53c-1,-5 -1,-10 0,-15l0 0c2,-5 5,-9 9,-12l0 0 45 -33c1,-1 2,-2 2,-2l0 0c0,-1 0,-2 0,-4l0 0c0,-1 -1,-1 -2,-2 0,-1 -1,-1 -3,-1l0 0 -55 0c-6,0 -11,-2 -15,-5l0 0c-4,-3 -7,-7 -9,-12zm-296 -59l17 53c1,1 1,2 2,2l0 0c1,1 2,1 3,1l55 0 0 0c6,0 11,2 15,5 4,3 7,7 9,12l0 0c2,6 2,11 0,16 -1,5 -4,9 -9,12l0 0 -45 33 0 0c-1,0 -1,1 -2,2l0 0c0,1 0,2 0,3l18 53c1,5 1,11 0,16l0 0c-2,4 -5,9 -9,12l-1 0c-4,3 -9,5 -14,5 -5,0 -10,-2 -15,-5l-45 -33c-1,0 -2,-1 -3,-1 -1,0 -2,1 -2,1l-45 33c-5,3 -10,5 -15,5 -5,0 -10,-2 -15,-5 -4,-3 -7,-8 -9,-13 -1,-4 -1,-10 0,-15l18 -53c0,-1 0,-2 0,-3l0 0c-1,-1 -1,-2 -2,-2l0 0 -45 -33 0 0c-5,-3 -8,-7 -9,-12 -2,-5 -2,-11 0,-16l0 0c1,-5 5,-9 9,-12 4,-3 9,-5 14,-5l56 0c1,0 2,0 3,-1l0 0c1,0 1,-1 2,-2l0 0 17 -53c1,-5 5,-10 9,-13 4,-3 9,-4 14,-4 6,0 11,1 15,4l0 0c4,3 7,8 9,13zm-2 59l-17 -53c0,-1 -1,-2 -2,-2l0 0c0,-1 -1,-1 -3,-1 -1,0 -2,0 -3,1 0,0 -1,1 -1,2l-17 53 0 0c-2,5 -5,9 -9,12l0 0c-5,3 -10,5 -15,5l-56 0c-1,0 -2,0 -3,1 0,1 -1,1 -1,2l0 0c-1,2 -1,3 0,4 0,0 1,1 1,2l0 0 46 33 0 0c4,3 7,7 9,12l0 0c1,5 1,10 0,15l-18 53c0,1 0,2 0,3 1,1 1,2 2,3 1,0 2,1 3,1 1,0 2,-1 3,-1l45 -33c4,-3 9,-5 14,-5 6,0 11,2 15,5l45 33c1,0 2,1 3,1 1,0 2,-1 3,-1l0 0c1,-1 1,-2 2,-3l0 0c0,-1 0,-2 0,-3l-18 -53c-1,-5 -1,-10 0,-15l0 0c2,-5 5,-9 9,-12l0 0 45 -33 0 0c1,-1 2,-2 2,-2 1,-1 1,-2 0,-4l0 0c0,-1 -1,-1 -2,-2 0,-1 -1,-1 -3,-1l0 0 -55 0c-6,0 -11,-2 -15,-5l0 0c-4,-3 -7,-7 -9,-12zm-296 -59l17 53c1,1 1,2 2,2l0 0c1,1 2,1 3,1l56 0 0 0c5,0 10,2 14,5l0 0c4,3 8,7 9,12l0 0c2,6 2,11 0,16 -1,5 -4,9 -9,12l-45 33 0 0c-1,0 -1,1 -2,2 0,1 0,2 0,3l18 53c1,5 1,11 0,16l0 0c-2,4 -5,9 -9,12l0 0c-5,3 -10,5 -15,5 -5,0 -10,-2 -15,-5l-45 -33c0,0 -1,-1 -2,-1 -1,0 -3,1 -3,1l-45 33c-5,3 -10,5 -15,5 -5,0 -10,-2 -15,-5l0 0c-4,-3 -7,-8 -9,-12l0 0c-1,-5 -1,-11 0,-16l18 -53c0,-1 0,-2 0,-3l0 0c-1,-1 -1,-2 -2,-2l0 0 -45 -33 0 0c-5,-3 -8,-7 -9,-12 -2,-5 -2,-11 0,-16l0 0c1,-5 5,-9 9,-12 4,-3 9,-5 14,-5l56 0c1,0 2,0 3,-1l0 0c1,0 1,-1 2,-2l0 0 17 -53c2,-5 5,-10 9,-13 4,-3 9,-4 15,-4 5,0 10,1 14,4l0 0c4,3 8,8 9,13zm-2 59l-17 -53c0,-1 -1,-2 -2,-2l0 0c0,-1 -1,-1 -2,-1 -2,0 -3,0 -3,1 -1,0 -2,1 -2,2l-17 53 0 0c-2,5 -5,9 -9,12l0 0c-4,3 -10,5 -15,5l-56 0c-1,0 -2,0 -2,1 -1,1 -2,1 -2,2l0 0c-1,2 -1,3 0,4 0,0 1,1 2,2l0 0 45 33 0 0c4,3 7,7 9,12l0 0c1,5 1,10 0,15l-18 53c0,1 0,2 0,3l0 0c1,1 1,2 2,3l0 0c1,0 2,1 3,1 1,0 2,-1 3,-1l45 -33c4,-3 9,-5 15,-5 5,0 10,2 14,5l45 33c1,0 2,1 3,1 1,0 2,-1 3,-1l0 0c1,-1 1,-2 2,-3l0 0c0,-1 0,-2 0,-3l-18 -53c-1,-5 -1,-10 0,-15 2,-5 5,-9 9,-12l0 0 45 -33c1,-1 2,-2 2,-2 1,-1 1,-2 0,-4l0 0c0,-1 -1,-1 -1,-2l0 0c-1,-1 -2,-1 -3,-1l0 0 -56 0c-5,0 -11,-2 -15,-5l0 0c-4,-3 -7,-7 -9,-12zm-296 -59l17 53c1,1 1,2 2,2l0 0c1,1 2,1 3,1l56 0 0 0c5,0 10,2 14,5l0 0c4,3 8,7 9,12l0 0c2,6 2,11 0,16 -1,5 -4,9 -9,12l0 0 -45 33 0 0c-1,0 -1,1 -2,2l0 0c0,1 0,2 0,3l18 53c1,5 1,11 0,16l0 0c-2,4 -5,9 -9,12l0 0c-5,3 -10,5 -15,5 -5,0 -10,-2 -15,-5l-44 -33c-1,0 -2,-1 -3,-1 -1,0 -2,1 -3,1l-45 33c-5,3 -10,5 -15,5 -5,0 -10,-2 -14,-5 -5,-3 -8,-8 -10,-13 -1,-4 -1,-10 1,-15l17 -53c0,-1 0,-2 0,-3l0 0c0,-1 -1,-2 -2,-2l0 0 -45 -33 0 0c-4,-3 -8,-7 -9,-12 -2,-5 -2,-11 0,-16l0 0c2,-5 5,-9 9,-12 4,-3 9,-5 15,-5l55 0c1,0 2,0 3,-1l0 0c1,0 2,-1 2,-2l0 0 17 -53c2,-5 5,-10 9,-13 4,-3 9,-4 15,-4 5,0 10,1 14,4l0 0c4,3 8,8 9,13zm-2 59l-17 -53c0,-1 -1,-2 -1,-2l0 0c-1,-1 -2,-1 -3,-1 -2,0 -3,0 -3,1 -1,0 -2,1 -2,2l-17 53 0 0c-2,5 -5,9 -9,12l0 0c-4,3 -9,5 -15,5l-55 0c-1,0 -3,0 -3,1 -1,1 -2,1 -2,2l0 0c0,2 0,3 0,4 0,0 1,1 2,2l0 0 45 33 0 0c4,3 7,7 9,12l0 0c1,5 1,10 0,15l-18 53c0,1 0,2 0,3 1,1 1,2 2,3 1,0 2,1 3,1 1,0 2,-1 3,-1l45 -33c4,-3 10,-5 15,-5 5,0 10,2 14,5l45 33c1,0 2,1 3,1 1,0 2,-1 3,-1l0 0c1,-1 2,-2 2,-3l0 0c0,-1 0,-2 0,-3l-18 -53c-1,-5 -1,-10 0,-15l0 0c2,-5 5,-9 10,-12l0 0 45 -33 0 0c1,-1 1,-2 1,-2 1,-1 1,-2 0,-4l0 0c0,-1 -1,-1 -1,-2l0 0c-1,-1 -2,-1 -3,-1l0 0 -56 0c-5,0 -10,-2 -15,-5l0 0c-4,-3 -7,-7 -9,-12zm-295 -59l17 53 0 0c1,1 1,2 2,2l0 0c1,1 2,1 3,1l55 0 0 0c6,0 11,2 15,5 4,3 7,7 9,12 2,5 2,11 0,16 -1,5 -4,9 -9,12l0 0 -45 33 0 0c-1,0 -1,1 -2,2l0 0c0,1 0,2 0,3l18 53c1,5 1,11 0,16l0 0c-2,4 -5,9 -9,12l0 0c-5,3 -10,5 -15,5 -5,0 -10,-2 -15,-5l0 0 -45 -33c-1,0 -2,-1 -3,-1 -1,0 -2,1 -2,1l-45 33c-5,3 -10,5 -15,5 -5,0 -10,-2 -15,-5 -4,-3 -7,-8 -9,-13 -1,-4 -1,-10 0,-15l18 -53c0,-1 0,-2 0,-3l0 0c-1,-1 -1,-2 -2,-2l0 0 -45 -33c-5,-3 -8,-7 -9,-12l0 0c-2,-5 -2,-10 0,-16 1,-5 5,-9 9,-12 4,-3 9,-5 14,-5l56 0c1,0 2,0 3,-1l0 0c1,0 1,-1 2,-2l17 -53c1,-5 5,-10 9,-13l0 0c4,-3 9,-4 14,-4 6,0 11,1 15,4 4,3 7,8 9,13zm-2 59l-17 -53c0,-1 -1,-2 -2,-2 0,-1 -1,-1 -3,-1 -1,0 -2,0 -2,1l-1 0c0,0 -1,1 -1,2l-17 53c-2,5 -5,9 -9,12l0 0c-4,3 -10,5 -15,5l-56 0c-1,0 -2,0 -3,1 0,1 -1,1 -1,2 -1,2 -1,3 0,4l0 0c0,0 1,1 1,2l46 33 0 0c4,3 7,7 9,12l0 0c1,5 1,10 0,15l-18 53c0,1 0,2 0,3 1,1 1,2 2,3 1,0 2,1 3,1 1,0 2,-1 3,-1l45 -33c4,-3 9,-5 14,-5 6,0 11,2 15,5l45 33 0 0c1,0 2,1 3,1 1,0 2,-1 3,-1l0 0c1,-1 1,-2 2,-3l0 0c0,-1 0,-2 0,-3l-18 -53c-1,-5 -1,-10 0,-15l0 0c2,-5 5,-9 9,-12l0 0 45 -33 0 0c1,-1 2,-2 2,-2 1,-1 1,-2 0,-4 0,-1 -1,-1 -2,-2 0,-1 -1,-1 -3,-1l0 0 -55 0c-6,0 -11,-2 -15,-5l0 0c-4,-3 -7,-7 -9,-12l0 0z"/>
  <path class="fil0" d="M8591 9088l17 53c2,6 7,10 14,10l55 0c7,0 13,4 15,11 2,6 0,12 -6,16l-45 33c-5,4 -7,10 -5,17l17 52c2,7 0,13 -5,17 -6,4 -13,4 -18,0l-45 -33c-5,-4 -12,-4 -17,0l-45 33c-6,4 -12,4 -18,0 -5,-4 -7,-10 -5,-17l17 -52c2,-7 0,-13 -5,-17l-45 -33c-6,-4 -8,-10 -6,-16 2,-7 8,-11 14,-11l56 0c7,0 12,-4 14,-10l17 -53c2,-6 8,-10 14,-10 7,0 13,4 15,10z"/>
  <path class="fil0" d="M8888 9088l17 53c2,6 8,10 14,10l56 0c6,0 12,4 14,11 2,6 0,12 -6,16l-45 33c-5,4 -7,10 -5,17l17 52c2,7 0,13 -5,17 -5,4 -12,4 -18,0l-45 -33c-5,-4 -12,-4 -17,0l-45 33c-5,4 -12,4 -18,0 -5,-4 -7,-10 -5,-17l17 -52c2,-7 0,-13 -5,-17l-45 -33c-6,-4 -8,-10 -6,-16 2,-7 8,-11 15,-11l55 0c7,0 12,-4 14,-10l17 -53c2,-6 8,-10 15,-10 6,0 12,4 14,10z"/>
  <path class="fil0" d="M9186 9088l17 53c2,6 7,10 14,10l56 0c6,0 12,4 14,11 2,6 0,12 -6,16l-45 33c-5,4 -7,10 -5,17l17 52c2,7 0,13 -5,17 -6,4 -12,4 -18,0l-45 -33c-5,-4 -12,-4 -17,0l-45 33c-5,4 -12,4 -18,0 -5,-4 -7,-10 -5,-17l17 -52c2,-7 0,-13 -5,-17l-45 -33c-6,-4 -8,-10 -6,-16 2,-7 8,-11 14,-11l56 0c7,0 12,-4 14,-10l17 -53c2,-6 8,-10 15,-10 6,0 12,4 14,10z"/>
  <path class="fil0" d="M9484 9088l17 53c2,6 7,10 14,10l55 0c7,0 13,4 15,11 2,6 0,12 -6,16l-45 33c-5,4 -7,10 -5,17l17 52c2,7 0,13 -5,17 -6,4 -13,4 -18,0l-45 -33c-5,-4 -12,-4 -17,0l-45 33c-6,4 -12,4 -18,0 -5,-4 -7,-10 -5,-17l17 -52c2,-7 0,-13 -5,-17l-45 -33c-6,-4 -8,-10 -6,-16 2,-7 8,-11 14,-11l56 0c7,0 12,-4 14,-10l17 -53c2,-6 8,-10 14,-10 7,0 13,4 15,10z"/>
  <path class="fil0" d="M9767 9261c-3,0 -6,1 -8,3l-45 33c-6,4 -13,4 -18,0 -5,-4 -7,-10 -5,-17l17 -52c2,-7 0,-13 -5,-17l-45 -33c-6,-4 -8,-10 -6,-16 2,-7 8,-11 14,-11l56 0c6,0 12,-4 14,-10l17 -53c2,-6 8,-10 14,-10l0 183z"/>
  <path class="fil1" d="M9791 9085l17 53c0,1 1,2 2,2l0 0c1,1 2,1 3,1l55 0 0 0c6,0 11,2 15,5 4,3 7,7 9,12l0 0c2,6 2,11 0,16l0 0c-2,5 -5,9 -9,12l-45 33 0 0c-1,1 -2,1 -2,2l0 0c0,1 0,2 0,3l17 53c2,5 2,11 1,16l-1 0c-1,5 -4,9 -9,12l0 0c-4,3 -9,5 -14,5 -5,0 -10,-2 -15,-5l-45 -33c-1,0 -2,-1 -3,-1 -1,0 -2,1 -3,1l-45 33c-4,3 -9,5 -14,5 -5,0 -10,-2 -15,-5 -4,-3 -7,-7 -9,-12 -1,-5 -1,-11 0,-16l17 -53c1,-1 1,-2 1,-3l0 0c-1,-1 -1,-1 -2,-2l0 0 -45 -33 0 0c-5,-3 -8,-7 -9,-12 -2,-5 -2,-10 0,-16 1,-5 4,-9 9,-12 4,-3 9,-5 14,-5l0 0 56 0c1,0 2,0 3,-1l0 0c1,0 1,-1 2,-2l0 0 17 -53c1,-5 5,-9 9,-12 4,-3 9,-5 14,-5 6,0 11,2 15,5l0 0c4,3 7,7 9,12zm-2 59l-17 -53c0,-1 -1,-2 -2,-2l0 0c-1,-1 -2,-1 -3,-1 -1,0 -2,0 -3,1 0,0 -1,1 -1,2l-17 53 0 0c-2,5 -5,10 -9,13l0 0c-5,3 -10,4 -15,4l-56 0 0 0c-1,0 -2,1 -3,1 0,1 -1,2 -1,3 -1,1 -1,2 0,3 0,1 0,1 1,2l0 0 45 33 0 0c5,3 8,7 10,12l0 0c1,5 1,10 -1,16l-17 52c0,2 0,3 0,4 0,0 1,1 2,2 1,1 2,1 3,1 1,0 2,0 3,-1l45 -33c4,-3 9,-5 14,-5 5,0 11,2 15,5l45 33c1,1 2,1 3,1 1,0 2,0 3,-1l0 0c1,-1 1,-2 2,-2l0 -1c0,0 0,-2 -1,-3l-17 -52c-1,-6 -1,-11 0,-16l0 0c2,-5 5,-9 9,-12l0 0 45 -33c1,-1 2,-1 2,-2l0 0c0,-1 0,-2 0,-3l0 0c0,-1 -1,-2 -2,-3 0,0 -1,-1 -3,-1l0 0 -55 0c-6,0 -11,-1 -15,-4l0 0c-4,-3 -7,-8 -9,-13zm-296 -59l17 53c1,1 1,2 2,2l0 0c1,1 2,1 3,1l55 0 0 0c6,0 11,2 15,5 4,3 7,7 9,12l0 0c2,6 2,11 0,16 -1,5 -4,9 -9,12l0 0 -45 33 0 0c-1,1 -1,1 -2,2l0 0c0,1 0,2 0,3l18 53c1,5 1,11 0,16l0 0c-2,5 -5,9 -9,12l-1 0c-4,3 -9,5 -14,5 -5,0 -10,-2 -15,-5l-45 -33c-1,0 -2,-1 -3,-1 -1,0 -2,1 -2,1l-45 33c-5,3 -10,5 -15,5 -5,0 -10,-2 -15,-5 -4,-3 -7,-7 -9,-12 -1,-5 -1,-11 0,-16l18 -53c0,-1 0,-2 0,-3l0 0c-1,-1 -1,-1 -2,-2l0 0 -45 -33 0 0c-5,-3 -8,-7 -9,-12 -2,-5 -2,-10 0,-16l0 0c1,-5 5,-9 9,-12 4,-3 9,-5 14,-5l56 0c1,0 2,0 3,-1l0 0c1,0 1,-1 2,-2l0 0 17 -53c1,-5 5,-9 9,-12 4,-3 9,-5 14,-5 6,0 11,2 15,5l0 0c4,3 7,7 9,12zm-2 59l-17 -53c0,-1 -1,-2 -2,-2l0 0c0,-1 -1,-1 -3,-1 -1,0 -2,0 -3,1 0,0 -1,1 -1,2l-17 53 0 0c-2,5 -5,10 -9,13l0 0c-5,3 -10,4 -15,4l-56 0c-1,0 -2,1 -3,1 0,1 -1,2 -1,3l0 0c-1,1 -1,2 0,3 0,1 1,1 1,2l0 0 46 33 0 0c4,3 7,7 9,12l0 0c1,5 1,10 0,16l-18 52c0,2 0,3 0,4 1,0 1,1 2,2 1,1 2,1 3,1 1,0 2,0 3,-1l45 -33c4,-3 9,-5 14,-5 6,0 11,2 15,5l45 33c1,1 2,1 3,1 1,0 2,0 3,-1l0 0c1,-1 1,-2 2,-2l0 -1c0,0 0,-2 0,-3l-18 -52c-1,-6 -1,-11 0,-16l0 0c2,-5 5,-9 9,-12l0 0 45 -33 0 0c1,-1 2,-1 2,-2 1,-1 1,-2 0,-3l0 0c0,-1 -1,-2 -2,-3 0,0 -1,-1 -3,-1l0 0 -55 0c-6,0 -11,-1 -15,-4l0 0c-4,-3 -7,-8 -9,-13zm-296 -59l17 53c1,1 1,2 2,2l0 0c1,1 2,1 3,1l56 0 0 0c5,0 10,2 14,5l0 0c4,3 8,7 9,12l0 0c2,6 2,11 0,16 -1,5 -4,9 -9,12l-45 33 0 0c-1,1 -1,1 -2,2 0,1 0,2 0,3l18 53c1,5 1,11 0,16l0 0c-2,5 -5,9 -9,12l0 0c-5,3 -10,5 -15,5 -5,0 -10,-2 -15,-5l-45 -33c0,0 -1,-1 -2,-1 -1,0 -3,1 -3,1l-45 33c-5,3 -10,5 -15,5 -5,0 -10,-2 -15,-5l0 0c-4,-3 -7,-7 -9,-12l0 0c-1,-5 -1,-11 0,-16l18 -53c0,-1 0,-2 0,-3l0 0c-1,-1 -1,-1 -2,-2l0 0 -45 -33 0 0c-5,-3 -8,-7 -9,-12 -2,-5 -2,-10 0,-16l0 0c1,-5 5,-9 9,-12 4,-3 9,-5 14,-5l56 0c1,0 2,0 3,-1l0 0c1,0 1,-1 2,-2l0 0 17 -53c2,-5 5,-9 9,-12 4,-3 9,-5 15,-5 5,0 10,2 14,5l0 0c4,3 8,7 9,12zm-2 59l-17 -53c0,-1 -1,-2 -2,-2l0 0c0,-1 -1,-1 -2,-1 -2,0 -3,0 -3,1 -1,0 -2,1 -2,2l-17 53 0 0c-2,5 -5,10 -9,13l0 0c-4,3 -10,4 -15,4l-56 0c-1,0 -2,1 -2,1 -1,1 -2,2 -2,3l0 0c-1,1 -1,2 0,3 0,1 1,1 2,2l0 0 45 33 0 0c4,3 7,7 9,12l0 0c1,5 1,10 0,16l-18 52c0,1 0,3 0,3l0 1c1,0 1,1 2,2l0 0c1,1 2,1 3,1 1,0 2,0 3,-1l45 -33c4,-3 9,-5 15,-5 5,0 10,2 14,5l45 33c1,1 2,1 3,1 1,0 2,0 3,-1l0 0c1,-1 1,-2 2,-2l0 -1c0,0 0,-2 0,-3l-18 -52c-1,-6 -1,-11 0,-16 2,-5 5,-9 9,-12l0 0 45 -33c1,-1 2,-1 2,-2 1,-1 1,-2 0,-3l0 0c0,-1 -1,-2 -1,-3l0 0c-1,0 -2,-1 -3,-1l0 0 -56 0c-5,0 -11,-1 -15,-4l0 0c-4,-3 -7,-8 -9,-13zm-296 -59l17 53c1,1 1,2 2,2l0 0c1,1 2,1 3,1l56 0 0 0c5,0 10,2 14,5l0 0c4,3 8,7 9,12l0 0c2,6 2,11 0,16 -1,5 -4,9 -9,12l0 0 -45 33 0 0c-1,1 -1,1 -2,2l0 0c0,1 0,2 0,3l18 53c1,5 1,11 0,16l0 0c-2,5 -5,9 -9,12l0 0c-5,3 -10,5 -15,5 -5,0 -10,-2 -15,-5l-44 -33c-1,0 -2,-1 -3,-1 -1,0 -2,1 -3,1l-45 33c-5,3 -10,5 -15,5 -5,0 -10,-2 -14,-5 -5,-3 -8,-7 -10,-12 -1,-5 -1,-11 1,-16l17 -53c0,-1 0,-2 0,-3l0 0c0,-1 -1,-1 -2,-2l0 0 -45 -33 0 0c-4,-3 -8,-7 -9,-12 -2,-5 -2,-10 0,-16l0 0c2,-5 5,-9 9,-12 4,-3 9,-5 15,-5l55 0c1,0 2,0 3,-1l0 0c1,0 2,-1 2,-2l0 0 17 -53c2,-5 5,-9 9,-12 4,-3 9,-5 15,-5 5,0 10,2 14,5l0 0c4,3 8,7 9,12zm-2 59l-17 -53c0,-1 -1,-2 -1,-2l0 0c-1,-1 -2,-1 -3,-1 -2,0 -3,0 -3,1 -1,0 -2,1 -2,2l-17 53 0 0c-2,5 -5,10 -9,13l0 0c-4,3 -9,4 -15,4l-55 0c-1,0 -3,1 -3,1 -1,1 -2,2 -2,3l0 0c0,1 0,2 0,3 0,1 1,1 2,2l0 0 45 33 0 0c4,3 7,7 9,12l0 0c1,5 1,10 0,16l-18 52c0,2 0,3 0,4 1,0 1,1 2,2 1,1 2,1 3,1 1,0 2,0 3,-1l45 -33c4,-3 10,-5 15,-5 5,0 10,2 14,5l45 33c1,1 2,1 3,1 1,0 2,0 3,-1l0 0c1,-1 2,-2 2,-2l0 -1c0,0 0,-2 0,-3l-18 -52c-1,-6 -1,-11 0,-16l0 0c2,-5 5,-9 10,-12l0 0 45 -33 0 0c1,-1 1,-1 1,-2 1,-1 1,-2 0,-3l0 0c0,-1 -1,-2 -1,-3l0 0c-1,0 -2,-1 -3,-1l0 0 -56 0c-5,0 -10,-1 -15,-4l0 0c-4,-3 -7,-8 -9,-13zm-295 -59l17 53 0 0c1,1 1,2 2,2l0 0c1,1 2,1 3,1l55 0 0 0c6,0 11,2 15,5 4,3 7,7 9,12 2,6 2,11 0,16 -1,5 -4,9 -9,12l0 0 -45 33 0 0c-1,1 -1,1 -2,2l0 0c0,1 0,2 0,3l18 53c1,5 1,11 0,16l0 0c-2,5 -5,9 -9,12l0 0c-5,3 -10,5 -15,5 -5,0 -10,-2 -15,-5l0 0 -45 -33c-1,0 -2,-1 -3,-1 -1,0 -2,1 -2,1l-45 33c-5,3 -10,5 -15,5 -5,0 -10,-2 -15,-5 -4,-3 -7,-7 -9,-12 -1,-5 -1,-11 0,-16l18 -53c0,-1 0,-2 0,-3l0 0c-1,-1 -1,-1 -2,-2l0 0 -45 -33c-5,-3 -8,-7 -9,-12l0 0c-2,-5 -2,-10 0,-16 1,-5 5,-9 9,-12 4,-3 9,-5 14,-5l56 0c1,0 2,0 3,-1l0 0c1,0 1,-1 2,-2l17 -53c1,-5 5,-9 9,-12l0 0c4,-3 9,-5 14,-5 6,0 11,2 15,5 4,3 7,7 9,12zm-2 59l-17 -53c0,-1 -1,-2 -2,-2 0,-1 -1,-1 -3,-1 -1,0 -2,0 -2,1l-1 0c0,0 -1,1 -1,2l-17 53c-2,5 -5,10 -9,13l0 0c-4,3 -10,4 -15,4l-56 0c-1,0 -2,1 -3,1 0,1 -1,2 -1,3 -1,1 -1,2 0,3l0 0c0,1 1,1 1,2l46 33 0 0c4,3 7,7 9,12l0 0c1,5 1,10 0,16l-18 52c0,2 0,3 0,4 1,0 1,1 2,2 1,1 2,1 3,1 1,0 2,0 3,-1l45 -33c4,-3 9,-5 14,-5 6,0 11,2 15,5l45 33 0 0c1,1 2,1 3,1 1,0 2,0 3,-1l0 0c1,-1 1,-2 2,-2l0 -1c0,0 0,-2 0,-3l-18 -52c-1,-6 -1,-11 0,-16l0 0c2,-5 5,-9 9,-12l0 0 45 -33 0 0c1,-1 2,-1 2,-2 1,-1 1,-2 0,-3 0,-1 -1,-2 -2,-3 0,0 -1,-1 -3,-1l0 0 -55 0c-6,0 -11,-1 -15,-4l0 0c-4,-3 -7,-8 -9,-13l0 0z"/>
  <path class="fil0" d="M8591 8749l17 53c2,7 7,11 14,11l55 0c7,0 13,4 15,10 2,6 0,13 -6,17l-45 32c-5,4 -7,11 -5,17l17 53c2,6 0,12 -5,16 -6,4 -13,4 -18,0l-45 -32c-5,-4 -12,-4 -17,0l-45 32c-6,4 -12,4 -18,0 -5,-4 -7,-10 -5,-16l17 -53c2,-6 0,-13 -5,-17l-45 -32c-6,-4 -8,-11 -6,-17 2,-6 8,-10 14,-10l56 0c7,0 12,-4 14,-11l17 -53c2,-6 8,-10 14,-10 7,0 13,4 15,10z"/>
  <path class="fil0" d="M8888 8749l17 53c2,7 8,11 14,11l56 0c6,0 12,4 14,10 2,6 0,13 -6,17l-45 32c-5,4 -7,11 -5,17l17 53c2,6 0,12 -5,16 -5,4 -12,4 -18,0l-45 -32c-5,-4 -12,-4 -17,0l-45 32c-5,4 -12,4 -18,0 -5,-4 -7,-10 -5,-16l17 -53c2,-6 0,-13 -5,-17l-45 -32c-6,-4 -8,-11 -6,-17 2,-6 8,-10 15,-10l55 0c7,0 12,-4 14,-11l17 -53c2,-6 8,-10 15,-10 6,0 12,4 14,10z"/>
  <path class="fil0" d="M9186 8749l17 53c2,7 7,11 14,11l56 0c6,0 12,4 14,10 2,6 0,13 -6,17l-45 32c-5,4 -7,11 -5,17l17 53c2,6 0,12 -5,16 -6,4 -12,4 -18,0l-45 -32c-5,-4 -12,-4 -17,0l-45 32c-5,4 -12,4 -18,0 -5,-4 -7,-10 -5,-16l17 -53c2,-6 0,-13 -5,-17l-45 -32c-6,-4 -8,-11 -6,-17 2,-6 8,-10 14,-10l56 0c7,0 12,-4 14,-11l17 -53c2,-6 8,-10 15,-10 6,0 12,4 14,10z"/>
  <path class="fil0" d="M9469 8923c-3,0 -6,1 -8,3l-45 32c-6,4 -12,4 -18,0 -5,-4 -7,-10 -5,-16l17 -53c2,-6 0,-13 -5,-17l-45 -32c-6,-4 -8,-11 -6,-17 2,-6 8,-10 14,-10l56 0c7,0 12,-4 14,-11l17 -53c2,-6 8,-10 14,-10l0 184z"/>
  <path class="fil1" d="M9791 8746l17 53c0,1 1,2 2,3l0 0c1,0 2,1 3,1l55 0 0 0c6,0 11,1 15,4 4,3 7,8 9,13l0 0c2,5 2,10 0,15l0 0c-2,5 -5,9 -9,13l-45 32 0 0c-1,1 -2,2 -2,3l0 0c0,1 0,2 0,3l17 53c2,5 2,10 1,15l-1 0c-1,5 -4,9 -9,12l0 0c-4,4 -9,5 -14,5 -5,0 -10,-1 -15,-5l-45 -32c-1,-1 -2,-1 -3,-1 -1,0 -2,0 -3,1l-45 32c-4,4 -9,5 -14,5 -5,0 -10,-1 -15,-5 -4,-3 -7,-7 -9,-12 -1,-5 -1,-10 0,-15l17 -53c1,-1 1,-2 1,-3l0 0c-1,-1 -1,-2 -2,-3l0 0 -45 -32 0 0c-5,-4 -8,-8 -9,-13 -2,-5 -2,-10 0,-15 1,-5 4,-10 9,-13 4,-3 9,-4 14,-4l0 0 56 0c1,0 2,-1 3,-1l0 0c1,-1 1,-2 2,-3l0 0 17 -53c1,-5 5,-9 9,-12 4,-3 9,-5 14,-5 6,0 11,2 15,5l0 0c4,3 7,7 9,12zm-2 59l-17 -53c0,-1 -1,-1 -2,-2l0 0c-1,-1 -2,-1 -3,-1 -1,0 -2,0 -3,1 0,1 -1,1 -1,2l-17 53 0 0c-2,6 -5,10 -9,13l0 0c-5,3 -10,5 -15,5l-56 0 0 0c-1,0 -2,0 -3,0 0,1 -1,2 -1,3 -1,1 -1,2 0,3 0,1 0,2 1,2l0 0 45 33 0 0c5,3 8,8 10,12l0 1c1,4 1,10 -1,15l-17 53c0,1 0,2 0,3 0,1 1,2 2,2 1,1 2,1 3,1 1,0 2,0 3,-1l45 -32c4,-4 9,-5 14,-5 5,0 11,1 15,5l45 32c1,1 2,1 3,1 1,0 2,0 3,-1l0 0c1,0 1,-1 2,-2l0 0c0,-1 0,-2 -1,-3l-17 -53c-1,-5 -1,-11 0,-16l0 0c2,-4 5,-9 9,-12l0 0 45 -33c1,0 2,-1 2,-2l0 0c0,-1 0,-2 0,-3l0 0c0,-1 -1,-2 -2,-3 0,0 -1,0 -3,0l0 0 -55 0c-6,0 -11,-2 -15,-5l0 0c-4,-3 -7,-7 -9,-13zm-296 -59l17 53c1,1 1,2 2,3l0 0c1,0 2,1 3,1l55 0 0 0c6,0 11,1 15,4 4,3 7,8 9,13l0 0c2,5 2,10 0,15 -1,5 -4,9 -9,13l0 0 -45 32 0 0c-1,1 -1,2 -2,3l0 0c0,1 0,2 0,3l18 53c1,5 1,10 0,15l0 0c-2,5 -5,9 -9,12l-1 0c-4,4 -9,5 -14,5 -5,0 -10,-1 -15,-5l-45 -32c-1,-1 -2,-1 -3,-1 -1,0 -2,0 -2,1l-45 32c-5,4 -10,5 -15,5 -5,0 -10,-1 -15,-5 -4,-3 -7,-7 -9,-12 -1,-5 -1,-10 0,-15l18 -53c0,-1 0,-2 0,-3l0 0c-1,-1 -1,-2 -2,-3l0 0 -45 -32 0 0c-5,-4 -8,-8 -9,-13 -2,-5 -2,-10 0,-15l0 0c1,-5 5,-10 9,-13 4,-3 9,-4 14,-4l56 0c1,0 2,-1 3,-1l0 0c1,-1 1,-2 2,-3l0 0 17 -53c1,-5 5,-9 9,-12 4,-3 9,-5 14,-5 6,0 11,2 15,5l0 0c4,3 7,7 9,12zm-2 59l-17 -53c0,-1 -1,-1 -2,-2l0 0c0,-1 -1,-1 -3,-1 -1,0 -2,0 -3,1 0,1 -1,1 -1,2l-17 53 0 0c-2,6 -5,10 -9,13l0 0c-5,3 -10,5 -15,5l-56 0c-1,0 -2,0 -3,0 0,1 -1,2 -1,3l0 0c-1,1 -1,2 0,3 0,1 1,2 1,2l0 0 46 33 0 0c4,3 7,8 9,12l0 1c1,4 1,10 0,15l-18 53c0,1 0,2 0,3 1,1 1,2 2,2 1,1 2,1 3,1 1,0 2,0 3,-1l45 -32c4,-4 9,-5 14,-5 6,0 11,1 15,5l45 32c1,1 2,1 3,1 1,0 2,0 3,-1l0 0c1,0 1,-1 2,-2l0 0c0,-1 0,-2 0,-3l-18 -53c-1,-5 -1,-11 0,-16l0 0c2,-4 5,-9 9,-12l0 0 45 -33 0 0c1,0 2,-1 2,-2 1,-1 1,-2 0,-3l0 0c0,-1 -1,-2 -2,-3 0,0 -1,0 -3,0l0 0 -55 0c-6,0 -11,-2 -15,-5l0 0c-4,-3 -7,-7 -9,-13zm-296 -59l17 53c1,1 1,2 2,3l0 0c1,0 2,1 3,1l56 0 0 0c5,0 10,1 14,4l0 0c4,3 8,8 9,13l0 0c2,5 2,10 0,15 -1,5 -4,9 -9,13l-45 32 0 0c-1,1 -1,2 -2,3 0,1 0,2 0,3l18 53c1,5 1,10 0,15l0 0c-2,5 -5,9 -9,12l0 0c-5,4 -10,5 -15,5 -5,0 -10,-1 -15,-5l-45 -32c0,-1 -1,-1 -2,-1 -1,0 -3,0 -3,1l-45 32c-5,4 -10,5 -15,5 -5,0 -10,-1 -15,-5l0 0c-4,-3 -7,-7 -9,-12l0 0c-1,-5 -1,-10 0,-15l18 -53c0,-1 0,-2 0,-3l0 0c-1,-1 -1,-2 -2,-3l0 0 -45 -32 0 0c-5,-4 -8,-8 -9,-13 -2,-5 -2,-10 0,-15l0 0c1,-5 5,-10 9,-13 4,-3 9,-4 14,-4l56 0c1,0 2,-1 3,-1l0 0c1,-1 1,-2 2,-3l0 0 17 -53c2,-5 5,-9 9,-12 4,-3 9,-5 15,-5 5,0 10,2 14,5l0 0c4,3 8,7 9,12zm-2 59l-17 -53c0,-1 -1,-1 -2,-2l0 0c0,-1 -1,-1 -2,-1 -2,0 -3,0 -3,1 -1,1 -2,1 -2,2l-17 53 0 0c-2,6 -5,10 -9,13l0 0c-4,3 -10,5 -15,5l-56 0c-1,0 -2,0 -2,0 -1,1 -2,2 -2,3l0 0c-1,1 -1,2 0,3 0,1 1,2 2,2l0 0 45 33 0 0c4,3 7,8 9,12l0 1c1,4 1,10 0,15l-18 53c0,1 0,2 0,3l0 0c1,1 1,2 2,2l0 0c1,1 2,1 3,1 1,0 2,0 3,-1l45 -32c4,-4 9,-5 15,-5 5,0 10,1 14,5l45 32c1,1 2,1 3,1 1,0 2,0 3,-1l0 0c1,0 1,-1 2,-2l0 0c0,-1 0,-2 0,-3l-18 -53c-1,-5 -1,-11 0,-15 2,-5 5,-10 9,-13l0 0 45 -33c1,0 2,-1 2,-2 1,-1 1,-2 0,-3l0 0c0,-1 -1,-2 -1,-3l0 0c-1,0 -2,0 -3,0l0 0 -56 0c-5,0 -11,-2 -15,-5l0 0c-4,-3 -7,-7 -9,-13zm-296 -59l17 53c1,1 1,2 2,3l0 0c1,0 2,1 3,1l56 0 0 0c5,0 10,1 14,4l0 0c4,3 8,8 9,13l0 0c2,5 2,10 0,15 -1,5 -4,9 -9,13l0 0 -45 32 0 0c-1,1 -1,2 -2,3l0 0c0,1 0,2 0,3l18 53c1,5 1,10 0,15l0 0c-2,5 -5,9 -9,12l0 0c-5,4 -10,5 -15,5 -5,0 -10,-1 -15,-5l-44 -32c-1,-1 -2,-1 -3,-1 -1,0 -2,0 -3,1l-45 32c-5,4 -10,5 -15,5 -5,0 -10,-1 -14,-5 -5,-3 -8,-7 -10,-12 -1,-5 -1,-10 1,-15l17 -53c0,-1 0,-2 0,-3l0 0c0,-1 -1,-2 -2,-3l0 0 -45 -32 0 0c-4,-4 -8,-8 -9,-13 -2,-5 -2,-10 0,-15l0 0c2,-5 5,-10 9,-13 4,-3 9,-4 15,-4l55 0c1,0 2,-1 3,-1l0 0c1,-1 2,-2 2,-3l0 0 17 -53c2,-5 5,-9 9,-12 4,-3 9,-5 15,-5 5,0 10,2 14,5l0 0c4,3 8,7 9,12zm-2 59l-17 -53c0,-1 -1,-1 -1,-2l0 0c-1,-1 -2,-1 -3,-1 -2,0 -3,0 -3,1 -1,1 -2,1 -2,2l-17 53 0 0c-2,6 -5,10 -9,13l0 0c-4,3 -9,5 -15,5l-55 0c-1,0 -3,0 -3,0 -1,1 -2,2 -2,3l0 0c0,1 0,2 0,3 0,1 1,2 2,2l0 0 45 33 0 0c4,3 7,8 9,12l0 1c1,4 1,10 0,15l-18 53c0,1 0,2 0,3 1,1 1,2 2,2 1,1 2,1 3,1 1,0 2,0 3,-1l45 -32c4,-4 10,-5 15,-5 5,0 10,1 14,5l45 32c1,1 2,1 3,1 1,0 2,0 3,-1l0 0c1,0 2,-1 2,-2l0 0c0,-1 0,-2 0,-3l-18 -53c-1,-5 -1,-11 0,-16l0 0c2,-4 5,-9 10,-12l0 0 45 -33 0 0c1,0 1,-1 1,-2 1,-1 1,-2 0,-3l0 0c0,-1 -1,-2 -1,-3l0 0c-1,0 -2,0 -3,0l0 0 -56 0c-5,0 -10,-2 -15,-5l0 0c-4,-3 -7,-7 -9,-13zm-295 -59l17 53 0 0c1,1 1,2 2,3l0 0c1,0 2,1 3,1l55 0 0 0c6,0 11,1 15,4 4,3 7,8 9,13 2,5 2,10 0,15 -1,5 -4,9 -9,13l0 0 -45 32 0 0c-1,1 -1,2 -2,3l0 0c0,1 0,2 0,3l18 53c1,5 1,10 0,15l0 0c-2,5 -5,9 -9,12l0 0c-5,4 -10,5 -15,5 -5,0 -10,-1 -15,-5l0 0 -45 -32c-1,-1 -2,-1 -3,-1 -1,0 -2,0 -2,1l-45 32c-5,4 -10,5 -15,5 -5,0 -10,-1 -15,-5 -4,-3 -7,-7 -9,-12 -1,-5 -1,-10 0,-15l18 -53c0,-1 0,-2 0,-3l0 0c-1,-1 -1,-2 -2,-3l0 0 -45 -32c-5,-4 -8,-8 -9,-13l0 0c-2,-5 -2,-10 0,-15 1,-5 5,-10 9,-13 4,-3 9,-4 14,-4l56 0c1,0 2,-1 3,-1l0 0c1,-1 1,-2 2,-3l17 -53c1,-5 5,-9 9,-12l0 0c4,-3 9,-5 14,-5 6,0 11,2 15,5 4,3 7,7 9,12zm-2 59l-17 -53c0,-1 -1,-1 -2,-2 0,-1 -1,-1 -3,-1 -1,0 -2,0 -2,1l-1 0c0,1 -1,1 -1,2l-17 53c-2,6 -5,10 -9,13l0 0c-4,3 -10,5 -15,5l-56 0c-1,0 -2,0 -3,0 0,1 -1,2 -1,3 -1,1 -1,2 0,3l0 0c0,1 1,2 1,2l46 33 0 0c4,3 7,8 9,12l0 0c1,5 1,11 0,16l-18 53c0,1 0,2 0,3 1,1 1,2 2,2 1,1 2,1 3,1 1,0 2,0 3,-1l45 -32c4,-4 9,-5 14,-5 6,0 11,1 15,5l45 32 0 0c1,1 2,1 3,1 1,0 2,0 3,-1l0 0c1,0 1,-1 2,-2l0 0c0,-1 0,-2 0,-3l-18 -53c-1,-5 -1,-11 0,-15l0 -1c2,-4 5,-9 9,-12l0 0 45 -33 0 0c1,0 2,-1 2,-2 1,-1 1,-2 0,-3 0,-1 -1,-2 -2,-3 0,0 -1,0 -3,0l0 0 -55 0c-6,0 -11,-2 -15,-5l0 0c-4,-3 -7,-7 -9,-13l0 0z"/>
  <path class="fil0" d="M8591 8411l17 53c2,6 7,10 14,10l55 0c7,0 13,4 15,10 2,6 0,13 -6,17l-45 32c-5,4 -7,11 -5,17l17 53c2,6 0,13 -5,17 -6,4 -13,4 -18,0l-45 -33c-5,-4 -12,-4 -17,0l-45 33c-6,4 -12,4 -18,0 -5,-4 -7,-11 -5,-17l17 -53c2,-6 0,-13 -5,-17l-45 -32c-6,-4 -8,-11 -6,-17 2,-6 8,-10 14,-10l56 0c7,0 12,-4 14,-10l17 -53c2,-6 8,-11 14,-11 7,0 13,5 15,11z"/>
  <path class="fil0" d="M8888 8411l17 53c2,6 8,10 14,10l56 0c6,0 12,4 14,10 2,6 0,13 -6,17l-45 32c-5,4 -7,11 -5,17l17 53c2,6 0,13 -5,17 -5,4 -12,4 -18,0l-45 -33c-5,-4 -12,-4 -17,0l-45 33c-5,4 -12,4 -18,0 -5,-4 -7,-11 -5,-17l17 -53c2,-6 0,-13 -5,-17l-45 -32c-6,-4 -8,-11 -6,-17 2,-6 8,-10 15,-10l55 0c7,0 12,-4 14,-10l17 -53c2,-6 8,-11 15,-11 6,0 12,5 14,11z"/>
  <path class="fil0" d="M9173 8584c-3,0 -7,1 -10,3l-45 33c-5,4 -12,4 -18,0 -5,-4 -7,-11 -5,-17l17 -53c2,-6 0,-13 -5,-17l-45 -32c-6,-4 -8,-11 -6,-17 2,-6 8,-10 14,-10l56 0c7,0 12,-4 14,-10l17 -53c2,-6 8,-11 15,-11l1 1 0 183z"/>
  <path class="fil1" d="M9791 8408l17 53c0,1 1,2 2,2l0 0c1,1 2,1 3,1l55 0 0 0c6,0 11,2 15,5 4,3 7,7 9,12l0 0c2,5 2,11 0,16l0 0c-2,4 -5,9 -9,12l-45 33 0 0c-1,0 -2,1 -2,2l0 0c0,1 0,2 0,3l17 53c2,5 2,10 1,15l-1 0c-1,5 -4,10 -9,13l0 0c-4,3 -9,5 -14,5 -5,0 -10,-2 -15,-5l-45 -33c-1,-1 -2,-1 -3,-1 -1,0 -2,0 -3,1l-45 33c-4,3 -9,5 -14,5 -5,0 -10,-2 -15,-5 -4,-3 -7,-8 -9,-13 -1,-5 -1,-10 0,-15l17 -53c1,-1 1,-2 1,-3l0 0c-1,-1 -1,-2 -2,-2l0 0 -45 -33 0 0c-5,-3 -8,-8 -9,-12 -2,-5 -2,-11 0,-16 1,-5 4,-9 9,-12 4,-3 9,-5 14,-5l0 0 56 0c1,0 2,0 3,-1l0 0c1,0 1,-1 2,-2l0 0 17 -53c1,-5 5,-10 9,-13 4,-3 9,-5 14,-5 6,0 11,2 15,5l0 0c4,3 7,8 9,13zm-2 59l-17 -53c0,-1 -1,-2 -2,-3l0 0c-1,0 -2,-1 -3,-1 -1,0 -2,1 -3,1 0,1 -1,2 -1,3l-17 53 0 0c-2,5 -5,9 -9,12l0 0c-5,3 -10,5 -15,5l-56 0 0 0c-1,0 -2,0 -3,1 0,0 -1,1 -1,2 -1,1 -1,2 0,3 0,1 0,2 1,3l0 0 45 32 0 0c5,4 8,8 10,13l0 0c1,5 1,10 -1,15l-17 53c0,1 0,2 0,3 0,1 1,2 2,3 1,0 2,1 3,1 1,0 2,-1 3,-1l45 -33c4,-3 9,-5 14,-5 5,0 11,2 15,5l45 33c1,0 2,1 3,1 1,0 2,-1 3,-1l0 0c1,-1 1,-2 2,-3l0 0c0,-1 0,-2 -1,-3l-17 -53c-1,-5 -1,-10 0,-15l0 0c2,-5 5,-9 9,-13l0 0 45 -32c1,-1 2,-2 2,-3l0 0c0,-1 0,-2 0,-3l0 0c0,-1 -1,-2 -2,-2 0,-1 -1,-1 -3,-1l0 0 -55 0c-6,0 -11,-2 -15,-5l0 0c-4,-3 -7,-7 -9,-12zm-296 -59l17 53c1,1 1,2 2,2l0 0c1,1 2,1 3,1l55 0 0 0c6,0 11,2 15,5 4,3 7,7 9,12l0 0c2,5 2,11 0,16 -1,4 -4,9 -9,12l0 0 -45 33 0 0c-1,0 -1,1 -2,2l0 0c0,1 0,2 0,3l18 53c1,5 1,10 0,15l0 0c-2,5 -5,10 -9,13l-1 0c-4,3 -9,5 -14,5 -5,0 -10,-2 -15,-5l-45 -33c-1,-1 -2,-1 -3,-1 -1,0 -2,0 -2,1l-45 33c-5,3 -10,5 -15,5 -5,0 -10,-2 -15,-5 -4,-3 -7,-8 -9,-13 -1,-5 -1,-10 0,-15l18 -53c0,-1 0,-2 0,-3l0 0c-1,-1 -1,-2 -2,-2l0 0 -45 -33 0 0c-5,-3 -8,-8 -9,-12 -2,-5 -2,-11 0,-16l0 0c1,-5 5,-9 9,-12 4,-3 9,-5 14,-5l56 0c1,0 2,0 3,-1l0 0c1,0 1,-1 2,-2l0 0 17 -53c1,-5 5,-10 9,-13 4,-3 9,-5 14,-5 6,0 11,2 15,5l0 0c4,3 7,8 9,13zm-2 59l-17 -53c0,-1 -1,-2 -2,-3l0 0c0,0 -1,-1 -3,-1 -1,0 -2,1 -3,1 0,1 -1,2 -1,3l-17 53 0 0c-2,5 -5,9 -9,12l0 0c-5,3 -10,5 -15,5l-56 0c-1,0 -2,0 -3,1 0,0 -1,1 -1,2l0 0c-1,1 -1,2 0,3 0,1 1,2 1,3l0 0 46 32 0 0c4,4 7,8 9,13l0 0c1,5 1,10 0,15l-18 53c0,1 0,2 0,3 1,1 1,2 2,3 1,0 2,1 3,1 1,0 2,-1 3,-1l45 -33c4,-3 9,-5 14,-5 6,0 11,2 15,5l45 33c1,0 2,1 3,1 1,0 2,-1 3,-1l0 0c1,-1 1,-2 2,-3l0 0c0,-1 0,-2 0,-3l-18 -53c-1,-5 -1,-10 0,-15l0 0c2,-5 5,-9 9,-13l0 0 45 -32 0 0c1,-1 2,-2 2,-3 1,-1 1,-2 0,-3l0 0c0,-1 -1,-2 -2,-2 0,-1 -1,-1 -3,-1l0 0 -55 0c-6,0 -11,-2 -15,-5l0 0c-4,-3 -7,-7 -9,-12zm-296 -59l17 53c1,1 1,2 2,2l0 0c1,1 2,1 3,1l56 0 0 0c5,0 10,2 14,5l0 0c4,3 8,7 9,12l0 0c2,5 2,11 0,16 -1,4 -4,9 -9,12l-45 33 0 0c-1,0 -1,1 -2,2 0,1 0,2 0,3l18 53c1,5 1,10 0,15l0 0c-2,5 -5,10 -9,13l0 0c-5,3 -10,5 -15,5 -5,0 -10,-2 -15,-5l-45 -33c0,-1 -1,-1 -2,-1 -1,0 -3,0 -3,1l-45 33c-5,3 -10,5 -15,5 -5,0 -10,-2 -15,-5l0 0c-4,-3 -7,-8 -9,-13l0 0c-1,-5 -1,-10 0,-15l18 -53c0,-1 0,-2 0,-3l0 0c-1,-1 -1,-2 -2,-2l0 0 -45 -33 0 0c-5,-3 -8,-8 -9,-12 -2,-5 -2,-11 0,-16l0 0c1,-5 5,-9 9,-12 4,-3 9,-5 14,-5l56 0c1,0 2,0 3,-1l0 0c1,0 1,-1 2,-2l0 0 17 -53c2,-5 5,-10 9,-13 4,-3 9,-5 15,-5 5,0 10,2 14,5l0 0c4,3 8,8 9,13zm-2 59l-17 -53c0,-1 -1,-2 -2,-3l0 0c0,0 -1,-1 -2,-1 -2,0 -3,1 -3,1 -1,1 -2,2 -2,3l-17 53 0 0c-2,5 -5,9 -9,12l0 0c-4,3 -10,5 -15,5l-56 0c-1,0 -2,0 -2,1 -1,0 -2,1 -2,2l0 0c-1,1 -1,2 0,3 0,1 1,2 2,3l0 0 45 32 0 0c4,4 7,8 9,13l0 0c1,5 1,10 0,15l-18 53c0,1 0,2 0,3l0 0c1,1 1,2 2,3l0 0c1,0 2,1 3,1 1,0 2,-1 3,-1l45 -33c4,-3 9,-5 15,-5 5,0 10,2 14,5l45 33c1,0 2,1 3,1 1,0 2,-1 3,-1l0 0c1,-1 1,-2 2,-3l0 0c0,-1 0,-2 0,-3l-18 -53c-1,-5 -1,-10 0,-15 2,-5 5,-9 9,-13l0 0 45 -32c1,-1 2,-2 2,-3 1,-1 1,-2 0,-3l0 0c0,-1 -1,-2 -1,-2l0 0c-1,-1 -2,-1 -3,-1l0 0 -56 0c-5,0 -11,-2 -15,-5l0 0c-4,-3 -7,-7 -9,-12zm-296 -59l17 53c1,1 1,2 2,2l0 0c1,1 2,1 3,1l56 0 0 0c5,0 10,2 14,5l0 0c4,3 8,7 9,12l0 0c2,5 2,11 0,16 -1,4 -4,9 -9,12l0 0 -45 33 0 0c-1,0 -1,1 -2,2l0 0c0,1 0,2 0,3l18 53c1,5 1,10 0,15l0 0c-2,5 -5,10 -9,13l0 0c-5,3 -10,5 -15,5 -5,0 -10,-2 -15,-5l-44 -33c-1,-1 -2,-1 -3,-1 -1,0 -2,0 -3,1l-45 33c-5,3 -10,5 -15,5 -5,0 -10,-2 -14,-5 -5,-3 -8,-8 -10,-13 -1,-5 -1,-10 1,-15l17 -53c0,-1 0,-2 0,-3l0 0c0,-1 -1,-2 -2,-2l0 0 -45 -33 0 0c-4,-3 -8,-8 -9,-12 -2,-5 -2,-11 0,-16l0 0c2,-5 5,-9 9,-12 4,-3 9,-5 15,-5l55 0c1,0 2,0 3,-1l0 0c1,0 2,-1 2,-2l0 0 17 -53c2,-5 5,-10 9,-13 4,-3 9,-5 15,-5 5,0 10,2 14,5l0 0c4,3 8,8 9,13zm-2 59l-17 -53c0,-1 -1,-2 -1,-3l0 0c-1,0 -2,-1 -3,-1 -2,0 -3,1 -3,1 -1,1 -2,2 -2,3l-17 53 0 0c-2,5 -5,9 -9,12l0 0c-4,3 -9,5 -15,5l-55 0c-1,0 -3,0 -3,1 -1,0 -2,1 -2,2l0 0c0,1 0,2 0,3 0,1 1,2 2,3l0 0 45 32 0 0c4,4 7,8 9,13l0 0c1,5 1,10 0,15l-18 53c0,1 0,2 0,3 1,1 1,2 2,3 1,0 2,1 3,1 1,0 2,-1 3,-1l45 -33c4,-3 10,-5 15,-5 5,0 10,2 14,5l45 33c1,0 2,1 3,1 1,0 2,-1 3,-1l0 0c1,-1 2,-2 2,-3l0 0c0,-1 0,-2 0,-3l-18 -53c-1,-5 -1,-10 0,-15l0 0c2,-5 5,-9 10,-13l0 0 45 -32 0 0c1,-1 1,-2 1,-3 1,-1 1,-2 0,-3l0 0c0,-1 -1,-2 -1,-2l0 0c-1,-1 -2,-1 -3,-1l0 0 -56 0c-5,0 -10,-2 -15,-5l0 0c-4,-3 -7,-7 -9,-12zm-295 -59l17 53 0 0c1,1 1,2 2,2l0 0c1,1 2,1 3,1l55 0 0 0c6,0 11,2 15,5 4,3 7,7 9,12 2,5 2,11 0,16 -1,4 -4,9 -9,12l0 0 -45 33 0 0c-1,0 -1,1 -2,2l0 0c0,1 0,2 0,3l18 53c1,5 1,10 0,15l0 0c-2,5 -5,10 -9,13l0 0c-5,3 -10,5 -15,5 -5,0 -10,-2 -15,-5l0 0 -45 -33c-1,-1 -2,-1 -3,-1 -1,0 -2,0 -2,1l-45 33c-5,3 -10,5 -15,5 -5,0 -10,-2 -15,-5 -4,-3 -7,-8 -9,-13 -1,-5 -1,-10 0,-15l18 -53c0,-1 0,-2 0,-3l0 0c-1,-1 -1,-2 -2,-2l0 0 -45 -33c-5,-3 -8,-8 -9,-12l0 0c-2,-5 -2,-11 0,-16 1,-5 5,-9 9,-12 4,-3 9,-5 14,-5l56 0c1,0 2,0 3,-1l0 0c1,0 1,-1 2,-2l17 -53c1,-5 5,-10 9,-13l0 0c4,-3 9,-5 14,-5 6,0 11,2 15,5 4,3 7,8 9,13zm-2 59l-17 -53c0,-1 -1,-2 -2,-3 0,0 -1,-1 -3,-1 -1,0 -2,1 -2,1l-1 0c0,1 -1,2 -1,3l-17 53c-2,5 -5,9 -9,12l0 0c-4,3 -10,5 -15,5l-56 0c-1,0 -2,0 -3,1 0,0 -1,1 -1,2 -1,1 -1,2 0,3l0 0c0,1 1,2 1,3l46 32 0 0c4,4 7,8 9,13l0 0c1,5 1,10 0,15l-18 53c0,1 0,2 0,3 1,1 1,2 2,3 1,0 2,1 3,1 1,0 2,-1 3,-1l45 -33c4,-3 9,-5 14,-5 6,0 11,2 15,5l45 33 0 0c1,0 2,1 3,1 1,0 2,-1 3,-1l0 0c1,-1 1,-2 2,-3l0 0c0,-1 0,-2 0,-3l-18 -53c-1,-5 -1,-10 0,-15l0 0c2,-5 5,-9 9,-13l0 0 45 -32 0 0c1,-1 2,-2 2,-3 1,-1 1,-2 0,-3 0,-1 -1,-2 -2,-2 0,-1 -1,-1 -3,-1l0 0 -55 0c-6,0 -11,-2 -15,-5l0 0c-4,-3 -7,-7 -9,-12l0 0z"/>
  <path class="fil0" d="M8591 8072l17 53c2,6 7,10 14,10l55 0c7,0 13,4 15,11 2,6 0,12 -6,16l-45 33c-5,4 -7,10 -5,17l17 52c2,7 0,13 -5,17 -6,4 -13,4 -18,0l-45 -33c-5,-4 -12,-4 -17,0l-45 33c-6,4 -12,4 -18,0 -5,-4 -7,-10 -5,-17l17 -52c2,-7 0,-13 -5,-17l-45 -33c-6,-4 -8,-10 -6,-16 2,-7 8,-11 14,-11l56 0c7,0 12,-4 14,-10l17 -53c2,-6 8,-10 14,-10 7,0 13,4 15,10z"/>
  <path class="fil0" d="M8874 8245c-3,0 -6,1 -9,3l-45 33c-5,4 -12,4 -18,0 -5,-4 -7,-10 -5,-17l17 -52c2,-7 0,-13 -5,-17l-45 -33c-6,-4 -8,-10 -6,-16 2,-7 8,-11 15,-11l55 0c7,0 12,-4 14,-10l17 -53c2,-6 8,-10 15,-10l0 183z"/>
  <path class="fil1" d="M9791 8069l17 53c0,1 1,2 2,2l0 0c1,1 2,1 3,1l55 0 0 0c6,0 11,2 15,5 4,3 7,7 9,12l0 0c2,6 2,11 0,16l0 0c-2,5 -5,9 -9,12l-45 33 0 0c-1,1 -2,1 -2,2l0 0c0,1 0,2 0,3l17 53c2,5 2,11 1,16l-1 0c-1,5 -4,9 -9,12l0 0c-4,3 -9,5 -14,5 -5,0 -10,-2 -15,-5l-45 -33c-1,0 -2,-1 -3,-1 -1,0 -2,1 -3,1l-45 33c-4,3 -9,5 -14,5 -5,0 -10,-2 -15,-5 -4,-3 -7,-7 -9,-12 -1,-5 -1,-11 0,-16l17 -53c1,-1 1,-2 1,-3l0 0c-1,-1 -1,-1 -2,-2l0 0 -45 -33 0 0c-5,-3 -8,-7 -9,-12 -2,-5 -2,-10 0,-16 1,-5 4,-9 9,-12 4,-3 9,-5 14,-5l0 0 56 0c1,0 2,0 3,-1l0 0c1,0 1,-1 2,-2l0 0 17 -53c1,-5 5,-9 9,-12 4,-3 9,-5 14,-5 6,0 11,2 15,5l0 0c4,3 7,7 9,12zm-2 59l-17 -53c0,-1 -1,-2 -2,-2l0 0c-1,-1 -2,-1 -3,-1 -1,0 -2,0 -3,1 0,0 -1,1 -1,2l-17 53 0 0c-2,5 -5,10 -9,13l0 0c-5,3 -10,4 -15,4l-56 0 0 0c-1,0 -2,1 -3,1 0,1 -1,2 -1,3 -1,1 -1,2 0,3 0,1 0,1 1,2l0 0 45 33 0 0c5,3 8,7 10,12l0 0c1,5 1,10 -1,16l-17 52c0,2 0,3 0,4 0,0 1,1 2,2 1,1 2,1 3,1 1,0 2,0 3,-1l45 -33c4,-3 9,-5 14,-5 5,0 11,2 15,5l45 33c1,1 2,1 3,1 1,0 2,0 3,-1l0 0c1,-1 1,-2 2,-2l0 -1c0,0 0,-2 -1,-3l-17 -52c-1,-6 -1,-11 0,-16l0 0c2,-5 5,-9 9,-12l0 0 45 -33c1,-1 2,-1 2,-2l0 0c0,-1 0,-2 0,-3l0 0c0,-1 -1,-2 -2,-3 0,0 -1,-1 -3,-1l0 0 -55 0c-6,0 -11,-1 -15,-4l0 0c-4,-3 -7,-8 -9,-13zm-296 -59l17 53c1,1 1,2 2,2l0 0c1,1 2,1 3,1l55 0 0 0c6,0 11,2 15,5 4,3 7,7 9,12l0 0c2,6 2,11 0,16 -1,5 -4,9 -9,12l0 0 -45 33 0 0c-1,1 -1,1 -2,2l0 0c0,1 0,2 0,3l18 53c1,5 1,11 0,16l0 0c-2,5 -5,9 -9,12l-1 0c-4,3 -9,5 -14,5 -5,0 -10,-2 -15,-5l-45 -33c-1,0 -2,-1 -3,-1 -1,0 -2,1 -2,1l-45 33c-5,3 -10,5 -15,5 -5,0 -10,-2 -15,-5 -4,-3 -7,-7 -9,-12 -1,-5 -1,-11 0,-16l18 -53c0,-1 0,-2 0,-3l0 0c-1,-1 -1,-1 -2,-2l0 0 -45 -33 0 0c-5,-3 -8,-7 -9,-12 -2,-5 -2,-10 0,-16l0 0c1,-5 5,-9 9,-12 4,-3 9,-5 14,-5l56 0c1,0 2,0 3,-1l0 0c1,0 1,-1 2,-2l0 0 17 -53c1,-5 5,-9 9,-12 4,-3 9,-5 14,-5 6,0 11,2 15,5l0 0c4,3 7,7 9,12zm-2 59l-17 -53c0,-1 -1,-2 -2,-2l0 0c0,-1 -1,-1 -3,-1 -1,0 -2,0 -3,1 0,0 -1,1 -1,2l-17 53 0 0c-2,5 -5,10 -9,13l0 0c-5,3 -10,4 -15,4l-56 0c-1,0 -2,1 -3,1 0,1 -1,2 -1,3l0 0c-1,1 -1,2 0,3 0,1 1,1 1,2l0 0 46 33 0 0c4,3 7,7 9,12l0 0c1,5 1,10 0,16l-18 52c0,2 0,3 0,4 1,0 1,1 2,2 1,1 2,1 3,1 1,0 2,0 3,-1l45 -33c4,-3 9,-5 14,-5 6,0 11,2 15,5l45 33c1,1 2,1 3,1 1,0 2,0 3,-1l0 0c1,-1 1,-2 2,-2l0 -1c0,0 0,-2 0,-3l-18 -52c-1,-6 -1,-11 0,-16l0 0c2,-5 5,-9 9,-12l0 0 45 -33 0 0c1,-1 2,-1 2,-2 1,-1 1,-2 0,-3l0 0c0,-1 -1,-2 -2,-3 0,0 -1,-1 -3,-1l0 0 -55 0c-6,0 -11,-1 -15,-4l0 0c-4,-3 -7,-8 -9,-13zm-296 -59l17 53c1,1 1,2 2,2l0 0c1,1 2,1 3,1l56 0 0 0c5,0 10,2 14,5l0 0c4,3 8,7 9,12l0 0c2,6 2,11 0,16 -1,5 -4,9 -9,12l-45 33 0 0c-1,1 -1,1 -2,2 0,1 0,2 0,3l18 53c1,5 1,11 0,16l0 0c-2,5 -5,9 -9,12l0 0c-5,3 -10,5 -15,5 -5,0 -10,-2 -15,-5l-45 -33c0,0 -1,-1 -2,-1 -1,0 -3,1 -3,1l-45 33c-5,3 -10,5 -15,5 -5,0 -10,-2 -15,-5l0 0c-4,-3 -7,-7 -9,-12l0 0c-1,-5 -1,-11 0,-16l18 -53c0,-1 0,-2 0,-3l0 0c-1,-1 -1,-1 -2,-2l0 0 -45 -33 0 0c-5,-3 -8,-7 -9,-12 -2,-5 -2,-10 0,-16l0 0c1,-5 5,-9 9,-12 4,-3 9,-5 14,-5l56 0c1,0 2,0 3,-1l0 0c1,0 1,-1 2,-2l0 0 17 -53c2,-5 5,-9 9,-12 4,-3 9,-5 15,-5 5,0 10,2 14,5l0 0c4,3 8,7 9,12zm-2 59l-17 -53c0,-1 -1,-2 -2,-2l0 0c0,-1 -1,-1 -2,-1 -2,0 -3,0 -3,1 -1,0 -2,1 -2,2l-17 53 0 0c-2,5 -5,10 -9,13l0 0c-4,3 -10,4 -15,4l-56 0c-1,0 -2,1 -2,1 -1,1 -2,2 -2,3l0 0c-1,1 -1,2 0,3 0,1 1,1 2,2l0 0 45 33 0 0c4,3 7,7 9,12l0 0c1,5 1,10 0,16l-18 52c0,1 0,3 0,3l0 1c1,0 1,1 2,2l0 0c1,1 2,1 3,1 1,0 2,0 3,-1l45 -33c4,-3 9,-5 15,-5 5,0 10,2 14,5l45 33c1,1 2,1 3,1 1,0 2,0 3,-1l0 0c1,-1 1,-2 2,-2l0 -1c0,0 0,-2 0,-3l-18 -52c-1,-6 -1,-11 0,-16 2,-5 5,-9 9,-12l0 0 45 -33c1,-1 2,-1 2,-2 1,-1 1,-2 0,-3l0 0c0,-1 -1,-2 -1,-3l0 0c-1,0 -2,-1 -3,-1l0 0 -56 0c-5,0 -11,-1 -15,-4l0 0c-4,-3 -7,-8 -9,-13zm-296 -59l17 53c1,1 1,2 2,2l0 0c1,1 2,1 3,1l56 0 0 0c5,0 10,2 14,5l0 0c4,3 8,7 9,12l0 0c2,6 2,11 0,16 -1,5 -4,9 -9,12l0 0 -45 33 0 0c-1,1 -1,1 -2,2l0 0c0,1 0,2 0,3l18 53c1,5 1,11 0,16l0 0c-2,5 -5,9 -9,12l0 0c-5,3 -10,5 -15,5 -5,0 -10,-2 -15,-5l-44 -33c-1,0 -2,-1 -3,-1 -1,0 -2,1 -3,1l-45 33c-5,3 -10,5 -15,5 -5,0 -10,-2 -14,-5 -5,-3 -8,-7 -10,-12 -1,-5 -1,-11 1,-16l17 -53c0,-1 0,-2 0,-3l0 0c0,-1 -1,-1 -2,-2l0 0 -45 -33 0 0c-4,-3 -8,-7 -9,-12 -2,-5 -2,-10 0,-16l0 0c2,-5 5,-9 9,-12 4,-3 9,-5 15,-5l55 0c1,0 2,0 3,-1l0 0c1,0 2,-1 2,-2l0 0 17 -53c2,-5 5,-9 9,-12 4,-3 9,-5 15,-5 5,0 10,2 14,5l0 0c4,3 8,7 9,12zm-2 59l-17 -53c0,-1 -1,-2 -1,-2l0 0c-1,-1 -2,-1 -3,-1 -2,0 -3,0 -3,1 -1,0 -2,1 -2,2l-17 53 0 0c-2,5 -5,10 -9,13l0 0c-4,3 -9,4 -15,4l-55 0c-1,0 -3,1 -3,1 -1,1 -2,2 -2,3l0 0c0,1 0,2 0,3 0,1 1,1 2,2l0 0 45 33 0 0c4,3 7,7 9,12l0 0c1,5 1,10 0,16l-18 52c0,2 0,3 0,4 1,0 1,1 2,2 1,1 2,1 3,1 1,0 2,0 3,-1l45 -33c4,-3 10,-5 15,-5 5,0 10,2 14,5l45 33c1,1 2,1 3,1 1,0 2,0 3,-1l0 0c1,-1 2,-2 2,-2l0 -1c0,0 0,-2 0,-3l-18 -52c-1,-6 -1,-11 0,-16l0 0c2,-5 5,-9 10,-12l0 0 45 -33 0 0c1,-1 1,-1 1,-2 1,-1 1,-2 0,-3l0 0c0,-1 -1,-2 -1,-3l0 0c-1,0 -2,-1 -3,-1l0 0 -56 0c-5,0 -10,-1 -15,-4l0 0c-4,-3 -7,-8 -9,-13zm-295 -59l17 53 0 0c1,1 1,2 2,2l0 0c1,1 2,1 3,1l55 0 0 0c6,0 11,2 15,5 4,3 7,7 9,12 2,6 2,11 0,16 -1,5 -4,9 -9,12l0 0 -45 33 0 0c-1,1 -1,1 -2,2l0 0c0,1 0,2 0,3l18 53c1,5 1,11 0,16l0 0c-2,5 -5,9 -9,12l0 0c-5,3 -10,5 -15,5 -5,0 -10,-2 -15,-5l0 0 -45 -33c-1,0 -2,-1 -3,-1 -1,0 -2,1 -2,1l-45 33c-5,3 -10,5 -15,5 -5,0 -10,-2 -15,-5 -4,-3 -7,-7 -9,-12 -1,-5 -1,-11 0,-16l18 -53c0,-1 0,-2 0,-3l0 0c-1,-1 -1,-1 -2,-2l0 0 -45 -33c-5,-3 -8,-7 -9,-12l0 0c-2,-5 -2,-10 0,-16 1,-5 5,-9 9,-12 4,-3 9,-5 14,-5l56 0c1,0 2,0 3,-1l0 0c1,0 1,-1 2,-2l17 -53c1,-5 5,-9 9,-12l0 0c4,-3 9,-5 14,-5 6,0 11,2 15,5 4,3 7,7 9,12zm-2 59l-17 -53c0,-1 -1,-2 -2,-2 0,-1 -1,-1 -3,-1 -1,0 -2,0 -2,1l-1 0c0,0 -1,1 -1,2l-17 53c-2,5 -5,10 -9,13l0 0c-4,3 -10,4 -15,4l-56 0c-1,0 -2,1 -3,1 0,1 -1,2 -1,3 -1,1 -1,2 0,3l0 0c0,1 1,1 1,2l46 33 0 0c4,3 7,7 9,12l0 0c1,5 1,10 0,16l-18 52c0,2 0,3 0,4 1,0 1,1 2,2 1,1 2,1 3,1 1,0 2,0 3,-1l45 -33c4,-3 9,-5 14,-5 6,0 11,2 15,5l45 33 0 0c1,1 2,1 3,1 1,0 2,0 3,-1l0 0c1,-1 1,-2 2,-2l0 -1c0,0 0,-2 0,-3l-18 -52c-1,-6 -1,-11 0,-16l0 0c2,-5 5,-9 9,-12l0 0 45 -33 0 0c1,-1 2,-1 2,-2 1,-1 1,-2 0,-3 0,-1 -1,-2 -2,-3 0,0 -1,-1 -3,-1l0 0 -55 0c-6,0 -11,-1 -15,-4l0 0c-4,-3 -7,-8 -9,-13l0 0z"/>
 </g>
</svg>
