<?xml version="1.0" encoding="UTF-8"?>
<!DOCTYPE svg PUBLIC "-//W3C//DTD SVG 1.1//EN" "http://www.w3.org/Graphics/SVG/1.1/DTD/svg11.dtd">
<!-- Creator: CorelDRAW X7 -->
<svg xmlns="http://www.w3.org/2000/svg" xml:space="preserve" width="33.3586mm" height="8.1278mm" version="1.1" style="shape-rendering:geometricPrecision; text-rendering:geometricPrecision; image-rendering:optimizeQuality; fill-rule:evenodd; clip-rule:evenodd"
viewBox="0 0 3336 813"
 xmlns:xlink="http://www.w3.org/1999/xlink">
 <defs>
  <style type="text/css">
   <![CDATA[
    .fil0 {fill:black;fill-rule:nonzero}
    .fil1 {fill:#1A1A1A;fill-rule:nonzero}
   ]]>
  </style>
 </defs>
 <g id="Layer_x0020_1">
  <metadata id="CorelCorpID_0Corel-Layer"/>
  <g id="_983709212080">
   <g>
    <path class="fil0" d="M235 -2l0 20 -100 0 0 -20 0 0 -1 0 -1 0 -1 0 -1 1 -1 0 -1 0 -1 0 0 0 -1 0 -1 0 -1 0 -1 0 -1 0 2 20 1 0 1 0 0 0 1 0 1 0 0 0 1 0 1 0 1 0 1 0 0 -1 1 0 1 0 0 0 100 -20zm-100 0l100 0 -100 0zm-105 50l16 13 -1 0 0 1 -1 0 0 1 -1 0 0 1 0 0 -1 1 0 1 -1 0 0 1 0 0 -1 1 0 0 -1 1 0 1 0 0 -1 1 0 0 -1 1 0 1 0 0 -1 1 0 0 -1 1 0 1 0 0 -1 1 0 0 0 1 -1 1 0 0 0 1 -1 0 0 1 0 1 -1 0 0 1 0 1 -1 0 0 1 0 1 -1 0 0 1 0 0 0 1 -1 1 0 0 0 1 -1 1 0 0 0 1 0 1 -1 0 0 1 0 1 0 0 -1 1 0 1 0 0 0 1 -1 1 0 0 0 1 0 1 0 0 -1 1 0 1 0 1 0 0 0 1 -1 1 0 0 0 1 0 1 0 0 -1 1 0 1 0 1 0 0 0 1 0 1 0 0 -1 1 0 1 0 1 0 0 0 1 0 1 0 0 0 1 0 1 -1 1 0 0 0 1 0 1 0 1 0 0 0 1 0 1 0 1 0 0 0 1 0 1 0 0 0 1 0 1 0 1 0 1 -1 0 0 1 0 1 0 0 0 12 -20 0 0 -12 0 0 0 -1 0 -1 1 -1 0 -1 0 -1 0 -1 0 -1 0 0 0 -1 0 -1 0 -1 0 -1 0 -1 0 -1 0 0 0 -1 0 -1 0 -1 1 -1 0 -1 0 -1 0 0 0 -1 0 -1 0 -1 0 -1 1 -1 0 -1 0 0 0 -1 0 -1 0 -1 1 -1 0 -1 0 0 0 -1 0 -1 1 -1 0 -1 0 0 0 -1 0 -1 1 -1 0 -1 0 -1 0 0 1 -1 0 -1 0 -1 0 -1 1 0 0 -1 0 -1 1 -1 0 -1 0 0 0 -1 1 -1 0 -1 0 0 1 -1 0 -1 0 -1 1 -1 0 0 0 -1 1 -1 0 -1 0 0 1 -1 0 -1 0 -1 1 0 0 -1 1 -1 0 -1 0 0 1 -1 0 -1 0 0 1 -1 0 -1 1 -1 0 0 1 -1 0 -1 0 0 1 -1 0 -1 1 -1 0 0 1 -1 0 -1 0 0 1 -1 0 -1 1 0 0 -1 1 -1 0 0 1 -1 0 -1 1 0 0 -1 1 -1 0 0 1 -1 0 -1 1 0 0 -1 1 -1 0 0zm-32 199l20 0 0 100 -20 0 0 -100zm0 200l20 0 0 100 -20 0 0 -100zm0 200l20 0 0 30 0 1 0 1 0 1 1 0 0 1 0 1 0 1 0 0 0 1 0 1 0 1 0 0 0 1 0 1 0 1 0 0 0 1 0 1 0 0 0 1 1 1 0 1 0 0 0 1 0 1 0 1 0 0 0 1 0 1 1 0 0 1 0 1 0 1 0 0 0 1 0 1 1 0 0 1 0 1 0 0 0 1 1 1 0 1 0 0 0 1 0 1 1 0 0 1 0 1 0 0 0 1 1 1 0 0 0 1 0 1 1 0 0 1 0 1 0 0 1 1 0 1 0 0 0 1 1 1 0 0 0 1 1 1 0 0 0 1 0 1 1 0 0 1 0 1 1 0 0 1 0 0 1 1 0 1 0 0 1 1 0 1 0 0 1 1 0 0 0 1 1 1 0 0 0 1 1 0 0 0 -17 11 0 0 -1 -1 0 0 0 -1 -1 -1 0 -1 -1 0 0 -1 -1 -1 0 -1 0 0 -1 -1 0 -1 0 0 -1 -1 0 -1 -1 -1 0 0 0 -1 -1 -1 0 -1 0 0 -1 -1 0 -1 0 -1 -1 0 0 -1 0 -1 -1 -1 0 -1 0 0 -1 -1 0 -1 0 -1 0 0 -1 -1 0 -1 0 -1 -1 -1 0 0 0 -1 0 -1 -1 -1 0 -1 0 0 0 -1 -1 -1 0 -1 0 -1 0 -1 0 0 -1 -1 0 -1 0 -1 0 -1 0 0 -1 -1 0 -1 0 -1 0 -1 0 -1 0 0 -1 -1 0 -1 0 -1 0 -1 0 -1 0 -1 0 0 0 -1 -1 -1 0 -1 0 -1 0 -1 0 -1 0 0 0 -1 0 -1 0 -1 0 -1 0 -1 0 -1 0 0 0 -1 0 -1 0 -1 -1 -1 0 -1 0 -1 0 -1 0 -30zm106 164l5 -20 0 0 1 0 1 1 0 0 1 0 1 0 0 0 1 0 1 1 1 0 0 0 1 0 1 0 0 0 1 0 1 0 1 0 0 0 1 1 1 0 1 0 0 0 1 0 1 0 1 0 0 0 1 0 1 0 0 0 1 0 1 0 1 0 1 0 0 0 1 0 1 0 0 0 71 0 0 20 -71 0 0 0 -1 0 -1 0 -1 0 -1 0 -1 0 -1 0 -1 0 0 0 -1 0 -1 0 -1 0 -1 0 -1 0 -1 0 0 0 -1 0 -1 -1 -1 0 -1 0 -1 0 -1 0 0 0 -1 0 -1 0 -1 -1 -1 0 -1 0 -1 0 0 0 -1 0 -1 0 -1 -1 -1 0 -1 0 0 0 -1 0zm202 3l0 -20 100 0 0 20 -100 0zm200 0l0 -20 100 0 0 20 -100 0zm200 0l0 -20 100 0 0 20 -100 0zm200 0l0 -20 100 0 0 20 -100 0zm200 0l0 -20 100 0 0 20 -100 0zm200 0l0 -20 100 0 0 20 -100 0zm200 0l0 -20 100 0 0 20 -100 0zm200 0l0 -20 100 0 0 20 -100 0zm200 0l0 -20 100 0 0 20 -100 0zm200 0l0 -20 100 0 0 20 -100 0zm200 0l0 -20 100 0 0 20 -100 0zm200 0l0 -20 100 0 0 20 -100 0zm200 0l0 -20 100 0 0 20 -100 0zm200 0l0 -20 100 0 0 20 -100 0zm200 0l0 -20 94 0 1 0 1 0 1 0 0 0 1 0 1 0 1 0 1 20 -1 0 -1 0 -1 0 -1 0 -1 0 -1 0 -1 0 -94 0zm196 -45l-15 -13 0 0 0 -1 1 0 0 -1 1 0 0 -1 1 0 0 -1 1 0 0 -1 1 0 0 -1 0 -1 1 0 0 -1 1 0 0 -1 1 0 0 -1 0 0 1 -1 0 -1 1 0 0 -1 0 0 1 -1 0 -1 1 0 0 -1 0 0 1 -1 0 -1 0 0 1 -1 0 0 0 -1 1 -1 0 0 1 -1 0 0 0 -1 1 -1 0 0 0 -1 1 -1 0 0 0 -1 1 0 0 -1 0 -1 0 0 1 -1 0 -1 0 0 1 -1 0 -1 0 0 0 -1 1 -1 0 0 0 -1 1 -1 0 0 0 -1 0 -1 1 0 0 -1 0 -1 0 0 0 -1 1 -1 0 0 0 -1 0 -1 1 0 0 -1 0 -1 0 0 0 -1 1 -1 0 -1 0 0 0 -1 0 -1 0 0 1 -1 0 -1 0 0 0 -1 0 -1 0 -1 0 0 1 -1 0 -1 0 0 0 -1 0 -1 0 -1 0 0 0 -1 0 -1 1 -1 0 0 0 -1 0 -1 0 0 0 -1 0 -1 0 -1 0 0 0 -1 0 -1 0 -1 0 0 0 -1 0 -1 0 -1 0 0 0 -1 0 -1 0 -1 0 -6 20 0 0 6 0 1 0 1 0 1 0 1 0 1 0 1 0 1 0 0 0 1 0 1 0 1 0 1 0 1 0 1 0 0 0 1 0 1 0 1 -1 1 0 1 0 1 0 0 0 1 0 1 0 1 0 1 -1 1 0 1 0 0 0 1 0 1 0 1 -1 1 0 1 0 0 0 1 0 1 -1 1 0 1 0 0 0 1 0 1 -1 1 0 1 0 1 0 0 -1 1 0 1 0 1 0 1 -1 0 0 1 0 1 0 1 -1 1 0 0 0 1 -1 1 0 1 0 0 0 1 -1 1 0 1 0 1 -1 0 0 1 0 1 -1 1 0 0 0 1 -1 1 0 1 -1 0 0 1 0 1 -1 1 0 0 0 1 -1 1 0 0 -1 1 0 1 0 1 -1 0 0 1 -1 1 0 1 -1 0 0 1 0 1 -1 0 0 1 -1 1 0 0 -1 1 0 1 -1 1 0 0 0 1 -1 0 0 1 -1 1 0 1 -1 0 0 1 -1 1 0 0 -1 1 0 0 -1 1 0 1 -1 0 -1 1 0 1 -1 0 0 1 -1 0 0 1 -1 1 0 0 0 0zm35 -198l-20 0 0 -100 20 0 0 100zm0 -200l-20 0 0 -100 20 0 0 100zm0 -200l-20 0 0 -36 0 0 0 -1 0 -1 0 0 0 -1 0 -1 0 -1 0 -1 0 0 0 -1 0 -1 0 0 0 -1 0 -1 0 -1 0 0 0 -1 0 -1 0 -1 -1 0 0 -1 0 -1 0 -1 0 0 0 -1 0 -1 0 0 0 -1 -1 -1 0 -1 0 0 0 -1 0 -1 0 0 0 -1 -1 -1 0 -1 0 0 0 -1 0 -1 0 0 -1 -1 0 -1 0 0 0 -1 0 -1 -1 -1 0 0 0 -1 0 -1 -1 0 0 -1 0 -1 0 0 0 -1 -1 -1 0 0 0 -1 0 -1 -1 0 0 -1 0 -1 -1 0 0 -1 0 -1 0 0 -1 -1 0 -1 0 0 -1 -1 0 0 0 -1 0 -1 -1 0 0 -1 0 -1 -1 0 0 -1 0 -1 -1 0 0 -1 0 0 17 -10 0 1 1 0 0 1 1 1 0 0 0 1 1 1 0 1 0 0 1 1 0 1 1 1 0 0 0 1 1 1 0 1 0 0 1 1 0 1 0 1 1 1 0 0 0 1 0 1 1 1 0 0 0 1 1 1 0 1 0 1 0 0 1 1 0 1 0 1 0 1 1 0 0 1 0 1 0 1 1 1 0 1 0 0 0 1 0 1 1 1 0 1 0 0 0 1 0 1 1 1 0 1 0 1 0 0 0 1 0 1 1 1 0 1 0 1 0 1 0 0 0 1 0 1 0 1 1 1 0 1 0 1 0 0 0 1 0 1 0 1 0 1 0 1 0 1 0 0 0 1 0 1 0 1 0 1 0 1 0 1 0 1 0 0 0 36zm-99 -167l-6 19 0 0 -1 0 -1 -1 0 0 -1 0 -1 0 -1 0 0 -1 -1 0 -1 0 0 0 -1 0 -1 0 0 0 -1 -1 -1 0 -1 0 0 0 -1 0 -1 0 -1 0 0 0 -1 0 -1 -1 -1 0 0 0 -1 0 -1 0 0 0 -1 0 -1 0 -1 0 0 0 -1 0 -1 0 -1 0 0 0 -1 0 -1 0 -1 0 0 -1 -1 0 -1 0 -1 0 -65 0 0 -20 65 0 1 0 1 0 1 0 1 0 1 1 1 0 1 0 0 0 1 0 1 0 1 0 1 0 1 0 1 0 0 0 1 0 1 0 1 0 1 0 1 1 1 0 0 0 1 0 1 0 1 0 1 0 1 0 1 1 0 0 1 0 1 0 1 0 1 0 1 1 0 0 1 0 1 0 1 0 1 1 1 0 0 0 1 0 1 0 1 1zm-203 -6l0 20 -100 0 0 -20 100 0zm-200 0l0 20 -100 0 0 -20 100 0zm-200 0l0 20 -100 0 0 -20 100 0zm-200 0l0 20 -100 0 0 -20 100 0zm-200 0l0 20 -100 0 0 -20 100 0zm-200 0l0 20 -100 0 0 -20 100 0zm-200 0l0 20 -100 0 0 -20 100 0zm-200 0l0 20 -100 0 0 -20 100 0zm-200 0l0 20 -100 0 0 -20 100 0zm-200 0l0 20 -100 0 0 -20 100 0zm-200 0l0 20 -100 0 0 -20 100 0zm-200 0l0 20 -100 0 0 -20 100 0zm-200 0l0 20 -100 0 0 -20 100 0zm-200 0l0 20 -100 0 0 -20 100 0z"/>
   </g>
   <path class="fil1" d="M600 477c0,-39 -27,-64 -61,-70l0 -1c29,-10 49,-32 49,-65 0,-60 -55,-77 -102,-77l-119 0 0 300 119 0c57,0 114,-22 114,-87zm-82 -126c0,21 -15,33 -43,33l-39 0 0 -62 36 0c31,0 46,9 46,29zm10 119c0,29 -28,36 -51,36l-41 0 0 -69 41 0c31,0 51,8 51,33z"/>
   <polygon id="1" class="fil1" points="985,564 985,501 869,501 869,264 796,264 796,564 "/>
   <path id="2" class="fil1" d="M1331 462l0 -198 -73 0 0 198c0,26 -5,45 -29,45 -15,0 -26,-11 -30,-27l-64 22c11,41 47,70 97,70 82,0 99,-63 99,-110z"/>
   <path id="3" class="fil1" d="M1784 564l-78 -128c39,-12 62,-41 62,-81 0,-69 -57,-91 -114,-91l-115 0 0 300 71 0 0 -119 25 0 65 119 84 0zm-87 -208c0,31 -29,37 -53,37l-34 0 0 -70 38 0c22,0 49,5 49,33z"/>
   <polygon id="4" class="fil1" points="2041,564 2041,264 1968,264 1968,564 "/>
   <path id="5" class="fil1" d="M2534 564l-124 -300 -70 0 -126 300 79 0 22 -59 116 0 23 59 80 0zm-123 -117l-75 0 38 -103 37 103z"/>
   <polygon id="6" class="fil1" points="2969,564 2969,264 2897,264 2897,378 2780,378 2780,264 2708,264 2708,564 2780,564 2780,439 2897,439 2897,564 "/>
  </g>
 </g>
</svg>
